<svg width="176" height="42" viewBox="0 0 176 42" fill="none" xmlns="http://www.w3.org/2000/svg">
<g filter="url(#filter0_d_197_1367)">
<rect x="2" width="171.865" height="28.6442" rx="12" fill="#FBF9F9"/>
<path d="M85.5551 37.0028L78.9429 27.1591L92.1542 27.1525L85.5551 37.0028Z" fill="#FBF9F9"/>
<path d="M26.1562 19.1367C28.1318 19.1367 29.5674 17.7559 29.5742 15.8418C29.5674 13.9141 28.1797 12.5195 26.293 12.5195C25.5957 12.5195 24.9326 12.752 24.4883 13.0938H24.3926L24.7617 10.1953H29.0957V9.10156H23.7363L23.0391 14.5156H24.2285C24.5908 13.873 25.2402 13.6133 26.0742 13.627C27.4072 13.6338 28.3711 14.584 28.3711 15.8691C28.3711 17.1133 27.4414 18.0498 26.1562 18.0566C25.083 18.0498 24.2217 17.3936 24.1328 16.5117H22.9434C23.0186 18.0361 24.3721 19.1367 26.1562 19.1367ZM41.9609 14.3926H30.832V15.2676H35.9453V17.6465H37.0117V15.2676H41.9609V14.3926ZM32.2539 19.8477H40.7168V18.9453H33.3203V16.5254H32.2539V19.8477ZM32.3223 13.2031H40.4707V8.34961H39.4043V9.9082H33.3887V8.34961H32.3223V13.2031ZM33.3887 12.3281V10.7285H39.4043V12.3281H33.3887ZM52.5977 9.06055H46.9785V14.6523H52.5977V9.06055ZM48.0312 13.791V9.93555H51.5586V13.791H48.0312ZM48.3594 19.8477H56.5215V18.9453H49.4121V16.0195H48.3594V19.8477ZM54.8945 16.8672H55.9609V12.5605H57.793V11.6582H55.9609V7.95312H54.8945V16.8672ZM68.9766 7.95312H67.9375V20.1074H68.9766V7.95312ZM58.709 13.2031C58.7158 15.7871 59.7412 17.4346 61.3203 17.4277C62.8174 17.4346 63.8359 15.9512 63.9385 13.5859H65.5039V19.4922H66.5293V8.21289H65.5039V12.6973H63.9316C63.7949 10.4072 62.7969 8.98535 61.3203 8.97852C59.7412 8.98535 58.7158 10.6191 58.709 13.2031ZM59.7207 13.2031C59.707 11.2275 60.3359 9.99023 61.3203 9.99023C62.3115 9.99023 62.9404 11.2275 62.9336 13.2031C62.9404 15.1719 62.3115 16.416 61.3203 16.4023C60.3359 16.416 59.707 15.1719 59.7207 13.2031ZM80.502 9.15625H74.8828V17.0586H80.502V9.15625ZM75.9355 16.1836V10.0176H79.4492V16.1836H75.9355ZM83.1133 20.1348H84.1934V7.95312H83.1133V20.1348ZM92.8066 8.85547H86.9824V14.625H87.9668C90.6533 14.6318 92.1436 14.5703 93.9141 14.2832L93.8047 13.4082C92.0957 13.6953 90.6465 13.7432 88.0625 13.7363V12.1367H92.4648V11.2617H88.0625V9.73047H92.8066V8.85547ZM88.1582 17.8652C88.1582 19.2803 89.6963 20.0801 92.2734 20.0801C94.8027 20.0801 96.3682 19.2803 96.3613 17.8652C96.3682 16.4775 94.8027 15.6641 92.2734 15.6777C89.6963 15.6641 88.1582 16.4775 88.1582 17.8652ZM89.2246 17.8652C89.2246 17.0381 90.3594 16.5254 92.2734 16.5254C94.1328 16.5254 95.3018 17.0381 95.3086 17.8652C95.3018 18.7266 94.1328 19.2324 92.2734 19.2324C90.3594 19.2324 89.2246 18.7266 89.2246 17.8652ZM95.2402 15.5H96.3066V7.9668H95.2402V15.5ZM111.92 7.9668H110.854V16.8809H111.92V7.9668ZM102.008 14.2832L102.596 15.1172C104.018 14.5498 105.125 13.3535 105.651 11.8633C106.191 13.2646 107.285 14.3584 108.693 14.8984L109.254 14.0371C107.442 13.3809 106.178 11.7197 106.191 9.86719V8.65039H105.098V9.86719C105.098 11.7881 103.847 13.5654 102.008 14.2832ZM104.072 19.8477H112.303V18.9453H105.139V16.0605H104.072V19.8477ZM118.127 10.5645V10.3047H120.875V9.44336H118.154V7.89844H117.074V9.44336H114.326V10.3047H117.074V10.5645C117.067 12.2119 115.81 13.6953 114.025 14.2969L114.545 15.1172C115.994 14.6387 117.108 13.5928 117.628 12.2666C118.182 13.4629 119.303 14.3789 120.711 14.8027L121.23 13.9688C119.439 13.4424 118.134 12.0752 118.127 10.5645ZM115.953 17.8652C115.946 19.2734 117.498 20.0801 120.027 20.0801C122.55 20.0801 124.102 19.2734 124.102 17.8652C124.102 16.4502 122.55 15.6436 120.027 15.6504C117.498 15.6436 115.946 16.4502 115.953 17.8652ZM117.02 17.8652C117.013 16.9971 118.161 16.498 120.027 16.4844C121.894 16.498 123.035 16.9971 123.035 17.8652C123.035 18.7129 121.894 19.2324 120.027 19.2324C118.161 19.2324 117.013 18.7129 117.02 17.8652ZM120.492 12.3281H122.98V15.3223H124.061V7.95312H122.98V11.4395H120.492V12.3281ZM139.004 7.95312H137.938V20.1074H139.004V13.8047H140.973V12.9023H139.004V7.95312ZM129.68 16.9492L130.281 17.7969C134.239 15.8418 135.853 12.7041 135.859 9.26562H130.24V10.168H134.772C134.526 13.0459 132.817 15.3906 129.68 16.9492ZM151.514 11.3574H144.281V8.19922H143.215V12.2461H151.514V11.3574ZM141.697 14.5566H152.785V13.668H141.697V14.5566ZM143.037 17.8516C143.03 19.2598 144.609 20.0527 147.234 20.0527C149.839 20.0527 151.404 19.2598 151.418 17.8516C151.404 16.4365 149.839 15.6436 147.234 15.6504C144.609 15.6436 143.03 16.4365 143.037 17.8516ZM144.131 17.8516C144.117 16.9902 145.286 16.5049 147.234 16.498C149.162 16.5049 150.331 16.9902 150.338 17.8516C150.331 18.6992 149.162 19.2119 147.234 19.2188C145.286 19.2119 144.117 18.6992 144.131 17.8516Z" fill="black"/>
</g>
<defs>
<filter id="filter0_d_197_1367" x="0" y="0" width="175.865" height="41.0029" filterUnits="userSpaceOnUse" color-interpolation-filters="sRGB">
<feFlood flood-opacity="0" result="BackgroundImageFix"/>
<feColorMatrix in="SourceAlpha" type="matrix" values="0 0 0 0 0 0 0 0 0 0 0 0 0 0 0 0 0 0 127 0" result="hardAlpha"/>
<feOffset dy="2"/>
<feGaussianBlur stdDeviation="1"/>
<feComposite in2="hardAlpha" operator="out"/>
<feColorMatrix type="matrix" values="0 0 0 0 0.466667 0 0 0 0 0.466667 0 0 0 0 0.466667 0 0 0 0.25 0"/>
<feBlend mode="normal" in2="BackgroundImageFix" result="effect1_dropShadow_197_1367"/>
<feBlend mode="normal" in="SourceGraphic" in2="effect1_dropShadow_197_1367" result="shape"/>
</filter>
</defs>
</svg>
