<svg width="80" height="80" viewBox="0 0 80 80" fill="none" xmlns="http://www.w3.org/2000/svg">
<path d="M22.127 46.298C21.9403 46.1356 21.2856 45.3916 20.9481 45.0644C20.2985 44.4392 18.5315 42.8736 16.3502 41.0656C15.872 40.6681 15.6469 40.4839 15.762 40.3046C15.8873 40.1156 21.5337 35.4769 23.1959 34.1391C23.449 33.9356 23.2394 33.5914 22.9811 33.5963L22.8609 31.0491C22.8865 31.0297 22.912 31.0079 22.9376 30.9885C23.0731 30.8819 22.912 30.6929 22.7688 30.7874C19.9635 32.6438 13.8109 38.2664 13.238 38.8553C12.7138 39.3958 12.0208 40.0017 12.0003 40.7893C11.985 41.3395 12.4888 41.9817 13.0872 42.4252C14.4169 43.4043 17.997 46.0193 18.9202 46.7803C18.6824 46.9209 17.8104 47.7521 17.5828 48.1132C17.1353 48.8306 17.951 49.7927 18.6338 50.0739C19.0199 50.2338 19.447 50.1999 19.7948 49.9793C19.9968 49.8509 20.163 49.6764 20.3369 49.5165C20.5287 49.3395 20.7205 49.1626 20.9123 48.9881C21.2959 48.6343 21.6794 48.2829 22.063 47.929C22.398 47.6213 22.7867 47.2432 22.5566 46.7682C22.4645 46.5791 22.283 46.441 22.1244 46.3029L22.127 46.298Z" fill="#3D61D3"/>
<path d="M67.8398 24.4869C67.4358 23.5587 66.4308 23.36 65.4821 23.3309C65.477 22.8026 65.6688 22.2767 65.5256 21.7508C65.3875 21.2491 64.9195 20.7983 64.3313 20.8662C63.7457 20.9365 63.536 21.4769 63.4516 21.9568C63.3417 22.5723 63.1652 23.1298 62.8277 23.6702C62.5285 24.1501 62.1577 24.6663 62.1577 25.2455C62.1577 25.5266 62.2523 25.7738 62.4109 26.0089C62.5336 26.1931 62.7331 26.3797 62.6564 26.6124C62.5541 26.9202 62.3572 27.2182 62.2114 27.5091C62.0503 27.829 61.8866 28.1489 61.7255 28.4712C61.4135 29.0892 61.099 29.7072 60.787 30.3252C60.1221 31.6412 59.4547 32.9548 58.7898 34.2707C56.698 33.0662 54.9693 31.3964 53.1435 29.872C52.5988 29.4164 52.0464 28.9705 51.4685 28.556C51.2741 28.4179 51.0696 28.6893 51.246 28.8396C51.2869 28.8735 51.3253 28.9099 51.3662 28.9438L51.5068 32.9717C51.2383 32.9935 51.044 33.3352 51.3253 33.5025C53.2253 34.644 57.634 38.049 58.6543 38.2986C59.1044 38.4077 59.6567 38.4998 60.0838 38.2744C60.5006 38.0539 60.6719 37.6079 60.8535 37.2177C61.7358 35.3322 65.7327 27.4582 65.8861 27.3612C66.0498 27.257 66.3055 27.2498 66.4896 27.1843C66.6993 27.1116 66.8988 27.005 67.0804 26.8814C67.8731 26.3409 68.226 25.357 67.8475 24.4894L67.8398 24.4869Z" fill="#3D61D3"/>
<path d="M22.127 46.298C21.9403 46.1356 21.2856 45.3916 20.9481 45.0644C20.2985 44.4392 18.5315 42.8736 16.3502 41.0656C15.872 40.6681 15.6469 40.4839 15.762 40.3046C15.8873 40.1156 21.5337 35.4769 23.1959 34.1391C23.449 33.9356 23.2394 33.5914 22.9811 33.5963L22.8609 31.0491C22.8865 31.0297 22.912 31.0079 22.9376 30.9885C23.0731 30.8819 22.912 30.6929 22.7688 30.7874C19.9635 32.6438 13.8109 38.2664 13.238 38.8553C12.7138 39.3958 12.0208 40.0017 12.0003 40.7893C11.985 41.3395 12.4888 41.9817 13.0872 42.4252C14.4169 43.4043 17.997 46.0193 18.9202 46.7803C18.6824 46.9209 17.8104 47.7521 17.5828 48.1132C17.1353 48.8306 17.951 49.7927 18.6338 50.0739C19.0199 50.2338 19.447 50.1999 19.7948 49.9793C19.9968 49.8509 20.163 49.6764 20.3369 49.5165C20.5287 49.3395 20.7205 49.1626 20.9123 48.9881C21.2959 48.6343 21.6794 48.2829 22.063 47.929C22.398 47.6213 22.7867 47.2432 22.5566 46.7682C22.4645 46.5791 22.283 46.441 22.1244 46.3029L22.127 46.298Z" fill="url(#paint0_radial_251_1416)"/>
<path d="M67.8398 24.4869C67.4358 23.5587 66.4308 23.36 65.4821 23.3309C65.477 22.8026 65.6688 22.2767 65.5256 21.7508C65.3875 21.2491 64.9195 20.7983 64.3313 20.8662C63.7457 20.9365 63.536 21.4769 63.4516 21.9568C63.3417 22.5723 63.1652 23.1298 62.8277 23.6702C62.5285 24.1501 62.1577 24.6663 62.1577 25.2455C62.1577 25.5266 62.2523 25.7738 62.4109 26.0089C62.5336 26.1931 62.7331 26.3797 62.6564 26.6124C62.5541 26.9202 62.3572 27.2182 62.2114 27.5091C62.0503 27.829 61.8866 28.1489 61.7255 28.4712C61.4135 29.0892 61.099 29.7072 60.787 30.3252C60.1221 31.6412 59.4547 32.9548 58.7898 34.2707C56.698 33.0662 54.9693 31.3964 53.1435 29.872C52.5988 29.4164 52.0464 28.9705 51.4685 28.556C51.2741 28.4179 51.0696 28.6893 51.246 28.8396C51.2869 28.8735 51.3253 28.9099 51.3662 28.9438L51.5068 32.9717C51.2383 32.9935 51.044 33.3352 51.3253 33.5025C53.2253 34.644 57.634 38.049 58.6543 38.2986C59.1044 38.4077 59.6567 38.4998 60.0838 38.2744C60.5006 38.0539 60.6719 37.6079 60.8535 37.2177C61.7358 35.3322 65.7327 27.4582 65.8861 27.3612C66.0498 27.257 66.3055 27.2498 66.4896 27.1843C66.6993 27.1116 66.8988 27.005 67.0804 26.8814C67.8731 26.3409 68.226 25.357 67.8475 24.4894L67.8398 24.4869Z" fill="url(#paint1_radial_251_1416)"/>
<path d="M23.0015 13.8768L18.667 66.8359L34.4809 65.8422L34.5141 52.0305L41.0376 51.6573L43.2087 65.2024L57.4141 64.4826L49.3128 12.8008L23.0015 13.8768ZM34.5525 34.5544L34.9719 25.3304L37.4524 25.2529L38.2681 34.3969L34.5525 34.5544Z" fill="#3D61D3"/>
<path d="M63.6742 23.9004C64.0168 23.8737 64.3518 23.8616 64.6945 23.9004C65.0372 23.9392 65.3619 24.0095 65.6816 24.1209C65.7353 24.1403 65.8248 24.1573 65.8504 24.213C65.8785 24.2712 65.8529 24.3657 65.8452 24.4263C65.8273 24.5693 65.7967 24.7171 65.7199 24.8431C65.5793 25.0734 65.3031 25.1752 65.0423 25.2236C64.8684 25.2551 64.6919 25.2697 64.5155 25.2697C64.4157 25.2697 64.3135 25.2673 64.2137 25.26C64.114 25.2527 64.0143 25.2333 63.9145 25.2382C63.8353 25.243 63.7764 25.3642 63.8685 25.4006C64.0475 25.4733 64.2649 25.4733 64.4567 25.4757C64.6485 25.4781 64.8428 25.4636 65.032 25.4345C65.3415 25.386 65.656 25.2673 65.8478 25.0225C65.9552 24.8868 66.0038 24.722 66.0268 24.5547C66.0473 24.4118 66.0907 24.2082 65.9884 24.087C65.9424 24.0337 65.8785 24.0046 65.812 23.9804C65.7174 23.9464 65.6202 23.9174 65.523 23.8907C65.3363 23.8398 65.1446 23.801 64.9528 23.7744C64.5308 23.7186 64.0833 23.7114 63.6614 23.7962C63.6 23.8083 63.6128 23.9077 63.6767 23.9028L63.6742 23.9004Z" fill="#403E3D"/>
<path d="M65.0705 25.4082C65.0577 25.6361 64.9682 25.8542 64.8301 26.0408C64.7636 26.1305 64.6792 26.2104 64.5897 26.2807C64.5462 26.3146 64.4977 26.3437 64.4491 26.3704C64.3954 26.3995 64.3135 26.4237 64.288 26.4794C64.265 26.5303 64.2829 26.5812 64.3391 26.6006C64.4107 26.6249 64.4925 26.574 64.5514 26.54C64.6102 26.5061 64.6664 26.4673 64.7201 26.4286C64.825 26.3462 64.917 26.2468 64.9912 26.1377C65.1395 25.922 65.2137 25.6627 65.1983 25.4058C65.1932 25.3283 65.0756 25.3283 65.0705 25.4058V25.4082Z" fill="#403E3D"/>
<path d="M66.3364 24.2999C66.2955 24.4986 66.2546 24.6998 66.2085 24.8961C66.1676 25.0657 66.1318 25.2475 66.0449 25.4026C65.9579 25.5577 65.8096 25.6401 65.6434 25.7056C65.4976 25.7613 65.2981 25.8485 65.1473 25.7686C65.0271 25.7056 64.9197 25.88 65.0399 25.9431C65.2317 26.0424 65.4465 25.9891 65.6383 25.9188C65.83 25.8485 66.0295 25.7589 66.1574 25.5917C66.2852 25.4244 66.321 25.2233 66.3568 25.027C66.4003 24.7919 66.4284 24.5544 66.4566 24.3169C66.4642 24.2539 66.3517 24.2393 66.3389 24.3023L66.3364 24.2999Z" fill="#403E3D"/>
<path d="M65.8017 25.8437C65.8298 26.0303 65.9091 26.2363 66.1418 26.2436C66.354 26.2509 66.5688 26.1345 66.7172 26.0012C67.0854 25.6765 67.1596 25.1869 67.2235 24.7386C67.2312 24.6901 67.1749 24.6489 67.1263 24.6465C67.0701 24.6465 67.0368 24.6877 67.0291 24.7386C66.9806 25.107 66.9269 25.5117 66.6609 25.8025C66.5535 25.9213 66.418 26.0206 66.2543 26.0643C66.1674 26.0861 66.0753 26.1006 66.0139 26.0279C65.9628 25.9673 65.9423 25.8873 65.9219 25.8122C65.9014 25.7347 65.7889 25.771 65.7991 25.8437H65.8017Z" fill="#403E3D"/>
<path d="M66.7124 25.8759C66.6893 26.0261 66.7584 26.1885 66.9016 26.2612C67.0448 26.3339 67.2443 26.317 67.3721 26.2103C67.4079 26.1812 67.4054 26.1328 67.3875 26.0964C67.3798 26.0819 67.367 26.0698 67.3517 26.0625C67.3107 26.0407 67.2673 26.0504 67.2315 26.077C67.2494 26.0625 67.2315 26.077 67.2264 26.0795C67.2212 26.0819 67.2161 26.0867 67.211 26.0892C67.1982 26.0964 67.1854 26.1013 67.1727 26.1085C67.188 26.1013 67.1752 26.1085 67.1675 26.1085C67.1624 26.1085 67.1548 26.1134 67.1496 26.1134C67.1369 26.1182 67.1215 26.1207 67.1087 26.1231C67.1215 26.1231 67.1164 26.1231 67.1087 26.1231C67.1011 26.1231 67.0959 26.1231 67.0883 26.1231C67.0806 26.1231 67.0729 26.1231 67.0653 26.1231C67.0627 26.1231 67.0397 26.1207 67.055 26.1231C67.0704 26.1255 67.0474 26.1231 67.0448 26.1231C67.0371 26.1231 67.0295 26.1207 67.0218 26.1182C67.0167 26.1182 67.009 26.1134 67.0039 26.1134C66.9988 26.1134 66.9988 26.1134 67.0064 26.1134C67.0039 26.1134 66.9988 26.111 66.9962 26.1085C66.9834 26.1037 66.9706 26.0964 66.9579 26.0892C66.9527 26.0867 66.9476 26.0819 66.9425 26.0795C66.9348 26.0746 66.9502 26.0867 66.94 26.077C66.9297 26.0673 66.9195 26.0576 66.9093 26.048C66.9042 26.0431 66.9016 26.0383 66.8965 26.0334C66.9067 26.0455 66.8914 26.0261 66.8914 26.0261C66.8735 26.0019 66.8658 25.9849 66.8581 25.9631C66.8479 25.9365 66.8453 25.9195 66.8453 25.8928C66.8453 25.8638 66.8223 25.8371 66.7891 25.8323C66.7609 25.8298 66.7226 25.8468 66.7175 25.8759H66.7124Z" fill="#403E3D"/>
<path d="M34.5142 18.2358C34.5347 19.593 33.3916 20.7078 31.9595 20.7272C30.5275 20.7466 29.3512 19.6633 29.3307 18.3061C29.3103 16.9489 30.4533 15.8341 31.8854 15.8147C33.3174 15.7953 34.4938 16.8786 34.5142 18.2358Z" fill="white"/>
<path d="M35.0255 18.3101C35.046 19.5873 33.9668 20.6391 32.6192 20.6585C31.2715 20.6779 30.1617 19.6552 30.1412 18.378C30.1233 17.1008 31.1999 16.049 32.5476 16.0296C33.8952 16.0102 35.0051 17.0329 35.0255 18.3101Z" fill="#403E3D"/>
<path d="M42.3188 18.1323C42.3392 19.4895 41.1962 20.6043 39.7641 20.6237C38.3321 20.6431 37.1557 19.5598 37.1353 18.2026C37.1148 16.8454 38.2579 15.7306 39.6899 15.7112C41.122 15.6918 42.2983 16.7751 42.3188 18.1323Z" fill="white"/>
<path d="M42.989 18.2222C43.0069 19.4994 41.9303 20.5512 40.5826 20.5706C39.235 20.59 38.1251 19.5672 38.1047 18.29C38.0842 17.0128 39.1633 15.961 40.511 15.9416C41.8587 15.9247 42.9685 16.945 42.989 18.2222Z" fill="#403E3D"/>
<path d="M33.3813 21.959C33.3813 21.959 35.624 23.8712 38.3884 21.959" stroke="#403E3D" stroke-linecap="round" stroke-linejoin="round"/>
<defs>
<radialGradient id="paint0_radial_251_1416" cx="0" cy="0" r="1" gradientUnits="userSpaceOnUse" gradientTransform="translate(23.917 33.3248) scale(8.56415 8.11641)">
<stop stop-color="#1E2B78" stop-opacity="0.9"/>
<stop offset="1" stop-color="#1E2B78" stop-opacity="0"/>
</radialGradient>
<radialGradient id="paint1_radial_251_1416" cx="0" cy="0" r="1" gradientUnits="userSpaceOnUse" gradientTransform="translate(48.0878 30.6063) scale(10.3644 9.82258)">
<stop stop-color="#1E2B78" stop-opacity="0.9"/>
<stop offset="1" stop-color="#1E2B78" stop-opacity="0"/>
</radialGradient>
</defs>
</svg>