<svg width="156" height="102" viewBox="0 0 156 102" fill="none" xmlns="http://www.w3.org/2000/svg">
<path d="M11.9114 36.0974L139.233 14.6738L139.707 19.6501L12.6091 41.1445L11.9114 36.0974Z" fill="#BABAE5"/>
<path d="M12.0461 62.3021L140.997 68.8357L140.89 63.8382L12.1524 57.209L12.0461 62.3021Z" fill="#BABAE5"/>
<path d="M23.04 23.3673L42.1309 22.3516L42.9208 71.1129L23.04 71.3395V23.3673Z" fill="#EA685E"/>
<path d="M34.6469 35.0116C34.6469 36.0946 33.7685 36.9724 32.6846 36.9724C31.6008 36.9724 30.7224 36.0946 30.7224 35.0116C30.7224 33.9285 31.6008 33.0508 32.6846 33.0508C33.7685 33.0508 34.6469 33.9285 34.6469 35.0116Z" fill="#DDDDDD"/>
<path d="M34.6469 60.2967C34.6469 61.3798 33.7685 62.2575 32.6846 62.2575C31.6008 62.2575 30.7224 61.3798 30.7224 60.2967C30.7224 59.2137 31.6008 58.3359 32.6846 58.3359C33.7685 58.3359 34.6469 59.2137 34.6469 60.2967Z" fill="#DDDDDD"/>
<path d="M48.092 17.169L49.6611 75.5149L72.1416 74.9521L70.7851 16.2559L48.092 17.169Z" fill="#B7DCC7"/>
<path d="M61.5514 29.869C61.5514 30.952 60.673 31.8298 59.5892 31.8298C58.5054 31.8298 57.627 30.952 57.627 29.869C57.627 28.786 58.5054 27.9082 59.5892 27.9082C60.673 27.9082 61.5514 28.786 61.5514 29.869Z" fill="#DDDDDD"/>
<path d="M60.5704 64.2185C61.6541 64.2185 62.5326 63.3406 62.5326 62.2577C62.5326 61.1747 61.6541 60.2969 60.5704 60.2969C59.4867 60.2969 58.6082 61.1747 58.6082 62.2577C58.6082 63.3406 59.4867 64.2185 60.5704 64.2185Z" fill="#DDDDDD"/>
<path d="M77.313 9.97786L79.1796 79.0161L102.79 78.4215L100.08 9.14258L77.313 9.97786Z" fill="#A2A0D8"/>
<path d="M91.215 24.3124C91.215 25.3954 90.3366 26.2731 89.2528 26.2731C88.1689 26.2731 87.2905 25.3954 87.2905 24.3124C87.2905 23.2293 88.1689 22.3516 89.2528 22.3516C90.3366 22.3516 91.215 23.2293 91.215 24.3124Z" fill="#DDDDDD"/>
<path d="M90.0496 65.8532C91.1333 65.8532 92.0118 64.9753 92.0118 63.8924C92.0118 62.8095 91.1333 61.9316 90.0496 61.9316C88.9659 61.9316 88.0874 62.8095 88.0874 63.8924C88.0874 64.9753 88.9659 65.8532 90.0496 65.8532Z" fill="#DDDDDD"/>
<path d="M105.425 1.6918L109.002 82.2895L132.836 81.8364L128.883 0L105.425 1.6918Z" fill="#806BB2"/>
<path d="M121.934 65.8514C121.934 66.9344 121.056 67.8122 119.972 67.8122C118.888 67.8122 118.01 66.9344 118.01 65.8514C118.01 64.7684 118.888 63.8906 119.972 63.8906C121.056 63.8906 121.934 64.7684 121.934 65.8514Z" fill="#DDDDDD"/>
<path d="M120.485 19.9256C120.485 21.0087 119.607 21.8864 118.523 21.8864C117.439 21.8864 116.561 21.0087 116.561 19.9256C116.561 18.8426 117.439 17.9648 118.523 17.9648C119.607 17.9648 120.485 18.8426 120.485 19.9256Z" fill="#DDDDDD"/>
<path d="M61.4982 39.2628C61.5124 40.7387 62.699 41.9243 64.1441 41.9102C65.5892 41.896 66.7544 40.6856 66.7367 39.2061C66.7226 37.7302 65.536 36.5446 64.0909 36.5587C62.6423 36.5729 61.4805 37.7833 61.4982 39.2628Z" fill="white"/>
<path d="M61.1015 39.4298C61.1156 40.8207 62.2313 41.9391 63.595 41.9214C64.9586 41.9073 66.053 40.7676 66.0389 39.3767C66.0247 37.9857 64.909 36.8673 63.5454 36.885C62.1817 36.9027 61.0873 38.0388 61.1015 39.4298Z" fill="#403E3D"/>
<path d="M54.4001 39.3448C54.4143 40.8207 55.6008 42.0064 57.0459 41.9922C58.4946 41.9781 59.6563 40.7676 59.6386 39.2882C59.6244 37.8123 58.4379 36.6266 56.9928 36.6408C55.5441 36.6549 54.3824 37.8654 54.4001 39.3448Z" fill="white"/>
<path d="M53.9645 39.5333C53.9787 40.9242 55.0944 42.0427 56.458 42.025C57.8216 42.0108 58.9161 40.8711 58.9019 39.4802C58.8878 38.0892 57.772 36.9708 56.4084 36.9885C55.0448 37.0026 53.9503 38.1423 53.9645 39.5333Z" fill="#403E3D"/>
<path d="M60.6057 42.2109C60.6057 42.2109 59.3554 43.0427 60.3329 43.9841C60.3329 43.9841 59.1853 44.961 60.6057 45.7326" stroke="#403E3D" stroke-width="2" stroke-linecap="round" stroke-linejoin="round"/>
<path d="M33.3117 48.0706C33.3259 49.6774 34.6151 50.9622 36.1877 50.9481C37.7603 50.9339 39.0248 49.6173 39.0071 48.0104C38.9929 46.4035 37.7037 45.1188 36.1311 45.1329C34.5585 45.1506 33.294 46.4637 33.3117 48.0706Z" fill="white"/>
<path d="M33.9775 47.9046C33.9917 49.4159 35.2065 50.6299 36.6906 50.6157C38.1747 50.598 39.3647 49.3593 39.347 47.848C39.3329 46.3367 38.118 45.1227 36.6339 45.1368C35.1499 45.151 33.9598 46.3933 33.9775 47.9046Z" fill="#403E3D"/>
<path d="M25.5939 48.1585C25.6081 49.7653 26.8974 51.0501 28.47 51.0359C30.0426 51.0182 31.307 49.7052 31.2893 48.0983C31.2752 46.4914 29.9859 45.2067 28.4133 45.2208C26.8407 45.2385 25.5762 46.5516 25.5939 48.1585Z" fill="white"/>
<path d="M26.3696 48.0667C26.3838 49.578 27.5987 50.792 29.0827 50.7778C30.5668 50.7601 31.7569 49.5214 31.7392 48.0101C31.725 46.4988 30.5101 45.2848 29.0296 45.299C27.5491 45.3131 26.3555 46.5554 26.3732 48.0667H26.3696Z" fill="#403E3D"/>
<path d="M30.301 52.7031C30.301 52.7031 32.118 54.3595 34.3211 52.7102" stroke="#403E3D" stroke-width="2" stroke-linecap="round" stroke-linejoin="round"/>
<path d="M30.5419 51.8496L29.8618 53.1946" stroke="#403E3D" stroke-width="2" stroke-linecap="round" stroke-linejoin="round"/>
<path d="M91.0695 49.5296C91.0837 51.1364 92.3729 52.4212 93.9456 52.407C95.5182 52.3893 96.7826 51.0762 96.7649 49.4694C96.7508 47.8625 95.4615 46.5778 93.8889 46.5919C92.3163 46.6096 91.0518 47.9227 91.0695 49.5296Z" fill="white"/>
<path d="M91.2325 48.8499C91.2467 50.3612 92.4615 51.5752 93.9421 51.561C95.4226 51.5469 96.6162 50.3046 96.5985 48.7933C96.5843 47.282 95.3695 46.068 93.8854 46.0822C92.4013 46.0999 91.2112 47.3386 91.229 48.8499H91.2325Z" fill="#403E3D"/>
<path d="M83.3517 49.6174C83.3659 51.2243 84.6552 52.5091 86.2278 52.4949C87.8004 52.4772 89.0649 51.1641 89.0471 49.5573C89.033 47.9504 87.7437 46.6656 86.1711 46.6798C84.5985 46.6975 83.334 48.0106 83.3517 49.6174Z" fill="white"/>
<path d="M83.5253 48.7464C83.5395 50.2577 84.7544 51.4717 86.2384 51.4575C87.7225 51.4434 88.9126 50.2011 88.8949 48.6898C88.8807 47.1785 87.6658 45.9645 86.1818 45.9786C84.6977 45.9963 83.5076 47.2351 83.5253 48.7464Z" fill="#403E3D"/>
<path d="M91.5123 54.4622C91.5123 55.248 90.9668 55.8815 90.2939 55.8815C89.6209 55.8815 89.0754 55.2444 89.0754 54.4622C89.0754 53.6801 89.6209 53.043 90.2939 53.043C90.9668 53.043 91.5123 53.6801 91.5123 54.4622Z" fill="#A2A0D8" stroke="#403E3D" stroke-width="2" stroke-linecap="round" stroke-linejoin="round"/>
<path d="M120.067 40.4586C120.152 42.0619 121.495 43.2936 123.067 43.2087C124.64 43.1237 125.844 41.754 125.759 40.1507C125.674 38.5474 124.332 37.3157 122.759 37.4006C121.187 37.4856 119.982 38.8553 120.067 40.4586Z" fill="white"/>
<path d="M119.805 40.4515C119.887 41.9627 121.151 43.1237 122.632 43.0422C124.112 42.9608 125.246 41.6725 125.168 40.1612C125.086 38.6499 123.822 37.489 122.341 37.5704C120.861 37.6518 119.727 38.9402 119.805 40.4515Z" fill="#403E3D"/>
<path d="M112.36 40.8805C112.445 42.4838 113.788 43.7155 115.36 43.6305C116.933 43.5456 118.137 42.1759 118.052 40.5726C117.967 38.9692 116.625 37.7376 115.052 37.8225C113.479 37.9074 112.275 39.2772 112.36 40.8805Z" fill="white"/>
<path d="M112.272 40.8811C112.353 42.3924 113.618 43.5533 115.098 43.4719C116.579 43.3905 117.712 42.1022 117.634 40.5909C117.553 39.0796 116.288 37.9187 114.808 38.0001C113.327 38.0815 112.194 39.3698 112.272 40.8811Z" fill="#403E3D"/>
<path d="M115.615 45.3464C115.615 45.3464 118.672 49.1477 123.411 44.7129" stroke="#403E3D" stroke-width="2" stroke-linecap="round" stroke-linejoin="round"/>
<path d="M115.824 44.6309L115.07 45.7882" stroke="#403E3D" stroke-width="2" stroke-linecap="round" stroke-linejoin="round"/>
<path d="M123.138 44.1465L123.896 45.2791" stroke="#403E3D" stroke-width="2" stroke-linecap="round" stroke-linejoin="round"/>
</svg>
