<svg width="117" height="106" viewBox="0 0 117 106" fill="none" xmlns="http://www.w3.org/2000/svg">
<path d="M67.9514 83.0273L71.9979 95.7409C71.9979 95.7409 80.0113 97.7759 79.6763 101.006L64.1073 101.227L64.22 83.5237L67.9514 83.0273Z" fill="#ED7E7E"/>
<path d="M67.9514 83.0273L71.9979 95.7409C71.9979 95.7409 80.0113 97.7759 79.6763 101.006L64.1073 101.227L64.22 83.5237L67.9514 83.0273Z" fill="url(#paint0_radial_235_814)"/>
<path d="M58.014 82.834L53.4103 95.3589C53.4103 95.3589 45.314 97.0399 45.5063 100.283L61.0522 101.186L61.7222 83.4925L58.0173 82.834H58.014Z" fill="#ED7E7E"/>
<path d="M58.014 82.834L53.4103 95.3589C53.4103 95.3589 45.314 97.0399 45.5063 100.283L61.0522 101.186L61.7222 83.4925L58.0173 82.834H58.014Z" fill="url(#paint1_radial_235_814)"/>
<path d="M32.1566 26.19C31.931 26.3356 31.6358 26.2396 31.3904 26.1271C31.0421 25.9683 30.7071 25.7796 30.392 25.5646C30.2461 25.4653 30.0968 25.3561 30.0238 25.1972C29.9675 25.0748 29.9608 24.9358 29.9608 24.8002C29.9542 24.0556 30.0636 23.3111 30.2925 22.5996C31.1283 22.6923 31.8978 23.0927 32.6408 23.4864C33.0952 23.728 33.5529 23.9696 34.0073 24.2078L32.1566 26.19Z" fill="#ED7E7E"/>
<path d="M32.2426 26.2768C31.954 26.6242 31.4035 26.3992 31.0685 26.2536C30.6738 26.0782 30.1829 25.8565 29.8943 25.5256C29.5693 25.1517 29.6323 24.5693 29.6721 24.1093C29.7185 23.5699 29.8213 23.0339 29.9806 22.5176C30.017 22.3952 30.1497 22.2661 30.289 22.2827C30.9889 22.3654 31.629 22.6169 32.2526 22.928C32.8761 23.239 33.5295 23.5964 34.1663 23.9339C34.3554 24.0332 34.3687 24.2946 34.2327 24.4402C33.6158 25.102 32.9988 25.7605 32.3819 26.4224C32.0967 26.7268 31.6423 26.2701 31.9242 25.9657C32.5411 25.3039 33.158 24.6454 33.775 23.9836L33.8413 24.4899C33.2476 24.1755 32.6572 23.8545 32.0569 23.5501C31.4996 23.2655 30.9126 23.0008 30.289 22.9247L30.5975 22.6897C30.4681 23.0901 30.3719 23.5004 30.3189 23.9207C30.2923 24.1259 30.2791 24.331 30.2724 24.5362C30.2658 24.7116 30.2194 24.9465 30.3023 25.1053C30.3719 25.2377 30.5311 25.3304 30.6505 25.4098C30.8098 25.519 30.9723 25.6183 31.1381 25.7142C31.304 25.8102 31.4764 25.9161 31.6555 25.9955C31.8346 26.0749 31.9706 26.0948 32.1564 26.0716C32.2725 26.0584 32.3023 26.2073 32.2426 26.2801V26.2768Z" fill="#ED7E7E"/>
<path d="M89.6793 61.4507C89.5732 60.8153 89.4671 60.1767 89.3576 59.5413C89.1088 58.0688 88.8634 56.5929 88.6113 55.1204C88.5947 55.0277 88.5781 54.9351 88.5649 54.8424C88.5118 54.5215 88.9131 54.3891 89.1122 54.6009C89.7025 55.2197 90.2963 55.8319 90.89 56.444C92.3858 57.9894 93.8883 59.5281 95.3975 61.0569C97.3677 63.0523 99.3544 65.0311 101.358 66.9934C103.378 68.9755 105.421 70.9345 107.51 72.8439C108.764 73.9855 110.028 75.1271 111.351 76.1927C111.962 76.2489 112.572 76.3317 113.176 76.4309C113.802 76.5335 114.426 76.6593 115.043 76.8115C115.487 76.9207 115.948 77.0332 116.363 77.2317C116.721 77.4038 117.116 77.7314 116.967 78.1781C116.864 78.4859 116.569 78.6282 116.317 78.8035C116.416 78.9326 116.598 79.0352 116.691 79.151C116.837 79.333 116.89 79.5613 116.827 79.7863C116.715 80.1768 116.386 80.3489 116.028 80.425C116.054 80.5574 116.041 80.6963 115.988 80.832C115.819 81.2622 115.331 81.3548 114.917 81.3218C114.064 81.249 113.202 81.014 112.386 80.736C112.439 81.292 112.698 81.8247 112.489 82.3939C112.24 83.0656 111.471 83.2212 110.904 82.8307C110.19 82.341 110.27 81.4078 110.078 80.6666C109.899 79.9617 109.219 79.6143 108.817 79.055C108.767 78.9855 108.721 78.9127 108.678 78.8366C108.661 78.8069 108.645 78.7738 108.628 78.744C108.622 78.7341 108.618 78.7241 108.612 78.7109C108.568 78.6381 108.572 78.6249 108.622 78.6712C108.622 78.6679 108.622 78.6679 108.622 78.6646C108.568 78.6116 108.509 78.5653 108.452 78.5157C108.224 78.3138 107.998 78.1119 107.769 77.9068C106.93 77.1589 106.088 76.4078 105.248 75.6599C104.074 74.6142 102.903 73.5686 101.729 72.5262C100.426 71.3647 99.1222 70.2065 97.8187 69.0484C96.5915 67.9564 95.361 66.8677 94.1338 65.7757C93.1852 64.9352 92.2366 64.0913 91.2913 63.2508C90.8303 62.8405 90.3659 62.4335 89.9049 62.0198C89.7258 61.861 89.7158 61.6724 89.6793 61.4474V61.4507Z" fill="#ED7E7E"/>
<path d="M89.6793 61.4507C89.5732 60.8153 89.4671 60.1767 89.3576 59.5413C89.1088 58.0688 88.8634 56.5929 88.6113 55.1204C88.5947 55.0277 88.5781 54.9351 88.5649 54.8424C88.5118 54.5215 88.9131 54.3891 89.1122 54.6009C89.7025 55.2197 90.2963 55.8319 90.89 56.444C92.3858 57.9894 93.8883 59.5281 95.3975 61.0569C97.3677 63.0523 99.3544 65.0311 101.358 66.9934C103.378 68.9755 105.421 70.9345 107.51 72.8439C108.764 73.9855 110.028 75.1271 111.351 76.1927C111.962 76.2489 112.572 76.3317 113.176 76.4309C113.802 76.5335 114.426 76.6593 115.043 76.8115C115.487 76.9207 115.948 77.0332 116.363 77.2317C116.721 77.4038 117.116 77.7314 116.967 78.1781C116.864 78.4859 116.569 78.6282 116.317 78.8035C116.416 78.9326 116.598 79.0352 116.691 79.151C116.837 79.333 116.89 79.5613 116.827 79.7863C116.715 80.1768 116.386 80.3489 116.028 80.425C116.054 80.5574 116.041 80.6963 115.988 80.832C115.819 81.2622 115.331 81.3548 114.917 81.3218C114.064 81.249 113.202 81.014 112.386 80.736C112.439 81.292 112.698 81.8247 112.489 82.3939C112.24 83.0656 111.471 83.2212 110.904 82.8307C110.19 82.341 110.27 81.4078 110.078 80.6666C109.899 79.9617 109.219 79.6143 108.817 79.055C108.767 78.9855 108.721 78.9127 108.678 78.8366C108.661 78.8069 108.645 78.7738 108.628 78.744C108.622 78.7341 108.618 78.7241 108.612 78.7109C108.568 78.6381 108.572 78.6249 108.622 78.6712C108.622 78.6679 108.622 78.6679 108.622 78.6646C108.568 78.6116 108.509 78.5653 108.452 78.5157C108.224 78.3138 107.998 78.1119 107.769 77.9068C106.93 77.1589 106.088 76.4078 105.248 75.6599C104.074 74.6142 102.903 73.5686 101.729 72.5262C100.426 71.3647 99.1222 70.2065 97.8187 69.0484C96.5915 67.9564 95.361 66.8677 94.1338 65.7757C93.1852 64.9352 92.2366 64.0913 91.2913 63.2508C90.8303 62.8405 90.3659 62.4335 89.9049 62.0198C89.7258 61.861 89.7158 61.6724 89.6793 61.4474V61.4507Z" fill="url(#paint2_radial_235_814)"/>
<path d="M63.2482 23.2324C80.7908 23.2324 95.0132 37.4218 95.0132 54.9236C95.0132 72.4253 80.7908 86.6147 63.2482 86.6147C45.7057 86.6147 31.4833 72.4253 31.4833 54.9236C31.4833 37.4218 45.7057 23.2324 63.2482 23.2324ZM63.2482 67.4683C70.1936 67.4683 75.8222 61.8528 75.8222 54.9236C75.8222 47.9943 70.1936 42.3788 63.2482 42.3788C56.3029 42.3788 50.6743 47.9943 50.6743 54.9236C50.6743 61.8528 56.3029 67.4683 63.2482 67.4683Z" fill="#ED7E7E"/>
<path d="M62.953 31.6918C62.7407 33.7235 60.9529 35.2027 58.9595 34.9942C56.9628 34.7858 55.5167 32.9691 55.729 30.9373C55.9412 28.9055 57.729 27.4264 59.7224 27.6348C61.7191 27.8433 63.1652 29.66 62.953 31.6918Z" fill="white"/>
<path d="M62.1501 31.3402C61.9511 33.2562 60.2662 34.6493 58.3856 34.4541C56.505 34.2589 55.1417 32.5448 55.3408 30.6321C55.5398 28.7161 57.2247 27.323 59.1053 27.5183C60.9859 27.7135 62.3491 29.4276 62.1501 31.3402Z" fill="#403E3D"/>
<path d="M67.0725 33.5964C67.0725 33.5964 69.371 31.065 73.8354 32.5144" stroke="#403E3D" stroke-width="2" stroke-linecap="round" stroke-linejoin="round"/>
<path d="M62.1004 37.5416C62.1004 38.402 62.724 39.0969 63.4901 39.0969C64.2563 39.0969 64.8799 38.3987 64.8799 37.5416C64.8799 36.6845 64.2563 35.9863 63.4901 35.9863C62.724 35.9863 62.1004 36.6845 62.1004 37.5416Z" stroke="#403E3D" stroke-width="2" stroke-linecap="round" stroke-linejoin="round"/>
<path d="M38.2396 26.3606L51.0789 30.9139L53.5366 25.0635L41.2744 19.127L38.2396 26.3606Z" fill="#BCBBBB"/>
<path d="M22.531 21.7233L41.2012 28.3448L44.7734 19.8404L26.9457 11.207L22.531 21.7233Z" fill="#A09C9C"/>
<path d="M0.000411987 14.8644L26.3922 24.2225L31.437 12.2039L6.24263 0L0.000411987 14.8644Z" fill="#878382"/>
<path d="M19.8444 30.3801C20.1429 30.0392 20.5409 29.8705 20.9456 29.705C22.0501 29.2583 23.1546 28.8082 24.2558 28.3615C25.7881 27.7394 27.3172 27.1173 28.8495 26.4985C29.556 26.2106 30.2625 25.926 30.969 25.6381C31.4101 24.6421 32.3852 23.9141 33.4765 23.7718C33.5561 23.7619 33.639 23.7619 33.7153 23.7486C33.8181 23.7288 33.8347 23.6924 33.8712 23.603C33.9408 23.4343 33.9906 23.2589 34.0436 23.0835C34.1465 22.7592 34.2592 22.4283 34.4582 22.1504C34.8363 21.6275 35.5495 21.3231 36.1199 21.7533C36.634 22.1404 36.7369 22.8651 36.8795 23.4475C36.9757 23.8512 37.0918 24.2516 37.1647 24.662C37.2278 25.0061 37.2543 25.3701 37.1216 25.701C36.8496 26.3827 36.0702 26.5945 35.4466 26.8261C35.0519 26.975 34.6572 27.1173 34.2592 27.2629C34.1232 27.3125 33.974 27.3522 33.8446 27.4118C33.5527 27.5475 33.2708 27.7295 32.9889 27.885C32.4085 28.206 31.8247 28.527 31.2443 28.8479C29.7616 29.6686 28.2691 30.4793 26.7832 31.2934C26.1762 31.6276 25.5692 31.9585 24.9622 32.2927C24.7699 32.3986 24.5775 32.5144 24.3818 32.6236C24.7566 32.9049 25.1314 33.1862 25.5062 33.4674C26.7102 34.3708 27.9109 35.2742 29.1149 36.1743C30.5676 37.2663 32.0237 38.3583 33.4765 39.4503C34.7368 40.3967 36.0005 41.3431 37.2609 42.2928C37.8712 42.7527 38.4848 43.2061 39.0918 43.6694C39.1017 43.676 39.1084 43.6826 39.1183 43.6892C39.2974 43.8249 39.3008 44.0433 39.1183 44.1789C38.173 44.8838 37.2311 45.5919 36.2858 46.2968C36.1498 46.3994 36.0171 46.4986 35.8811 46.6012C35.775 46.6806 35.6257 46.631 35.5362 46.5582C35.1514 46.2306 34.7667 45.903 34.3819 45.5754L31.4963 43.1167C30.2426 42.0479 28.9888 40.9791 27.7351 39.9102C26.488 38.848 25.2442 37.7858 23.9971 36.7236C23.0451 35.9129 22.0932 35.0988 21.138 34.2881C20.7366 33.9473 20.3055 33.623 19.9307 33.2523C19.1479 32.4813 19.1247 31.2139 19.8411 30.3966L19.8444 30.3801Z" fill="#ED7E7E"/>
<defs>
<radialGradient id="paint0_radial_235_814" cx="0" cy="0" r="1" gradientUnits="userSpaceOnUse" gradientTransform="translate(69.569 81.9362) rotate(175.391) scale(14.6368 14.6032)">
<stop stop-color="#CE3D44" stop-opacity="0.9"/>
<stop offset="1" stop-color="#CE3D44" stop-opacity="0"/>
</radialGradient>
<radialGradient id="paint1_radial_235_814" cx="0" cy="0" r="1" gradientUnits="userSpaceOnUse" gradientTransform="translate(56.4589 81.6702) rotate(7.1136) scale(14.6365 14.6035)">
<stop stop-color="#CE3D44" stop-opacity="0.9"/>
<stop offset="1" stop-color="#CE3D44" stop-opacity="0"/>
</radialGradient>
<radialGradient id="paint2_radial_235_814" cx="0" cy="0" r="1" gradientUnits="userSpaceOnUse" gradientTransform="translate(93.1786 63.9391) rotate(180) scale(11.4098 11.3833)">
<stop stop-color="#CE3D44" stop-opacity="0.9"/>
<stop offset="1" stop-color="#CE3D44" stop-opacity="0"/>
</radialGradient>
</defs>
</svg>
