<svg width="125" height="134" viewBox="0 0 125 134" fill="none" xmlns="http://www.w3.org/2000/svg">
<g clip-path="url(#clip0_364_350)">
<path d="M55.703 58.9365C55.324 61.3175 55.3916 63.7577 55.7247 66.1414C56.0604 68.5358 56.7914 70.8413 57.2408 73.2115C57.6848 75.5547 57.8581 77.9492 57.7661 80.3328C57.674 82.7057 57.3058 85.0543 56.702 87.3517C56.0983 89.641 55.2833 91.8871 54.8231 94.2114C54.7662 94.5 54.7337 94.7939 54.6958 95.0851C54.6633 95.3278 55.0667 95.3763 55.1236 95.1417C55.3998 93.9903 55.684 92.8389 56.0062 91.701C56.3311 90.5604 56.6804 89.4252 56.9999 88.2846C57.6415 85.9954 58.0855 83.6683 58.248 81.2954C58.4104 78.9118 58.3048 76.5173 57.9421 74.1552C57.5765 71.7743 56.8428 69.4715 56.4096 67.104C55.9765 64.7285 55.8492 62.2936 55.9629 59.8829C55.9764 59.5809 55.9846 59.2816 56.0008 58.9796C56.0089 58.8098 55.7274 58.7666 55.7003 58.9392L55.703 58.9365Z" fill="#898074"/>
<path d="M93.4312 93.5555C93.5124 94.9118 93.4799 96.2843 93.4501 97.6406C93.4203 99.0185 93.3364 100.391 93.1983 101.761C93.0602 103.12 92.868 104.473 92.6162 105.816C92.3644 107.165 92.0097 108.494 91.7796 109.845C91.5549 111.161 91.5089 112.46 91.7417 113.779C91.9637 115.041 92.3698 116.26 92.6541 117.508C92.7976 118.139 92.9086 118.775 92.9438 119.423C92.979 120.094 92.9384 120.771 92.8599 121.437C92.7002 122.772 92.3915 124.082 92.2155 125.414C91.8798 127.962 92.1424 130.642 93.0873 133.042C93.201 133.334 93.3445 133.617 93.4826 133.897C93.5882 134.11 93.9564 133.959 93.8725 133.735C93.4176 132.538 93.0386 131.303 92.8247 130.041C92.6108 128.777 92.5594 127.482 92.665 126.204C92.776 124.88 93.0765 123.58 93.2795 122.267C93.4826 120.954 93.5665 119.652 93.3581 118.333C93.1577 117.069 92.757 115.847 92.4592 114.601C92.1505 113.312 92.0314 112.037 92.1884 110.718C92.3482 109.37 92.711 108.052 92.9817 106.725C93.2498 105.404 93.4636 104.072 93.618 102.732C93.9293 100.027 94.0187 97.2793 93.7669 94.5667C93.7344 94.2296 93.6938 93.8926 93.664 93.5555C93.6505 93.4099 93.4257 93.4072 93.4339 93.5555H93.4312Z" fill="#898074"/>
<path d="M78.1883 53.5484C78.1342 52.9498 77.8905 52.3566 77.5331 51.8766C77.1568 51.3724 76.6803 51.0003 76.1117 50.7333C75.9872 50.674 75.8464 50.6147 75.7571 50.5095C75.646 50.3774 75.6109 50.194 75.5648 50.0322C75.4565 49.6413 75.3509 49.253 75.2426 48.862C74.379 45.7341 73.4774 42.6143 72.5893 39.4918C72.0885 37.7311 71.5768 35.973 71.0542 34.2176C71.0082 34.0666 70.7781 34.1286 70.8187 34.2823C70.8376 34.3578 70.8566 34.4306 70.8782 34.5034L70.0904 37.8443C70.0714 37.8389 70.0525 37.8335 70.0308 37.8335C69.9009 37.8335 69.7547 37.9522 69.7709 38.0924C69.8521 38.8123 70.0633 39.4972 70.2853 40.1848C70.5046 40.867 70.7374 41.5438 70.9838 42.2179C71.4576 43.5257 71.9693 44.82 72.454 46.1224C72.9386 47.4329 73.3935 48.7568 73.7563 50.1077C73.8402 50.4232 73.9268 50.701 73.962 51.0164C73.9972 51.3265 74.0297 51.6393 74.0649 51.9494C74.1326 52.5507 74.1976 53.1493 74.2652 53.7506C74.2815 53.8909 74.3654 53.9879 74.5143 53.9987C74.5658 54.0014 74.6064 54.0338 74.647 54.0958C74.7039 54.1767 74.739 54.2711 74.7742 54.3627C74.869 54.6027 74.9529 54.8589 75.1343 55.0503C75.3726 55.2984 75.73 55.3281 76.0278 55.1744C76.2742 55.0449 76.4204 54.8184 76.5206 54.5731C76.7155 54.6917 76.9429 54.7483 77.1703 54.6782C77.3409 54.6243 77.4817 54.5057 77.5656 54.3547C77.6387 54.3627 77.7145 54.3547 77.793 54.3304C78.1206 54.2252 78.2235 53.8612 78.1938 53.5511L78.1883 53.5484Z" fill="#89BDC9"/>
<path d="M78.1883 53.5484C78.1342 52.9498 77.8905 52.3566 77.5331 51.8766C77.1568 51.3724 76.6803 51.0003 76.1117 50.7333C75.9872 50.674 75.8464 50.6147 75.7571 50.5095C75.646 50.3774 75.6109 50.194 75.5648 50.0322C75.4565 49.6413 75.3509 49.253 75.2426 48.862C74.379 45.7341 73.4774 42.6143 72.5893 39.4918C72.0885 37.7311 71.5768 35.973 71.0542 34.2176C71.0082 34.0666 70.7781 34.1286 70.8187 34.2823C70.8376 34.3578 70.8566 34.4306 70.8782 34.5034L70.0904 37.8443C70.0714 37.8389 70.0525 37.8335 70.0308 37.8335C69.9009 37.8335 69.7547 37.9522 69.7709 38.0924C69.8521 38.8123 70.0633 39.4972 70.2853 40.1848C70.5046 40.867 70.7374 41.5438 70.9838 42.2179C71.4576 43.5257 71.9693 44.82 72.454 46.1224C72.9386 47.4329 73.3935 48.7568 73.7563 50.1077C73.8402 50.4232 73.9268 50.701 73.962 51.0164C73.9972 51.3265 74.0297 51.6393 74.0649 51.9494C74.1326 52.5507 74.1976 53.1493 74.2652 53.7506C74.2815 53.8909 74.3654 53.9879 74.5143 53.9987C74.5658 54.0014 74.6064 54.0338 74.647 54.0958C74.7039 54.1767 74.739 54.2711 74.7742 54.3627C74.869 54.6027 74.9529 54.8589 75.1343 55.0503C75.3726 55.2984 75.73 55.3281 76.0278 55.1744C76.2742 55.0449 76.4204 54.8184 76.5206 54.5731C76.7155 54.6917 76.9429 54.7483 77.1703 54.6782C77.3409 54.6243 77.4817 54.5057 77.5656 54.3547C77.6387 54.3627 77.7145 54.3547 77.793 54.3304C78.1206 54.2252 78.2235 53.8612 78.1938 53.5511L78.1883 53.5484Z" fill="url(#paint0_radial_364_350)"/>
<path d="M37.1569 22.8467L37.1001 21.5632C37.0784 21.0671 37.0892 20.5574 37.0324 20.064C37.0107 19.8806 36.8456 19.7943 36.7102 19.6919C36.4503 19.495 36.1904 19.2955 35.9305 19.0987C35.4188 18.7131 34.9043 18.3302 34.3818 17.9554C33.3909 17.2435 32.3404 16.6152 31.3522 15.9034C30.8811 15.5663 30.4289 15.1996 30.0364 14.7709C29.6384 14.334 29.2972 13.8514 28.9832 13.3498C28.3063 12.2713 27.6998 11.1468 27.0771 10.0386C26.43 8.88721 25.783 7.73583 25.1386 6.58445C24.8381 6.04785 24.5484 5.54631 24.4807 4.92613C24.4482 4.62682 24.4265 4.33021 24.3507 4.0363C24.2749 3.75048 24.1639 3.47814 24.0312 3.21119C23.7524 2.65033 23.4248 2.11104 23.1188 1.56636C22.9618 1.28592 22.8021 1.00549 22.645 0.725063C22.5151 0.495865 22.3905 0.247792 22.1604 0.102184C21.9655 -0.0218528 21.7083 -0.0488173 21.5025 0.0617371C21.2426 0.199256 21.1993 0.493169 21.2507 0.757421C21.359 1.3048 21.5377 1.84948 21.7678 2.35911C21.2534 2.53977 20.8392 3.04671 20.5576 3.48892C20.4385 3.67498 20.3139 3.87182 20.2841 4.09562C20.2489 4.35179 20.3545 4.60256 20.4547 4.83445C20.6172 5.20926 20.8283 5.57328 21.1343 5.85101C21.2859 5.98853 21.47 6.0883 21.6704 6.13684C21.8869 6.19076 22.0819 6.15301 22.2985 6.10987C22.5097 6.06673 22.5909 6.17459 22.6965 6.34716C22.8373 6.57636 22.9564 6.82173 23.0836 7.05902C23.5818 7.9866 24.061 8.92496 24.524 9.86872C24.9978 10.834 25.4526 11.8075 25.8913 12.789C26.0997 13.2582 26.3001 13.7273 26.5058 14.1992C26.6872 14.6172 26.8876 15.0378 27.1746 15.3964C27.4128 15.693 27.7134 15.9438 27.9976 16.1973C28.3009 16.4696 28.6014 16.7447 28.9046 17.017C29.6546 17.6911 30.4316 18.3356 31.2249 18.9611C33.0254 20.3822 34.9016 21.7034 36.7156 23.1056C36.9241 23.2647 37.1759 23.0786 37.1651 22.8467H37.1569Z" fill="#89BDC9"/>
<path d="M37.1569 22.8467L37.1001 21.5632C37.0784 21.0671 37.0892 20.5574 37.0324 20.064C37.0107 19.8806 36.8456 19.7943 36.7102 19.6919C36.4503 19.495 36.1904 19.2955 35.9305 19.0987C35.4188 18.7131 34.9043 18.3302 34.3818 17.9554C33.3909 17.2435 32.3404 16.6152 31.3522 15.9034C30.8811 15.5663 30.4289 15.1996 30.0364 14.7709C29.6384 14.334 29.2972 13.8514 28.9832 13.3498C28.3063 12.2713 27.6998 11.1468 27.0771 10.0386C26.43 8.88721 25.783 7.73583 25.1386 6.58445C24.8381 6.04785 24.5484 5.54631 24.4807 4.92613C24.4482 4.62682 24.4265 4.33021 24.3507 4.0363C24.2749 3.75048 24.1639 3.47814 24.0312 3.21119C23.7524 2.65033 23.4248 2.11104 23.1188 1.56636C22.9618 1.28592 22.8021 1.00549 22.645 0.725063C22.5151 0.495865 22.3905 0.247792 22.1604 0.102184C21.9655 -0.0218528 21.7083 -0.0488173 21.5025 0.0617371C21.2426 0.199256 21.1993 0.493169 21.2507 0.757421C21.359 1.3048 21.5377 1.84948 21.7678 2.35911C21.2534 2.53977 20.8392 3.04671 20.5576 3.48892C20.4385 3.67498 20.3139 3.87182 20.2841 4.09562C20.2489 4.35179 20.3545 4.60256 20.4547 4.83445C20.6172 5.20926 20.8283 5.57328 21.1343 5.85101C21.2859 5.98853 21.47 6.0883 21.6704 6.13684C21.8869 6.19076 22.0819 6.15301 22.2985 6.10987C22.5097 6.06673 22.5909 6.17459 22.6965 6.34716C22.8373 6.57636 22.9564 6.82173 23.0836 7.05902C23.5818 7.9866 24.061 8.92496 24.524 9.86872C24.9978 10.834 25.4526 11.8075 25.8913 12.789C26.0997 13.2582 26.3001 13.7273 26.5058 14.1992C26.6872 14.6172 26.8876 15.0378 27.1746 15.3964C27.4128 15.693 27.7134 15.9438 27.9976 16.1973C28.3009 16.4696 28.6014 16.7447 28.9046 17.017C29.6546 17.6911 30.4316 18.3356 31.2249 18.9611C33.0254 20.3822 34.9016 21.7034 36.7156 23.1056C36.9241 23.2647 37.1759 23.0786 37.1651 22.8467H37.1569Z" fill="url(#paint1_radial_364_350)"/>
<path d="M74.6577 15.7987C73.3934 11.4521 70.7265 7.44245 67.0877 4.71364C65.1709 3.27644 63.013 2.25179 60.6927 1.65317C57.942 0.944008 55.0071 0.74447 52.1751 0.803792C49.4839 0.860418 46.8171 1.35656 44.3777 2.51873C42.0737 3.61619 40.0295 5.17743 38.2318 6.97327C34.704 10.4948 32.2592 15.0006 31.0327 19.8084C29.8198 24.5649 29.9253 29.5992 31.2276 34.326C32.538 39.0853 34.9801 43.5074 38.3482 47.1342C40.1947 49.1214 42.2659 50.8876 44.4318 52.5217C46.6276 54.1746 48.8964 55.8032 51.3629 57.0355C52.343 57.5263 53.3583 57.92 54.4061 58.2327L53.2879 61.4065L58.7326 60.8887L56.8455 58.0386C60.8714 54.6438 64.05 50.3214 67.1175 46.0556C70.2771 41.6658 72.9791 36.8553 74.4412 31.6296C75.8842 26.4713 76.1658 20.9786 74.6577 15.7987Z" fill="#89BDC9"/>
<path d="M79.0601 63.8273C77.1162 62.9051 75.202 61.8966 73.4665 60.6185C73.0144 60.2869 72.5812 59.9309 72.1615 59.5615C72.5189 58.8523 72.8709 58.1432 73.2662 57.4529C73.6046 56.8624 73.9485 56.2745 74.2923 55.684C74.471 55.3739 74.6497 55.0665 74.8311 54.7564C74.9204 54.6027 75.0098 54.4463 75.0991 54.2926C75.1451 54.2145 75.1885 54.1363 75.2345 54.0608C75.248 54.0392 75.2616 54.0176 75.2751 53.996C75.2941 53.9799 75.3022 53.9718 75.3049 53.9664C75.6135 53.9205 75.6081 53.4298 75.2805 53.4487C75.156 53.4541 75.0585 53.4999 74.9773 53.5646L74.4656 53.3192C74.5306 53.1898 74.3546 53.0604 74.249 53.1655C73.7562 53.6482 73.3501 54.2198 72.9142 54.7564C72.4864 55.2795 72.0587 55.8054 71.6309 56.3285C71.2194 56.8273 70.8159 57.3315 70.4315 57.852C70.242 58.1081 70.0606 58.367 69.8846 58.6339C69.7194 58.8874 69.4947 59.1624 69.4297 59.4644C69.362 59.7826 69.5245 60.0684 69.6788 60.3354C69.8169 60.5754 69.9712 60.8046 70.1364 61.023C70.4829 61.4814 70.8782 61.902 71.306 62.2876C72.1642 63.0588 73.1498 63.6493 74.073 64.3342C75.1506 65.1351 76.1848 65.9925 77.368 66.6397C77.4871 66.7044 77.6604 66.6747 77.728 66.5453C78.1531 65.7283 78.6296 64.9382 79.1576 64.1832C79.2334 64.0727 79.1847 63.8812 79.0628 63.8246L79.0601 63.8273Z" fill="#FC8230"/>
<path d="M79.0601 63.8273C77.1162 62.9051 75.202 61.8966 73.4665 60.6185C73.0144 60.2869 72.5812 59.9309 72.1615 59.5615C72.5189 58.8523 72.8709 58.1432 73.2662 57.4529C73.6046 56.8624 73.9485 56.2745 74.2923 55.684C74.471 55.3739 74.6497 55.0665 74.8311 54.7564C74.9204 54.6027 75.0098 54.4463 75.0991 54.2926C75.1451 54.2145 75.1885 54.1363 75.2345 54.0608C75.248 54.0392 75.2616 54.0176 75.2751 53.996C75.2941 53.9799 75.3022 53.9718 75.3049 53.9664C75.6135 53.9205 75.6081 53.4298 75.2805 53.4487C75.156 53.4541 75.0585 53.4999 74.9773 53.5646L74.4656 53.3192C74.5306 53.1898 74.3546 53.0604 74.249 53.1655C73.7562 53.6482 73.3501 54.2198 72.9142 54.7564C72.4864 55.2795 72.0587 55.8054 71.6309 56.3285C71.2194 56.8273 70.8159 57.3315 70.4315 57.852C70.242 58.1081 70.0606 58.367 69.8846 58.6339C69.7194 58.8874 69.4947 59.1624 69.4297 59.4644C69.362 59.7826 69.5245 60.0684 69.6788 60.3354C69.8169 60.5754 69.9712 60.8046 70.1364 61.023C70.4829 61.4814 70.8782 61.902 71.306 62.2876C72.1642 63.0588 73.1498 63.6493 74.073 64.3342C75.1506 65.1351 76.1848 65.9925 77.368 66.6397C77.4871 66.7044 77.6604 66.6747 77.728 66.5453C78.1531 65.7283 78.6296 64.9382 79.1576 64.1832C79.2334 64.0727 79.1847 63.8812 79.0628 63.8246L79.0601 63.8273Z" fill="url(#paint2_radial_364_350)"/>
<path d="M118.673 92.4233C118.578 91.8274 118.28 91.2503 117.89 90.7919C117.492 90.3228 116.986 89.9911 116.42 89.7646C116.285 89.7107 116.136 89.654 116.044 89.5354C115.941 89.406 115.898 89.228 115.846 89.077C115.716 88.6914 115.583 88.3031 115.453 87.9175C114.417 84.849 113.339 81.7939 112.278 78.7334C111.679 77.0077 111.076 75.282 110.442 73.567C110.393 73.4322 110.16 73.5104 110.204 73.6479C110.228 73.7288 110.255 73.8124 110.282 73.8933L109.692 77.245C109.524 77.2261 109.335 77.3502 109.373 77.5659C109.494 78.2777 109.754 78.9545 110.012 79.626C110.266 80.2839 110.531 80.9364 110.81 81.5836C111.357 82.859 111.939 84.1209 112.497 85.3937C113.055 86.6691 113.585 87.9607 114.024 89.2819C114.127 89.5947 114.235 89.8994 114.289 90.2203C114.3 90.2769 114.308 90.3336 114.319 90.3902C114.067 90.7461 113.813 91.1182 113.764 91.5523C113.732 91.8382 113.778 92.1402 113.794 92.4287C113.81 92.7172 113.824 93.0057 113.813 93.2916C113.805 93.5342 113.723 93.8228 113.818 94.0574C113.91 94.2865 114.149 94.4079 114.392 94.3674C114.893 94.2838 115.034 93.6556 115.134 93.2268C115.134 93.2268 115.137 93.2295 115.139 93.2322C115.204 93.3104 115.248 93.4129 115.294 93.51C115.397 93.7338 115.494 93.9738 115.673 94.149C115.914 94.3809 116.263 94.4322 116.561 94.2731C116.826 94.1302 116.972 93.8875 117.07 93.6205C117.281 93.7284 117.519 93.7688 117.752 93.6718C117.915 93.6017 118.034 93.483 118.101 93.3401C118.191 93.3401 118.28 93.3239 118.361 93.2862C118.686 93.1352 118.732 92.7442 118.681 92.4287L118.673 92.4233Z" fill="#FC8230"/>
<path d="M118.673 92.4233C118.578 91.8274 118.28 91.2503 117.89 90.7919C117.492 90.3228 116.986 89.9911 116.42 89.7646C116.285 89.7107 116.136 89.654 116.044 89.5354C115.941 89.406 115.898 89.228 115.846 89.077C115.716 88.6914 115.583 88.3031 115.453 87.9175C114.417 84.849 113.339 81.7939 112.278 78.7334C111.679 77.0077 111.076 75.282 110.442 73.567C110.393 73.4322 110.16 73.5104 110.204 73.6479C110.228 73.7288 110.255 73.8124 110.282 73.8933L109.692 77.245C109.524 77.2261 109.335 77.3502 109.373 77.5659C109.494 78.2777 109.754 78.9545 110.012 79.626C110.266 80.2839 110.531 80.9364 110.81 81.5836C111.357 82.859 111.939 84.1209 112.497 85.3937C113.055 86.6691 113.585 87.9607 114.024 89.2819C114.127 89.5947 114.235 89.8994 114.289 90.2203C114.3 90.2769 114.308 90.3336 114.319 90.3902C114.067 90.7461 113.813 91.1182 113.764 91.5523C113.732 91.8382 113.778 92.1402 113.794 92.4287C113.81 92.7172 113.824 93.0057 113.813 93.2916C113.805 93.5342 113.723 93.8228 113.818 94.0574C113.91 94.2865 114.149 94.4079 114.392 94.3674C114.893 94.2838 115.034 93.6556 115.134 93.2268C115.134 93.2268 115.137 93.2295 115.139 93.2322C115.204 93.3104 115.248 93.4129 115.294 93.51C115.397 93.7338 115.494 93.9738 115.673 94.149C115.914 94.3809 116.263 94.4322 116.561 94.2731C116.826 94.1302 116.972 93.8875 117.07 93.6205C117.281 93.7284 117.519 93.7688 117.752 93.6718C117.915 93.6017 118.034 93.483 118.101 93.3401C118.191 93.3401 118.28 93.3239 118.361 93.2862C118.686 93.1352 118.732 92.7442 118.681 92.4287L118.673 92.4233Z" fill="url(#paint3_radial_364_350)"/>
<path d="M115.635 62.876C115.129 59.0066 113.382 55.2424 110.64 52.4435C109.197 50.9685 107.491 49.8144 105.593 49.0028C103.343 48.0402 100.869 47.4874 98.4454 47.1692C96.1468 46.8672 93.8049 46.9427 91.5766 47.6141C89.4702 48.2505 87.5236 49.3129 85.7556 50.6099C82.2874 53.1526 79.6097 56.6715 77.9338 60.611C76.2742 64.5074 75.7029 68.8109 76.1929 73.0093C76.6857 77.2346 78.1856 81.3224 80.579 84.8521C81.8921 86.7881 83.4245 88.5624 85.0571 90.2342C86.7114 91.9302 88.4306 93.6101 90.3718 94.9826C91.1434 95.5273 91.9557 95.9965 92.8085 96.3983L91.4386 98.9572L96.1468 99.2268L94.9122 96.552C98.7893 94.1845 102.065 90.9137 105.238 87.6806C108.506 84.3532 111.441 80.6052 113.374 76.3421C115.28 72.1329 116.244 67.4896 115.64 62.8814L115.635 62.876Z" fill="#FC8230"/>
<path d="M46.9361 20.5089C48.7275 20.4363 50.1193 18.901 50.0449 17.0798C49.9705 15.2585 48.458 13.8409 46.6666 13.9135C44.8753 13.9861 43.4834 15.5214 43.5578 17.3426C43.6322 19.1639 45.1447 20.5815 46.9361 20.5089Z" fill="white"/>
<path d="M49.8386 16.6556C49.8684 18.3732 48.5228 19.7889 46.8334 19.8158C45.1439 19.8428 43.7523 18.473 43.7225 16.7554C43.6927 15.0377 45.0383 13.6221 46.7278 13.5951C48.4172 13.5682 49.8089 14.9379 49.8386 16.6556Z" fill="#403E3D"/>
<path d="M56.6255 20.3074C58.4169 20.2351 59.809 18.7001 59.7349 16.8788C59.6608 15.0575 58.1486 13.6396 56.3572 13.7119C54.5658 13.7842 53.1737 15.3192 53.2478 17.1405C53.3219 18.9618 54.8341 20.3797 56.6255 20.3074Z" fill="white"/>
<path d="M59.515 16.4808C59.5448 18.1984 58.1992 19.6141 56.5098 19.641C54.8203 19.668 53.4287 18.2982 53.3989 16.5806C53.3691 14.8629 54.7147 13.4473 56.4042 13.4203C58.0936 13.3933 59.4853 14.7631 59.515 16.4808Z" fill="#403E3D"/>
<path d="M50.3964 22.6175C50.464 23.5612 51.0732 24.2866 51.7609 24.238C52.4486 24.1895 52.9522 23.386 52.8845 22.4422C52.8168 21.4984 52.2076 20.7731 51.5199 20.8216C50.8323 20.8702 50.3287 21.6737 50.3964 22.6175Z" stroke="#403E3D" stroke-width="2" stroke-linecap="round" stroke-linejoin="round"/>
<path d="M92.2616 59.9853C92.0964 61.684 90.61 62.9325 88.9395 62.7707C87.269 62.6089 86.048 61.0989 86.2104 59.4001C86.3756 57.7014 87.862 56.4529 89.5325 56.6147C91.2029 56.7765 92.424 58.2865 92.2616 59.9853Z" fill="white"/>
<path d="M91.9314 59.3296C91.7771 60.9313 90.3747 62.1069 88.7989 61.9532C87.2232 61.7995 86.0725 60.3785 86.2295 58.7768C86.3839 57.1751 87.7863 55.9995 89.3621 56.1532C90.9378 56.3069 92.0885 57.7279 91.9314 59.3296Z" fill="#403E3D"/>
<path d="M101.302 60.8183C101.137 62.517 99.6502 63.7655 97.9797 63.6037C96.3092 63.4419 95.0881 61.9319 95.2506 60.2331C95.4157 58.5344 96.9021 57.2859 98.5726 57.4477C100.243 57.6095 101.464 59.1195 101.302 60.8183Z" fill="white"/>
<path d="M100.863 60.1763C100.709 61.7779 99.3063 62.9536 97.7306 62.7999C96.1548 62.6462 95.0042 61.2252 95.1612 59.6235C95.3155 58.0218 96.718 56.8461 98.2937 56.9998C99.8694 57.1535 101.02 58.5746 100.863 60.1763Z" fill="#403E3D"/>
<path d="M90.3474 64.4336C90.3474 64.4336 92.6704 68.8989 95.7596 64.8273" stroke="#403E3D" stroke-width="2" stroke-linecap="round" stroke-linejoin="round"/>
<path d="M73.231 52.6052C73.0089 52.5297 72.9521 52.2196 73.0631 52.0147C73.1741 51.8098 73.3961 51.6938 73.61 51.6021C73.9647 51.4511 74.3356 51.3406 74.7146 51.2705C74.9691 51.2219 75.2588 51.2004 75.4673 51.3514C75.6758 51.5024 75.6947 51.8987 75.4456 51.9823C75.6487 51.8448 75.9655 51.923 76.0792 52.1414C76.1929 52.3598 76.0792 52.6618 75.849 52.7508C76.0223 52.6699 76.247 52.8021 76.2931 52.9854C76.3391 53.1715 76.2254 53.3737 76.0548 53.4627C76.2958 53.371 76.534 53.6811 76.4718 53.9319C76.4095 54.1799 76.1739 54.3444 75.9438 54.4631C75.6514 54.6141 75.3401 54.73 75.0233 54.8217C74.8013 54.8864 74.5549 54.9376 74.3464 54.8379C74.1379 54.7408 74.0242 54.428 74.1948 54.2743C73.7806 54.2797 73.4448 53.7997 73.5938 53.4141C73.388 53.5409 73.0983 53.3413 73.0685 53.1041C73.0387 52.8641 73.1958 52.6376 73.3853 52.4893" fill="#FC8230"/>
<path d="M73.2987 52.4888C73.0523 52.3728 73.2445 52.0385 73.3961 51.9333C73.6452 51.758 73.9755 51.6637 74.2652 51.5828C74.5414 51.5046 74.869 51.3994 75.1587 51.4426C75.2643 51.4587 75.3753 51.5019 75.4132 51.6097C75.4267 51.6475 75.4484 51.7688 75.3942 51.7904L75.5513 52.1598C75.6596 52.0951 75.8274 52.1086 75.8978 52.2272C75.979 52.3647 75.8789 52.5184 75.7489 52.5778C75.5404 52.6721 75.6893 53.0227 75.9059 52.9472C75.9872 52.9175 76.0792 52.9499 76.1009 53.0416C76.1279 53.1467 76.0359 53.2438 75.9574 53.2896C75.7652 53.4056 75.8897 53.7211 76.1117 53.6563C76.1902 53.6348 76.2444 53.7049 76.2687 53.7723C76.3039 53.8694 76.2606 53.9583 76.1983 54.0338C76.0386 54.228 75.7543 54.3385 75.5269 54.4302C75.2724 54.5327 74.9881 54.6459 74.7147 54.6756C74.6037 54.6891 74.4683 54.6891 74.3871 54.6028C74.3465 54.5597 74.3031 54.4734 74.3519 54.4248C74.4818 54.2873 74.3871 54.0662 74.2003 54.0608C73.9106 54.0527 73.7183 53.7345 73.8077 53.473C73.8726 53.2815 73.6452 53.1494 73.4882 53.2276C73.3907 53.2761 73.2933 53.1332 73.2906 53.0523C73.2797 52.8852 73.4286 52.7422 73.5478 52.6425C73.7671 52.4618 73.453 52.1544 73.2364 52.3324C72.9629 52.5589 72.7491 52.9418 72.9061 53.295C73.0442 53.6024 73.4016 53.7561 73.7075 53.5997L73.388 53.3543C73.2066 53.8882 73.6425 54.4707 74.2003 54.4842L74.0486 54.1201C73.7725 54.4194 73.9376 54.8913 74.295 55.0396C74.7499 55.2257 75.3266 54.9587 75.7435 54.7808C76.1117 54.6217 76.5828 54.3979 76.6721 53.9637C76.7507 53.5808 76.4122 53.1521 76.0034 53.2681L76.1577 53.6348C76.4095 53.4838 76.5774 53.1818 76.4745 52.8906C76.3797 52.6209 76.0657 52.4591 75.7949 52.5562L75.952 52.9256C76.2823 52.7773 76.4339 52.3378 76.2471 52.0223C76.0603 51.7068 75.646 51.6286 75.3455 51.8093C75.1587 51.9225 75.2832 52.2704 75.5025 52.1787C75.8707 52.025 75.9357 51.5477 75.665 51.2619C75.3238 50.8979 74.7228 51.0516 74.3058 51.1594C74.0541 51.2241 73.8077 51.3077 73.5667 51.4102C73.3501 51.5019 73.1335 51.6124 72.9819 51.7985C72.7274 52.114 72.7951 52.5859 73.1958 52.7369C73.3393 52.7908 73.4395 52.5562 73.3014 52.4915L73.2987 52.4888Z" fill="#FC8230"/>
<path d="M76.7127 50.7224C76.5367 50.7278 76.2957 50.7871 76.2091 50.957C76.1225 51.1269 76.2172 51.3642 76.3066 51.5206C76.3851 51.6554 76.488 51.7794 76.6098 51.8765C76.6775 51.9304 76.7479 51.9817 76.8264 52.0221C76.9157 52.068 77.0159 52.1192 77.1215 52.1111C77.3814 52.0949 77.5087 51.8522 77.5087 51.6177C77.5087 51.41 77.4464 51.2105 77.3598 51.0244C77.2813 50.8573 77.1594 50.7036 76.9997 50.6119C76.9049 50.5553 76.7993 50.5256 76.6883 50.5175C76.5286 50.5067 76.3986 50.593 76.3499 50.744C76.2822 50.9543 76.3607 51.197 76.469 51.3777C76.5719 51.5502 76.7181 51.6959 76.8914 51.7983C77.0647 51.9008 77.3137 51.7282 77.2515 51.5233C77.1432 51.17 76.9157 50.8276 76.6071 50.6173C76.4609 50.5175 76.2605 50.5499 76.1658 50.7009C76.0927 50.8141 76.1035 50.9732 76.1333 51.0972C76.1847 51.2941 76.2984 51.499 76.4365 51.6446C76.5015 51.7147 76.5827 51.7767 76.6667 51.8172C76.7858 51.8711 76.9293 51.9197 77.0565 51.8657C77.2136 51.801 77.2704 51.6392 77.2488 51.4801C77.2352 51.3696 77.1811 51.2698 77.1323 51.1727C77.089 51.0865 77.043 51.0002 76.9943 50.9166C76.9428 50.8276 76.8887 50.7332 76.8156 50.6604C76.6288 50.4744 76.2984 50.4609 76.155 50.7063C76.0277 50.9247 76.1279 51.1808 76.2768 51.3588C76.3986 51.5071 76.58 51.6042 76.7533 51.6824C76.8643 51.7309 77.0105 51.7174 77.0728 51.5988C77.1269 51.4963 77.108 51.3345 76.9888 51.2806C76.9374 51.2563 76.886 51.2321 76.8345 51.2051C76.8102 51.1916 76.7858 51.1754 76.7614 51.162C76.7506 51.1566 76.7425 51.1485 76.7316 51.1431C76.7235 51.1377 76.7127 51.1296 76.7046 51.1242L76.7262 51.1404C76.7046 51.1269 76.6829 51.1026 76.664 51.0838C76.6531 51.073 76.645 51.0649 76.6342 51.0541C76.6152 51.0325 76.626 51.0244 76.6342 51.0568C76.6288 51.0352 76.6017 51.0083 76.5909 50.9867C76.5881 50.9786 76.5827 50.9624 76.5773 50.957C76.5908 50.9867 76.5908 50.9921 76.5827 50.9678V50.9543C76.5827 50.9543 76.5773 50.9435 76.5746 50.9408C76.5692 50.9139 76.5719 50.922 76.5746 50.9597V50.9301C76.5719 50.8815 76.5665 50.9732 76.5746 50.9435C76.5773 50.9247 76.5936 50.9004 76.5665 50.9543C76.5881 50.9139 76.5367 50.9867 76.5584 50.9651C76.5719 50.9516 76.5205 50.9921 76.5123 50.9921C76.4636 51.0056 76.4771 50.9921 76.4988 50.9948C76.4636 50.9894 76.4582 50.9894 76.4853 50.9948C76.4582 50.9813 76.4501 50.9786 76.4663 50.9867C76.4798 50.9813 76.5015 51.011 76.4663 50.9867C76.4663 50.9867 76.488 51.0083 76.4907 51.0137C76.5313 51.0541 76.469 50.9732 76.4988 51.0244C76.5042 51.0352 76.5123 51.046 76.5177 51.0568C76.5557 51.1188 76.5908 51.1808 76.626 51.2428C76.6585 51.2995 76.6883 51.3588 76.7154 51.4181C76.7289 51.4478 76.7506 51.4801 76.7587 51.5125C76.7452 51.464 76.7533 51.4963 76.7587 51.5071C76.7587 51.5152 76.7777 51.5853 76.7722 51.5475V51.5341C76.7722 51.561 76.7722 51.5583 76.7722 51.5233L76.7858 51.4963L76.932 51.4073C76.9916 51.4046 76.9509 51.4073 76.9293 51.4046C76.9239 51.4046 76.8941 51.3939 76.8941 51.3939C76.8941 51.3939 76.9401 51.4154 76.8941 51.3939C76.8805 51.3858 76.867 51.3804 76.8535 51.3723C76.8481 51.3696 76.8264 51.3588 76.8237 51.3507C76.8481 51.3696 76.8508 51.3723 76.8291 51.3561C76.821 51.3507 76.8156 51.3453 76.8074 51.3372C76.7858 51.3183 76.7695 51.2968 76.7506 51.2752C76.71 51.2294 76.775 51.3157 76.7425 51.2644C76.7371 51.2536 76.7289 51.2428 76.7208 51.2321C76.6856 51.1754 76.6558 51.1161 76.6288 51.0541C76.6125 51.019 76.6477 51.108 76.6288 51.046C76.6233 51.0325 76.6179 51.019 76.6152 51.0083C76.6098 50.9894 76.6044 50.9678 76.599 50.9489C76.5936 50.9247 76.5827 50.9274 76.599 50.9543C76.599 50.9543 76.599 50.8869 76.599 50.9274V50.9408C76.6261 50.833 76.5394 50.8627 76.3364 51.0271C76.3851 51.0514 76.3093 51.0002 76.3364 51.0244C76.3526 51.0379 76.3688 51.0514 76.3851 51.0649C76.4338 51.108 76.4826 51.1539 76.5259 51.2051C76.534 51.2132 76.5421 51.224 76.5502 51.2321C76.5557 51.2375 76.5963 51.2941 76.5773 51.2644C76.5557 51.2321 76.5881 51.2806 76.5909 51.2833C76.6017 51.2968 76.6125 51.313 76.6206 51.3264C76.6558 51.3804 76.691 51.4397 76.7181 51.4963C76.7262 51.5125 76.7343 51.5287 76.7398 51.5449C76.7614 51.5907 76.7235 51.5017 76.7425 51.5529C76.756 51.5853 76.7668 51.6204 76.7777 51.6554L77.1378 51.3804C77.1134 51.3669 77.089 51.3507 77.0647 51.3345C77.0295 51.3103 77.0647 51.3372 77.0728 51.3426C77.0619 51.3345 77.0511 51.3237 77.0403 51.3157C77.0213 51.2995 77.0024 51.2806 76.9834 51.2617C76.9753 51.2536 76.9672 51.2455 76.9591 51.2375C76.9536 51.2321 76.9076 51.1808 76.932 51.2078C76.9564 51.2348 76.9212 51.1943 76.9185 51.1916C76.913 51.1808 76.9049 51.1727 76.8995 51.162C76.8833 51.1377 76.8697 51.1134 76.8562 51.0865C76.8508 51.0757 76.8453 51.0649 76.8399 51.0541C76.821 51.0136 76.8399 51.0595 76.8426 51.0649C76.8264 51.0379 76.8183 50.9975 76.8102 50.9678C76.8074 50.9543 76.7993 50.9355 76.7993 50.9193C76.7993 50.9732 76.7993 50.9355 76.7993 50.9247C76.7993 50.9247 76.7993 50.86 76.7993 50.8977C76.7993 50.9381 76.8047 50.8707 76.8074 50.8734L76.7289 50.9328C76.6369 50.9759 76.6179 50.9975 76.6694 50.9921H76.6883C76.6585 50.9867 76.6531 50.9867 76.6721 50.9921C76.6883 50.9948 76.7019 50.9975 76.7181 51.0029L76.737 51.0083C76.7614 51.0163 76.7614 51.0163 76.7316 51.0056C76.7533 51.0056 76.7777 51.0325 76.7966 51.0433C76.8481 51.073 76.7668 51.011 76.8074 51.0514C76.8156 51.0595 76.8264 51.0676 76.8345 51.0757C76.8426 51.0838 76.8508 51.0945 76.8589 51.1026C76.8589 51.1026 76.8968 51.1512 76.8751 51.1215C76.8535 51.0918 76.8887 51.1431 76.8887 51.1431C76.8995 51.1593 76.9076 51.1754 76.9185 51.1916C76.932 51.2159 76.9455 51.2402 76.9564 51.2644C76.9618 51.2779 76.9699 51.2914 76.9753 51.3076C76.9591 51.2644 76.9726 51.2995 76.9753 51.3076C76.9997 51.3723 77.0213 51.4397 77.0349 51.5071C77.0349 51.5071 77.0457 51.5718 77.0403 51.5395C77.0349 51.5071 77.0403 51.5718 77.0403 51.5718C77.0403 51.5988 77.043 51.6257 77.0403 51.6527C77.0403 51.6554 77.0295 51.712 77.0403 51.6797C77.0484 51.6446 77.0322 51.7039 77.0322 51.7039C77.043 51.6662 77.0403 51.6851 77.0322 51.6985C77.0538 51.6743 77.0538 51.6716 77.0376 51.6878L77.0592 51.6716C77.0267 51.6959 77.0728 51.6662 77.0863 51.6635C77.0971 51.6635 77.154 51.6689 77.108 51.6608C77.0998 51.6608 77.0619 51.6473 77.1134 51.6635C77.0999 51.6581 77.0863 51.6527 77.0755 51.6446C77.024 51.6204 76.9753 51.5907 76.9293 51.561C76.9103 51.5475 76.8833 51.5341 76.867 51.5179C76.8968 51.5502 76.8833 51.5287 76.8724 51.5206C76.8616 51.5125 76.8508 51.5017 76.8399 51.4936C76.7966 51.4559 76.7587 51.4154 76.7208 51.3723C76.7127 51.3642 76.691 51.3318 76.7181 51.3723C76.7073 51.3588 76.6991 51.3453 76.6883 51.3318C76.6721 51.3076 76.6558 51.286 76.6423 51.2617C76.6233 51.2321 76.6071 51.2024 76.5936 51.1727C76.5881 51.162 76.5827 51.1539 76.58 51.1431C76.5557 51.0945 76.5936 51.1862 76.5719 51.1269C76.5665 51.1134 76.5611 51.0999 76.5611 51.0892C76.5611 51.108 76.5611 51.1053 76.5611 51.0811C76.5611 51.0892 76.5611 51.0972 76.5611 51.1026C76.5638 51.1107 76.534 51.135 76.5611 51.1053C76.5746 51.0918 76.5881 51.0811 76.6017 51.0676C76.6315 51.0406 76.691 51.0029 76.7425 50.984C76.8047 50.9624 76.8453 50.9085 76.8372 50.8411C76.8291 50.7791 76.775 50.7251 76.7073 50.7278L76.7127 50.7224Z" fill="#FC8230"/>
</g>
<defs>
<radialGradient id="paint0_radial_364_350" cx="0" cy="0" r="1" gradientUnits="userSpaceOnUse" gradientTransform="translate(70.223 38.0492) scale(9.7847 9.74496)">
<stop stop-color="#5C8EBD" stop-opacity="0.9"/>
<stop offset="1" stop-color="#5C8EBD" stop-opacity="0"/>
</radialGradient>
<radialGradient id="paint1_radial_364_350" cx="0" cy="0" r="1" gradientUnits="userSpaceOnUse" gradientTransform="translate(32.9983 17.1599) scale(9.84427 9.80429)">
<stop stop-color="#5C8EBD" stop-opacity="0.9"/>
<stop offset="1" stop-color="#5C8EBD" stop-opacity="0"/>
</radialGradient>
<radialGradient id="paint2_radial_364_350" cx="0" cy="0" r="1" gradientUnits="userSpaceOnUse" gradientTransform="translate(77.6008 63.9486) scale(6.73341 6.70607)">
<stop stop-color="#C54C00" stop-opacity="0.9"/>
<stop offset="1" stop-color="#C54C00" stop-opacity="0"/>
</radialGradient>
<radialGradient id="paint3_radial_364_350" cx="0" cy="0" r="1" gradientUnits="userSpaceOnUse" gradientTransform="translate(110.228 79.8255) scale(8.2171 8.18372)">
<stop stop-color="#C54C00" stop-opacity="0.9"/>
<stop offset="1" stop-color="#C54C00" stop-opacity="0"/>
</radialGradient>
<clipPath id="clip0_364_350">
<rect width="125" height="134" fill="white"/>
</clipPath>
</defs>
</svg>
