<svg width="235" height="227" viewBox="0 0 235 227" fill="none" xmlns="http://www.w3.org/2000/svg">
<g opacity="0.4" clip-path="url(#clip0_318_735)">
<path d="M50.0342 5.55435C48.496 2.5292 45.2319 0.470286 41.9321 0.0819824C38.1046 -0.360503 34.2682 1.16562 31.3529 3.6309C28.3303 6.18648 26.2467 9.65412 24.7264 13.2843C24.5029 13.8171 24.2972 14.3499 24.0915 14.8827C21.7306 12.0833 19.1373 9.32 15.8106 7.76678C13.8432 6.84569 11.6791 6.44835 9.5239 6.7012C7.23458 6.96308 4.72169 7.7126 2.8169 9.06715C-0.974786 11.7762 -0.58131 16.9777 1.86898 20.4724C1.89581 20.5086 1.91369 20.5356 1.94052 20.5627C2.3966 21.7006 3.23721 22.6939 4.12253 23.5969C5.58913 25.0869 7.10044 26.5318 8.64752 27.9315C11.7238 30.7218 14.961 33.3316 18.3324 35.7517C20.0315 36.9799 21.7753 38.1538 23.537 39.2826C24.4045 39.8334 25.2809 40.3752 26.1662 40.908C26.9621 41.3866 27.8832 42.1181 28.8669 41.9826C29.8506 41.8472 30.3961 40.9261 30.9684 40.2037C31.5228 39.4993 32.0862 38.813 32.6675 38.1357C33.8479 36.7451 35.082 35.3995 36.3161 34.0631C41.1362 28.8526 46.314 23.633 49.1935 17.0048C50.7406 13.4288 51.8942 9.22066 50.0252 5.54532L50.0342 5.55435Z" fill="#EB8888"/>
</g>
<path d="M137.221 174.475L144.38 196.903C144.38 196.903 158.558 200.493 157.965 206.191L130.42 206.582L130.62 175.35L137.221 174.475V174.475Z" fill="#ED7E7E"/>
<path d="M137.221 174.475L144.38 196.903C144.38 196.903 158.558 200.493 157.965 206.191L130.42 206.582L130.62 175.35L137.221 174.475V174.475Z" fill="url(#paint0_radial_318_735)"/>
<path d="M119.641 174.131L111.496 196.227C111.496 196.227 97.1713 199.192 97.5116 204.913L125.016 206.507L126.201 175.293L119.646 174.131H119.641Z" fill="#ED7E7E"/>
<path d="M119.641 174.131L111.496 196.227C111.496 196.227 97.1713 199.192 97.5116 204.913L125.016 206.507L126.201 175.293L119.646 174.131H119.641Z" fill="url(#paint1_radial_318_735)"/>
<path d="M73.8921 74.205C73.493 74.4619 72.9708 74.2926 72.5365 74.0941C71.9204 73.8139 71.3277 73.4812 70.7702 73.1017C70.512 72.9266 70.2479 72.7339 70.1188 72.4537C70.0191 72.2377 70.0073 71.9925 70.0073 71.7532C69.9956 70.4397 70.1892 69.1262 70.5941 67.8711C72.0729 68.0346 73.4343 68.7409 74.7488 69.4356C75.5528 69.8618 76.3626 70.2879 77.1665 70.7082L73.8921 74.205Z" fill="#ED7E7E"/>
<path d="M74.0445 74.3573C73.5339 74.9702 72.5598 74.5733 71.9671 74.3164C71.2688 74.007 70.4003 73.6159 69.8898 73.0321C69.3147 72.3724 69.4262 71.345 69.4966 70.5336C69.5788 69.582 69.7607 68.6363 70.0424 67.7256C70.1069 67.5096 70.3416 67.2819 70.5881 67.3111C71.8263 67.4571 72.9588 67.9007 74.0621 68.4495C75.1653 68.9982 76.3213 69.6287 77.448 70.2242C77.7825 70.3993 77.806 70.8605 77.5654 71.1173C76.4739 72.2849 75.3824 73.4466 74.2909 74.6141C73.7863 75.1512 72.9823 74.3456 73.4811 73.8085C74.5726 72.641 75.6641 71.4793 76.7556 70.3117L76.8729 71.2049C75.8225 70.6503 74.778 70.0841 73.7158 69.547C72.73 69.0449 71.6913 68.5779 70.5881 68.4437L71.1338 68.0292C70.905 68.7355 70.7348 69.4594 70.6409 70.2008C70.594 70.5628 70.5705 70.9247 70.5588 71.2866C70.547 71.596 70.4649 72.0105 70.6116 72.2907C70.7348 72.5242 71.0165 72.6877 71.2277 72.8278C71.5094 73.0204 71.797 73.1956 72.0904 73.3649C72.3838 73.5342 72.6889 73.721 73.0058 73.8611C73.3227 74.0012 73.5633 74.0362 73.8919 73.9953C74.0973 73.972 74.1501 74.2347 74.0445 74.3631V74.3573Z" fill="#ED7E7E"/>
<path d="M175.664 136.406C175.476 135.285 175.288 134.159 175.094 133.038C174.654 130.44 174.22 127.836 173.774 125.239C173.745 125.075 173.715 124.912 173.692 124.748C173.598 124.182 174.308 123.948 174.66 124.322C175.705 125.414 176.755 126.494 177.806 127.574C180.452 130.3 183.11 133.014 185.78 135.711C189.266 139.232 192.781 142.723 196.326 146.184C199.899 149.681 203.514 153.137 207.211 156.505C209.429 158.519 211.665 160.533 214.006 162.413C215.086 162.512 216.166 162.658 217.234 162.834C218.343 163.015 219.446 163.236 220.538 163.505C221.324 163.698 222.14 163.896 222.873 164.246C223.507 164.55 224.205 165.128 223.941 165.916C223.759 166.459 223.237 166.71 222.791 167.019C222.967 167.247 223.29 167.428 223.454 167.632C223.712 167.953 223.806 168.356 223.695 168.753C223.495 169.442 222.914 169.745 222.281 169.88C222.327 170.113 222.304 170.358 222.21 170.598C221.911 171.357 221.048 171.52 220.315 171.462C218.807 171.333 217.281 170.919 215.837 170.428C215.931 171.409 216.389 172.349 216.019 173.353C215.579 174.538 214.218 174.813 213.214 174.124C211.953 173.26 212.093 171.613 211.753 170.306C211.436 169.062 210.233 168.449 209.523 167.463C209.435 167.34 209.353 167.212 209.277 167.078C209.247 167.025 209.218 166.967 209.189 166.914C209.177 166.897 209.171 166.879 209.159 166.856C209.083 166.727 209.089 166.704 209.177 166.786C209.177 166.78 209.177 166.78 209.177 166.774C209.083 166.681 208.977 166.599 208.878 166.511C208.473 166.155 208.074 165.799 207.669 165.437C206.184 164.118 204.694 162.793 203.209 161.473C201.132 159.629 199.06 157.784 196.983 155.945C194.677 153.896 192.37 151.853 190.064 149.81C187.893 147.883 185.716 145.962 183.545 144.036C181.866 142.553 180.188 141.065 178.516 139.582C177.7 138.858 176.878 138.14 176.063 137.41C175.746 137.13 175.728 136.797 175.664 136.4V136.406Z" fill="#ED7E7E"/>
<path d="M175.664 136.406C175.476 135.285 175.288 134.159 175.094 133.038C174.654 130.44 174.22 127.836 173.774 125.239C173.745 125.075 173.715 124.912 173.692 124.748C173.598 124.182 174.308 123.948 174.66 124.322C175.705 125.414 176.755 126.494 177.806 127.574C180.452 130.3 183.11 133.014 185.78 135.711C189.266 139.232 192.781 142.723 196.326 146.184C199.899 149.681 203.514 153.137 207.211 156.505C209.429 158.519 211.665 160.533 214.006 162.413C215.086 162.512 216.166 162.658 217.234 162.834C218.343 163.015 219.446 163.236 220.538 163.505C221.324 163.698 222.14 163.896 222.873 164.246C223.507 164.55 224.205 165.128 223.941 165.916C223.759 166.459 223.237 166.71 222.791 167.019C222.967 167.247 223.29 167.428 223.454 167.632C223.712 167.953 223.806 168.356 223.695 168.753C223.495 169.442 222.914 169.745 222.281 169.88C222.327 170.113 222.304 170.358 222.21 170.598C221.911 171.357 221.048 171.52 220.315 171.462C218.807 171.333 217.281 170.919 215.837 170.428C215.931 171.409 216.389 172.349 216.019 173.353C215.579 174.538 214.218 174.813 213.214 174.124C211.953 173.26 212.093 171.613 211.753 170.306C211.436 169.062 210.233 168.449 209.523 167.463C209.435 167.34 209.353 167.212 209.277 167.078C209.247 167.025 209.218 166.967 209.189 166.914C209.177 166.897 209.171 166.879 209.159 166.856C209.083 166.727 209.089 166.704 209.177 166.786C209.177 166.78 209.177 166.78 209.177 166.774C209.083 166.681 208.977 166.599 208.878 166.511C208.473 166.155 208.074 165.799 207.669 165.437C206.184 164.118 204.694 162.793 203.209 161.473C201.132 159.629 199.06 157.784 196.983 155.945C194.677 153.896 192.37 151.853 190.064 149.81C187.893 147.883 185.716 145.962 183.545 144.036C181.866 142.553 180.188 141.065 178.516 139.582C177.7 138.858 176.878 138.14 176.063 137.41C175.746 137.13 175.728 136.797 175.664 136.4V136.406Z" fill="url(#paint2_radial_318_735)"/>
<path d="M128.9 68.9863C159.937 68.9863 185.1 94.0185 185.1 124.894C185.1 155.77 159.937 180.802 128.9 180.802C97.8633 180.802 72.7005 155.77 72.7005 124.894C72.7005 94.0185 97.8633 68.9863 128.9 68.9863V68.9863ZM128.9 147.025C141.188 147.025 151.146 137.118 151.146 124.894C151.146 112.67 141.188 102.763 128.9 102.763C116.612 102.763 106.654 112.67 106.654 124.894C106.654 137.118 116.612 147.025 128.9 147.025Z" fill="#ED7E7E"/>
<path d="M128.378 83.9065C128.003 87.4908 124.84 90.1003 121.313 89.7325C117.781 89.3647 115.222 86.1598 115.598 82.5755C115.973 78.9911 119.136 76.3816 122.663 76.7494C126.195 77.1172 128.754 80.3221 128.378 83.9065Z" fill="white"/>
<path d="M126.959 83.2885C126.606 86.6685 123.625 89.1262 120.298 88.7818C116.971 88.4373 114.559 85.4134 114.911 82.0392C115.263 78.6591 118.244 76.2014 121.572 76.5459C124.899 76.8903 127.311 79.9142 126.959 83.2885Z" fill="#403E3D"/>
<path d="M135.667 87.2695C135.667 87.2695 139.733 82.8037 147.632 85.3606" stroke="#403E3D" stroke-width="2" stroke-linecap="round" stroke-linejoin="round"/>
<path d="M126.87 94.2281C126.87 95.7459 127.973 96.9718 129.329 96.9718C130.684 96.9718 131.788 95.7401 131.788 94.2281C131.788 92.7161 130.684 91.4844 129.329 91.4844C127.973 91.4844 126.87 92.7161 126.87 94.2281Z" stroke="#403E3D" stroke-width="2" stroke-linecap="round" stroke-linejoin="round"/>
<path d="M84.6542 74.5035L107.37 82.5362L111.718 72.2151L90.0236 61.7422L84.6542 74.5035Z" fill="#BCBBBB"/>
<path d="M56.8623 66.3238L89.8943 78.0051L96.2144 63.0021L64.6729 47.7715L56.8623 66.3238Z" fill="#A09C9C"/>
<path d="M17.0001 54.2231L63.6932 70.7322L72.6187 49.5295L28.044 28L17.0001 54.2231Z" fill="#878382"/>
<path d="M52.1094 81.5952C52.6375 80.994 53.3417 80.6962 54.0576 80.4043C56.0117 79.6163 57.9658 78.8223 59.914 78.0342C62.6251 76.9367 65.3304 75.8392 68.0415 74.7476C69.2914 74.2397 70.5413 73.7377 71.7912 73.2298C72.5717 71.4726 74.2969 70.1883 76.2276 69.9373C76.3684 69.9198 76.5151 69.9198 76.6501 69.8964C76.832 69.8614 76.8613 69.7972 76.9259 69.6396C77.0491 69.3418 77.1371 69.0324 77.231 68.723C77.4129 68.151 77.6125 67.5672 77.9646 67.0768C78.6335 66.1544 79.8952 65.6174 80.9045 66.3763C81.8141 67.0593 81.996 68.3378 82.2483 69.3652C82.4185 70.0774 82.6239 70.7838 82.753 71.5076C82.8645 72.1148 82.9114 72.7569 82.6767 73.3407C82.1955 74.5433 80.8165 74.9169 79.7133 75.3255C79.015 75.5882 78.3166 75.8392 77.6125 76.0961C77.3719 76.1837 77.1078 76.2537 76.8789 76.3588C76.3625 76.5981 75.8638 76.9192 75.365 77.1936C74.338 77.7599 73.3052 78.3261 72.2783 78.8924C69.6552 80.3401 67.0145 81.7704 64.3856 83.2065C63.3117 83.7961 62.2378 84.3798 61.164 84.9695C60.8236 85.1563 60.4833 85.3606 60.137 85.5532C60.8001 86.0494 61.4632 86.5456 62.1263 87.0418C64.2565 88.6355 66.3808 90.2292 68.5109 91.8171C71.0812 93.7436 73.6573 95.67 76.2276 97.5965C78.4575 99.2661 80.6933 100.936 82.9232 102.611C84.0029 103.423 85.0885 104.222 86.1624 105.04C86.18 105.051 86.1917 105.063 86.2094 105.075C86.5262 105.314 86.5321 105.699 86.2094 105.939C84.5369 107.182 82.8704 108.431 81.1979 109.675C80.9573 109.856 80.7226 110.031 80.482 110.212C80.2942 110.352 80.0302 110.264 79.8717 110.136C79.191 109.558 78.5103 108.98 77.8296 108.402L72.7243 104.065C70.5061 102.179 68.2879 100.293 66.0698 98.4079C63.8633 96.534 61.6628 94.6601 59.4563 92.7862C57.7722 91.3559 56.088 89.9198 54.398 88.4896C53.6879 87.8883 52.925 87.3162 52.2619 86.6624C50.877 85.3022 50.836 83.0664 52.1035 81.6244L52.1094 81.5952Z" fill="#ED7E7E"/>
<g clip-path="url(#clip1_318_735)">
<path d="M222.542 45L222.432 34.4426L228.214 39.4023L229.366 38.3368L224.241 33.7952L235 33.6632V32.0005H223.777L229.65 26.5065L228.498 25.4411L222.396 30.979L222.296 21L220.652 21.3992L220.716 30.6679L214.772 25.3971L213.824 27.0597L219.584 32.0005H207V34.0026L219.229 33.8549L213.453 39.0974L214.772 40.4238L220.745 34.8355L220.816 45H222.542Z" fill="#E34E4E"/>
</g>
<g clip-path="url(#clip2_318_735)">
<path d="M35 211.458L24.4426 211.568L29.4023 205.786L28.3368 204.634L23.7952 209.759L23.6632 199H22.0005V210.223L16.5065 204.35L15.4411 205.502L20.979 211.604L11 211.704L11.3992 213.348L20.6679 213.284L15.3971 219.228L17.0597 220.176L22.0005 214.416V227H24.0026L23.8549 214.771L29.0974 220.547L30.4238 219.228L24.8355 213.255L35 213.184V211.458Z" fill="#FFD600"/>
</g>
<defs>
<radialGradient id="paint0_radial_318_735" cx="0" cy="0" r="1" gradientUnits="userSpaceOnUse" gradientTransform="translate(140.083 172.55) rotate(175.404) scale(25.8954 25.7628)">
<stop stop-color="#CE3D44" stop-opacity="0.9"/>
<stop offset="1" stop-color="#CE3D44" stop-opacity="0"/>
</radialGradient>
<radialGradient id="paint1_radial_318_735" cx="0" cy="0" r="1" gradientUnits="userSpaceOnUse" gradientTransform="translate(116.889 172.078) rotate(7.09338) scale(25.8942 25.764)">
<stop stop-color="#CE3D44" stop-opacity="0.9"/>
<stop offset="1" stop-color="#CE3D44" stop-opacity="0"/>
</radialGradient>
<radialGradient id="paint2_radial_318_735" cx="0" cy="0" r="1" gradientUnits="userSpaceOnUse" gradientTransform="translate(181.855 140.796) rotate(180) scale(20.1865 20.0818)">
<stop stop-color="#CE3D44" stop-opacity="0.9"/>
<stop offset="1" stop-color="#CE3D44" stop-opacity="0"/>
</radialGradient>
<clipPath id="clip0_318_735">
<rect width="51" height="42" fill="white"/>
</clipPath>
<clipPath id="clip1_318_735">
<rect width="28" height="24" fill="white" transform="translate(207 21)"/>
</clipPath>
<clipPath id="clip2_318_735">
<rect width="28" height="24" fill="white" transform="matrix(0 -1 1 0 11 227)"/>
</clipPath>
</defs>
</svg>
