<svg width="30" height="30" viewBox="0 0 30 30" fill="none" xmlns="http://www.w3.org/2000/svg">
<path d="M12.8268 19.6464L8.42403 15.4305C8.36141 15.3718 8.31148 15.3008 8.27734 15.2219C8.2432 15.1431 8.22559 15.058 8.22559 14.972C8.22559 14.886 8.2432 14.801 8.27734 14.7221C8.31148 14.6432 8.36141 14.5722 8.42403 14.5135L9.38172 13.5966C9.51149 13.4745 9.6827 13.4065 9.86057 13.4065C10.0384 13.4065 10.2097 13.4745 10.3394 13.5966L13.307 16.4358L19.6601 10.3521C19.7899 10.2301 19.9611 10.1621 20.139 10.1621C20.3169 10.1621 20.4881 10.2301 20.6178 10.3521L21.5755 11.2691C21.6382 11.3278 21.6881 11.3988 21.7222 11.4776C21.7564 11.5565 21.774 11.6416 21.774 11.7276C21.774 11.8136 21.7564 11.8986 21.7222 11.9775C21.6881 12.0564 21.6382 12.1274 21.5755 12.1861L13.791 19.6464C13.6609 19.7704 13.4883 19.8395 13.3089 19.8395C13.1295 19.8395 12.957 19.7704 12.8268 19.6464Z" fill="#EB8888"/>
</svg>
