<svg width="11" height="12" viewBox="0 0 11 12" fill="none" xmlns="http://www.w3.org/2000/svg">
<path d="M10.3544 3.11966C9.86613 2.2454 9.1366 1.50529 8.2647 1.01109C7.41516 0.528662 6.435 0.270974 5.4572 0.281564C4.44763 0.292154 3.44159 0.586318 2.58733 1.12405C1.74602 1.65472 1.04356 2.41249 0.598784 3.30439C0.162244 4.17983 -0.0542605 5.16704 0.0116322 6.14602C0.0798783 7.15912 0.418755 8.15457 1.01061 8.98176C1.58718 9.78895 2.36612 10.4502 3.28038 10.8444C3.72751 11.0374 4.18759 11.1833 4.67119 11.2539C5.16303 11.3257 5.65488 11.3468 6.14907 11.2857C6.64915 11.2233 7.13276 11.1103 7.59871 10.915C7.86111 10.8056 8.11527 10.6856 8.36001 10.5397C8.61652 10.3855 8.86009 10.2078 9.09071 10.016C9.92143 9.32652 10.5286 8.37225 10.8298 7.33797C10.8981 7.10499 10.9487 6.86613 10.9828 6.62492C11.0028 6.56256 11.0051 6.50019 10.991 6.43665C10.9887 6.37429 10.9698 6.31546 10.9357 6.26133C10.8781 6.16367 10.7663 6.07071 10.6545 6.04483C10.5345 6.01776 10.3992 6.02365 10.2921 6.09189C10.1968 6.15308 10.092 6.25545 10.0756 6.37311C10.0132 6.80965 9.89555 7.23678 9.72375 7.6439C9.73905 7.60625 9.75552 7.5686 9.77082 7.53094C9.60138 7.92865 9.38253 8.30401 9.12013 8.64641C9.14484 8.61464 9.16955 8.58287 9.19426 8.5511C8.93069 8.89116 8.62593 9.19709 8.28588 9.46066C8.31765 9.43595 8.34942 9.41124 8.38119 9.38653C8.03408 9.65363 7.65519 9.87484 7.25278 10.0466C7.29043 10.0313 7.32808 10.0149 7.36574 9.99957C6.95273 10.1737 6.51737 10.2937 6.07259 10.3537C6.11377 10.3479 6.15613 10.342 6.19732 10.3373C5.75372 10.3961 5.30306 10.3961 4.85828 10.3373C4.89946 10.3432 4.94182 10.349 4.98301 10.3537C4.53705 10.2937 4.10169 10.1749 3.68633 10.0007C3.72398 10.016 3.76164 10.0325 3.79929 10.0478C3.39687 9.8772 3.01799 9.65716 2.67088 9.39006C2.70265 9.41477 2.73442 9.43948 2.76619 9.46419C2.42966 9.20415 2.12844 8.90175 1.86722 8.5664C1.89193 8.59817 1.91664 8.62994 1.94135 8.66171C1.67307 8.31342 1.44951 7.93218 1.27771 7.52741C1.29301 7.56507 1.30948 7.60272 1.32478 7.64037C1.15064 7.22737 1.03062 6.792 0.970607 6.34723C0.976491 6.38841 0.982374 6.43077 0.987081 6.47195C0.928248 6.02835 0.928248 5.57769 0.987081 5.13292C0.981197 5.1741 0.975314 5.21646 0.970607 5.25764C1.03062 4.81169 1.14946 4.37633 1.3236 3.96097C1.30831 3.99862 1.29183 4.03627 1.27654 4.07393C1.44715 3.67151 1.66719 3.29263 1.93429 2.94551C1.90958 2.97728 1.88487 3.00905 1.86016 3.04082C2.1202 2.7043 2.4226 2.40308 2.75795 2.14186C2.72618 2.16657 2.69441 2.19128 2.66264 2.21599C3.01093 1.94771 3.39099 1.72414 3.79576 1.55235C3.75811 1.56765 3.72045 1.58412 3.6828 1.59942C4.09581 1.42527 4.52999 1.30643 4.97477 1.24642C4.93359 1.25231 4.89123 1.25819 4.85004 1.2629C5.29364 1.20406 5.7443 1.20524 6.1879 1.26407C6.14672 1.25819 6.10436 1.25231 6.06318 1.2476C6.51384 1.30878 6.95508 1.42998 7.37397 1.60648C7.33632 1.59118 7.29867 1.57471 7.26101 1.55941C7.66343 1.73003 8.04231 1.95242 8.38825 2.21952C8.35648 2.19481 8.32471 2.1701 8.29294 2.14539C8.62829 2.40661 8.93069 2.70783 9.19073 3.04318C9.16602 3.01141 9.14131 2.97964 9.1166 2.94787C9.27427 3.15143 9.41547 3.36676 9.54137 3.5915C9.66139 3.80683 9.97438 3.89625 10.185 3.76094C10.4039 3.62327 10.4827 3.35028 10.3544 3.11966Z" fill="#777777"/>
<path d="M7.06105 3.82573C7.38581 3.82573 7.71174 3.82573 8.0365 3.82691C8.55423 3.82691 9.07313 3.82808 9.59086 3.82808C9.7097 3.82808 9.82855 3.82808 9.94739 3.82808C10.2015 3.82808 10.4181 3.61276 10.4181 3.35742C10.4181 3.03031 10.4181 2.70438 10.4192 2.37727C10.4192 1.86072 10.4204 1.34534 10.4204 0.828788C10.4204 0.709945 10.4204 0.589926 10.4204 0.471084C10.4204 0.225163 10.2039 -0.0113451 9.94974 0.000421477C9.69441 0.012188 9.47908 0.207513 9.47908 0.471084C9.47908 0.798195 9.47908 1.12413 9.4779 1.45124C9.4779 1.96779 9.47673 2.48317 9.47673 2.99972C9.47673 3.11856 9.47673 3.23858 9.47673 3.35742C9.63322 3.20093 9.79089 3.04326 9.94739 2.88676C9.62263 2.88676 9.2967 2.88676 8.97194 2.88558C8.45421 2.88558 7.93531 2.88441 7.41758 2.88441C7.29873 2.88441 7.17989 2.88441 7.06105 2.88441C6.81513 2.88441 6.57862 3.10091 6.59039 3.35507C6.60215 3.6104 6.79748 3.82455 7.06105 3.82573Z" fill="#777777"/>
</svg>
