<svg width="52" height="52" viewBox="0 0 52 52" fill="none" xmlns="http://www.w3.org/2000/svg">
<circle cx="26" cy="26" r="25.5" fill="#FFE2E2" stroke="#F1ECEC"/>
<g clip-path="url(#clip0_970_1151)">
<path d="M11.9395 27.4353C11.9443 19.7261 17.37 13.0737 24.8229 12.1076C32.2757 11.1415 39.1619 16.1988 41.0603 23.6616L41.9999 23.5402C40.0281 15.5343 32.6691 10.0932 24.7002 11.1255C16.7324 12.1578 10.9434 19.3031 10.9999 27.5579L11.9395 27.4365V27.4353Z" fill="#DD4B4B"/>
<path d="M12.9151 27.3086C12.9837 20.1646 18.0317 14.0234 24.9504 13.1272C31.8691 12.231 38.2644 16.8899 40.0846 23.7887L41.0603 23.6624C39.1631 16.1996 32.2769 11.1423 24.8228 12.1084C17.37 13.0733 11.9443 19.7257 11.9395 27.4349L12.9151 27.3086Z" fill="#F2D766"/>
<path d="M13.8991 27.1817C14.0303 20.609 18.6981 14.9816 25.0778 14.1552C31.4575 13.3289 37.3585 17.5856 39.0993 23.9168L40.0833 23.7893C38.2643 16.8905 31.869 12.2316 24.9503 13.1278C18.0316 14.024 12.9836 20.1652 12.915 27.3092L13.8991 27.1817Z" fill="#7EC182"/>
<path d="M14.87 27.0566C15.0625 21.0454 19.355 15.9243 25.2042 15.1654C31.0534 14.4077 36.4671 18.2709 38.1297 24.043L39.1005 23.9167C37.3597 17.5868 31.4588 13.3288 25.0791 14.1551C18.6993 14.9815 14.0315 20.6089 13.9004 27.1816L14.8712 27.0553L14.87 27.0566Z" fill="#5B89B2"/>
<path d="M15.7529 26.9402C15.9983 21.4391 19.9515 16.7765 25.3195 16.0814C30.6863 15.3862 35.6585 18.8914 37.2477 24.1547L38.1307 24.0407C36.4693 18.2698 31.0544 14.4054 25.2052 15.1631C19.356 15.9207 15.0636 21.0418 14.8711 27.0542L15.7541 26.9402H15.7529Z" fill="#9C7DB5"/>
<path d="M17.1379 29.564C17.1247 29.4476 17.1114 29.3323 17.0994 29.2158C17.091 29.1386 17.0092 29.1043 16.9454 29.1435C16.5472 29.3973 15.0109 30.0557 14.5429 30.1121C14.5165 30.1157 14.4912 30.1182 14.4647 30.1207C14.4299 30.1243 14.4323 30.1256 14.4154 30.0986C14.3817 30.0459 14.3661 29.9649 14.3432 29.9061C14.2987 29.7872 14.253 29.6682 14.2085 29.5493C14.1159 29.3017 14.022 29.0552 13.9294 28.8076C13.8392 28.5697 13.7321 28.3319 13.6587 28.0879C13.6238 27.9714 13.6286 27.866 13.6707 27.7532C13.708 27.6527 13.7562 27.5546 13.773 27.4479C13.8091 27.2248 13.696 27.0311 13.625 26.8276C13.5565 26.6277 13.6298 26.3739 13.471 26.2121C13.3086 26.0454 13.0728 26.1459 12.9646 26.3212C12.8671 26.4769 12.8888 26.6486 12.92 26.819C12.8515 26.7552 12.7841 26.6915 12.7155 26.6265C12.606 26.5235 12.4954 26.3899 12.3522 26.3384C12.114 26.2526 11.8866 26.445 11.8842 26.6731C11.8301 26.6792 11.7759 26.705 11.735 26.7454C11.6821 26.7981 11.6605 26.8643 11.6544 26.9342C11.5281 26.9158 11.391 26.9796 11.3224 27.0936C11.1997 27.2996 11.2875 27.546 11.4186 27.7213C11.6364 28.0119 11.9708 28.2363 12.3053 28.3613C12.3883 28.392 12.4785 28.4177 12.57 28.43C12.9441 29.1411 13.3086 29.8595 13.696 30.5632C13.8524 30.8489 14.1002 31.2339 14.4732 31.1358C14.6584 31.0868 14.8377 30.9911 15.0133 30.9163C15.1974 30.8391 16.4678 30.269 16.6519 30.1905C16.7481 30.1501 16.8456 30.1096 16.9418 30.0679C17.0308 30.0312 17.1367 29.998 17.1608 29.8902C17.1836 29.7884 17.1487 29.6633 17.1367 29.5616L17.1379 29.564Z" fill="#EF6767"/>
<path d="M17.2077 29.5543C17.1945 29.4378 17.1813 29.3226 17.1692 29.2061C17.1608 29.1288 17.079 29.0945 17.0152 29.1337C16.617 29.3875 15.0808 30.0459 14.6128 30.1023C14.5863 30.106 14.561 30.1084 14.5346 30.1109C14.4997 30.1146 14.5021 30.1158 14.4852 30.0888C14.4516 30.0361 14.4359 29.9552 14.4131 29.8963C14.3686 29.7774 14.3228 29.6585 14.2783 29.5396C14.1857 29.2919 14.0919 29.0455 13.9992 28.7978C13.909 28.56 13.8019 28.3221 13.7285 28.0781C13.6936 27.9617 13.6985 27.8562 13.7406 27.7434C13.7779 27.6429 13.826 27.5448 13.8428 27.4382C13.8789 27.215 13.7658 27.0213 13.6948 26.8178C13.6263 26.618 13.6997 26.3642 13.5409 26.2023C13.3784 26.0356 13.1427 26.1361 13.0344 26.3114C12.9369 26.4672 12.9586 26.6388 12.9899 26.8092C12.9213 26.7455 12.8539 26.6817 12.7853 26.6167C12.6759 26.5137 12.5652 26.3801 12.422 26.3286C12.1838 26.2428 11.9565 26.4353 11.954 26.6633C11.8999 26.6694 11.8458 26.6952 11.8049 26.7357C11.7519 26.7884 11.7303 26.8546 11.7243 26.9245C11.5979 26.9061 11.4608 26.9698 11.3922 27.0838C11.2695 27.2898 11.3573 27.5362 11.4885 27.7116C11.7062 28.0021 12.0407 28.2265 12.3751 28.3515C12.4581 28.3822 12.5484 28.4079 12.6398 28.4202C13.0139 29.1313 13.3784 29.8497 13.7658 30.5535C13.9222 30.8391 14.1701 31.2241 14.543 31.126C14.7283 31.077 14.9075 30.9814 15.0832 30.9066C15.2672 30.8293 16.5376 30.2592 16.7217 30.1808C16.8179 30.1403 16.9154 30.0999 17.0116 30.0582C17.1007 30.0214 17.2065 29.9883 17.2306 29.8804C17.2534 29.7786 17.2186 29.6536 17.2065 29.5518L17.2077 29.5543Z" fill="url(#paint0_radial_970_1151)"/>
<path d="M36.9978 26.8461C36.9762 26.7309 36.9533 26.6169 36.9317 26.5016C36.9172 26.4256 36.9846 26.3668 37.0568 26.3852C37.5115 26.5053 39.1717 26.661 39.6337 26.5703C39.659 26.5654 39.6854 26.5605 39.7107 26.5543C39.7456 26.547 39.7432 26.5494 39.7516 26.5188C39.7684 26.4587 39.76 26.3766 39.7636 26.3128C39.7708 26.1853 39.7793 26.0578 39.7865 25.9315C39.8021 25.6667 39.8178 25.4031 39.8334 25.1383C39.849 24.8833 39.8803 24.6246 39.8779 24.3696C39.8779 24.247 39.8418 24.1489 39.7672 24.0533C39.7023 23.9699 39.6277 23.8902 39.5796 23.7946C39.4785 23.5923 39.5302 23.3728 39.5362 23.1583C39.5435 22.9462 39.3979 22.7279 39.5001 22.5232C39.606 22.3135 39.8599 22.3381 40.0151 22.4717C40.1534 22.5906 40.1835 22.761 40.2039 22.9327L40.3423 22.6875C40.4157 22.5563 40.4818 22.3945 40.6033 22.3001C40.8055 22.1456 41.0785 22.2584 41.1495 22.4754C41.2037 22.4643 41.2614 22.4717 41.3131 22.4987C41.3793 22.533 41.4202 22.5894 41.4455 22.6544C41.5598 22.598 41.7101 22.6164 41.8088 22.7046C41.9868 22.8628 41.976 23.1252 41.9026 23.3336C41.7811 23.6769 41.5285 23.9944 41.247 24.2163C41.1772 24.2715 41.099 24.323 41.0148 24.3622C40.868 25.1555 40.7333 25.9524 40.5733 26.7419C40.5083 27.0619 40.3868 27.5057 40.0018 27.5266C39.8117 27.5364 39.612 27.5008 39.422 27.4837C39.2235 27.4665 37.8436 27.3132 37.6451 27.2961C37.5404 27.2875 37.4369 27.2777 37.3323 27.2691C37.2372 27.2605 37.1265 27.2618 37.0712 27.1674C37.0195 27.0779 37.0159 26.9479 36.9966 26.8474L36.9978 26.8461Z" fill="#EF6767"/>
<path d="M36.9978 26.8461C36.9762 26.7309 36.9533 26.6169 36.9317 26.5016C36.9172 26.4256 36.9846 26.3668 37.0568 26.3852C37.5115 26.5053 39.1717 26.661 39.6337 26.5703C39.659 26.5654 39.6854 26.5605 39.7107 26.5543C39.7456 26.547 39.7432 26.5494 39.7516 26.5188C39.7684 26.4587 39.76 26.3766 39.7636 26.3128C39.7708 26.1853 39.7793 26.0578 39.7865 25.9315C39.8021 25.6667 39.8178 25.4031 39.8334 25.1383C39.849 24.8833 39.8803 24.6246 39.8779 24.3696C39.8779 24.247 39.8418 24.1489 39.7672 24.0533C39.7023 23.9699 39.6277 23.8902 39.5796 23.7946C39.4785 23.5923 39.5302 23.3728 39.5362 23.1583C39.5435 22.9462 39.3979 22.7279 39.5001 22.5232C39.606 22.3135 39.8599 22.3381 40.0151 22.4717C40.1534 22.5906 40.1835 22.761 40.2039 22.9327L40.3423 22.6875C40.4157 22.5563 40.4818 22.3945 40.6033 22.3001C40.8055 22.1456 41.0785 22.2584 41.1495 22.4754C41.2037 22.4643 41.2614 22.4717 41.3131 22.4987C41.3793 22.533 41.4202 22.5894 41.4455 22.6544C41.5598 22.598 41.7101 22.6164 41.8088 22.7046C41.9868 22.8628 41.976 23.1252 41.9026 23.3336C41.7811 23.6769 41.5285 23.9944 41.247 24.2163C41.1772 24.2715 41.099 24.323 41.0148 24.3622C40.868 25.1555 40.7333 25.9524 40.5733 26.7419C40.5083 27.0619 40.3868 27.5057 40.0018 27.5266C39.8117 27.5364 39.612 27.5008 39.422 27.4837C39.2235 27.4665 37.8436 27.3132 37.6451 27.2961C37.5404 27.2875 37.4369 27.2777 37.3323 27.2691C37.2372 27.2605 37.1265 27.2618 37.0712 27.1674C37.0195 27.0779 37.0159 26.9479 36.9966 26.8474L36.9978 26.8461Z" fill="url(#paint1_radial_970_1151)"/>
<path d="M25.3546 37.2559L24.8385 39.0434C24.8385 39.0434 23.0531 39.6282 23.2986 40.37L26.3783 40.0892L26.7152 37.3539L25.3546 37.2559Z" fill="#EF6767"/>
<path d="M25.3546 37.2559L24.8385 39.0434C24.8385 39.0434 23.0531 39.6282 23.2986 40.37L26.3783 40.0892L26.7152 37.3539L25.3546 37.2559Z" fill="url(#paint2_radial_970_1151)"/>
<path d="M31.3447 36.3485L32.5141 37.7805C32.5141 37.7805 31.9956 39.6171 32.7379 39.8218L34.2248 37.0584L32.1832 35.25L31.3459 36.3473L31.3447 36.3485Z" fill="#EF6767"/>
<path d="M31.3447 36.3485L32.5141 37.7805C32.5141 37.7805 31.9956 39.6171 32.7379 39.8218L34.2248 37.0584L32.1832 35.25L31.3459 36.3473L31.3447 36.3485Z" fill="url(#paint3_radial_970_1151)"/>
<path d="M29.1249 38.7926C28.841 39.0795 28.4091 39.1506 28.0506 38.9692L22.9473 36.3872C17.5348 33.6924 16.6157 30.1014 16.6157 30.1014C15.545 25.3628 18.7017 24.2569 18.7017 24.2569C22.5647 22.9353 25.4508 25.0698 26.5636 26.1082C27.2987 24.7657 29.3775 21.8135 33.4534 21.8282C33.4534 21.8282 36.7919 21.8637 37.2394 26.7053C37.2394 26.7053 37.4764 30.4079 33.1719 34.7038L29.1249 38.7926Z" fill="#EF6767"/>
<path d="M28.9498 29.4028C29.675 29.3436 30.2148 28.6839 30.1555 27.9293C30.0962 27.1747 29.4602 26.6109 28.735 26.6701C28.0098 26.7293 27.47 27.3891 27.5293 28.1437C27.5886 28.8983 28.2246 29.462 28.9498 29.4028Z" fill="white"/>
<path d="M27.4753 28.1064C27.5474 28.8163 28.1586 29.3324 28.8407 29.2601C29.5228 29.1878 30.0173 28.5527 29.9451 27.844C29.8729 27.1342 29.2618 26.618 28.5797 26.6904C27.8975 26.7627 27.4031 27.3978 27.4753 28.1064Z" fill="#403E3D"/>
<path d="M23.5861 28.5963C23.6631 29.3491 24.3115 29.8971 25.0346 29.8199C25.7588 29.7426 26.2833 29.0695 26.2063 28.3168C26.1293 27.564 25.4809 27.016 24.7579 27.0932C24.0336 27.1704 23.5091 27.8435 23.5861 28.5963Z" fill="white"/>
<path d="M23.5524 28.499C23.6246 29.2089 24.2357 29.725 24.9179 29.6527C25.6 29.5803 26.0944 28.9453 26.0223 28.2366C25.9501 27.5268 25.3389 27.0106 24.6568 27.0829C23.9747 27.1553 23.4802 27.7903 23.5524 28.499Z" fill="#403E3D"/>
<path d="M25.8887 29.9957C25.8887 29.9957 26.9076 30.99 28.0938 29.6953" stroke="#403E3D" stroke-width="0.5" stroke-linecap="round" stroke-linejoin="round"/>
</g>
<defs>
<radialGradient id="paint0_radial_970_1151" cx="0" cy="0" r="1" gradientUnits="userSpaceOnUse" gradientTransform="translate(17.5795 29.8877) scale(4.25636 4.33766)">
<stop stop-color="#C61C24" stop-opacity="0.9"/>
<stop offset="1" stop-color="#C61C24" stop-opacity="0"/>
</radialGradient>
<radialGradient id="paint1_radial_970_1151" cx="0" cy="0" r="1" gradientUnits="userSpaceOnUse" gradientTransform="translate(37.4478 27.3329) scale(2.40007 2.44591)">
<stop stop-color="#C61C24" stop-opacity="0.9"/>
<stop offset="1" stop-color="#C61C24" stop-opacity="0"/>
</radialGradient>
<radialGradient id="paint2_radial_970_1151" cx="0" cy="0" r="1" gradientUnits="userSpaceOnUse" gradientTransform="translate(25.6072 37.5722) scale(2.01149 2.04991)">
<stop stop-color="#C61C24" stop-opacity="0.9"/>
<stop offset="1" stop-color="#C61C24" stop-opacity="0"/>
</radialGradient>
<radialGradient id="paint3_radial_970_1151" cx="0" cy="0" r="1" gradientUnits="userSpaceOnUse" gradientTransform="translate(31.7423 36.3101) rotate(-56.6596) scale(2.03807 2.02317)">
<stop stop-color="#C61C24" stop-opacity="0.9"/>
<stop offset="1" stop-color="#C61C24" stop-opacity="0"/>
</radialGradient>
<clipPath id="clip0_970_1151">
<rect width="31" height="34" fill="white" transform="translate(11 11)"/>
</clipPath>
</defs>
</svg>
