<svg width="20" height="20" viewBox="0 0 80 80" fill="none" xmlns="http://www.w3.org/2000/svg">
<path d="M40 51.6665C39.5613 51.669 39.1264 51.5849 38.7203 51.419C38.3142 51.2532 37.9448 51.0087 37.6333 50.6998L24.3 37.3665C23.9892 37.0557 23.7427 36.6867 23.5745 36.2806C23.4063 35.8746 23.3197 35.4393 23.3197 34.9998C23.3197 34.5603 23.4063 34.125 23.5745 33.719C23.7427 33.3129 23.9892 32.9439 24.3 32.6331C24.6108 32.3223 24.9798 32.0758 25.3858 31.9076C25.7919 31.7394 26.2271 31.6528 26.6667 31.6528C27.1062 31.6528 27.5414 31.7394 27.9475 31.9076C28.3536 32.0758 28.7225 32.3223 29.0333 32.6331L40 43.6665L51 33.0665C51.3066 32.7255 51.6803 32.4515 52.0977 32.2615C52.5151 32.0716 52.9672 31.9698 53.4257 31.9625C53.8842 31.9552 54.3393 32.0427 54.7625 32.2193C55.1856 32.3959 55.5678 32.658 55.8851 32.9891C56.2024 33.3202 56.448 33.7131 56.6064 34.1435C56.7649 34.5738 56.8329 35.0322 56.8061 35.4899C56.7794 35.9477 56.6584 36.3951 56.4509 36.804C56.2434 37.2129 55.9537 37.5746 55.6 37.8665L42.2667 50.7331C41.6571 51.3209 40.8467 51.6545 40 51.6665V51.6665Z" fill="#231F20"/>
</svg>