<svg width="263" height="172" viewBox="0 0 263 172" fill="none" xmlns="http://www.w3.org/2000/svg">
<g clip-path="url(#clip0_0_1)">
<path d="M169.226 89.5716C169.309 89.3729 169.419 89.194 169.528 89.0086C169.927 88.3329 170.325 87.6573 170.724 86.9816C171.381 85.8688 172.035 84.756 172.692 83.6432C173.42 82.4111 174.147 81.1791 174.871 79.947C175.412 79.0296 175.953 78.1122 176.494 77.1948C176.275 77.1285 176.073 77.0159 175.887 76.8669C175.478 76.539 175.233 76.0753 175.05 75.5918C174.841 75.0387 174.681 74.4657 174.505 73.9027C174.339 73.3694 174.087 72.7766 174.19 72.2069C174.283 71.6903 174.681 71.3226 175.083 71.0212C175.492 70.7165 175.953 70.4814 176.438 70.3191C176.933 70.1535 177.457 70.0674 177.979 70.0641C178.228 70.0641 178.473 70.0839 178.719 70.1171C178.835 70.1336 178.988 70.1966 179.104 70.1899C179.217 70.18 179.227 70.0972 179.257 69.9879C179.546 68.9513 179.788 67.9047 180.442 67.0204C180.734 66.6262 181.09 66.2785 181.561 66.1129C182.043 65.9473 182.617 66.0268 182.972 66.4143C183.314 66.7918 183.324 67.2986 183.211 67.7689C183.085 68.3021 182.866 68.8055 182.757 69.3454C182.518 70.5244 182.567 71.7366 182.355 72.9157C182.159 74.0186 181.658 75.0353 181.063 75.976C180.914 76.2111 180.758 76.4429 180.598 76.6748C180.442 76.9 180.253 77.1219 180.117 77.357C180.104 77.3802 180.094 77.4067 180.08 77.4332C179.831 77.9631 179.579 78.4931 179.33 79.023C178.334 81.1393 177.328 83.2524 176.345 85.3753C175.671 86.8326 175.003 88.2965 174.336 89.7571C175.521 89.969 176.71 90.181 177.896 90.3897C179.891 90.7407 181.887 91.0918 183.879 91.4495C184.334 91.5323 184.792 91.6118 185.247 91.6946C185.456 91.731 185.486 92.0026 185.363 92.1384C184.208 93.4201 183.049 94.6985 181.893 95.977C181.731 96.1591 181.565 96.338 181.402 96.5201C181.335 96.593 181.216 96.6228 181.126 96.593C180.515 96.3976 179.901 96.1989 179.29 96.0035C177.992 95.5862 176.697 95.1688 175.399 94.7515C174.223 94.374 173.048 93.9964 171.872 93.6188C171.59 93.5294 171.305 93.4367 171.022 93.3473C170.401 93.1485 169.877 92.7909 169.495 92.2576C168.94 91.4793 168.844 90.436 169.219 89.5617L169.226 89.5716Z" fill="#B2D7ED"/>
<path d="M169.226 89.5716C169.309 89.3729 169.419 89.194 169.528 89.0086C169.927 88.3329 170.325 87.6573 170.724 86.9816C171.381 85.8688 172.035 84.756 172.692 83.6432C173.42 82.4111 174.147 81.1791 174.871 79.947C175.412 79.0296 175.953 78.1122 176.494 77.1948C176.275 77.1285 176.073 77.0159 175.887 76.8669C175.478 76.539 175.233 76.0753 175.05 75.5918C174.841 75.0387 174.681 74.4657 174.505 73.9027C174.339 73.3694 174.087 72.7766 174.19 72.2069C174.283 71.6903 174.681 71.3226 175.083 71.0212C175.492 70.7165 175.953 70.4814 176.438 70.3191C176.933 70.1535 177.457 70.0674 177.979 70.0641C178.228 70.0641 178.473 70.0839 178.719 70.1171C178.835 70.1336 178.988 70.1966 179.104 70.1899C179.217 70.18 179.227 70.0972 179.257 69.9879C179.546 68.9513 179.788 67.9047 180.442 67.0204C180.734 66.6262 181.09 66.2785 181.561 66.1129C182.043 65.9473 182.617 66.0268 182.972 66.4143C183.314 66.7918 183.324 67.2986 183.211 67.7689C183.085 68.3021 182.866 68.8055 182.757 69.3454C182.518 70.5244 182.567 71.7366 182.355 72.9157C182.159 74.0186 181.658 75.0353 181.063 75.976C180.914 76.2111 180.758 76.4429 180.598 76.6748C180.442 76.9 180.253 77.1219 180.117 77.357C180.104 77.3802 180.094 77.4067 180.08 77.4332C179.831 77.9631 179.579 78.4931 179.33 79.023C178.334 81.1393 177.328 83.2524 176.345 85.3753C175.671 86.8326 175.003 88.2965 174.336 89.7571C175.521 89.969 176.71 90.181 177.896 90.3897C179.891 90.7407 181.887 91.0918 183.879 91.4495C184.334 91.5323 184.792 91.6118 185.247 91.6946C185.456 91.731 185.486 92.0026 185.363 92.1384C184.208 93.4201 183.049 94.6985 181.893 95.977C181.731 96.1591 181.565 96.338 181.402 96.5201C181.335 96.593 181.216 96.6228 181.126 96.593C180.515 96.3976 179.901 96.1989 179.29 96.0035C177.992 95.5862 176.697 95.1688 175.399 94.7515C174.223 94.374 173.048 93.9964 171.872 93.6188C171.59 93.5294 171.305 93.4367 171.022 93.3473C170.401 93.1485 169.877 92.7909 169.495 92.2576C168.94 91.4793 168.844 90.436 169.219 89.5617L169.226 89.5716Z" fill="url(#paint0_radial_0_1)"/>
<path d="M206.019 151.25C206.325 151.317 206.63 151.383 206.935 151.443L222.475 69.7891C221.651 69.6434 220.821 69.5175 219.978 69.4215C218.769 69.2824 217.571 69.1963 216.375 69.1598L216.369 65C217.723 65.0364 219.088 65.1325 220.459 65.2915C245.605 68.2126 263.611 90.9096 260.682 115.991C257.754 141.069 234.996 159.034 209.854 156.112C208.134 155.914 206.447 155.616 204.797 155.238L206.022 151.25H206.019ZM256.542 115.508C258.963 94.7747 245.641 75.8335 226.018 70.5774L210.525 152.002C233.306 154.546 253.886 138.248 256.539 115.511L256.542 115.508Z" fill="#5B89B2"/>
<path d="M243.576 135.342C243.629 135.054 243.762 134.786 243.878 134.518C244.007 134.219 244.137 133.921 244.27 133.627C244.519 133.07 244.764 132.51 245.03 131.961C245.143 131.726 245.276 131.487 245.468 131.305C245.674 131.106 245.933 130.984 246.199 130.884C247.394 130.434 248.616 130.046 249.821 129.629C251.043 129.205 252.262 128.784 253.484 128.361C254.706 127.937 255.924 127.516 257.146 127.092C257.432 126.993 257.717 126.893 258.003 126.794C258.089 126.764 258.229 126.734 258.295 126.668C258.361 126.602 258.302 126.536 258.252 126.456C257.943 125.976 257.541 125.529 257.176 125.088C255.708 123.316 254.075 121.684 252.305 120.21C251.873 119.852 251.435 119.501 250.99 119.163C250.851 119.057 250.778 118.882 250.874 118.719C250.944 118.6 251.116 118.531 251.252 118.577L252.096 115.954C252.096 115.954 252.076 115.937 252.063 115.931C251.883 115.802 252.043 115.517 252.239 115.633C254.121 116.736 255.861 118.11 257.442 119.61C259.032 121.121 260.473 122.786 261.742 124.572C262.05 125.006 262.349 125.446 262.635 125.896C262.927 126.357 263.139 126.877 262.88 127.403C262.688 127.794 262.293 128.059 261.908 128.241C261.37 128.496 260.795 128.682 260.237 128.894C257.87 129.791 255.513 130.719 253.119 131.553C251.94 131.964 250.751 132.348 249.546 132.683C248.958 132.845 248.364 132.997 247.769 133.133C247.683 133.153 247.49 133.163 247.424 133.226C247.388 133.262 247.401 133.342 247.401 133.391C247.411 133.729 247.461 134.074 247.494 134.408C247.55 135.037 247.61 135.667 247.666 136.293C247.69 136.548 247.746 136.826 247.656 137.078C247.554 137.369 247.298 137.502 247.006 137.531C245.963 137.644 244.678 137.574 243.958 136.707C243.635 136.319 243.479 135.842 243.572 135.342H243.576Z" fill="#B2D7ED"/>
<path d="M243.576 135.342C243.629 135.054 243.762 134.786 243.878 134.518C244.007 134.219 244.137 133.921 244.27 133.627C244.519 133.07 244.764 132.51 245.03 131.961C245.143 131.726 245.276 131.487 245.468 131.305C245.674 131.106 245.933 130.984 246.199 130.884C247.394 130.434 248.616 130.046 249.821 129.629C251.043 129.205 252.262 128.784 253.484 128.361C254.706 127.937 255.924 127.516 257.146 127.092C257.432 126.993 257.717 126.893 258.003 126.794C258.089 126.764 258.229 126.734 258.295 126.668C258.361 126.602 258.302 126.536 258.252 126.456C257.943 125.976 257.541 125.529 257.176 125.088C255.708 123.316 254.075 121.684 252.305 120.21C251.873 119.852 251.435 119.501 250.99 119.163C250.851 119.057 250.778 118.882 250.874 118.719C250.944 118.6 251.116 118.531 251.252 118.577L252.096 115.954C252.096 115.954 252.076 115.937 252.063 115.931C251.883 115.802 252.043 115.517 252.239 115.633C254.121 116.736 255.861 118.11 257.442 119.61C259.032 121.121 260.473 122.786 261.742 124.572C262.05 125.006 262.349 125.446 262.635 125.896C262.927 126.357 263.139 126.877 262.88 127.403C262.688 127.794 262.293 128.059 261.908 128.241C261.37 128.496 260.795 128.682 260.237 128.894C257.87 129.791 255.513 130.719 253.119 131.553C251.94 131.964 250.751 132.348 249.546 132.683C248.958 132.845 248.364 132.997 247.769 133.133C247.683 133.153 247.49 133.163 247.424 133.226C247.388 133.262 247.401 133.342 247.401 133.391C247.411 133.729 247.461 134.074 247.494 134.408C247.55 135.037 247.61 135.667 247.666 136.293C247.69 136.548 247.746 136.826 247.656 137.078C247.554 137.369 247.298 137.502 247.006 137.531C245.963 137.644 244.678 137.574 243.958 136.707C243.635 136.319 243.479 135.842 243.572 135.342H243.576Z" fill="url(#paint1_radial_0_1)"/>
<path d="M205.541 164.416C210.369 160.684 211.564 155.269 211.564 155.269L215.157 154.947L218.749 155.269C218.749 155.269 219.945 160.687 224.773 164.416C224.773 164.416 230.324 167.665 230.324 172.001H199.993C199.993 167.665 205.544 164.416 205.544 164.416H205.541Z" fill="#5B89B2"/>
<path d="M220.765 104.763C220.758 104.737 220.752 104.71 220.745 104.684L220.878 104.641C220.838 104.677 220.802 104.72 220.765 104.763Z" fill="#B2D7ED"/>
<path d="M197.1 89.8194C197.791 90.0115 198.435 90.2831 198.81 90.9488C199.109 91.482 199.195 92.1179 199.242 92.724C199.345 94.0223 199.222 95.3571 199.567 96.6255C199.946 98.0133 200.959 99.03 202.19 99.6461C203.681 100.391 205.345 100.467 206.978 100.391C207.792 100.355 208.602 100.282 209.412 100.249C209.283 100.345 209.18 100.481 209.137 100.689C209.08 100.964 209.13 101.272 209.143 101.547C209.157 101.858 209.17 102.173 209.186 102.484C209.243 103.75 209.299 105.018 209.359 106.283C209.389 106.922 209.416 107.565 209.445 108.208C209.472 108.807 209.522 109.41 209.489 110.009C209.436 111.013 209.08 112.003 208.091 112.344C207.712 112.477 207.294 112.566 206.992 112.858C206.58 113.255 206.553 113.811 206.676 114.345C206.955 115.537 207.397 116.686 207.822 117.829C208.253 118.988 208.685 120.151 209.117 121.31C209.532 122.423 209.917 123.555 210.442 124.615C210.906 125.556 211.491 126.526 212.357 127.126C212.799 127.43 213.327 127.616 213.855 127.427C214.237 127.291 214.512 126.97 214.698 126.609C215.123 125.771 215.077 124.741 215.1 123.83C215.163 121.366 215.08 118.889 214.692 116.458C214.599 115.868 214.476 115.269 214.489 114.669C214.496 114.388 214.526 114.1 214.615 113.831C214.629 113.792 214.682 113.586 214.715 113.573C214.748 113.556 214.911 113.649 214.941 113.662C215.914 114.109 216.754 114.818 217.806 115.07C218.709 115.285 219.712 115.123 220.35 114.371C221.037 113.56 221.077 112.318 221.156 111.301C221.249 110.105 221.273 108.89 221.186 107.694C221.173 107.529 221.156 107.363 221.143 107.197L223.275 104.594C223.311 104.584 223.345 104.578 223.381 104.568C224.593 105.422 224.6 107.595 224.171 108.913C223.763 110.172 223.119 111.341 222.793 112.626C222.505 113.768 222.568 114.878 222.92 115.987C223.262 117.077 223.806 118.084 224.175 119.164C224.52 120.177 224.62 121.24 224.663 122.31C224.696 123.128 224.683 123.992 224.739 124.844C225.065 125.185 225.45 125.44 225.928 125.612C226.685 125.884 227.505 125.946 228.302 125.887C230.092 125.758 231.818 125.102 233.422 124.337C235.032 123.568 236.523 122.621 238.014 121.651C238.987 121.018 239.97 120.399 240.989 119.842C241.49 119.568 241.999 119.316 242.507 119.058C242.759 118.928 243.034 118.756 243.317 118.71C243.792 118.634 243.934 119.207 244.11 119.528C244.319 119.915 244.582 120.28 244.871 120.614C245.04 120.81 245.272 121.065 245.555 121.075C245.847 121.084 246.122 120.859 246.335 120.687C246.753 120.346 247.135 119.952 247.507 119.558C248.274 118.75 248.971 117.872 249.665 117.001C250.349 116.143 251.063 115.318 251.777 114.484C252.189 114.003 252.604 113.527 253.029 113.06C252.986 113.735 252.926 114.411 252.846 115.093C251.013 130.785 239.8 143.109 225.446 147.143C225.981 146.246 226.263 145.212 225.925 144.166C225.712 143.513 225.237 143.053 224.636 142.778C223.909 142.443 223.102 142.248 222.342 142.006C221.618 141.778 220.884 141.486 220.134 141.364C219.446 141.248 218.796 141.387 218.291 141.907C218.082 142.122 217.876 142.404 217.574 142.473C217.232 142.553 216.857 142.404 216.531 142.314C215.754 142.106 214.951 142.036 214.15 142.102C212.763 142.215 211.232 142.745 210.392 143.977C209.675 145.03 209.535 146.421 209.861 147.637C209.914 147.832 209.977 148.021 210.05 148.2C189.626 145.431 175.099 126.847 177.497 106.336C178.685 96.1586 183.819 87.4017 191.197 81.4004C191.595 83.7254 192.286 86.0703 193.783 87.8124C194.693 88.8722 195.805 89.4684 197.117 89.8294L197.1 89.8194ZM192.598 106.926C192.624 107.697 192.86 108.472 193.049 109.214C193.262 110.046 193.494 110.874 193.74 111.695C194.212 113.268 194.686 114.858 195.251 116.398C195.749 117.756 196.459 119.107 197.661 119.915C198.648 120.578 200.53 121.058 200.979 119.472C201.164 118.822 201.038 118.143 200.922 117.498C200.769 116.64 200.617 115.782 200.464 114.921C200.318 114.09 200.198 113.242 200.006 112.42C199.82 111.635 199.471 110.96 199.016 110.307C198.897 110.135 198.77 109.969 198.648 109.801C198.412 109.175 198.143 108.559 197.831 107.966C197.489 107.317 197.117 106.674 196.675 106.091C196.26 105.545 195.729 105.028 195.068 104.836C194.477 104.664 193.82 104.71 193.305 105.091C192.734 105.512 192.571 106.24 192.595 106.922L192.598 106.926Z" fill="#B2D7ED"/>
<path d="M219.546 73.1171C239.674 75.4553 254.274 93.1082 253.016 113.043C252.591 113.51 252.176 113.987 251.764 114.467C251.053 115.302 250.336 116.126 249.652 116.984C248.958 117.859 248.264 118.733 247.494 119.541C247.122 119.932 246.74 120.326 246.322 120.67C246.109 120.846 245.837 121.068 245.542 121.058C245.259 121.048 245.03 120.796 244.858 120.598C244.569 120.266 244.31 119.899 244.097 119.511C243.921 119.187 243.778 118.617 243.304 118.693C243.018 118.74 242.742 118.912 242.493 119.041C241.985 119.299 241.474 119.551 240.976 119.826C239.957 120.382 238.974 121.002 238.001 121.634C236.51 122.608 235.019 123.552 233.409 124.32C231.805 125.085 230.075 125.741 228.289 125.87C227.492 125.93 226.672 125.867 225.915 125.595C225.437 125.423 225.052 125.168 224.726 124.827C224.67 123.976 224.683 123.115 224.65 122.293C224.607 121.224 224.507 120.16 224.162 119.147C223.793 118.067 223.249 117.06 222.907 115.971C222.558 114.861 222.491 113.752 222.78 112.609C223.106 111.321 223.747 110.152 224.158 108.896C224.587 107.581 224.58 105.409 223.368 104.551C223.332 104.561 223.298 104.568 223.262 104.578L221.13 107.181C221.143 107.346 221.163 107.512 221.173 107.678C221.26 108.873 221.236 110.089 221.143 111.284C221.064 112.301 221.024 113.543 220.337 114.354C219.699 115.106 218.696 115.269 217.793 115.053C216.741 114.802 215.897 114.093 214.928 113.646C214.894 113.632 214.735 113.54 214.702 113.556C214.669 113.573 214.616 113.775 214.602 113.815C214.513 114.083 214.483 114.371 214.476 114.653C214.463 115.255 214.586 115.852 214.679 116.441C215.067 118.872 215.147 121.349 215.087 123.813C215.064 124.728 215.114 125.754 214.685 126.592C214.499 126.957 214.227 127.275 213.842 127.41C213.314 127.599 212.789 127.417 212.344 127.109C211.478 126.509 210.893 125.539 210.429 124.598C209.904 123.535 209.515 122.406 209.104 121.293C208.672 120.134 208.24 118.971 207.809 117.812C207.384 116.67 206.942 115.52 206.663 114.328C206.54 113.795 206.564 113.238 206.979 112.841C207.281 112.549 207.699 112.457 208.078 112.328C209.067 111.986 209.422 110.993 209.476 109.993C209.509 109.393 209.459 108.79 209.432 108.191C209.403 107.552 209.376 106.909 209.346 106.267C209.29 105.001 209.233 103.733 209.173 102.468C209.16 102.156 209.147 101.842 209.13 101.531C209.117 101.256 209.071 100.944 209.124 100.673C209.167 100.464 209.266 100.328 209.399 100.232C208.586 100.265 207.776 100.338 206.965 100.375C205.332 100.448 203.668 100.375 202.177 99.6294C200.946 99.0134 199.933 98 199.554 96.6089C199.209 95.3404 199.329 94.009 199.229 92.7074C199.182 92.1013 199.096 91.4654 198.797 90.9322C198.425 90.2665 197.781 89.9949 197.087 89.8028C195.776 89.4385 194.663 88.8423 193.754 87.7858C192.256 86.0437 191.565 83.6988 191.167 81.3738C198.837 75.1341 208.928 71.8751 219.533 73.1071L219.546 73.1171ZM220.765 104.763C220.801 104.72 220.838 104.677 220.878 104.64L220.745 104.684C220.752 104.71 220.758 104.737 220.765 104.763Z" fill="#91CE92"/>
<path d="M195.072 104.84C195.733 105.032 196.264 105.552 196.679 106.095C197.121 106.674 197.492 107.32 197.834 107.969C198.147 108.562 198.415 109.175 198.651 109.804C198.774 109.973 198.9 110.139 199.02 110.311C199.475 110.963 199.823 111.639 200.009 112.424C200.205 113.245 200.321 114.093 200.467 114.924C200.62 115.782 200.773 116.64 200.926 117.501C201.042 118.147 201.165 118.826 200.982 119.475C200.531 121.062 198.651 120.585 197.665 119.919C196.46 119.108 195.749 117.756 195.254 116.402C194.69 114.862 194.215 113.275 193.744 111.699C193.498 110.877 193.266 110.049 193.053 109.218C192.864 108.476 192.631 107.704 192.601 106.929C192.578 106.247 192.741 105.518 193.312 105.098C193.827 104.72 194.484 104.671 195.075 104.843L195.072 104.84Z" fill="#91CE92"/>
<path d="M210.375 143.964C211.212 142.732 212.743 142.202 214.134 142.089C214.934 142.023 215.738 142.093 216.515 142.301C216.84 142.387 217.215 142.54 217.557 142.46C217.859 142.391 218.065 142.109 218.275 141.894C218.783 141.374 219.43 141.235 220.117 141.351C220.868 141.477 221.602 141.765 222.325 141.993C223.086 142.232 223.893 142.43 224.62 142.765C225.221 143.04 225.696 143.5 225.908 144.153C226.25 145.199 225.965 146.233 225.43 147.13C220.798 148.432 215.841 148.872 210.764 148.283C210.518 148.253 210.272 148.22 210.03 148.187C209.957 148.004 209.894 147.819 209.841 147.624C209.515 146.408 209.655 145.017 210.372 143.964H210.375Z" fill="#91CE92"/>
<path d="M221.81 95.5674C219.323 95.3377 217.497 93.0977 217.733 90.5641C217.968 88.0306 220.174 86.163 222.661 86.3927C225.148 86.6224 226.974 88.8624 226.739 91.3959C226.504 93.9294 224.297 95.7971 221.81 95.5674Z" fill="white"/>
<path d="M218.082 89.6402C217.916 92.0314 219.686 94.1014 222.033 94.2604C224.381 94.4194 226.419 92.611 226.585 90.2198C226.751 87.8285 224.982 85.7585 222.634 85.5996C220.287 85.4406 218.248 87.2489 218.082 89.6402Z" fill="#403E3D"/>
<path d="M209.586 94.749C207.099 94.5193 205.274 92.2793 205.509 89.7458C205.744 87.2123 207.951 85.3447 210.438 85.5743C212.925 85.804 214.75 88.0441 214.515 90.5776C214.28 93.1111 212.073 94.9787 209.586 94.749Z" fill="white"/>
<path d="M206.121 88.8589C205.955 91.2502 207.725 93.3202 210.073 93.4791C212.42 93.6381 214.459 91.8298 214.625 89.4385C214.791 87.0473 213.021 84.9773 210.674 84.8183C208.326 84.6593 206.287 86.4677 206.121 88.8589Z" fill="#403E3D"/>
<path d="M221.004 97.6659C221.004 97.6659 215.881 101.577 211.491 96.7617" stroke="#403E3D" stroke-width="2" stroke-linecap="round" stroke-linejoin="round"/>
</g>
<g filter="url(#filter0_d_0_1)">
<rect x="7" y="5" width="165" height="60.2937" rx="15" fill="white"/>
<path d="M154.36 75.2436C155.661 76.0249 157.324 75.1187 157.383 73.5964L158.214 51.9538C158.273 50.4031 156.629 49.3798 155.269 50.121L135.935 60.6553C134.575 61.3965 134.531 63.3394 135.857 64.1353L154.36 75.2436Z" fill="white"/>
<path d="M28.752 24.04C28.816 23.944 28.9333 23.9067 29.104 23.928C29.2747 23.9493 29.3867 24.0187 29.44 24.136C29.5147 24.2747 29.52 24.808 29.456 25.736C29.3707 26.7813 29.3173 27.848 29.296 28.936C29.2853 29.6613 29.264 30.152 29.232 30.408C29.2 30.664 29.1413 30.8133 29.056 30.856C28.9387 30.9413 28.8 30.9573 28.64 30.904C28.5333 30.8613 28.4747 30.68 28.464 30.36C28.4533 30.04 28.4693 29.1547 28.512 27.704C28.5653 26.0933 28.6027 25.1067 28.624 24.744C28.6453 24.3813 28.688 24.1467 28.752 24.04ZM23.6 24.424C24.0907 24.2853 24.6187 24.2213 25.184 24.232C25.76 24.2427 26.128 24.3227 26.288 24.472C26.3947 24.5787 26.4587 25.2613 26.48 26.52C26.512 27.768 26.48 28.44 26.384 28.536C26.32 28.6 25.712 28.7173 24.56 28.888C23.7813 28.984 23.296 29.032 23.104 29.032C22.912 29.032 22.784 28.984 22.72 28.888C22.56 28.664 22.4587 28.008 22.416 26.92C22.3733 25.8213 22.416 25.16 22.544 24.936C22.6613 24.7653 23.0133 24.5947 23.6 24.424ZM25.488 25.112C25.36 25.0693 25.264 25.048 25.2 25.048C25.1893 25.0587 25.1467 25.0693 25.072 25.08C25.008 25.0907 24.9173 25.1067 24.8 25.128C24.6827 25.1493 24.576 25.1653 24.48 25.176C23.8187 25.2827 23.4347 25.3947 23.328 25.512C23.2213 25.6293 23.168 25.9973 23.168 26.616C23.168 27.2987 23.1893 27.7093 23.232 27.848C23.2853 27.976 23.6533 28.0187 24.336 27.976C24.9973 27.944 25.3973 27.9067 25.536 27.864C25.632 27.832 25.68 27.3787 25.68 26.504C25.68 25.9707 25.664 25.6133 25.632 25.432C25.6107 25.2507 25.5627 25.144 25.488 25.112ZM32.3386 22.296C32.7013 22.2533 33.1973 22.2107 33.8266 22.168C33.9973 22.1573 34.1306 22.2373 34.2266 22.408C34.3226 22.5787 34.328 22.744 34.2426 22.904C34.2 22.9787 34.0933 23.0267 33.9226 23.048C33.752 23.0587 33.4266 23.0587 32.9466 23.048C32.168 23.016 31.6506 23.0587 31.3946 23.176C31.1386 23.2933 30.984 23.5707 30.9306 24.008C30.888 24.3813 30.8986 24.6693 30.9626 24.872C31.0266 25.0107 31.0906 25.0853 31.1546 25.096C31.2186 25.096 31.4213 25.0533 31.7626 24.968C32.2426 24.8507 32.76 24.792 33.3146 24.792C33.5813 24.792 33.7786 24.7973 33.9066 24.808C34.0453 24.8187 34.1466 24.84 34.2106 24.872C34.2746 24.904 34.3226 24.9573 34.3546 25.032C34.4933 25.2773 34.3493 25.448 33.9226 25.544C33.7093 25.5973 33.3893 25.64 32.9626 25.672C32.1626 25.7573 31.6453 25.8373 31.4106 25.912C31.24 25.9867 31.1333 26.0507 31.0906 26.104C31.048 26.1573 31.0426 26.248 31.0746 26.376C31.096 26.5253 31.128 26.616 31.1706 26.648C31.224 26.6693 31.3466 26.664 31.5386 26.632C32.7333 26.4293 33.5546 26.328 34.0026 26.328C34.4506 26.328 34.6906 26.4293 34.7226 26.632C34.7226 26.6427 34.7226 26.6533 34.7226 26.664C34.744 26.7707 34.696 26.8507 34.5786 26.904C34.408 26.968 33.5973 27.144 32.1466 27.432L32.1306 27.448H32.1146H32.0986H32.0826H32.0666L32.0506 27.464H32.0346H32.0186H32.0026H31.9866L31.9706 27.48H31.9546H31.9386H31.9226H31.9066L31.8906 27.496H31.8746C31.416 27.592 31.112 27.64 30.9626 27.64C30.824 27.64 30.7173 27.6027 30.6426 27.528C30.4293 27.3253 30.2693 26.3493 30.1626 24.6C30.1413 24.344 30.1306 24.1307 30.1306 23.96C30.1306 23.7893 30.1413 23.624 30.1626 23.464C30.184 23.2933 30.2106 23.16 30.2426 23.064C30.2746 22.968 30.3333 22.8773 30.4186 22.792C30.504 22.696 30.5946 22.6267 30.6906 22.584C30.7866 22.5413 30.92 22.4987 31.0906 22.456C31.2613 22.4133 31.4426 22.3813 31.6346 22.36C31.8266 22.3387 32.0613 22.3173 32.3386 22.296ZM35.8266 23.096C35.8693 22.9787 35.9653 22.9147 36.1146 22.904C36.264 22.8933 36.3813 22.9413 36.4666 23.048C36.52 23.1333 36.5466 23.9227 36.5466 25.416C36.5573 26.9093 36.536 27.688 36.4826 27.752C36.44 27.784 36.3066 27.7627 36.0826 27.688L35.7466 27.56V25.432C35.7466 24.024 35.7733 23.2453 35.8266 23.096ZM34.5626 28.392C34.7866 28.3707 34.9253 28.3493 34.9786 28.328C35.0213 28.3067 35.112 28.3387 35.2506 28.424C35.4 28.4987 35.5546 28.6107 35.7146 28.76C35.8746 28.8987 35.9973 29.032 36.0826 29.16C36.232 29.3627 36.328 29.5333 36.3706 29.672C36.4133 29.8107 36.4293 30.04 36.4186 30.36C36.408 30.6693 36.376 30.9093 36.3226 31.08C36.2693 31.2507 36.168 31.4373 36.0186 31.64C35.5173 32.3333 34.9253 32.6053 34.2426 32.456C33.9013 32.3813 33.5493 32.2 33.1866 31.912C32.824 31.6347 32.5733 31.336 32.4346 31.016C32.2746 30.696 32.2213 30.4027 32.2746 30.136C32.328 29.8587 32.4933 29.5653 32.7706 29.256C32.8666 29.1387 32.9573 29.0427 33.0426 28.968C33.128 28.8933 33.2186 28.8293 33.3146 28.776C33.4213 28.712 33.5333 28.6587 33.6506 28.616C33.7786 28.5627 33.912 28.52 34.0506 28.488C34.2 28.456 34.3706 28.424 34.5626 28.392ZM35.3786 29.544C35.208 29.3413 35.0426 29.224 34.8826 29.192C34.7226 29.1493 34.4933 29.1813 34.1946 29.288C33.992 29.352 33.8053 29.4427 33.6346 29.56C33.4746 29.6773 33.3466 29.8107 33.2506 29.96C33.1546 30.0987 33.1066 30.232 33.1066 30.36C33.1066 30.5627 33.2506 30.8187 33.5386 31.128C33.8266 31.4373 34.0933 31.6187 34.3386 31.672C34.5093 31.704 34.6426 31.6987 34.7386 31.656C34.8453 31.6133 34.9946 31.4907 35.1866 31.288C35.3573 31.1067 35.4693 30.9573 35.5226 30.84C35.5866 30.712 35.6186 30.5467 35.6186 30.344C35.6186 30.024 35.5386 29.7573 35.3786 29.544ZM39.189 21.176C39.2743 21.0907 39.3917 21.0427 39.541 21.032C39.6903 21.0213 39.7863 21.0587 39.829 21.144C39.8823 21.1973 39.9357 21.4907 39.989 22.024L40.069 22.808L40.837 22.696C41.4663 22.6213 41.861 22.5947 42.021 22.616C42.181 22.6373 42.3037 22.7333 42.389 22.904C42.485 23.1067 42.485 23.2667 42.389 23.384C42.3037 23.5013 42.1437 23.5333 41.909 23.48C41.7597 23.448 41.2957 23.496 40.517 23.624C39.7383 23.7413 39.0077 23.8853 38.325 24.056C37.5783 24.248 37.205 24.1573 37.205 23.784C37.205 23.6667 37.237 23.576 37.301 23.512C37.3757 23.4373 37.509 23.3627 37.701 23.288C38.0637 23.1707 38.3997 23.1227 38.709 23.144H39.189L39.125 22.232C39.061 21.624 39.0823 21.272 39.189 21.176ZM43.877 23.544C43.9197 23.4587 44.0477 23.416 44.261 23.416H44.581L44.533 24.504L44.501 25.608H45.189C45.573 25.608 45.8343 25.64 45.973 25.704C46.1223 25.7573 46.197 25.8747 46.197 26.056C46.197 26.216 46.1383 26.328 46.021 26.392C45.9037 26.4453 45.7063 26.4667 45.429 26.456C45.1197 26.4453 44.853 26.4773 44.629 26.552C44.4797 26.616 44.389 26.6853 44.357 26.76C44.3357 26.824 44.3463 26.984 44.389 27.24C44.4423 27.656 44.4423 27.944 44.389 28.104C44.357 28.2747 44.245 28.3973 44.053 28.472C43.861 28.536 43.7277 28.5093 43.653 28.392C43.5783 28.296 43.5623 27.576 43.605 26.232C43.6477 25.1973 43.685 24.52 43.717 24.2C43.749 23.8693 43.8023 23.6507 43.877 23.544ZM39.141 24.76C39.5357 24.5573 39.7917 24.456 39.909 24.456C40.037 24.4453 40.2877 24.5093 40.661 24.648C41.205 24.84 41.573 25.064 41.765 25.32C41.9677 25.5653 42.0743 25.9333 42.085 26.424C42.117 27.2347 41.6957 27.8427 40.821 28.248C40.469 28.4187 40.149 28.52 39.861 28.552C39.573 28.5733 39.2477 28.5307 38.885 28.424C38.4797 28.3173 38.1863 28.152 38.005 27.928C37.8237 27.704 37.717 27.384 37.685 26.968C37.653 26.6267 37.653 26.392 37.685 26.264C37.717 26.136 37.8343 25.9387 38.037 25.672C38.293 25.32 38.661 25.016 39.141 24.76ZM40.997 25.56C40.7303 25.3147 40.3677 25.2453 39.909 25.352C39.4503 25.4587 39.0397 25.704 38.677 26.088C38.5383 26.2267 38.453 26.344 38.421 26.44C38.3997 26.536 38.405 26.68 38.437 26.872C38.5223 27.224 38.757 27.4853 39.141 27.656C39.5357 27.8267 39.9037 27.8213 40.245 27.64C40.757 27.384 41.0877 27.048 41.237 26.632C41.397 26.2053 41.317 25.848 40.997 25.56ZM41.989 29.448C43.173 29.32 43.8663 29.32 44.069 29.448C44.1437 29.4907 44.1917 29.6187 44.213 29.832C44.2343 30.0453 44.245 30.44 44.245 31.016V32.472L43.909 32.584C43.685 32.6587 43.541 32.616 43.477 32.456C43.4237 32.3067 43.4023 31.9013 43.413 31.24C43.4237 30.568 43.397 30.2107 43.333 30.168C43.2477 30.1147 42.4583 30.232 40.965 30.52C40.741 30.5627 40.565 30.536 40.437 30.44C40.3197 30.3333 40.2877 30.2 40.341 30.04C40.405 29.88 40.549 29.7573 40.773 29.672C40.9757 29.5867 41.381 29.512 41.989 29.448ZM56.7459 23.752C56.8739 23.6987 57.0072 23.6773 57.1459 23.688C57.2845 23.688 57.3752 23.72 57.4179 23.784C57.4605 23.848 57.4339 24.4827 57.3379 25.688C57.2525 26.776 57.1779 27.8373 57.1139 28.872C57.0712 29.5867 57.0019 30.0453 56.9059 30.248C56.8205 30.44 56.6552 30.4933 56.4099 30.408C56.3032 30.3653 56.2392 30.1573 56.2179 29.784C56.2072 29.4 56.2445 28.7653 56.3299 27.88L56.4099 26.904L55.8339 26.968C55.4392 27.0213 55.0605 27.128 54.6979 27.288L54.0899 27.528V28.856C54.0792 29.3787 54.0579 29.736 54.0259 29.928C53.9939 30.1093 53.9352 30.232 53.8499 30.296C53.4552 30.5947 53.2632 30.44 53.2739 29.832C53.2952 28.7013 53.3379 27.4747 53.4019 26.152C53.4765 24.8187 53.5405 24.104 53.5939 24.008C53.6472 23.8907 53.7432 23.8213 53.8819 23.8C54.0312 23.7787 54.1752 23.816 54.3139 23.912C54.3779 23.9547 54.4099 24.0507 54.4099 24.2C54.4205 24.3493 54.3939 24.6533 54.3299 25.112C54.2232 25.8373 54.1965 26.2213 54.2499 26.264C54.2712 26.296 54.3885 26.3013 54.6019 26.28C54.8259 26.2587 55.0605 26.2267 55.3059 26.184C55.5619 26.1413 55.8019 26.0933 56.0259 26.04C56.2605 25.976 56.3992 25.928 56.4419 25.896C56.5379 25.8107 56.5859 25.4427 56.5859 24.792C56.5859 24.1413 56.6392 23.7947 56.7459 23.752ZM49.8019 24.472C50.3459 24.3653 50.6872 24.312 50.8259 24.312C50.9645 24.312 51.0819 24.3653 51.1779 24.472C51.2632 24.5787 51.2952 24.776 51.2739 25.064C51.2632 25.3413 51.1992 25.8587 51.0819 26.616C51.0712 26.7013 51.0285 26.9733 50.9539 27.432C50.8792 27.8907 50.8259 28.232 50.7939 28.456C50.7085 29.1067 50.6232 29.464 50.5379 29.528C50.4952 29.56 50.4152 29.576 50.2979 29.576C50.0632 29.576 49.9245 29.4853 49.8819 29.304C49.8499 29.1227 49.8872 28.7333 49.9939 28.136C50.2819 26.5573 50.4259 25.656 50.4259 25.432C50.4259 25.3573 50.4152 25.304 50.3939 25.272C50.3725 25.2293 50.3405 25.2133 50.2979 25.224C50.2125 25.288 49.7912 25.3787 49.0339 25.496C48.2872 25.6133 47.7859 25.672 47.5299 25.672C47.2312 25.672 47.0285 25.608 46.9219 25.48C46.7299 25.256 46.9112 25.0693 47.4659 24.92C47.6365 24.8773 47.8499 24.8347 48.1059 24.792C48.7139 24.696 49.2792 24.5893 49.8019 24.472ZM59.4805 21.48C59.9392 21.352 60.4245 21.288 60.9365 21.288C61.4592 21.2773 61.8005 21.3573 61.9605 21.528C62.1205 21.688 62.2325 22.0773 62.2965 22.696C62.3178 22.9627 62.3338 23.1547 62.3445 23.272C62.3552 23.3893 62.3498 23.5227 62.3285 23.672C62.3072 23.8107 62.2805 23.9013 62.2485 23.944C62.2165 23.976 62.1365 24.0293 62.0085 24.104C61.8912 24.168 61.7738 24.216 61.6565 24.248C61.5498 24.2693 61.3685 24.312 61.1125 24.376C60.2805 24.5893 59.7685 24.7387 59.5765 24.824C59.3952 24.9093 59.3205 25.0587 59.3525 25.272C59.3632 25.3893 59.3898 25.4747 59.4325 25.528C59.4858 25.5707 59.5605 25.5813 59.6565 25.56C60.2645 25.4853 60.8992 25.3467 61.5605 25.144C62.2112 24.952 62.5365 25.0907 62.5365 25.56C62.5365 25.6773 62.5045 25.7627 62.4405 25.816C62.3872 25.8587 62.2485 25.9013 62.0245 25.944C61.8005 25.976 61.3258 26.0933 60.6005 26.296C59.6725 26.552 59.0698 26.616 58.7925 26.488C58.5258 26.36 58.4245 25.9707 58.4885 25.32C58.5312 24.84 58.6485 24.5147 58.8405 24.344C59.0432 24.1733 59.4698 24.0133 60.1205 23.864C60.3978 23.8 60.6058 23.752 60.7445 23.72C60.8832 23.688 61.0165 23.6507 61.1445 23.608C61.2832 23.5547 61.3738 23.5173 61.4165 23.496C61.4592 23.464 61.4965 23.4107 61.5285 23.336C61.5605 23.2613 61.5712 23.1973 61.5605 23.144C61.5605 23.08 61.5498 22.984 61.5285 22.856C61.4645 22.5253 61.3952 22.3013 61.3205 22.184C61.1925 22.024 60.6272 22.0773 59.6245 22.344C59.2085 22.4613 58.8405 22.52 58.5205 22.52C58.3392 22.52 58.2165 22.504 58.1525 22.472C58.0992 22.44 58.0725 22.376 58.0725 22.28C58.0725 21.992 58.5418 21.7253 59.4805 21.48ZM60.5685 26.888C60.8245 26.5787 61.0112 26.584 61.1285 26.904C61.1818 27.064 61.2085 27.272 61.2085 27.528C61.2085 27.7307 61.2245 27.8533 61.2565 27.896C61.2992 27.928 61.4218 27.9227 61.6245 27.88C61.8378 27.8373 62.1952 27.7893 62.6965 27.736C62.9738 27.6933 63.1552 27.6827 63.2405 27.704C63.3258 27.7253 63.4005 27.7947 63.4645 27.912C63.5605 28.0827 63.5818 28.2267 63.5285 28.344C63.4858 28.4613 63.3685 28.552 63.1765 28.616C62.9952 28.6693 62.7445 28.696 62.4245 28.696C62.0938 28.696 61.5925 28.76 60.9205 28.888C59.4805 29.1547 58.7125 29.144 58.6165 28.856C58.5418 28.6747 58.6165 28.5147 58.8405 28.376C59.0752 28.2373 59.3632 28.184 59.7045 28.216L60.2805 28.248L60.3445 27.672C60.3872 27.2987 60.4618 27.0373 60.5685 26.888ZM59.6085 30.056C59.7152 29.9813 59.8538 29.9547 60.0245 29.976C60.1525 29.9973 60.2272 30.0613 60.2485 30.168C60.2698 30.264 60.2538 30.504 60.2005 30.888C60.2005 30.888 60.2005 30.8933 60.2005 30.904C60.1792 31.096 60.2165 31.2027 60.3125 31.224C60.4085 31.2453 60.7498 31.2187 61.3365 31.144C61.3898 31.144 61.4325 31.144 61.4645 31.144C61.5072 31.1333 61.5658 31.1227 61.6405 31.112C62.6965 30.984 63.3152 30.9253 63.4965 30.936C63.6885 30.936 63.8165 31.0053 63.8805 31.144C63.8805 31.1547 63.8858 31.1653 63.8965 31.176C63.9498 31.3253 63.9498 31.448 63.8965 31.544C63.8538 31.64 63.7525 31.7093 63.5925 31.752C63.4325 31.8053 63.2245 31.832 62.9685 31.832C62.5738 31.8107 61.9658 31.9013 61.1445 32.104C60.3232 32.296 59.8538 32.344 59.7365 32.248C59.5338 32.1307 59.4112 31.7627 59.3685 31.144C59.3258 30.536 59.4058 30.1733 59.6085 30.056ZM65.8324 22.056C66.035 21.928 66.2057 21.8533 66.3444 21.832C66.4937 21.8 66.723 21.7947 67.0324 21.816C67.459 21.848 67.811 21.9333 68.0884 22.072C68.3657 22.2107 68.6644 22.456 68.9844 22.808C69.4644 23.3627 69.6084 23.9973 69.4164 24.712C69.235 25.416 68.7817 25.9547 68.0564 26.328C67.3737 26.68 66.6324 26.584 65.8324 26.04C65.4377 25.7627 65.1284 25.4533 64.9044 25.112C64.691 24.7707 64.5844 24.4293 64.5844 24.088C64.5844 23.7787 64.707 23.4213 64.9524 23.016C65.2084 22.6 65.5017 22.28 65.8324 22.056ZM67.8004 22.728C67.5124 22.5893 67.331 22.5253 67.2564 22.536C66.9897 22.568 66.7124 22.664 66.4244 22.824C66.147 22.9733 65.9177 23.1653 65.7364 23.4C65.555 23.624 65.4644 23.832 65.4644 24.024C65.4644 24.4187 65.5817 24.7547 65.8164 25.032C66.051 25.3093 66.3284 25.4907 66.6484 25.576C66.9684 25.6613 67.299 25.6507 67.6404 25.544C67.9817 25.4267 68.2537 25.2027 68.4564 24.872C68.6484 24.5947 68.7444 24.3387 68.7444 24.104C68.7444 23.8587 68.6484 23.5973 68.4564 23.32C68.2644 23.0427 68.0457 22.8453 67.8004 22.728ZM68.1044 27.56C68.8084 27.464 69.283 27.432 69.5284 27.464C69.7737 27.4853 69.9337 27.5813 70.0084 27.752C70.1364 28.008 70.115 28.1787 69.9444 28.264C69.7844 28.3493 69.395 28.3973 68.7764 28.408C68.051 28.408 67.235 28.4613 66.3284 28.568C65.411 28.6747 64.9257 28.7013 64.8724 28.648C64.819 28.5947 64.8244 28.4667 64.8884 28.264C64.9844 27.88 65.5497 27.6827 66.5844 27.672C67.2564 27.6507 67.763 27.6133 68.1044 27.56ZM66.1684 29.528C66.5737 29.1227 66.7924 29.3147 66.8244 30.104C66.8564 30.584 66.9097 30.824 66.9844 30.824C67.0484 30.824 67.235 30.76 67.5444 30.632C67.8004 30.5253 68.291 30.424 69.0164 30.328C69.7417 30.2213 70.1684 30.1947 70.2964 30.248C70.4244 30.2907 70.483 30.4133 70.4724 30.616C70.4724 30.8187 70.4137 30.9467 70.2964 31C70.147 31.0533 69.8964 31.08 69.5444 31.08C69.171 31.08 68.675 31.1867 68.0564 31.4C67.7044 31.5173 67.4217 31.5973 67.2084 31.64C67.0057 31.6827 66.8244 31.704 66.6644 31.704C66.5044 31.704 66.3817 31.6507 66.2964 31.544C66.2217 31.4373 66.163 31.2987 66.1204 31.128C66.0777 30.968 66.0404 30.744 66.0084 30.456C65.987 30.168 65.987 29.9653 66.0084 29.848C66.0297 29.72 66.083 29.6133 66.1684 29.528ZM77.7964 21.08C77.9884 20.824 78.1697 20.872 78.3404 21.224C78.4684 21.48 78.5324 21.8267 78.5324 22.264V22.936L79.1244 22.84C79.5724 22.776 79.8977 22.744 80.1004 22.744C80.239 22.744 80.3617 22.7813 80.4684 22.856C80.5857 22.92 80.6604 23 80.6924 23.096C80.7244 23.192 80.7137 23.304 80.6604 23.432C80.607 23.528 80.5217 23.592 80.4044 23.624C80.2977 23.6453 80.0844 23.6507 79.7644 23.64C79.423 23.64 78.8844 23.704 78.1484 23.832C77.4124 23.96 76.8844 24.088 76.5644 24.216C76.4684 24.248 76.3617 24.2533 76.2444 24.232C76.127 24.2 76.015 24.152 75.9084 24.088C75.8124 24.0133 75.7644 23.9387 75.7644 23.864C75.7644 23.7147 75.8497 23.5973 76.0204 23.512C76.2017 23.4267 76.5004 23.3573 76.9164 23.304L77.7164 23.208L77.6844 22.232C77.6524 21.592 77.6897 21.208 77.7964 21.08ZM82.9644 23.688C83.039 23.6027 83.1297 23.56 83.2364 23.56C83.3537 23.5493 83.439 23.5867 83.4924 23.672C83.567 23.7787 83.599 24.6907 83.5884 26.408C83.5777 28.1253 83.5404 29.016 83.4764 29.08C83.3697 29.1867 83.2417 29.2133 83.0924 29.16C82.943 29.1067 82.847 28.9947 82.8044 28.824C82.751 28.6427 82.7137 28.3493 82.6924 27.944V27.4L82.2124 27.496C81.8924 27.56 81.567 27.5973 81.2364 27.608C81.087 27.608 80.975 27.6027 80.9004 27.592C80.8364 27.5813 80.7884 27.56 80.7564 27.528C80.7244 27.4853 80.703 27.4267 80.6924 27.352C80.6817 27.2347 80.7084 27.1387 80.7724 27.064C80.8364 26.9893 80.9537 26.9253 81.1244 26.872C81.3057 26.8187 81.583 26.7547 81.9564 26.68L82.8044 26.536V26.04C82.8044 25.8907 82.7937 25.784 82.7724 25.72C82.7617 25.6453 82.735 25.592 82.6924 25.56C82.6604 25.5173 82.5964 25.4853 82.5004 25.464C82.2764 25.4107 81.9777 25.4373 81.6044 25.544C81.2737 25.64 81.0337 25.6667 80.8844 25.624C80.7457 25.5707 80.6764 25.448 80.6764 25.256C80.6764 25.0213 80.7617 24.8613 80.9324 24.776C81.103 24.68 81.423 24.6213 81.8924 24.6C82.319 24.5893 82.5697 24.568 82.6444 24.536C82.719 24.504 82.767 24.3973 82.7884 24.216C82.8204 23.9707 82.879 23.7947 82.9644 23.688ZM77.6524 24.632C77.919 24.4293 78.1484 24.328 78.3404 24.328C78.5324 24.3173 78.8044 24.3973 79.1564 24.568C79.391 24.6853 79.5564 24.8027 79.6524 24.92C79.759 25.0373 79.8604 25.224 79.9564 25.48C80.127 25.9707 80.2017 26.4293 80.1804 26.856C80.159 27.272 80.047 27.6187 79.8444 27.896C79.3964 28.4827 78.8577 28.7707 78.2284 28.76C77.6097 28.7387 77.0924 28.4187 76.6764 27.8C76.3777 27.3733 76.3244 26.8453 76.5164 26.216C76.7084 25.576 77.087 25.048 77.6524 24.632ZM79.2364 25.544C79.1404 25.3307 78.9537 25.2133 78.6764 25.192C78.5057 25.1707 78.367 25.1867 78.2604 25.24C78.1537 25.2933 78.0097 25.416 77.8284 25.608C77.295 26.184 77.119 26.7067 77.3004 27.176C77.471 27.6347 77.7217 27.8907 78.0524 27.944C78.383 27.9867 78.7244 27.816 79.0764 27.432C79.279 27.208 79.4017 27.0427 79.4444 26.936C79.487 26.8293 79.4924 26.6533 79.4604 26.408C79.4177 26.0453 79.343 25.7573 79.2364 25.544ZM79.5244 29.912C79.7057 29.6987 79.919 29.6667 80.1644 29.816C80.271 29.8907 80.2924 30.184 80.2284 30.696C80.175 31.1867 80.1804 31.4373 80.2444 31.448L80.3724 31.4C80.5324 31.3467 80.831 31.2827 81.2684 31.208C81.7164 31.144 82.1164 31.1013 82.4684 31.08C82.831 31.0587 83.0604 31.064 83.1564 31.096C83.4337 31.3307 83.407 31.5333 83.0764 31.704C82.895 31.8 82.6497 31.864 82.3404 31.896C82.0737 31.928 81.5404 32.0187 80.7404 32.168C80.2924 32.2533 80.0044 32.296 79.8764 32.296C79.7484 32.296 79.6364 32.2533 79.5404 32.168C79.4124 32.0293 79.343 31.656 79.3324 31.048C79.3217 30.44 79.3857 30.0613 79.5244 29.912ZM93.0774 23.88C93.1627 23.8267 93.2907 23.8053 93.4614 23.816C93.5787 23.8373 93.648 23.88 93.6694 23.944C93.7014 24.008 93.712 24.1467 93.7014 24.36C93.6907 24.5947 93.6534 25.6293 93.5894 27.464C93.5894 27.4747 93.5894 27.4853 93.5894 27.496C93.5467 28.7867 93.504 29.5493 93.4614 29.784C93.4294 30.0187 93.3387 30.168 93.1894 30.232C92.9974 30.3173 92.8694 30.3333 92.8054 30.28C92.752 30.2267 92.6987 29.6613 92.6454 28.584L92.5974 27L92.1654 27.016C91.92 27.016 91.6374 27.0533 91.3174 27.128L90.8854 27.192L90.9334 28.472C90.944 29.048 90.9387 29.4107 90.9174 29.56C90.896 29.6987 90.832 29.7787 90.7254 29.8C90.5654 29.832 90.4 29.768 90.2294 29.608C90.2187 29.5973 90.2027 29.5813 90.1814 29.56C90.0747 29.4853 90.0214 29.32 90.0214 29.064C90.0214 28.808 90.0694 27.9653 90.1654 26.536C90.1867 26.2267 90.2027 25.9813 90.2134 25.8C90.2454 25.3093 90.2827 24.9573 90.3254 24.744C90.368 24.5307 90.4267 24.3813 90.5014 24.296C90.576 24.2107 90.688 24.168 90.8374 24.168C91.0614 24.168 91.1894 24.2427 91.2214 24.392C91.2534 24.5307 91.216 24.8453 91.1094 25.336C90.992 25.9013 90.9814 26.1893 91.0774 26.2C91.3654 26.2213 91.6747 26.216 92.0054 26.184C92.3467 26.1413 92.5494 26.088 92.6134 26.024C92.7094 25.9173 92.7894 25.5493 92.8534 24.92C92.9174 24.3013 92.992 23.9547 93.0774 23.88ZM87.4774 24.248C87.488 24.216 87.6747 24.2053 88.0374 24.216C88.2614 24.2267 88.4107 24.248 88.4854 24.28C88.56 24.312 88.6027 24.3867 88.6134 24.504C88.6667 24.8347 88.3947 25.384 87.7974 26.152C87.5094 26.504 87.3654 26.7333 87.3654 26.84C87.3654 26.9253 87.4934 27.1173 87.7494 27.416C88.016 27.704 88.256 27.9173 88.4694 28.056C88.7147 28.2267 88.816 28.5093 88.7734 28.904C88.7734 28.9573 88.7414 29 88.6774 29.032C88.6134 29.064 88.544 29.08 88.4694 29.08C88.1707 29.08 87.68 28.6533 86.9974 27.8L86.7414 27.496L86.3734 27.928C86.1067 28.2373 85.92 28.5253 85.8134 28.792C85.7174 28.9733 85.632 29.0907 85.5574 29.144C85.4827 29.1867 85.36 29.1973 85.1894 29.176C84.9227 29.1547 84.7787 29.0693 84.7574 28.92C84.7147 28.728 85.4134 27.7787 86.8534 26.072C87.0774 25.7947 87.2267 25.592 87.3014 25.464C87.376 25.3253 87.376 25.2293 87.3014 25.176C87.2267 25.112 87.0827 25.096 86.8694 25.128C86.656 25.1493 86.3254 25.208 85.8774 25.304C85.1734 25.4427 84.72 25.5067 84.5174 25.496C84.3254 25.4747 84.2294 25.368 84.2294 25.176C84.2294 24.9733 84.368 24.8187 84.6454 24.712C84.9227 24.5947 85.4134 24.4987 86.1174 24.424C86.96 24.328 87.4134 24.2693 87.4774 24.248ZM100.636 24.632C101.009 24.0667 101.281 23.784 101.452 23.784C101.836 23.784 101.847 24.0987 101.484 24.728L101.404 24.888C101.095 25.3893 100.94 25.6987 100.94 25.816C100.94 25.9333 101.26 26.344 101.9 27.048C102.689 27.9227 102.956 28.44 102.7 28.6C102.647 28.6213 102.572 28.648 102.476 28.68C102.38 28.6907 102.257 28.632 102.108 28.504C101.959 28.376 101.735 28.1253 101.436 27.752C100.913 27.1227 100.609 26.808 100.524 26.808C100.46 26.808 100.38 26.904 100.284 27.096C100.188 27.2773 100.103 27.496 100.028 27.752C99.9639 28.008 99.9319 28.2213 99.9319 28.392C99.9319 28.5413 99.9265 28.648 99.9159 28.712C99.9159 28.776 99.8999 28.8293 99.8679 28.872C99.8465 28.9147 99.8145 28.9413 99.7719 28.952C99.7292 28.952 99.6545 28.952 99.5479 28.952C99.3025 28.952 99.1319 28.8453 99.0359 28.632C98.9612 28.4933 98.9559 28.3227 99.0199 28.12C99.0839 27.9173 99.3452 27.272 99.8039 26.184C99.9959 25.7253 100.273 25.208 100.636 24.632ZM105.052 24.008C105.095 23.944 105.196 23.912 105.356 23.912C105.452 23.912 105.537 23.96 105.612 24.056C105.687 24.152 105.74 24.28 105.772 24.44C105.815 24.6 105.831 24.7707 105.82 24.952C105.799 25.2507 105.825 26.2107 105.9 27.832L105.996 30.312L105.644 30.392C105.431 30.456 105.281 30.4293 105.196 30.312C105.132 30.2053 105.089 29.688 105.068 28.76C105.057 27.8533 105.041 27.2773 105.02 27.032C104.999 26.7867 104.961 26.6427 104.908 26.6C104.855 26.5467 104.567 26.5893 104.044 26.728C102.711 27.0693 102.103 26.9467 102.22 26.36C102.241 26.232 102.359 26.1307 102.572 26.056C102.796 25.9813 103.217 25.9173 103.836 25.864C104.465 25.8 104.807 25.752 104.86 25.72C104.924 25.6667 104.956 25.384 104.956 24.872C104.956 24.3387 104.988 24.0507 105.052 24.008ZM108.608 20.744C109.365 20.5733 110.027 20.744 110.592 21.256C111.157 21.7573 111.408 22.3867 111.344 23.144C111.291 23.6773 111.04 24.1467 110.592 24.552C110.144 24.9573 109.653 25.16 109.12 25.16C108.576 25.16 108.048 24.9947 107.536 24.664C107.035 24.3333 106.741 23.9547 106.656 23.528C106.613 23.272 106.635 22.968 106.72 22.616C106.816 22.264 106.944 21.9707 107.104 21.736C107.264 21.5333 107.499 21.3307 107.808 21.128C108.117 20.9147 108.384 20.7867 108.608 20.744ZM109.92 21.656C109.685 21.4853 109.52 21.4 109.424 21.4C109.211 21.4107 108.944 21.5013 108.624 21.672C108.315 21.832 108.069 22.008 107.888 22.2C107.611 22.4987 107.472 22.7813 107.472 23.048C107.472 23.3147 107.616 23.5867 107.904 23.864C108.085 24.056 108.235 24.1787 108.352 24.232C108.48 24.2747 108.683 24.296 108.96 24.296C109.237 24.296 109.44 24.2693 109.568 24.216C109.707 24.1627 109.888 24.04 110.112 23.848C110.453 23.5387 110.624 23.256 110.624 23C110.624 22.8507 110.592 22.696 110.528 22.536C110.475 22.3653 110.395 22.2053 110.288 22.056C110.181 21.9067 110.059 21.7733 109.92 21.656ZM110.368 25.928C110.944 25.8107 111.339 25.7787 111.552 25.832C111.765 25.8747 111.872 26.0187 111.872 26.264C111.872 26.4453 111.808 26.5733 111.68 26.648C111.552 26.712 111.301 26.744 110.928 26.744C110.512 26.7653 110.251 26.8027 110.144 26.856C110.048 26.9093 110 27.1867 110 27.688V28.44H110.656C111.147 28.44 111.44 28.5147 111.536 28.664C111.643 28.8133 111.68 29.208 111.648 29.848C111.627 30.2533 111.605 30.52 111.584 30.648C111.563 30.7653 111.531 30.856 111.488 30.92C111.445 30.9733 111.355 31.0213 111.216 31.064C110.96 31.1493 110.48 31.192 109.776 31.192C109.328 31.192 109.035 31.208 108.896 31.24C108.757 31.272 108.661 31.3413 108.608 31.448C108.512 31.64 108.528 31.7733 108.656 31.848C108.795 31.9333 109.013 31.9387 109.312 31.864C109.621 31.7787 110.128 31.7147 110.832 31.672C111.291 31.6293 111.584 31.6133 111.712 31.624C111.84 31.6453 111.931 31.7147 111.984 31.832C112.027 31.9173 112.043 31.992 112.032 32.056C112.021 32.1307 111.968 32.1893 111.872 32.232C111.776 32.2853 111.643 32.328 111.472 32.36C111.301 32.4027 111.077 32.44 110.8 32.472C110.245 32.5253 109.691 32.6053 109.136 32.712C108.624 32.7973 108.357 32.84 108.336 32.84C108.24 32.84 108.128 32.7493 108 32.568C107.883 32.3973 107.792 32.1947 107.728 31.96C107.6 31.4907 107.675 31.1493 107.952 30.936C108.229 30.712 108.763 30.568 109.552 30.504C110.213 30.44 110.592 30.376 110.688 30.312C110.752 30.2587 110.789 30.088 110.8 29.8C110.811 29.5013 110.789 29.32 110.736 29.256C110.704 29.2347 110.293 29.2827 109.504 29.4C108.715 29.5067 108.208 29.592 107.984 29.656C107.856 29.688 107.739 29.672 107.632 29.608C107.536 29.5333 107.483 29.4267 107.472 29.288C107.472 29.16 107.579 29.032 107.792 28.904C108.016 28.7653 108.235 28.696 108.448 28.696C108.747 28.696 108.949 28.6587 109.056 28.584C109.088 28.5627 109.12 28.408 109.152 28.12C109.195 27.832 109.216 27.5707 109.216 27.336C109.227 27.1013 109.216 26.968 109.184 26.936C109.184 26.936 108.859 27.016 108.208 27.176C107.205 27.4 106.704 27.3253 106.704 26.952C106.704 26.8027 106.821 26.6853 107.056 26.6C107.291 26.504 107.723 26.408 108.352 26.312C108.651 26.2693 109.323 26.1413 110.368 25.928ZM121.128 24.104C121.544 23.9973 121.8 23.9653 121.896 24.008C122.045 24.0933 122.029 24.3653 121.848 24.824C121.667 25.2827 121.389 25.7627 121.016 26.264L120.696 26.68L121.128 27.128C121.437 27.416 121.693 27.5973 121.896 27.672C121.971 27.704 122.061 27.7787 122.168 27.896C122.275 28.0027 122.355 28.12 122.408 28.248C122.536 28.4613 122.6 28.6 122.6 28.664C122.6 28.728 122.547 28.8027 122.44 28.888C122.269 29.0053 122.099 29.0213 121.928 28.936C121.757 28.8507 121.443 28.584 120.984 28.136L120.2 27.368L119.88 27.752C119.688 27.9867 119.507 28.2853 119.336 28.648C119.293 28.7547 119.24 28.8507 119.176 28.936C119.112 29.0213 119.048 29.096 118.984 29.16C118.931 29.2133 118.883 29.2453 118.84 29.256C118.691 29.2987 118.547 29.2827 118.408 29.208C118.269 29.1227 118.2 29.0213 118.2 28.904C118.2 28.8293 118.531 28.3333 119.192 27.416C119.864 26.488 120.248 25.9867 120.344 25.912C120.419 25.8693 120.515 25.7253 120.632 25.48C120.749 25.2347 120.797 25.0853 120.776 25.032C120.744 24.9787 120.451 25.0053 119.896 25.112C119.352 25.208 118.947 25.304 118.68 25.4C118.424 25.496 118.131 25.544 117.8 25.544C117.608 25.544 117.48 25.528 117.416 25.496C117.352 25.464 117.32 25.3947 117.32 25.288C117.32 25.128 117.416 24.9893 117.608 24.872C117.747 24.776 118.237 24.632 119.08 24.44C119.923 24.2373 120.371 24.1573 120.424 24.2C120.456 24.2427 120.691 24.2107 121.128 24.104ZM124.296 24.072C124.36 23.9547 124.499 23.912 124.712 23.944C124.808 23.9547 124.872 23.9653 124.904 23.976C124.947 23.9867 124.979 24.0187 125 24.072C125.032 24.1147 125.043 24.1787 125.032 24.264C125.032 24.3387 125.032 24.4507 125.032 24.6C125.021 24.8133 125 25.9013 124.968 27.864C124.968 27.864 124.968 27.8693 124.968 27.88C124.947 29.1707 124.92 29.9333 124.888 30.168C124.867 30.4027 124.787 30.5467 124.648 30.6C124.52 30.6427 124.419 30.6427 124.344 30.6C124.28 30.5467 124.227 30.408 124.184 30.184C124.141 29.9493 124.12 29.592 124.12 29.112C124.131 28.632 124.136 27.992 124.136 27.192C124.168 25.208 124.221 24.168 124.296 24.072ZM132.86 22.632C132.998 22.5893 133.148 22.6107 133.308 22.696C133.414 22.7387 133.473 22.8187 133.484 22.936C133.505 23.0427 133.494 23.2933 133.452 23.688C133.388 24.3387 133.356 25.2187 133.356 26.328C133.345 27.3733 133.308 27.944 133.244 28.04C133.212 28.0827 133.148 28.1147 133.052 28.136C132.838 28.1893 132.694 28.1627 132.62 28.056C132.545 27.9493 132.508 27.6987 132.508 27.304V26.568L131.916 26.776C131.041 27.064 130.577 27.048 130.524 26.728C130.502 26.5467 130.588 26.392 130.78 26.264C130.982 26.136 131.308 26.024 131.756 25.928C132.022 25.8747 132.209 25.8267 132.316 25.784C132.422 25.7307 132.497 25.656 132.54 25.56C132.593 25.4533 132.588 25.32 132.524 25.16L132.476 24.776L131.724 24.824C131.414 24.8347 131.201 24.8293 131.084 24.808C130.977 24.7867 130.892 24.728 130.828 24.632C130.721 24.44 130.78 24.2747 131.004 24.136C131.228 23.9867 131.542 23.912 131.948 23.912C132.31 23.912 132.524 23.88 132.588 23.816C132.652 23.752 132.673 23.5227 132.652 23.128C132.652 23.0107 132.657 22.92 132.668 22.856C132.678 22.7813 132.694 22.728 132.716 22.696C132.748 22.664 132.796 22.6427 132.86 22.632ZM127.244 23.064C127.574 22.9573 127.857 22.9147 128.092 22.936C128.326 22.9467 128.577 23.016 128.844 23.144C129.174 23.336 129.425 23.5387 129.596 23.752C129.766 23.9547 129.926 24.248 130.076 24.632C130.172 24.9093 130.225 25.128 130.236 25.288C130.246 25.4373 130.22 25.6453 130.156 25.912C130.06 26.328 129.932 26.6533 129.772 26.888C129.612 27.112 129.382 27.3253 129.084 27.528C128.454 27.9227 127.75 27.9387 126.972 27.576C126.481 27.3413 126.118 26.9627 125.884 26.44C125.66 25.9067 125.617 25.368 125.756 24.824C125.83 24.4933 126.028 24.1413 126.348 23.768C126.668 23.384 126.966 23.1493 127.244 23.064ZM128.716 23.96C128.449 23.8213 128.246 23.7573 128.108 23.768C127.969 23.768 127.75 23.8427 127.452 23.992C126.726 24.3547 126.422 24.8827 126.54 25.576C126.646 26.248 126.94 26.6853 127.42 26.888C127.74 27.016 127.98 27.064 128.14 27.032C128.31 27 128.545 26.8613 128.844 26.616C129.089 26.392 129.238 26.2267 129.292 26.12C129.345 26.0027 129.372 25.7787 129.372 25.448C129.372 24.6587 129.153 24.1627 128.716 23.96ZM130.86 28.824C131.457 28.76 131.825 28.728 131.964 28.728C132.113 28.7173 132.236 28.7387 132.332 28.792C132.417 28.856 132.454 29.3893 132.444 30.392C132.444 31.3947 132.401 31.928 132.316 31.992C132.23 32.056 132.097 32.088 131.916 32.088C131.777 32.088 131.692 32.0293 131.66 31.912C131.638 31.8053 131.628 31.4427 131.628 30.824V29.592L130.988 29.656C130.572 29.6987 130.204 29.7787 129.884 29.896C129.617 30.0133 129.398 30.072 129.228 30.072C129.068 30.072 128.966 29.9867 128.924 29.816C128.881 29.6347 128.924 29.4693 129.052 29.32C129.169 29.192 129.345 29.096 129.58 29.032C129.814 28.968 130.241 28.8987 130.86 28.824ZM136.013 24.2C136.258 24.1253 136.466 24.104 136.637 24.136C136.818 24.1573 137.127 24.264 137.565 24.456C138.279 24.7547 138.642 25.3947 138.653 26.376C138.653 26.8773 138.605 27.2613 138.509 27.528C138.423 27.784 138.258 28.056 138.013 28.344C137.789 28.6 137.618 28.7547 137.501 28.808C137.394 28.8613 137.186 28.888 136.877 28.888C136.269 28.888 135.687 28.7067 135.133 28.344C134.589 27.9813 134.274 27.576 134.189 27.128C134.114 26.6907 134.13 26.312 134.237 25.992C134.343 25.672 134.573 25.336 134.925 24.984C135.095 24.8027 135.287 24.6373 135.501 24.488C135.725 24.3387 135.895 24.2427 136.013 24.2ZM137.117 25.048C136.85 24.9627 136.658 24.9307 136.541 24.952C136.423 24.9627 136.21 25.0533 135.901 25.224C135.538 25.4373 135.298 25.624 135.181 25.784C135.063 25.944 134.999 26.168 134.989 26.456C134.989 26.8187 135.122 27.1333 135.389 27.4C135.666 27.6667 136.029 27.848 136.477 27.944C136.818 28.0293 137.031 28.0667 137.117 28.056C137.202 28.0347 137.319 27.9333 137.469 27.752C137.554 27.656 137.613 27.5653 137.645 27.48C137.687 27.384 137.714 27.2667 137.725 27.128C137.746 26.9893 137.757 26.7973 137.757 26.552C137.757 26.0187 137.714 25.6613 137.629 25.48C137.554 25.288 137.383 25.144 137.117 25.048ZM143.325 24.2C143.399 24.0933 143.495 24.0453 143.613 24.056C143.73 24.056 143.837 24.1147 143.933 24.232C144.039 24.36 144.061 25.192 143.997 26.728C143.922 28.232 143.885 29.16 143.885 29.512C143.874 29.8213 143.831 30.0293 143.757 30.136C143.693 30.2427 143.554 30.3173 143.341 30.36L143.005 30.424L143.117 28.568C143.191 27.0747 143.229 26.0667 143.229 25.544C143.229 24.7547 143.261 24.3067 143.325 24.2ZM141.437 24.44C141.65 24.2373 141.847 24.248 142.029 24.472C142.125 24.5893 142.125 25.1867 142.029 26.264C141.965 27.0853 141.89 28.0027 141.805 29.016L141.725 30.136H141.357H140.973L140.989 28.648C140.989 28.6267 140.989 28.6 140.989 28.568C141.01 27.8107 140.989 27.384 140.925 27.288C140.861 27.1813 140.626 27.1867 140.221 27.304C140.189 27.3147 140.167 27.32 140.157 27.32C139.89 27.4053 139.634 27.4267 139.389 27.384C139.143 27.3413 139.021 27.2613 139.021 27.144C139.021 26.9413 139.111 26.7813 139.293 26.664C139.485 26.5467 139.794 26.4667 140.221 26.424C140.797 26.3493 141.122 26.2587 141.197 26.152C141.261 26.024 141.293 25.7307 141.293 25.272C141.293 24.8133 141.341 24.536 141.437 24.44ZM146.332 24.632C146.705 24.0667 146.977 23.784 147.148 23.784C147.532 23.784 147.543 24.0987 147.18 24.728L147.1 24.888C146.791 25.3893 146.636 25.6987 146.636 25.816C146.636 25.9333 146.956 26.344 147.596 27.048C148.385 27.9227 148.652 28.44 148.396 28.6C148.343 28.6213 148.268 28.648 148.172 28.68C148.076 28.6907 147.953 28.632 147.804 28.504C147.655 28.376 147.431 28.1253 147.132 27.752C146.609 27.1227 146.305 26.808 146.22 26.808C146.156 26.808 146.076 26.904 145.98 27.096C145.884 27.2773 145.799 27.496 145.724 27.752C145.66 28.008 145.628 28.2213 145.628 28.392C145.628 28.5413 145.623 28.648 145.612 28.712C145.612 28.776 145.596 28.8293 145.564 28.872C145.543 28.9147 145.511 28.9413 145.468 28.952C145.425 28.952 145.351 28.952 145.244 28.952C144.999 28.952 144.828 28.8453 144.732 28.632C144.657 28.4933 144.652 28.3227 144.716 28.12C144.78 27.9173 145.041 27.272 145.5 26.184C145.692 25.7253 145.969 25.208 146.332 24.632ZM150.748 24.008C150.791 23.944 150.892 23.912 151.052 23.912C151.148 23.912 151.233 23.96 151.308 24.056C151.383 24.152 151.436 24.28 151.468 24.44C151.511 24.6 151.527 24.7707 151.516 24.952C151.495 25.2507 151.521 26.2107 151.596 27.832L151.692 30.312L151.34 30.392C151.127 30.456 150.977 30.4293 150.892 30.312C150.828 30.2053 150.785 29.688 150.764 28.76C150.753 27.8533 150.737 27.2773 150.716 27.032C150.695 26.7867 150.657 26.6427 150.604 26.6C150.551 26.5467 150.263 26.5893 149.74 26.728C148.407 27.0693 147.799 26.9467 147.916 26.36C147.937 26.232 148.055 26.1307 148.268 26.056C148.492 25.9813 148.913 25.9173 149.532 25.864C150.161 25.8 150.503 25.752 150.556 25.72C150.62 25.6667 150.652 25.384 150.652 24.872C150.652 24.3387 150.684 24.0507 150.748 24.008ZM159.248 22.584C159.323 22.4773 159.44 22.4507 159.6 22.504C159.771 22.5467 159.878 22.632 159.92 22.76C159.963 22.888 159.947 23.128 159.872 23.48C159.787 23.8427 159.744 24.2267 159.744 24.632C159.744 24.952 159.76 25.1387 159.792 25.192C159.824 25.2453 159.926 25.2613 160.096 25.24C160.32 25.208 160.502 25.1653 160.64 25.112C160.8 25.0587 160.95 25.0533 161.088 25.096C161.238 25.128 161.35 25.208 161.424 25.336C161.499 25.4533 161.51 25.5813 161.456 25.72C161.403 25.848 161.227 25.912 160.928 25.912C160.64 25.912 160.331 26.0027 160 26.184L159.488 26.44L159.456 27.464C159.446 27.72 159.435 27.912 159.424 28.04C159.414 28.1573 159.392 28.264 159.36 28.36C159.339 28.4453 159.307 28.504 159.264 28.536C159.232 28.568 159.179 28.6053 159.104 28.648C158.838 28.7867 158.678 28.7547 158.624 28.552C158.56 28.328 158.608 27.5173 158.768 26.12C158.907 24.8933 158.998 24.0347 159.04 23.544C159.104 22.9893 159.174 22.6693 159.248 22.584ZM153.888 22.92C154.379 22.76 154.944 22.6747 155.584 22.664C156.235 22.6427 156.587 22.7067 156.64 22.856C156.694 23.0053 156.72 23.6667 156.72 24.84C156.72 25.5547 156.699 26.0667 156.656 26.376C156.614 26.6853 156.539 26.8987 156.432 27.016C156.336 27.1227 156.166 27.176 155.92 27.176C155.515 27.176 154.96 27.1973 154.256 27.24C153.414 27.2933 152.923 27.2667 152.784 27.16C152.656 27.0533 152.544 26.664 152.448 25.992C152.352 25.3093 152.32 24.6587 152.352 24.04C152.363 23.6453 152.384 23.4107 152.416 23.336C152.459 23.2613 152.571 23.2133 152.752 23.192C152.998 23.1707 153.376 23.08 153.888 22.92ZM155.888 24.072C155.942 23.816 155.952 23.6667 155.92 23.624C155.899 23.5707 155.803 23.5493 155.632 23.56C155.238 23.5707 154.64 23.672 153.84 23.864L153.056 24.072L153.152 25.16C153.206 25.896 153.28 26.2907 153.376 26.344C153.472 26.4187 153.814 26.424 154.4 26.36C154.72 26.3387 155.094 26.3067 155.52 26.264C155.627 26.2533 155.691 26.2 155.712 26.104C155.744 25.9973 155.766 25.768 155.776 25.416C155.787 24.872 155.824 24.424 155.888 24.072ZM155.216 29.144C155.387 28.9307 155.59 28.904 155.824 29.064C155.942 29.1387 155.968 29.336 155.904 29.656C155.734 30.488 155.728 30.9307 155.888 30.984C155.974 31.0267 156.31 30.9947 156.896 30.888C157.547 30.7707 158.118 30.7013 158.608 30.68L159.408 30.632V31.016C159.408 31.1973 159.371 31.3093 159.296 31.352C159.232 31.3947 159.003 31.4427 158.608 31.496C158.054 31.5493 157.616 31.624 157.296 31.72C156.976 31.8053 156.55 31.8587 156.016 31.88C155.494 31.9013 155.195 31.8747 155.12 31.8C155.046 31.7147 155.019 31.2773 155.04 30.488C155.072 29.688 155.131 29.24 155.216 29.144ZM24.064 44.632C24.4373 44.0667 24.7093 43.784 24.88 43.784C25.264 43.784 25.2747 44.0987 24.912 44.728L24.832 44.888C24.5227 45.3893 24.368 45.6987 24.368 45.816C24.368 45.9333 24.688 46.344 25.328 47.048C26.1173 47.9227 26.384 48.44 26.128 48.6C26.0747 48.6213 26 48.648 25.904 48.68C25.808 48.6907 25.6853 48.632 25.536 48.504C25.3867 48.376 25.1627 48.1253 24.864 47.752C24.3413 47.1227 24.0373 46.808 23.952 46.808C23.888 46.808 23.808 46.904 23.712 47.096C23.616 47.2773 23.5307 47.496 23.456 47.752C23.392 48.008 23.36 48.2213 23.36 48.392C23.36 48.5413 23.3547 48.648 23.344 48.712C23.344 48.776 23.328 48.8293 23.296 48.872C23.2747 48.9147 23.2427 48.9413 23.2 48.952C23.1573 48.952 23.0827 48.952 22.976 48.952C22.7307 48.952 22.56 48.8453 22.464 48.632C22.3893 48.4933 22.384 48.3227 22.448 48.12C22.512 47.9173 22.7733 47.272 23.232 46.184C23.424 45.7253 23.7013 45.208 24.064 44.632ZM28.48 44.008C28.5227 43.944 28.624 43.912 28.784 43.912C28.88 43.912 28.9653 43.96 29.04 44.056C29.1147 44.152 29.168 44.28 29.2 44.44C29.2427 44.6 29.2587 44.7707 29.248 44.952C29.2267 45.2507 29.2533 46.2107 29.328 47.832L29.424 50.312L29.072 50.392C28.8587 50.456 28.7093 50.4293 28.624 50.312C28.56 50.2053 28.5173 49.688 28.496 48.76C28.4853 47.8533 28.4693 47.2773 28.448 47.032C28.4267 46.7867 28.3893 46.6427 28.336 46.6C28.2827 46.5467 27.9947 46.5893 27.472 46.728C26.1387 47.0693 25.5307 46.9467 25.648 46.36C25.6693 46.232 25.7867 46.1307 26 46.056C26.224 45.9813 26.6453 45.9173 27.264 45.864C27.8933 45.8 28.2347 45.752 28.288 45.72C28.352 45.6667 28.384 45.384 28.384 44.872C28.384 44.3387 28.416 44.0507 28.48 44.008ZM33.4601 43.656C33.5668 43.5813 33.6521 43.5493 33.7161 43.56C33.7801 43.56 33.8708 43.6027 33.9881 43.688C34.0628 43.7627 34.1055 43.9547 34.1161 44.264C34.1375 44.5733 34.1321 45.2613 34.1001 46.328C34.0468 47.9813 33.9721 48.856 33.8761 48.952C33.7588 49.0587 33.2255 49.1653 32.2761 49.272C31.3268 49.368 30.8041 49.3787 30.7081 49.304C30.5801 49.1973 30.4735 48.936 30.3881 48.52C30.3135 48.0933 30.2388 47.3733 30.1641 46.36C30.0788 45.3893 30.0468 44.76 30.0681 44.472C30.1001 44.184 30.2068 44.0133 30.3881 43.96C30.5481 43.896 30.6761 43.976 30.7721 44.2C30.8681 44.424 30.9161 44.7547 30.9161 45.192C30.9161 45.6187 30.9321 45.8693 30.9641 45.944C30.9961 46.0187 31.1028 46.0507 31.2841 46.04C31.4548 46.04 31.8548 45.9867 32.4841 45.88L33.3481 45.736L33.3321 44.744C33.3001 44.0827 33.3428 43.72 33.4601 43.656ZM33.3641 46.744L32.9321 46.728C32.6441 46.7067 32.3775 46.7333 32.1321 46.808C31.6948 46.9147 31.4548 46.9733 31.4121 46.984C31.2521 47.016 31.1508 47.0693 31.1081 47.144C31.0655 47.208 31.0441 47.3627 31.0441 47.608C31.0441 47.992 31.1188 48.2267 31.2681 48.312C31.4175 48.3973 31.7481 48.4027 32.2601 48.328C32.8148 48.2533 33.1295 48.1733 33.2041 48.088C33.2681 48.024 33.3108 47.784 33.3321 47.368L33.3641 46.744ZM36.2601 44.024C36.4735 43.8747 36.6708 43.896 36.8521 44.088C36.9481 44.216 36.9588 45.3627 36.8841 47.528L36.7881 50.76L36.4841 50.792C36.2601 50.824 36.1215 50.7867 36.0681 50.68C35.9828 50.552 35.9721 49.4267 36.0361 47.304C36.1001 45.1707 36.1748 44.0773 36.2601 44.024ZM40.1724 42.744C40.343 42.5627 40.4817 42.456 40.5884 42.424C40.7057 42.392 40.8177 42.4347 40.9244 42.552C41.0097 42.6373 41.015 42.7653 40.9404 42.936C40.8764 43.096 40.7697 43.224 40.6204 43.32C40.4817 43.416 40.439 43.5333 40.4924 43.672C40.5564 43.8107 40.7324 44.0027 41.0204 44.248C41.831 44.9307 42.3377 45.3787 42.5404 45.592C42.743 45.7947 42.8337 45.9653 42.8124 46.104C42.759 46.4773 42.4604 46.4667 41.9164 46.072L41.1964 45.48C40.4817 44.8507 40.0604 44.536 39.9324 44.536C39.8044 44.536 39.559 44.9147 39.1964 45.672C38.951 46.1733 38.775 46.488 38.6684 46.616C38.5617 46.7333 38.4284 46.7973 38.2684 46.808C37.9377 46.808 37.8044 46.6693 37.8684 46.392C37.943 46.0507 38.3537 45.336 39.1004 44.248C39.655 43.4373 40.0124 42.936 40.1724 42.744ZM41.5964 49.192C42.4284 49.1173 42.9244 49.0907 43.0844 49.112C43.2444 49.1227 43.3457 49.1973 43.3884 49.336C43.431 49.5067 43.431 49.6507 43.3884 49.768C43.335 49.8853 43.1857 49.9707 42.9404 50.024C42.7057 50.0667 42.5137 50.0453 42.3644 49.96C42.215 49.8747 42.119 49.848 42.0764 49.88C42.0337 49.9227 41.4417 49.9867 40.3004 50.072C39.2124 50.1573 38.519 50.2373 38.2204 50.312C37.9857 50.376 37.8204 50.392 37.7244 50.36C37.6284 50.328 37.575 50.232 37.5644 50.072C37.5537 49.9013 37.5964 49.7307 37.6924 49.56C37.735 49.4853 37.7937 49.432 37.8684 49.4C37.9537 49.368 38.087 49.3467 38.2684 49.336C38.4604 49.3253 38.7857 49.3147 39.2444 49.304C40.183 49.2933 40.967 49.256 41.5964 49.192ZM51.9455 41.944C51.9988 41.9013 52.1108 41.8907 52.2815 41.912C52.4522 41.9227 52.6068 41.96 52.7455 42.024C52.8948 42.1093 52.9642 42.216 52.9535 42.344C52.9535 42.4613 52.8522 42.6533 52.6495 42.92C52.4468 43.2293 52.3455 43.4373 52.3455 43.544C52.3455 43.5653 52.3722 43.608 52.4255 43.672C52.4895 43.7253 52.5748 43.7947 52.6815 43.88C52.7988 43.9547 52.9215 44.0293 53.0495 44.104C53.6255 44.4773 53.8495 44.776 53.7215 45C53.6788 45.0533 53.6255 45.0907 53.5615 45.112C53.4655 45.144 53.2255 45.0693 52.8415 44.888C52.4682 44.696 52.1695 44.5093 51.9455 44.328C51.8708 44.264 51.8015 44.2373 51.7375 44.248C51.6735 44.2587 51.5722 44.3227 51.4335 44.44C51.2308 44.632 51.0068 44.8933 50.7615 45.224C50.4948 45.608 50.2922 45.832 50.1535 45.896C50.0148 45.9493 49.8442 45.896 49.6415 45.736C49.4922 45.64 49.4655 45.5173 49.5615 45.368C49.6575 45.2187 50.0202 44.7973 50.6495 44.104C51.3428 43.3253 51.6788 42.8987 51.6575 42.824C51.6362 42.7813 51.5242 42.7867 51.3215 42.84C51.0975 42.8827 50.8308 42.9253 50.5215 42.968C50.3722 42.9787 50.0042 43.0213 49.4175 43.096L48.6975 43.192V42.856C48.6975 42.6427 48.8095 42.4933 49.0335 42.408C49.2575 42.3227 49.7802 42.2373 50.6015 42.152C51.4762 42.056 51.9242 41.9867 51.9455 41.944ZM53.0975 46.264C53.3962 46.1787 53.6468 46.1413 53.8495 46.152C54.0628 46.152 54.2015 46.2053 54.2655 46.312C54.3295 46.4187 54.3242 46.5627 54.2495 46.744C54.1535 46.9573 53.9828 47.064 53.7375 47.064C53.4815 47.064 53.2522 47.1013 53.0495 47.176C52.9002 47.24 52.8095 47.32 52.7775 47.416C52.7455 47.512 52.7295 47.7573 52.7295 48.152V49.016L53.3855 49.176C53.7802 49.2613 54.0948 49.4 54.3295 49.592C54.4682 49.7307 54.5482 49.8587 54.5695 49.976C54.6015 50.0827 54.6015 50.3013 54.5695 50.632C54.5482 50.8773 54.5215 51.0587 54.4895 51.176C54.4575 51.2933 54.4042 51.4 54.3295 51.496C54.2655 51.592 54.1535 51.7147 53.9935 51.864C53.8655 51.992 53.7482 52.088 53.6415 52.152C53.5455 52.216 53.4495 52.264 53.3535 52.296C53.2575 52.3387 53.1455 52.36 53.0175 52.36C51.4922 52.4133 50.7242 51.8907 50.7135 50.792C50.7135 50.536 50.7348 50.3493 50.7775 50.232C50.8308 50.104 50.9482 49.9493 51.1295 49.768C51.3855 49.5013 51.6148 49.3307 51.8175 49.256C51.9348 49.224 52.0042 49.1867 52.0255 49.144C52.0575 49.0907 52.0575 49.0107 52.0255 48.904C51.9508 48.68 51.9028 48.3867 51.8815 48.024C51.8495 47.7467 51.8122 47.5813 51.7695 47.528C51.7375 47.464 51.6628 47.4427 51.5455 47.464C51.3962 47.5067 50.9802 47.5813 50.2975 47.688C49.8495 47.7627 49.5615 47.7947 49.4335 47.784C49.3055 47.7733 49.1935 47.7253 49.0975 47.64C49.0015 47.544 48.9535 47.4747 48.9535 47.432C48.9642 47.3787 49.0282 47.2933 49.1455 47.176C49.2415 47.08 49.3908 47.0053 49.5935 46.952C49.7962 46.8987 50.1268 46.8453 50.5855 46.792C51.1722 46.7387 51.5988 46.6853 51.8655 46.632C52.1428 46.568 52.5535 46.4453 53.0975 46.264ZM53.6415 50.168C53.4815 50.04 53.3482 49.9653 53.2415 49.944C53.1348 49.912 52.9108 49.9067 52.5695 49.928C52.1002 49.96 51.7748 50.12 51.5935 50.408C51.4228 50.696 51.4815 50.984 51.7695 51.272C51.9188 51.432 52.0468 51.5227 52.1535 51.544C52.2602 51.576 52.4362 51.5813 52.6815 51.56C53.1508 51.5067 53.4922 51.32 53.7055 51C53.9295 50.6907 53.9082 50.4133 53.6415 50.168ZM56.8726 42.584C57.2566 42.4773 57.5233 42.424 57.6726 42.424C57.8326 42.4133 58.0246 42.4507 58.2486 42.536C58.654 42.6853 59.0326 43.0267 59.3846 43.56C59.7473 44.0827 59.9286 44.568 59.9286 45.016C59.9286 45.4747 59.806 45.896 59.5606 46.28C59.3153 46.6533 58.9953 46.9147 58.6006 47.064C58.1846 47.2133 57.7046 47.2453 57.1606 47.16C56.6273 47.064 56.238 46.8827 55.9926 46.616C55.822 46.4133 55.6513 46.104 55.4806 45.688C55.3206 45.2613 55.2406 44.9253 55.2406 44.68C55.2513 44.168 55.4006 43.7253 55.6886 43.352C55.9766 42.968 56.3713 42.712 56.8726 42.584ZM58.5046 43.56C58.2273 43.3253 57.9073 43.2347 57.5446 43.288C57.1926 43.3307 56.8406 43.5173 56.4886 43.848C56.35 43.9653 56.254 44.0827 56.2006 44.2C56.158 44.3173 56.1366 44.4987 56.1366 44.744C56.1366 45.2453 56.2806 45.6507 56.5686 45.96C56.8566 46.2693 57.2086 46.4187 57.6246 46.408C58.0406 46.3867 58.4353 46.1947 58.8086 45.832C59.0433 45.608 59.1606 45.368 59.1606 45.112C59.1606 44.8987 59.086 44.6213 58.9366 44.28C58.7873 43.928 58.6433 43.688 58.5046 43.56ZM61.4006 42.92C61.486 42.7707 61.5873 42.6853 61.7046 42.664C61.8326 42.632 61.934 42.68 62.0086 42.808C62.0833 42.904 62.1206 43.784 62.1206 45.448C62.1206 46.5893 62.11 47.288 62.0886 47.544C62.0673 47.8 62.0086 47.928 61.9126 47.928C61.7526 47.928 61.6033 47.8267 61.4646 47.624C61.3366 47.4213 61.262 46.6427 61.2406 45.288C61.2193 43.9333 61.2726 43.144 61.4006 42.92ZM60.8406 47.912C60.9366 47.848 61.0113 47.8213 61.0646 47.832C61.118 47.832 61.2086 47.8747 61.3366 47.96C61.4326 48.0347 61.486 48.1787 61.4966 48.392C61.518 48.6053 61.5073 49.1227 61.4646 49.944C61.422 50.6373 61.3793 51.1173 61.3366 51.384C61.3046 51.6613 61.2513 51.816 61.1766 51.848C61.038 51.9227 60.5206 52.0027 59.6246 52.088C59.0273 52.152 58.638 52.1787 58.4566 52.168C58.2753 52.168 58.1473 52.1307 58.0726 52.056C57.806 51.7893 57.6673 51.064 57.6566 49.88C57.6566 49.336 57.6993 48.952 57.7846 48.728C57.8806 48.504 58.03 48.4133 58.2326 48.456C58.3286 48.4773 58.3926 48.5307 58.4246 48.616C58.4566 48.6907 58.4673 48.8347 58.4566 49.048C58.4566 49.4 58.478 49.576 58.5206 49.576C58.542 49.5653 58.926 49.5067 59.6726 49.4L60.7286 49.256L60.7126 48.616C60.6806 48.2107 60.7233 47.976 60.8406 47.912ZM60.5846 50.632C60.5953 50.5147 60.59 50.4347 60.5686 50.392C60.558 50.3387 60.526 50.3013 60.4726 50.28C60.43 50.2587 60.35 50.248 60.2326 50.248C60.0086 50.2373 59.662 50.2693 59.1926 50.344C58.9153 50.408 58.734 50.4667 58.6486 50.52C58.574 50.5627 58.5366 50.6373 58.5366 50.744C58.5366 51 58.5953 51.1493 58.7126 51.192C58.8406 51.2453 59.134 51.2453 59.5926 51.192C60.1793 51.1067 60.4833 51.048 60.5046 51.016C60.5473 50.984 60.574 50.856 60.5846 50.632ZM68.9601 43.512C69.0348 43.448 69.1575 43.4267 69.3281 43.448C69.4028 43.4587 69.4508 43.4747 69.4721 43.496C69.5041 43.5173 69.5308 43.5813 69.5521 43.688C69.5841 43.7947 69.6001 43.9333 69.6001 44.104C69.6108 44.264 69.6215 44.5147 69.6321 44.856C69.6535 45.848 69.6321 47.0587 69.5681 48.488L69.4721 50.76H69.0881H68.7041L68.7201 49.768C68.7201 48.072 68.7415 46.616 68.7841 45.4C68.8375 44.184 68.8961 43.5547 68.9601 43.512ZM62.9441 43.896C63.0615 43.768 63.1468 43.6987 63.2001 43.688C63.2535 43.6667 63.3388 43.6933 63.4561 43.768C63.5521 43.832 63.6108 44.5093 63.6321 45.8L63.6801 47.752H65.0081C65.8935 47.752 66.4908 47.7253 66.8001 47.672C67.0668 47.6187 67.2535 47.64 67.3601 47.736C67.4775 47.8213 67.5201 47.992 67.4881 48.248L67.4561 48.584L65.2961 48.616C63.8561 48.6587 63.0881 48.6267 62.9921 48.52C62.9068 48.392 62.8428 47.6347 62.8001 46.248C62.7681 45.3093 62.7575 44.712 62.7681 44.456C62.7895 44.1893 62.8481 44.0027 62.9441 43.896ZM77.0164 43.656C77.0484 43.592 77.1177 43.5547 77.2244 43.544C77.3417 43.5333 77.4697 43.56 77.6084 43.624C77.6937 43.656 77.747 43.768 77.7684 43.96C77.8004 44.152 77.8164 44.552 77.8164 45.16C77.8164 46.152 77.8377 46.664 77.8804 46.696C77.9017 46.728 78.2857 46.7173 79.0324 46.664C79.715 46.5893 80.163 46.5733 80.3764 46.616C80.6004 46.6587 80.7124 46.7813 80.7124 46.984C80.7124 47.0267 80.707 47.064 80.6964 47.096C80.6964 47.128 80.6804 47.16 80.6484 47.192C80.627 47.224 80.6004 47.2507 80.5684 47.272C80.547 47.2933 80.5044 47.3147 80.4404 47.336C80.3764 47.3573 80.307 47.3733 80.2324 47.384C80.1577 47.3947 80.0564 47.4107 79.9284 47.432C79.811 47.4427 79.683 47.4533 79.5444 47.464C79.4164 47.4747 79.2457 47.4907 79.0324 47.512C78.2964 47.5653 77.8964 47.64 77.8324 47.736C77.7897 47.8107 77.7577 48.2693 77.7364 49.112C77.7257 49.9333 77.7044 50.3547 77.6724 50.376C77.6617 50.3973 77.5604 50.44 77.3684 50.504C77.1444 50.568 77.0057 50.504 76.9524 50.312C76.8884 50.0773 76.8884 49.304 76.9524 47.992C77.0377 46.5093 77.059 45.432 77.0164 44.76C76.9524 44.0987 76.9524 43.7307 77.0164 43.656ZM72.4724 44.104C73.187 43.9867 73.6937 43.9333 73.9924 43.944C74.291 43.944 74.4617 44.0027 74.5044 44.12C74.579 44.312 74.547 44.4613 74.4084 44.568C74.2804 44.6747 74.0457 44.7333 73.7044 44.744C72.7337 44.7547 71.987 44.8773 71.4644 45.112L71.0644 45.256L71.1124 46.44C71.1337 46.76 71.1444 46.9947 71.1444 47.144C71.155 47.2933 71.1764 47.448 71.2084 47.608C71.2404 47.768 71.2724 47.8747 71.3044 47.928C71.3364 47.9707 71.395 48.024 71.4804 48.088C71.5764 48.1413 71.6617 48.1733 71.7364 48.184C71.8217 48.1947 71.9497 48.2053 72.1204 48.216C72.6004 48.2587 73.091 48.2533 73.5924 48.2C74.3924 48.0827 74.7924 48.1947 74.7924 48.536C74.7924 48.664 74.771 48.76 74.7284 48.824C74.6964 48.888 74.595 48.9413 74.4244 48.984C74.2644 49.0267 74.051 49.0533 73.7844 49.064C73.5284 49.0747 73.1444 49.08 72.6324 49.08C72.5364 49.08 72.403 49.08 72.2324 49.08C71.9764 49.08 71.795 49.08 71.6884 49.08C71.5817 49.08 71.443 49.0693 71.2724 49.048C71.1124 49.0267 71.011 49.016 70.9684 49.016C70.9257 49.0053 70.8617 48.968 70.7764 48.904C70.691 48.8293 70.6377 48.7707 70.6164 48.728C70.6057 48.6747 70.579 48.5787 70.5364 48.44C70.5044 48.3013 70.483 48.184 70.4724 48.088C70.4724 47.9813 70.4564 47.816 70.4244 47.592C70.4137 47.432 70.403 47.304 70.3924 47.208C70.2964 46.2373 70.2537 45.576 70.2644 45.224C70.275 44.872 70.3444 44.664 70.4724 44.6C70.931 44.4187 71.5977 44.2533 72.4724 44.104ZM81.6904 49.784C81.8504 49.7093 81.9837 49.6827 82.0904 49.704C82.2077 49.7147 82.3357 49.784 82.4744 49.912C82.5917 50.008 82.6664 50.088 82.6984 50.152C82.7304 50.2053 82.7464 50.2907 82.7464 50.408C82.7464 50.9307 82.4797 51.192 81.9464 51.192C81.8717 51.192 81.8077 51.1867 81.7544 51.176C81.7117 51.1653 81.6744 51.144 81.6424 51.112C81.6104 51.0907 81.5677 51.0533 81.5144 51C81.4077 50.872 81.3544 50.6853 81.3544 50.44C81.3544 50.248 81.3757 50.1093 81.4184 50.024C81.461 49.9387 81.5517 49.8587 81.6904 49.784Z" fill="#999999"/>
</g>
<defs>
<filter id="filter0_d_0_1" x="0" y="0" width="179" height="84.5293" filterUnits="userSpaceOnUse" color-interpolation-filters="sRGB">
<feFlood flood-opacity="0" result="BackgroundImageFix"/>
<feColorMatrix in="SourceAlpha" type="matrix" values="0 0 0 0 0 0 0 0 0 0 0 0 0 0 0 0 0 0 127 0" result="hardAlpha"/>
<feOffset dy="2"/>
<feGaussianBlur stdDeviation="3.5"/>
<feComposite in2="hardAlpha" operator="out"/>
<feColorMatrix type="matrix" values="0 0 0 0 0.475 0 0 0 0 0.475 0 0 0 0 0.475 0 0 0 0.1 0"/>
<feBlend mode="normal" in2="BackgroundImageFix" result="effect1_dropShadow_0_1"/>
<feBlend mode="normal" in="SourceGraphic" in2="effect1_dropShadow_0_1" result="shape"/>
</filter>
<radialGradient id="paint0_radial_0_1" cx="0" cy="0" r="1" gradientUnits="userSpaceOnUse" gradientTransform="translate(178.058 98.3252) rotate(180) scale(11.2594 11.2309)">
<stop stop-color="#75AAD6" stop-opacity="0.9"/>
<stop offset="1" stop-color="#75AAD6" stop-opacity="0"/>
</radialGradient>
<radialGradient id="paint1_radial_0_1" cx="0" cy="0" r="1" gradientUnits="userSpaceOnUse" gradientTransform="translate(251.249 115.123) rotate(180) scale(10.6584 10.6314)">
<stop stop-color="#75AAD6" stop-opacity="0.9"/>
<stop offset="1" stop-color="#75AAD6" stop-opacity="0"/>
</radialGradient>
<clipPath id="clip0_0_1">
<rect width="94" height="107" fill="white" transform="matrix(-1 0 0 1 263 65)"/>
</clipPath>
</defs>
</svg>
