<svg width="103" height="112" viewBox="0 0 103 112" fill="none" xmlns="http://www.w3.org/2000/svg">
<path d="M37.2688 2.78711L39.769 111.275H47.8046V2.78711H37.2688Z" fill="#FFCF6E"/>
<path d="M102.44 22.1755L77.1245 0.00390625V9.39173L0 10.3962V34.9811H77.1245V44.3472L102.44 22.1755Z" fill="#89BDC9"/>
<path d="M1.90454 58.9827L20.6193 75.3711V68.4314L77.6333 67.6922V49.5166H20.6193V42.5898L1.90454 58.9827Z" fill="#FC8230"/>
<path d="M39.6081 18.5702C39.6211 21.2966 37.4644 23.5142 34.7989 23.5229C32.1335 23.5315 29.955 21.3313 29.9463 18.605C29.9376 15.8787 32.09 13.6611 34.7555 13.6524C37.4253 13.6437 39.5994 15.8439 39.6081 18.5702Z" fill="white"/>
<path d="M40.0647 18.4009C40.0777 20.9707 38.0471 23.0578 35.5295 23.0665C33.0162 23.0752 30.9682 21.0011 30.9551 18.4313C30.9421 15.8615 32.9727 13.7743 35.4903 13.7657C38.0036 13.757 40.0516 15.8311 40.0647 18.4009Z" fill="#403E3D"/>
<path d="M54.04 18.4569C54.053 21.1833 51.8963 23.4009 49.2308 23.4096C46.5654 23.4183 44.3869 21.2181 44.3782 18.4917C44.3695 15.7654 46.5219 13.5478 49.1873 13.5391C51.8572 13.5304 54.0313 15.7306 54.04 18.4569Z" fill="white"/>
<path d="M54.5095 18.4399C54.5225 21.0097 52.4919 23.0969 49.9743 23.1056C47.461 23.1143 45.413 21.0402 45.4 18.4704C45.3869 15.9006 47.4175 13.8134 49.9352 13.8047C52.4484 13.796 54.4965 15.8701 54.5095 18.4399Z" fill="#403E3D"/>
<path d="M37.6602 26.4453C37.6602 26.4453 41.5866 28.8977 46.2001 26.741" stroke="#403E3D" stroke-width="2" stroke-linecap="round" stroke-linejoin="round"/>
<path d="M37.9079 25.4785L37.1252 27.3743" stroke="#403E3D" stroke-width="2" stroke-linecap="round" stroke-linejoin="round"/>
<path d="M42.8606 56.3743C42.8693 58.5963 41.1169 60.4008 38.9428 60.4095C36.7687 60.4182 34.999 58.6224 34.9859 56.4004C34.9729 54.1785 36.7296 52.374 38.9037 52.3653C41.0778 52.3566 42.8475 54.1524 42.8606 56.3743Z" fill="white"/>
<path d="M42.0778 56.0868C42.0865 58.1783 40.4342 59.8828 38.3861 59.8871C36.3381 59.8958 34.6684 58.2044 34.6597 56.1129C34.651 54.0214 36.3033 52.3169 38.3514 52.3125C40.3994 52.3038 42.0691 53.9953 42.0778 56.0868Z" fill="#403E3D"/>
<path d="M54.6181 56.2825C54.6268 58.5045 52.8744 60.309 50.7003 60.3177C48.5262 60.3264 46.7565 58.5306 46.7434 56.3086C46.7347 54.0867 48.4871 52.2822 50.6612 52.2735C52.8353 52.2648 54.605 54.0606 54.6181 56.2825Z" fill="white"/>
<path d="M53.6615 55.7821C53.6702 57.8736 52.0179 59.5781 49.9699 59.5825C47.9219 59.5912 46.2521 57.8997 46.2434 55.8082C46.2347 53.7167 47.8871 52.0122 49.9351 52.0078C51.9831 51.9991 53.6528 53.6906 53.6615 55.7821Z" fill="#403E3D"/>
<path d="M41.5823 61.8224L44.8304 65.2227L48.1307 61.6484" stroke="#403E3D" stroke-width="2" stroke-linecap="round" stroke-linejoin="round"/>
</svg>
