<svg width="320" height="71" viewBox="0 0 320 71" fill="none" xmlns="http://www.w3.org/2000/svg">
<g filter="url(#filter0_d_1050_2310)">
<path d="M10 20C10 14.4772 14.4772 10 20 10H300C305.523 10 310 14.4772 310 20V51C310 56.5228 305.523 61 300 61H20C14.4772 61 10 56.5228 10 51V20Z" fill="#FFA2A2"/>
</g>
<path d="M75.8672 32.6406V30.8281H79.1797V29.8125H71.3516V30.8281H74.6328V32.6406C74.625 35.0469 72.8906 37.6719 70.8984 38.625L71.6328 39.5938C73.2188 38.7969 74.625 37.0312 75.2734 34.9922C75.9219 36.9141 77.3203 38.5156 78.9453 39.25L79.6328 38.2812C77.5859 37.3984 75.875 35 75.8672 32.6406ZM81.1172 42.2656H82.3516V28.375H81.1172V42.2656ZM95.7734 29.125H86.3359V30.1406H94.5547V30.1562C94.5625 31.2344 94.5625 32.4844 94.1719 34.2344H84.7266V35.25H97.4453V34.2344H95.4062C95.7734 32.5 95.7734 31.2344 95.7734 30.1562V29.125ZM86.2891 42.0781H95.8359V37.1719H86.2891V42.0781ZM87.5078 41.0781V38.1406H94.6172V41.0781H87.5078ZM113.32 28.375H112.102V42.2656H113.32V34.9062H115.648V33.8438H113.32V28.375ZM103.148 38.9375H109.648V29.5625H108.43V33.2344H104.367V29.5625H103.148V38.9375ZM104.367 37.9062V34.2188H108.43V37.9062H104.367ZM129.117 39.5156H123.32V36.8906H127.836V35.875H119.211V33.6094H127.508V29.4062H117.961V30.4219H126.305V32.6094H117.992V36.8906H122.117V39.5156H116.398V40.5469H129.117V39.5156ZM141.477 29.75H135.055V38.7812H141.477V29.75ZM136.258 37.7812V30.7344H140.273V37.7812H136.258ZM144.461 42.2969H145.695V28.375H144.461V42.2969ZM155.539 29.4062H148.883V36H150.008C153.078 36.0078 154.781 35.9375 156.805 35.6094L156.68 34.6094C154.727 34.9375 153.07 34.9922 150.117 34.9844V33.1562H155.148V32.1562H150.117V30.4062H155.539V29.4062ZM150.227 39.7031C150.227 41.3203 151.984 42.2344 154.93 42.2344C157.82 42.2344 159.609 41.3203 159.602 39.7031C159.609 38.1172 157.82 37.1875 154.93 37.2031C151.984 37.1875 150.227 38.1172 150.227 39.7031ZM151.445 39.7031C151.445 38.7578 152.742 38.1719 154.93 38.1719C157.055 38.1719 158.391 38.7578 158.398 39.7031C158.391 40.6875 157.055 41.2656 154.93 41.2656C152.742 41.2656 151.445 40.6875 151.445 39.7031ZM158.32 37H159.539V28.3906H158.32V37ZM172.648 28.375H171.43V42.2656H172.648V35.125H174.977V34.1094H172.648V28.375ZM161.82 31.625H170.086V30.6094H166.617V28.5469H165.398V30.6094H161.82V31.625ZM162.617 35.9688C162.609 37.8516 164.047 39.1562 166.023 39.1562C167.984 39.1562 169.414 37.8516 169.43 35.9688C169.414 34.0938 167.984 32.7812 166.023 32.7812C164.047 32.7812 162.609 34.0938 162.617 35.9688ZM163.789 35.9688C163.781 34.7109 164.727 33.8047 166.023 33.8125C167.305 33.8047 168.242 34.7109 168.258 35.9688C168.242 37.2344 167.305 38.125 166.023 38.1094C164.727 38.125 163.781 37.2344 163.789 35.9688ZM187.227 28.375H186.008V33.7188H183.305V34.75H186.008V42.2969H187.227V28.375ZM176.211 30.6875H181.273V33.5156H176.258V38.9531H177.32C179.836 38.9453 181.641 38.8594 183.727 38.4844L183.633 37.4531C181.609 37.8281 179.875 37.9062 177.477 37.9062V34.5312H182.461V29.6719H176.211V30.6875ZM204.32 28.375H203.102V42.2656H204.32V35.0625H206.57V34.0312H204.32V28.375ZM193.664 38.6562L194.352 39.625C198.875 37.3906 200.719 33.8047 200.727 29.875H194.305V30.9062H199.484C199.203 34.1953 197.25 36.875 193.664 38.6562ZM218.883 28.375H217.648V42.2656H218.883V28.375ZM207.57 38.6562L208.242 39.6562C212.898 37.4219 214.758 33.8828 214.773 29.8906H208.211V30.8906H213.523C213.25 34.2109 211.328 36.875 207.57 38.6562Z" fill="white"/>
<g clip-path="url(#clip0_1050_2310)">
<path d="M225.913 35.8203C225.917 29.8067 230.18 24.6176 236.037 23.864C241.893 23.1103 247.305 27.0553 248.796 32.8766L249.535 32.7819C247.985 26.537 242.202 22.2927 235.94 23.0979C229.679 23.9032 225.13 29.4768 225.175 35.9159L225.913 35.8212V35.8203Z" fill="#DD4B4B"/>
<path d="M226.68 35.7225C226.734 30.1498 230.7 25.3594 236.137 24.6603C241.574 23.9612 246.599 27.5954 248.03 32.9768L248.796 32.8783C247.306 27.0569 241.894 23.112 236.037 23.8656C230.18 24.6183 225.917 29.8074 225.913 35.821L226.68 35.7225V35.7225Z" fill="#F2D766"/>
<path d="M227.453 35.6229C227.556 30.4959 231.224 26.1062 236.237 25.4616C241.25 24.8171 245.887 28.1375 247.255 33.0761L248.029 32.9767C246.599 27.5953 241.574 23.9611 236.137 24.6602C230.7 25.3593 226.734 30.1497 226.68 35.7223L227.453 35.6229V35.6229Z" fill="#7EC182"/>
<path d="M228.216 35.5244C228.367 30.8354 231.74 26.8408 236.336 26.2488C240.933 25.6577 245.187 28.6712 246.493 33.1737L247.256 33.0752C245.888 28.1376 241.251 24.8162 236.238 25.4607C231.225 26.1053 227.557 30.495 227.454 35.622L228.217 35.5235L228.216 35.5244Z" fill="#5B89B2"/>
<path d="M228.91 35.4344C229.103 31.1433 232.209 27.5063 236.427 26.964C240.644 26.4218 244.552 29.156 245.8 33.2616L246.494 33.1727C245.189 28.6711 240.934 25.6567 236.337 26.2477C231.741 26.8387 228.368 30.8334 228.217 35.5234L228.911 35.4344H228.91Z" fill="#9C7DB5"/>
<path d="M229.998 37.4799C229.987 37.3891 229.977 37.2992 229.968 37.2083C229.961 37.1481 229.897 37.1213 229.847 37.1519C229.534 37.3498 228.326 37.8634 227.959 37.9074C227.938 37.9103 227.918 37.9122 227.897 37.9141C227.87 37.917 227.872 37.9179 227.859 37.8969C227.832 37.8558 227.82 37.7926 227.802 37.7467C227.767 37.654 227.731 37.5612 227.696 37.4684C227.623 37.2753 227.549 37.083 227.477 36.8898C227.406 36.7043 227.322 36.5188 227.264 36.3285C227.236 36.2376 227.24 36.1554 227.273 36.0674C227.303 35.989 227.34 35.9125 227.354 35.8292C227.382 35.6552 227.293 35.5041 227.237 35.3453C227.184 35.1894 227.241 34.9915 227.116 34.8652C226.989 34.7352 226.803 34.8136 226.718 34.9504C226.642 35.0718 226.659 35.2057 226.683 35.3386C226.63 35.2889 226.577 35.2392 226.523 35.1885C226.437 35.1082 226.35 35.0039 226.237 34.9637C226.05 34.8968 225.871 35.047 225.869 35.2248C225.827 35.2296 225.784 35.2497 225.752 35.2813C225.711 35.3224 225.694 35.374 225.689 35.4285C225.59 35.4142 225.482 35.4639 225.428 35.5529C225.332 35.7135 225.401 35.9058 225.504 36.0425C225.675 36.2692 225.938 36.4442 226.2 36.5417C226.266 36.5656 226.336 36.5857 226.408 36.5953C226.702 37.15 226.989 37.7104 227.293 38.2593C227.416 38.4822 227.611 38.7825 227.904 38.706C228.049 38.6677 228.19 38.5931 228.328 38.5348C228.473 38.4745 229.471 38.0298 229.616 37.9686C229.692 37.937 229.768 37.9055 229.844 37.873C229.914 37.8443 229.997 37.8185 230.016 37.7343C230.034 37.6549 230.006 37.5574 229.997 37.478L229.998 37.4799Z" fill="#EF6767"/>
<path d="M230.053 37.4721C230.042 37.3812 230.032 37.2914 230.022 37.2005C230.016 37.1402 229.951 37.1135 229.901 37.1441C229.588 37.342 228.381 37.8556 228.013 37.8996C227.993 37.9025 227.973 37.9044 227.952 37.9063C227.925 37.9092 227.926 37.9101 227.913 37.8891C227.887 37.8479 227.874 37.7848 227.856 37.7389C227.821 37.6462 227.786 37.5534 227.751 37.4606C227.678 37.2674 227.604 37.0752 227.531 36.882C227.46 36.6965 227.376 36.511 227.319 36.3207C227.291 36.2298 227.295 36.1476 227.328 36.0596C227.357 35.9811 227.395 35.9046 227.408 35.8214C227.437 35.6474 227.348 35.4963 227.292 35.3375C227.238 35.1816 227.296 34.9837 227.171 34.8574C227.043 34.7274 226.858 34.8058 226.773 34.9425C226.697 35.064 226.714 35.1979 226.738 35.3308C226.684 35.2811 226.631 35.2314 226.577 35.1807C226.491 35.1003 226.404 34.9961 226.292 34.9559C226.105 34.889 225.926 35.0391 225.924 35.217C225.882 35.2218 225.839 35.2419 225.807 35.2734C225.765 35.3146 225.748 35.3662 225.744 35.4207C225.644 35.4064 225.537 35.4561 225.483 35.545C225.386 35.7057 225.455 35.8979 225.558 36.0347C225.729 36.2614 225.992 36.4364 226.255 36.5339C226.32 36.5578 226.391 36.5779 226.463 36.5875C226.757 37.1422 227.043 37.7026 227.348 38.2515C227.471 38.4744 227.666 38.7747 227.959 38.6981C228.104 38.6599 228.245 38.5853 228.383 38.527C228.528 38.4667 229.526 38.022 229.671 37.9608C229.746 37.9292 229.823 37.8977 229.898 37.8652C229.968 37.8365 230.052 37.8106 230.07 37.7265C230.088 37.6471 230.061 37.5496 230.052 37.4702L230.053 37.4721Z" fill="url(#paint0_radial_1050_2310)"/>
<path d="M245.604 35.3617C245.587 35.2718 245.569 35.1829 245.552 35.093C245.54 35.0337 245.593 34.9878 245.65 35.0021C246.008 35.0959 247.312 35.2173 247.675 35.1465C247.695 35.1427 247.716 35.1389 247.736 35.1341C247.763 35.1284 247.761 35.1303 247.768 35.1064C247.781 35.0595 247.774 34.9954 247.777 34.9457C247.783 34.8462 247.79 34.7468 247.795 34.6483C247.807 34.4417 247.82 34.2361 247.832 34.0295C247.844 33.8306 247.869 33.6288 247.867 33.4299C247.867 33.3343 247.839 33.2577 247.78 33.1832C247.729 33.1181 247.67 33.056 247.633 32.9814C247.553 32.8236 247.594 32.6524 247.599 32.485C247.604 32.3196 247.49 32.1493 247.57 31.9896C247.653 31.8261 247.853 31.8452 247.975 31.9495C248.084 32.0422 248.107 32.1752 248.123 32.309L248.232 32.1178C248.29 32.0154 248.342 31.8892 248.437 31.8156C248.596 31.6951 248.81 31.7831 248.866 31.9523C248.909 31.9437 248.954 31.9495 248.995 31.9705C249.047 31.9973 249.079 32.0413 249.099 32.092C249.189 32.048 249.307 32.0623 249.384 32.1312C249.524 32.2545 249.516 32.4592 249.458 32.6218C249.363 32.8896 249.164 33.1372 248.943 33.3103C248.888 33.3534 248.827 33.3935 248.76 33.4242C248.645 34.0429 248.539 34.6645 248.413 35.2804C248.362 35.53 248.267 35.8762 247.964 35.8925C247.815 35.9001 247.658 35.8724 247.509 35.859C247.353 35.8456 246.268 35.7261 246.112 35.7127C246.03 35.706 245.949 35.6984 245.867 35.6917C245.792 35.685 245.705 35.6859 245.662 35.6123C245.621 35.5425 245.618 35.4411 245.603 35.3627L245.604 35.3617Z" fill="#EF6767"/>
<path d="M245.604 35.3617C245.587 35.2718 245.569 35.1829 245.552 35.093C245.54 35.0337 245.593 34.9878 245.65 35.0021C246.008 35.0959 247.312 35.2173 247.675 35.1465C247.695 35.1427 247.716 35.1389 247.736 35.1341C247.763 35.1284 247.761 35.1303 247.768 35.1064C247.781 35.0595 247.774 34.9954 247.777 34.9457C247.783 34.8462 247.79 34.7468 247.795 34.6483C247.807 34.4417 247.82 34.2361 247.832 34.0295C247.844 33.8306 247.869 33.6288 247.867 33.4299C247.867 33.3343 247.839 33.2577 247.78 33.1832C247.729 33.1181 247.67 33.056 247.633 32.9814C247.553 32.8236 247.594 32.6524 247.599 32.485C247.604 32.3196 247.49 32.1493 247.57 31.9896C247.653 31.8261 247.853 31.8452 247.975 31.9495C248.084 32.0422 248.107 32.1752 248.123 32.309L248.232 32.1178C248.29 32.0154 248.342 31.8892 248.437 31.8156C248.596 31.6951 248.81 31.7831 248.866 31.9523C248.909 31.9437 248.954 31.9495 248.995 31.9705C249.047 31.9973 249.079 32.0413 249.099 32.092C249.189 32.048 249.307 32.0623 249.384 32.1312C249.524 32.2545 249.516 32.4592 249.458 32.6218C249.363 32.8896 249.164 33.1372 248.943 33.3103C248.888 33.3534 248.827 33.3935 248.76 33.4242C248.645 34.0429 248.539 34.6645 248.413 35.2804C248.362 35.53 248.267 35.8762 247.964 35.8925C247.815 35.9001 247.658 35.8724 247.509 35.859C247.353 35.8456 246.268 35.7261 246.112 35.7127C246.03 35.706 245.949 35.6984 245.867 35.6917C245.792 35.685 245.705 35.6859 245.662 35.6123C245.621 35.5425 245.618 35.4411 245.603 35.3627L245.604 35.3617Z" fill="url(#paint1_radial_1050_2310)"/>
<path d="M236.455 43.4805L236.049 44.8748C236.049 44.8748 234.646 45.331 234.839 45.9096L237.259 45.6906L237.524 43.557L236.455 43.4805Z" fill="#EF6767"/>
<path d="M236.455 43.4805L236.049 44.8748C236.049 44.8748 234.646 45.331 234.839 45.9096L237.259 45.6906L237.524 43.557L236.455 43.4805Z" fill="url(#paint2_radial_1050_2310)"/>
<path d="M241.162 42.7729L242.081 43.8899C242.081 43.8899 241.673 45.3225 242.256 45.4823L243.425 43.3266L241.821 41.916L241.163 42.772L241.162 42.7729Z" fill="#EF6767"/>
<path d="M241.162 42.7729L242.081 43.8899C242.081 43.8899 241.673 45.3225 242.256 45.4823L243.425 43.3266L241.821 41.916L241.163 42.772L241.162 42.7729Z" fill="url(#paint3_radial_1050_2310)"/>
<path d="M239.418 44.6804C239.194 44.9041 238.855 44.9596 238.573 44.8181L234.563 42.804C230.31 40.7019 229.588 37.9008 229.588 37.9008C228.746 34.2045 231.227 33.3418 231.227 33.3418C234.263 32.3109 236.53 33.9759 237.405 34.7859C237.983 33.7387 239.616 31.4358 242.819 31.4473C242.819 31.4473 245.442 31.475 245.794 35.2517C245.794 35.2517 245.98 38.1399 242.598 41.4909L239.418 44.6804Z" fill="#EF6767"/>
<path d="M239.28 37.3546C239.85 37.3084 240.274 36.7938 240.228 36.2052C240.181 35.6166 239.681 35.1768 239.111 35.223C238.542 35.2692 238.117 35.7838 238.164 36.3724C238.211 36.961 238.71 37.4008 239.28 37.3546Z" fill="white"/>
<path d="M238.122 36.3423C238.178 36.896 238.659 37.2986 239.195 37.2422C239.731 37.1858 240.119 36.6904 240.063 36.1376C240.006 35.5839 239.526 35.1813 238.99 35.2377C238.454 35.2941 238.065 35.7895 238.122 36.3423Z" fill="#403E3D"/>
<path d="M235.065 36.725C235.125 37.3122 235.635 37.7397 236.203 37.6795C236.772 37.6192 237.184 37.0942 237.124 36.507C237.063 35.9198 236.554 35.4923 235.986 35.5525C235.417 35.6128 235.004 36.1378 235.065 36.725V36.725Z" fill="white"/>
<path d="M235.039 36.6489C235.095 37.2027 235.576 37.6053 236.112 37.5489C236.648 37.4924 237.036 36.997 236.98 36.4443C236.923 35.8905 236.443 35.4879 235.907 35.5443C235.371 35.6008 234.982 36.0962 235.039 36.6489Z" fill="#403E3D"/>
<path d="M236.875 37.8163C236.875 37.8163 237.675 38.5919 238.607 37.582" stroke="#403E3D" stroke-width="0.5" stroke-linecap="round" stroke-linejoin="round"/>
</g>
<defs>
<filter id="filter0_d_1050_2310" x="0" y="0" width="320" height="71" filterUnits="userSpaceOnUse" color-interpolation-filters="sRGB">
<feFlood flood-opacity="0" result="BackgroundImageFix"/>
<feColorMatrix in="SourceAlpha" type="matrix" values="0 0 0 0 0 0 0 0 0 0 0 0 0 0 0 0 0 0 127 0" result="hardAlpha"/>
<feOffset/>
<feGaussianBlur stdDeviation="5"/>
<feComposite in2="hardAlpha" operator="out"/>
<feColorMatrix type="matrix" values="0 0 0 0 0.729167 0 0 0 0 0.571181 0 0 0 0 0.571181 0 0 0 0.15 0"/>
<feBlend mode="normal" in2="BackgroundImageFix" result="effect1_dropShadow_1050_2310"/>
<feBlend mode="normal" in="SourceGraphic" in2="effect1_dropShadow_1050_2310" result="shape"/>
</filter>
<radialGradient id="paint0_radial_1050_2310" cx="0" cy="0" r="1" gradientUnits="userSpaceOnUse" gradientTransform="translate(230.345 37.7322) scale(3.34468 3.38357)">
<stop stop-color="#C61C24" stop-opacity="0.9"/>
<stop offset="1" stop-color="#C61C24" stop-opacity="0"/>
</radialGradient>
<radialGradient id="paint1_radial_1050_2310" cx="0" cy="0" r="1" gradientUnits="userSpaceOnUse" gradientTransform="translate(245.957 35.7414) scale(1.88599 1.90792)">
<stop stop-color="#C61C24" stop-opacity="0.9"/>
<stop offset="1" stop-color="#C61C24" stop-opacity="0"/>
</radialGradient>
<radialGradient id="paint2_radial_1050_2310" cx="0" cy="0" r="1" gradientUnits="userSpaceOnUse" gradientTransform="translate(236.653 43.7272) scale(1.58064 1.59902)">
<stop stop-color="#C61C24" stop-opacity="0.9"/>
<stop offset="1" stop-color="#C61C24" stop-opacity="0"/>
</radialGradient>
<radialGradient id="paint3_radial_1050_2310" cx="0" cy="0" r="1" gradientUnits="userSpaceOnUse" gradientTransform="translate(241.474 42.7429) rotate(-56.4657) scale(1.59334 1.58627)">
<stop stop-color="#C61C24" stop-opacity="0.9"/>
<stop offset="1" stop-color="#C61C24" stop-opacity="0"/>
</radialGradient>
<clipPath id="clip0_1050_2310">
<rect width="24.36" height="26.5216" fill="white" transform="translate(225.175 23)"/>
</clipPath>
</defs>
</svg>
