<svg width="109" height="36" viewBox="0 0 109 36" fill="none" xmlns="http://www.w3.org/2000/svg">
<g filter="url(#filter0_d_1989_1539)">
<rect x="2" width="105" height="24" rx="4" fill="#FF8383"/>
<path d="M54.5065 31.0032L49.7384 22.7554L59.2652 22.75L54.5065 31.0032Z" fill="#FF8383"/>
<path d="M14.2715 7.33105H13.4336V14.3887H14.2715V7.33105ZM6.58008 12.5625L7.00977 13.2285C8.14307 12.8364 9.0293 12.0093 9.44824 10.9458C9.87793 11.9341 10.7642 12.6914 11.8867 13.0566L12.3057 12.3799C10.877 11.9448 9.85107 10.8169 9.85645 9.55469V9.29688H12.0479V8.62012H9.86719V7.37402H9.01855V8.62012H6.81641V9.29688H9.01855V9.55469C9.01855 10.8975 8.01416 12.0952 6.58008 12.5625ZM8.10547 16.666H14.5723V15.957H8.94336V13.7334H8.10547V16.666ZM23.4453 7.94336H16.9893V8.6416H22.6074V8.78125C22.6074 9.67285 22.6074 10.6719 22.3174 12.0469H15.8936V12.7451H19.8037V16.8916H20.6523V12.7451H24.5947V12.0469H23.1714C23.4453 10.6772 23.4453 9.68359 23.4453 8.78125V7.94336ZM32.8662 7.33105H32.0283V13.0996H32.8662V10.4355H34.3164V9.72656H32.8662V7.33105ZM25.8086 8.62012H29.3105V9.83398H25.8301V12.541H26.5713C28.3491 12.541 29.6274 12.4819 31.1582 12.2295L31.0723 11.5205C29.5845 11.7729 28.3545 11.8374 26.6572 11.832V10.5H30.1377V7.92188H25.8086V8.62012ZM26.6357 15.1299C26.6304 16.2202 27.8335 16.8486 29.8047 16.8486C31.7544 16.8486 32.9521 16.2202 32.9521 15.1299C32.9521 14.0342 31.7544 13.3843 29.8047 13.3896C27.8335 13.3843 26.6304 14.0342 26.6357 15.1299ZM27.4629 15.1299C27.4521 14.4585 28.3384 14.0557 29.8047 14.0557C31.2495 14.0557 32.1304 14.4585 32.1357 15.1299C32.1304 15.7959 31.2495 16.1987 29.8047 16.1934C28.3384 16.1987 27.4521 15.7959 27.4629 15.1299ZM46.6055 11.1338H45.0586V7.32031H44.2207V16.8701H45.0586V11.8428H46.6055V11.1338ZM38.0654 14.4424H38.8281C40.2729 14.4424 41.7554 14.3457 43.4043 14.0127L43.2969 13.293C41.7231 13.626 40.2998 13.7334 38.9033 13.7334V8.26562H38.0654V14.4424ZM55.0488 7.33105H54.2002V13.7656H51.9873V14.4424H54.2002V16.8809H55.0488V7.33105ZM47.1104 12.251L47.2178 12.9492C48.0127 12.9546 48.8936 12.9492 49.8066 12.9224V16.5801H50.6553V12.8901C51.5952 12.8472 52.5513 12.772 53.4697 12.6592L53.416 12.0146C51.3481 12.2241 49.0063 12.2402 47.1104 12.251ZM48.0127 11.0156H52.7393V10.3281H48.8613V7.83594H48.0127V11.0156ZM67.5957 7.32031H66.7686V11.209H65.3936V7.53516H64.5986V16.376H65.3936V11.9287H66.7686V16.8701H67.5957V7.32031ZM59.9258 14.3994H60.5166C61.5693 14.3994 62.665 14.3296 63.9971 14.0879L63.8896 13.3359C62.7295 13.5723 61.709 13.6421 60.7637 13.6475V8.49121H59.9258V14.3994ZM73.7832 8.1582H69.4004V12.6162H73.7832V11.7568H76.0176V14.3027H76.8662V7.33105H76.0176V9.00684H73.7832V8.1582ZM70.2383 11.9395V8.85645H72.9561V11.9395H70.2383ZM70.6895 16.666H77.0811V15.957H71.5381V13.6797H70.6895V16.666ZM73.7832 11.0586V9.71582H76.0176V11.0586H73.7832ZM88.6826 7.33105H87.8447V14.3457H88.6826V10.9297H90.1221V10.2207H88.6826V7.33105ZM81.625 12.7344H86.0723V8.01855H85.2344V9.62988H82.4521V8.01855H81.625V12.7344ZM82.4521 12.0469V10.2959H85.2344V12.0469H82.4521ZM82.71 16.666H89.123V15.957H83.5371V13.6582H82.71V16.666ZM98.1895 7.32031H97.3516V12.5088H98.1895V10.2422H99.6289V9.52246H98.1895V7.32031ZM90.7451 11.918L91.0674 12.6162C93.8872 11.918 95.5845 10.2959 95.5898 7.90039H91.1748V8.59863H94.666C94.5156 10.1455 93.1084 11.354 90.7451 11.918ZM91.7871 16.7412H95.0742V13.0029H94.29V14.1631H92.5713V13.0029H91.7871V16.7412ZM92.5713 16.0645V14.8184H94.29V16.0645H92.5713ZM95.1279 16.1826L95.5898 16.8271C96.3955 16.4673 96.938 15.8066 97.228 15.0601C97.5127 15.8066 98.0444 16.4673 98.8447 16.8271L99.2959 16.1826C98.1841 15.6938 97.6309 14.625 97.6309 13.6797V12.9062H96.8252V13.7119C96.8145 14.625 96.2559 15.6885 95.1279 16.1826ZM101.777 8.22266H100.725L100.8 13.8086H101.702L101.777 8.22266ZM100.563 15.3662C100.553 15.7476 100.875 16.0591 101.251 16.0645C101.632 16.0591 101.944 15.7476 101.938 15.3662C101.944 14.9902 101.632 14.6787 101.251 14.6787C100.875 14.6787 100.553 14.9902 100.563 15.3662Z" fill="white"/>
</g>
<defs>
<filter id="filter0_d_1989_1539" x="0" y="0" width="109" height="35.0039" filterUnits="userSpaceOnUse" color-interpolation-filters="sRGB">
<feFlood flood-opacity="0" result="BackgroundImageFix"/>
<feColorMatrix in="SourceAlpha" type="matrix" values="0 0 0 0 0 0 0 0 0 0 0 0 0 0 0 0 0 0 127 0" result="hardAlpha"/>
<feOffset dy="2"/>
<feGaussianBlur stdDeviation="1"/>
<feComposite in2="hardAlpha" operator="out"/>
<feColorMatrix type="matrix" values="0 0 0 0 0 0 0 0 0 0 0 0 0 0 0 0 0 0 0.25 0"/>
<feBlend mode="normal" in2="BackgroundImageFix" result="effect1_dropShadow_1989_1539"/>
<feBlend mode="normal" in="SourceGraphic" in2="effect1_dropShadow_1989_1539" result="shape"/>
</filter>
</defs>
</svg>
