<svg width="25" height="24" viewBox="0 0 25 24" fill="none" xmlns="http://www.w3.org/2000/svg">
<path d="M21.657 14.6704C23.1348 9.37593 20.0087 3.90442 14.7089 2.43019C9.40913 0.955954 3.89907 4.02516 2.42122 9.31966C0.943376 14.6142 4.06948 20.0857 9.36927 21.5599C14.669 23.0341 20.1791 19.9649 21.657 14.6704Z" fill="#EB8888" stroke="#FBFBFB" stroke-width="4"/>
<path d="M9.63802 11.0623C10.3777 11.2159 10.6168 10.0742 9.87517 9.92018C9.13357 9.76619 8.89641 10.9083 9.63802 11.0623Z" fill="#392826"/>
<path d="M14.2347 11.1443C14.9744 11.2979 15.2135 10.1562 14.4719 10.0022C13.7302 9.84822 13.4931 10.9904 14.2347 11.1443Z" fill="#392826"/>
<path d="M10.0334 12.6819C10.4484 13.4174 11.2546 13.8766 12.0904 13.933C12.983 13.9953 13.9715 13.5473 14.2299 12.6399C14.333 12.278 13.7577 12.1606 13.655 12.5205C13.4719 13.1616 12.6488 13.4195 12.0479 13.3484C11.4102 13.2716 10.839 12.9226 10.5216 12.3623C10.3359 12.0338 9.84739 12.3553 10.0315 12.6815L10.0334 12.6819Z" fill="#392826"/>
</svg>
