<svg width="87" height="26" viewBox="0 0 87 26" fill="none" xmlns="http://www.w3.org/2000/svg">
<path d="M34.44 9.3C34.52 9.18 34.6667 9.13333 34.88 9.16C35.0933 9.18667 35.2333 9.27333 35.3 9.42C35.3933 9.59333 35.4 10.26 35.32 11.42C35.2133 12.7267 35.1467 14.06 35.12 15.42C35.1067 16.3267 35.08 16.94 35.04 17.26C35 17.58 34.9267 17.7667 34.82 17.82C34.6733 17.9267 34.5 17.9467 34.3 17.88C34.1667 17.8267 34.0933 17.6 34.08 17.2C34.0667 16.8 34.0867 15.6933 34.14 13.88C34.2067 11.8667 34.2533 10.6333 34.28 10.18C34.3067 9.72667 34.36 9.43333 34.44 9.3ZM28 9.78C28.6133 9.60667 29.2733 9.52667 29.98 9.54C30.7 9.55333 31.16 9.65333 31.36 9.84C31.4933 9.97333 31.5733 10.8267 31.6 12.4C31.64 13.96 31.6 14.8 31.48 14.92C31.4 15 30.64 15.1467 29.2 15.36C28.2267 15.48 27.62 15.54 27.38 15.54C27.14 15.54 26.98 15.48 26.9 15.36C26.7 15.08 26.5733 14.26 26.52 12.9C26.4667 11.5267 26.52 10.7 26.68 10.42C26.8267 10.2067 27.2667 9.99333 28 9.78ZM30.36 10.64C30.2 10.5867 30.08 10.56 30 10.56C29.9867 10.5733 29.9333 10.5867 29.84 10.6C29.76 10.6133 29.6467 10.6333 29.5 10.66C29.3533 10.6867 29.22 10.7067 29.1 10.72C28.2733 10.8533 27.7933 10.9933 27.66 11.14C27.5267 11.2867 27.46 11.7467 27.46 12.52C27.46 13.3733 27.4867 13.8867 27.54 14.06C27.6067 14.22 28.0667 14.2733 28.92 14.22C29.7467 14.18 30.2467 14.1333 30.42 14.08C30.54 14.04 30.6 13.4733 30.6 12.38C30.6 11.7133 30.58 11.2667 30.54 11.04C30.5133 10.8133 30.4533 10.68 30.36 10.64ZM39.1233 7.12C39.5766 7.06667 40.1966 7.01333 40.9833 6.96C41.1966 6.94667 41.3633 7.04667 41.4833 7.26C41.6033 7.47333 41.6099 7.68 41.5033 7.88C41.4499 7.97333 41.3166 8.03333 41.1033 8.06C40.8899 8.07333 40.4833 8.07333 39.8833 8.06C38.9099 8.02 38.2633 8.07333 37.9433 8.22C37.6233 8.36667 37.4299 8.71333 37.3633 9.26C37.3099 9.72667 37.3233 10.0867 37.4033 10.34C37.4833 10.5133 37.5633 10.6067 37.6433 10.62C37.7233 10.62 37.9766 10.5667 38.4033 10.46C39.0033 10.3133 39.6499 10.24 40.3433 10.24C40.6766 10.24 40.9233 10.2467 41.0833 10.26C41.2566 10.2733 41.3833 10.3 41.4633 10.34C41.5433 10.38 41.6033 10.4467 41.6433 10.54C41.8166 10.8467 41.6366 11.06 41.1033 11.18C40.8366 11.2467 40.4366 11.3 39.9033 11.34C38.9033 11.4467 38.2566 11.5467 37.9633 11.64C37.7499 11.7333 37.6166 11.8133 37.5633 11.88C37.5099 11.9467 37.5033 12.06 37.5433 12.22C37.5699 12.4067 37.6099 12.52 37.6633 12.56C37.7299 12.5867 37.8833 12.58 38.1233 12.54C39.6166 12.2867 40.6433 12.16 41.2033 12.16C41.7633 12.16 42.0633 12.2867 42.1033 12.54C42.1033 12.5533 42.1033 12.5667 42.1033 12.58C42.1299 12.7133 42.0699 12.8133 41.9233 12.88C41.7099 12.96 40.6966 13.18 38.8833 13.54L38.8633 13.56H38.8433H38.8233H38.8033H38.7833L38.7633 13.58H38.7433H38.7233H38.7033H38.6833L38.6633 13.6H38.6433H38.6233H38.6033H38.5833L38.5633 13.62H38.5433C37.9699 13.74 37.5899 13.8 37.4033 13.8C37.2299 13.8 37.0966 13.7533 37.0033 13.66C36.7366 13.4067 36.5366 12.1867 36.4033 10C36.3766 9.68 36.3633 9.41333 36.3633 9.2C36.3633 8.98667 36.3766 8.78 36.4033 8.58C36.4299 8.36667 36.4633 8.2 36.5033 8.08C36.5433 7.96 36.6166 7.84667 36.7233 7.74C36.8299 7.62 36.9433 7.53333 37.0633 7.48C37.1833 7.42667 37.3499 7.37333 37.5633 7.32C37.7766 7.26667 38.0033 7.22667 38.2433 7.2C38.4833 7.17333 38.7766 7.14667 39.1233 7.12ZM43.4833 8.12C43.5366 7.97333 43.6566 7.89333 43.8433 7.88C44.0299 7.86667 44.1766 7.92667 44.2833 8.06C44.3499 8.16667 44.3833 9.15333 44.3833 11.02C44.3966 12.8867 44.3699 13.86 44.3033 13.94C44.2499 13.98 44.0833 13.9533 43.8033 13.86L43.3833 13.7V11.04C43.3833 9.28 43.4166 8.30667 43.4833 8.12ZM41.9033 14.74C42.1833 14.7133 42.3566 14.6867 42.4233 14.66C42.4766 14.6333 42.5899 14.6733 42.7633 14.78C42.9499 14.8733 43.1433 15.0133 43.3433 15.2C43.5433 15.3733 43.6966 15.54 43.8033 15.7C43.9899 15.9533 44.1099 16.1667 44.1633 16.34C44.2166 16.5133 44.2366 16.8 44.2233 17.2C44.2099 17.5867 44.1699 17.8867 44.1033 18.1C44.0366 18.3133 43.9099 18.5467 43.7233 18.8C43.0966 19.6667 42.3566 20.0067 41.5033 19.82C41.0766 19.7267 40.6366 19.5 40.1833 19.14C39.7299 18.7933 39.4166 18.42 39.2433 18.02C39.0433 17.62 38.9766 17.2533 39.0433 16.92C39.1099 16.5733 39.3166 16.2067 39.6633 15.82C39.7833 15.6733 39.8966 15.5533 40.0033 15.46C40.1099 15.3667 40.2233 15.2867 40.3433 15.22C40.4766 15.14 40.6166 15.0733 40.7633 15.02C40.9233 14.9533 41.0899 14.9 41.2633 14.86C41.4499 14.82 41.6633 14.78 41.9033 14.74ZM42.9233 16.18C42.7099 15.9267 42.5033 15.78 42.3033 15.74C42.1033 15.6867 41.8166 15.7267 41.4433 15.86C41.1899 15.94 40.9566 16.0533 40.7433 16.2C40.5433 16.3467 40.3833 16.5133 40.2633 16.7C40.1433 16.8733 40.0833 17.04 40.0833 17.2C40.0833 17.4533 40.2633 17.7733 40.6233 18.16C40.9833 18.5467 41.3166 18.7733 41.6233 18.84C41.8366 18.88 42.0033 18.8733 42.1233 18.82C42.2566 18.7667 42.4433 18.6133 42.6833 18.36C42.8966 18.1333 43.0366 17.9467 43.1033 17.8C43.1833 17.64 43.2233 17.4333 43.2233 17.18C43.2233 16.78 43.1233 16.4467 42.9233 16.18ZM47.8863 5.72C47.9929 5.61333 48.1396 5.55333 48.3263 5.54C48.5129 5.52667 48.6329 5.57333 48.6863 5.68C48.7529 5.74667 48.8196 6.11333 48.8863 6.78L48.9863 7.76L49.9463 7.62C50.7329 7.52667 51.2263 7.49333 51.4263 7.52C51.6263 7.54667 51.7796 7.66667 51.8863 7.88C52.0063 8.13333 52.0063 8.33333 51.8863 8.48C51.7796 8.62667 51.5796 8.66667 51.2863 8.6C51.0996 8.56 50.5196 8.62 49.5463 8.78C48.5729 8.92667 47.6596 9.10667 46.8063 9.32C45.8729 9.56 45.4063 9.44667 45.4063 8.98C45.4063 8.83333 45.4463 8.72 45.5263 8.64C45.6196 8.54667 45.7863 8.45333 46.0263 8.36C46.4796 8.21333 46.8996 8.15333 47.2863 8.18H47.8863L47.8063 7.04C47.7263 6.28 47.7529 5.84 47.8863 5.72ZM53.7463 8.68C53.7996 8.57333 53.9596 8.52 54.2263 8.52H54.6263L54.5663 9.88L54.5263 11.26H55.3863C55.8663 11.26 56.1929 11.3 56.3663 11.38C56.5529 11.4467 56.6463 11.5933 56.6463 11.82C56.6463 12.02 56.5729 12.16 56.4263 12.24C56.2796 12.3067 56.0329 12.3333 55.6863 12.32C55.2996 12.3067 54.9663 12.3467 54.6863 12.44C54.4996 12.52 54.3863 12.6067 54.3463 12.7C54.3196 12.78 54.3329 12.98 54.3863 13.3C54.4529 13.82 54.4529 14.18 54.3863 14.38C54.3463 14.5933 54.2063 14.7467 53.9663 14.84C53.7263 14.92 53.5596 14.8867 53.4663 14.74C53.3729 14.62 53.3529 13.72 53.4063 12.04C53.4596 10.7467 53.5063 9.9 53.5463 9.5C53.5863 9.08667 53.6529 8.81333 53.7463 8.68ZM47.8263 10.2C48.3196 9.94667 48.6396 9.82 48.7863 9.82C48.9463 9.80667 49.2596 9.88667 49.7263 10.06C50.4063 10.3 50.8663 10.58 51.1063 10.9C51.3596 11.2067 51.4929 11.6667 51.5063 12.28C51.5463 13.2933 51.0196 14.0533 49.9263 14.56C49.4863 14.7733 49.0863 14.9 48.7263 14.94C48.3663 14.9667 47.9596 14.9133 47.5063 14.78C46.9996 14.6467 46.6329 14.44 46.4063 14.16C46.1796 13.88 46.0463 13.48 46.0063 12.96C45.9663 12.5333 45.9663 12.24 46.0063 12.08C46.0463 11.92 46.1929 11.6733 46.4463 11.34C46.7663 10.9 47.2263 10.52 47.8263 10.2ZM50.1463 11.2C49.8129 10.8933 49.3596 10.8067 48.7863 10.94C48.2129 11.0733 47.6996 11.38 47.2463 11.86C47.0729 12.0333 46.9663 12.18 46.9263 12.3C46.8996 12.42 46.9063 12.6 46.9463 12.84C47.0529 13.28 47.3463 13.6067 47.8263 13.82C48.3196 14.0333 48.7796 14.0267 49.2063 13.8C49.8463 13.48 50.2596 13.06 50.4463 12.54C50.6463 12.0067 50.5463 11.56 50.1463 11.2ZM51.3863 16.06C52.8663 15.9 53.7329 15.9 53.9863 16.06C54.0796 16.1133 54.1396 16.2733 54.1663 16.54C54.1929 16.8067 54.2063 17.3 54.2063 18.02V19.84L53.7863 19.98C53.5063 20.0733 53.3263 20.02 53.2463 19.82C53.1796 19.6333 53.1529 19.1267 53.1663 18.3C53.1796 17.46 53.1463 17.0133 53.0663 16.96C52.9596 16.8933 51.9729 17.04 50.1063 17.4C49.8263 17.4533 49.6063 17.42 49.4463 17.3C49.2996 17.1667 49.2596 17 49.3263 16.8C49.4063 16.6 49.5863 16.4467 49.8663 16.34C50.1196 16.2333 50.6263 16.14 51.3863 16.06ZM70.0323 8.94C70.1923 8.87333 70.359 8.84667 70.5323 8.86C70.7057 8.86 70.819 8.9 70.8723 8.98C70.9257 9.06 70.8923 9.85333 70.7723 11.36C70.6657 12.72 70.5723 14.0467 70.4923 15.34C70.439 16.2333 70.3523 16.8067 70.2323 17.06C70.1257 17.3 69.919 17.3667 69.6123 17.26C69.479 17.2067 69.399 16.9467 69.3723 16.48C69.359 16 69.4057 15.2067 69.5123 14.1L69.6123 12.88L68.8923 12.96C68.399 13.0267 67.9257 13.16 67.4723 13.36L66.7123 13.66V15.32C66.699 15.9733 66.6723 16.42 66.6323 16.66C66.5923 16.8867 66.519 17.04 66.4123 17.12C65.919 17.4933 65.679 17.3 65.6923 16.54C65.719 15.1267 65.7723 13.5933 65.8523 11.94C65.9457 10.2733 66.0257 9.38 66.0923 9.26C66.159 9.11333 66.279 9.02667 66.4523 9C66.639 8.97333 66.819 9.02 66.9923 9.14C67.0723 9.19333 67.1123 9.31333 67.1123 9.5C67.1257 9.68667 67.0923 10.0667 67.0123 10.64C66.879 11.5467 66.8457 12.0267 66.9123 12.08C66.939 12.12 67.0857 12.1267 67.3523 12.1C67.6323 12.0733 67.9257 12.0333 68.2323 11.98C68.5523 11.9267 68.8523 11.8667 69.1323 11.8C69.4257 11.72 69.599 11.66 69.6523 11.62C69.7723 11.5133 69.8323 11.0533 69.8323 10.24C69.8323 9.42667 69.899 8.99333 70.0323 8.94ZM61.3523 9.84C62.0323 9.70667 62.459 9.64 62.6323 9.64C62.8057 9.64 62.9523 9.70667 63.0723 9.84C63.179 9.97333 63.219 10.22 63.1923 10.58C63.179 10.9267 63.099 11.5733 62.9523 12.52C62.939 12.6267 62.8857 12.9667 62.7923 13.54C62.699 14.1133 62.6323 14.54 62.5923 14.82C62.4857 15.6333 62.379 16.08 62.2723 16.16C62.219 16.2 62.119 16.22 61.9723 16.22C61.679 16.22 61.5057 16.1067 61.4523 15.88C61.4123 15.6533 61.459 15.1667 61.5923 14.42C61.9523 12.4467 62.1323 11.32 62.1323 11.04C62.1323 10.9467 62.119 10.88 62.0923 10.84C62.0657 10.7867 62.0257 10.7667 61.9723 10.78C61.8657 10.86 61.339 10.9733 60.3923 11.12C59.459 11.2667 58.8323 11.34 58.5123 11.34C58.139 11.34 57.8857 11.26 57.7523 11.1C57.5123 10.82 57.739 10.5867 58.4323 10.4C58.6457 10.3467 58.9123 10.2933 59.2323 10.24C59.9923 10.12 60.699 9.98667 61.3523 9.84ZM73.6506 6.1C74.224 5.94 74.8306 5.86 75.4706 5.86C76.124 5.84667 76.5506 5.94667 76.7506 6.16C76.9506 6.36 77.0906 6.84667 77.1706 7.62C77.1973 7.95333 77.2173 8.19333 77.2306 8.34C77.244 8.48667 77.2373 8.65333 77.2106 8.84C77.184 9.01333 77.1506 9.12667 77.1106 9.18C77.0706 9.22 76.9706 9.28667 76.8106 9.38C76.664 9.46 76.5173 9.52 76.3706 9.56C76.2373 9.58667 76.0106 9.64 75.6906 9.72C74.6506 9.98667 74.0106 10.1733 73.7706 10.28C73.544 10.3867 73.4506 10.5733 73.4906 10.84C73.504 10.9867 73.5373 11.0933 73.5906 11.16C73.6573 11.2133 73.7506 11.2267 73.8706 11.2C74.6306 11.1067 75.424 10.9333 76.2506 10.68C77.064 10.44 77.4706 10.6133 77.4706 11.2C77.4706 11.3467 77.4306 11.4533 77.3506 11.52C77.284 11.5733 77.1106 11.6267 76.8306 11.68C76.5506 11.72 75.9573 11.8667 75.0506 12.12C73.8906 12.44 73.1373 12.52 72.7906 12.36C72.4573 12.2 72.3306 11.7133 72.4106 10.9C72.464 10.3 72.6106 9.89333 72.8506 9.68C73.104 9.46667 73.6373 9.26667 74.4506 9.08C74.7973 9 75.0573 8.94 75.2306 8.9C75.404 8.86 75.5706 8.81333 75.7306 8.76C75.904 8.69333 76.0173 8.64667 76.0706 8.62C76.124 8.58 76.1706 8.51333 76.2106 8.42C76.2506 8.32667 76.264 8.24667 76.2506 8.18C76.2506 8.1 76.2373 7.98 76.2106 7.82C76.1306 7.40667 76.044 7.12667 75.9506 6.98C75.7906 6.78 75.084 6.84667 73.8306 7.18C73.3106 7.32667 72.8506 7.4 72.4506 7.4C72.224 7.4 72.0706 7.38 71.9906 7.34C71.924 7.3 71.8906 7.22 71.8906 7.1C71.8906 6.74 72.4773 6.40667 73.6506 6.1ZM75.0106 12.86C75.3306 12.4733 75.564 12.48 75.7106 12.88C75.7773 13.08 75.8106 13.34 75.8106 13.66C75.8106 13.9133 75.8306 14.0667 75.8706 14.12C75.924 14.16 76.0773 14.1533 76.3306 14.1C76.5973 14.0467 77.044 13.9867 77.6706 13.92C78.0173 13.8667 78.244 13.8533 78.3506 13.88C78.4573 13.9067 78.5506 13.9933 78.6306 14.14C78.7506 14.3533 78.7773 14.5333 78.7106 14.68C78.6573 14.8267 78.5106 14.94 78.2706 15.02C78.044 15.0867 77.7306 15.12 77.3306 15.12C76.9173 15.12 76.2906 15.2 75.4506 15.36C73.6506 15.6933 72.6906 15.68 72.5706 15.32C72.4773 15.0933 72.5706 14.8933 72.8506 14.72C73.144 14.5467 73.504 14.48 73.9306 14.52L74.6506 14.56L74.7306 13.84C74.784 13.3733 74.8773 13.0467 75.0106 12.86ZM73.8106 16.82C73.944 16.7267 74.1173 16.6933 74.3306 16.72C74.4906 16.7467 74.584 16.8267 74.6106 16.96C74.6373 17.08 74.6173 17.38 74.5506 17.86C74.5506 17.86 74.5506 17.8667 74.5506 17.88C74.524 18.12 74.5706 18.2533 74.6906 18.28C74.8106 18.3067 75.2373 18.2733 75.9706 18.18C76.0373 18.18 76.0906 18.18 76.1306 18.18C76.184 18.1667 76.2573 18.1533 76.3506 18.14C77.6706 17.98 78.444 17.9067 78.6706 17.92C78.9106 17.92 79.0706 18.0067 79.1506 18.18C79.1506 18.1933 79.1573 18.2067 79.1706 18.22C79.2373 18.4067 79.2373 18.56 79.1706 18.68C79.1173 18.8 78.9906 18.8867 78.7906 18.94C78.5906 19.0067 78.3306 19.04 78.0106 19.04C77.5173 19.0133 76.7573 19.1267 75.7306 19.38C74.704 19.62 74.1173 19.68 73.9706 19.56C73.7173 19.4133 73.564 18.9533 73.5106 18.18C73.4573 17.42 73.5573 16.9667 73.8106 16.82Z" fill="#1A1A1A"/>
<g clip-path="url(#clip0_326_1077)">
<path d="M0.636277 13.0841C0.639537 7.41561 4.31503 2.52415 9.36373 1.81378C14.4124 1.10341 19.0773 4.82203 20.3633 10.3094L20.9998 10.2201C19.6641 4.33343 14.6789 0.332635 9.2806 1.09169C3.88309 1.85074 -0.0385134 7.1046 -0.000210125 13.1743L0.636277 13.085V13.0841Z" fill="#DD4B4B"/>
<path d="M1.29741 12.9916C1.34386 7.73869 4.76345 3.22315 9.45031 2.56416C14.1372 1.90517 18.4695 5.33082 19.7026 10.4035L20.3635 10.3106C19.0783 4.82328 14.4134 1.10466 9.36393 1.81503C4.31522 2.5245 0.639734 7.41596 0.636475 13.0845L1.29741 12.9916Z" fill="#F2D766"/>
<path d="M1.964 12.8978C2.05284 8.06496 5.2149 3.92714 9.53665 3.31954C13.8584 2.71194 17.8558 5.8419 19.0351 10.4972L19.7017 10.4034C18.4695 5.33076 14.1371 1.90511 9.45027 2.5641C4.76341 3.22308 1.34382 7.73863 1.29736 12.9916L1.964 12.8978Z" fill="#7EC182"/>
<path d="M2.6217 12.8059C2.7521 8.38591 5.65989 4.6204 9.62225 4.06238C13.5846 3.50527 17.2519 6.34585 18.3782 10.59L19.0359 10.4972C17.8567 5.84282 13.8593 2.71196 9.53749 3.31956C5.21574 3.92716 2.05367 8.06498 1.96484 12.8978L2.62252 12.805L2.6217 12.8059Z" fill="#5B89B2"/>
<path d="M3.21993 12.7211C3.38618 8.67616 6.06415 5.24781 9.70052 4.73667C13.3361 4.22553 16.7043 6.80287 17.7809 10.673L18.3791 10.5891C17.2536 6.34582 13.5855 3.50434 9.6231 4.06146C5.66075 4.61858 2.75295 8.38408 2.62256 12.805L3.22074 12.7211H3.21993Z" fill="#9C7DB5"/>
<path d="M4.15803 14.6493C4.14907 14.5637 4.1401 14.479 4.13195 14.3933C4.12625 14.3365 4.07083 14.3113 4.02764 14.3401C3.75789 14.5267 2.71718 15.0108 2.40016 15.0523C2.38223 15.055 2.36511 15.0568 2.34718 15.0586C2.32355 15.0613 2.32518 15.0622 2.31377 15.0424C2.29095 15.0036 2.28036 14.9441 2.26487 14.9009C2.23472 14.8134 2.20375 14.726 2.1736 14.6385C2.11084 14.4564 2.04728 14.2752 1.98452 14.0931C1.9234 13.9182 1.85087 13.7433 1.80116 13.5639C1.77752 13.4783 1.78078 13.4008 1.80931 13.3178C1.83457 13.2439 1.86717 13.1718 1.87858 13.0934C1.90303 12.9293 1.82642 12.7869 1.77834 12.6372C1.73188 12.4903 1.7816 12.3037 1.67402 12.1847C1.564 12.0621 1.40427 12.136 1.33092 12.2649C1.26491 12.3794 1.27958 12.5056 1.30077 12.6309C1.25432 12.584 1.20868 12.5372 1.16222 12.4894C1.08806 12.4137 1.01309 12.3154 0.916106 12.2775C0.754743 12.2144 0.600714 12.356 0.599084 12.5236C0.562411 12.5281 0.525738 12.5471 0.498029 12.5768C0.46217 12.6156 0.447501 12.6643 0.443426 12.7157C0.357855 12.7021 0.264949 12.749 0.218496 12.8328C0.13537 12.9843 0.194862 13.1655 0.283693 13.2944C0.431202 13.5081 0.657762 13.673 0.884322 13.765C0.940554 13.7875 1.00168 13.8064 1.06361 13.8155C1.31707 14.3383 1.564 14.8666 1.82642 15.384C1.93237 15.5941 2.10025 15.8772 2.35289 15.805C2.47839 15.769 2.59982 15.6987 2.71881 15.6437C2.8435 15.5869 3.7041 15.1677 3.82879 15.11C3.89398 15.0802 3.96 15.0505 4.02519 15.0198C4.0855 14.9928 4.15722 14.9685 4.17352 14.8891C4.189 14.8143 4.16537 14.7224 4.15722 14.6475L4.15803 14.6493Z" fill="#EF6767"/>
<path d="M4.15803 14.6493C4.14907 14.5637 4.1401 14.479 4.13195 14.3933C4.12625 14.3365 4.07083 14.3113 4.02764 14.3401C3.75789 14.5267 2.71718 15.0108 2.40016 15.0523C2.38223 15.055 2.36511 15.0568 2.34718 15.0586C2.32355 15.0613 2.32518 15.0622 2.31377 15.0424C2.29095 15.0036 2.28036 14.9441 2.26487 14.9009C2.23472 14.8134 2.20375 14.726 2.1736 14.6385C2.11084 14.4564 2.04728 14.2752 1.98452 14.0931C1.9234 13.9182 1.85087 13.7433 1.80116 13.5639C1.77752 13.4783 1.78078 13.4008 1.80931 13.3178C1.83457 13.2439 1.86717 13.1718 1.87858 13.0934C1.90303 12.9293 1.82642 12.7869 1.77834 12.6372C1.73188 12.4903 1.7816 12.3037 1.67402 12.1847C1.564 12.0621 1.40427 12.136 1.33092 12.2649C1.26491 12.3794 1.27958 12.5056 1.30077 12.6309C1.25432 12.584 1.20868 12.5372 1.16222 12.4894C1.08806 12.4137 1.01309 12.3154 0.916106 12.2775C0.754743 12.2144 0.600714 12.356 0.599084 12.5236C0.562411 12.5281 0.525738 12.5471 0.498029 12.5768C0.46217 12.6156 0.447501 12.6643 0.443426 12.7157C0.357855 12.7021 0.264949 12.749 0.218496 12.8328C0.13537 12.9843 0.194862 13.1655 0.283693 13.2944C0.431202 13.5081 0.657762 13.673 0.884322 13.765C0.940554 13.7875 1.00168 13.8064 1.06361 13.8155C1.31707 14.3383 1.564 14.8666 1.82642 15.384C1.93237 15.5941 2.10025 15.8772 2.35289 15.805C2.47839 15.769 2.59982 15.6987 2.71881 15.6437C2.8435 15.5869 3.7041 15.1677 3.82879 15.11C3.89398 15.0802 3.96 15.0505 4.02519 15.0198C4.0855 14.9928 4.15722 14.9685 4.17352 14.8891C4.189 14.8143 4.16537 14.7224 4.15722 14.6475L4.15803 14.6493Z" fill="url(#paint0_radial_326_1077)"/>
<path d="M17.6113 12.6517C17.5967 12.5669 17.5812 12.4831 17.5665 12.3983C17.5567 12.3424 17.6024 12.2992 17.6513 12.3127C17.9593 12.401 19.084 12.5155 19.3969 12.4488C19.414 12.4452 19.432 12.4416 19.4491 12.4371C19.4727 12.4317 19.4711 12.4335 19.4768 12.411C19.4882 12.3668 19.4825 12.3064 19.4849 12.2595C19.4898 12.1658 19.4955 12.072 19.5004 11.9791C19.511 11.7844 19.5216 11.5906 19.5322 11.3959C19.5428 11.2084 19.564 11.0182 19.5624 10.8307C19.5624 10.7405 19.5379 10.6684 19.4874 10.5981C19.4434 10.5368 19.3929 10.4782 19.3603 10.4079C19.2918 10.2591 19.3268 10.0977 19.3309 9.93999C19.3358 9.78403 19.2372 9.62357 19.3065 9.47302C19.3782 9.31886 19.5501 9.33689 19.6553 9.43516C19.749 9.5226 19.7694 9.64791 19.7832 9.77411L19.8769 9.59382C19.9267 9.49736 19.9715 9.37836 20.0538 9.30895C20.1907 9.19536 20.3757 9.2783 20.4238 9.43786C20.4605 9.42975 20.4996 9.43516 20.5346 9.45499C20.5794 9.48023 20.6072 9.5217 20.6243 9.56948C20.7017 9.52801 20.8036 9.54153 20.8704 9.60644C20.991 9.72273 20.9837 9.91565 20.9339 10.0689C20.8516 10.3213 20.6805 10.5548 20.4898 10.718C20.4425 10.7585 20.3896 10.7964 20.3325 10.8252C20.2331 11.4085 20.1418 11.9945 20.0334 12.575C19.9894 12.8103 19.9071 13.1367 19.6463 13.152C19.5175 13.1592 19.3823 13.1331 19.2535 13.1204C19.119 13.1078 18.1843 12.9951 18.0498 12.9825C17.9789 12.9762 17.9088 12.969 17.8379 12.9627C17.7735 12.9564 17.6985 12.9573 17.6611 12.8878C17.626 12.822 17.6236 12.7265 17.6105 12.6526L17.6113 12.6517Z" fill="#EF6767"/>
<path d="M17.6113 12.6517C17.5967 12.5669 17.5812 12.4831 17.5665 12.3983C17.5567 12.3424 17.6024 12.2992 17.6513 12.3127C17.9593 12.401 19.084 12.5155 19.3969 12.4488C19.414 12.4452 19.432 12.4416 19.4491 12.4371C19.4727 12.4317 19.4711 12.4335 19.4768 12.411C19.4882 12.3668 19.4825 12.3064 19.4849 12.2595C19.4898 12.1658 19.4955 12.072 19.5004 11.9791C19.511 11.7844 19.5216 11.5906 19.5322 11.3959C19.5428 11.2084 19.564 11.0182 19.5624 10.8307C19.5624 10.7405 19.5379 10.6684 19.4874 10.5981C19.4434 10.5368 19.3929 10.4782 19.3603 10.4079C19.2918 10.2591 19.3268 10.0977 19.3309 9.93999C19.3358 9.78403 19.2372 9.62357 19.3065 9.47302C19.3782 9.31886 19.5501 9.33689 19.6553 9.43516C19.749 9.5226 19.7694 9.64791 19.7832 9.77411L19.8769 9.59382C19.9267 9.49736 19.9715 9.37836 20.0538 9.30895C20.1907 9.19536 20.3757 9.2783 20.4238 9.43786C20.4605 9.42975 20.4996 9.43516 20.5346 9.45499C20.5794 9.48023 20.6072 9.5217 20.6243 9.56948C20.7017 9.52801 20.8036 9.54153 20.8704 9.60644C20.991 9.72273 20.9837 9.91565 20.9339 10.0689C20.8516 10.3213 20.6805 10.5548 20.4898 10.718C20.4425 10.7585 20.3896 10.7964 20.3325 10.8252C20.2331 11.4085 20.1418 11.9945 20.0334 12.575C19.9894 12.8103 19.9071 13.1367 19.6463 13.152C19.5175 13.1592 19.3823 13.1331 19.2535 13.1204C19.119 13.1078 18.1843 12.9951 18.0498 12.9825C17.9789 12.9762 17.9088 12.969 17.8379 12.9627C17.7735 12.9564 17.6985 12.9573 17.6611 12.8878C17.626 12.822 17.6236 12.7265 17.6105 12.6526L17.6113 12.6517Z" fill="url(#paint1_radial_326_1077)"/>
<path d="M9.72414 20.3053L9.37452 21.6197C9.37452 21.6197 8.16512 22.0497 8.33137 22.5951L10.4177 22.3886L10.6459 20.3774L9.72414 20.3053Z" fill="#EF6767"/>
<path d="M9.72414 20.3053L9.37452 21.6197C9.37452 21.6197 8.16512 22.0497 8.33137 22.5951L10.4177 22.3886L10.6459 20.3774L9.72414 20.3053Z" fill="url(#paint2_radial_326_1077)"/>
<path d="M13.782 19.6382L14.5741 20.6911C14.5741 20.6911 14.2229 22.0415 14.7257 22.1921L15.733 20.1601L14.35 18.8304L13.7828 19.6373L13.782 19.6382Z" fill="#EF6767"/>
<path d="M13.782 19.6382L14.5741 20.6911C14.5741 20.6911 14.2229 22.0415 14.7257 22.1921L15.733 20.1601L14.35 18.8304L13.7828 19.6373L13.782 19.6382Z" fill="url(#paint3_radial_326_1077)"/>
<path d="M12.2782 21.4358C12.0859 21.6468 11.7933 21.699 11.5504 21.5656L8.09334 19.6671C4.42682 17.6856 3.80418 15.0452 3.80418 15.0452C3.07886 11.5609 5.21733 10.7478 5.21733 10.7478C7.83418 9.776 9.78928 11.3455 10.5431 12.109C11.0411 11.1219 12.4493 8.95114 15.2104 8.96195C15.2104 8.96195 17.4719 8.9881 17.7751 12.5481C17.7751 12.5481 17.9357 15.2706 15.0197 18.4294L12.2782 21.4358Z" fill="#EF6767"/>
<path d="M12.1596 14.531C12.6508 14.4875 13.0165 14.0024 12.9763 13.4476C12.9362 12.8927 12.5053 12.4782 12.014 12.5218C11.5228 12.5653 11.1571 13.0504 11.1973 13.6052C11.2374 14.1601 11.6683 14.5746 12.1596 14.531Z" fill="white"/>
<path d="M11.1607 13.5784C11.2096 14.1004 11.6236 14.4799 12.0857 14.4267C12.5478 14.3735 12.8828 13.9066 12.8339 13.3855C12.785 12.8635 12.371 12.484 11.9089 12.5372C11.4468 12.5904 11.1118 13.0574 11.1607 13.5784Z" fill="#403E3D"/>
<path d="M8.52608 13.9381C8.57823 14.4916 9.0175 14.8945 9.50729 14.8378C9.9979 14.781 10.3532 14.286 10.3011 13.7325C10.2489 13.179 9.80965 12.7761 9.31985 12.8329C8.82924 12.8896 8.47392 13.3846 8.52608 13.9381Z" fill="white"/>
<path d="M8.50328 13.8669C8.55217 14.3888 8.96618 14.7684 9.42826 14.7152C9.89035 14.662 10.2253 14.195 10.1764 13.6739C10.1275 13.152 9.7135 12.7725 9.25141 12.8257C8.78933 12.8788 8.45438 13.3458 8.50328 13.8669Z" fill="#403E3D"/>
</g>
<defs>
<radialGradient id="paint0_radial_326_1077" cx="0" cy="0" r="1" gradientUnits="userSpaceOnUse" gradientTransform="translate(4.40986 14.8945) scale(2.88334 3.18946)">
<stop stop-color="#C61C24" stop-opacity="0.9"/>
<stop offset="1" stop-color="#C61C24" stop-opacity="0"/>
</radialGradient>
<radialGradient id="paint1_radial_326_1077" cx="0" cy="0" r="1" gradientUnits="userSpaceOnUse" gradientTransform="translate(17.9161 13.0095) scale(1.62585 1.79846)">
<stop stop-color="#C61C24" stop-opacity="0.9"/>
<stop offset="1" stop-color="#C61C24" stop-opacity="0"/>
</radialGradient>
<radialGradient id="paint2_radial_326_1077" cx="0" cy="0" r="1" gradientUnits="userSpaceOnUse" gradientTransform="translate(9.89528 20.5379) scale(1.36262 1.50728)">
<stop stop-color="#C61C24" stop-opacity="0.9"/>
<stop offset="1" stop-color="#C61C24" stop-opacity="0"/>
</radialGradient>
<radialGradient id="paint3_radial_326_1077" cx="0" cy="0" r="1" gradientUnits="userSpaceOnUse" gradientTransform="translate(14.0513 19.6099) rotate(-58.7797) scale(1.46395 1.40295)">
<stop stop-color="#C61C24" stop-opacity="0.9"/>
<stop offset="1" stop-color="#C61C24" stop-opacity="0"/>
</radialGradient>
<clipPath id="clip0_326_1077">
<rect width="21" height="25" fill="white" transform="translate(0 1)"/>
</clipPath>
</defs>
</svg>
