<svg width="10" height="15" viewBox="0 0 10 15" fill="none" xmlns="http://www.w3.org/2000/svg">
<path d="M8.89047 14.5591C8.5638 14.7224 8.2838 14.7691 8.05047 14.6991C7.7938 14.6524 7.49047 14.4424 7.14047 14.0691C6.72047 13.6724 6.1838 13.3107 5.53047 12.9841C5.01714 12.7041 4.62047 12.4707 4.34047 12.2841C4.06047 12.0974 3.74547 11.8641 3.39547 11.5841C3.04547 11.3274 2.49714 10.8957 1.75047 10.2891C1.2838 9.8224 0.992137 9.58906 0.87547 9.58906C0.758804 9.58906 0.59547 9.46073 0.38547 9.20406C0.17547 8.97073 0.0704701 8.78406 0.0704701 8.64406C0.0704701 8.50406 0.14047 8.3174 0.280471 8.08406C0.723804 7.4074 2.03047 5.87906 4.20047 3.49906C4.83047 2.8224 5.14547 2.4374 5.14547 2.34406C5.14547 2.25073 5.28547 2.0524 5.56547 1.74906C5.82214 1.44573 6.03214 1.16573 6.19547 0.909063C6.38214 0.535729 6.6738 0.314063 7.07047 0.244063C7.46714 0.197396 7.80547 0.314063 8.08547 0.594063C8.57547 1.06073 8.51714 1.53906 7.91047 2.02906C7.53714 2.3324 7.31547 2.53073 7.24547 2.62406C5.89214 4.07073 5.04047 5.05073 4.69047 5.56406C4.13047 6.38073 3.6288 7.04573 3.18547 7.55906C2.8588 7.90906 2.69547 8.13073 2.69547 8.22406C2.69547 8.4574 3.1038 8.9474 3.92047 9.69406C4.7138 10.4407 5.43714 10.9891 6.09047 11.3391C8.33047 12.5291 9.48547 13.2057 9.55547 13.3691C9.67214 13.5324 9.66047 13.7307 9.52047 13.9641C9.38047 14.2207 9.17047 14.4191 8.89047 14.5591Z" fill="black"/>
</svg>
