<svg width="293" height="347" viewBox="0 0 293 347" fill="none" xmlns="http://www.w3.org/2000/svg">
<path d="M61.84 23.416C61.968 23.256 62.136 23.184 62.344 23.2C62.472 23.232 62.552 23.352 62.584 23.56C62.616 23.752 62.624 24.16 62.608 24.784C62.56 25.808 62.592 26.36 62.704 26.44C62.784 26.504 63.2 26.48 63.952 26.368C64.688 26.24 65.144 26.248 65.32 26.392C65.512 26.536 65.584 26.68 65.536 26.824C65.488 26.968 65.256 27.32 64.84 27.88C64.408 28.424 64.16 28.808 64.096 29.032C64.048 29.256 64.152 29.408 64.408 29.488C64.84 29.632 65.272 29.832 65.704 30.088C66.152 30.328 66.408 30.512 66.472 30.64C66.536 30.832 66.472 31.024 66.28 31.216C66.152 31.344 66.008 31.4 65.848 31.384C65.704 31.352 65.384 31.224 64.888 31C64.056 30.616 63.584 30.392 63.472 30.328C63.392 30.248 63.296 30.24 63.184 30.304C63.072 30.368 62.944 30.48 62.8 30.64C62.656 30.784 62.448 31.024 62.176 31.36C61.76 31.856 61.456 32.184 61.264 32.344C61.072 32.504 60.864 32.584 60.64 32.584C59.952 32.584 59.824 32.28 60.256 31.672L60.904 30.928C61.656 30.112 62.272 29.4 62.752 28.792C63.248 28.184 63.496 27.816 63.496 27.688C63.496 27.544 63.336 27.504 63.016 27.568C62.712 27.648 62.216 27.728 61.528 27.808C60.856 27.872 60.296 27.96 59.848 28.072C59.016 28.248 58.6 28.128 58.6 27.712C58.6 27.424 58.696 27.224 58.888 27.112C59.096 26.984 59.496 26.888 60.088 26.824C60.872 26.728 61.288 26.616 61.336 26.488C61.384 26.36 61.44 25.848 61.504 24.952C61.584 24.104 61.696 23.592 61.84 23.416ZM69.04 27.544C69.168 27.384 69.28 27.312 69.376 27.328C69.472 27.344 69.592 27.432 69.736 27.592C69.832 27.704 69.88 28.024 69.88 28.552C69.88 29.08 69.848 30.072 69.784 31.528C69.72 32.488 69.68 33.392 69.664 34.24C69.648 35.088 69.656 35.584 69.688 35.728C69.752 36.208 69.608 36.576 69.256 36.832C68.92 37.04 68.672 36.968 68.512 36.616L68.488 36.52C68.424 36.344 68.424 35.2 68.488 33.088C68.552 30.96 68.64 29.504 68.752 28.72C68.816 28.08 68.912 27.688 69.04 27.544ZM63.376 32.56C63.52 32.448 63.688 32.416 63.88 32.464C63.992 32.48 64.056 32.568 64.072 32.728C64.104 32.872 64.112 33.168 64.096 33.616L64.048 34.672L65.464 34.552C66.12 34.504 66.52 34.496 66.664 34.528C66.824 34.544 66.936 34.656 67 34.864C67.096 35.184 67.024 35.432 66.784 35.608C66.56 35.784 66.208 35.856 65.728 35.824C65.216 35.808 64.536 35.872 63.688 36.016C62.856 36.144 62.224 36.304 61.792 36.496C61.344 36.672 60.984 36.696 60.712 36.568C60.456 36.44 60.32 36.328 60.304 36.232C60.288 36.12 60.376 35.928 60.568 35.656C60.776 35.4 61.192 35.224 61.816 35.128C62.264 35.064 62.528 35 62.608 34.936C62.704 34.872 62.752 34.688 62.752 34.384C62.752 34.016 62.816 33.648 62.944 33.28C63.072 32.896 63.216 32.656 63.376 32.56ZM74.5488 23.248C75.4608 23.104 76.0928 23.024 76.4448 23.008C76.8128 22.992 77.0688 23.04 77.2128 23.152C77.3728 23.248 77.4528 24.16 77.4528 25.888C77.4528 27.6 77.3728 28.56 77.2128 28.768C77.0848 28.928 76.8688 29.008 76.5648 29.008H76.0848L76.1808 26.656C76.1968 25.664 76.1888 25.024 76.1568 24.736C76.1408 24.432 76.0848 24.28 75.9888 24.28C75.7808 24.28 75.0608 24.384 73.8288 24.592C72.8048 24.752 72.1488 24.816 71.8608 24.784C71.5728 24.752 71.4288 24.592 71.4288 24.304C71.4288 24.096 71.6448 23.92 72.0768 23.776C72.5088 23.616 73.3328 23.44 74.5488 23.248ZM74.7168 30.568C77.2928 30.152 78.7488 30.064 79.0848 30.304C79.1968 30.384 79.3008 30.536 79.3968 30.76C79.4288 30.872 79.4288 30.968 79.3968 31.048C79.3648 31.128 79.2688 31.2 79.1088 31.264C78.9648 31.312 78.7648 31.36 78.5088 31.408C78.2528 31.456 77.9328 31.496 77.5488 31.528C76.7648 31.576 75.8528 31.68 74.8128 31.84C74.4928 31.888 74.1088 31.944 73.6608 32.008C73.2128 32.072 72.9808 32.112 72.9648 32.128C72.7408 32.16 72.4288 32.216 72.0288 32.296C71.6928 32.36 71.4368 32.336 71.2607 32.224C71.1008 32.112 71.0448 31.912 71.0928 31.624C71.1088 31.368 71.2768 31.2 71.5968 31.12C71.9168 31.024 72.9568 30.84 74.7168 30.568ZM73.4928 34.216C73.6528 33.992 73.8608 33.904 74.1168 33.952C74.3088 33.984 74.4288 34.072 74.4768 34.216C74.5248 34.344 74.5488 34.672 74.5488 35.2C74.5808 35.984 74.6128 36.4 74.6448 36.448C74.7088 36.496 75.4528 36.336 76.8768 35.968C78.2048 35.632 79.1248 35.456 79.6368 35.44C80.1648 35.424 80.4768 35.544 80.5728 35.8C80.6208 36.008 80.6128 36.184 80.5488 36.328C80.4848 36.456 80.3488 36.56 80.1408 36.64C79.9488 36.704 79.6928 36.736 79.3728 36.736C78.7808 36.736 77.9808 36.896 76.9728 37.216C75.0848 37.84 73.9968 37.992 73.7088 37.672C73.5328 37.432 73.4128 36.84 73.3488 35.896C73.2848 34.952 73.3328 34.392 73.4928 34.216ZM91.3264 23.464C91.8384 23.272 92.2704 23.176 92.6224 23.176C92.9744 23.176 93.4304 23.312 93.9904 23.584C94.5664 23.856 94.9664 24.136 95.1904 24.424C95.4144 24.712 95.5984 25.2 95.7424 25.888C95.8864 26.576 95.9264 27.136 95.8624 27.568C95.7664 28.048 95.4864 28.536 95.0224 29.032C94.5744 29.528 94.0944 29.864 93.5824 30.04C92.7504 30.312 91.9744 30.32 91.2544 30.064C90.5344 29.792 89.9424 29.272 89.4784 28.504C88.9024 27.528 88.8544 26.488 89.3344 25.384C89.5584 24.888 89.8224 24.488 90.1264 24.184C90.4464 23.88 90.8464 23.64 91.3264 23.464ZM94.3744 25.504C94.1984 25.088 93.9264 24.792 93.5584 24.616C93.2064 24.44 92.8304 24.4 92.4304 24.496C92.0464 24.576 91.6784 24.728 91.3264 24.952C90.9744 25.176 90.7024 25.504 90.5104 25.936C90.3344 26.352 90.2864 26.784 90.3664 27.232C90.4304 27.488 90.5184 27.728 90.6304 27.952C90.7584 28.16 90.9104 28.344 91.0864 28.504C91.2784 28.664 91.4864 28.792 91.7104 28.888C91.9504 28.968 92.2064 29.008 92.4784 29.008C92.8304 29.008 93.0944 28.968 93.2704 28.888C93.4464 28.792 93.6784 28.592 93.9664 28.288C94.6864 27.52 94.8224 26.592 94.3744 25.504ZM98.2864 23.752C98.4144 23.368 98.7184 23.264 99.1984 23.44C99.3744 23.52 99.4544 24.744 99.4384 27.112C99.4384 29.464 99.3504 30.752 99.1744 30.976C98.9824 31.216 98.8064 31.312 98.6464 31.264C98.4864 31.2 98.3744 31.016 98.3104 30.712C98.2304 30.328 98.1824 29.144 98.1664 27.16C98.1664 25.16 98.2064 24.024 98.2864 23.752ZM94.6864 32.032C95.6464 31.936 96.2864 31.888 96.6064 31.888C96.9264 31.872 97.1824 31.896 97.3744 31.96C97.6624 32.072 97.8864 32.408 98.0464 32.968C98.2224 33.528 98.2864 34.112 98.2384 34.72C98.2064 35.328 98.0624 35.752 97.8064 35.992C97.5984 36.2 97.3744 36.328 97.1344 36.376C96.8944 36.408 96.3904 36.4 95.6224 36.352C94.9024 36.336 94.4304 36.384 94.2064 36.496C93.9984 36.592 93.8944 36.832 93.8944 37.216C93.8944 37.568 93.9744 37.8 94.1344 37.912C94.3104 38.04 94.5504 38.032 94.8544 37.888C95.1104 37.744 95.7824 37.664 96.8704 37.648C97.6864 37.632 98.1584 37.64 98.2864 37.672C98.4304 37.704 98.5024 37.84 98.5024 38.08C98.5024 38.336 98.3664 38.512 98.0944 38.608C97.8384 38.704 96.9504 38.872 95.4304 39.112L93.4864 39.448L93.1024 39.04C92.8304 38.784 92.6704 38.264 92.6224 37.48C92.5584 36.584 92.6464 36.016 92.8864 35.776C93.1424 35.536 93.7904 35.376 94.8304 35.296C95.9184 35.232 96.5344 35.128 96.6784 34.984C96.8544 34.856 96.9344 34.552 96.9184 34.072C96.9024 33.576 96.7984 33.288 96.6064 33.208C96.4464 33.144 95.9664 33.168 95.1664 33.28C94.3824 33.392 93.6944 33.528 93.1024 33.688C92.6064 33.816 92.2944 33.8 92.1664 33.64C91.8624 33.256 92.0704 32.888 92.7904 32.536C93.2864 32.28 93.9184 32.112 94.6864 32.032ZM104.03 24.424C105.582 24.248 106.566 24.16 106.982 24.16C107.398 24.144 107.662 24.208 107.774 24.352C107.886 24.496 107.886 24.68 107.774 24.904C107.678 25.112 107.39 25.544 106.91 26.2L106.286 27.016L106.718 27.352C107.006 27.576 107.198 27.688 107.294 27.688C107.374 27.688 107.67 27.848 108.182 28.168C108.678 28.52 108.926 28.832 108.926 29.104C108.926 29.744 108.31 29.688 107.078 28.936C106.806 28.76 106.614 28.64 106.502 28.576C106.39 28.512 106.246 28.44 106.07 28.36C105.894 28.28 105.774 28.232 105.71 28.216C105.662 28.184 105.566 28.176 105.422 28.192C105.278 28.208 105.182 28.232 105.134 28.264C105.102 28.296 105.014 28.368 104.87 28.48C104.742 28.576 104.638 28.672 104.558 28.768C104.478 28.848 104.35 28.992 104.174 29.2C103.758 29.648 103.446 29.952 103.238 30.112C103.03 30.272 102.846 30.336 102.686 30.304C102.174 30.224 102.07 29.936 102.374 29.44C102.614 29.072 103.134 28.488 103.934 27.688C105.374 26.248 105.95 25.496 105.662 25.432C105.63 25.416 105.598 25.408 105.566 25.408C105.454 25.408 104.686 25.544 103.262 25.816C102.35 25.976 101.742 26.064 101.438 26.08C101.15 26.096 100.95 26.048 100.838 25.936C100.662 25.76 100.614 25.568 100.694 25.36C100.79 25.136 100.974 24.976 101.246 24.88C101.47 24.784 102.398 24.632 104.03 24.424ZM108.014 31.912C108.366 31.72 108.686 31.656 108.974 31.72C109.278 31.784 109.486 31.968 109.598 32.272C109.694 32.512 109.71 32.704 109.646 32.848C109.582 32.976 109.438 33.072 109.214 33.136C109.006 33.184 108.702 33.192 108.302 33.16C107.614 33.144 107.222 33.216 107.126 33.376C107.014 33.552 106.958 34.36 106.958 35.8C106.958 36.872 106.934 37.504 106.886 37.696C106.854 37.888 106.726 38 106.502 38.032C106.198 38.08 105.998 38.016 105.902 37.84C105.774 37.632 105.734 36.88 105.782 35.584C105.798 34.24 105.782 33.528 105.734 33.448C105.686 33.4 105.15 33.44 104.126 33.568C102.83 33.728 102.03 33.8 101.726 33.784C101.422 33.768 101.254 33.64 101.222 33.4C101.206 33.304 101.238 33.184 101.318 33.04C101.398 32.896 101.486 32.776 101.582 32.68C101.79 32.504 102.158 32.384 102.686 32.32C103.23 32.256 104.35 32.216 106.046 32.2C107.07 32.168 107.726 32.072 108.014 31.912ZM113.194 23.464C113.706 23.272 114.138 23.176 114.49 23.176C114.842 23.176 115.298 23.312 115.858 23.584C116.434 23.856 116.834 24.136 117.058 24.424C117.282 24.712 117.466 25.2 117.61 25.888C117.754 26.576 117.794 27.136 117.73 27.568C117.634 28.048 117.354 28.536 116.89 29.032C116.442 29.528 115.962 29.864 115.45 30.04C114.618 30.312 113.842 30.32 113.122 30.064C112.402 29.792 111.81 29.272 111.346 28.504C110.77 27.528 110.722 26.488 111.202 25.384C111.426 24.888 111.69 24.488 111.994 24.184C112.314 23.88 112.714 23.64 113.194 23.464ZM116.242 25.504C116.066 25.088 115.794 24.792 115.426 24.616C115.074 24.44 114.698 24.4 114.298 24.496C113.914 24.576 113.546 24.728 113.194 24.952C112.842 25.176 112.57 25.504 112.378 25.936C112.202 26.352 112.154 26.784 112.234 27.232C112.298 27.488 112.386 27.728 112.498 27.952C112.626 28.16 112.778 28.344 112.954 28.504C113.146 28.664 113.354 28.792 113.578 28.888C113.818 28.968 114.074 29.008 114.346 29.008C114.698 29.008 114.962 28.968 115.138 28.888C115.314 28.792 115.546 28.592 115.834 28.288C116.554 27.52 116.69 26.592 116.242 25.504ZM120.154 23.752C120.282 23.368 120.586 23.264 121.066 23.44C121.242 23.52 121.322 24.744 121.306 27.112C121.306 29.464 121.218 30.752 121.042 30.976C120.85 31.216 120.674 31.312 120.514 31.264C120.354 31.2 120.242 31.016 120.178 30.712C120.098 30.328 120.05 29.144 120.034 27.16C120.034 25.16 120.074 24.024 120.154 23.752ZM116.554 32.032C117.514 31.936 118.154 31.888 118.474 31.888C118.794 31.872 119.05 31.896 119.242 31.96C119.53 32.072 119.754 32.408 119.914 32.968C120.09 33.528 120.154 34.112 120.106 34.72C120.074 35.328 119.93 35.752 119.674 35.992C119.466 36.2 119.242 36.328 119.002 36.376C118.762 36.408 118.258 36.4 117.49 36.352C116.77 36.336 116.298 36.384 116.074 36.496C115.866 36.592 115.762 36.832 115.762 37.216C115.762 37.568 115.842 37.8 116.002 37.912C116.178 38.04 116.418 38.032 116.722 37.888C116.978 37.744 117.65 37.664 118.738 37.648C119.554 37.632 120.026 37.64 120.154 37.672C120.298 37.704 120.37 37.84 120.37 38.08C120.37 38.336 120.234 38.512 119.962 38.608C119.706 38.704 118.818 38.872 117.298 39.112L115.354 39.448L114.97 39.04C114.698 38.784 114.538 38.264 114.49 37.48C114.426 36.584 114.514 36.016 114.754 35.776C115.01 35.536 115.658 35.376 116.698 35.296C117.786 35.232 118.402 35.128 118.546 34.984C118.722 34.856 118.802 34.552 118.786 34.072C118.77 33.576 118.666 33.288 118.474 33.208C118.314 33.144 117.834 33.168 117.034 33.28C116.25 33.392 115.562 33.528 114.97 33.688C114.474 33.816 114.162 33.8 114.034 33.64C113.73 33.256 113.938 32.888 114.658 32.536C115.154 32.28 115.786 32.112 116.554 32.032ZM139.069 25.936C139.245 25.744 139.389 25.648 139.501 25.648C139.613 25.632 139.741 25.712 139.885 25.888C140.029 26.048 140.037 26.808 139.909 28.168C139.813 29.544 139.813 30.296 139.909 30.424C140.037 30.536 140.629 30.512 141.685 30.352C142.565 30.224 143.125 30.2 143.365 30.28C143.605 30.344 143.693 30.56 143.629 30.928C143.597 31.152 143.437 31.312 143.149 31.408C142.861 31.488 142.077 31.6 140.797 31.744L139.717 31.864V33.928C139.717 34.872 139.693 35.464 139.645 35.704C139.597 35.928 139.477 36.088 139.285 36.184C138.933 36.376 138.709 36.312 138.613 35.992C138.517 35.656 138.477 34.816 138.493 33.472C138.557 28.832 138.749 26.32 139.069 25.936ZM133.765 26.176C133.861 26.176 133.957 26.208 134.053 26.272C134.149 26.32 134.229 26.384 134.293 26.464C134.373 26.528 134.413 26.584 134.413 26.632C134.413 26.792 134.165 27.224 133.669 27.928C133.157 28.616 132.901 29.04 132.901 29.2C132.901 29.344 133.381 29.872 134.341 30.784C135.477 31.888 135.901 32.552 135.613 32.776C135.517 32.856 135.373 32.904 135.181 32.92C134.989 32.952 134.781 32.888 134.557 32.728C134.333 32.568 133.989 32.232 133.525 31.72C133.029 31.192 132.685 30.872 132.493 30.76C132.317 30.632 132.181 30.624 132.085 30.736C131.941 30.896 131.725 31.304 131.437 31.96C131.149 32.616 131.005 33.048 131.005 33.256C131.005 33.464 130.909 33.6 130.717 33.664C130.541 33.712 130.333 33.672 130.093 33.544C129.789 33.384 129.677 33.128 129.757 32.776C129.837 32.424 130.165 31.72 130.741 30.664C131.429 29.4 131.773 28.736 131.773 28.672C131.773 28.624 131.853 28.488 132.013 28.264C132.173 28.04 132.357 27.792 132.565 27.52C132.789 27.232 132.989 26.992 133.165 26.8L133.765 26.176ZM147.251 22.216C147.747 21.992 148.283 21.88 148.859 21.88C149.451 21.864 149.899 21.96 150.203 22.168C151.147 22.792 151.771 23.488 152.075 24.256C152.395 25.024 152.371 25.84 152.003 26.704C151.683 27.44 151.155 27.992 150.419 28.36C149.699 28.712 148.851 28.832 147.875 28.72C147.123 28.64 146.571 28.48 146.219 28.24C145.883 28 145.547 27.544 145.211 26.872C144.987 26.408 144.859 26.08 144.827 25.888C144.811 25.696 144.859 25.384 144.971 24.952C145.115 24.408 145.403 23.872 145.835 23.344C146.283 22.816 146.755 22.44 147.251 22.216ZM150.419 23.752C150.051 23.336 149.627 23.104 149.147 23.056C148.699 23.008 148.347 23.04 148.091 23.152C147.835 23.248 147.491 23.496 147.059 23.896C146.627 24.312 146.347 24.688 146.219 25.024C146.107 25.344 146.123 25.696 146.267 26.08C146.587 26.864 147.083 27.36 147.755 27.568C148.427 27.76 149.131 27.616 149.867 27.136C150.379 26.816 150.739 26.488 150.947 26.152C151.123 25.816 151.155 25.424 151.043 24.976C150.947 24.528 150.739 24.12 150.419 23.752ZM147.083 29.584C147.163 29.44 147.283 29.368 147.443 29.368C147.907 29.368 148.139 29.912 148.139 31C148.139 31.8 148.187 32.224 148.283 32.272C148.379 32.336 148.675 32.32 149.171 32.224L149.915 32.128L149.939 31.144C149.955 30.456 150.011 30.024 150.107 29.848C150.203 29.656 150.403 29.584 150.707 29.632C150.963 29.648 151.107 29.712 151.139 29.824C151.187 29.92 151.203 30.2 151.187 30.664C151.171 31.112 151.179 31.4 151.211 31.528C151.259 31.656 151.395 31.768 151.619 31.864C151.971 32.024 152.267 32.024 152.507 31.864C152.859 31.64 153.179 31.648 153.467 31.888C153.755 32.112 153.803 32.4 153.611 32.752C153.579 32.816 153.523 32.872 153.443 32.92C153.379 32.968 153.267 33.008 153.107 33.04C152.963 33.072 152.779 33.104 152.555 33.136C152.331 33.152 152.027 33.176 151.643 33.208C150.507 33.272 149.459 33.44 148.499 33.712C147.379 34 146.635 34.168 146.267 34.216C145.899 34.248 145.675 34.184 145.595 34.024C145.419 33.528 145.651 33.144 146.291 32.872C146.579 32.744 146.747 32.608 146.795 32.464C146.859 32.32 146.899 31.896 146.915 31.192C146.963 30.216 147.019 29.68 147.083 29.584ZM148.859 34.624C149.419 34.432 149.875 34.336 150.227 34.336C150.579 34.32 150.955 34.4 151.355 34.576C151.915 34.816 152.283 35.048 152.459 35.272C152.651 35.48 152.763 35.824 152.795 36.304C152.859 36.944 152.779 37.496 152.555 37.96C152.331 38.44 151.939 38.856 151.379 39.208C150.659 39.672 149.923 39.84 149.171 39.712C148.419 39.584 147.771 39.184 147.227 38.512C147.035 38.24 146.915 38.008 146.867 37.816C146.819 37.624 146.811 37.32 146.843 36.904C146.955 35.784 147.627 35.024 148.859 34.624ZM151.019 37.768C151.787 37 151.915 36.392 151.403 35.944C150.891 35.496 150.219 35.416 149.387 35.704C148.891 35.88 148.547 36.072 148.355 36.28C148.179 36.488 148.091 36.768 148.091 37.12C148.091 37.536 148.227 37.856 148.499 38.08C148.787 38.32 149.171 38.44 149.651 38.44C149.923 38.44 150.155 38.392 150.347 38.296C150.539 38.216 150.763 38.04 151.019 37.768ZM166.352 26.248C166.496 26.088 166.64 26.008 166.784 26.008C167.056 26.008 167.224 26.168 167.288 26.488C167.352 26.792 167.36 27.464 167.312 28.504L167.216 30.592L168.8 30.472C169.648 30.408 170.232 30.424 170.552 30.52C170.872 30.6 171.032 30.792 171.032 31.096C171.032 31.304 170.904 31.44 170.648 31.504C170.408 31.568 169.76 31.64 168.704 31.72C167.696 31.784 167.176 31.84 167.144 31.888C167.096 31.936 167.064 32.616 167.048 33.928C167.016 34.872 166.976 35.448 166.928 35.656C166.88 35.848 166.744 36 166.52 36.112C166.312 36.224 166.16 36.272 166.064 36.256C165.984 36.24 165.896 36.16 165.8 36.016C165.624 35.808 165.584 35.488 165.68 35.056C165.84 33.952 165.976 31.808 166.088 28.624C166.136 27.2 166.224 26.408 166.352 26.248ZM158.504 27.04C159.992 26.848 160.944 26.76 161.36 26.776C161.776 26.776 161.984 26.896 161.984 27.136C161.984 27.44 161.864 27.832 161.624 28.312C161.4 28.792 161.104 29.264 160.736 29.728C160.384 30.128 160.184 30.392 160.136 30.52C160.104 30.648 160.16 30.824 160.304 31.048C160.464 31.336 160.84 31.712 161.432 32.176C162.296 32.832 162.648 33.376 162.488 33.808C162.376 34.096 162.144 34.192 161.792 34.096C161.456 33.984 161.08 33.696 160.664 33.232C160.12 32.704 159.784 32.336 159.656 32.128C159.56 31.936 159.432 31.84 159.272 31.84C159.112 31.84 158.808 32.104 158.36 32.632C157.928 33.16 157.688 33.552 157.64 33.808C157.576 34.064 157.432 34.248 157.208 34.36C157 34.472 156.752 34.488 156.464 34.408C155.76 34.248 155.832 33.688 156.68 32.728C156.92 32.456 157.4 31.88 158.12 31C158.616 30.36 159 29.92 159.272 29.68C159.576 29.36 159.808 29.056 159.968 28.768C160.128 28.528 160.208 28.376 160.208 28.312C160.224 28.248 160.16 28.192 160.016 28.144C159.808 28.048 159.048 28.136 157.736 28.408C157.128 28.536 156.608 28.64 156.176 28.72C155.76 28.784 155.504 28.816 155.408 28.816C155.168 28.816 155.016 28.728 154.952 28.552C154.888 28.36 154.936 28.144 155.096 27.904C155.24 27.696 155.52 27.544 155.936 27.448C156.352 27.336 157.208 27.2 158.504 27.04ZM183.188 24.184C183.636 23.688 184.036 23.472 184.388 23.536C184.58 23.568 184.676 23.688 184.676 23.896C184.676 24.12 184.58 24.312 184.388 24.472C183.892 24.888 184.068 25.328 184.916 25.792C186.58 26.704 187.468 27.312 187.58 27.616C187.628 27.728 187.628 27.864 187.58 28.024C187.548 28.184 187.484 28.328 187.388 28.456C187.292 28.568 187.196 28.624 187.1 28.624C186.972 28.624 186.644 28.416 186.116 28C185.732 27.696 185.204 27.352 184.532 26.968C183.876 26.568 183.468 26.368 183.308 26.368C183.228 26.368 182.972 26.696 182.54 27.352C182.108 28.008 181.756 28.616 181.484 29.176C181.292 29.544 181.148 29.76 181.052 29.824C180.972 29.872 180.796 29.848 180.524 29.752C180.428 29.72 180.332 29.68 180.236 29.632C180.156 29.568 180.084 29.504 180.02 29.44C179.972 29.376 179.948 29.32 179.948 29.272C179.948 29.096 180.292 28.528 180.98 27.568C181.652 26.544 182.092 25.848 182.3 25.48C182.524 25.032 182.82 24.6 183.188 24.184ZM186.668 31.48C187.18 31.32 187.644 31.336 188.06 31.528C188.492 31.704 188.644 31.96 188.516 32.296C188.436 32.488 188.252 32.632 187.964 32.728C187.676 32.824 187.396 32.84 187.124 32.776C186.82 32.712 186.468 32.712 186.068 32.776L185.516 32.896L185.468 35.248C185.452 36.912 185.436 37.8 185.42 37.912C185.42 38.136 185.236 38.248 184.868 38.248C184.676 38.248 184.532 38.216 184.436 38.152C184.34 38.104 184.26 37.968 184.196 37.744C184.132 37.536 184.1 37.24 184.1 36.856C184.116 36.456 184.124 35.92 184.124 35.248C184.156 34.208 184.156 33.584 184.124 33.376C184.108 33.168 184.012 33.072 183.836 33.088C183.708 33.12 183.1 33.168 182.012 33.232C181.836 33.248 181.636 33.264 181.412 33.28C181.204 33.296 181.02 33.312 180.86 33.328C180.7 33.328 180.54 33.336 180.38 33.352C180.22 33.368 180.108 33.376 180.044 33.376C179.804 33.408 179.644 33.4 179.564 33.352C179.5 33.288 179.46 33.152 179.444 32.944C179.396 32.672 179.436 32.472 179.564 32.344C179.708 32.216 179.964 32.12 180.332 32.056C180.7 31.992 181.308 31.952 182.156 31.936C184.508 31.84 186.012 31.688 186.668 31.48ZM257.759 24.28C257.967 23.88 258.271 23.816 258.671 24.088C258.767 24.136 258.815 24.4 258.815 24.88C258.831 25.344 258.807 26.224 258.743 27.52C258.647 29.456 258.599 30.8 258.599 31.552C258.599 31.904 258.575 32.12 258.527 32.2C258.479 32.264 258.319 32.296 258.047 32.296C257.775 32.296 257.607 32.248 257.543 32.152C257.495 32.056 257.455 31.72 257.423 31.144L257.375 29.992L256.679 30.088C256.167 30.168 255.719 30.256 255.335 30.352C255.127 30.4 254.935 30.424 254.759 30.424C254.583 30.408 254.431 30.368 254.303 30.304C254.191 30.24 254.103 30.16 254.039 30.064C253.991 29.968 253.983 29.856 254.015 29.728C254.047 29.6 254.127 29.464 254.255 29.32C254.431 29.144 254.943 29.016 255.791 28.936C256.543 28.872 257.031 28.768 257.255 28.624C257.479 28.464 257.575 28.192 257.543 27.808C257.511 27.552 257.455 27.392 257.375 27.328C257.311 27.264 257.159 27.232 256.919 27.232C256.599 27.232 256.151 27.28 255.575 27.376C255.031 27.472 254.703 27.432 254.591 27.256C254.495 27.064 254.631 26.784 254.999 26.416C255.191 26.224 255.399 26.088 255.623 26.008C255.863 25.912 256.191 25.848 256.607 25.816C257.119 25.768 257.423 25.72 257.519 25.672C257.615 25.608 257.647 25.448 257.615 25.192C257.599 24.824 257.647 24.52 257.759 24.28ZM251.063 24.28C251.127 24.2 251.407 24.168 251.903 24.184C252.399 24.2 252.695 24.256 252.791 24.352C252.887 24.432 252.935 25.424 252.935 27.328C252.951 29.216 252.919 30.288 252.839 30.544C252.839 30.544 252.831 30.552 252.815 30.568C252.735 30.824 252.591 30.984 252.383 31.048C252.175 31.112 251.479 31.208 250.295 31.336C250.199 31.352 250.127 31.36 250.079 31.36C249.551 31.424 249.079 31.496 248.663 31.576C248.439 31.624 248.279 31.616 248.183 31.552C248.103 31.488 248.007 31.32 247.895 31.048C247.671 30.536 247.479 29.176 247.319 26.968C247.271 26.44 247.391 26.008 247.679 25.672C247.903 25.4 248.319 25.136 248.927 24.88C249.551 24.608 250.055 24.472 250.439 24.472C250.775 24.472 250.983 24.408 251.063 24.28ZM251.735 27.568C251.735 26.848 251.719 26.344 251.687 26.056C251.655 25.768 251.599 25.632 251.519 25.648C251.135 25.68 250.695 25.76 250.199 25.888C249.719 26.016 249.351 26.144 249.095 26.272C248.823 26.416 248.655 26.544 248.591 26.656C248.543 26.768 248.551 26.976 248.615 27.28C248.679 27.808 248.711 28.376 248.711 28.984V30.016L249.935 29.896C249.999 29.88 250.079 29.872 250.175 29.872C250.495 29.84 250.719 29.816 250.847 29.8C250.975 29.784 251.119 29.744 251.279 29.68C251.439 29.616 251.535 29.56 251.567 29.512C251.599 29.448 251.639 29.328 251.687 29.152C251.735 28.96 251.759 28.792 251.759 28.648C251.759 28.504 251.751 28.248 251.735 27.88C251.735 27.752 251.735 27.648 251.735 27.568ZM254.567 33.04C255.143 32.88 255.535 32.808 255.743 32.824C255.967 32.84 256.247 32.968 256.583 33.208C256.919 33.448 257.231 33.84 257.519 34.384C257.807 34.912 257.951 35.368 257.951 35.752C257.951 36.568 257.703 37.304 257.207 37.96C256.727 38.632 256.151 39.024 255.479 39.136C254.807 39.248 254.039 39.024 253.175 38.464C252.311 37.904 251.807 37.312 251.663 36.688C251.631 36.496 251.631 36.24 251.663 35.92C251.711 35.6 251.783 35.312 251.879 35.056C251.975 34.8 252.071 34.672 252.167 34.672C252.263 34.672 252.311 34.6 252.311 34.456C252.311 34.248 252.527 34.008 252.959 33.736C253.407 33.448 253.943 33.216 254.567 33.04ZM255.935 34.336C255.759 34.208 255.599 34.144 255.455 34.144C255.311 34.144 254.999 34.208 254.519 34.336C254.119 34.432 253.743 34.672 253.391 35.056C253.039 35.424 252.863 35.768 252.863 36.088C252.863 36.36 253.039 36.688 253.391 37.072C253.759 37.472 254.103 37.72 254.423 37.816C255.575 38.088 256.319 37.512 256.655 36.088C256.799 35.432 256.559 34.848 255.935 34.336Z" fill="#635E5E"/>
<g clip-path="url(#clip0_0_1)">
<path d="M24.7522 13.2813C29.938 10.9993 35.9196 13.6299 38.1163 19.1588C38.6994 20.6226 38.9548 22.1434 38.9224 23.6309C38.9224 23.6309 38.9207 23.6353 38.9191 23.6396C38.9054 24.3768 38.8177 25.1048 38.6635 25.8165C38.3411 28.7801 37.8758 33.9804 38.2754 36.4322L31.6443 39.6411C31.6443 39.6411 26.8332 35.227 23.2918 32.4077C22.9237 32.1556 22.5683 31.8833 22.229 31.5819C21.0093 30.497 20.0035 29.0978 19.3418 27.436C17.145 21.9071 19.5688 15.5693 24.7505 13.2856L24.7522 13.2813Z" fill="#EFC344"/>
<path d="M36.2676 37.7475C35.8853 36.4542 35.6083 35.1269 35.3516 33.7975C35.0948 32.4682 34.8742 31.1582 34.6864 29.8259C34.5888 29.1507 34.5013 28.4744 34.4222 27.8015C34.3455 27.1599 34.1966 26.4542 34.3422 25.8149C34.3993 25.5546 34.5171 25.2124 34.7742 25.0871C35.1063 24.9309 35.3159 25.2666 35.4087 25.5409C35.5901 26.0624 35.6332 26.6402 35.5316 27.1909C35.4779 27.4677 35.3972 27.7388 35.2703 27.9915C35.1544 28.2284 35.0081 28.4684 34.7763 28.6037C34.5056 28.7641 34.2196 28.6759 34.008 28.4707C33.7963 28.2655 33.605 28.033 33.422 27.8038C32.6944 26.8888 32.1112 25.8391 31.7023 24.7272C31.5986 24.4436 31.5026 24.1529 31.4208 23.8629C31.3491 23.597 31.2867 23.2944 31.4633 23.0513C31.6398 22.8081 31.9783 22.7858 32.1629 23.0358C32.329 23.2583 32.3905 23.6009 32.4546 23.8739C32.5979 24.4561 32.6856 25.0819 32.6495 25.6889C32.6196 26.1923 32.486 26.7506 32.0996 27.0973C31.3224 27.7892 30.1484 26.9749 29.5293 26.4565C28.8748 25.9039 28.1998 25.1664 27.9436 24.312C27.8551 24.0143 27.7729 23.5624 27.9899 23.2898C28.2661 22.9397 28.6407 23.3005 28.8134 23.5559C29.0533 23.9138 29.2358 24.3195 29.3501 24.7387C29.5211 25.3622 29.6407 26.0057 29.6895 26.6565C29.7319 27.1987 29.6358 27.9486 28.9714 27.9982C28.7104 28.0209 28.458 27.9208 28.2251 27.8082C27.9712 27.6873 27.7274 27.5401 27.498 27.3682C27.0241 27.0135 26.6119 26.5621 26.2908 26.0508C26.1507 25.8235 25.9973 25.5807 25.9037 25.3213C25.81 25.0619 25.846 24.8186 26.0594 24.6557C26.4491 24.3506 26.8726 24.9985 27.0428 25.2732C27.3539 25.7603 27.6111 26.2866 27.8185 26.8286C28.0259 27.3705 28.2121 27.9799 28.2872 28.5754C28.3243 28.868 28.2848 29.1705 28.1083 29.4137C27.952 29.6295 27.7167 29.7736 27.4648 29.8353C26.8591 29.984 26.3164 29.5565 25.9403 29.1245C25.7749 28.9376 25.5693 28.7045 25.6045 28.4255C25.6397 28.1465 25.8817 28.0101 26.1232 28.0503C26.3874 28.0946 26.5983 28.2893 26.7931 28.4626C27.0166 28.6624 27.229 28.878 27.4263 29.1078C27.8384 29.5845 28.194 30.1196 28.5235 30.6594C29.9144 32.9439 31.1703 35.3263 32.347 37.7379C32.636 38.3324 32.9215 38.9357 33.2029 39.5373C33.3251 39.798 32.918 39.985 32.7958 39.7244C31.8203 37.6199 30.7766 35.554 29.6586 33.5294C29.1106 32.5391 28.5583 31.5471 27.9579 30.5917C27.667 30.1277 27.3507 29.6789 26.9906 29.2684C26.8227 29.0755 26.6397 28.8968 26.4473 28.7295C26.3641 28.6561 26.2785 28.5767 26.1784 28.5218C26.1465 28.5041 26.0565 28.4482 26.0152 28.4672C26.0329 28.4591 26.0102 28.4551 26.0186 28.4837C26.026 28.527 26.0453 28.565 26.0662 28.5986C26.1316 28.7053 26.2265 28.7985 26.3088 28.8868C26.4868 29.0786 26.6926 29.2613 26.9407 29.3597C27.2939 29.4998 27.7851 29.3461 27.8595 28.9159C27.9014 28.6699 27.8229 28.3963 27.7696 28.1579C27.713 27.9031 27.6463 27.6493 27.5678 27.401C27.4133 26.9103 27.2133 26.437 26.972 25.9826C26.8673 25.7895 26.7608 25.6008 26.6367 25.4202C26.5813 25.3376 26.5218 25.2534 26.4529 25.1806C26.3992 25.1189 26.3244 25.074 26.269 25.0167C26.2421 24.9858 26.2639 25.0046 26.2707 25.0123C26.2916 25.0459 26.3248 24.8974 26.2664 25.0359C26.2427 25.0972 26.2904 25.1868 26.3189 25.2385C26.4169 25.4492 26.5325 25.6516 26.6575 25.8427C26.9351 26.266 27.2768 26.649 27.6717 26.9572C27.8649 27.1097 28.075 27.2435 28.2936 27.3555C28.4761 27.4481 28.6737 27.5517 28.8799 27.5578C29.401 27.5776 29.2634 26.7299 29.228 26.4077C29.1671 25.8633 29.0674 25.3186 28.9147 24.7983C28.8196 24.4676 28.6697 24.1404 28.4827 23.8591C28.4407 23.792 28.3929 23.7275 28.3375 23.6702C28.3173 23.647 28.3241 23.6548 28.2997 23.6299C28.2913 23.6266 28.2174 23.567 28.2585 23.5985C28.2392 23.5857 28.2585 23.5985 28.2804 23.592C28.3226 23.5834 28.272 23.5887 28.3175 23.5713C28.3175 23.5713 28.3209 23.5626 28.3108 23.5889C28.2904 23.6414 28.3023 23.6108 28.2954 23.6535C28.2089 24.2658 28.6904 24.9266 29.0673 25.3691C29.5482 25.9438 30.1564 26.478 30.8452 26.7664C31.1992 26.917 31.6384 27.0104 31.9138 26.6498C32.1689 26.3166 32.2231 25.838 32.2217 25.4283C32.2196 24.9072 32.1351 24.3735 32.0042 23.872C31.9725 23.7534 31.9366 23.6331 31.899 23.5171C31.8781 23.4583 31.8614 23.4012 31.8346 23.3451C31.817 23.3027 31.7977 23.3153 31.8272 23.3017C31.6881 23.3728 31.8478 23.7746 31.8779 23.8724C32.1701 24.8471 32.592 25.7874 33.1354 26.6394C33.4046 27.0594 33.7007 27.4597 34.0214 27.8345C34.1288 27.9579 34.3401 28.2893 34.528 28.2426C34.6956 28.1979 34.8183 27.9435 34.8844 27.798C35.0841 27.3822 35.1754 26.9082 35.1454 26.4467C35.1317 26.219 35.0935 25.9917 35.0217 25.7763C35.005 25.7192 34.9824 25.6647 34.9598 25.6103C34.9573 25.6043 34.9221 25.5448 34.923 25.53L34.9137 25.5163C34.8936 25.4931 34.9037 25.4921 34.9457 25.5088C34.9449 25.5236 34.8976 25.5705 34.8925 25.5836C34.8545 25.6443 34.8291 25.71 34.8078 25.7773C34.6306 26.298 34.7637 26.9065 34.8213 27.4345C34.8889 28.0119 34.9582 28.585 35.0358 29.1613C35.3457 31.4564 35.7482 33.7377 36.2249 36.0029C36.3397 36.5587 36.4544 37.1144 36.5591 37.6712C36.5906 37.8403 36.3227 37.931 36.2726 37.7596L36.2676 37.7475Z" fill="#403E3D"/>
<path d="M39.8226 43.2384C39.6739 41.7802 38.4112 40.7438 36.9972 40.9254C35.5832 41.107 34.5562 42.4323 34.7048 43.8905C34.8535 45.3487 36.1162 46.3851 37.5302 46.2035C38.9442 46.0218 39.9712 44.6966 39.8226 43.2384Z" fill="#858481"/>
<path d="M31.6699 38.9738L37.9726 36.1499C38.6013 35.879 39.3178 36.1834 39.5679 36.8282C39.7109 37.1981 39.6627 37.5983 39.4868 37.9276C39.2546 37.8758 39.0036 37.8975 38.7651 37.9999L32.4624 40.8239C32.1944 40.9398 31.9885 41.146 31.8565 41.3867C31.4712 41.3045 31.1343 41.0345 30.9829 40.636C30.7328 39.9912 31.0411 39.2447 31.6699 38.9738Z" fill="#ACABA8"/>
<path d="M32.574 41.3132L38.8767 38.4893C39.1447 38.3734 39.3506 38.1671 39.4826 37.9265C39.868 38.0086 40.2049 38.2787 40.3562 38.6772C40.5143 39.0834 40.4492 39.5274 40.2236 39.8723C39.9938 39.8266 39.7488 39.8456 39.512 39.9436L33.2093 42.7675C32.9767 42.8672 32.786 43.034 32.655 43.2346C32.2679 43.1568 31.9268 42.8851 31.7729 42.4806C31.6299 42.1107 31.6781 41.7105 31.854 41.3812C32.0863 41.4329 32.3372 41.4112 32.5757 41.3089L32.574 41.3132Z" fill="#ACABA8"/>
<path d="M32.4639 40.8201L38.7666 37.9962C39.0051 37.8938 39.2544 37.8765 39.4883 37.9238C39.3546 38.1688 39.1487 38.3751 38.8824 38.4866L32.5797 41.3106C32.3412 41.413 32.0919 41.4303 31.858 41.3829C31.9917 41.1379 32.1976 40.9317 32.4639 40.8201Z" fill="#858481"/>
<path d="M33.3664 43.1631L39.6691 40.3392C39.9017 40.2395 40.0924 40.0727 40.2234 39.8721C40.6105 39.9499 40.9516 40.2216 41.1055 40.6261C41.3556 41.2709 41.0472 42.0174 40.4185 42.2883L34.1158 45.1123C33.4871 45.3831 32.7706 45.0787 32.5205 44.4339C32.3624 44.0277 32.4275 43.5838 32.6532 43.2388C32.8829 43.2845 33.1321 43.2672 33.3647 43.1675L33.3664 43.1631Z" fill="#ACABA8"/>
<path d="M39.516 39.9444C39.7486 39.8447 39.9995 39.823 40.2275 39.873C40.0965 40.0737 39.9059 40.2405 39.6732 40.3402L33.3705 43.1641C33.1379 43.2638 32.887 43.2854 32.659 43.2354C32.79 43.0348 32.9807 42.868 33.2133 42.7683L39.516 39.9444Z" fill="#858481"/>
<path d="M17.8688 13.6564C16.9434 12.4255 16.0314 11.1848 15.127 9.93694C15.0197 9.78826 14.914 9.6352 14.8066 9.48652C14.6379 9.25797 14.4693 9.02943 14.3066 8.79817C14.174 8.61425 14.4658 8.41177 14.5984 8.59569C15.5271 9.86833 16.4676 11.1356 17.3964 12.4082C17.6497 12.7562 17.9073 13.1059 18.1606 13.454C18.2932 13.6379 18.0048 13.8316 17.8705 13.6521L17.8688 13.6564Z" fill="#EFC344" stroke="#EFC344" stroke-miterlimit="10"/>
<path d="M22.3721 9.75446C22.1699 8.49724 21.9753 7.23293 21.7932 5.97363C21.7734 5.82433 21.7511 5.66897 21.7313 5.51967C21.6948 5.28799 21.66 5.05194 21.6278 4.82193C21.5988 4.63363 21.8859 4.6061 21.9124 4.78835C22.1011 6.0806 22.3058 7.3691 22.4986 8.66302C22.5508 9.0171 22.6029 9.37118 22.6551 9.72526C22.6798 9.9119 22.4028 9.93838 22.3721 9.75446Z" fill="#EFC344" stroke="#EFC344" stroke-miterlimit="10"/>
<path d="M15.2452 25.8261C13.76 26.1917 12.2682 26.5495 10.7789 26.8882C10.5986 26.9278 10.4226 26.9691 10.244 27.0043C9.97191 27.0681 9.69392 27.1346 9.42183 27.1985C9.20366 27.2483 9.15152 26.8942 9.37139 26.84C10.8961 26.4851 12.42 26.1197 13.9463 25.7604C14.3625 25.6628 14.7828 25.5669 15.1989 25.4693C15.4171 25.4195 15.4625 25.7658 15.2469 25.8217L15.2452 25.8261Z" fill="#EFC344" stroke="#EFC344" stroke-miterlimit="10"/>
<path d="M15.3418 19.8233C13.8813 19.4106 9.69718 18.4276 8.24269 17.987C8.0694 17.9334 7.89611 17.8798 7.72282 17.8263C7.45363 17.7447 7.18695 17.6692 6.91775 17.5877C6.70072 17.5218 6.82702 17.183 7.03985 17.2472C8.52716 17.6907 12.7466 18.6827 14.2398 19.1235C14.6487 19.2453 15.0575 19.367 15.4622 19.4871C15.675 19.5514 15.5521 19.8815 15.3418 19.8233Z" fill="#EFC344" stroke="#EFC344" stroke-miterlimit="10"/>
</g>
<path d="M98.43 64.3344C98.69 63.9444 99.1667 63.7927 99.86 63.8794C100.553 63.966 101.008 64.2477 101.225 64.7244C101.528 65.2877 101.55 67.4544 101.29 71.2244C100.943 75.471 100.727 79.8044 100.64 84.2244C100.597 87.171 100.51 89.1644 100.38 90.2044C100.25 91.2444 100.012 91.851 99.665 92.0244C99.1883 92.371 98.625 92.436 97.975 92.2194C97.5417 92.046 97.3033 91.3094 97.26 90.0094C97.2167 88.7094 97.2817 85.1127 97.455 79.2194C97.6717 72.676 97.8233 68.6677 97.91 67.1944C97.9967 65.721 98.17 64.7677 98.43 64.3344ZM77.5 65.8944C79.4933 65.331 81.6383 65.071 83.935 65.1144C86.275 65.1577 87.77 65.4827 88.42 66.0894C88.8533 66.5227 89.1133 69.296 89.2 74.4094C89.33 79.4794 89.2 82.2094 88.81 82.5994C88.55 82.8594 86.08 83.336 81.4 84.0294C78.2367 84.4194 76.265 84.6144 75.485 84.6144C74.705 84.6144 74.185 84.4194 73.925 84.0294C73.275 83.1194 72.8633 80.4544 72.69 76.0344C72.5167 71.571 72.69 68.8844 73.21 67.9744C73.6867 67.281 75.1167 66.5877 77.5 65.8944ZM85.17 68.6894C84.65 68.516 84.26 68.4294 84 68.4294C83.9567 68.4727 83.7833 68.516 83.48 68.5594C83.22 68.6027 82.8517 68.6677 82.375 68.7544C81.8983 68.841 81.465 68.906 81.075 68.9494C78.3883 69.3827 76.8283 69.8377 76.395 70.3144C75.9617 70.791 75.745 72.286 75.745 74.7994C75.745 77.5727 75.8317 79.241 76.005 79.8044C76.2217 80.3244 77.7167 80.4977 80.49 80.3244C83.1767 80.1944 84.8017 80.0427 85.365 79.8694C85.755 79.7394 85.95 77.8977 85.95 74.3444C85.95 72.1777 85.885 70.726 85.755 69.9894C85.6683 69.2527 85.4733 68.8194 85.17 68.6894ZM113.651 57.2494C115.124 57.076 117.139 56.9027 119.696 56.7294C120.389 56.686 120.931 57.011 121.321 57.7044C121.711 58.3977 121.732 59.0694 121.386 59.7194C121.212 60.0227 120.779 60.2177 120.086 60.3044C119.392 60.3477 118.071 60.3477 116.121 60.3044C112.957 60.1744 110.856 60.3477 109.816 60.8244C108.776 61.301 108.147 62.4277 107.931 64.2044C107.757 65.721 107.801 66.891 108.061 67.7144C108.321 68.2777 108.581 68.581 108.841 68.6244C109.101 68.6244 109.924 68.451 111.311 68.1044C113.261 67.6277 115.362 67.3894 117.616 67.3894C118.699 67.3894 119.501 67.411 120.021 67.4544C120.584 67.4977 120.996 67.5844 121.256 67.7144C121.516 67.8444 121.711 68.061 121.841 68.3644C122.404 69.361 121.819 70.0544 120.086 70.4444C119.219 70.661 117.919 70.8344 116.186 70.9644C112.936 71.311 110.834 71.636 109.881 71.9394C109.187 72.2427 108.754 72.5027 108.581 72.7194C108.407 72.936 108.386 73.3044 108.516 73.8244C108.602 74.431 108.732 74.7994 108.906 74.9294C109.122 75.016 109.621 74.9944 110.401 74.8644C115.254 74.041 118.591 73.6294 120.411 73.6294C122.231 73.6294 123.206 74.041 123.336 74.8644C123.336 74.9077 123.336 74.951 123.336 74.9944C123.422 75.4277 123.227 75.7527 122.751 75.9694C122.057 76.2294 118.764 76.9444 112.871 78.1144L112.806 78.1794H112.741H112.676H112.611H112.546L112.481 78.2444H112.416H112.351H112.286H112.221L112.156 78.3094H112.091H112.026H111.961H111.896L111.831 78.3744H111.766C109.902 78.7644 108.667 78.9594 108.061 78.9594C107.497 78.9594 107.064 78.8077 106.761 78.5044C105.894 77.681 105.244 73.716 104.811 66.6094C104.724 65.5694 104.681 64.7027 104.681 64.0094C104.681 63.316 104.724 62.6444 104.811 61.9944C104.897 61.301 105.006 60.7594 105.136 60.3694C105.266 59.9794 105.504 59.611 105.851 59.2644C106.197 58.8744 106.566 58.5927 106.956 58.4194C107.346 58.246 107.887 58.0727 108.581 57.8994C109.274 57.726 110.011 57.596 110.791 57.5094C111.571 57.4227 112.524 57.336 113.651 57.2494ZM127.821 60.4994C127.994 60.0227 128.384 59.7627 128.991 59.7194C129.597 59.676 130.074 59.871 130.421 60.3044C130.637 60.651 130.746 63.8577 130.746 69.9244C130.789 75.991 130.702 79.1544 130.486 79.4144C130.312 79.5444 129.771 79.4577 128.861 79.1544L127.496 78.6344V69.9894C127.496 64.2694 127.604 61.106 127.821 60.4994ZM122.686 82.0144C123.596 81.9277 124.159 81.841 124.376 81.7544C124.549 81.6677 124.917 81.7977 125.481 82.1444C126.087 82.4477 126.716 82.9027 127.366 83.5094C128.016 84.0727 128.514 84.6144 128.861 85.1344C129.467 85.9577 129.857 86.651 130.031 87.2144C130.204 87.7777 130.269 88.7094 130.226 90.0094C130.182 91.266 130.052 92.241 129.836 92.9344C129.619 93.6277 129.207 94.386 128.601 95.2094C126.564 98.026 124.159 99.131 121.386 98.5244C119.999 98.221 118.569 97.4844 117.096 96.3144C115.622 95.1877 114.604 93.9744 114.041 92.6744C113.391 91.3744 113.174 90.1827 113.391 89.0994C113.607 87.9727 114.279 86.781 115.406 85.5244C115.796 85.0477 116.164 84.6577 116.511 84.3544C116.857 84.051 117.226 83.791 117.616 83.5744C118.049 83.3144 118.504 83.0977 118.981 82.9244C119.501 82.7077 120.042 82.5344 120.606 82.4044C121.212 82.2744 121.906 82.1444 122.686 82.0144ZM126.001 86.6944C125.307 85.871 124.636 85.3944 123.986 85.2644C123.336 85.091 122.404 85.221 121.191 85.6544C120.367 85.9144 119.609 86.2827 118.916 86.7594C118.266 87.236 117.746 87.7777 117.356 88.3844C116.966 88.9477 116.771 89.4894 116.771 90.0094C116.771 90.8327 117.356 91.8727 118.526 93.1294C119.696 94.386 120.779 95.1227 121.776 95.3394C122.469 95.4694 123.011 95.4477 123.401 95.2744C123.834 95.101 124.441 94.6027 125.221 93.7794C125.914 93.0427 126.369 92.436 126.586 91.9594C126.846 91.4394 126.976 90.7677 126.976 89.9444C126.976 88.6444 126.651 87.561 126.001 86.6944ZM142.13 52.6994C142.477 52.3527 142.954 52.1577 143.56 52.1144C144.167 52.071 144.557 52.2227 144.73 52.5694C144.947 52.786 145.164 53.9777 145.38 56.1444L145.705 59.3294L148.825 58.8744C151.382 58.571 152.985 58.4627 153.635 58.5494C154.285 58.636 154.784 59.026 155.13 59.7194C155.52 60.5427 155.52 61.1927 155.13 61.6694C154.784 62.146 154.134 62.276 153.18 62.0594C152.574 61.9294 150.689 62.1244 147.525 62.6444C144.362 63.121 141.394 63.706 138.62 64.3994C135.587 65.1794 134.07 64.811 134.07 63.2944C134.07 62.8177 134.2 62.4494 134.46 62.1894C134.764 61.886 135.305 61.5827 136.085 61.2794C137.559 60.8027 138.924 60.6077 140.18 60.6944H142.13L141.87 56.9894C141.61 54.5194 141.697 53.0894 142.13 52.6994ZM161.175 62.3194C161.349 61.9727 161.869 61.7994 162.735 61.7994H164.035L163.84 66.2194L163.71 70.7044H166.505C168.065 70.7044 169.127 70.8344 169.69 71.0944C170.297 71.311 170.6 71.7877 170.6 72.5244C170.6 73.1744 170.362 73.6294 169.885 73.8894C169.409 74.106 168.607 74.1927 167.48 74.1494C166.224 74.106 165.14 74.236 164.23 74.5394C163.624 74.7994 163.255 75.081 163.125 75.3844C163.039 75.6444 163.082 76.2944 163.255 77.3344C163.472 79.0244 163.472 80.1944 163.255 80.8444C163.125 81.5377 162.67 82.036 161.89 82.3394C161.11 82.5994 160.569 82.491 160.265 82.0144C159.962 81.6244 159.897 78.6994 160.07 73.2394C160.244 69.036 160.395 66.2844 160.525 64.9844C160.655 63.641 160.872 62.7527 161.175 62.3194ZM141.935 67.2594C143.539 66.436 144.579 66.0244 145.055 66.0244C145.575 65.981 146.594 66.241 148.11 66.8044C150.32 67.5844 151.815 68.4944 152.595 69.5344C153.419 70.531 153.852 72.026 153.895 74.0194C154.025 77.3127 152.314 79.7827 148.76 81.4294C147.33 82.1227 146.03 82.5344 144.86 82.6644C143.69 82.751 142.369 82.5777 140.895 82.1444C139.249 81.711 138.057 81.0394 137.32 80.1294C136.584 79.2194 136.15 77.9194 136.02 76.2294C135.89 74.8427 135.89 73.8894 136.02 73.3694C136.15 72.8494 136.627 72.0477 137.45 70.9644C138.49 69.5344 139.985 68.2994 141.935 67.2594ZM149.475 70.5094C148.392 69.5127 146.919 69.231 145.055 69.6644C143.192 70.0977 141.524 71.0944 140.05 72.6544C139.487 73.2177 139.14 73.6944 139.01 74.0844C138.924 74.4744 138.945 75.0594 139.075 75.8394C139.422 77.2694 140.375 78.331 141.935 79.0244C143.539 79.7177 145.034 79.696 146.42 78.9594C148.5 77.9194 149.844 76.5544 150.45 74.8644C151.1 73.131 150.775 71.6794 149.475 70.5094ZM153.505 86.3044C158.315 85.7844 161.132 85.7844 161.955 86.3044C162.259 86.4777 162.454 86.9977 162.54 87.8644C162.627 88.731 162.67 90.3344 162.67 92.6744V98.5894L161.305 99.0444C160.395 99.3477 159.81 99.1744 159.55 98.5244C159.334 97.9177 159.247 96.271 159.29 93.5844C159.334 90.8544 159.225 89.4027 158.965 89.2294C158.619 89.0127 155.412 89.4894 149.345 90.6594C148.435 90.8327 147.72 90.7244 147.2 90.3344C146.724 89.901 146.594 89.3594 146.81 88.7094C147.07 88.0594 147.655 87.561 148.565 87.2144C149.389 86.8677 151.035 86.5644 153.505 86.3044ZM214.105 63.1644C214.625 62.9477 215.167 62.861 215.73 62.9044C216.293 62.9044 216.662 63.0344 216.835 63.2944C217.008 63.5544 216.9 66.1327 216.51 71.0294C216.163 75.4494 215.86 79.761 215.6 83.9644C215.427 86.8677 215.145 88.731 214.755 89.5544C214.408 90.3344 213.737 90.551 212.74 90.2044C212.307 90.031 212.047 89.186 211.96 87.6694C211.917 86.1094 212.068 83.531 212.415 79.9344L212.74 75.9694L210.4 76.2294C208.797 76.446 207.258 76.8794 205.785 77.5294L203.315 78.5044V83.8994C203.272 86.0227 203.185 87.4744 203.055 88.2544C202.925 88.991 202.687 89.4894 202.34 89.7494C200.737 90.9627 199.957 90.3344 200 87.8644C200.087 83.271 200.26 78.2877 200.52 72.9144C200.823 67.4977 201.083 64.5944 201.3 64.2044C201.517 63.7277 201.907 63.446 202.47 63.3594C203.077 63.2727 203.662 63.4244 204.225 63.8144C204.485 63.9877 204.615 64.3777 204.615 64.9844C204.658 65.591 204.55 66.826 204.29 68.6894C203.857 71.636 203.748 73.196 203.965 73.3694C204.052 73.4994 204.528 73.521 205.395 73.4344C206.305 73.3477 207.258 73.2177 208.255 73.0444C209.295 72.871 210.27 72.676 211.18 72.4594C212.133 72.1994 212.697 72.0044 212.87 71.8744C213.26 71.5277 213.455 70.0327 213.455 67.3894C213.455 64.746 213.672 63.3377 214.105 63.1644ZM185.895 66.0894C188.105 65.656 189.492 65.4394 190.055 65.4394C190.618 65.4394 191.095 65.656 191.485 66.0894C191.832 66.5227 191.962 67.3244 191.875 68.4944C191.832 69.621 191.572 71.7227 191.095 74.7994C191.052 75.146 190.878 76.251 190.575 78.1144C190.272 79.9777 190.055 81.3644 189.925 82.2744C189.578 84.9177 189.232 86.3694 188.885 86.6294C188.712 86.7594 188.387 86.8244 187.91 86.8244C186.957 86.8244 186.393 86.456 186.22 85.7194C186.09 84.9827 186.242 83.401 186.675 80.9744C187.845 74.561 188.43 70.8994 188.43 69.9894C188.43 69.686 188.387 69.4694 188.3 69.3394C188.213 69.166 188.083 69.101 187.91 69.1444C187.563 69.4044 185.852 69.7727 182.775 70.2494C179.742 70.726 177.705 70.9644 176.665 70.9644C175.452 70.9644 174.628 70.7044 174.195 70.1844C173.415 69.2744 174.152 68.516 176.405 67.9094C177.098 67.736 177.965 67.5627 179.005 67.3894C181.475 66.9994 183.772 66.566 185.895 66.0894ZM225.865 53.9344C227.728 53.4144 229.7 53.1544 231.78 53.1544C233.903 53.111 235.29 53.436 235.94 54.1294C236.59 54.7794 237.045 56.361 237.305 58.8744C237.391 59.9577 237.456 60.7377 237.5 61.2144C237.543 61.691 237.521 62.2327 237.435 62.8394C237.348 63.4027 237.24 63.771 237.11 63.9444C236.98 64.0744 236.655 64.291 236.135 64.5944C235.658 64.8544 235.181 65.0494 234.705 65.1794C234.271 65.266 233.535 65.4394 232.495 65.6994C229.115 66.566 227.035 67.1727 226.255 67.5194C225.518 67.866 225.215 68.4727 225.345 69.3394C225.388 69.816 225.496 70.1627 225.67 70.3794C225.886 70.5527 226.19 70.596 226.58 70.5094C229.05 70.206 231.628 69.6427 234.315 68.8194C236.958 68.0394 238.28 68.6027 238.28 70.5094C238.28 70.986 238.15 71.3327 237.89 71.5494C237.673 71.7227 237.11 71.896 236.2 72.0694C235.29 72.1994 233.361 72.676 230.415 73.4994C226.645 74.5394 224.196 74.7994 223.07 74.2794C221.986 73.7594 221.575 72.1777 221.835 69.5344C222.008 67.5844 222.485 66.2627 223.265 65.5694C224.088 64.876 225.821 64.226 228.465 63.6194C229.591 63.3594 230.436 63.1644 231 63.0344C231.563 62.9044 232.105 62.7527 232.625 62.5794C233.188 62.3627 233.556 62.211 233.73 62.1244C233.903 61.9944 234.055 61.7777 234.185 61.4744C234.315 61.171 234.358 60.911 234.315 60.6944C234.315 60.4344 234.271 60.0444 234.185 59.5244C233.925 58.181 233.643 57.271 233.34 56.7944C232.82 56.1444 230.523 56.361 226.45 57.4444C224.76 57.921 223.265 58.1594 221.965 58.1594C221.228 58.1594 220.73 58.0944 220.47 57.9644C220.253 57.8344 220.145 57.5744 220.145 57.1844C220.145 56.0144 222.051 54.931 225.865 53.9344ZM230.285 75.9044C231.325 74.6477 232.083 74.6694 232.56 75.9694C232.776 76.6194 232.885 77.4644 232.885 78.5044C232.885 79.3277 232.95 79.826 233.08 79.9994C233.253 80.1294 233.751 80.1077 234.575 79.9344C235.441 79.761 236.893 79.566 238.93 79.3494C240.056 79.176 240.793 79.1327 241.14 79.2194C241.486 79.306 241.79 79.5877 242.05 80.0644C242.44 80.7577 242.526 81.3427 242.31 81.8194C242.136 82.296 241.66 82.6644 240.88 82.9244C240.143 83.141 239.125 83.2494 237.825 83.2494C236.481 83.2494 234.445 83.5094 231.715 84.0294C225.865 85.1127 222.745 85.0694 222.355 83.8994C222.051 83.1627 222.355 82.5127 223.265 81.9494C224.218 81.386 225.388 81.1694 226.775 81.2994L229.115 81.4294L229.375 79.0894C229.548 77.5727 229.851 76.511 230.285 75.9044ZM226.385 88.7744C226.818 88.471 227.381 88.3627 228.075 88.4494C228.595 88.536 228.898 88.796 228.985 89.2294C229.071 89.6194 229.006 90.5944 228.79 92.1544C228.79 92.1544 228.79 92.176 228.79 92.2194C228.703 92.9994 228.855 93.4327 229.245 93.5194C229.635 93.606 231.021 93.4977 233.405 93.1944C233.621 93.1944 233.795 93.1944 233.925 93.1944C234.098 93.151 234.336 93.1077 234.64 93.0644C238.93 92.5444 241.443 92.306 242.18 92.3494C242.96 92.3494 243.48 92.631 243.74 93.1944C243.74 93.2377 243.761 93.281 243.805 93.3244C244.021 93.931 244.021 94.4294 243.805 94.8194C243.631 95.2094 243.22 95.491 242.57 95.6644C241.92 95.881 241.075 95.9894 240.035 95.9894C238.431 95.9027 235.961 96.271 232.625 97.0944C229.288 97.8744 227.381 98.0694 226.905 97.6794C226.081 97.2027 225.583 95.7077 225.41 93.1944C225.236 90.7244 225.561 89.251 226.385 88.7744Z" fill="#1A1A1A"/>
<g clip-path="url(#clip1_0_1)">
<path d="M280.542 120.691L280.432 110.002L286.214 115.023L287.366 113.945L282.241 109.347L293 109.213V107.53H281.777L287.65 101.968L286.498 100.889L280.396 106.496L280.296 96.3926L278.652 96.7967L278.716 106.181L272.772 100.844L271.824 102.528L277.584 107.53H265V109.557L277.229 109.407L271.453 114.715L272.772 116.058L278.745 110.4L278.816 120.691H280.542Z" fill="#E76B6B"/>
</g>
<g clip-path="url(#clip2_0_1)">
<path d="M71.6369 241.854C71.6658 195.942 104.217 156.324 148.929 150.571C193.642 144.817 234.955 174.936 246.344 219.38L251.981 218.657C240.152 170.978 196.002 138.574 148.193 144.722C100.392 150.87 65.6608 193.423 66 242.584L71.6369 241.861V241.854Z" fill="#DD4B4B"/>
<path d="M77.4906 241.102C77.902 198.557 108.187 161.984 149.695 156.646C191.203 151.309 229.571 179.054 240.491 220.14L246.345 219.388C234.963 174.944 193.65 144.825 148.93 150.579C104.217 156.325 71.6661 195.943 71.6372 241.854L77.4906 241.102Z" fill="#F2D766"/>
<path d="M83.3942 240.342C84.1809 201.198 112.185 167.685 150.459 162.763C188.734 157.842 224.136 183.193 234.58 220.898L240.484 220.138C229.571 179.053 191.202 151.307 149.694 156.645C108.186 161.982 77.9016 198.555 77.4902 241.101L83.3942 240.342Z" fill="#7EC182"/>
<path d="M89.2187 239.597C90.3735 203.798 116.126 173.3 151.217 168.781C186.309 164.268 218.788 187.275 228.762 221.65L234.587 220.898C224.143 183.201 188.741 157.843 150.467 162.764C112.192 167.685 84.1881 201.199 83.4014 240.342L89.2259 239.59L89.2187 239.597Z" fill="#5B89B2"/>
<path d="M94.5165 238.911C95.9889 206.149 119.706 178.382 151.91 174.242C184.108 170.102 213.938 190.977 223.472 222.322L228.77 221.643C218.802 187.275 186.316 164.261 151.225 168.773C116.133 173.285 90.3809 203.784 89.2261 239.59L94.5237 238.911H94.5165Z" fill="#9C7DB5"/>
<path d="M102.824 254.528C102.745 253.834 102.665 253.148 102.593 252.454C102.542 251.994 102.052 251.79 101.669 252.023C99.2801 253.535 90.0633 257.456 87.2557 257.792C87.0969 257.814 86.9454 257.828 86.7866 257.843C86.5773 257.865 86.5917 257.872 86.4906 257.711C86.2886 257.397 86.1947 256.915 86.0576 256.565C85.7905 255.857 85.5163 255.148 85.2492 254.44C84.6935 252.965 84.1305 251.498 83.5748 250.023C83.0335 248.606 82.3911 247.19 81.9508 245.737C81.7415 245.043 81.7704 244.415 82.023 243.744C82.2467 243.145 82.5354 242.561 82.6365 241.926C82.853 240.597 82.1746 239.443 81.7487 238.231C81.3373 237.041 81.7776 235.529 80.8249 234.566C79.8505 233.573 78.4359 234.171 77.7863 235.215C77.2017 236.143 77.3316 237.165 77.5193 238.18C77.1079 237.8 76.7037 237.421 76.2923 237.034C75.6355 236.42 74.9715 235.624 74.1126 235.318C72.6835 234.807 71.3194 235.953 71.305 237.311C70.9802 237.348 70.6554 237.501 70.41 237.742C70.0924 238.056 69.9625 238.45 69.9264 238.866C69.1686 238.757 68.3458 239.136 67.9344 239.815C67.1982 241.042 67.7251 242.51 68.5118 243.554C69.8182 245.284 71.8246 246.62 73.8311 247.365C74.3291 247.548 74.8704 247.701 75.419 247.774C77.6636 252.009 79.8505 256.288 82.1746 260.479C83.1128 262.18 84.5997 264.472 86.8371 263.888C87.9486 263.596 89.024 263.027 90.0778 262.581C91.182 262.121 98.8038 258.726 99.908 258.259C100.485 258.018 101.07 257.777 101.647 257.529C102.182 257.31 102.817 257.113 102.961 256.47C103.098 255.864 102.889 255.119 102.817 254.513L102.824 254.528Z" fill="#EF6767"/>
<path d="M103.242 254.471C103.162 253.778 103.083 253.091 103.011 252.398C102.96 251.938 102.47 251.733 102.087 251.967C99.6981 253.478 90.4813 257.399 87.6737 257.735C87.5149 257.757 87.3633 257.771 87.2045 257.786C86.9952 257.808 87.0097 257.815 86.9086 257.655C86.7065 257.341 86.6127 256.859 86.4756 256.508C86.2085 255.8 85.9343 255.092 85.6672 254.384C85.1115 252.909 84.5485 251.441 83.9927 249.966C83.4514 248.55 82.8091 247.133 82.3688 245.68C82.1595 244.987 82.1884 244.359 82.441 243.687C82.6647 243.088 82.9534 242.504 83.0545 241.869C83.271 240.54 82.5925 239.386 82.1667 238.174C81.7553 236.984 82.1956 235.473 81.2429 234.509C80.2685 233.516 78.8539 234.115 78.2043 235.159C77.6197 236.086 77.7496 237.108 77.9372 238.123C77.5258 237.744 77.1216 237.364 76.7102 236.977C76.0535 236.364 75.3894 235.568 74.5306 235.261C73.1015 234.75 71.7374 235.896 71.7229 237.254C71.3981 237.291 71.0734 237.444 70.828 237.685C70.5104 237.999 70.3805 238.393 70.3444 238.81C69.5865 238.7 68.7637 239.08 68.3523 239.759C67.6162 240.985 68.143 242.453 68.9298 243.497C70.2361 245.228 72.2426 246.564 74.2491 247.308C74.7471 247.491 75.2884 247.644 75.8369 247.717C78.0816 251.952 80.2685 256.231 82.5925 260.422C83.5308 262.123 85.0176 264.416 87.2551 263.832C88.3666 263.54 89.442 262.97 90.4957 262.525C91.6 262.065 99.2217 258.67 100.326 258.202C100.903 257.961 101.488 257.72 102.065 257.472C102.6 257.253 103.235 257.056 103.379 256.413C103.516 255.807 103.307 255.063 103.235 254.457L103.242 254.471Z" fill="url(#paint0_radial_0_1)"/>
<path d="M221.971 238.348C221.841 237.661 221.704 236.982 221.574 236.296C221.487 235.843 221.891 235.493 222.324 235.602C225.053 236.318 235.013 237.245 237.784 236.705C237.936 236.675 238.095 236.646 238.246 236.61C238.456 236.566 238.441 236.581 238.492 236.398C238.593 236.04 238.542 235.551 238.564 235.171C238.607 234.412 238.658 233.653 238.701 232.901C238.795 231.324 238.889 229.754 238.982 228.177C239.076 226.658 239.264 225.117 239.25 223.599C239.25 222.868 239.033 222.284 238.586 221.715C238.196 221.218 237.748 220.744 237.46 220.174C236.853 218.969 237.164 217.662 237.2 216.385C237.243 215.122 236.37 213.822 236.983 212.603C237.618 211.354 239.141 211.5 240.072 212.296C240.902 213.004 241.083 214.019 241.205 215.041L242.036 213.581C242.476 212.8 242.873 211.836 243.602 211.274C244.814 210.354 246.453 211.025 246.878 212.318C247.203 212.252 247.55 212.296 247.86 212.457C248.257 212.661 248.502 212.997 248.654 213.384C249.34 213.048 250.242 213.157 250.834 213.683C251.902 214.625 251.837 216.188 251.397 217.429C250.668 219.473 249.152 221.364 247.463 222.686C247.044 223.014 246.575 223.321 246.07 223.555C245.19 228.279 244.381 233.025 243.421 237.727C243.032 239.633 242.303 242.276 239.993 242.4C238.853 242.458 237.654 242.247 236.514 242.144C235.323 242.042 227.045 241.129 225.854 241.027C225.226 240.976 224.605 240.918 223.977 240.867C223.407 240.815 222.743 240.823 222.411 240.26C222.101 239.727 222.079 238.954 221.964 238.355L221.971 238.348Z" fill="#EF6767"/>
<path d="M221.971 238.348C221.841 237.661 221.704 236.982 221.574 236.296C221.487 235.843 221.891 235.493 222.324 235.602C225.053 236.318 235.013 237.245 237.784 236.705C237.936 236.675 238.095 236.646 238.246 236.61C238.456 236.566 238.441 236.581 238.492 236.398C238.593 236.04 238.542 235.551 238.564 235.171C238.607 234.412 238.658 233.653 238.701 232.901C238.795 231.324 238.889 229.754 238.982 228.177C239.076 226.658 239.264 225.117 239.25 223.599C239.25 222.868 239.033 222.284 238.586 221.715C238.196 221.218 237.748 220.744 237.46 220.174C236.853 218.969 237.164 217.662 237.2 216.385C237.243 215.122 236.37 213.822 236.983 212.603C237.618 211.354 239.141 211.5 240.072 212.296C240.902 213.004 241.083 214.019 241.205 215.041L242.036 213.581C242.476 212.8 242.873 211.836 243.602 211.274C244.814 210.354 246.453 211.025 246.878 212.318C247.203 212.252 247.55 212.296 247.86 212.457C248.257 212.661 248.502 212.997 248.654 213.384C249.34 213.048 250.242 213.157 250.834 213.683C251.902 214.625 251.837 216.188 251.397 217.429C250.668 219.473 249.152 221.364 247.463 222.686C247.044 223.014 246.575 223.321 246.07 223.555C245.19 228.279 244.381 233.025 243.421 237.727C243.032 239.633 242.303 242.276 239.993 242.4C238.853 242.458 237.654 242.247 236.514 242.144C235.323 242.042 227.045 241.129 225.854 241.027C225.226 240.976 224.605 240.918 223.977 240.867C223.407 240.815 222.743 240.823 222.411 240.26C222.101 239.727 222.079 238.954 221.964 238.355L221.971 238.348Z" fill="url(#paint1_radial_0_1)"/>
<path d="M152.12 300.338L149.023 310.983C149.023 310.983 138.313 314.466 139.785 318.884L158.262 317.212L160.283 300.922L152.12 300.338Z" fill="#EF6767"/>
<path d="M152.12 300.338L149.023 310.983C149.023 310.983 138.313 314.466 139.785 318.884L158.262 317.212L160.283 300.922L152.12 300.338Z" fill="url(#paint2_radial_0_1)"/>
<path d="M188.056 294.935L195.071 303.463C195.071 303.463 191.96 314.4 196.414 315.62L205.334 299.162L193.086 288.393L188.063 294.927L188.056 294.935Z" fill="#EF6767"/>
<path d="M188.056 294.935L195.071 303.463C195.071 303.463 191.96 314.4 196.414 315.62L205.334 299.162L193.086 288.393L188.063 294.927L188.056 294.935Z" fill="url(#paint3_radial_0_1)"/>
<path d="M174.739 309.494C173.036 311.202 170.445 311.626 168.294 310.545L137.677 295.168C105.206 279.119 99.6914 257.733 99.6914 257.733C93.2678 229.513 112.207 222.927 112.207 222.927C135.382 215.056 152.697 227.768 159.373 233.953C163.783 225.958 176.255 208.376 200.708 208.463C200.708 208.463 220.737 208.675 223.422 237.508C223.422 237.508 224.843 259.559 199.019 285.143L174.746 309.494H174.739Z" fill="#EF6767"/>
<path d="M173.689 253.571C178.04 253.218 181.279 249.29 180.923 244.796C180.567 240.302 176.751 236.945 172.4 237.297C168.05 237.65 164.811 241.579 165.167 246.073C165.523 250.566 169.338 253.924 173.689 253.571Z" fill="white"/>
<path d="M164.844 245.854C165.277 250.082 168.943 253.156 173.036 252.725C177.128 252.294 180.094 248.512 179.661 244.292C179.228 240.064 175.562 236.99 171.469 237.421C167.377 237.852 164.411 241.634 164.844 245.854Z" fill="#403E3D"/>
<path d="M141.51 248.766C141.972 253.249 145.862 256.513 150.2 256.053C154.545 255.593 157.692 251.585 157.23 247.102C156.768 242.618 152.877 239.355 148.54 239.815C144.195 240.275 141.048 244.283 141.51 248.766Z" fill="white"/>
<path d="M141.308 248.19C141.741 252.418 145.407 255.492 149.5 255.061C153.592 254.63 156.558 250.848 156.125 246.628C155.692 242.4 152.026 239.326 147.933 239.757C143.841 240.188 140.875 243.97 141.308 248.19Z" fill="#403E3D"/>
<path d="M155.324 257.105C155.324 257.105 161.437 263.027 168.554 255.316" stroke="#403E3D" stroke-width="2" stroke-linecap="round" stroke-linejoin="round"/>
</g>
<defs>
<radialGradient id="paint0_radial_0_1" cx="0" cy="0" r="1" gradientUnits="userSpaceOnUse" gradientTransform="translate(105.472 256.457) scale(25.5356 25.8326)">
<stop stop-color="#C61C24" stop-opacity="0.9"/>
<stop offset="1" stop-color="#C61C24" stop-opacity="0"/>
</radialGradient>
<radialGradient id="paint1_radial_0_1" cx="0" cy="0" r="1" gradientUnits="userSpaceOnUse" gradientTransform="translate(224.67 241.246) scale(14.399 14.5664)">
<stop stop-color="#C61C24" stop-opacity="0.9"/>
<stop offset="1" stop-color="#C61C24" stop-opacity="0"/>
</radialGradient>
<radialGradient id="paint2_radial_0_1" cx="0" cy="0" r="1" gradientUnits="userSpaceOnUse" gradientTransform="translate(153.635 302.222) scale(12.0677 12.2081)">
<stop stop-color="#C61C24" stop-opacity="0.9"/>
<stop offset="1" stop-color="#C61C24" stop-opacity="0"/>
</radialGradient>
<radialGradient id="paint3_radial_0_1" cx="0" cy="0" r="1" gradientUnits="userSpaceOnUse" gradientTransform="translate(190.441 294.706) rotate(-56.4657) scale(12.1647 12.1107)">
<stop stop-color="#C61C24" stop-opacity="0.9"/>
<stop offset="1" stop-color="#C61C24" stop-opacity="0"/>
</radialGradient>
<clipPath id="clip0_0_1">
<rect width="40.9372" height="33.6349" fill="white" transform="matrix(-0.929529 -0.36875 -0.360941 0.932589 51 16)"/>
</clipPath>
<clipPath id="clip1_0_1">
<rect width="28" height="24.2981" fill="white" transform="translate(265 96.3926)"/>
</clipPath>
<clipPath id="clip2_0_1">
<rect width="185.981" height="202.484" fill="white" transform="translate(66 143.977)"/>
</clipPath>
</defs>
</svg>
