<svg width="288" height="95" viewBox="0 0 288 95" fill="none" xmlns="http://www.w3.org/2000/svg">
<path d="M11.4373 4.98C11.5173 4.76 11.6973 4.65 11.9773 4.65C12.3773 4.65 12.6273 4.81 12.7273 5.13C12.8273 5.43 12.8073 6.05 12.6673 6.99C12.5273 8.11 12.5373 8.76 12.6973 8.94C12.8773 9.1 13.4973 9.08 14.5573 8.88C15.4973 8.72 16.1273 8.68 16.4473 8.76C16.7673 8.82 16.9273 9.04 16.9273 9.42C16.9273 9.68 16.8573 9.85 16.7173 9.93C16.5973 10.01 16.2973 10.08 15.8173 10.14C15.0773 10.22 14.3073 10.39 13.5073 10.65L12.3073 11.04L12.4273 12.69L12.5473 14.31H11.7673C11.2673 14.31 10.9673 14.19 10.8673 13.95C10.7873 13.75 10.8273 12.27 10.9873 9.51C11.1673 6.75 11.3173 5.24 11.4373 4.98ZM4.44727 6.03C4.84727 5.57 5.20727 5.25 5.52727 5.07C5.86727 4.89 6.09727 4.85 6.21727 4.95C6.35727 5.05 6.36727 5.28 6.24727 5.64C6.12727 6 5.87727 6.43 5.49727 6.93C4.93727 7.59 4.65727 8.03 4.65727 8.25C4.65727 8.33 4.77727 8.48 5.01727 8.7C5.25727 8.9 5.52727 9.1 5.82727 9.3C7.42727 10.38 8.22727 11.25 8.22727 11.91C8.22727 12.89 7.59727 12.81 6.33727 11.67C5.85727 11.19 5.33727 10.77 4.77727 10.41C4.21727 10.03 3.83727 9.84 3.63727 9.84C3.51727 9.84 3.28727 10.21 2.94727 10.95C2.60727 11.69 2.40727 12.26 2.34727 12.66C2.28727 13.04 2.19727 13.28 2.07727 13.38C1.97727 13.46 1.77727 13.5 1.47727 13.5C1.17727 13.5 0.977266 13.46 0.877266 13.38C0.777266 13.3 0.717266 13.13 0.697266 12.87C0.637266 12.37 1.01727 11.37 1.83727 9.87C2.67727 8.37 3.54727 7.09 4.44727 6.03ZM8.01727 15.72C8.71727 15.46 9.28727 15.36 9.72727 15.42C10.1673 15.46 10.6973 15.68 11.3173 16.08C12.6773 16.98 13.2673 18.28 13.0873 19.98C13.0273 20.74 12.8673 21.34 12.6073 21.78C12.3473 22.22 11.9073 22.64 11.2873 23.04C10.9473 23.26 10.6473 23.39 10.3873 23.43C10.1473 23.49 9.76727 23.49 9.24727 23.43C8.40727 23.33 7.74727 23.17 7.26727 22.95C6.80727 22.75 6.35727 22.4 5.91727 21.9C5.25727 21.14 4.93727 20.28 4.95727 19.32C4.97727 18.34 5.33727 17.52 6.03727 16.86C6.47727 16.4 7.13727 16.02 8.01727 15.72ZM11.0173 17.73C10.1973 16.91 9.20727 16.79 8.04727 17.37C7.48727 17.63 7.09727 17.92 6.87727 18.24C6.65727 18.56 6.54727 19 6.54727 19.56C6.54727 19.86 6.62727 20.17 6.78727 20.49C6.96727 20.79 7.19727 21.06 7.47727 21.3C7.77727 21.54 8.07727 21.7 8.37727 21.78C8.81727 21.9 9.31727 21.89 9.87727 21.75C10.4573 21.61 10.8673 21.41 11.1073 21.15C11.4873 20.77 11.6673 20.21 11.6473 19.47C11.6273 18.71 11.4173 18.13 11.0173 17.73ZM29.2819 8.13C29.4419 7.69 29.7019 7.47 30.0619 7.47C30.2019 7.47 30.3119 7.49 30.3919 7.53C30.4919 7.57 30.5719 7.65 30.6319 7.77C30.6919 7.87 30.7319 8 30.7519 8.16C30.7719 8.32 30.7719 8.56 30.7519 8.88C30.7519 9.2 30.7319 9.56 30.6919 9.96C30.6519 10.34 30.6019 10.83 30.5419 11.43L30.4219 12.24L31.6819 12.06C32.8019 11.92 33.4619 11.75 33.6619 11.55C33.8619 11.35 33.9619 10.79 33.9619 9.87C33.9619 8.37 34.1919 7.61 34.6519 7.59C34.7919 7.59 34.9419 7.63 35.1019 7.71C35.3419 7.83 35.4819 7.97 35.5219 8.13C35.5619 8.27 35.5519 8.55 35.4919 8.97C35.3919 9.79 35.3019 11.71 35.2219 14.73C35.1619 17.09 35.0919 18.49 35.0119 18.93C34.9519 19.37 34.7919 19.65 34.5319 19.77C34.1519 19.95 33.9019 19.98 33.7819 19.86C33.6619 19.72 33.6219 18.66 33.6619 16.68C33.7019 14.92 33.6319 13.92 33.4519 13.68C33.2919 13.42 32.7019 13.44 31.6819 13.74L30.3619 14.1L30.4519 16.47C30.4919 17.51 30.4919 18.19 30.4519 18.51C30.4119 18.81 30.3019 19.01 30.1219 19.11C29.8419 19.29 29.5719 19.29 29.3119 19.11C29.1119 19.01 28.9919 18.68 28.9519 18.12C28.9119 17.54 28.9119 16.11 28.9519 13.83C29.0119 10.45 29.1219 8.55 29.2819 8.13ZM23.9419 7.95C24.2419 7.81 24.6719 7.76 25.2319 7.8C25.5919 7.82 25.8219 7.87 25.9219 7.95C26.0219 8.03 26.0719 8.23 26.0719 8.55V9.24L23.5519 9.51C21.8119 9.73 20.7619 9.91 20.4019 10.05C20.1019 10.17 19.9219 10.29 19.8619 10.41C19.8219 10.51 19.8319 10.71 19.8919 11.01C19.9919 11.61 20.0419 12.35 20.0419 13.23C20.0419 14.21 20.1519 14.84 20.3719 15.12C20.6119 15.38 21.1719 15.52 22.0519 15.54C23.0319 15.54 23.9019 15.48 24.6619 15.36C25.2019 15.28 25.5519 15.26 25.7119 15.3C25.8919 15.34 26.0419 15.46 26.1619 15.66C26.4019 16.12 26.3919 16.44 26.1319 16.62C25.8919 16.8 25.3019 16.93 24.3619 17.01C20.9619 17.27 19.1819 17.22 19.0219 16.86C18.9419 16.64 18.8019 15.38 18.6019 13.08C18.4819 11.56 18.4219 10.58 18.4219 10.14C18.4219 9.7 18.5019 9.41 18.6619 9.27C18.8019 9.13 19.1019 8.98 19.5619 8.82C20.0219 8.64 20.5319 8.49 21.0919 8.37C21.6519 8.25 22.1219 8.18 22.5019 8.16C23.1419 8.16 23.6219 8.09 23.9419 7.95ZM41.3747 4.44C41.4147 4.44 41.4747 4.43 41.5547 4.41C42.9947 4.27 43.8447 4.22 44.1047 4.26C44.3647 4.28 44.5547 4.42 44.6747 4.68C44.6947 4.72 44.7047 4.75 44.7047 4.77C44.7847 4.99 44.8347 5.18 44.8547 5.34C44.8747 5.48 44.7747 5.59 44.5547 5.67C44.3347 5.75 44.0447 5.81 43.6847 5.85C43.3447 5.87 42.8247 5.89 42.1247 5.91C41.4447 5.93 40.9047 5.96 40.5047 6C40.1247 6.04 39.7847 6.1 39.4847 6.18C39.2047 6.26 39.0047 6.4 38.8847 6.6C38.7647 6.78 38.6747 6.99 38.6147 7.23C38.5747 7.47 38.5547 7.81 38.5547 8.25V9.66L39.4247 9.48C42.9247 8.8 44.6747 8.88 44.6747 9.72C44.6747 10.04 44.5447 10.26 44.2847 10.38C44.0447 10.48 43.5647 10.54 42.8447 10.56C42.0847 10.56 41.1947 10.7 40.1747 10.98C39.4947 11.16 39.0747 11.31 38.9147 11.43C38.7547 11.53 38.6947 11.71 38.7347 11.97C38.7747 12.45 38.9247 12.73 39.1847 12.81C39.4447 12.87 40.0247 12.8 40.9247 12.6C43.4847 12.04 44.9147 12 45.2147 12.48C45.3747 12.72 45.3547 12.97 45.1547 13.23C44.9747 13.49 44.7047 13.62 44.3447 13.62C44.0247 13.62 43.0847 13.77 41.5247 14.07C40.0847 14.37 39.1147 14.52 38.6147 14.52C38.1147 14.52 37.8247 14.39 37.7447 14.13C37.4047 13.07 37.1847 11.48 37.0847 9.36C36.9847 7.24 37.0647 6.03 37.3247 5.73C37.9247 5.05 39.2747 4.62 41.3747 4.44ZM47.6447 5.73C47.7247 5.51 47.9047 5.39 48.1847 5.37C48.4847 5.33 48.6947 5.41 48.8147 5.61C48.9147 5.77 48.9847 7.31 49.0247 10.23V14.58L48.4847 14.7C48.1247 14.78 47.8747 14.72 47.7347 14.52C47.5747 14.28 47.4747 12.88 47.4347 10.32C47.4147 7.76 47.4847 6.23 47.6447 5.73ZM46.2647 16.41C46.6847 16.27 46.9147 16.2 46.9547 16.2C46.9947 16.2 47.0747 16.23 47.1947 16.29C47.3347 16.33 47.4747 16.4 47.6147 16.5C47.7547 16.6 47.8847 16.7 48.0047 16.8C48.1447 16.88 48.2347 16.95 48.2747 17.01C48.3947 17.21 48.4547 18.09 48.4547 19.65C48.4547 21.03 48.3447 21.85 48.1247 22.11C47.9247 22.37 47.2247 22.56 46.0247 22.68C45.7447 22.7 45.2747 22.74 44.6147 22.8C43.9747 22.88 43.5647 22.93 43.3847 22.95C43.1047 22.99 42.8747 23.01 42.6947 23.01C42.5147 23.01 42.3447 22.99 42.1847 22.95C42.0247 22.93 41.9047 22.87 41.8247 22.77C41.7447 22.67 41.6647 22.55 41.5847 22.41C41.5247 22.29 41.4747 22.09 41.4347 21.81C41.4147 21.55 41.3947 21.28 41.3747 21C41.3747 20.7 41.3747 20.32 41.3747 19.86C41.3747 18.3 41.4347 17.43 41.5547 17.25C41.6747 17.07 42.0447 16.98 42.6647 16.98C43.8247 16.98 45.0247 16.79 46.2647 16.41ZM46.8947 18.21L45.9647 18.15C45.6247 18.15 45.2647 18.18 44.8847 18.24C44.5047 18.28 44.1447 18.36 43.8047 18.48C43.4847 18.6 43.2547 18.72 43.1147 18.84C42.8947 19.02 42.7847 19.49 42.7847 20.25V21.39L44.1647 21.24C44.4047 21.2 44.7547 21.15 45.2147 21.09C45.6747 21.05 45.9647 21.02 46.0847 21C46.1647 21 46.2547 20.99 46.3547 20.97C46.4747 20.95 46.5647 20.94 46.6247 20.94C46.7047 20.94 46.7547 20.94 46.7747 20.94C46.8547 20.9 46.8947 20.43 46.8947 19.53V18.21ZM54.3713 6.39C54.4913 6.35 54.6213 6.31 54.7613 6.27C54.9013 6.23 55.0113 6.2 55.0913 6.18C55.1913 6.16 55.2813 6.14 55.3613 6.12C55.4413 6.1 55.4913 6.08 55.5113 6.06C55.6513 6.04 56.0913 6.25 56.8313 6.69C57.5713 7.13 58.0313 7.45 58.2113 7.65C59.2113 8.93 59.6013 10.23 59.3813 11.55C59.1813 12.85 58.4113 13.83 57.0713 14.49C56.5713 14.71 56.1913 14.84 55.9313 14.88C55.6713 14.92 55.1913 14.88 54.4913 14.76C53.4513 14.6 52.6613 14.34 52.1213 13.98C51.5813 13.62 51.1613 13.07 50.8613 12.33C50.3413 11.09 50.4213 9.9 51.1013 8.76C51.8013 7.6 52.8913 6.81 54.3713 6.39ZM56.5913 8.07C56.1713 7.85 55.8113 7.75 55.5113 7.77C55.2113 7.77 54.8013 7.88 54.2813 8.1C53.3413 8.52 52.6613 9.12 52.2413 9.9C52.0813 10.2 52.0113 10.44 52.0313 10.62C52.0513 10.8 52.1813 11.15 52.4213 11.67C52.7613 12.37 53.2213 12.84 53.8013 13.08C54.2413 13.26 54.7913 13.34 55.4513 13.32C56.1313 13.28 56.5013 13.15 56.5613 12.93C56.6413 12.75 56.7813 12.66 56.9813 12.66C57.2013 12.66 57.4313 12.49 57.6713 12.15C57.9313 11.79 58.0613 11.46 58.0613 11.16C58.0613 10.58 57.9113 9.97 57.6113 9.33C57.3113 8.67 56.9713 8.25 56.5913 8.07ZM62.4713 9.42C63.0913 8.98 63.4413 9.1 63.5213 9.78C63.6013 10.24 63.5913 11.01 63.4913 12.09C63.2713 14.43 63.1313 16.18 63.0713 17.34C62.9513 18.78 62.8213 19.69 62.6813 20.07C62.5613 20.45 62.2913 20.65 61.8713 20.67C61.3313 20.67 61.1613 19.83 61.3613 18.15C61.5013 17.11 61.6513 15.44 61.8113 13.14C61.9113 11.74 62.0013 10.8 62.0813 10.32C62.1813 9.84 62.3113 9.54 62.4713 9.42ZM58.2713 16.5C58.3313 16.44 58.6613 16.41 59.2613 16.41C59.8413 16.41 60.1813 16.57 60.2813 16.89C60.4213 17.35 60.3813 17.67 60.1613 17.85C59.9413 18.01 59.4413 18.09 58.6613 18.09C57.8013 18.09 56.6113 18.25 55.0913 18.57C53.5513 18.95 52.5413 19.17 52.0613 19.23C51.6013 19.27 51.3113 19.2 51.1913 19.02C51.0513 18.78 50.9913 18.57 51.0113 18.39C51.0313 18.21 51.1713 18.05 51.4313 17.91C51.7113 17.75 52.0713 17.62 52.5113 17.52C52.9713 17.4 53.5613 17.29 54.2813 17.19C54.5413 17.15 54.8213 17.11 55.1213 17.07C55.4413 17.01 55.7213 16.97 55.9613 16.95C56.2013 16.91 56.4513 16.88 56.7113 16.86C56.9713 16.82 57.1513 16.79 57.2513 16.77C57.8513 16.69 58.1913 16.6 58.2713 16.5ZM78.7959 4.98C79.3559 4.36 79.8559 4.09 80.2959 4.17C80.5359 4.21 80.6559 4.36 80.6559 4.62C80.6559 4.9 80.5359 5.14 80.2959 5.34C79.6759 5.86 79.8959 6.41 80.9559 6.99C83.0359 8.13 84.1459 8.89 84.2859 9.27C84.3459 9.41 84.3459 9.58 84.2859 9.78C84.2459 9.98 84.1659 10.16 84.0459 10.32C83.9259 10.46 83.8059 10.53 83.6859 10.53C83.5259 10.53 83.1159 10.27 82.4559 9.75C81.9759 9.37 81.3159 8.94 80.4759 8.46C79.6559 7.96 79.1459 7.71 78.9459 7.71C78.8459 7.71 78.5259 8.12 77.9859 8.94C77.4459 9.76 77.0059 10.52 76.6659 11.22C76.4259 11.68 76.2459 11.95 76.1259 12.03C76.0259 12.09 75.8059 12.06 75.4659 11.94C75.3459 11.9 75.2259 11.85 75.1059 11.79C75.0059 11.71 74.9159 11.63 74.8359 11.55C74.7759 11.47 74.7459 11.4 74.7459 11.34C74.7459 11.12 75.1759 10.41 76.0359 9.21C76.8759 7.93 77.4259 7.06 77.6859 6.6C77.9659 6.04 78.3359 5.5 78.7959 4.98ZM83.1459 14.1C83.7859 13.9 84.3659 13.92 84.8859 14.16C85.4259 14.38 85.6159 14.7 85.4559 15.12C85.3559 15.36 85.1259 15.54 84.7659 15.66C84.4059 15.78 84.0559 15.8 83.7159 15.72C83.3359 15.64 82.8959 15.64 82.3959 15.72L81.7059 15.87L81.6459 18.81C81.6259 20.89 81.6059 22 81.5859 22.14C81.5859 22.42 81.3559 22.56 80.8959 22.56C80.6559 22.56 80.4759 22.52 80.3559 22.44C80.2359 22.38 80.1359 22.21 80.0559 21.93C79.9759 21.67 79.9359 21.3 79.9359 20.82C79.9559 20.32 79.9659 19.65 79.9659 18.81C80.0059 17.51 80.0059 16.73 79.9659 16.47C79.9459 16.21 79.8259 16.09 79.6059 16.11C79.4459 16.15 78.6859 16.21 77.3259 16.29C77.1059 16.31 76.8559 16.33 76.5759 16.35C76.3159 16.37 76.0859 16.39 75.8859 16.41C75.6859 16.41 75.4859 16.42 75.2859 16.44C75.0859 16.46 74.9459 16.47 74.8659 16.47C74.5659 16.51 74.3659 16.5 74.2659 16.44C74.1859 16.36 74.1359 16.19 74.1159 15.93C74.0559 15.59 74.1059 15.34 74.2659 15.18C74.4459 15.02 74.7659 14.9 75.2259 14.82C75.6859 14.74 76.4459 14.69 77.5059 14.67C80.4459 14.55 82.3259 14.36 83.1459 14.1ZM93.0959 4.05C93.2759 3.85 93.5559 3.94 93.9359 4.32C94.0759 4.46 94.1659 4.73 94.2059 5.13C94.2659 5.53 94.2959 6.28 94.2959 7.38C94.2959 9.14 94.2159 10.07 94.0559 10.17C93.8359 10.31 93.2659 10.48 92.3459 10.68C92.2859 10.68 92.2059 10.7 92.1059 10.74C90.6259 11.08 89.7559 11.32 89.4959 11.46C89.2359 11.6 89.1059 11.87 89.1059 12.27C89.1059 12.31 89.1059 12.33 89.1059 12.33C89.1059 12.83 89.2259 13.14 89.4659 13.26C89.7259 13.36 90.2159 13.33 90.9359 13.17C91.8759 12.99 92.7759 12.86 93.6359 12.78C94.3559 12.7 94.8159 12.68 95.0159 12.72C95.2159 12.74 95.3459 12.84 95.4059 13.02C95.5659 13.42 95.4759 13.73 95.1359 13.95C94.8159 14.15 94.0959 14.33 92.9759 14.49C91.4359 14.71 90.3059 14.81 89.5859 14.79C88.8659 14.77 88.3759 14.61 88.1159 14.31C87.8759 14.01 87.6959 13.44 87.5759 12.6C87.4759 11.74 87.5159 11.15 87.6959 10.83C87.7759 10.69 87.9359 10.55 88.1759 10.41C88.4359 10.27 88.8259 10.12 89.3459 9.96C89.8859 9.78 90.6359 9.56 91.5959 9.3L92.7659 8.97L92.7959 7.5C92.8159 6.5 92.7159 5.96 92.4959 5.88C92.2559 5.8 91.4459 5.93 90.0659 6.27C88.8659 6.57 88.0559 6.7 87.6359 6.66C87.2159 6.6 87.0059 6.36 87.0059 5.94C87.0059 5.6 87.2359 5.34 87.6959 5.16C88.1559 4.98 89.1659 4.77 90.7259 4.53C92.2259 4.27 93.0159 4.11 93.0959 4.05ZM99.0659 5.28C99.2259 5 99.4759 4.88 99.8159 4.92C100.056 4.96 100.196 5.09 100.236 5.31C100.296 5.53 100.326 6.18 100.326 7.26C100.326 7.4 100.326 7.59 100.326 7.83C100.326 8.69 100.386 9.18 100.506 9.3C100.626 9.42 101.066 9.42 101.826 9.3C102.066 9.26 102.246 9.23 102.366 9.21C102.846 9.15 103.166 9.14 103.326 9.18C103.486 9.22 103.616 9.34 103.716 9.54C103.916 9.92 103.936 10.22 103.776 10.44C103.636 10.66 103.346 10.77 102.906 10.77C102.326 10.77 101.706 10.86 101.046 11.04L99.9959 11.34V13.44V15.51L99.2159 15.45C98.8159 15.41 98.5859 15.33 98.5259 15.21C98.4659 15.09 98.4459 14.71 98.4659 14.07C98.4859 12.39 98.5659 10.55 98.7059 8.55C98.8459 6.55 98.9659 5.46 99.0659 5.28ZM97.8359 17.49C97.8959 17.39 98.1759 17.37 98.6759 17.43C99.1559 17.49 99.4859 17.76 99.6659 18.24C99.8659 18.72 99.9959 19.74 100.056 21.3L100.176 23.97L99.4859 24.09C99.0059 24.21 98.7059 24.21 98.5859 24.09C98.4659 23.97 98.3959 23.14 98.3759 21.6C98.2959 20.02 98.1559 19.19 97.9559 19.11C97.7359 19.03 96.9659 19.16 95.6459 19.5C94.4459 19.8 93.6259 19.94 93.1859 19.92C92.7659 19.9 92.5259 19.71 92.4659 19.35C92.4259 18.97 92.6559 18.67 93.1559 18.45C93.6559 18.21 94.5259 18.01 95.7659 17.85C97.0259 17.69 97.7159 17.57 97.8359 17.49ZM117.248 8.34C118.288 7.88 119.328 7.93 120.368 8.49C121.348 9.03 122.038 9.85 122.438 10.95C122.838 12.03 122.878 13.13 122.558 14.25C122.258 15.35 121.648 16.22 120.728 16.86C119.768 17.52 118.468 17.45 116.828 16.65C114.908 15.67 114.128 14.11 114.488 11.97C114.588 11.37 114.938 10.67 115.538 9.87C116.158 9.07 116.728 8.56 117.248 8.34ZM119.558 9.72C119.178 9.5 118.938 9.39 118.838 9.39C118.738 9.39 118.538 9.48 118.238 9.66C117.398 10.14 116.818 10.63 116.498 11.13C116.178 11.61 116.018 12.21 116.018 12.93C116.018 13.33 116.068 13.64 116.168 13.86C116.268 14.08 116.488 14.35 116.828 14.67C117.368 15.19 117.978 15.5 118.658 15.6C119.118 15.68 119.438 15.69 119.618 15.63C119.798 15.55 120.068 15.31 120.428 14.91C120.768 14.55 120.978 14.25 121.058 14.01C121.158 13.75 121.208 13.31 121.208 12.69C121.208 11.91 121.078 11.3 120.818 10.86C120.578 10.4 120.158 10.02 119.558 9.72ZM127.988 8.13C128.108 7.99 128.298 7.94 128.558 7.98C128.838 8 129.038 8.09 129.158 8.25C129.318 8.45 129.338 9.56 129.218 11.58C129.078 13.58 129.018 15.48 129.038 17.28C129.038 18.46 129.008 19.2 128.948 19.5C128.908 19.78 128.778 20 128.558 20.16C127.978 20.56 127.608 20.39 127.448 19.65C127.368 19.27 127.328 18.7 127.328 17.94V15.9L126.578 16.05C125.818 16.17 125.148 16.26 124.568 16.32C123.988 16.4 123.638 16.42 123.518 16.38C123.398 16.34 123.338 16.18 123.338 15.9C123.338 15.16 123.718 14.79 124.478 14.79C124.818 14.79 125.418 14.67 126.278 14.43C126.858 14.25 127.208 14.1 127.328 13.98C127.468 13.86 127.578 13.6 127.658 13.2C127.738 12.62 127.658 12.24 127.418 12.06C127.178 11.88 126.728 11.86 126.068 12C125.168 12.18 124.568 12.25 124.268 12.21C123.968 12.15 123.818 11.95 123.818 11.61C123.818 10.73 124.678 10.29 126.398 10.29H127.838V9.3C127.838 8.6 127.888 8.21 127.988 8.13ZM137.585 5.28C137.605 5.02 137.625 4.83 137.645 4.71C137.685 4.59 137.735 4.51 137.795 4.47C137.875 4.43 138.005 4.41 138.185 4.41C138.665 4.41 138.965 4.57 139.085 4.89C139.225 5.19 139.225 5.75 139.085 6.57C138.905 7.63 138.845 8.87 138.905 10.29C139.005 11.05 139.015 11.66 138.935 12.12C138.855 12.58 138.735 12.91 138.575 13.11C138.435 13.29 138.165 13.49 137.765 13.71C137.325 13.93 136.185 14.05 134.345 14.07C132.505 14.09 131.495 14 131.315 13.8C131.015 13.42 130.835 11.92 130.775 9.3C130.735 6.66 130.865 5.19 131.165 4.89C131.385 4.65 131.635 4.61 131.915 4.77C132.075 4.89 132.175 5.07 132.215 5.31C132.255 5.55 132.265 5.99 132.245 6.63L132.155 8.25L133.295 8.13C134.135 8.03 134.715 7.93 135.035 7.83C135.615 7.71 136.125 7.61 136.565 7.53C137.065 7.43 137.355 7.3 137.435 7.14C137.515 6.98 137.565 6.36 137.585 5.28ZM136.865 9.27C136.525 9.19 136.225 9.15 135.965 9.15C135.765 9.17 135.205 9.29 134.285 9.51C133.365 9.71 132.765 9.86 132.485 9.96C132.265 10.04 132.205 10.41 132.305 11.07C132.425 11.73 132.545 12.14 132.665 12.3C132.785 12.42 133.495 12.46 134.795 12.42C136.115 12.36 136.885 12.26 137.105 12.12C137.285 12 137.375 11.52 137.375 10.68C137.375 10.38 137.365 10.16 137.345 10.02C137.345 9.86 137.325 9.73 137.285 9.63C137.245 9.51 137.195 9.43 137.135 9.39C137.075 9.35 136.985 9.31 136.865 9.27ZM139.055 15.75C139.715 15.49 140.215 15.47 140.555 15.69C140.915 15.89 140.975 16.26 140.735 16.8C140.615 17.08 140.455 17.25 140.255 17.31C140.075 17.37 139.625 17.4 138.905 17.4H137.375V20.19C137.375 20.95 137.365 21.54 137.345 21.96C137.325 22.38 137.285 22.69 137.225 22.89C137.185 23.11 137.115 23.27 137.015 23.37C136.315 24.05 135.915 23.68 135.815 22.26C135.755 21.74 135.735 21.09 135.755 20.31C135.795 18.67 135.775 17.81 135.695 17.73C135.615 17.63 135.085 17.71 134.105 17.97C133.105 18.23 132.325 18.33 131.765 18.27C131.385 18.25 131.145 18.2 131.045 18.12C130.945 18.04 130.895 17.87 130.895 17.61C130.895 17.19 131.175 16.89 131.735 16.71C132.295 16.53 133.475 16.37 135.275 16.23C137.415 16.05 138.675 15.89 139.055 15.75ZM147.537 1.98C148.437 1.9 149.057 1.87 149.397 1.89C149.737 1.91 149.977 2 150.117 2.16C150.297 2.38 150.447 3.12 150.567 4.38C150.647 5.18 150.667 5.72 150.627 6C150.607 6.28 150.527 6.48 150.387 6.6C150.127 6.84 149.657 7.05 148.977 7.23C148.297 7.39 147.687 7.47 147.147 7.47C146.607 7.47 146.197 7.5 145.917 7.56C145.657 7.62 145.467 7.72 145.347 7.86C145.227 8 145.167 8.2 145.167 8.46C145.167 8.84 145.237 9.05 145.377 9.09C145.537 9.11 146.047 9.02 146.907 8.82C146.987 8.8 147.057 8.78 147.117 8.76C149.337 8.28 150.587 8.25 150.867 8.67C151.007 8.91 151.047 9.14 150.987 9.36C150.947 9.58 150.817 9.74 150.597 9.84C150.297 10 149.187 10.22 147.267 10.5C145.367 10.76 144.337 10.84 144.177 10.74C143.957 10.62 143.807 10.17 143.727 9.39C143.647 8.59 143.687 7.95 143.847 7.47C143.847 7.45 143.857 7.42 143.877 7.38C143.997 7.02 144.187 6.78 144.447 6.66C144.707 6.54 145.547 6.33 146.967 6.03C147.127 5.99 147.257 5.96 147.357 5.94C148.257 5.74 148.777 5.59 148.917 5.49C149.077 5.39 149.157 5.16 149.157 4.8C149.157 4.32 149.077 3.96 148.917 3.72C148.637 3.28 147.597 3.32 145.797 3.84C143.957 4.36 143.037 4.32 143.037 3.72C143.037 3.4 143.217 3.13 143.577 2.91C143.837 2.75 144.367 2.58 145.167 2.4C145.987 2.2 146.777 2.06 147.537 1.98ZM151.047 11.85C151.107 11.77 151.347 11.73 151.767 11.73C152.167 11.73 152.467 11.85 152.667 12.09C152.887 12.31 152.967 12.6 152.907 12.96C152.867 13.2 152.737 13.36 152.517 13.44C152.297 13.5 151.697 13.57 150.717 13.65C149.377 13.73 147.857 13.95 146.157 14.31C144.717 14.61 143.737 14.75 143.217 14.73C142.717 14.71 142.437 14.52 142.377 14.16C142.357 13.92 142.417 13.73 142.557 13.59C142.717 13.43 142.977 13.3 143.337 13.2C143.697 13.1 144.217 13 144.897 12.9C145.937 12.78 147.197 12.59 148.677 12.33C150.177 12.07 150.967 11.91 151.047 11.85ZM147.297 16.35C148.077 16.21 148.697 16.11 149.157 16.05C149.617 15.99 150.047 15.97 150.447 15.99C150.847 16.01 151.127 16.06 151.287 16.14C151.467 16.22 151.617 16.38 151.737 16.62C151.877 16.86 151.957 17.12 151.977 17.4C151.997 17.68 152.007 18.07 152.007 18.57V20.46L151.137 20.82C150.557 21.06 149.677 21.18 148.497 21.18C147.577 21.18 146.947 21.24 146.607 21.36C146.287 21.48 146.127 21.73 146.127 22.11C146.127 22.71 146.667 22.87 147.747 22.59C148.347 22.45 149.177 22.34 150.237 22.26C151.297 22.14 151.887 22.05 152.007 21.99C152.107 21.93 152.287 22.01 152.547 22.23C152.807 22.45 152.937 22.64 152.937 22.8C152.937 22.92 152.847 23.06 152.667 23.22C152.467 23.36 151.297 23.6 149.157 23.94C147.017 24.28 145.837 24.41 145.617 24.33C145.117 24.15 144.767 23.57 144.567 22.59C144.387 21.61 144.497 20.95 144.897 20.61C145.137 20.39 145.937 20.18 147.297 19.98C149.057 19.72 150.017 19.53 150.177 19.41C150.297 19.29 150.387 19.07 150.447 18.75C150.527 18.23 150.497 17.9 150.357 17.76C150.217 17.6 149.417 17.63 147.957 17.85C146.257 18.09 145.227 18.2 144.867 18.18C144.527 18.16 144.337 17.96 144.297 17.58C144.297 17.56 144.277 17.53 144.237 17.49C144.197 17.19 144.297 17 144.537 16.92C144.777 16.82 145.587 16.65 146.967 16.41C147.107 16.39 147.217 16.37 147.297 16.35ZM167.431 1.14C167.611 0.799999 167.811 0.629999 168.031 0.629999C168.551 0.629999 168.801 1.4 168.781 2.94C168.781 3.9 168.821 4.44 168.901 4.56C169.021 4.64 169.641 4.58 170.761 4.38C171.561 4.24 172.061 4.18 172.261 4.2C172.461 4.22 172.641 4.33 172.801 4.53C173.061 4.89 173.131 5.18 173.011 5.4C172.911 5.6 172.631 5.72 172.171 5.76C171.611 5.82 170.501 6.01 168.841 6.33C167.181 6.65 166.071 6.89 165.511 7.05C164.971 7.21 164.491 7.25 164.071 7.17C163.651 7.07 163.441 6.87 163.441 6.57C163.441 6.27 163.691 5.99 164.191 5.73C164.711 5.45 165.281 5.28 165.901 5.22C166.621 5.16 167.051 5.09 167.191 5.01C167.331 4.91 167.361 4.33 167.281 3.27C167.201 2.19 167.251 1.48 167.431 1.14ZM166.861 7.92C167.661 7.5 168.141 7.28 168.301 7.26C169.081 7.24 169.921 7.57 170.821 8.25C171.721 8.91 172.171 9.55 172.171 10.17C172.171 10.65 171.981 11.19 171.601 11.79C170.741 13.01 169.351 13.64 167.431 13.68C166.711 13.7 166.221 13.68 165.961 13.62C165.721 13.56 165.431 13.37 165.091 13.05C164.351 12.35 164.151 11.5 164.491 10.5C164.831 9.48 165.621 8.62 166.861 7.92ZM170.041 9.12C169.741 8.98 169.361 8.92 168.901 8.94C168.461 8.94 168.101 9.03 167.821 9.21C167.261 9.53 166.861 9.78 166.621 9.96C166.401 10.14 166.251 10.31 166.171 10.47C166.091 10.63 166.051 10.85 166.051 11.13C166.051 11.29 166.061 11.44 166.081 11.58C166.121 11.7 166.171 11.8 166.231 11.88C166.291 11.96 166.381 12.03 166.501 12.09C166.621 12.13 166.761 12.16 166.921 12.18C167.101 12.2 167.321 12.21 167.581 12.21C168.441 12.21 169.191 11.97 169.831 11.49C170.491 11.01 170.741 10.5 170.581 9.96C170.501 9.54 170.321 9.26 170.041 9.12ZM176.131 7.56C176.771 7.04 177.091 7.36 177.091 8.52C177.091 9 177.031 9.62 176.911 10.38L176.731 11.52L178.381 11.43L180.061 11.34V12.09C180.061 12.43 180.001 12.64 179.881 12.72C179.761 12.78 179.391 12.85 178.771 12.93C177.691 13.05 177.041 13.22 176.821 13.44C176.601 13.66 176.521 14.21 176.581 15.09C176.641 15.83 176.651 16.28 176.611 16.44C176.571 16.58 176.401 16.68 176.101 16.74C175.661 16.82 175.401 16.79 175.321 16.65C175.201 16.47 175.161 15.42 175.201 13.5C175.241 11.56 175.331 10.2 175.471 9.42C175.651 8.38 175.871 7.76 176.131 7.56ZM167.851 14.22C167.971 14.1 168.191 14.07 168.511 14.13C168.831 14.17 169.011 14.46 169.051 15C169.091 15.36 169.151 15.57 169.231 15.63C169.311 15.69 169.521 15.69 169.861 15.63C170.181 15.55 170.931 15.45 172.111 15.33C172.851 15.27 173.281 15.26 173.401 15.3C173.521 15.34 173.581 15.5 173.581 15.78C173.581 16.1 173.441 16.38 173.161 16.62C172.901 16.84 172.631 16.92 172.351 16.86C172.171 16.84 171.761 16.89 171.121 17.01C170.481 17.11 169.961 17.23 169.561 17.37C167.981 17.89 167.021 18.18 166.681 18.24C166.341 18.3 166.061 18.23 165.841 18.03C165.681 17.85 165.601 17.72 165.601 17.64C165.601 17.54 165.691 17.39 165.871 17.19C166.151 16.91 166.531 16.7 167.011 16.56C167.331 16.5 167.521 16.41 167.581 16.29C167.661 16.17 167.701 15.88 167.701 15.42C167.701 14.72 167.751 14.32 167.851 14.22ZM172.771 18.93C174.291 18.73 175.231 18.63 175.591 18.63C175.971 18.61 176.231 18.69 176.371 18.87C176.531 19.07 176.601 20.03 176.581 21.75L176.551 24.3L175.891 24.48C175.491 24.58 175.241 24.5 175.141 24.24C175.041 23.98 174.971 23.23 174.931 21.99L174.871 20.31L173.731 20.37C172.931 20.39 172.181 20.54 171.481 20.82C170.381 21.2 169.751 21.18 169.591 20.76C169.491 20.52 169.621 20.19 169.981 19.77C170.101 19.61 170.251 19.49 170.431 19.41C170.631 19.33 170.901 19.26 171.241 19.2C171.601 19.12 172.111 19.03 172.771 18.93ZM184.397 5.7C184.957 5.44 185.637 5.35 186.437 5.43C187.257 5.49 187.927 5.7 188.447 6.06C189.067 6.46 189.567 7.09 189.947 7.95C190.327 8.81 190.517 9.69 190.517 10.59C190.517 11.23 190.477 11.69 190.397 11.97C190.317 12.25 190.117 12.58 189.797 12.96C189.317 13.54 188.667 13.96 187.847 14.22C187.027 14.48 186.137 14.55 185.177 14.43C184.617 14.35 184.197 14.25 183.917 14.13C183.637 14.01 183.347 13.79 183.047 13.47C182.047 12.43 181.547 11.28 181.547 10.02C181.547 9.08 181.797 8.23 182.297 7.47C182.797 6.69 183.497 6.1 184.397 5.7ZM187.307 7.05C186.847 6.85 186.447 6.78 186.107 6.84C185.787 6.9 185.327 7.13 184.727 7.53C183.947 8.07 183.437 8.63 183.197 9.21C183.057 9.61 182.987 9.91 182.987 10.11C183.007 10.31 183.137 10.65 183.377 11.13C183.737 11.87 184.127 12.36 184.547 12.6C184.967 12.84 185.567 12.93 186.347 12.87C186.847 12.81 187.227 12.73 187.487 12.63C187.767 12.51 188.067 12.31 188.387 12.03C188.707 11.71 188.917 11.45 189.017 11.25C189.117 11.03 189.167 10.73 189.167 10.35C189.127 9.77 188.907 9.12 188.507 8.4C188.107 7.68 187.707 7.23 187.307 7.05ZM193.397 6.66C193.477 6.46 193.707 6.34 194.087 6.3C194.487 6.26 194.747 6.32 194.867 6.48C194.947 6.66 194.907 7.78 194.747 9.84C194.587 11.9 194.577 13.45 194.717 14.49C194.817 15.21 194.847 15.66 194.807 15.84C194.787 16 194.637 16.17 194.357 16.35C193.877 16.67 193.577 16.66 193.457 16.32C193.297 15.92 193.217 14.35 193.217 11.61C193.257 8.57 193.317 6.92 193.397 6.66ZM186.557 17.43C186.737 17.23 187.027 17.15 187.427 17.19C187.727 17.23 187.897 17.33 187.937 17.49C187.977 17.63 187.987 18.12 187.967 18.96C187.907 20.1 187.957 20.67 188.117 20.67C188.337 20.67 189.417 20.55 191.357 20.31C192.577 20.13 193.397 20.04 193.817 20.04C194.237 20.04 194.477 20.1 194.537 20.22C194.797 20.64 194.757 20.95 194.417 21.15C194.097 21.37 193.377 21.59 192.257 21.81C188.717 22.37 186.847 22.48 186.647 22.14C186.487 21.9 186.397 21.1 186.377 19.74C186.357 18.38 186.417 17.61 186.557 17.43ZM200.57 4.08C200.71 3.96 200.91 3.92 201.17 3.96C201.45 4 201.67 4.12 201.83 4.32C202.05 4.58 202.14 5.25 202.1 6.33L202.04 7.98L203.75 7.83C204.89 7.73 205.58 7.65 205.82 7.59C206.06 7.51 206.28 7.58 206.48 7.8C206.68 8.02 206.77 8.28 206.75 8.58C206.75 8.86 206.65 9.11 206.45 9.33C206.23 9.53 205.92 9.53 205.52 9.33C205.26 9.21 205 9.16 204.74 9.18C204.5 9.2 204.09 9.28 203.51 9.42C202.45 9.7 201.5 9.88 200.66 9.96C199.6 10.06 198.73 10.23 198.05 10.47C197.57 10.65 197.27 10.74 197.15 10.74C197.03 10.74 196.89 10.63 196.73 10.41C196.51 10.13 196.4 9.93 196.4 9.81C196.4 9.33 197.24 8.94 198.92 8.64L200.72 8.34L200.57 6.27C200.47 4.93 200.47 4.2 200.57 4.08ZM209.84 9.51C210.02 9.27 210.17 9.15 210.29 9.15C210.43 9.15 210.6 9.26 210.8 9.48C211 9.72 211.03 10.64 210.89 12.24L210.74 14.61L211.88 14.46C212.02 14.44 212.18 14.42 212.36 14.4C212.54 14.36 212.69 14.33 212.81 14.31C212.95 14.27 213.08 14.24 213.2 14.22C213.34 14.2 213.44 14.18 213.5 14.16C213.78 14.1 214.06 14.18 214.34 14.4C214.64 14.62 214.79 14.86 214.79 15.12C214.79 15.5 214.24 15.75 213.14 15.87C211.88 15.99 211.17 16.13 211.01 16.29C210.85 16.41 210.77 16.84 210.77 17.58C210.77 17.64 210.77 17.74 210.77 17.88C210.73 19.46 210.68 20.38 210.62 20.64C210.58 20.9 210.42 21.05 210.14 21.09C210.1 21.09 210.07 21.09 210.05 21.09C209.77 21.13 209.58 21.11 209.48 21.03C209.4 20.95 209.33 20.74 209.27 20.4C209.19 20.04 209.16 19.29 209.18 18.15C209.22 16.99 209.27 15.8 209.33 14.58C209.39 13.34 209.46 12.21 209.54 11.19C209.64 10.17 209.74 9.61 209.84 9.51ZM201.95 11.16C202.21 11.08 202.51 11.08 202.85 11.16C203.21 11.22 203.47 11.25 203.63 11.25C203.83 11.25 204.36 11.66 205.22 12.48C205.94 13.18 206.4 13.83 206.6 14.43C206.8 15.01 206.79 15.67 206.57 16.41C206.33 17.21 205.94 17.91 205.4 18.51C204.88 19.09 204.29 19.5 203.63 19.74C202.99 19.96 202.34 20.07 201.68 20.07C201.02 20.05 200.41 19.84 199.85 19.44C199.29 19.04 198.85 18.49 198.53 17.79C198.21 17.05 198.05 16.51 198.05 16.17C198.05 15.87 198.18 15.38 198.44 14.7C198.72 14 199.01 13.46 199.31 13.08C199.47 12.86 199.71 12.62 200.03 12.36C200.35 12.08 200.68 11.83 201.02 11.61C201.38 11.39 201.69 11.24 201.95 11.16ZM204.5 13.62C203.6 12.66 202.61 12.54 201.53 13.26C200.71 13.82 200.17 14.53 199.91 15.39C199.67 16.23 199.76 16.97 200.18 17.61C200.6 18.25 201.26 18.57 202.16 18.57C202.72 18.57 203.19 18.46 203.57 18.24C203.95 18 204.31 17.61 204.65 17.07C205.01 16.47 205.17 15.86 205.13 15.24C205.11 14.6 204.9 14.06 204.5 13.62ZM222.593 5.1C223.193 5 223.943 4.95 224.843 4.95L226.133 4.98L226.073 8.49C226.053 10.81 225.993 12.05 225.893 12.21C225.753 12.41 225.533 12.48 225.233 12.42C224.933 12.36 224.713 12.19 224.573 11.91C224.393 11.55 224.353 10.54 224.453 8.88L224.603 6.39L222.293 6.72C220.893 6.9 219.853 7.08 219.173 7.26C218.473 7.44 217.983 7.51 217.703 7.47C217.423 7.43 217.283 7.26 217.283 6.96C217.283 6.52 217.503 6.21 217.943 6.03C218.383 5.83 219.263 5.64 220.583 5.46C221.223 5.38 221.893 5.26 222.593 5.1ZM220.583 13.83C221.023 13.55 221.303 13.59 221.423 13.95C221.523 14.27 221.593 15.06 221.633 16.32C221.653 17.82 221.743 18.64 221.903 18.78C222.023 18.9 222.963 18.91 224.723 18.81C225.803 18.75 226.523 18.73 226.883 18.75C227.243 18.77 227.483 18.86 227.603 19.02C228.003 19.52 227.913 19.95 227.333 20.31C227.093 20.47 226.893 20.56 226.733 20.58C226.593 20.58 226.423 20.53 226.223 20.43C225.863 20.25 225.293 20.21 224.513 20.31C223.613 20.39 222.693 20.47 221.753 20.55C220.893 20.63 219.863 20.76 218.663 20.94C217.603 21.12 216.943 21.11 216.683 20.91C216.083 20.39 216.173 19.96 216.953 19.62C217.393 19.44 217.963 19.32 218.663 19.26L220.163 19.14L220.223 16.59C220.223 16.07 220.223 15.66 220.223 15.36C220.243 15.04 220.263 14.77 220.283 14.55C220.323 14.33 220.363 14.17 220.403 14.07C220.463 13.97 220.523 13.89 220.583 13.83ZM242.584 4.53C242.784 4.45 242.984 4.43 243.184 4.47C243.384 4.51 243.804 4.65 244.444 4.89C244.944 5.07 245.364 5.3 245.704 5.58C246.064 5.84 246.364 6.17 246.604 6.57C246.844 6.97 247.064 7.47 247.264 8.07C247.464 8.71 247.534 9.29 247.474 9.81C247.434 10.33 247.244 10.92 246.904 11.58C246.524 12.32 245.954 12.88 245.194 13.26C244.454 13.64 243.584 13.83 242.584 13.83C242.164 13.83 241.794 13.79 241.474 13.71C241.154 13.63 240.844 13.49 240.544 13.29C240.244 13.09 239.964 12.84 239.704 12.54C239.464 12.22 239.224 11.82 238.984 11.34C238.584 10.6 238.374 9.96 238.354 9.42C238.334 8.86 238.494 8.18 238.834 7.38C239.014 6.88 239.424 6.34 240.064 5.76C240.724 5.18 241.264 4.84 241.684 4.74C242.144 4.66 242.444 4.59 242.584 4.53ZM244.984 6.87C244.304 6.23 243.574 5.98 242.794 6.12C242.014 6.24 241.294 6.73 240.634 7.59C240.254 8.05 240.064 8.64 240.064 9.36C240.084 10.06 240.284 10.69 240.664 11.25C241.204 12.05 241.894 12.46 242.734 12.48C243.574 12.48 244.364 12.09 245.104 11.31C245.284 11.11 245.424 10.95 245.524 10.83C245.624 10.71 245.704 10.57 245.764 10.41C245.824 10.23 245.854 10.05 245.854 9.87C245.874 9.69 245.884 9.43 245.884 9.09C245.884 8.41 245.834 7.97 245.734 7.77C245.654 7.55 245.404 7.25 244.984 6.87ZM250.744 4.98C251.144 4.52 251.494 4.52 251.794 4.98C252.054 5.4 252.124 5.99 252.004 6.75C251.924 7.27 251.864 8.73 251.824 11.13C251.804 12.85 251.764 13.87 251.704 14.19C251.664 14.51 251.514 14.69 251.254 14.73C251.014 14.77 250.824 14.74 250.684 14.64C250.544 14.52 250.434 14.28 250.354 13.92C250.274 13.54 250.234 13 250.234 12.3C250.254 11.6 250.274 10.68 250.294 9.54C250.374 6.72 250.524 5.2 250.744 4.98ZM244.144 16.95C244.504 16.53 244.794 16.29 245.014 16.23C245.254 16.17 245.544 16.26 245.884 16.5C246.084 16.66 246.174 16.79 246.154 16.89C246.134 16.97 245.974 17.15 245.674 17.43C245.394 17.67 245.224 17.86 245.164 18C245.124 18.14 245.144 18.3 245.224 18.48C245.284 18.58 245.434 18.71 245.674 18.87C245.914 19.01 246.164 19.14 246.424 19.26C246.704 19.38 246.984 19.49 247.264 19.59C247.564 19.69 247.804 19.75 247.984 19.77C248.164 19.79 248.274 19.77 248.314 19.71C248.374 19.51 248.644 18.97 249.124 18.09C249.604 17.21 249.914 16.67 250.054 16.47C250.234 16.29 250.464 16.2 250.744 16.2C250.984 16.2 251.124 16.28 251.164 16.44C251.224 16.58 251.234 16.92 251.194 17.46C251.194 17.72 251.284 17.99 251.464 18.27C251.644 18.55 252.014 18.97 252.574 19.53C253.774 20.73 254.284 21.48 254.104 21.78C254.044 21.86 253.934 21.93 253.774 21.99C253.574 22.05 253.314 22.01 252.994 21.87C252.694 21.75 252.384 21.55 252.064 21.27C251.744 20.99 251.454 20.67 251.194 20.31C250.794 19.77 250.494 19.5 250.294 19.5C250.094 19.5 249.994 19.51 249.994 19.53C249.994 19.55 249.844 20.01 249.544 20.91C249.364 21.47 249.214 21.83 249.094 21.99C248.974 22.17 248.794 22.27 248.554 22.29C248.314 22.31 248.144 22.29 248.044 22.23C247.944 22.17 247.864 22.02 247.804 21.78C247.724 21.36 247.584 21.15 247.384 21.15C247.184 21.15 246.594 20.9 245.614 20.4C244.774 20 244.244 19.83 244.024 19.89C243.824 19.93 243.654 20.27 243.514 20.91C243.354 21.55 243.194 21.98 243.034 22.2C242.894 22.44 242.674 22.56 242.374 22.56C241.714 22.56 241.504 22.14 241.744 21.3C241.864 20.9 242.104 20.34 242.464 19.62C243.144 18.3 243.704 17.41 244.144 16.95ZM259.539 7.8C259.839 7.7 260.099 7.67 260.319 7.71C260.559 7.75 260.929 7.88 261.429 8.1C262.189 8.46 262.779 8.84 263.199 9.24C263.639 9.64 263.939 10.13 264.099 10.71C264.279 11.29 264.369 12.06 264.369 13.02C264.369 14.26 263.999 15.3 263.259 16.14C262.519 16.96 261.599 17.38 260.499 17.4C259.779 17.4 258.979 17.18 258.099 16.74C257.239 16.28 256.629 15.76 256.269 15.18C255.869 14.56 255.659 13.88 255.639 13.14C255.619 12.38 255.759 11.65 256.059 10.95C256.359 10.25 256.819 9.62 257.439 9.06C258.059 8.48 258.759 8.06 259.539 7.8ZM261.969 10.05C261.509 9.69 261.049 9.47 260.589 9.39C260.129 9.29 259.739 9.34 259.419 9.54C258.459 10.14 257.789 10.85 257.409 11.67C257.049 12.49 257.059 13.23 257.439 13.89C257.859 14.57 258.469 15.1 259.269 15.48C260.069 15.86 260.719 15.92 261.219 15.66C261.559 15.46 261.859 15.24 262.119 15C262.399 14.76 262.609 14.5 262.749 14.22C262.889 13.94 262.959 13.67 262.959 13.41C262.959 12.61 262.859 11.9 262.659 11.28C262.479 10.66 262.249 10.25 261.969 10.05ZM268.719 9.27C268.819 8.87 269.059 8.67 269.439 8.67C269.839 8.67 270.089 8.77 270.189 8.97C270.329 9.23 270.339 10.44 270.219 12.6C270.119 14.7 270.049 16.48 270.009 17.94C269.989 18.84 269.949 19.42 269.889 19.68C269.829 19.94 269.709 20.12 269.529 20.22C269.209 20.4 268.929 20.44 268.689 20.34C268.529 20.28 268.439 20.06 268.419 19.68C268.399 19.28 268.419 18.4 268.479 17.04C268.559 15.48 268.589 14.56 268.569 14.28C268.549 13.98 268.419 13.83 268.179 13.83C267.879 13.83 267.499 13.92 267.039 14.1C266.579 14.28 266.099 14.32 265.599 14.22C265.099 14.1 264.849 13.9 264.849 13.62C264.849 13.42 264.939 13.24 265.119 13.08C265.299 12.9 265.559 12.75 265.899 12.63C266.259 12.51 266.679 12.42 267.159 12.36C267.959 12.28 268.449 12.19 268.629 12.09C268.789 11.99 268.809 11.59 268.689 10.89C268.609 10.17 268.619 9.63 268.719 9.27ZM274.721 4.35C275.441 4.09 276.131 4.01 276.791 4.11C277.471 4.19 278.101 4.46 278.681 4.92C279.281 5.38 279.771 6 280.151 6.78C280.531 7.52 280.711 8.21 280.691 8.85C280.691 9.49 280.491 10.2 280.091 10.98C279.771 11.62 279.391 12.1 278.951 12.42C278.511 12.72 277.951 12.92 277.271 13.02C276.131 13.18 275.051 12.96 274.031 12.36C273.011 11.76 272.361 10.99 272.081 10.05C271.681 8.77 271.721 7.63 272.201 6.63C272.681 5.63 273.521 4.87 274.721 4.35ZM277.151 5.58C276.951 5.58 276.731 5.54 276.491 5.46C276.131 5.34 275.561 5.56 274.781 6.12C274.001 6.68 273.531 7.22 273.371 7.74C273.311 7.94 273.301 8.18 273.341 8.46C273.381 8.72 273.451 8.99 273.551 9.27C273.651 9.53 273.781 9.79 273.941 10.05C274.121 10.31 274.311 10.53 274.511 10.71C275.271 11.39 276.041 11.7 276.821 11.64C277.601 11.58 278.221 11.17 278.681 10.41C279.421 9.21 279.301 7.96 278.321 6.66C277.741 5.94 277.351 5.58 277.151 5.58ZM278.411 14.91C278.571 14.53 278.771 14.34 279.011 14.34C279.271 14.32 279.491 14.51 279.671 14.91C279.831 15.29 279.811 15.95 279.611 16.89C279.411 17.79 279.371 18.34 279.491 18.54C279.591 18.72 280.191 18.81 281.291 18.81C282.051 18.81 282.521 18.84 282.701 18.9C282.901 18.94 283.051 19.08 283.151 19.32C283.291 19.74 283.241 20.03 283.001 20.19C282.781 20.35 282.281 20.42 281.501 20.4C280.881 20.38 280.111 20.42 279.191 20.52C278.291 20.6 277.651 20.69 277.271 20.79C277.091 20.85 276.631 20.94 275.891 21.06C275.171 21.2 274.461 21.33 273.761 21.45C273.061 21.57 272.641 21.63 272.501 21.63C272.261 21.63 272.081 21.47 271.961 21.15C271.841 20.83 271.871 20.56 272.051 20.34C272.211 20.14 272.601 19.99 273.221 19.89L274.091 19.77V17.85C274.111 16.79 274.191 16.12 274.331 15.84C274.471 15.54 274.771 15.45 275.231 15.57C275.511 15.65 275.671 15.78 275.711 15.96C275.771 16.12 275.791 16.62 275.771 17.46L275.711 19.14L276.881 19.23C277.621 19.27 277.991 19.23 277.991 19.11C277.991 18.57 278.011 18 278.051 17.4C278.111 16.8 278.171 16.28 278.231 15.84C278.311 15.4 278.371 15.09 278.411 14.91ZM285.331 18.72C285.631 18.58 285.881 18.53 286.081 18.57C286.301 18.59 286.541 18.72 286.801 18.96C287.021 19.14 287.161 19.29 287.221 19.41C287.281 19.51 287.311 19.67 287.311 19.89C287.311 20.87 286.811 21.36 285.811 21.36C285.671 21.36 285.551 21.35 285.451 21.33C285.371 21.31 285.301 21.27 285.241 21.21C285.181 21.17 285.101 21.1 285.001 21C284.801 20.76 284.701 20.41 284.701 19.95C284.701 19.59 284.741 19.33 284.821 19.17C284.901 19.01 285.071 18.86 285.331 18.72ZM60.9463 42.62C60.9463 42.2 61.2263 41.88 61.7863 41.66C62.3463 41.42 63.5163 41.16 65.2963 40.88C67.0763 40.58 68.2163 40.42 68.7163 40.4C69.2163 40.38 69.5063 40.47 69.5863 40.67C69.6463 40.83 69.5463 41.22 69.2863 41.84C69.0463 42.46 68.7163 43.09 68.2963 43.73C68.0963 44.05 68.0063 44.27 68.0263 44.39C68.0663 44.51 68.3063 44.75 68.7463 45.11C69.2863 45.57 69.8363 45.95 70.3963 46.25C70.9363 46.55 71.3463 46.85 71.6263 47.15C71.8263 47.37 71.9263 47.53 71.9263 47.63C71.9263 47.71 71.8363 47.83 71.6563 47.99C71.4163 48.25 71.1763 48.38 70.9363 48.38C70.7963 48.38 70.4463 48.2 69.8863 47.84C69.3263 47.48 68.9463 47.19 68.7463 46.97C68.6063 46.81 68.2863 46.57 67.7863 46.25C67.2863 45.93 66.9863 45.77 66.8863 45.77C66.7063 45.77 66.1363 46.36 65.1763 47.54C64.4563 48.4 63.9263 48.93 63.5863 49.13C63.2663 49.31 62.9063 49.32 62.5063 49.16C62.3863 49.12 62.2963 49.07 62.2363 49.01C62.1763 48.95 62.1463 48.88 62.1463 48.8C62.1463 48.72 62.1763 48.62 62.2363 48.5C62.2963 48.38 62.3863 48.24 62.5063 48.08C62.6463 47.92 62.8063 47.74 62.9863 47.54C63.1663 47.32 63.4063 47.07 63.7063 46.79C64.8263 45.59 65.5463 44.78 65.8663 44.36C66.2663 43.84 66.6063 43.44 66.8863 43.16C67.2063 42.88 67.3463 42.56 67.3063 42.2C67.2663 42.1 67.2063 42.04 67.1263 42.02C66.0663 42.24 65.2663 42.4 64.7263 42.5C62.5063 42.98 61.2963 43.18 61.0963 43.1C60.9963 43.06 60.9463 42.9 60.9463 42.62ZM66.8863 49.52C67.2063 49.32 67.4363 49.34 67.5763 49.58C67.7163 49.8 67.7863 50.25 67.7863 50.93C67.7663 51.43 67.7563 52.1 67.7563 52.94L67.7863 53.63L69.8863 53.51C70.9663 53.45 71.6663 53.47 71.9863 53.57C72.3263 53.67 72.4963 53.92 72.4963 54.32C72.4963 54.64 72.2963 54.86 71.8963 54.98C71.4963 55.1 70.7663 55.17 69.7063 55.19C68.4863 55.19 67.1863 55.28 65.8063 55.46C64.4863 55.64 63.6763 55.73 63.3763 55.73C63.0963 55.73 62.8863 55.62 62.7463 55.4C62.5463 55.06 62.6163 54.75 62.9563 54.47C63.2963 54.17 63.7663 54.02 64.3663 54.02C65.2063 54.02 65.7363 53.96 65.9563 53.84C66.1963 53.7 66.2763 53.41 66.1963 52.97C66.1363 52.51 66.1863 51.85 66.3463 50.99C66.5263 50.13 66.7063 49.64 66.8863 49.52ZM79.2934 37.79C80.0734 37.67 80.7534 37.61 81.3334 37.61L82.0534 37.64V40.79C82.0534 42.35 82.0334 43.28 81.9934 43.58C81.9534 43.88 81.7834 44.09 81.4834 44.21C80.9234 44.47 80.5834 44.27 80.4634 43.61C80.3834 43.19 80.3734 42.45 80.4334 41.39L80.5834 39.14L79.6534 39.29C78.1534 39.57 77.2734 39.74 77.0134 39.8C76.2934 39.96 75.8034 40.04 75.5434 40.04C75.3034 40.04 75.1534 39.98 75.0934 39.86C74.7534 39.32 75.2234 38.83 76.5034 38.39C77.2434 38.15 78.1734 37.95 79.2934 37.79ZM79.6834 46.25C80.5234 46.07 81.4534 46 82.4734 46.04C83.5134 46.06 84.1634 46.16 84.4234 46.34C84.6034 46.48 84.7034 46.61 84.7234 46.73C84.7634 46.83 84.7234 46.96 84.6034 47.12C84.5434 47.24 84.4234 47.34 84.2434 47.42C84.0834 47.48 83.8334 47.53 83.4934 47.57C83.1734 47.61 82.6934 47.65 82.0534 47.69C80.3534 47.81 79.0934 47.96 78.2734 48.14C78.0734 48.2 77.8334 48.26 77.5534 48.32C77.2934 48.36 77.0834 48.4 76.9234 48.44C76.7634 48.48 76.6634 48.5 76.6234 48.5C76.1634 48.6 75.7434 48.68 75.3634 48.74C75.0034 48.78 74.7134 48.8 74.4934 48.8C74.2734 48.78 74.1634 48.73 74.1634 48.65C74.1634 48.51 74.1134 48.32 74.0134 48.08C73.9134 47.8 74.0834 47.54 74.5234 47.3C74.9834 47.06 75.5734 46.91 76.2934 46.85C77.1334 46.79 77.7534 46.69 78.1534 46.55C78.2334 46.55 78.3734 46.53 78.5734 46.49C78.7734 46.43 78.9734 46.38 79.1734 46.34C79.3734 46.3 79.5434 46.27 79.6834 46.25ZM82.4134 50.54C82.5134 50.44 82.8334 50.46 83.3734 50.6C83.9134 50.72 84.2334 50.85 84.3334 50.99C84.4534 51.21 84.5134 52.22 84.5134 54.02C84.5134 55.48 84.4234 56.43 84.2434 56.87C84.0834 57.33 83.7134 57.56 83.1334 57.56C82.6734 57.56 81.6134 57.73 79.9534 58.07C79.9334 58.07 79.9134 58.07 79.8934 58.07C78.2134 58.39 77.2234 58.42 76.9234 58.16C76.6434 57.92 76.5034 56.87 76.5034 55.01C76.5034 54.27 76.5134 53.7 76.5334 53.3C76.5534 52.9 76.5834 52.6 76.6234 52.4C76.6834 52.18 76.7634 52.01 76.8634 51.89C77.1234 51.61 77.3634 51.5 77.5834 51.56C77.7834 51.66 78.2934 51.57 79.1134 51.29C79.7734 51.11 80.5134 50.94 81.3334 50.78C81.9934 50.7 82.3534 50.62 82.4134 50.54ZM82.8334 54.29C82.8934 53.15 82.8534 52.52 82.7134 52.4C82.6134 52.3 82.2134 52.31 81.5134 52.43C80.8334 52.53 80.0734 52.7 79.2334 52.94L78.0334 53.24L77.9734 54.92L77.8834 56.66L79.2634 56.48C80.3834 56.38 81.1934 56.28 81.6934 56.18L82.7734 56.03L82.8334 54.29ZM99.2188 40.22C99.3588 40.02 99.5788 39.97 99.8788 40.07C100.199 40.15 100.399 40.31 100.479 40.55C100.559 40.79 100.529 41.24 100.389 41.9C100.229 42.58 100.149 43.3 100.149 44.06C100.149 44.66 100.179 45.01 100.239 45.11C100.299 45.21 100.489 45.24 100.809 45.2C101.229 45.14 101.569 45.06 101.829 44.96C102.129 44.86 102.409 44.85 102.669 44.93C102.949 44.99 103.159 45.14 103.299 45.38C103.439 45.6 103.459 45.84 103.359 46.1C103.259 46.34 102.929 46.46 102.369 46.46C101.829 46.46 101.249 46.63 100.629 46.97L99.6688 47.45L99.6088 49.37C99.5888 49.85 99.5688 50.21 99.5488 50.45C99.5288 50.67 99.4888 50.87 99.4288 51.05C99.3888 51.21 99.3288 51.32 99.2488 51.38C99.1888 51.44 99.0888 51.51 98.9488 51.59C98.4488 51.85 98.1488 51.79 98.0488 51.41C97.9288 50.99 98.0188 49.47 98.3188 46.85C98.5788 44.55 98.7488 42.94 98.8288 42.02C98.9488 40.98 99.0788 40.38 99.2188 40.22ZM89.1688 40.85C90.0888 40.55 91.1488 40.39 92.3488 40.37C93.5688 40.33 94.2288 40.45 94.3288 40.73C94.4288 41.01 94.4788 42.25 94.4788 44.45C94.4788 45.79 94.4388 46.75 94.3588 47.33C94.2788 47.91 94.1388 48.31 93.9388 48.53C93.7588 48.73 93.4388 48.83 92.9788 48.83C92.2188 48.83 91.1788 48.87 89.8588 48.95C88.2788 49.05 87.3588 49 87.0988 48.8C86.8588 48.6 86.6488 47.87 86.4688 46.61C86.2888 45.33 86.2288 44.11 86.2888 42.95C86.3088 42.21 86.3488 41.77 86.4088 41.63C86.4888 41.49 86.6988 41.4 87.0388 41.36C87.4988 41.32 88.2088 41.15 89.1688 40.85ZM92.9188 43.01C93.0188 42.53 93.0388 42.25 92.9788 42.17C92.9388 42.07 92.7588 42.03 92.4388 42.05C91.6988 42.07 90.5788 42.26 89.0788 42.62L87.6088 43.01L87.7888 45.05C87.8888 46.43 88.0288 47.17 88.2088 47.27C88.3888 47.41 89.0288 47.42 90.1288 47.3C90.7288 47.26 91.4288 47.2 92.2288 47.12C92.4288 47.1 92.5488 47 92.5888 46.82C92.6488 46.62 92.6888 46.19 92.7088 45.53C92.7288 44.51 92.7988 43.67 92.9188 43.01ZM91.6588 52.52C91.9788 52.12 92.3588 52.07 92.7988 52.37C93.0188 52.51 93.0688 52.88 92.9488 53.48C92.6288 55.04 92.6188 55.87 92.9188 55.97C93.0788 56.05 93.7088 55.99 94.8088 55.79C96.0288 55.57 97.0988 55.44 98.0188 55.4L99.5188 55.31V56.03C99.5188 56.37 99.4488 56.58 99.3088 56.66C99.1888 56.74 98.7588 56.83 98.0188 56.93C96.9788 57.03 96.1588 57.17 95.5588 57.35C94.9588 57.51 94.1588 57.61 93.1588 57.65C92.1788 57.69 91.6188 57.64 91.4788 57.5C91.3388 57.34 91.2888 56.52 91.3288 55.04C91.3888 53.54 91.4988 52.7 91.6588 52.52ZM129.005 42.29C129.145 42.07 129.365 41.99 129.665 42.05C129.985 42.09 130.195 42.25 130.295 42.53C130.415 42.89 130.415 44.09 130.295 46.13C130.175 48.37 130.115 50.39 130.115 52.19C130.095 54.15 129.995 55.22 129.815 55.4C129.615 55.58 129.385 55.67 129.125 55.67C128.865 55.65 128.705 55.55 128.645 55.37C128.565 55.13 128.585 52.93 128.705 48.77C128.825 44.61 128.925 42.45 129.005 42.29ZM119.375 43.55C119.915 43.45 120.325 43.38 120.605 43.34C120.905 43.3 121.195 43.27 121.475 43.25C121.755 43.23 121.955 43.23 122.075 43.25C122.215 43.25 122.335 43.28 122.435 43.34C122.555 43.38 122.635 43.44 122.675 43.52C122.715 43.58 122.765 43.68 122.825 43.82C123.125 44.6 122.815 46.88 121.895 50.66C121.635 51.76 121.435 52.49 121.295 52.85C121.155 53.19 120.985 53.38 120.785 53.42C120.325 53.54 120.045 53.45 119.945 53.15C119.845 52.85 119.915 52.3 120.155 51.5C120.395 50.74 120.665 49.48 120.965 47.72C121.285 45.96 121.405 45.04 121.325 44.96C121.245 44.88 120.815 44.91 120.035 45.05C117.775 45.53 116.345 45.81 115.745 45.89C115.165 45.95 114.715 45.92 114.395 45.8C113.515 45.4 113.855 44.94 115.415 44.42C116.375 44.1 117.695 43.81 119.375 43.55ZM144.534 42.23C144.594 42.11 144.724 42.04 144.924 42.02C145.144 42 145.384 42.05 145.644 42.17C145.804 42.23 145.904 42.44 145.944 42.8C146.004 43.16 146.034 43.91 146.034 45.05C146.034 46.91 146.074 47.87 146.154 47.93C146.194 47.99 146.914 47.97 148.314 47.87C149.594 47.73 150.434 47.7 150.834 47.78C151.254 47.86 151.464 48.09 151.464 48.47C151.464 48.55 151.454 48.62 151.434 48.68C151.434 48.74 151.404 48.8 151.344 48.86C151.304 48.92 151.254 48.97 151.194 49.01C151.154 49.05 151.074 49.09 150.954 49.13C150.834 49.17 150.704 49.2 150.564 49.22C150.424 49.24 150.234 49.27 149.994 49.31C149.774 49.33 149.534 49.35 149.274 49.37C149.034 49.39 148.714 49.42 148.314 49.46C146.934 49.56 146.184 49.7 146.064 49.88C145.984 50.02 145.924 50.88 145.884 52.46C145.864 54 145.824 54.79 145.764 54.83C145.744 54.87 145.554 54.95 145.194 55.07C144.774 55.19 144.514 55.07 144.414 54.71C144.294 54.27 144.294 52.82 144.414 50.36C144.574 47.58 144.614 45.56 144.534 44.3C144.414 43.06 144.414 42.37 144.534 42.23ZM136.014 43.07C137.354 42.85 138.304 42.75 138.864 42.77C139.424 42.77 139.744 42.88 139.824 43.1C139.964 43.46 139.904 43.74 139.644 43.94C139.404 44.14 138.964 44.25 138.324 44.27C136.504 44.29 135.104 44.52 134.124 44.96L133.374 45.23L133.464 47.45C133.504 48.05 133.524 48.49 133.524 48.77C133.544 49.05 133.584 49.34 133.644 49.64C133.704 49.94 133.764 50.14 133.824 50.24C133.884 50.32 133.994 50.42 134.154 50.54C134.334 50.64 134.494 50.7 134.634 50.72C134.794 50.74 135.034 50.76 135.354 50.78C136.254 50.86 137.174 50.85 138.114 50.75C139.614 50.53 140.364 50.74 140.364 51.38C140.364 51.62 140.324 51.8 140.244 51.92C140.184 52.04 139.994 52.14 139.674 52.22C139.374 52.3 138.974 52.35 138.474 52.37C137.994 52.39 137.274 52.4 136.314 52.4C136.134 52.4 135.884 52.4 135.564 52.4C135.084 52.4 134.744 52.4 134.544 52.4C134.344 52.4 134.084 52.38 133.764 52.34C133.464 52.3 133.274 52.28 133.194 52.28C133.114 52.26 132.994 52.19 132.834 52.07C132.674 51.93 132.574 51.82 132.534 51.74C132.514 51.64 132.464 51.46 132.384 51.2C132.324 50.94 132.284 50.72 132.264 50.54C132.264 50.34 132.234 50.03 132.174 49.61C132.154 49.31 132.134 49.07 132.114 48.89C131.934 47.07 131.854 45.83 131.874 45.17C131.894 44.51 132.024 44.12 132.264 44C133.124 43.66 134.374 43.35 136.014 43.07ZM157.648 41.57C158.808 41.47 159.548 41.45 159.868 41.51C160.188 41.55 160.388 41.74 160.468 42.08C160.568 42.48 160.618 43.44 160.618 44.96C160.638 46.46 160.598 47.29 160.498 47.45C160.418 47.59 160.178 47.75 159.778 47.93C159.378 48.09 158.638 48.36 157.558 48.74L156.028 49.25L155.938 50.24C155.878 51.12 155.918 51.7 156.058 51.98C156.198 52.26 156.528 52.4 157.048 52.4C157.728 52.4 158.448 52.3 159.208 52.1C159.768 51.98 160.128 51.93 160.288 51.95C160.468 51.97 160.628 52.08 160.768 52.28C160.988 52.58 161.078 52.84 161.038 53.06C160.958 53.48 159.508 53.84 156.688 54.14C156.008 54.22 155.578 54.25 155.398 54.23C155.238 54.19 155.098 54.04 154.978 53.78C154.778 53.44 154.638 52.56 154.558 51.14C154.498 50.12 154.488 49.49 154.528 49.25C154.588 48.99 154.778 48.7 155.098 48.38C155.518 47.92 156.188 47.56 157.108 47.3C158.088 47 158.678 46.7 158.878 46.4C159.098 46.08 159.168 45.45 159.088 44.51L158.908 42.92L157.918 43.1C157.358 43.16 156.728 43.31 156.028 43.55C154.388 44.09 153.418 44.18 153.118 43.82C152.718 43.36 153.068 42.89 154.168 42.41C155.088 41.99 156.248 41.71 157.648 41.57ZM167.578 42.77C167.678 42.43 167.908 42.26 168.268 42.26C168.688 42.26 168.958 42.38 169.078 42.62C169.218 42.86 169.228 43.24 169.108 43.76C168.948 44.52 168.828 46.09 168.748 48.47C168.688 50.83 168.718 52.35 168.838 53.03C168.958 53.73 168.948 54.23 168.808 54.53C168.668 54.83 168.368 54.98 167.908 54.98C167.608 54.98 167.418 54.87 167.338 54.65C167.278 54.41 167.198 53.7 167.098 52.52C167.018 51.1 166.938 50.35 166.858 50.27C166.778 50.21 166.158 50.28 164.998 50.48C163.958 50.66 163.288 50.72 162.988 50.66C162.708 50.58 162.598 50.33 162.658 49.91C162.738 49.57 162.908 49.34 163.168 49.22C163.428 49.1 164.048 48.97 165.028 48.83C165.888 48.73 166.468 48.59 166.768 48.41C167.068 48.21 167.218 47.91 167.218 47.51C167.218 47.13 167.068 46.91 166.768 46.85C166.488 46.79 165.938 46.87 165.118 47.09C164.298 47.31 163.728 47.39 163.408 47.33C163.108 47.27 162.958 47.03 162.958 46.61C162.958 46.23 163.138 45.95 163.498 45.77C163.858 45.59 164.458 45.46 165.298 45.38C166.198 45.28 166.778 45.15 167.038 44.99C167.318 44.83 167.458 44.52 167.458 44.06C167.458 43.6 167.498 43.17 167.578 42.77ZM183.887 40.28C185.827 40.06 187.057 39.95 187.577 39.95C188.097 39.93 188.427 40.01 188.567 40.19C188.707 40.37 188.707 40.6 188.567 40.88C188.447 41.14 188.087 41.68 187.487 42.5L186.707 43.52L187.247 43.94C187.607 44.22 187.847 44.36 187.967 44.36C188.067 44.36 188.437 44.56 189.077 44.96C189.697 45.4 190.007 45.79 190.007 46.13C190.007 46.93 189.237 46.86 187.697 45.92C187.357 45.7 187.117 45.55 186.977 45.47C186.837 45.39 186.657 45.3 186.437 45.2C186.217 45.1 186.067 45.04 185.987 45.02C185.927 44.98 185.807 44.97 185.627 44.99C185.447 45.01 185.327 45.04 185.267 45.08C185.227 45.12 185.117 45.21 184.937 45.35C184.777 45.47 184.647 45.59 184.547 45.71C184.447 45.81 184.287 45.99 184.067 46.25C183.547 46.81 183.157 47.19 182.897 47.39C182.637 47.59 182.407 47.67 182.207 47.63C181.567 47.53 181.437 47.17 181.817 46.55C182.117 46.09 182.767 45.36 183.767 44.36C185.567 42.56 186.287 41.62 185.927 41.54C185.887 41.52 185.847 41.51 185.807 41.51C185.667 41.51 184.707 41.68 182.927 42.02C181.787 42.22 181.027 42.33 180.647 42.35C180.287 42.37 180.037 42.31 179.897 42.17C179.677 41.95 179.617 41.71 179.717 41.45C179.837 41.17 180.067 40.97 180.407 40.85C180.687 40.73 181.847 40.54 183.887 40.28ZM188.867 49.64C189.307 49.4 189.707 49.32 190.067 49.4C190.447 49.48 190.707 49.71 190.847 50.09C190.967 50.39 190.987 50.63 190.907 50.81C190.827 50.97 190.647 51.09 190.367 51.17C190.107 51.23 189.727 51.24 189.227 51.2C188.367 51.18 187.877 51.27 187.757 51.47C187.617 51.69 187.547 52.7 187.547 54.5C187.547 55.84 187.517 56.63 187.457 56.87C187.417 57.11 187.257 57.25 186.977 57.29C186.597 57.35 186.347 57.27 186.227 57.05C186.067 56.79 186.017 55.85 186.077 54.23C186.097 52.55 186.077 51.66 186.017 51.56C185.957 51.5 185.287 51.55 184.007 51.71C182.387 51.91 181.387 52 181.007 51.98C180.627 51.96 180.417 51.8 180.377 51.5C180.357 51.38 180.397 51.23 180.497 51.05C180.597 50.87 180.707 50.72 180.827 50.6C181.087 50.38 181.547 50.23 182.207 50.15C182.887 50.07 184.287 50.02 186.407 50C187.687 49.96 188.507 49.84 188.867 49.64ZM196.541 43.13C196.761 42.85 196.981 42.71 197.201 42.71C197.861 42.71 197.861 43.35 197.201 44.63C197.161 44.71 197.121 44.78 197.081 44.84C196.581 45.74 196.331 46.35 196.331 46.67C196.331 46.91 196.841 47.67 197.861 48.95C199.581 50.99 199.901 51.97 198.821 51.89C198.801 51.89 198.781 51.88 198.761 51.86C198.341 51.82 197.711 51.24 196.871 50.12C196.011 49.02 195.511 48.45 195.371 48.41C195.251 48.37 195.051 48.64 194.771 49.22C194.511 49.8 194.331 50.38 194.231 50.96C194.151 51.32 194.061 51.55 193.961 51.65C193.881 51.75 193.701 51.8 193.421 51.8C192.781 51.8 192.451 51.61 192.431 51.23C192.411 50.83 192.691 50.06 193.271 48.92C194.871 45.74 195.961 43.81 196.541 43.13ZM203.651 43.07C203.831 42.85 203.991 42.74 204.131 42.74C204.271 42.74 204.471 42.86 204.731 43.1C204.971 43.34 205.041 43.6 204.941 43.88C204.801 44.16 204.691 45.84 204.611 48.92C204.571 51.12 204.521 52.46 204.461 52.94C204.421 53.4 204.291 53.69 204.071 53.81C203.631 54.05 203.341 53.95 203.201 53.51C203.101 53.11 203.041 52.16 203.021 50.66C202.981 48.74 202.871 47.76 202.691 47.72C202.511 47.66 202.041 47.75 201.281 47.99C199.661 48.53 198.771 48.49 198.611 47.87C198.531 47.55 198.531 47.29 198.611 47.09C198.671 46.91 199.071 46.73 199.811 46.55C200.551 46.35 201.321 46.22 202.121 46.16L203.051 46.13L203.201 44.78C203.321 43.84 203.471 43.27 203.651 43.07ZM207.641 43.13C207.641 43.03 207.741 42.97 207.941 42.95C208.141 42.93 208.351 42.96 208.571 43.04C208.791 43.1 208.951 43.19 209.051 43.31C209.251 43.55 209.301 43.92 209.201 44.42C209.121 44.9 209.071 46.61 209.051 49.55C209.031 50.73 209.001 51.64 208.961 52.28C208.941 52.9 208.891 53.41 208.811 53.81C208.731 54.21 208.631 54.47 208.511 54.59C208.391 54.69 208.211 54.74 207.971 54.74C207.711 54.74 207.551 54.36 207.491 53.6C207.431 52.84 207.441 51.13 207.521 48.47C207.521 48.09 207.521 47.7 207.521 47.3C207.541 46.9 207.551 46.53 207.551 46.19C207.571 45.85 207.581 45.52 207.581 45.2C207.601 44.88 207.611 44.6 207.611 44.36C207.631 44.12 207.641 43.91 207.641 43.73C207.641 43.55 207.641 43.41 207.641 43.31C207.641 43.19 207.641 43.13 207.641 43.13ZM213.681 39.35C214.401 39.09 215.091 39.01 215.751 39.11C216.431 39.19 217.061 39.46 217.641 39.92C218.241 40.38 218.731 41 219.111 41.78C219.491 42.52 219.671 43.21 219.651 43.85C219.651 44.49 219.451 45.2 219.051 45.98C218.731 46.62 218.351 47.1 217.911 47.42C217.471 47.72 216.911 47.92 216.231 48.02C215.091 48.18 214.011 47.96 212.991 47.36C211.971 46.76 211.321 45.99 211.041 45.05C210.641 43.77 210.681 42.63 211.161 41.63C211.641 40.63 212.481 39.87 213.681 39.35ZM216.111 40.58C215.911 40.58 215.691 40.54 215.451 40.46C215.091 40.34 214.521 40.56 213.741 41.12C212.961 41.68 212.491 42.22 212.331 42.74C212.271 42.94 212.261 43.18 212.301 43.46C212.341 43.72 212.411 43.99 212.511 44.27C212.611 44.53 212.741 44.79 212.901 45.05C213.081 45.31 213.271 45.53 213.471 45.71C214.231 46.39 215.001 46.7 215.781 46.64C216.561 46.58 217.181 46.17 217.641 45.41C218.381 44.21 218.261 42.96 217.281 41.66C216.701 40.94 216.311 40.58 216.111 40.58ZM217.371 49.91C217.531 49.53 217.731 49.34 217.971 49.34C218.231 49.32 218.451 49.51 218.631 49.91C218.791 50.29 218.771 50.95 218.571 51.89C218.371 52.79 218.331 53.34 218.451 53.54C218.551 53.72 219.151 53.81 220.251 53.81C221.011 53.81 221.481 53.84 221.661 53.9C221.861 53.94 222.011 54.08 222.111 54.32C222.251 54.74 222.201 55.03 221.961 55.19C221.741 55.35 221.241 55.42 220.461 55.4C219.841 55.38 219.071 55.42 218.151 55.52C217.251 55.6 216.611 55.69 216.231 55.79C216.051 55.85 215.591 55.94 214.851 56.06C214.131 56.2 213.421 56.33 212.721 56.45C212.021 56.57 211.601 56.63 211.461 56.63C211.221 56.63 211.041 56.47 210.921 56.15C210.801 55.83 210.831 55.56 211.011 55.34C211.171 55.14 211.561 54.99 212.181 54.89L213.051 54.77V52.85C213.071 51.79 213.151 51.12 213.291 50.84C213.431 50.54 213.731 50.45 214.191 50.57C214.471 50.65 214.631 50.78 214.671 50.96C214.731 51.12 214.751 51.62 214.731 52.46L214.671 54.14L215.841 54.23C216.581 54.27 216.951 54.23 216.951 54.11C216.951 53.57 216.971 53 217.011 52.4C217.071 51.8 217.131 51.28 217.191 50.84C217.271 50.4 217.331 50.09 217.371 49.91ZM225.911 40.94C226.011 40.84 226.161 40.8 226.361 40.82C226.561 40.84 226.731 40.92 226.871 41.06C226.971 41.16 227.031 41.29 227.051 41.45C227.071 41.59 227.071 41.93 227.051 42.47C227.011 43.23 226.921 44.07 226.781 44.99C226.641 45.91 226.511 46.48 226.391 46.7C226.291 46.9 226.251 47.22 226.271 47.66C226.311 48.08 226.401 48.49 226.541 48.89C226.681 49.31 226.731 49.64 226.691 49.88C226.651 50.12 226.511 50.36 226.271 50.6C226.051 50.82 225.831 50.94 225.611 50.96C225.411 50.96 225.251 50.87 225.131 50.69C225.011 50.51 224.941 49.75 224.921 48.41C224.901 47.05 224.951 46.23 225.071 45.95C225.151 45.75 225.231 45.38 225.311 44.84C225.431 44.08 225.511 43.57 225.551 43.31C225.631 42.71 225.691 42.22 225.731 41.84C225.771 41.36 225.831 41.06 225.911 40.94ZM224.321 54.98C224.561 54.84 224.851 54.86 225.191 55.04C225.571 55.24 225.761 55.59 225.761 56.09C225.761 56.57 225.571 56.9 225.191 57.08C224.831 57.28 224.451 57.25 224.051 56.99C223.791 56.85 223.661 56.64 223.661 56.36C223.661 56.16 223.731 55.9 223.871 55.58C224.031 55.26 224.181 55.06 224.321 54.98ZM55.8689 71.14C56.0489 70.8 56.2489 70.63 56.4689 70.63C56.9889 70.63 57.2389 71.4 57.2189 72.94C57.2189 73.9 57.2589 74.44 57.3389 74.56C57.4589 74.64 58.0789 74.58 59.1989 74.38C59.9989 74.24 60.4989 74.18 60.6989 74.2C60.8989 74.22 61.0789 74.33 61.2389 74.53C61.4989 74.89 61.5689 75.18 61.4489 75.4C61.3489 75.6 61.0689 75.72 60.6089 75.76C60.0489 75.82 58.9389 76.01 57.2789 76.33C55.6189 76.65 54.5089 76.89 53.9489 77.05C53.4089 77.21 52.9289 77.25 52.5089 77.17C52.0889 77.07 51.8789 76.87 51.8789 76.57C51.8789 76.27 52.1289 75.99 52.6289 75.73C53.1489 75.45 53.7189 75.28 54.3389 75.22C55.0589 75.16 55.4889 75.09 55.6289 75.01C55.7689 74.91 55.7989 74.33 55.7189 73.27C55.6389 72.19 55.6889 71.48 55.8689 71.14ZM55.2989 77.92C56.0989 77.5 56.5789 77.28 56.7389 77.26C57.5189 77.24 58.3589 77.57 59.2589 78.25C60.1589 78.91 60.6089 79.55 60.6089 80.17C60.6089 80.65 60.4189 81.19 60.0389 81.79C59.1789 83.01 57.7889 83.64 55.8689 83.68C55.1489 83.7 54.6589 83.68 54.3989 83.62C54.1589 83.56 53.8689 83.37 53.5289 83.05C52.7889 82.35 52.5889 81.5 52.9289 80.5C53.2689 79.48 54.0589 78.62 55.2989 77.92ZM58.4789 79.12C58.1789 78.98 57.7989 78.92 57.3389 78.94C56.8989 78.94 56.5389 79.03 56.2589 79.21C55.6989 79.53 55.2989 79.78 55.0589 79.96C54.8389 80.14 54.6889 80.31 54.6089 80.47C54.5289 80.63 54.4889 80.85 54.4889 81.13C54.4889 81.29 54.4989 81.44 54.5189 81.58C54.5589 81.7 54.6089 81.8 54.6689 81.88C54.7289 81.96 54.8189 82.03 54.9389 82.09C55.0589 82.13 55.1989 82.16 55.3589 82.18C55.5389 82.2 55.7589 82.21 56.0189 82.21C56.8789 82.21 57.6289 81.97 58.2689 81.49C58.9289 81.01 59.1789 80.5 59.0189 79.96C58.9389 79.54 58.7589 79.26 58.4789 79.12ZM64.5689 77.56C65.2089 77.04 65.5289 77.36 65.5289 78.52C65.5289 79 65.4689 79.62 65.3489 80.38L65.1689 81.52L66.8189 81.43L68.4989 81.34V82.09C68.4989 82.43 68.4389 82.64 68.3189 82.72C68.1989 82.78 67.8289 82.85 67.2089 82.93C66.1289 83.05 65.4789 83.22 65.2589 83.44C65.0389 83.66 64.9589 84.21 65.0189 85.09C65.0789 85.83 65.0889 86.28 65.0489 86.44C65.0089 86.58 64.8389 86.68 64.5389 86.74C64.0989 86.82 63.8389 86.79 63.7589 86.65C63.6389 86.47 63.5989 85.42 63.6389 83.5C63.6789 81.56 63.7689 80.2 63.9089 79.42C64.0889 78.38 64.3089 77.76 64.5689 77.56ZM56.2889 84.22C56.4089 84.1 56.6289 84.07 56.9489 84.13C57.2689 84.17 57.4489 84.46 57.4889 85C57.5289 85.36 57.5889 85.57 57.6689 85.63C57.7489 85.69 57.9589 85.69 58.2989 85.63C58.6189 85.55 59.3689 85.45 60.5489 85.33C61.2889 85.27 61.7189 85.26 61.8389 85.3C61.9589 85.34 62.0189 85.5 62.0189 85.78C62.0189 86.1 61.8789 86.38 61.5989 86.62C61.3389 86.84 61.0689 86.92 60.7889 86.86C60.6089 86.84 60.1989 86.89 59.5589 87.01C58.9189 87.11 58.3989 87.23 57.9989 87.37C56.4189 87.89 55.4589 88.18 55.1189 88.24C54.7789 88.3 54.4989 88.23 54.2789 88.03C54.1189 87.85 54.0389 87.72 54.0389 87.64C54.0389 87.54 54.1289 87.39 54.3089 87.19C54.5889 86.91 54.9689 86.7 55.4489 86.56C55.7689 86.5 55.9589 86.41 56.0189 86.29C56.0989 86.17 56.1389 85.88 56.1389 85.42C56.1389 84.72 56.1889 84.32 56.2889 84.22ZM61.2089 88.93C62.7289 88.73 63.6689 88.63 64.0289 88.63C64.4089 88.61 64.6689 88.69 64.8089 88.87C64.9689 89.07 65.0389 90.03 65.0189 91.75L64.9889 94.3L64.3289 94.48C63.9289 94.58 63.6789 94.5 63.5789 94.24C63.4789 93.98 63.4089 93.23 63.3689 91.99L63.3089 90.31L62.1689 90.37C61.3689 90.39 60.6189 90.54 59.9189 90.82C58.8189 91.2 58.1889 91.18 58.0289 90.76C57.9289 90.52 58.0589 90.19 58.4189 89.77C58.5389 89.61 58.6889 89.49 58.8689 89.41C59.0689 89.33 59.3389 89.26 59.6789 89.2C60.0389 89.12 60.5489 89.03 61.2089 88.93ZM72.8344 75.7C73.3944 75.44 74.0744 75.35 74.8744 75.43C75.6944 75.49 76.3644 75.7 76.8844 76.06C77.5044 76.46 78.0044 77.09 78.3844 77.95C78.7644 78.81 78.9544 79.69 78.9544 80.59C78.9544 81.23 78.9144 81.69 78.8344 81.97C78.7544 82.25 78.5544 82.58 78.2344 82.96C77.7544 83.54 77.1044 83.96 76.2844 84.22C75.4644 84.48 74.5744 84.55 73.6144 84.43C73.0544 84.35 72.6344 84.25 72.3544 84.13C72.0744 84.01 71.7844 83.79 71.4844 83.47C70.4844 82.43 69.9844 81.28 69.9844 80.02C69.9844 79.08 70.2344 78.23 70.7344 77.47C71.2344 76.69 71.9344 76.1 72.8344 75.7ZM75.7444 77.05C75.2844 76.85 74.8844 76.78 74.5444 76.84C74.2244 76.9 73.7644 77.13 73.1644 77.53C72.3844 78.07 71.8744 78.63 71.6344 79.21C71.4944 79.61 71.4244 79.91 71.4244 80.11C71.4444 80.31 71.5744 80.65 71.8144 81.13C72.1744 81.87 72.5644 82.36 72.9844 82.6C73.4044 82.84 74.0044 82.93 74.7844 82.87C75.2844 82.81 75.6644 82.73 75.9244 82.63C76.2044 82.51 76.5044 82.31 76.8244 82.03C77.1444 81.71 77.3544 81.45 77.4544 81.25C77.5544 81.03 77.6044 80.73 77.6044 80.35C77.5644 79.77 77.3444 79.12 76.9444 78.4C76.5444 77.68 76.1444 77.23 75.7444 77.05ZM81.8344 76.66C81.9144 76.46 82.1444 76.34 82.5244 76.3C82.9244 76.26 83.1844 76.32 83.3044 76.48C83.3844 76.66 83.3444 77.78 83.1844 79.84C83.0244 81.9 83.0144 83.45 83.1544 84.49C83.2544 85.21 83.2844 85.66 83.2444 85.84C83.2244 86 83.0744 86.17 82.7944 86.35C82.3144 86.67 82.0144 86.66 81.8944 86.32C81.7344 85.92 81.6544 84.35 81.6544 81.61C81.6944 78.57 81.7544 76.92 81.8344 76.66ZM74.9944 87.43C75.1744 87.23 75.4644 87.15 75.8644 87.19C76.1644 87.23 76.3344 87.33 76.3744 87.49C76.4144 87.63 76.4244 88.12 76.4044 88.96C76.3444 90.1 76.3944 90.67 76.5544 90.67C76.7744 90.67 77.8544 90.55 79.7944 90.31C81.0144 90.13 81.8344 90.04 82.2544 90.04C82.6744 90.04 82.9144 90.1 82.9744 90.22C83.2344 90.64 83.1944 90.95 82.8544 91.15C82.5344 91.37 81.8144 91.59 80.6944 91.81C77.1544 92.37 75.2844 92.48 75.0844 92.14C74.9244 91.9 74.8344 91.1 74.8144 89.74C74.7944 88.38 74.8544 87.61 74.9944 87.43ZM98.032 72.1C98.412 71.4 98.732 71.34 98.992 71.92C99.192 72.36 99.282 73.04 99.262 73.96V75.64L100.012 75.49C100.272 75.43 100.972 75.33 102.112 75.19C102.712 75.13 103.102 75.12 103.282 75.16C103.462 75.2 103.632 75.35 103.792 75.61C104.072 76.01 104.092 76.3 103.852 76.48C103.612 76.64 103.002 76.77 102.022 76.87C99.522 77.07 97.592 77.39 96.232 77.83C95.532 78.07 94.952 78.16 94.492 78.1C94.052 78.02 93.832 77.81 93.832 77.47C93.832 77.27 93.912 77.1 94.072 76.96C94.252 76.82 94.542 76.69 94.942 76.57C95.362 76.43 96.012 76.27 96.892 76.09L97.672 75.94L97.732 74.29C97.752 73.21 97.852 72.48 98.032 72.1ZM98.122 78.73C98.742 78.53 99.262 78.45 99.682 78.49C100.122 78.53 100.672 78.7 101.332 79C102.512 79.6 103.152 80.53 103.252 81.79C103.372 83.03 102.912 84.14 101.872 85.12C101.572 85.42 101.282 85.62 101.002 85.72C100.722 85.8 100.262 85.86 99.622 85.9C98.042 86 96.842 85.66 96.022 84.88C95.662 84.52 95.422 83.96 95.302 83.2C95.202 82.44 95.262 81.75 95.482 81.13C95.562 80.93 95.702 80.7 95.902 80.44C96.102 80.18 96.322 79.94 96.562 79.72C96.822 79.48 97.092 79.27 97.372 79.09C97.652 78.91 97.902 78.79 98.122 78.73ZM101.542 80.92C100.942 80.06 100.052 79.83 98.872 80.23C97.852 80.57 97.192 81.14 96.892 81.94C96.612 82.74 96.812 83.43 97.492 84.01C97.772 84.25 98.022 84.4 98.242 84.46C98.462 84.52 98.822 84.53 99.322 84.49C100.082 84.41 100.652 84.18 101.032 83.8C101.432 83.44 101.682 82.96 101.782 82.36C101.882 81.76 101.802 81.28 101.542 80.92ZM102.202 87.76C102.542 87.7 102.932 87.69 103.372 87.73C103.672 87.73 103.872 87.78 103.972 87.88C104.072 87.96 104.132 88.12 104.152 88.36C104.212 88.72 104.122 88.96 103.882 89.08C103.662 89.18 103.102 89.26 102.202 89.32L101.242 89.38V90.55C101.242 91.27 101.312 92.04 101.452 92.86C101.552 93.4 101.582 93.73 101.542 93.85C101.502 93.97 101.322 94.06 101.002 94.12C100.602 94.22 100.312 94.19 100.132 94.03C99.972 93.87 99.852 93.07 99.772 91.63L99.652 89.47L98.692 89.62C98.212 89.68 97.512 89.81 96.592 90.01C95.632 90.23 95.042 90.13 94.822 89.71C94.662 89.41 94.802 89.07 95.242 88.69C95.542 88.41 96.702 88.2 98.722 88.06C100.702 87.92 101.862 87.82 102.202 87.76ZM118.472 74.62C119.072 74.48 119.582 74.43 120.002 74.47C120.442 74.49 120.922 74.63 121.442 74.89C122.042 75.13 122.442 75.35 122.642 75.55C122.862 75.75 123.162 76.2 123.542 76.9C123.902 77.54 124.082 78.25 124.082 79.03C124.102 79.81 123.942 80.48 123.602 81.04C122.942 82.12 121.812 82.81 120.212 83.11C119.032 83.37 118.052 83.32 117.272 82.96C116.512 82.58 115.852 81.85 115.292 80.77C114.992 80.19 114.802 79.76 114.722 79.48C114.642 79.18 114.642 78.85 114.722 78.49C115.082 76.43 116.332 75.14 118.472 74.62ZM121.202 76.36C120.642 75.98 120.322 75.81 120.242 75.85C119.402 75.99 118.662 76.24 118.022 76.6C117.402 76.94 116.942 77.34 116.642 77.8C116.342 78.26 116.242 78.74 116.342 79.24C116.542 80.2 116.912 80.87 117.452 81.25C117.992 81.63 118.752 81.78 119.732 81.7C120.092 81.64 120.422 81.55 120.722 81.43C121.042 81.31 121.322 81.17 121.562 81.01C121.802 80.83 122.002 80.62 122.162 80.38C122.342 80.14 122.462 79.88 122.522 79.6C122.582 79.22 122.572 78.82 122.492 78.4C122.412 77.98 122.252 77.6 122.012 77.26C121.772 76.9 121.502 76.6 121.202 76.36ZM127.382 74.71C127.542 74.49 127.792 74.4 128.132 74.44C128.272 74.46 128.372 74.49 128.432 74.53C128.492 74.57 128.532 74.69 128.552 74.89C128.592 75.09 128.602 75.34 128.582 75.64C128.562 75.92 128.512 76.39 128.432 77.05L128.312 78.34H129.962C130.702 78.32 131.172 78.34 131.372 78.4C131.572 78.44 131.692 78.56 131.732 78.76C131.792 79.04 131.692 79.28 131.432 79.48C131.192 79.68 130.892 79.74 130.532 79.66C130.152 79.6 129.672 79.68 129.092 79.9L128.192 80.2L128.222 82.36C128.262 83.88 128.122 84.66 127.802 84.7C127.642 84.72 127.382 84.6 127.022 84.34L126.512 83.92L126.812 79.48C127.012 76.5 127.202 74.91 127.382 74.71ZM124.352 85.03C124.952 84.93 125.522 84.94 126.062 85.06C126.602 85.18 126.982 85.38 127.202 85.66C127.422 85.9 127.542 86.61 127.562 87.79C127.562 88.13 127.552 88.41 127.532 88.63C127.512 88.85 127.472 89.07 127.412 89.29C127.372 89.49 127.312 89.65 127.232 89.77C127.152 89.89 127.022 90.01 126.842 90.13C126.682 90.23 126.502 90.31 126.302 90.37C126.122 90.43 125.872 90.49 125.552 90.55C125.252 90.61 124.932 90.65 124.592 90.67C124.252 90.69 123.822 90.71 123.302 90.73C122.722 90.77 122.352 90.82 122.192 90.88C122.052 90.94 121.962 91.1 121.922 91.36C121.842 91.84 121.952 92.11 122.252 92.17C122.552 92.25 123.252 92.19 124.352 91.99C126.672 91.53 127.872 91.57 127.952 92.11C128.012 92.45 127.892 92.7 127.592 92.86C127.292 93.02 126.602 93.2 125.522 93.4C124.162 93.66 123.202 93.82 122.642 93.88C122.102 93.94 121.702 93.93 121.442 93.85C121.182 93.79 120.952 93.62 120.752 93.34C120.072 92.4 119.902 91.5 120.242 90.64C120.362 90.34 120.532 90.11 120.752 89.95C120.992 89.77 121.322 89.63 121.742 89.53C122.182 89.43 122.802 89.34 123.602 89.26C124.822 89.14 125.502 89.02 125.642 88.9C125.822 88.72 125.932 88.38 125.972 87.88C126.012 87.36 125.962 87.01 125.822 86.83C125.682 86.65 125.482 86.56 125.222 86.56C124.982 86.54 124.422 86.62 123.542 86.8C122.062 87.06 121.102 87.24 120.662 87.34C120.162 87.46 119.842 87.49 119.702 87.43C119.582 87.37 119.522 87.16 119.522 86.8C119.522 86.4 119.662 86.12 119.942 85.96C120.242 85.8 120.842 85.64 121.742 85.48C121.962 85.44 122.212 85.4 122.492 85.36C122.772 85.32 123.012 85.28 123.212 85.24C123.432 85.2 123.652 85.16 123.872 85.12C124.092 85.08 124.252 85.05 124.352 85.03ZM137.376 74.05C139.296 73.65 140.346 73.6 140.526 73.9C140.626 74.08 140.716 74.99 140.796 76.63C140.796 76.71 140.806 76.81 140.826 76.93C140.846 77.41 140.866 77.75 140.886 77.95C140.906 78.15 140.896 78.4 140.856 78.7C140.836 78.98 140.816 79.17 140.796 79.27C140.796 79.35 140.726 79.48 140.586 79.66C140.446 79.82 140.326 79.92 140.226 79.96C140.146 79.98 139.956 80.05 139.656 80.17C139.376 80.27 139.126 80.34 138.906 80.38C138.686 80.42 138.326 80.49 137.826 80.59C137.686 80.61 137.576 80.63 137.496 80.65C136.996 80.75 136.586 80.84 136.266 80.92C136.066 80.94 135.926 81.01 135.846 81.13C135.766 81.23 135.726 81.42 135.726 81.7C135.726 82.66 136.196 82.98 137.136 82.66C137.576 82.48 138.426 82.37 139.686 82.33C140.486 82.33 140.986 82.36 141.186 82.42C141.406 82.46 141.536 82.58 141.576 82.78C141.636 83.06 141.586 83.27 141.426 83.41C141.346 83.51 140.966 83.63 140.286 83.77C139.606 83.91 138.846 84.04 138.006 84.16C137.166 84.26 136.506 84.31 136.026 84.31C135.386 84.31 134.936 84.13 134.676 83.77C134.416 83.41 134.236 82.74 134.136 81.76C134.076 81.1 134.066 80.68 134.106 80.5C134.166 80.32 134.336 80.14 134.616 79.96C135.016 79.7 135.786 79.48 136.926 79.3C138.026 79.14 138.716 78.93 138.996 78.67C139.296 78.39 139.406 77.83 139.326 76.99C139.266 76.21 139.166 75.72 139.026 75.52C138.926 75.4 138.206 75.5 136.866 75.82C135.706 76.1 134.876 76.25 134.376 76.27C133.896 76.29 133.566 76.18 133.386 75.94C133.166 75.7 133.226 75.43 133.566 75.13C133.906 74.83 134.366 74.63 134.946 74.53C135.066 74.51 135.876 74.35 137.376 74.05ZM145.266 74.8C145.426 74.7 145.666 74.66 145.986 74.68C146.206 74.72 146.336 74.85 146.376 75.07C146.416 75.27 146.416 75.83 146.376 76.75C146.336 77.87 146.386 78.54 146.526 78.76C146.666 78.98 147.066 79.02 147.726 78.88C148.466 78.7 149.016 78.64 149.376 78.7C149.756 78.74 149.996 78.9 150.096 79.18C150.156 79.4 150.196 79.58 150.216 79.72C150.236 79.84 150.176 79.95 150.036 80.05C149.896 80.13 149.716 80.2 149.496 80.26C149.276 80.3 148.936 80.34 148.476 80.38C147.956 80.42 147.606 80.45 147.426 80.47C147.246 80.47 147.026 80.51 146.766 80.59C146.506 80.67 146.356 80.73 146.316 80.77C146.296 80.81 146.256 80.94 146.196 81.16C146.136 81.36 146.116 81.54 146.136 81.7C146.156 81.86 146.186 82.15 146.226 82.57C146.306 83.43 146.326 83.95 146.286 84.13C146.246 84.29 146.066 84.43 145.746 84.55C145.366 84.71 145.076 84.74 144.876 84.64C144.716 84.54 144.686 82.91 144.786 79.75C144.906 76.59 145.066 74.94 145.266 74.8ZM143.256 86.92C144.676 86.58 145.666 86.63 146.226 87.07C146.366 87.17 146.466 87.3 146.526 87.46C146.586 87.62 146.626 87.86 146.646 88.18C146.666 88.5 146.676 89.04 146.676 89.8C146.676 91.42 146.586 92.39 146.406 92.71C146.306 92.89 146.006 93.06 145.506 93.22C145.026 93.38 144.386 93.52 143.586 93.64C142.806 93.76 141.936 93.86 140.976 93.94C140.736 93.96 140.536 93.97 140.376 93.97C140.236 93.97 140.086 93.95 139.926 93.91C139.766 93.89 139.646 93.86 139.566 93.82C139.486 93.78 139.406 93.7 139.326 93.58C139.266 93.46 139.206 93.34 139.146 93.22C139.106 93.1 139.066 92.92 139.026 92.68C139.006 92.44 138.986 92.2 138.966 91.96C138.966 91.72 138.966 91.38 138.966 90.94C138.946 90 138.986 89.31 139.086 88.87C139.186 88.43 139.376 88.11 139.656 87.91C139.956 87.69 140.426 87.52 141.066 87.4C141.866 87.22 142.596 87.06 143.256 86.92ZM144.876 88.57C144.656 88.57 144.386 88.53 144.066 88.45C143.966 88.43 143.796 88.44 143.556 88.48C143.316 88.5 143.046 88.54 142.746 88.6C142.466 88.66 142.186 88.74 141.906 88.84C141.646 88.92 141.406 89.01 141.186 89.11C140.986 89.19 140.846 89.26 140.766 89.32C140.566 89.52 140.426 89.98 140.346 90.7C140.226 91.48 140.296 91.95 140.556 92.11C140.836 92.29 141.516 92.29 142.596 92.11C143.076 92.03 143.426 91.97 143.646 91.93C143.866 91.89 144.096 91.82 144.336 91.72C144.596 91.64 144.756 91.56 144.816 91.48C144.896 91.42 144.966 91.3 145.026 91.12C145.106 90.96 145.146 90.81 145.146 90.67C145.166 90.51 145.176 90.28 145.176 89.98C145.176 89.04 145.076 88.57 144.876 88.57ZM154.663 72.61C155.883 72.03 157.093 72.01 158.293 72.55C159.513 73.09 160.323 74.01 160.723 75.31C160.823 75.69 160.863 76.02 160.843 76.3C160.823 76.58 160.743 76.96 160.603 77.44C160.383 78.1 160.033 78.66 159.553 79.12C159.093 79.58 158.473 79.99 157.693 80.35C157.253 80.53 156.913 80.63 156.673 80.65C156.433 80.67 156.103 80.62 155.683 80.5C155.323 80.42 154.953 80.31 154.573 80.17C154.213 80.01 153.893 79.85 153.613 79.69C153.333 79.53 153.123 79.38 152.983 79.24C152.783 79.06 152.583 78.81 152.383 78.49C152.183 78.17 152.023 77.85 151.903 77.53C151.783 77.21 151.723 76.95 151.723 76.75C151.723 75.95 151.993 75.16 152.533 74.38C153.093 73.6 153.803 73.01 154.663 72.61ZM158.383 74.26C158.023 73.92 157.553 73.75 156.973 73.75C156.393 73.73 155.843 73.84 155.323 74.08C154.803 74.32 154.343 74.67 153.943 75.13C153.563 75.57 153.373 76.04 153.373 76.54C153.373 77 153.583 77.47 154.003 77.95C154.443 78.43 154.943 78.75 155.503 78.91C156.083 79.09 156.603 79.1 157.063 78.94C157.523 78.76 158.053 78.35 158.653 77.71C159.133 77.27 159.393 76.96 159.433 76.78C159.493 76.6 159.453 76.27 159.313 75.79C159.093 75.15 158.783 74.64 158.383 74.26ZM160.333 81.73C161.073 81.41 161.613 81.5 161.953 82C162.113 82.24 162.193 82.41 162.193 82.51C162.193 82.61 162.103 82.76 161.923 82.96C161.683 83.24 161.063 83.38 160.063 83.38C159.023 83.38 157.713 83.55 156.133 83.89C154.513 84.23 153.433 84.4 152.893 84.4C152.533 84.42 152.303 84.4 152.203 84.34C152.123 84.26 152.083 84.09 152.083 83.83C152.083 83.61 152.163 83.41 152.323 83.23C152.483 83.05 152.713 82.91 153.013 82.81C153.333 82.71 153.683 82.66 154.063 82.66C154.603 82.66 155.273 82.55 156.073 82.33C156.813 82.11 157.633 81.98 158.533 81.94C159.433 81.94 160.033 81.87 160.333 81.73ZM157.483 85.69C158.043 85.47 158.703 85.43 159.463 85.57C160.243 85.69 160.743 85.93 160.963 86.29C161.083 86.47 161.133 87 161.113 87.88C161.113 88.74 161.053 89.33 160.933 89.65C160.673 90.29 159.523 90.67 157.483 90.79C156.283 90.85 155.643 90.88 155.563 90.88C155.363 90.9 155.263 91.1 155.263 91.48C155.263 91.86 155.423 92.08 155.743 92.14C156.083 92.22 156.663 92.17 157.483 91.99C159.823 91.41 161.153 91.39 161.473 91.93C161.533 92.13 161.573 92.29 161.593 92.41C161.633 92.53 161.493 92.65 161.173 92.77C160.853 92.89 160.443 93 159.943 93.1C159.443 93.22 158.693 93.37 157.693 93.55C156.233 93.79 155.173 93.75 154.513 93.43C153.873 93.11 153.553 92.46 153.553 91.48C153.553 90.8 153.743 90.34 154.123 90.1C154.523 89.84 155.363 89.65 156.643 89.53C158.123 89.35 158.973 89.18 159.193 89.02C159.413 88.84 159.523 88.48 159.523 87.94C159.523 87.56 159.483 87.34 159.403 87.28C159.323 87.2 159.063 87.16 158.623 87.16C158.083 87.16 157.143 87.29 155.803 87.55C154.363 87.85 153.583 87.85 153.463 87.55C153.423 87.41 153.463 87.19 153.583 86.89C153.663 86.63 153.813 86.45 154.033 86.35C154.253 86.23 154.653 86.11 155.233 85.99C156.213 85.79 156.753 85.72 156.853 85.78C156.973 85.86 157.183 85.83 157.483 85.69ZM180.679 75.67C180.819 75.55 180.989 75.59 181.189 75.79C181.409 75.99 181.559 76.22 181.639 76.48C181.739 76.74 181.749 76.95 181.669 77.11C181.529 77.23 180.559 77.31 178.759 77.35C177.699 77.35 176.949 77.38 176.509 77.44C176.069 77.5 175.719 77.62 175.459 77.8C175.279 77.9 175.159 77.98 175.099 78.04C175.039 78.1 174.979 78.24 174.919 78.46C174.859 78.66 174.829 78.89 174.829 79.15C174.829 79.39 174.829 79.81 174.829 80.41C174.829 81.89 174.889 82.68 175.009 82.78C175.129 82.84 175.659 82.88 176.599 82.9C177.639 82.9 178.939 82.78 180.499 82.54C181.059 82.44 181.449 82.52 181.669 82.78C182.169 83.4 181.739 83.85 180.379 84.13C180.219 84.17 180.049 84.2 179.869 84.22C178.849 84.38 177.669 84.5 176.329 84.58C175.009 84.66 174.269 84.66 174.109 84.58C173.909 84.44 173.699 83.86 173.479 82.84C173.259 81.8 173.149 80.89 173.149 80.11C173.149 79.09 173.069 78.45 172.909 78.19C172.749 77.85 172.889 77.51 173.329 77.17C173.769 76.83 174.439 76.55 175.339 76.33C176.239 76.09 177.239 75.94 178.339 75.88C179.859 75.8 180.639 75.73 180.679 75.67ZM181.369 88.69C181.469 88.57 181.689 88.53 182.029 88.57C182.389 88.61 182.629 88.69 182.749 88.81C182.949 89.01 182.989 89.26 182.869 89.56C182.769 89.84 182.569 90.03 182.269 90.13C181.969 90.23 181.089 90.27 179.629 90.25C178.329 90.23 176.939 90.28 175.459 90.4C174.879 90.44 174.349 90.46 173.869 90.46C173.409 90.46 173.129 90.43 173.029 90.37C172.829 90.25 172.719 90.05 172.699 89.77C172.679 89.47 172.779 89.24 172.999 89.08C173.159 88.94 174.579 88.85 177.259 88.81C179.959 88.79 181.329 88.75 181.369 88.69ZM188.017 72.88C188.897 72.7 189.617 72.59 190.177 72.55C190.617 72.55 190.877 72.68 190.957 72.94C191.057 73.18 191.177 74.05 191.317 75.55C191.357 75.87 191.377 76.14 191.377 76.36C191.377 76.56 191.357 76.76 191.317 76.96C191.277 77.16 191.197 77.32 191.077 77.44C190.957 77.56 190.817 77.68 190.657 77.8C190.497 77.92 190.257 78.03 189.937 78.13C189.617 78.23 189.287 78.33 188.947 78.43C188.607 78.51 188.167 78.62 187.627 78.76C187.327 78.82 187.137 78.91 187.057 79.03C186.997 79.15 186.967 79.41 186.967 79.81C186.967 80.33 187.057 80.66 187.237 80.8C187.437 80.92 187.857 80.92 188.497 80.8C189.257 80.66 189.777 80.53 190.057 80.41C190.457 80.27 190.807 80.26 191.107 80.38C191.427 80.48 191.597 80.68 191.617 80.98C191.637 81.16 191.637 81.31 191.617 81.43C191.617 81.55 191.567 81.66 191.467 81.76C191.367 81.84 191.237 81.91 191.077 81.97C190.917 82.01 190.697 82.06 190.417 82.12C189.817 82.2 189.317 82.31 188.917 82.45C188.557 82.59 188.047 82.67 187.387 82.69C186.727 82.69 186.307 82.62 186.127 82.48C185.567 82.14 185.287 81.3 185.287 79.96C185.287 79.38 185.327 78.98 185.407 78.76C185.507 78.52 185.707 78.24 186.007 77.92C186.487 77.48 186.937 77.26 187.357 77.26C187.797 77.26 188.347 77.1 189.007 76.78C189.467 76.56 189.737 76.39 189.817 76.27C189.917 76.15 189.937 75.9 189.877 75.52C189.777 74.96 189.707 74.61 189.667 74.47C189.587 74.31 189.327 74.26 188.887 74.32C188.447 74.38 187.697 74.57 186.637 74.89C185.777 75.17 185.227 75.31 184.987 75.31C184.747 75.31 184.577 75.2 184.477 74.98C184.337 74.58 184.577 74.2 185.197 73.84C185.817 73.46 186.757 73.14 188.017 72.88ZM195.007 78.16C194.967 76 194.967 74.72 195.007 74.32C195.047 73.92 195.187 73.72 195.427 73.72C195.967 73.72 196.277 73.91 196.357 74.29C196.457 74.65 196.507 75.96 196.507 78.22V82.51L195.937 82.72C195.517 82.84 195.277 82.86 195.217 82.78C195.137 82.68 195.067 81.14 195.007 78.16ZM190.537 85.24C191.837 84.96 192.907 84.84 193.747 84.88C194.667 84.92 195.257 85.13 195.517 85.51C195.797 85.89 195.937 86.76 195.937 88.12C195.937 88.5 195.937 88.78 195.937 88.96C195.937 89.14 195.917 89.35 195.877 89.59C195.837 89.81 195.797 89.96 195.757 90.04C195.737 90.12 195.667 90.22 195.547 90.34C195.427 90.44 195.307 90.5 195.187 90.52C195.087 90.54 194.907 90.57 194.647 90.61C194.407 90.65 194.177 90.67 193.957 90.67C193.757 90.67 193.447 90.67 193.027 90.67C191.887 90.67 191.127 90.76 190.747 90.94C190.387 91.1 190.237 91.45 190.297 91.99C190.317 92.33 190.377 92.53 190.477 92.59C190.597 92.65 190.877 92.65 191.317 92.59C191.897 92.51 192.877 92.47 194.257 92.47C195.157 92.47 195.717 92.49 195.937 92.53C196.177 92.57 196.317 92.69 196.357 92.89C196.417 93.21 196.337 93.44 196.117 93.58C195.917 93.72 195.487 93.82 194.827 93.88C194.147 93.94 193.157 94.06 191.857 94.24C190.577 94.42 189.847 94.46 189.667 94.36C189.167 94.18 188.837 93.57 188.677 92.53C188.537 91.49 188.657 90.72 189.037 90.22C189.217 90 189.457 89.85 189.757 89.77C190.057 89.67 190.667 89.57 191.587 89.47C193.007 89.33 193.807 89.22 193.987 89.14C194.187 89.08 194.257 88.64 194.197 87.82L194.137 86.53L192.697 86.59C191.817 86.63 190.877 86.8 189.877 87.1C189.057 87.36 188.517 87.47 188.257 87.43C188.017 87.39 187.897 87.18 187.897 86.8C187.897 86.4 188.067 86.1 188.407 85.9C188.747 85.7 189.457 85.48 190.537 85.24ZM213.012 78.1C213.132 77.8 213.282 77.62 213.462 77.56C213.662 77.48 213.932 77.5 214.272 77.62C214.512 77.72 214.632 77.93 214.632 78.25C214.632 78.55 214.512 79.15 214.272 80.05C214.012 81.07 213.842 82.83 213.762 85.33L213.582 89.14L212.952 89.35C212.432 89.53 212.122 89.48 212.022 89.2C211.922 88.88 211.922 87.91 212.022 86.29C212.162 84.45 212.202 83.48 212.142 83.38C212.082 83.32 211.552 83.42 210.552 83.68C209.632 83.92 208.952 84.05 208.512 84.07C208.072 84.07 207.762 83.96 207.582 83.74C207.402 83.5 207.422 83.28 207.642 83.08C207.922 82.82 208.372 82.57 208.992 82.33C209.612 82.09 210.132 81.97 210.552 81.97C210.852 81.97 211.132 81.94 211.392 81.88C211.672 81.8 211.912 81.7 212.112 81.58C212.332 81.44 212.492 81.29 212.592 81.13C212.712 80.95 212.772 80.5 212.772 79.78C212.772 79.02 212.852 78.46 213.012 78.1ZM217.572 77.83C217.652 77.63 217.832 77.52 218.112 77.5C218.412 77.48 218.662 77.57 218.862 77.77C219.022 77.95 219.112 78.74 219.132 80.14C219.152 81.54 219.072 82.58 218.892 83.26C218.732 84 218.612 85.2 218.532 86.86C218.452 88.12 218.372 88.9 218.292 89.2C218.212 89.48 218.052 89.68 217.812 89.8C217.332 90.02 217.042 89.99 216.942 89.71C216.782 89.25 216.912 87.08 217.332 83.2C217.372 82.82 217.422 82.37 217.482 81.85C217.622 80.61 217.652 79.69 217.572 79.09C217.492 78.51 217.492 78.09 217.572 77.83ZM204.012 78.55C204.112 78.45 204.502 78.43 205.182 78.49C205.882 78.53 206.282 78.61 206.382 78.73C206.542 78.93 206.542 79.53 206.382 80.53C206.302 81.05 206.082 82.58 205.722 85.12C205.702 85.14 205.692 85.16 205.692 85.18C205.512 86.7 205.372 87.59 205.272 87.85C205.192 88.11 204.992 88.25 204.672 88.27C204.252 88.33 203.992 88.23 203.892 87.97C203.792 87.75 203.872 86.7 204.132 84.82C204.572 81.94 204.752 80.4 204.672 80.2C204.652 80.12 204.512 80.11 204.252 80.17C202.572 80.49 201.282 80.7 200.382 80.8C199.502 80.9 198.902 80.9 198.582 80.8C197.762 80.48 197.832 80.11 198.792 79.69C199.692 79.29 201.092 78.98 202.992 78.76C203.572 78.68 203.912 78.61 204.012 78.55ZM223.539 74.35C224.259 74.09 224.949 74.01 225.609 74.11C226.289 74.19 226.919 74.46 227.499 74.92C228.099 75.38 228.589 76 228.969 76.78C229.349 77.52 229.529 78.21 229.509 78.85C229.509 79.49 229.309 80.2 228.909 80.98C228.589 81.62 228.209 82.1 227.769 82.42C227.329 82.72 226.769 82.92 226.089 83.02C224.949 83.18 223.869 82.96 222.849 82.36C221.829 81.76 221.179 80.99 220.899 80.05C220.499 78.77 220.539 77.63 221.019 76.63C221.499 75.63 222.339 74.87 223.539 74.35ZM225.969 75.58C225.769 75.58 225.549 75.54 225.309 75.46C224.949 75.34 224.379 75.56 223.599 76.12C222.819 76.68 222.349 77.22 222.189 77.74C222.129 77.94 222.119 78.18 222.159 78.46C222.199 78.72 222.269 78.99 222.369 79.27C222.469 79.53 222.599 79.79 222.759 80.05C222.939 80.31 223.129 80.53 223.329 80.71C224.089 81.39 224.859 81.7 225.639 81.64C226.419 81.58 227.039 81.17 227.499 80.41C228.239 79.21 228.119 77.96 227.139 76.66C226.559 75.94 226.169 75.58 225.969 75.58ZM227.229 84.91C227.389 84.53 227.589 84.34 227.829 84.34C228.089 84.32 228.309 84.51 228.489 84.91C228.649 85.29 228.629 85.95 228.429 86.89C228.229 87.79 228.189 88.34 228.309 88.54C228.409 88.72 229.009 88.81 230.109 88.81C230.869 88.81 231.339 88.84 231.519 88.9C231.719 88.94 231.869 89.08 231.969 89.32C232.109 89.74 232.059 90.03 231.819 90.19C231.599 90.35 231.099 90.42 230.319 90.4C229.699 90.38 228.929 90.42 228.009 90.52C227.109 90.6 226.469 90.69 226.089 90.79C225.909 90.85 225.449 90.94 224.709 91.06C223.989 91.2 223.279 91.33 222.579 91.45C221.879 91.57 221.459 91.63 221.319 91.63C221.079 91.63 220.899 91.47 220.779 91.15C220.659 90.83 220.689 90.56 220.869 90.34C221.029 90.14 221.419 89.99 222.039 89.89L222.909 89.77V87.85C222.929 86.79 223.009 86.12 223.149 85.84C223.289 85.54 223.589 85.45 224.049 85.57C224.329 85.65 224.489 85.78 224.529 85.96C224.589 86.12 224.609 86.62 224.589 87.46L224.529 89.14L225.699 89.23C226.439 89.27 226.809 89.23 226.809 89.11C226.809 88.57 226.829 88 226.869 87.4C226.929 86.8 226.989 86.28 227.049 85.84C227.129 85.4 227.189 85.09 227.229 84.91ZM234.15 88.72C234.45 88.58 234.7 88.53 234.9 88.57C235.12 88.59 235.36 88.72 235.62 88.96C235.84 89.14 235.98 89.29 236.04 89.41C236.1 89.51 236.13 89.67 236.13 89.89C236.13 90.87 235.63 91.36 234.63 91.36C234.49 91.36 234.37 91.35 234.27 91.33C234.19 91.31 234.12 91.27 234.06 91.21C234 91.17 233.92 91.1 233.82 91C233.62 90.76 233.52 90.41 233.52 89.95C233.52 89.59 233.56 89.33 233.64 89.17C233.72 89.01 233.89 88.86 234.15 88.72Z" fill="#1A1A1A"/>
</svg>
