<svg width="178" height="59" viewBox="0 0 178 59" fill="none" xmlns="http://www.w3.org/2000/svg">
<path d="M11.3928 7.89C11.5728 7.43 12.0028 7.37 12.6828 7.71C12.8428 7.81 12.9328 7.93 12.9528 8.07C12.9928 8.21 12.9728 8.46 12.8928 8.82C12.7728 9.46 12.6728 10.16 12.5928 10.92L12.4728 12.18L13.5528 12.03C15.0128 11.85 15.7428 11.61 15.7428 11.31C15.8228 9.75 15.9328 8.73 16.0728 8.25C16.2328 7.75 16.5128 7.55 16.9128 7.65C17.2328 7.73 17.4228 7.93 17.4828 8.25C17.5628 8.55 17.5428 9.05 17.4228 9.75C17.2628 10.57 17.1228 12.39 17.0028 15.21C16.9428 17.15 16.8728 18.37 16.7928 18.87C16.7328 19.35 16.6028 19.65 16.4028 19.77C16.1028 19.93 15.8328 19.96 15.5928 19.86C15.4328 19.8 15.3328 19.58 15.2928 19.2C15.2728 18.8 15.2728 17.93 15.2928 16.59L15.3828 13.5L14.6328 13.53C14.1528 13.53 13.6428 13.64 13.1028 13.86L12.3828 14.16L12.4728 16.56C12.5328 17.38 12.5428 18.01 12.5028 18.45C12.4628 18.87 12.3828 19.15 12.2628 19.29C12.1628 19.43 11.9828 19.5 11.7228 19.5C11.2628 19.5 10.9928 19.2 10.9128 18.6C10.8528 18 10.8728 16.32 10.9728 13.56C11.1528 10 11.2928 8.11 11.3928 7.89ZM5.84281 8.1C6.88281 7.94 7.49281 8.07 7.67281 8.49C7.85281 8.89 7.89281 10.23 7.79281 12.51C7.71281 14.35 7.64281 15.44 7.58281 15.78C7.52281 16.12 7.34281 16.36 7.04281 16.5C6.64281 16.74 5.51281 16.87 3.65281 16.89L0.922813 16.95L0.682813 16.02C0.582813 15.64 0.502813 14.82 0.442813 13.56C0.382813 12.3 0.372813 11.24 0.412813 10.38C0.452813 9.4 2.26281 8.64 5.84281 8.1ZM6.47281 9.84H5.63281C5.11281 9.84 4.35281 9.98 3.35281 10.26L1.94281 10.65L1.88281 12.45C1.82281 13.53 1.84281 14.29 1.94281 14.73C2.02281 15.01 2.15281 15.17 2.33281 15.21C2.51281 15.25 3.08281 15.24 4.04281 15.18L5.96281 15.09L6.11281 14.28C6.21281 13.74 6.29281 12.87 6.35281 11.67L6.47281 9.84ZM22.9749 3.18C23.0149 3.06 23.1949 3 23.5149 3C23.7749 3 23.9449 3.19 24.0249 3.57C24.1249 3.93 24.1049 4.44 23.9649 5.1C23.8849 5.52 23.8249 5.8 23.7849 5.94C23.7649 6.08 23.7549 6.26 23.7549 6.48C23.7549 6.68 23.7649 6.8 23.7849 6.84C23.8049 6.86 23.8949 6.89 24.0549 6.93C24.2149 6.97 24.3549 6.98 24.4749 6.96C24.5949 6.94 24.8149 6.91 25.1349 6.87C26.3149 6.73 26.9749 6.86 27.1149 7.26C27.2749 7.64 26.9249 8.37 26.0649 9.45C25.4449 10.21 25.1349 10.65 25.1349 10.77C25.1349 10.89 25.3349 11.12 25.7349 11.46C26.1349 11.8 26.5949 12.12 27.1149 12.42C27.7349 12.8 28.0449 13.21 28.0449 13.65C28.0249 13.93 27.8349 14.07 27.4749 14.07C27.1349 14.07 26.6849 13.92 26.1249 13.62C25.5849 13.3 25.0749 12.91 24.5949 12.45L23.9349 11.85L23.3349 12.54C22.5749 13.44 22.0249 14.04 21.6849 14.34C21.3649 14.64 21.0949 14.79 20.8749 14.79C20.5549 14.79 20.3549 14.67 20.2749 14.43C20.1949 14.17 20.2649 13.87 20.4849 13.53C20.7249 13.19 21.5249 12.31 22.8849 10.89C24.2449 9.45 24.9249 8.67 24.9249 8.55C24.9249 8.53 24.8949 8.51 24.8349 8.49C24.7949 8.47 24.7349 8.46 24.6549 8.46C24.5749 8.46 24.4849 8.48 24.3849 8.52C23.9249 8.62 23.0049 8.79 21.6249 9.03C20.0449 9.29 19.1949 9.29 19.0749 9.03C19.0149 8.89 19.0549 8.67 19.1949 8.37C19.2749 8.15 19.4249 7.99 19.6449 7.89C19.8849 7.79 20.3149 7.69 20.9349 7.59C21.9549 7.43 22.4349 7.25 22.3749 7.05C22.3349 6.89 22.4049 6.24 22.5849 5.1C22.7649 3.96 22.8949 3.32 22.9749 3.18ZM30.0849 7.23C30.2249 6.97 30.3449 6.83 30.4449 6.81C30.5449 6.79 30.7449 6.86 31.0449 7.02C31.2649 7.14 31.3949 7.4 31.4349 7.8C31.4749 8.18 31.4949 9.15 31.4949 10.71C31.4549 13.11 31.4049 14.4 31.3449 14.58C31.2649 14.86 31.0449 15.01 30.6849 15.03C30.3249 15.03 30.0949 14.9 29.9949 14.64C29.8749 14.32 29.8249 13.07 29.8449 10.89C29.8849 8.69 29.9649 7.47 30.0849 7.23ZM25.6749 16.83C26.2149 16.57 26.9449 16.44 27.8649 16.44C28.2849 16.44 28.6349 16.48 28.9149 16.56C29.2149 16.62 29.4849 16.72 29.7249 16.86C29.9649 17 30.1749 17.19 30.3549 17.43C30.5349 17.65 30.7149 17.93 30.8949 18.27C31.1149 18.69 31.2049 19.25 31.1649 19.95C31.1249 20.63 30.9549 21.33 30.6549 22.05C30.4949 22.47 30.1049 22.85 29.4849 23.19C28.8849 23.55 28.2949 23.74 27.7149 23.76C27.2149 23.76 26.6249 23.57 25.9449 23.19C25.2649 22.81 24.7449 22.39 24.3849 21.93C23.7649 21.09 23.5849 20.13 23.8449 19.05C24.1249 17.97 24.7349 17.23 25.6749 16.83ZM29.0049 18.21C28.5249 17.85 27.8949 17.77 27.1149 17.97C26.3349 18.15 25.7849 18.51 25.4649 19.05C25.2249 19.49 25.1349 19.85 25.1949 20.13C25.2549 20.41 25.5049 20.78 25.9449 21.24C26.9849 22.36 28.0149 22.44 29.0349 21.48C29.3349 21.2 29.5149 20.97 29.5749 20.79C29.6349 20.59 29.6349 20.23 29.5749 19.71C29.4749 18.91 29.2849 18.41 29.0049 18.21ZM47.5402 3.87C47.6002 3.25 47.9202 3.11 48.5002 3.45C48.6402 3.55 48.7102 3.82 48.7102 4.26C48.7302 4.7 48.6802 5.67 48.5602 7.17C48.3802 9.35 48.2902 11.01 48.2902 12.15C48.2902 12.83 48.2602 13.26 48.2002 13.44C48.1402 13.62 47.9602 13.77 47.6602 13.89C47.2402 14.09 46.9602 14.05 46.8202 13.77C46.7002 13.49 46.6602 12.85 46.7002 11.85C46.7002 11.49 46.7002 11.21 46.7002 11.01C46.7202 10.79 46.7102 10.63 46.6702 10.53C46.6502 10.41 46.6202 10.34 46.5802 10.32C46.5402 10.28 46.4802 10.26 46.4002 10.26C45.7802 10.42 45.2202 10.57 44.7202 10.71C43.9602 10.93 43.4202 11.01 43.1002 10.95C42.7802 10.87 42.6202 10.64 42.6202 10.26C42.6202 9.96 42.7602 9.7 43.0402 9.48C43.3202 9.26 43.6502 9.14 44.0302 9.12C44.3302 9.12 44.8602 8.99 45.6202 8.73C46.4002 8.47 46.8602 8.27 47.0002 8.13C47.1002 8.03 47.1002 7.74 47.0002 7.26L46.8502 6.54L45.3502 6.72C44.4902 6.8 43.7802 6.75 43.2202 6.57C42.6602 6.39 42.3802 6.14 42.3802 5.82C42.3802 5.38 43.3202 5.15 45.2002 5.13C46.6602 5.11 47.4402 4.69 47.5402 3.87ZM36.8002 3.72C37.1002 3.7 37.4302 3.67 37.7902 3.63C38.1502 3.59 38.4502 3.56 38.6902 3.54C38.9302 3.52 39.0702 3.5 39.1102 3.48C39.5702 3.46 39.8202 3.68 39.8602 4.14C39.9202 4.58 39.8302 5.59 39.5902 7.17C39.2902 8.91 39.1002 10.27 39.0202 11.25C39.0002 11.77 38.9502 12.08 38.8702 12.18C38.7902 12.28 38.5702 12.35 38.2102 12.39C37.7102 12.43 37.4202 12.27 37.3402 11.91C37.2602 11.53 37.3402 10.7 37.5802 9.42C37.8602 7.92 38.0302 6.86 38.0902 6.24L38.1802 5.1L37.0402 5.25C36.3402 5.33 35.5302 5.45 34.6102 5.61C33.9102 5.73 33.4402 5.74 33.2002 5.64C32.9802 5.54 32.9302 5.3 33.0502 4.92C33.1502 4.6 33.4802 4.35 34.0402 4.17C34.6202 3.99 35.5402 3.84 36.8002 3.72ZM43.4602 14.79C44.5402 14.67 45.1802 14.6 45.3802 14.58C45.6002 14.58 45.8602 14.71 46.1602 14.97C46.3802 15.13 46.5302 15.36 46.6102 15.66C46.6902 15.94 46.7602 16.49 46.8202 17.31C46.8802 18.23 46.8802 18.8 46.8202 19.02C46.7802 19.22 46.6002 19.44 46.2802 19.68C46.0002 19.9 45.7002 20.04 45.3802 20.1C45.0602 20.16 44.4702 20.19 43.6102 20.19C42.5102 20.17 41.7902 20.26 41.4502 20.46C41.1102 20.64 40.9702 21.03 41.0302 21.63L41.1202 22.23H44.3902C46.0302 22.23 46.9902 22.25 47.2702 22.29C47.5702 22.33 47.7402 22.48 47.7802 22.74C47.8402 23.12 47.6202 23.38 47.1202 23.52C46.6202 23.66 45.4502 23.77 43.6102 23.85C42.5502 23.95 41.7302 23.97 41.1502 23.91C40.5902 23.87 40.2202 23.78 40.0402 23.64C39.8602 23.52 39.6902 23.26 39.5302 22.86C39.3702 22.44 39.3602 21.83 39.5002 21.03C39.6402 20.23 39.8502 19.66 40.1302 19.32C40.3902 19.04 40.6402 18.87 40.8802 18.81C41.1402 18.75 41.7102 18.73 42.5902 18.75C43.8702 18.77 44.6302 18.66 44.8702 18.42C45.0902 18.2 45.2102 17.82 45.2302 17.28C45.2502 16.74 45.1502 16.43 44.9302 16.35C44.6702 16.25 43.9402 16.3 42.7402 16.5C41.5402 16.68 40.7102 16.87 40.2502 17.07C39.5102 17.39 38.9502 17.38 38.5702 17.04C38.2302 16.72 38.3102 16.34 38.8102 15.9C39.3102 15.42 40.8602 15.05 43.4602 14.79ZM55.3161 5.73C56.3761 5.57 57.1061 5.51 57.5061 5.55C57.9061 5.57 58.1961 5.69 58.3761 5.91C58.5361 6.09 58.5661 7.22 58.4661 9.3C58.4061 10.8 58.3361 11.71 58.2561 12.03C58.1961 12.33 58.0461 12.51 57.8061 12.57C57.2661 12.71 56.9461 12.63 56.8461 12.33C56.7661 12.03 56.7661 11.2 56.8461 9.84C56.9461 8.14 56.9161 7.25 56.7561 7.17C56.6161 7.07 55.5761 7.21 53.6361 7.59C52.3961 7.85 51.5861 8 51.2061 8.04C50.8261 8.06 50.5661 8 50.4261 7.86C50.2861 7.72 50.2261 7.61 50.2461 7.53C50.2661 7.43 50.3861 7.27 50.6061 7.05C51.1861 6.51 52.7561 6.07 55.3161 5.73ZM63.8961 8.01C64.0761 7.79 64.3561 7.71 64.7361 7.77C64.7561 7.77 64.7961 7.77 64.8561 7.77C65.1161 7.79 65.2561 7.92 65.2761 8.16C65.2961 8.38 65.2361 9.16 65.0961 10.5C65.0561 10.76 65.0361 10.97 65.0361 11.13C64.9161 12.41 64.8961 13.1 64.9761 13.2C65.0561 13.3 65.8661 13.23 67.4061 12.99C68.8861 12.73 69.7661 12.65 70.0461 12.75C70.2861 12.85 70.4061 13.09 70.4061 13.47C70.4061 13.55 70.4061 13.62 70.4061 13.68C70.4061 13.72 70.3961 13.77 70.3761 13.83C70.3561 13.89 70.3261 13.94 70.2861 13.98C70.2461 14 70.2061 14.03 70.1661 14.07C70.1261 14.09 70.0561 14.12 69.9561 14.16C69.8561 14.18 69.7461 14.2 69.6261 14.22C69.5261 14.24 69.3861 14.26 69.2061 14.28C69.0461 14.3 68.8761 14.33 68.6961 14.37C68.5161 14.39 68.2861 14.41 68.0061 14.43C66.9861 14.55 66.1961 14.7 65.6361 14.88L64.6761 15.15L64.7061 17.37C64.7461 18.25 64.7361 18.87 64.6761 19.23C64.6361 19.57 64.5361 19.83 64.3761 20.01C64.1361 20.29 63.9061 20.43 63.6861 20.43C63.4661 20.43 63.2961 20.29 63.1761 20.01C63.0361 19.73 63.0261 18.74 63.1461 17.04C63.2061 16.2 63.3161 14.3 63.4761 11.34C63.5961 9.3 63.7361 8.19 63.8961 8.01ZM53.4861 13.17C53.6061 12.99 53.7561 12.86 53.9361 12.78C54.1161 12.68 54.2761 12.65 54.4161 12.69C54.5561 12.71 54.6461 12.8 54.6861 12.96C54.6861 13 54.6861 13.12 54.6861 13.32C54.6861 13.5 54.6961 13.75 54.7161 14.07C54.7361 14.37 54.7461 14.65 54.7461 14.91C54.7661 15.97 54.8461 16.62 54.9861 16.86C55.1261 17.08 55.5061 17.14 56.1261 17.04C57.7861 16.72 58.8361 16.78 59.2761 17.22C59.5961 17.54 59.6461 17.83 59.4261 18.09C59.2261 18.33 58.8261 18.46 58.2261 18.48C56.9661 18.5 54.9661 18.78 52.2261 19.32C51.4661 19.46 50.9661 19.49 50.7261 19.41C50.4861 19.33 50.3661 19.09 50.3661 18.69C50.3661 18.07 51.0861 17.7 52.5261 17.58L53.3361 17.52L53.2461 15.57C53.2061 14.31 53.2861 13.51 53.4861 13.17ZM77.0565 1.98C77.9565 1.9 78.5765 1.87 78.9165 1.89C79.2565 1.91 79.4965 2 79.6365 2.16C79.8165 2.38 79.9665 3.12 80.0865 4.38C80.1665 5.18 80.1865 5.72 80.1465 6C80.1265 6.28 80.0465 6.48 79.9065 6.6C79.6465 6.84 79.1765 7.05 78.4965 7.23C77.8165 7.39 77.2065 7.47 76.6665 7.47C76.1265 7.47 75.7165 7.5 75.4365 7.56C75.1765 7.62 74.9865 7.72 74.8665 7.86C74.7465 8 74.6865 8.2 74.6865 8.46C74.6865 8.84 74.7565 9.05 74.8965 9.09C75.0565 9.11 75.5665 9.02 76.4265 8.82C76.5065 8.8 76.5765 8.78 76.6365 8.76C78.8565 8.28 80.1065 8.25 80.3865 8.67C80.5265 8.91 80.5665 9.14 80.5065 9.36C80.4665 9.58 80.3365 9.74 80.1165 9.84C79.8165 10 78.7065 10.22 76.7865 10.5C74.8865 10.76 73.8565 10.84 73.6965 10.74C73.4765 10.62 73.3265 10.17 73.2465 9.39C73.1665 8.59 73.2065 7.95 73.3665 7.47C73.3665 7.45 73.3765 7.42 73.3965 7.38C73.5165 7.02 73.7065 6.78 73.9665 6.66C74.2265 6.54 75.0665 6.33 76.4865 6.03C76.6465 5.99 76.7765 5.96 76.8765 5.94C77.7765 5.74 78.2965 5.59 78.4365 5.49C78.5965 5.39 78.6765 5.16 78.6765 4.8C78.6765 4.32 78.5965 3.96 78.4365 3.72C78.1565 3.28 77.1165 3.32 75.3165 3.84C73.4765 4.36 72.5565 4.32 72.5565 3.72C72.5565 3.4 72.7365 3.13 73.0965 2.91C73.3565 2.75 73.8865 2.58 74.6865 2.4C75.5065 2.2 76.2965 2.06 77.0565 1.98ZM80.5665 11.85C80.6265 11.77 80.8665 11.73 81.2865 11.73C81.6865 11.73 81.9865 11.85 82.1865 12.09C82.4065 12.31 82.4865 12.6 82.4265 12.96C82.3865 13.2 82.2565 13.36 82.0365 13.44C81.8165 13.5 81.2165 13.57 80.2365 13.65C78.8965 13.73 77.3765 13.95 75.6765 14.31C74.2365 14.61 73.2565 14.75 72.7365 14.73C72.2365 14.71 71.9565 14.52 71.8965 14.16C71.8765 13.92 71.9365 13.73 72.0765 13.59C72.2365 13.43 72.4965 13.3 72.8565 13.2C73.2165 13.1 73.7365 13 74.4165 12.9C75.4565 12.78 76.7165 12.59 78.1965 12.33C79.6965 12.07 80.4865 11.91 80.5665 11.85ZM76.8165 16.35C77.5965 16.21 78.2165 16.11 78.6765 16.05C79.1365 15.99 79.5665 15.97 79.9665 15.99C80.3665 16.01 80.6465 16.06 80.8065 16.14C80.9865 16.22 81.1365 16.38 81.2565 16.62C81.3965 16.86 81.4765 17.12 81.4965 17.4C81.5165 17.68 81.5265 18.07 81.5265 18.57V20.46L80.6565 20.82C80.0765 21.06 79.1965 21.18 78.0165 21.18C77.0965 21.18 76.4665 21.24 76.1265 21.36C75.8065 21.48 75.6465 21.73 75.6465 22.11C75.6465 22.71 76.1865 22.87 77.2665 22.59C77.8665 22.45 78.6965 22.34 79.7565 22.26C80.8165 22.14 81.4065 22.05 81.5265 21.99C81.6265 21.93 81.8065 22.01 82.0665 22.23C82.3265 22.45 82.4565 22.64 82.4565 22.8C82.4565 22.92 82.3665 23.06 82.1865 23.22C81.9865 23.36 80.8165 23.6 78.6765 23.94C76.5365 24.28 75.3565 24.41 75.1365 24.33C74.6365 24.15 74.2865 23.57 74.0865 22.59C73.9065 21.61 74.0165 20.95 74.4165 20.61C74.6565 20.39 75.4565 20.18 76.8165 19.98C78.5765 19.72 79.5365 19.53 79.6965 19.41C79.8165 19.29 79.9065 19.07 79.9665 18.75C80.0465 18.23 80.0165 17.9 79.8765 17.76C79.7365 17.6 78.9365 17.63 77.4765 17.85C75.7765 18.09 74.7465 18.2 74.3865 18.18C74.0465 18.16 73.8565 17.96 73.8165 17.58C73.8165 17.56 73.7965 17.53 73.7565 17.49C73.7165 17.19 73.8165 17 74.0565 16.92C74.2965 16.82 75.1065 16.65 76.4865 16.41C76.6265 16.39 76.7365 16.37 76.8165 16.35ZM96.9509 1.14C97.1309 0.799999 97.3309 0.629999 97.5509 0.629999C98.0709 0.629999 98.3209 1.4 98.3009 2.94C98.3009 3.9 98.3409 4.44 98.4209 4.56C98.5409 4.64 99.1609 4.58 100.281 4.38C101.081 4.24 101.581 4.18 101.781 4.2C101.981 4.22 102.161 4.33 102.321 4.53C102.581 4.89 102.651 5.18 102.531 5.4C102.431 5.6 102.151 5.72 101.691 5.76C101.131 5.82 100.021 6.01 98.3609 6.33C96.7009 6.65 95.5909 6.89 95.0309 7.05C94.4909 7.21 94.0109 7.25 93.5909 7.17C93.1709 7.07 92.9609 6.87 92.9609 6.57C92.9609 6.27 93.2109 5.99 93.7109 5.73C94.2309 5.45 94.8009 5.28 95.4209 5.22C96.1409 5.16 96.5709 5.09 96.7109 5.01C96.8509 4.91 96.8809 4.33 96.8009 3.27C96.7209 2.19 96.7709 1.48 96.9509 1.14ZM96.3809 7.92C97.1809 7.5 97.6609 7.28 97.8209 7.26C98.6009 7.24 99.4409 7.57 100.341 8.25C101.241 8.91 101.691 9.55 101.691 10.17C101.691 10.65 101.501 11.19 101.121 11.79C100.261 13.01 98.8709 13.64 96.9509 13.68C96.2309 13.7 95.7409 13.68 95.4809 13.62C95.2409 13.56 94.9509 13.37 94.6109 13.05C93.8709 12.35 93.6709 11.5 94.0109 10.5C94.3509 9.48 95.1409 8.62 96.3809 7.92ZM99.5609 9.12C99.2609 8.98 98.8809 8.92 98.4209 8.94C97.9809 8.94 97.6209 9.03 97.3409 9.21C96.7809 9.53 96.3809 9.78 96.1409 9.96C95.9209 10.14 95.7709 10.31 95.6909 10.47C95.6109 10.63 95.5709 10.85 95.5709 11.13C95.5709 11.29 95.5809 11.44 95.6009 11.58C95.6409 11.7 95.6909 11.8 95.7509 11.88C95.8109 11.96 95.9009 12.03 96.0209 12.09C96.1409 12.13 96.2809 12.16 96.4409 12.18C96.6209 12.2 96.8409 12.21 97.1009 12.21C97.9609 12.21 98.7109 11.97 99.3509 11.49C100.011 11.01 100.261 10.5 100.101 9.96C100.021 9.54 99.8409 9.26 99.5609 9.12ZM105.651 7.56C106.291 7.04 106.611 7.36 106.611 8.52C106.611 9 106.551 9.62 106.431 10.38L106.251 11.52L107.901 11.43L109.581 11.34V12.09C109.581 12.43 109.521 12.64 109.401 12.72C109.281 12.78 108.911 12.85 108.291 12.93C107.211 13.05 106.561 13.22 106.341 13.44C106.121 13.66 106.041 14.21 106.101 15.09C106.161 15.83 106.171 16.28 106.131 16.44C106.091 16.58 105.921 16.68 105.621 16.74C105.181 16.82 104.921 16.79 104.841 16.65C104.721 16.47 104.681 15.42 104.721 13.5C104.761 11.56 104.851 10.2 104.991 9.42C105.171 8.38 105.391 7.76 105.651 7.56ZM97.3709 14.22C97.4909 14.1 97.7109 14.07 98.0309 14.13C98.3509 14.17 98.5309 14.46 98.5709 15C98.6109 15.36 98.6709 15.57 98.7509 15.63C98.8309 15.69 99.0409 15.69 99.3809 15.63C99.7009 15.55 100.451 15.45 101.631 15.33C102.371 15.27 102.801 15.26 102.921 15.3C103.041 15.34 103.101 15.5 103.101 15.78C103.101 16.1 102.961 16.38 102.681 16.62C102.421 16.84 102.151 16.92 101.871 16.86C101.691 16.84 101.281 16.89 100.641 17.01C100.001 17.11 99.4809 17.23 99.0809 17.37C97.5009 17.89 96.5409 18.18 96.2009 18.24C95.8609 18.3 95.5809 18.23 95.3609 18.03C95.2009 17.85 95.1209 17.72 95.1209 17.64C95.1209 17.54 95.2109 17.39 95.3909 17.19C95.6709 16.91 96.0509 16.7 96.5309 16.56C96.8509 16.5 97.0409 16.41 97.1009 16.29C97.1809 16.17 97.2209 15.88 97.2209 15.42C97.2209 14.72 97.2709 14.32 97.3709 14.22ZM102.291 18.93C103.811 18.73 104.751 18.63 105.111 18.63C105.491 18.61 105.751 18.69 105.891 18.87C106.051 19.07 106.121 20.03 106.101 21.75L106.071 24.3L105.411 24.48C105.011 24.58 104.761 24.5 104.661 24.24C104.561 23.98 104.491 23.23 104.451 21.99L104.391 20.31L103.251 20.37C102.451 20.39 101.701 20.54 101.001 20.82C99.9009 21.2 99.2709 21.18 99.1109 20.76C99.0109 20.52 99.1409 20.19 99.5009 19.77C99.6209 19.61 99.7709 19.49 99.9509 19.41C100.151 19.33 100.421 19.26 100.761 19.2C101.121 19.12 101.631 19.03 102.291 18.93ZM113.916 5.7C114.476 5.44 115.156 5.35 115.956 5.43C116.776 5.49 117.446 5.7 117.966 6.06C118.586 6.46 119.086 7.09 119.466 7.95C119.846 8.81 120.036 9.69 120.036 10.59C120.036 11.23 119.996 11.69 119.916 11.97C119.836 12.25 119.636 12.58 119.316 12.96C118.836 13.54 118.186 13.96 117.366 14.22C116.546 14.48 115.656 14.55 114.696 14.43C114.136 14.35 113.716 14.25 113.436 14.13C113.156 14.01 112.866 13.79 112.566 13.47C111.566 12.43 111.066 11.28 111.066 10.02C111.066 9.08 111.316 8.23 111.816 7.47C112.316 6.69 113.016 6.1 113.916 5.7ZM116.826 7.05C116.366 6.85 115.966 6.78 115.626 6.84C115.306 6.9 114.846 7.13 114.246 7.53C113.466 8.07 112.956 8.63 112.716 9.21C112.576 9.61 112.506 9.91 112.506 10.11C112.526 10.31 112.656 10.65 112.896 11.13C113.256 11.87 113.646 12.36 114.066 12.6C114.486 12.84 115.086 12.93 115.866 12.87C116.366 12.81 116.746 12.73 117.006 12.63C117.286 12.51 117.586 12.31 117.906 12.03C118.226 11.71 118.436 11.45 118.536 11.25C118.636 11.03 118.686 10.73 118.686 10.35C118.646 9.77 118.426 9.12 118.026 8.4C117.626 7.68 117.226 7.23 116.826 7.05ZM122.916 6.66C122.996 6.46 123.226 6.34 123.606 6.3C124.006 6.26 124.266 6.32 124.386 6.48C124.466 6.66 124.426 7.78 124.266 9.84C124.106 11.9 124.096 13.45 124.236 14.49C124.336 15.21 124.366 15.66 124.326 15.84C124.306 16 124.156 16.17 123.876 16.35C123.396 16.67 123.096 16.66 122.976 16.32C122.816 15.92 122.736 14.35 122.736 11.61C122.776 8.57 122.836 6.92 122.916 6.66ZM116.076 17.43C116.256 17.23 116.546 17.15 116.946 17.19C117.246 17.23 117.416 17.33 117.456 17.49C117.496 17.63 117.506 18.12 117.486 18.96C117.426 20.1 117.476 20.67 117.636 20.67C117.856 20.67 118.936 20.55 120.876 20.31C122.096 20.13 122.916 20.04 123.336 20.04C123.756 20.04 123.996 20.1 124.056 20.22C124.316 20.64 124.276 20.95 123.936 21.15C123.616 21.37 122.896 21.59 121.776 21.81C118.236 22.37 116.366 22.48 116.166 22.14C116.006 21.9 115.916 21.1 115.896 19.74C115.876 18.38 115.936 17.61 116.076 17.43ZM130.09 4.08C130.23 3.96 130.43 3.92 130.69 3.96C130.97 4 131.19 4.12 131.35 4.32C131.57 4.58 131.66 5.25 131.62 6.33L131.56 7.98L133.27 7.83C134.41 7.73 135.1 7.65 135.34 7.59C135.58 7.51 135.8 7.58 136 7.8C136.2 8.02 136.29 8.28 136.27 8.58C136.27 8.86 136.17 9.11 135.97 9.33C135.75 9.53 135.44 9.53 135.04 9.33C134.78 9.21 134.52 9.16 134.26 9.18C134.02 9.2 133.61 9.28 133.03 9.42C131.97 9.7 131.02 9.88 130.18 9.96C129.12 10.06 128.25 10.23 127.57 10.47C127.09 10.65 126.79 10.74 126.67 10.74C126.55 10.74 126.41 10.63 126.25 10.41C126.03 10.13 125.92 9.93 125.92 9.81C125.92 9.33 126.76 8.94 128.44 8.64L130.24 8.34L130.09 6.27C129.99 4.93 129.99 4.2 130.09 4.08ZM139.36 9.51C139.54 9.27 139.69 9.15 139.81 9.15C139.95 9.15 140.12 9.26 140.32 9.48C140.52 9.72 140.55 10.64 140.41 12.24L140.26 14.61L141.4 14.46C141.54 14.44 141.7 14.42 141.88 14.4C142.06 14.36 142.21 14.33 142.33 14.31C142.47 14.27 142.6 14.24 142.72 14.22C142.86 14.2 142.96 14.18 143.02 14.16C143.3 14.1 143.58 14.18 143.86 14.4C144.16 14.62 144.31 14.86 144.31 15.12C144.31 15.5 143.76 15.75 142.66 15.87C141.4 15.99 140.69 16.13 140.53 16.29C140.37 16.41 140.29 16.84 140.29 17.58C140.29 17.64 140.29 17.74 140.29 17.88C140.25 19.46 140.2 20.38 140.14 20.64C140.1 20.9 139.94 21.05 139.66 21.09C139.62 21.09 139.59 21.09 139.57 21.09C139.29 21.13 139.1 21.11 139 21.03C138.92 20.95 138.85 20.74 138.79 20.4C138.71 20.04 138.68 19.29 138.7 18.15C138.74 16.99 138.79 15.8 138.85 14.58C138.91 13.34 138.98 12.21 139.06 11.19C139.16 10.17 139.26 9.61 139.36 9.51ZM131.47 11.16C131.73 11.08 132.03 11.08 132.37 11.16C132.73 11.22 132.99 11.25 133.15 11.25C133.35 11.25 133.88 11.66 134.74 12.48C135.46 13.18 135.92 13.83 136.12 14.43C136.32 15.01 136.31 15.67 136.09 16.41C135.85 17.21 135.46 17.91 134.92 18.51C134.4 19.09 133.81 19.5 133.15 19.74C132.51 19.96 131.86 20.07 131.2 20.07C130.54 20.05 129.93 19.84 129.37 19.44C128.81 19.04 128.37 18.49 128.05 17.79C127.73 17.05 127.57 16.51 127.57 16.17C127.57 15.87 127.7 15.38 127.96 14.7C128.24 14 128.53 13.46 128.83 13.08C128.99 12.86 129.23 12.62 129.55 12.36C129.87 12.08 130.2 11.83 130.54 11.61C130.9 11.39 131.21 11.24 131.47 11.16ZM134.02 13.62C133.12 12.66 132.13 12.54 131.05 13.26C130.23 13.82 129.69 14.53 129.43 15.39C129.19 16.23 129.28 16.97 129.7 17.61C130.12 18.25 130.78 18.57 131.68 18.57C132.24 18.57 132.71 18.46 133.09 18.24C133.47 18 133.83 17.61 134.17 17.07C134.53 16.47 134.69 15.86 134.65 15.24C134.63 14.6 134.42 14.06 134.02 13.62ZM150.493 6.57C151.653 6.47 152.393 6.45 152.713 6.51C153.033 6.55 153.233 6.74 153.313 7.08C153.413 7.48 153.463 8.44 153.463 9.96C153.483 11.46 153.443 12.29 153.343 12.45C153.263 12.59 153.023 12.75 152.623 12.93C152.223 13.09 151.483 13.36 150.403 13.74L148.873 14.25L148.783 15.24C148.723 16.12 148.763 16.7 148.903 16.98C149.043 17.26 149.373 17.4 149.893 17.4C150.573 17.4 151.293 17.3 152.053 17.1C152.613 16.98 152.973 16.93 153.133 16.95C153.313 16.97 153.473 17.08 153.613 17.28C153.833 17.58 153.923 17.84 153.882 18.06C153.803 18.48 152.353 18.84 149.533 19.14C148.853 19.22 148.423 19.25 148.243 19.23C148.083 19.19 147.943 19.04 147.823 18.78C147.623 18.44 147.483 17.56 147.403 16.14C147.343 15.12 147.333 14.49 147.373 14.25C147.433 13.99 147.623 13.7 147.943 13.38C148.363 12.92 149.033 12.56 149.953 12.3C150.933 12 151.523 11.7 151.723 11.4C151.943 11.08 152.013 10.45 151.933 9.51L151.753 7.92L150.763 8.1C150.203 8.16 149.573 8.31 148.873 8.55C147.233 9.09 146.263 9.18 145.963 8.82C145.563 8.36 145.913 7.89 147.013 7.41C147.933 6.99 149.093 6.71 150.493 6.57ZM160.423 7.77C160.523 7.43 160.753 7.26 161.113 7.26C161.533 7.26 161.803 7.38 161.923 7.62C162.063 7.86 162.073 8.24 161.953 8.76C161.793 9.52 161.673 11.09 161.592 13.47C161.533 15.83 161.563 17.35 161.683 18.03C161.803 18.73 161.793 19.23 161.653 19.53C161.513 19.83 161.213 19.98 160.753 19.98C160.453 19.98 160.263 19.87 160.183 19.65C160.123 19.41 160.043 18.7 159.943 17.52C159.863 16.1 159.783 15.35 159.703 15.27C159.623 15.21 159.003 15.28 157.843 15.48C156.803 15.66 156.133 15.72 155.833 15.66C155.553 15.58 155.443 15.33 155.503 14.91C155.583 14.57 155.753 14.34 156.013 14.22C156.273 14.1 156.893 13.97 157.873 13.83C158.733 13.73 159.313 13.59 159.613 13.41C159.913 13.21 160.062 12.91 160.062 12.51C160.062 12.13 159.913 11.91 159.613 11.85C159.333 11.79 158.783 11.87 157.963 12.09C157.143 12.31 156.573 12.39 156.253 12.33C155.953 12.27 155.803 12.03 155.803 11.61C155.803 11.23 155.983 10.95 156.343 10.77C156.703 10.59 157.303 10.46 158.143 10.38C159.043 10.28 159.623 10.15 159.883 9.99C160.163 9.83 160.303 9.52 160.303 9.06C160.303 8.6 160.343 8.17 160.423 7.77ZM168.127 5.55C168.347 5.41 168.787 5.34 169.447 5.34C169.827 5.34 170.087 5.37 170.227 5.43C170.367 5.49 170.437 5.59 170.437 5.73C170.437 6.21 170.477 7.51 170.557 9.63C170.597 11.17 170.597 12.16 170.557 12.6C170.537 13.04 170.437 13.36 170.257 13.56C170.037 13.82 169.477 14.04 168.577 14.22C167.697 14.4 166.747 14.48 165.727 14.46C165.067 14.44 164.667 14.39 164.527 14.31C164.407 14.23 164.277 13.96 164.137 13.5C163.957 12.98 163.807 11.8 163.687 9.96L163.537 7.35L164.167 6.84C164.567 6.5 165.277 6.24 166.297 6.06C167.237 5.88 167.847 5.71 168.127 5.55ZM168.907 7.26L168.157 7.32C167.757 7.34 167.187 7.46 166.447 7.68C165.707 7.9 165.267 8.08 165.127 8.22C165.027 8.34 165.037 9.05 165.157 10.35C165.297 11.63 165.437 12.36 165.577 12.54C165.697 12.72 165.867 12.81 166.087 12.81C166.307 12.81 166.737 12.75 167.377 12.63L168.907 12.33V9.78V7.26ZM176.257 5.85C176.297 5.65 176.367 5.52 176.467 5.46C176.567 5.38 176.747 5.36 177.007 5.4L177.637 5.46L177.517 8.43C177.437 10.23 177.397 12.01 177.397 13.77C177.397 14.93 177.367 15.64 177.307 15.9C177.267 16.14 177.117 16.31 176.857 16.41C176.437 16.63 176.147 16.61 175.987 16.35C175.827 16.07 175.717 15.46 175.657 14.52C175.617 13.68 175.567 13.2 175.507 13.08C175.447 12.96 175.257 12.93 174.937 12.99C173.217 13.39 172.207 13.41 171.907 13.05C171.427 12.49 171.867 12.03 173.227 11.67C173.467 11.59 173.717 11.52 173.977 11.46C175.057 11.28 175.687 11.08 175.867 10.86C176.067 10.66 176.137 10.3 176.077 9.78C176.057 9.48 175.997 9.28 175.897 9.18C175.817 9.08 175.687 9.04 175.507 9.06C175.427 9.06 175.297 9.08 175.117 9.12C174.937 9.14 174.717 9.17 174.457 9.21C174.217 9.23 174.007 9.25 173.827 9.27C173.207 9.35 172.837 9.37 172.717 9.33C172.617 9.29 172.567 9.13 172.567 8.85C172.567 8.43 172.727 8.12 173.047 7.92C173.367 7.7 173.907 7.55 174.667 7.47C175.207 7.43 175.567 7.38 175.747 7.32C175.927 7.24 176.037 7.1 176.077 6.9C176.097 6.66 176.157 6.31 176.257 5.85ZM169.417 17.49C169.617 17.29 169.777 17.19 169.897 17.19C170.017 17.17 170.187 17.23 170.407 17.37C170.547 17.45 170.617 17.6 170.617 17.82C170.637 18.04 170.597 18.44 170.497 19.02C170.357 19.98 170.347 20.5 170.467 20.58C170.567 20.62 171.057 20.62 171.937 20.58C172.817 20.52 173.697 20.44 174.577 20.34C175.457 20.24 175.967 20.15 176.107 20.07C176.227 20.03 176.427 20.11 176.707 20.31C176.967 20.49 177.057 20.71 176.977 20.97C176.897 21.23 176.677 21.44 176.317 21.6C175.997 21.72 175.077 21.88 173.557 22.08C172.037 22.3 170.877 22.42 170.077 22.44C169.617 22.44 169.337 22.4 169.237 22.32C169.157 22.24 169.077 21.92 168.997 21.36C168.877 20.66 168.867 19.89 168.967 19.05C169.067 18.21 169.217 17.69 169.417 17.49ZM33.0034 40.1C35.6834 39.62 37.1634 39.56 37.4434 39.92C37.5834 40.16 37.7234 41.03 37.8634 42.53C38.0234 44.03 38.0534 44.88 37.9534 45.08C37.8534 45.28 37.3734 45.51 36.5134 45.77C35.6734 46.01 34.7234 46.2 33.6634 46.34C33.0834 46.44 32.7034 46.63 32.5234 46.91C32.3634 47.19 32.3834 47.59 32.5834 48.11C32.6834 48.35 32.8034 48.49 32.9434 48.53C33.0834 48.57 33.4434 48.56 34.0234 48.5C34.8434 48.38 35.7534 48.21 36.7534 47.99C37.5934 47.81 38.1534 47.74 38.4334 47.78C38.7134 47.82 38.9434 47.99 39.1234 48.29C39.3034 48.65 39.2734 48.93 39.0334 49.13C38.8134 49.33 38.3634 49.48 37.6834 49.58C34.7834 49.96 33.0134 50.16 32.3734 50.18C31.7534 50.18 31.3834 50 31.2634 49.64C31.1834 49.46 31.0834 48.85 30.9634 47.81C30.8834 46.81 30.9834 46.16 31.2634 45.86C31.5634 45.54 32.3534 45.24 33.6334 44.96C34.1134 44.86 34.4734 44.79 34.7134 44.75C34.9534 44.69 35.2034 44.63 35.4634 44.57C35.7234 44.49 35.8934 44.42 35.9734 44.36C36.0734 44.3 36.1734 44.24 36.2734 44.18C36.3734 44.12 36.4234 44.03 36.4234 43.91C36.4234 43.79 36.4234 43.68 36.4234 43.58C36.4234 43.48 36.4134 43.33 36.3934 43.13C36.2334 42.13 36.0734 41.55 35.9134 41.39C35.7534 41.23 35.2934 41.21 34.5334 41.33C33.9934 41.41 33.0934 41.59 31.8334 41.87C31.1334 42.03 30.6434 42.08 30.3634 42.02C30.0834 41.96 29.9434 41.75 29.9434 41.39C29.9434 41.09 30.1734 40.85 30.6334 40.67C31.0934 40.47 31.8834 40.28 33.0034 40.1ZM34.6834 52.37C34.8434 52.05 35.1334 51.92 35.5534 51.98C35.8734 52 36.0534 52.09 36.0934 52.25C36.1334 52.39 36.1434 52.86 36.1234 53.66L36.0334 55.28L37.6534 55.1C38.4134 55.02 39.1134 54.93 39.7534 54.83C40.0734 54.75 40.3634 54.84 40.6234 55.1C40.9034 55.36 41.0234 55.66 40.9834 56C40.9434 56.22 40.8334 56.36 40.6534 56.42C40.4934 56.48 40.1034 56.54 39.4834 56.6C39.0234 56.6 38.3534 56.65 37.4734 56.75C36.5934 56.87 35.6934 57 34.7734 57.14C33.8734 57.3 33.1134 57.45 32.4934 57.59C31.8134 57.75 31.3534 57.77 31.1134 57.65C30.8934 57.55 30.8434 57.31 30.9634 56.93C31.1234 56.43 31.9934 56.05 33.5734 55.79L34.4134 55.64V54.23C34.4134 53.31 34.5034 52.69 34.6834 52.37ZM49.0524 40.67C49.1324 40.59 49.6024 40.58 50.4624 40.64L51.7524 40.7L51.8124 44.78L51.8424 48.86L51.2424 49.1C50.8224 49.24 50.5524 49.22 50.4324 49.04C50.3124 48.82 50.2524 47.6 50.2524 45.38V42.02L49.5024 42.17C46.6824 42.61 45.0724 42.93 44.6724 43.13C44.4724 43.19 44.2824 43.05 44.1024 42.71C43.8824 42.31 43.9524 42 44.3124 41.78C44.6724 41.56 45.4724 41.35 46.7124 41.15C48.2124 40.91 48.9924 40.75 49.0524 40.67ZM52.3524 53.81C53.2324 53.69 53.7124 53.61 53.7924 53.57C53.9124 53.55 54.0524 53.62 54.2124 53.78C54.3724 53.94 54.4824 54.12 54.5424 54.32C54.6424 54.6 54.5324 54.89 54.2124 55.19C53.9324 55.45 53.6724 55.6 53.4324 55.64C53.1924 55.68 52.9124 55.62 52.5924 55.46C52.3724 55.32 50.8624 55.44 48.0624 55.82C46.8224 56 45.8624 56.12 45.1824 56.18C44.5224 56.26 43.9724 56.3 43.5324 56.3C43.1124 56.3 42.8424 56.25 42.7224 56.15C42.6024 56.07 42.5224 55.93 42.4824 55.73C42.4224 55.37 42.6924 55.09 43.2924 54.89C43.8924 54.67 44.8724 54.51 46.2324 54.41C48.6924 54.25 50.7324 54.05 52.3524 53.81ZM58.9262 40.7C59.4862 40.44 60.1662 40.35 60.9662 40.43C61.7862 40.49 62.4562 40.7 62.9762 41.06C63.5962 41.46 64.0962 42.09 64.4762 42.95C64.8562 43.81 65.0462 44.69 65.0462 45.59C65.0462 46.23 65.0062 46.69 64.9262 46.97C64.8462 47.25 64.6462 47.58 64.3262 47.96C63.8462 48.54 63.1962 48.96 62.3762 49.22C61.5562 49.48 60.6662 49.55 59.7062 49.43C59.1462 49.35 58.7262 49.25 58.4462 49.13C58.1662 49.01 57.8762 48.79 57.5762 48.47C56.5762 47.43 56.0762 46.28 56.0762 45.02C56.0762 44.08 56.3262 43.23 56.8262 42.47C57.3262 41.69 58.0262 41.1 58.9262 40.7ZM61.8362 42.05C61.3762 41.85 60.9762 41.78 60.6362 41.84C60.3162 41.9 59.8562 42.13 59.2562 42.53C58.4762 43.07 57.9662 43.63 57.7262 44.21C57.5862 44.61 57.5162 44.91 57.5162 45.11C57.5362 45.31 57.6662 45.65 57.9062 46.13C58.2662 46.87 58.6562 47.36 59.0762 47.6C59.4962 47.84 60.0962 47.93 60.8762 47.87C61.3762 47.81 61.7562 47.73 62.0162 47.63C62.2962 47.51 62.5962 47.31 62.9162 47.03C63.2362 46.71 63.4462 46.45 63.5462 46.25C63.6462 46.03 63.6962 45.73 63.6962 45.35C63.6562 44.77 63.4362 44.12 63.0362 43.4C62.6362 42.68 62.2362 42.23 61.8362 42.05ZM67.9262 41.66C68.0062 41.46 68.2362 41.34 68.6162 41.3C69.0162 41.26 69.2762 41.32 69.3962 41.48C69.4762 41.66 69.4362 42.78 69.2762 44.84C69.1162 46.9 69.1062 48.45 69.2462 49.49C69.3462 50.21 69.3762 50.66 69.3362 50.84C69.3162 51 69.1662 51.17 68.8862 51.35C68.4062 51.67 68.1062 51.66 67.9862 51.32C67.8262 50.92 67.7462 49.35 67.7462 46.61C67.7862 43.57 67.8462 41.92 67.9262 41.66ZM61.0862 52.43C61.2662 52.23 61.5562 52.15 61.9562 52.19C62.2562 52.23 62.4262 52.33 62.4662 52.49C62.5062 52.63 62.5162 53.12 62.4962 53.96C62.4362 55.1 62.4862 55.67 62.6462 55.67C62.8662 55.67 63.9462 55.55 65.8862 55.31C67.1062 55.13 67.9262 55.04 68.3462 55.04C68.7662 55.04 69.0062 55.1 69.0662 55.22C69.3262 55.64 69.2862 55.95 68.9462 56.15C68.6262 56.37 67.9062 56.59 66.7862 56.81C63.2462 57.37 61.3762 57.48 61.1762 57.14C61.0162 56.9 60.9262 56.1 60.9062 54.74C60.8862 53.38 60.9462 52.61 61.0862 52.43ZM73.8697 37.61C75.0897 37.03 76.2997 37.01 77.4997 37.55C78.7197 38.09 79.5297 39.01 79.9297 40.31C80.0297 40.69 80.0697 41.02 80.0497 41.3C80.0297 41.58 79.9497 41.96 79.8097 42.44C79.5897 43.1 79.2397 43.66 78.7597 44.12C78.2997 44.58 77.6797 44.99 76.8997 45.35C76.4597 45.53 76.1197 45.63 75.8797 45.65C75.6397 45.67 75.3097 45.62 74.8897 45.5C74.5297 45.42 74.1597 45.31 73.7797 45.17C73.4197 45.01 73.0997 44.85 72.8197 44.69C72.5397 44.53 72.3297 44.38 72.1897 44.24C71.9897 44.06 71.7897 43.81 71.5897 43.49C71.3897 43.17 71.2297 42.85 71.1097 42.53C70.9897 42.21 70.9297 41.95 70.9297 41.75C70.9297 40.95 71.1997 40.16 71.7397 39.38C72.2997 38.6 73.0097 38.01 73.8697 37.61ZM77.5897 39.26C77.2297 38.92 76.7597 38.75 76.1797 38.75C75.5997 38.73 75.0497 38.84 74.5297 39.08C74.0097 39.32 73.5497 39.67 73.1497 40.13C72.7697 40.57 72.5797 41.04 72.5797 41.54C72.5797 42 72.7897 42.47 73.2097 42.95C73.6497 43.43 74.1497 43.75 74.7097 43.91C75.2897 44.09 75.8097 44.1 76.2697 43.94C76.7297 43.76 77.2597 43.35 77.8597 42.71C78.3397 42.27 78.5997 41.96 78.6397 41.78C78.6997 41.6 78.6597 41.27 78.5197 40.79C78.2997 40.15 77.9897 39.64 77.5897 39.26ZM79.5397 46.73C80.2797 46.41 80.8197 46.5 81.1597 47C81.3197 47.24 81.3997 47.41 81.3997 47.51C81.3997 47.61 81.3097 47.76 81.1297 47.96C80.8897 48.24 80.2697 48.38 79.2697 48.38C78.2297 48.38 76.9197 48.55 75.3397 48.89C73.7197 49.23 72.6397 49.4 72.0997 49.4C71.7397 49.42 71.5097 49.4 71.4097 49.34C71.3297 49.26 71.2897 49.09 71.2897 48.83C71.2897 48.61 71.3697 48.41 71.5297 48.23C71.6897 48.05 71.9197 47.91 72.2197 47.81C72.5397 47.71 72.8897 47.66 73.2697 47.66C73.8097 47.66 74.4797 47.55 75.2797 47.33C76.0197 47.11 76.8397 46.98 77.7397 46.94C78.6397 46.94 79.2397 46.87 79.5397 46.73ZM76.6897 50.69C77.2497 50.47 77.9097 50.43 78.6697 50.57C79.4497 50.69 79.9497 50.93 80.1697 51.29C80.2897 51.47 80.3397 52 80.3197 52.88C80.3197 53.74 80.2597 54.33 80.1397 54.65C79.8797 55.29 78.7297 55.67 76.6897 55.79C75.4897 55.85 74.8497 55.88 74.7697 55.88C74.5697 55.9 74.4697 56.1 74.4697 56.48C74.4697 56.86 74.6297 57.08 74.9497 57.14C75.2897 57.22 75.8697 57.17 76.6897 56.99C79.0297 56.41 80.3597 56.39 80.6797 56.93C80.7397 57.13 80.7797 57.29 80.7997 57.41C80.8397 57.53 80.6997 57.65 80.3797 57.77C80.0597 57.89 79.6497 58 79.1497 58.1C78.6497 58.22 77.8997 58.37 76.8997 58.55C75.4397 58.79 74.3797 58.75 73.7197 58.43C73.0797 58.11 72.7597 57.46 72.7597 56.48C72.7597 55.8 72.9497 55.34 73.3297 55.1C73.7297 54.84 74.5697 54.65 75.8497 54.53C77.3297 54.35 78.1797 54.18 78.3997 54.02C78.6197 53.84 78.7297 53.48 78.7297 52.94C78.7297 52.56 78.6897 52.34 78.6097 52.28C78.5297 52.2 78.2697 52.16 77.8297 52.16C77.2897 52.16 76.3497 52.29 75.0097 52.55C73.5697 52.85 72.7897 52.85 72.6697 52.55C72.6297 52.41 72.6697 52.19 72.7897 51.89C72.8697 51.63 73.0197 51.45 73.2397 51.35C73.4597 51.23 73.8597 51.11 74.4397 50.99C75.4197 50.79 75.9597 50.72 76.0597 50.78C76.1797 50.86 76.3897 50.83 76.6897 50.69ZM95.4763 40.52C95.4363 39.86 95.4363 39.47 95.4763 39.35C95.5363 39.23 95.7163 39.17 96.0163 39.17C96.8563 39.17 97.1663 40.06 96.9463 41.84L96.7963 43.19L97.8163 43.16C98.5963 43.14 99.1863 43.08 99.5863 42.98C99.8263 42.92 100.066 42.9 100.306 42.92C100.546 42.92 100.756 42.96 100.936 43.04C101.116 43.1 101.266 43.2 101.386 43.34C101.526 43.48 101.616 43.63 101.656 43.79C101.716 44.19 101.616 44.45 101.356 44.57C101.116 44.69 100.736 44.68 100.216 44.54C99.6763 44.4 99.0963 44.41 98.4763 44.57C97.8563 44.75 97.0763 44.88 96.1363 44.96C95.1363 45.08 94.4163 45.24 93.9763 45.44C93.5563 45.66 93.0963 45.77 92.5963 45.77C92.3163 45.77 92.1263 45.74 92.0263 45.68C91.9463 45.6 91.9063 45.44 91.9063 45.2C91.9063 44.82 92.0363 44.55 92.2963 44.39C92.5563 44.21 93.1163 44.04 93.9763 43.88C94.7163 43.72 95.1463 43.59 95.2663 43.49C95.4063 43.39 95.4863 43.13 95.5063 42.71C95.5063 41.75 95.4963 41.02 95.4763 40.52ZM107.596 43.46C107.656 43.26 107.906 43.19 108.346 43.25L108.976 43.31L108.916 45.05C108.856 46.15 108.756 47.53 108.616 49.19C108.436 50.77 108.406 52.07 108.526 53.09C108.586 53.83 108.596 54.29 108.556 54.47C108.536 54.63 108.386 54.77 108.106 54.89C107.726 55.07 107.446 55.1 107.266 54.98C107.106 54.86 107.006 54 106.966 52.4C106.926 51.04 106.826 50.24 106.666 50C106.526 49.74 106.136 49.76 105.496 50.06L104.776 50.45L104.896 52.4C104.976 53.22 104.996 53.77 104.956 54.05C104.936 54.33 104.846 54.53 104.686 54.65C104.206 55.03 103.796 55.03 103.456 54.65C103.276 54.39 103.226 52.74 103.306 49.7C103.366 47.42 103.456 45.92 103.576 45.2C103.696 44.48 103.926 44.12 104.266 44.12C104.606 44.12 104.836 44.31 104.956 44.69C105.076 45.05 105.126 45.66 105.106 46.52L105.016 48.26L105.706 48.32C106.146 48.36 106.466 48.32 106.666 48.2C106.886 48.08 107.046 47.84 107.146 47.48C107.246 47.12 107.326 46.55 107.386 45.77C107.466 44.39 107.536 43.62 107.596 43.46ZM96.0463 46.67C96.5263 46.39 96.9663 46.26 97.3663 46.28C97.7863 46.28 98.3063 46.45 98.9263 46.79C100.406 47.53 101.186 48.63 101.266 50.09C101.306 50.63 101.286 51.04 101.206 51.32C101.146 51.58 100.936 51.97 100.576 52.49C100.036 53.31 99.5362 53.87 99.0762 54.17C98.6163 54.45 98.0463 54.58 97.3663 54.56C95.7863 54.5 94.6363 53.94 93.9163 52.88C93.2163 51.8 93.1763 50.56 93.7963 49.16C94.0563 48.52 94.3563 48.02 94.6963 47.66C95.0363 47.28 95.4863 46.95 96.0463 46.67ZM98.6263 48.14C98.1663 47.96 97.7763 47.89 97.4563 47.93C97.1563 47.97 96.7963 48.14 96.3763 48.44C95.9163 48.74 95.5563 49.18 95.2963 49.76C95.0363 50.34 94.9663 50.85 95.0863 51.29C95.1663 51.67 95.3163 52 95.5363 52.28C95.7563 52.54 96.0163 52.74 96.3163 52.88C96.6163 53.02 96.9463 53.09 97.3063 53.09C97.6863 53.09 97.9763 53.04 98.1763 52.94C98.3763 52.84 98.6263 52.61 98.9263 52.25C99.4263 51.67 99.7163 51.14 99.7963 50.66C99.8963 50.2 99.8163 49.7 99.5563 49.16C99.2963 48.62 98.9863 48.28 98.6263 48.14ZM114.68 40.28C116.62 40.06 117.85 39.95 118.37 39.95C118.89 39.93 119.22 40.01 119.36 40.19C119.5 40.37 119.5 40.6 119.36 40.88C119.24 41.14 118.88 41.68 118.28 42.5L117.5 43.52L118.04 43.94C118.4 44.22 118.64 44.36 118.76 44.36C118.86 44.36 119.23 44.56 119.87 44.96C120.49 45.4 120.8 45.79 120.8 46.13C120.8 46.93 120.03 46.86 118.49 45.92C118.15 45.7 117.91 45.55 117.77 45.47C117.63 45.39 117.45 45.3 117.23 45.2C117.01 45.1 116.86 45.04 116.78 45.02C116.72 44.98 116.6 44.97 116.42 44.99C116.24 45.01 116.12 45.04 116.06 45.08C116.02 45.12 115.91 45.21 115.73 45.35C115.57 45.47 115.44 45.59 115.34 45.71C115.24 45.81 115.08 45.99 114.86 46.25C114.34 46.81 113.95 47.19 113.69 47.39C113.43 47.59 113.2 47.67 113 47.63C112.36 47.53 112.23 47.17 112.61 46.55C112.91 46.09 113.56 45.36 114.56 44.36C116.36 42.56 117.08 41.62 116.72 41.54C116.68 41.52 116.64 41.51 116.6 41.51C116.46 41.51 115.5 41.68 113.72 42.02C112.58 42.22 111.82 42.33 111.44 42.35C111.08 42.37 110.83 42.31 110.69 42.17C110.47 41.95 110.41 41.71 110.51 41.45C110.63 41.17 110.86 40.97 111.2 40.85C111.48 40.73 112.64 40.54 114.68 40.28ZM119.66 49.64C120.1 49.4 120.5 49.32 120.86 49.4C121.24 49.48 121.5 49.71 121.64 50.09C121.76 50.39 121.78 50.63 121.7 50.81C121.62 50.97 121.44 51.09 121.16 51.17C120.9 51.23 120.52 51.24 120.02 51.2C119.16 51.18 118.67 51.27 118.55 51.47C118.41 51.69 118.34 52.7 118.34 54.5C118.34 55.84 118.31 56.63 118.25 56.87C118.21 57.11 118.05 57.25 117.77 57.29C117.39 57.35 117.14 57.27 117.02 57.05C116.86 56.79 116.81 55.85 116.87 54.23C116.89 52.55 116.87 51.66 116.81 51.56C116.75 51.5 116.08 51.55 114.8 51.71C113.18 51.91 112.18 52 111.8 51.98C111.42 51.96 111.21 51.8 111.17 51.5C111.15 51.38 111.19 51.23 111.29 51.05C111.39 50.87 111.5 50.72 111.62 50.6C111.88 50.38 112.34 50.23 113 50.15C113.68 50.07 115.08 50.02 117.2 50C118.48 49.96 119.3 49.84 119.66 49.64ZM127.335 43.13C127.555 42.85 127.775 42.71 127.995 42.71C128.655 42.71 128.655 43.35 127.995 44.63C127.955 44.71 127.915 44.78 127.875 44.84C127.375 45.74 127.125 46.35 127.125 46.67C127.125 46.91 127.635 47.67 128.655 48.95C130.375 50.99 130.695 51.97 129.615 51.89C129.595 51.89 129.575 51.88 129.555 51.86C129.135 51.82 128.505 51.24 127.665 50.12C126.805 49.02 126.305 48.45 126.165 48.41C126.045 48.37 125.845 48.64 125.565 49.22C125.305 49.8 125.125 50.38 125.025 50.96C124.945 51.32 124.855 51.55 124.755 51.65C124.675 51.75 124.495 51.8 124.215 51.8C123.575 51.8 123.245 51.61 123.225 51.23C123.205 50.83 123.485 50.06 124.065 48.92C125.665 45.74 126.755 43.81 127.335 43.13ZM134.445 43.07C134.625 42.85 134.785 42.74 134.925 42.74C135.065 42.74 135.265 42.86 135.525 43.1C135.765 43.34 135.835 43.6 135.735 43.88C135.595 44.16 135.485 45.84 135.405 48.92C135.365 51.12 135.315 52.46 135.255 52.94C135.215 53.4 135.085 53.69 134.865 53.81C134.425 54.05 134.135 53.95 133.995 53.51C133.895 53.11 133.835 52.16 133.815 50.66C133.775 48.74 133.665 47.76 133.485 47.72C133.305 47.66 132.835 47.75 132.075 47.99C130.455 48.53 129.565 48.49 129.405 47.87C129.325 47.55 129.325 47.29 129.405 47.09C129.465 46.91 129.865 46.73 130.605 46.55C131.345 46.35 132.115 46.22 132.915 46.16L133.845 46.13L133.995 44.78C134.115 43.84 134.265 43.27 134.445 43.07ZM138.435 43.13C138.435 43.03 138.535 42.97 138.735 42.95C138.935 42.93 139.145 42.96 139.365 43.04C139.585 43.1 139.745 43.19 139.845 43.31C140.045 43.55 140.095 43.92 139.995 44.42C139.915 44.9 139.865 46.61 139.845 49.55C139.825 50.73 139.795 51.64 139.755 52.28C139.735 52.9 139.685 53.41 139.605 53.81C139.525 54.21 139.425 54.47 139.305 54.59C139.185 54.69 139.005 54.74 138.765 54.74C138.505 54.74 138.345 54.36 138.285 53.6C138.225 52.84 138.235 51.13 138.315 48.47C138.315 48.09 138.315 47.7 138.315 47.3C138.335 46.9 138.345 46.53 138.345 46.19C138.365 45.85 138.375 45.52 138.375 45.2C138.395 44.88 138.405 44.6 138.405 44.36C138.425 44.12 138.435 43.91 138.435 43.73C138.435 43.55 138.435 43.41 138.435 43.31C138.435 43.19 138.435 43.13 138.435 43.13ZM144.474 39.35C145.194 39.09 145.884 39.01 146.544 39.11C147.224 39.19 147.854 39.46 148.434 39.92C149.034 40.38 149.524 41 149.904 41.78C150.284 42.52 150.464 43.21 150.444 43.85C150.444 44.49 150.244 45.2 149.844 45.98C149.524 46.62 149.144 47.1 148.704 47.42C148.264 47.72 147.704 47.92 147.024 48.02C145.884 48.18 144.804 47.96 143.784 47.36C142.764 46.76 142.114 45.99 141.834 45.05C141.434 43.77 141.474 42.63 141.954 41.63C142.434 40.63 143.274 39.87 144.474 39.35ZM146.904 40.58C146.704 40.58 146.484 40.54 146.244 40.46C145.884 40.34 145.314 40.56 144.534 41.12C143.754 41.68 143.284 42.22 143.124 42.74C143.064 42.94 143.054 43.18 143.094 43.46C143.134 43.72 143.204 43.99 143.304 44.27C143.404 44.53 143.534 44.79 143.694 45.05C143.874 45.31 144.064 45.53 144.264 45.71C145.024 46.39 145.794 46.7 146.574 46.64C147.354 46.58 147.974 46.17 148.434 45.41C149.174 44.21 149.054 42.96 148.074 41.66C147.494 40.94 147.104 40.58 146.904 40.58ZM148.164 49.91C148.324 49.53 148.524 49.34 148.764 49.34C149.024 49.32 149.244 49.51 149.424 49.91C149.584 50.29 149.564 50.95 149.364 51.89C149.164 52.79 149.124 53.34 149.244 53.54C149.344 53.72 149.944 53.81 151.044 53.81C151.804 53.81 152.274 53.84 152.454 53.9C152.654 53.94 152.804 54.08 152.904 54.32C153.044 54.74 152.994 55.03 152.754 55.19C152.534 55.35 152.034 55.42 151.254 55.4C150.634 55.38 149.864 55.42 148.944 55.52C148.044 55.6 147.404 55.69 147.024 55.79C146.844 55.85 146.384 55.94 145.644 56.06C144.924 56.2 144.214 56.33 143.514 56.45C142.814 56.57 142.394 56.63 142.254 56.63C142.014 56.63 141.834 56.47 141.714 56.15C141.594 55.83 141.624 55.56 141.804 55.34C141.964 55.14 142.354 54.99 142.974 54.89L143.844 54.77V52.85C143.864 51.79 143.944 51.12 144.084 50.84C144.224 50.54 144.524 50.45 144.984 50.57C145.264 50.65 145.424 50.78 145.464 50.96C145.524 51.12 145.544 51.62 145.524 52.46L145.464 54.14L146.634 54.23C147.374 54.27 147.744 54.23 147.744 54.11C147.744 53.57 147.764 53 147.804 52.4C147.864 51.8 147.924 51.28 147.984 50.84C148.064 50.4 148.124 50.09 148.164 49.91ZM155.085 53.72C155.385 53.58 155.635 53.53 155.835 53.57C156.055 53.59 156.295 53.72 156.555 53.96C156.775 54.14 156.915 54.29 156.975 54.41C157.035 54.51 157.065 54.67 157.065 54.89C157.065 55.87 156.565 56.36 155.565 56.36C155.425 56.36 155.305 56.35 155.205 56.33C155.125 56.31 155.055 56.27 154.995 56.21C154.935 56.17 154.855 56.1 154.755 56C154.555 55.76 154.455 55.41 154.455 54.95C154.455 54.59 154.495 54.33 154.575 54.17C154.655 54.01 154.825 53.86 155.085 53.72Z" fill="#1A1A1A"/>
</svg>
