<svg width="241" height="94" viewBox="0 0 241 94" fill="none" xmlns="http://www.w3.org/2000/svg">
<path d="M14.7466 6.92C14.9466 6.78 15.1566 6.74 15.3766 6.8C15.5166 6.82 15.6066 7.01 15.6466 7.37C15.7066 7.71 15.7366 8.43 15.7366 9.53V12.26L17.4166 12.2C18.3966 12.14 19.0866 12.19 19.4866 12.35C19.9066 12.49 20.1166 12.76 20.1166 13.16C20.1166 13.44 20.0066 13.61 19.7866 13.67C19.5866 13.73 18.9466 13.78 17.8666 13.82C16.4066 13.86 15.6266 13.92 15.5266 14C15.4466 14.1 15.3466 15.05 15.2266 16.85C15.2266 16.85 15.2266 16.86 15.2266 16.88C15.1266 18.2 15.0366 18.98 14.9566 19.22C14.8966 19.46 14.7166 19.59 14.4166 19.61C14.1966 19.65 14.0266 19.64 13.9066 19.58C13.8066 19.52 13.7266 19.36 13.6666 19.1C13.6066 18.84 13.5866 18.5 13.6066 18.08C13.6266 17.66 13.6766 17.03 13.7566 16.19C13.9166 14.51 13.9966 13 13.9966 11.66C13.9966 10.62 14.0766 9.6 14.2366 8.6C14.3966 7.58 14.5666 7.02 14.7466 6.92ZM3.7366 7.67C4.4166 7.23 4.9966 7 5.4766 6.98C5.9566 6.96 6.6366 7.15 7.5166 7.55C8.3566 7.91 8.9466 8.24 9.2866 8.54C9.6266 8.82 9.9366 9.24 10.2166 9.8C10.5766 10.66 10.7066 11.52 10.6066 12.38C10.5266 13.24 10.2066 14.05 9.6466 14.81C9.1066 15.57 8.4266 16.09 7.6066 16.37C7.1666 16.53 6.6766 16.6 6.1366 16.58C5.5966 16.56 5.0666 16.48 4.5466 16.34C4.0266 16.2 3.5066 15.99 2.9866 15.71C2.4866 15.41 2.0466 15.06 1.6666 14.66C1.3866 14.38 1.1866 14.15 1.0666 13.97C0.946602 13.79 0.866602 13.6 0.826602 13.4C0.786602 13.2 0.766602 12.9 0.766602 12.5C0.786602 10.5 1.7766 8.89 3.7366 7.67ZM8.0266 9.47C7.4466 9.01 6.8266 8.74 6.1666 8.66C5.5066 8.58 4.9266 8.7 4.4266 9.02C3.3666 9.68 2.6966 10.41 2.4166 11.21C2.1366 11.99 2.2566 12.71 2.7766 13.37C3.2966 14.01 4.1566 14.48 5.3566 14.78L6.7666 15.17L7.6966 14.51C8.6366 13.89 9.1366 13.06 9.1966 12.02C9.2566 10.98 8.8666 10.13 8.0266 9.47ZM25.736 2.33C26.216 1.79 26.556 1.52 26.756 1.52C26.976 1.52 27.096 1.66 27.116 1.94C27.156 2.22 27.076 2.56 26.876 2.96C26.676 3.32 26.586 3.56 26.606 3.68C26.626 3.78 26.766 3.93 27.026 4.13C27.446 4.45 28.036 4.81 28.796 5.21C29.456 5.57 29.886 5.93 30.086 6.29C30.286 6.65 30.236 6.96 29.936 7.22C29.736 7.38 29.016 7.1 27.776 6.38C26.576 5.64 25.846 5.27 25.586 5.27C25.406 5.27 25.146 5.61 24.806 6.29C24.466 6.97 24.146 7.76 23.846 8.66C23.726 8.98 23.456 9.11 23.036 9.05C22.616 8.97 22.386 8.76 22.346 8.42C22.306 8.24 22.486 7.72 22.886 6.86C23.306 6 23.796 5.12 24.356 4.22C24.936 3.32 25.396 2.69 25.736 2.33ZM33.446 4.73C33.586 4.45 33.836 4.34 34.196 4.4C34.436 4.44 34.576 4.64 34.616 5C34.656 5.34 34.686 6.42 34.706 8.24C34.726 10.8 34.766 12.26 34.826 12.62C34.866 12.86 34.846 13.02 34.766 13.1C34.706 13.18 34.506 13.24 34.166 13.28C33.846 13.3 33.626 13.28 33.506 13.22C33.406 13.14 33.316 12.96 33.236 12.68C33.136 12.28 33.096 11.11 33.116 9.17C33.156 7.41 33.186 6.3 33.206 5.84C33.246 5.36 33.326 4.99 33.446 4.73ZM28.766 10.01C29.306 9.87 29.646 9.8 29.786 9.8C29.926 9.78 30.066 9.8 30.206 9.86C30.366 9.9 30.506 9.97 30.626 10.07C30.746 10.15 30.836 10.25 30.896 10.37C30.976 10.47 31.016 10.58 31.016 10.7C31.016 11.06 30.876 11.32 30.596 11.48C30.316 11.62 29.916 11.64 29.396 11.54C28.796 11.46 28.326 11.52 27.986 11.72C27.646 11.92 27.386 12.3 27.206 12.86C27.026 13.42 26.886 14.23 26.786 15.29C26.726 16.11 26.656 16.6 26.576 16.76C26.516 16.92 26.326 17.01 26.006 17.03C25.846 17.07 25.706 17.08 25.586 17.06C25.486 17.02 25.406 16.96 25.346 16.88C25.306 16.8 25.266 16.68 25.226 16.52C25.146 16.24 25.156 15.69 25.256 14.87C25.376 14.05 25.536 13.3 25.736 12.62C25.816 12.38 25.826 12.24 25.766 12.2C25.706 12.16 25.486 12.17 25.106 12.23C24.606 12.33 23.996 12.47 23.276 12.65C22.856 12.75 22.556 12.8 22.376 12.8C22.196 12.78 22.036 12.69 21.896 12.53C21.716 12.37 21.626 12.24 21.626 12.14C21.626 12.04 21.716 11.85 21.896 11.57C22.156 11.17 22.486 10.95 22.886 10.91C23.966 10.85 25.146 10.71 26.426 10.49C27.526 10.33 28.306 10.17 28.766 10.01ZM34.316 16.19C34.316 15.59 34.406 15.2 34.586 15.02C34.786 14.82 35.076 14.72 35.456 14.72C35.716 14.72 35.866 14.77 35.906 14.87C35.946 14.97 35.936 15.26 35.876 15.74C35.636 17.62 35.486 18.78 35.426 19.22C35.226 20.9 35.026 21.87 34.826 22.13C34.626 22.39 34.266 22.52 33.746 22.52C33.206 22.52 32.396 22.63 31.316 22.85C30.956 22.91 30.686 22.96 30.506 23C30.346 23.04 30.146 23.05 29.906 23.03C29.686 23.03 29.536 23.02 29.456 23C29.396 23 29.306 22.92 29.186 22.76C29.066 22.62 28.996 22.49 28.976 22.37C28.956 22.27 28.926 22.05 28.886 21.71C28.846 21.37 28.826 21.07 28.826 20.81C28.826 20.57 28.826 20.16 28.826 19.58C28.826 18.34 28.846 17.51 28.886 17.09C28.926 16.65 29.036 16.36 29.216 16.22C29.516 15.92 29.776 15.86 29.996 16.04C30.216 16.2 30.326 16.55 30.326 17.09C30.326 17.71 30.386 18.02 30.506 18.02C30.626 18.02 30.956 17.97 31.496 17.87C32.056 17.75 32.596 17.63 33.116 17.51C33.656 17.37 33.976 17.27 34.076 17.21C34.236 17.13 34.316 16.79 34.316 16.19ZM33.776 19.73C33.836 19.23 33.796 18.98 33.656 18.98C33.476 19.04 33.186 19.09 32.786 19.13C32.306 19.19 31.776 19.29 31.196 19.43C30.916 19.51 30.716 19.59 30.596 19.67C30.476 19.73 30.396 19.82 30.356 19.94C30.336 20.04 30.326 20.22 30.326 20.48C30.326 20.9 30.366 21.15 30.446 21.23C30.526 21.31 30.776 21.35 31.196 21.35C31.796 21.31 32.366 21.17 32.906 20.93C33.226 20.75 33.446 20.58 33.566 20.42C33.686 20.26 33.756 20.03 33.776 19.73ZM44.5863 7.07C45.3663 6.87 45.8463 6.81 46.0263 6.89C46.3063 7.05 46.2763 7.56 45.9363 8.42C45.5963 9.28 45.0763 10.18 44.3763 11.12L43.7763 11.9L44.5863 12.74C45.1663 13.28 45.6463 13.62 46.0263 13.76C46.1663 13.82 46.3363 13.96 46.5363 14.18C46.7363 14.38 46.8863 14.6 46.9863 14.84C47.2263 15.24 47.3463 15.5 47.3463 15.62C47.3463 15.74 47.2463 15.88 47.0463 16.04C46.7263 16.26 46.4063 16.29 46.0863 16.13C45.7663 15.97 45.1763 15.47 44.3163 14.63L42.8463 13.19L42.2463 13.91C41.8863 14.35 41.5463 14.91 41.2263 15.59C41.1463 15.79 41.0463 15.97 40.9263 16.13C40.8063 16.29 40.6863 16.43 40.5663 16.55C40.4663 16.65 40.3763 16.71 40.2963 16.73C40.0163 16.81 39.7463 16.78 39.4863 16.64C39.2263 16.48 39.0963 16.29 39.0963 16.07C39.0963 15.93 39.7163 15 40.9563 13.28C42.2163 11.54 42.9363 10.6 43.1163 10.46C43.2563 10.38 43.4363 10.11 43.6563 9.65C43.8763 9.19 43.9663 8.91 43.9263 8.81C43.8663 8.71 43.3163 8.76 42.2763 8.96C41.2563 9.14 40.4963 9.32 39.9963 9.5C39.5163 9.68 38.9663 9.77 38.3463 9.77C37.9863 9.77 37.7463 9.74 37.6263 9.68C37.5063 9.62 37.4463 9.49 37.4463 9.29C37.4463 8.99 37.6263 8.73 37.9863 8.51C38.2463 8.33 39.1663 8.06 40.7463 7.7C42.3263 7.32 43.1663 7.17 43.2663 7.25C43.3263 7.33 43.7663 7.27 44.5863 7.07ZM50.5263 7.01C50.6463 6.79 50.9063 6.71 51.3063 6.77C51.4863 6.79 51.6063 6.81 51.6663 6.83C51.7463 6.85 51.8063 6.91 51.8463 7.01C51.9063 7.09 51.9263 7.21 51.9063 7.37C51.9063 7.51 51.9063 7.72 51.9063 8C51.8863 8.4 51.8463 10.44 51.7863 14.12C51.7863 14.12 51.7863 14.13 51.7863 14.15C51.7463 16.57 51.6963 18 51.6363 18.44C51.5963 18.88 51.4463 19.15 51.1863 19.25C50.9463 19.33 50.7563 19.33 50.6163 19.25C50.4963 19.15 50.3963 18.89 50.3163 18.47C50.2363 18.03 50.1963 17.36 50.1963 16.46C50.2163 15.56 50.2263 14.36 50.2263 12.86C50.2863 9.14 50.3863 7.19 50.5263 7.01ZM66.3731 4.22C66.5131 4.02 66.7331 3.97 67.0331 4.07C67.3531 4.15 67.5531 4.31 67.6331 4.55C67.7131 4.79 67.6831 5.24 67.5431 5.9C67.3831 6.58 67.3031 7.3 67.3031 8.06C67.3031 8.66 67.3331 9.01 67.3931 9.11C67.4531 9.21 67.6431 9.24 67.9631 9.2C68.3831 9.14 68.7231 9.06 68.9831 8.96C69.2831 8.86 69.5631 8.85 69.8231 8.93C70.1031 8.99 70.3131 9.14 70.4531 9.38C70.5931 9.6 70.6131 9.84 70.5131 10.1C70.4131 10.34 70.0831 10.46 69.5231 10.46C68.9831 10.46 68.4031 10.63 67.7831 10.97L66.8231 11.45L66.7631 13.37C66.7431 13.85 66.7231 14.21 66.7031 14.45C66.6831 14.67 66.6431 14.87 66.5831 15.05C66.5431 15.21 66.4831 15.32 66.4031 15.38C66.3431 15.44 66.2431 15.51 66.1031 15.59C65.6031 15.85 65.3031 15.79 65.2031 15.41C65.0831 14.99 65.1731 13.47 65.4731 10.85C65.7331 8.55 65.9031 6.94 65.9831 6.02C66.1031 4.98 66.2331 4.38 66.3731 4.22ZM56.3231 4.85C57.2431 4.55 58.3031 4.39 59.5031 4.37C60.7231 4.33 61.3831 4.45 61.4831 4.73C61.5831 5.01 61.6331 6.25 61.6331 8.45C61.6331 9.79 61.5931 10.75 61.5131 11.33C61.4331 11.91 61.2931 12.31 61.0931 12.53C60.9131 12.73 60.5931 12.83 60.1331 12.83C59.3731 12.83 58.3331 12.87 57.0131 12.95C55.4331 13.05 54.5131 13 54.2531 12.8C54.0131 12.6 53.8031 11.87 53.6231 10.61C53.4431 9.33 53.3831 8.11 53.4431 6.95C53.4631 6.21 53.5031 5.77 53.5631 5.63C53.6431 5.49 53.8531 5.4 54.1931 5.36C54.6531 5.32 55.3631 5.15 56.3231 4.85ZM60.0731 7.01C60.1731 6.53 60.1931 6.25 60.1331 6.17C60.0931 6.07 59.9131 6.03 59.5931 6.05C58.8531 6.07 57.7331 6.26 56.2331 6.62L54.7631 7.01L54.9431 9.05C55.0431 10.43 55.1831 11.17 55.3631 11.27C55.5431 11.41 56.1831 11.42 57.2831 11.3C57.8831 11.26 58.5831 11.2 59.3831 11.12C59.5831 11.1 59.7031 11 59.7431 10.82C59.8031 10.62 59.8431 10.19 59.8631 9.53C59.8831 8.51 59.9531 7.67 60.0731 7.01ZM58.8131 16.52C59.1331 16.12 59.5131 16.07 59.9531 16.37C60.1731 16.51 60.2231 16.88 60.1031 17.48C59.7831 19.04 59.7731 19.87 60.0731 19.97C60.2331 20.05 60.8631 19.99 61.9631 19.79C63.1831 19.57 64.2531 19.44 65.1731 19.4L66.6731 19.31V20.03C66.6731 20.37 66.6031 20.58 66.4631 20.66C66.3431 20.74 65.9131 20.83 65.1731 20.93C64.1331 21.03 63.3131 21.17 62.7131 21.35C62.1131 21.51 61.3131 21.61 60.3131 21.65C59.3331 21.69 58.7731 21.64 58.6331 21.5C58.4931 21.34 58.4431 20.52 58.4831 19.04C58.5431 17.54 58.6531 16.7 58.8131 16.52ZM91.8093 3.98C91.8893 3.76 92.0693 3.65 92.3493 3.65C92.7493 3.65 92.9993 3.81 93.0993 4.13C93.1993 4.43 93.1793 5.05 93.0393 5.99C92.8993 7.11 92.9093 7.76 93.0693 7.94C93.2493 8.1 93.8693 8.08 94.9293 7.88C95.8693 7.72 96.4993 7.68 96.8193 7.76C97.1393 7.82 97.2993 8.04 97.2993 8.42C97.2993 8.68 97.2293 8.85 97.0893 8.93C96.9693 9.01 96.6693 9.08 96.1893 9.14C95.4493 9.22 94.6793 9.39 93.8793 9.65L92.6793 10.04L92.7993 11.69L92.9193 13.31H92.1393C91.6393 13.31 91.3393 13.19 91.2393 12.95C91.1593 12.75 91.1993 11.27 91.3593 8.51C91.5393 5.75 91.6893 4.24 91.8093 3.98ZM84.8193 5.03C85.2193 4.57 85.5793 4.25 85.8993 4.07C86.2393 3.89 86.4693 3.85 86.5893 3.95C86.7293 4.05 86.7393 4.28 86.6193 4.64C86.4993 5 86.2493 5.43 85.8693 5.93C85.3093 6.59 85.0293 7.03 85.0293 7.25C85.0293 7.33 85.1493 7.48 85.3893 7.7C85.6293 7.9 85.8993 8.1 86.1993 8.3C87.7993 9.38 88.5993 10.25 88.5993 10.91C88.5993 11.89 87.9693 11.81 86.7093 10.67C86.2293 10.19 85.7093 9.77 85.1493 9.41C84.5893 9.03 84.2093 8.84 84.0093 8.84C83.8893 8.84 83.6593 9.21 83.3193 9.95C82.9793 10.69 82.7793 11.26 82.7193 11.66C82.6593 12.04 82.5693 12.28 82.4493 12.38C82.3493 12.46 82.1493 12.5 81.8493 12.5C81.5493 12.5 81.3493 12.46 81.2493 12.38C81.1493 12.3 81.0893 12.13 81.0693 11.87C81.0093 11.37 81.3893 10.37 82.2093 8.87C83.0493 7.37 83.9193 6.09 84.8193 5.03ZM88.3893 14.72C89.0893 14.46 89.6593 14.36 90.0993 14.42C90.5393 14.46 91.0693 14.68 91.6893 15.08C93.0493 15.98 93.6393 17.28 93.4593 18.98C93.3993 19.74 93.2393 20.34 92.9793 20.78C92.7193 21.22 92.2793 21.64 91.6593 22.04C91.3193 22.26 91.0193 22.39 90.7593 22.43C90.5193 22.49 90.1393 22.49 89.6193 22.43C88.7793 22.33 88.1193 22.17 87.6393 21.95C87.1793 21.75 86.7293 21.4 86.2893 20.9C85.6293 20.14 85.3093 19.28 85.3293 18.32C85.3493 17.34 85.7093 16.52 86.4093 15.86C86.8493 15.4 87.5093 15.02 88.3893 14.72ZM91.3893 16.73C90.5693 15.91 89.5793 15.79 88.4193 16.37C87.8593 16.63 87.4693 16.92 87.2493 17.24C87.0293 17.56 86.9193 18 86.9193 18.56C86.9193 18.86 86.9993 19.17 87.1593 19.49C87.3393 19.79 87.5693 20.06 87.8493 20.3C88.1493 20.54 88.4493 20.7 88.7493 20.78C89.1893 20.9 89.6893 20.89 90.2493 20.75C90.8293 20.61 91.2393 20.41 91.4793 20.15C91.8593 19.77 92.0393 19.21 92.0193 18.47C91.9993 17.71 91.7893 17.13 91.3893 16.73ZM109.654 7.13C109.814 6.69 110.074 6.47 110.434 6.47C110.574 6.47 110.684 6.49 110.764 6.53C110.864 6.57 110.944 6.65 111.004 6.77C111.064 6.87 111.104 7 111.124 7.16C111.144 7.32 111.144 7.56 111.124 7.88C111.124 8.2 111.104 8.56 111.064 8.96C111.024 9.34 110.974 9.83 110.914 10.43L110.794 11.24L112.054 11.06C113.174 10.92 113.834 10.75 114.034 10.55C114.234 10.35 114.334 9.79 114.334 8.87C114.334 7.37 114.564 6.61 115.024 6.59C115.164 6.59 115.314 6.63 115.474 6.71C115.714 6.83 115.854 6.97 115.894 7.13C115.934 7.27 115.924 7.55 115.864 7.97C115.764 8.79 115.674 10.71 115.594 13.73C115.534 16.09 115.464 17.49 115.384 17.93C115.324 18.37 115.164 18.65 114.904 18.77C114.524 18.95 114.274 18.98 114.154 18.86C114.034 18.72 113.994 17.66 114.034 15.68C114.074 13.92 114.004 12.92 113.824 12.68C113.664 12.42 113.074 12.44 112.054 12.74L110.734 13.1L110.824 15.47C110.864 16.51 110.864 17.19 110.824 17.51C110.784 17.81 110.674 18.01 110.494 18.11C110.214 18.29 109.944 18.29 109.684 18.11C109.484 18.01 109.364 17.68 109.324 17.12C109.284 16.54 109.284 15.11 109.324 12.83C109.384 9.45 109.494 7.55 109.654 7.13ZM104.314 6.95C104.614 6.81 105.044 6.76 105.604 6.8C105.964 6.82 106.194 6.87 106.294 6.95C106.394 7.03 106.444 7.23 106.444 7.55V8.24L103.924 8.51C102.184 8.73 101.134 8.91 100.774 9.05C100.474 9.17 100.294 9.29 100.234 9.41C100.194 9.51 100.204 9.71 100.264 10.01C100.364 10.61 100.414 11.35 100.414 12.23C100.414 13.21 100.524 13.84 100.744 14.12C100.984 14.38 101.544 14.52 102.424 14.54C103.404 14.54 104.274 14.48 105.034 14.36C105.574 14.28 105.924 14.26 106.084 14.3C106.264 14.34 106.414 14.46 106.534 14.66C106.774 15.12 106.764 15.44 106.504 15.62C106.264 15.8 105.674 15.93 104.734 16.01C101.334 16.27 99.5539 16.22 99.3939 15.86C99.3139 15.64 99.1739 14.38 98.9739 12.08C98.8539 10.56 98.7939 9.58 98.7939 9.14C98.7939 8.7 98.8739 8.41 99.0339 8.27C99.1739 8.13 99.4739 7.98 99.9339 7.82C100.394 7.64 100.904 7.49 101.464 7.37C102.024 7.25 102.494 7.18 102.874 7.16C103.514 7.16 103.994 7.09 104.314 6.95ZM121.747 3.44C121.787 3.44 121.847 3.43 121.927 3.41C123.367 3.27 124.217 3.22 124.477 3.26C124.737 3.28 124.927 3.42 125.047 3.68C125.067 3.72 125.077 3.75 125.077 3.77C125.157 3.99 125.207 4.18 125.227 4.34C125.247 4.48 125.147 4.59 124.927 4.67C124.707 4.75 124.417 4.81 124.057 4.85C123.717 4.87 123.197 4.89 122.497 4.91C121.817 4.93 121.277 4.96 120.877 5C120.497 5.04 120.157 5.1 119.857 5.18C119.577 5.26 119.377 5.4 119.257 5.6C119.137 5.78 119.047 5.99 118.987 6.23C118.947 6.47 118.927 6.81 118.927 7.25V8.66L119.797 8.48C123.297 7.8 125.047 7.88 125.047 8.72C125.047 9.04 124.917 9.26 124.657 9.38C124.417 9.48 123.937 9.54 123.217 9.56C122.457 9.56 121.567 9.7 120.547 9.98C119.867 10.16 119.447 10.31 119.287 10.43C119.127 10.53 119.067 10.71 119.107 10.97C119.147 11.45 119.297 11.73 119.557 11.81C119.817 11.87 120.397 11.8 121.297 11.6C123.857 11.04 125.287 11 125.587 11.48C125.747 11.72 125.727 11.97 125.527 12.23C125.347 12.49 125.077 12.62 124.717 12.62C124.397 12.62 123.457 12.77 121.897 13.07C120.457 13.37 119.487 13.52 118.987 13.52C118.487 13.52 118.197 13.39 118.117 13.13C117.777 12.07 117.557 10.48 117.457 8.36C117.357 6.24 117.437 5.03 117.697 4.73C118.297 4.05 119.647 3.62 121.747 3.44ZM128.017 4.73C128.097 4.51 128.277 4.39 128.557 4.37C128.857 4.33 129.067 4.41 129.187 4.61C129.287 4.77 129.357 6.31 129.397 9.23V13.58L128.857 13.7C128.497 13.78 128.247 13.72 128.107 13.52C127.947 13.28 127.847 11.88 127.807 9.32C127.787 6.76 127.857 5.23 128.017 4.73ZM126.637 15.41C127.057 15.27 127.287 15.2 127.327 15.2C127.367 15.2 127.447 15.23 127.567 15.29C127.707 15.33 127.847 15.4 127.987 15.5C128.127 15.6 128.257 15.7 128.377 15.8C128.517 15.88 128.607 15.95 128.647 16.01C128.767 16.21 128.827 17.09 128.827 18.65C128.827 20.03 128.717 20.85 128.497 21.11C128.297 21.37 127.597 21.56 126.397 21.68C126.117 21.7 125.647 21.74 124.987 21.8C124.347 21.88 123.937 21.93 123.757 21.95C123.477 21.99 123.247 22.01 123.067 22.01C122.887 22.01 122.717 21.99 122.557 21.95C122.397 21.93 122.277 21.87 122.197 21.77C122.117 21.67 122.037 21.55 121.957 21.41C121.897 21.29 121.847 21.09 121.807 20.81C121.787 20.55 121.767 20.28 121.747 20C121.747 19.7 121.747 19.32 121.747 18.86C121.747 17.3 121.807 16.43 121.927 16.25C122.047 16.07 122.417 15.98 123.037 15.98C124.197 15.98 125.397 15.79 126.637 15.41ZM127.267 17.21L126.337 17.15C125.997 17.15 125.637 17.18 125.257 17.24C124.877 17.28 124.517 17.36 124.177 17.48C123.857 17.6 123.627 17.72 123.487 17.84C123.267 18.02 123.157 18.49 123.157 19.25V20.39L124.537 20.24C124.777 20.2 125.127 20.15 125.587 20.09C126.047 20.05 126.337 20.02 126.457 20C126.537 20 126.627 19.99 126.727 19.97C126.847 19.95 126.937 19.94 126.997 19.94C127.077 19.94 127.127 19.94 127.147 19.94C127.227 19.9 127.267 19.43 127.267 18.53V17.21ZM133.963 7.1C135.043 6.54 136.223 6.71 137.503 7.61C138.543 8.31 139.283 9.18 139.723 10.22C140.163 11.24 140.243 12.28 139.963 13.34C139.783 14.08 139.523 14.63 139.183 14.99C138.863 15.35 138.343 15.68 137.623 15.98C136.923 16.28 136.283 16.43 135.703 16.43C135.223 16.45 134.703 16.36 134.143 16.16C133.583 15.96 133.063 15.68 132.583 15.32C132.123 14.96 131.753 14.58 131.473 14.18C131.193 13.74 131.023 13.39 130.963 13.13C130.903 12.85 130.893 12.4 130.933 11.78C130.993 10.82 131.153 10.11 131.413 9.65C131.653 9.19 132.023 8.71 132.523 8.21C133.023 7.71 133.503 7.34 133.963 7.1ZM136.753 8.84C136.173 8.42 135.693 8.23 135.313 8.27C134.933 8.29 134.473 8.54 133.933 9.02C133.133 9.78 132.663 10.56 132.523 11.36C132.403 12.14 132.633 12.88 133.213 13.58C133.893 14.4 134.723 14.82 135.703 14.84C136.703 14.84 137.523 14.42 138.163 13.58C138.363 13.34 138.493 13.1 138.553 12.86C138.613 12.6 138.623 12.22 138.583 11.72C138.523 11.08 138.363 10.56 138.103 10.16C137.843 9.74 137.393 9.3 136.753 8.84ZM143.293 7.34C143.373 7.2 143.603 7.15 143.983 7.19C144.363 7.23 144.563 7.32 144.583 7.46C144.623 7.8 144.543 10.58 144.343 15.8L144.163 19.55H143.473C143.273 19.55 143.133 19.55 143.053 19.55C142.973 19.53 142.903 19.48 142.843 19.4C142.783 19.3 142.743 19.19 142.723 19.07C142.723 18.93 142.713 18.7 142.693 18.38C142.653 17.72 142.713 15.75 142.873 12.47C143.053 9.19 143.193 7.48 143.293 7.34ZM171.633 6.41C171.853 6.17 172.123 6.09 172.443 6.17C172.603 6.21 172.713 6.26 172.773 6.32C172.833 6.38 172.873 6.56 172.893 6.86C172.913 7.16 172.903 7.52 172.863 7.94C172.823 8.36 172.763 9.05 172.683 10.01C172.543 11.51 172.413 13.43 172.293 15.77C172.233 17.27 172.163 18.2 172.083 18.56C172.023 18.9 171.873 19.11 171.633 19.19C171.393 19.29 171.213 19.32 171.093 19.28C170.973 19.24 170.873 19.11 170.793 18.89C170.713 18.65 170.683 18.28 170.703 17.78C170.723 17.26 170.743 16.57 170.763 15.71C170.823 13.51 170.793 12.37 170.673 12.29C170.513 12.21 170.113 12.24 169.473 12.38C169.333 12.4 169.133 12.44 168.873 12.5C168.613 12.54 168.323 12.6 168.003 12.68C167.703 12.74 167.463 12.79 167.283 12.83C166.443 12.99 165.923 12.99 165.723 12.83C165.463 12.63 165.363 12.46 165.423 12.32C165.503 12.16 165.783 11.92 166.263 11.6C166.863 11.18 167.583 10.96 168.423 10.94C169.323 10.92 170.023 10.79 170.523 10.55L171.273 10.25V8.51C171.273 7.33 171.393 6.63 171.633 6.41ZM161.013 7.25C161.933 7.11 162.423 7.02 162.483 6.98C162.543 6.98 162.723 7.05 163.023 7.19C163.323 7.37 163.463 7.9 163.443 8.78C163.443 9.64 163.283 11.28 162.963 13.7L162.423 17.57H161.823C161.403 17.57 161.153 17.46 161.073 17.24C160.973 16.98 161.133 15.55 161.553 12.95C161.953 10.35 162.063 8.98 161.883 8.84C161.683 8.74 160.823 8.87 159.303 9.23C156.783 9.85 155.383 9.9 155.103 9.38C155.063 9.24 155.093 9.08 155.193 8.9C155.293 8.74 156.023 8.47 157.383 8.09C158.743 7.69 159.953 7.41 161.013 7.25ZM180.92 3.44C181.08 3.4 181.25 3.36 181.43 3.32C181.63 3.28 181.78 3.25 181.88 3.23C182 3.21 182.08 3.2 182.12 3.2C182.24 3.18 182.38 3.28 182.54 3.5C182.72 3.72 182.81 3.93 182.81 4.13C182.81 4.39 182.71 4.63 182.51 4.85C182.07 5.31 181.61 5.87 181.13 6.53C180.67 7.17 180.44 7.55 180.44 7.67C180.44 7.89 180.87 8.4 181.73 9.2C182.43 9.84 182.86 10.39 183.02 10.85C183.18 11.31 183.06 11.62 182.66 11.78C182.42 11.86 182.15 11.8 181.85 11.6C181.57 11.38 181.11 10.9 180.47 10.16C179.79 9.42 179.39 9.05 179.27 9.05C179.19 9.05 178.83 9.48 178.19 10.34C177.27 11.64 176.54 12.12 176 11.78C175.84 11.7 175.75 11.6 175.73 11.48C175.71 11.34 175.8 11.1 176 10.76C176.22 10.42 176.52 10.01 176.9 9.53C177.28 9.03 177.88 8.31 178.7 7.37C179.76 6.07 180.3 5.35 180.32 5.21C180.34 5.11 180.27 5.06 180.11 5.06C180.01 5.06 179.69 5.09 179.15 5.15C178.21 5.25 177.35 5.42 176.57 5.66C175.79 5.9 175.26 6.01 174.98 5.99C174.72 5.97 174.54 5.8 174.44 5.48C174.3 5.08 174.43 4.78 174.83 4.58C175.23 4.36 176.08 4.16 177.38 3.98C178.08 3.88 179.26 3.7 180.92 3.44ZM186.62 3.68C186.8 3.52 186.99 3.44 187.19 3.44C187.39 3.44 187.54 3.52 187.64 3.68C187.78 3.88 187.85 5.35 187.85 8.09C187.85 9.95 187.82 11.12 187.76 11.6C187.7 12.08 187.58 12.38 187.4 12.5C186.92 12.86 186.6 12.66 186.44 11.9C186.34 11.54 186.27 11.01 186.23 10.31L186.02 8.3L184.85 8.48C183.55 8.68 182.82 8.69 182.66 8.51C182.58 8.45 182.53 8.24 182.51 7.88C182.47 7.6 182.63 7.39 182.99 7.25C183.37 7.11 184.31 6.89 185.81 6.59C186.05 6.53 186.2 6.43 186.26 6.29C186.32 6.13 186.35 5.77 186.35 5.21C186.35 4.39 186.44 3.88 186.62 3.68ZM181.34 14.12C181.88 13.92 182.83 13.82 184.19 13.82C185.57 13.8 186.35 13.88 186.53 14.06C186.71 14.24 186.8 14.99 186.8 16.31C186.8 17.23 186.77 17.8 186.71 18.02C186.65 18.24 186.48 18.45 186.2 18.65C185.82 18.91 184.93 19.08 183.53 19.16C182.55 19.2 181.95 19.26 181.73 19.34C181.51 19.4 181.37 19.56 181.31 19.82C181.23 20.28 181.34 20.57 181.64 20.69C181.96 20.83 182.61 20.82 183.59 20.66C184.87 20.44 185.82 20.32 186.44 20.3C186.92 20.28 187.24 20.29 187.4 20.33C187.56 20.39 187.67 20.52 187.73 20.72C187.79 21.02 187.74 21.23 187.58 21.35C187.46 21.47 186.55 21.69 184.85 22.01C183.15 22.35 182.05 22.52 181.55 22.52C181.01 22.52 180.57 22.29 180.23 21.83C179.91 21.39 179.75 20.79 179.75 20.03C179.75 19.55 179.77 19.2 179.81 18.98C179.87 18.74 180 18.54 180.2 18.38C180.4 18.2 180.65 18.08 180.95 18.02C181.25 17.96 181.72 17.91 182.36 17.87C183.66 17.77 184.45 17.64 184.73 17.48C185.03 17.32 185.18 16.9 185.18 16.22V15.11L183.83 15.29C182.93 15.39 181.96 15.55 180.92 15.77C179.9 16.01 179.34 16.08 179.24 15.98C179.02 15.86 178.96 15.62 179.06 15.26C179.16 14.9 179.36 14.65 179.66 14.51C180.08 14.35 180.32 14.29 180.38 14.33C180.42 14.39 180.74 14.32 181.34 14.12ZM192.681 0.319999C192.801 0.139999 193.011 0.079999 193.311 0.139998C193.531 0.159999 193.671 0.239999 193.731 0.379999C193.811 0.519999 193.861 0.829999 193.881 1.31C193.941 2.07 194.011 2.75 194.091 3.35C194.151 3.85 194.211 4.14 194.271 4.22C194.351 4.3 194.541 4.3 194.841 4.22C195.381 4.08 195.721 4 195.861 3.98C196.121 3.96 196.371 3.89 196.611 3.77C196.891 3.65 197.161 3.63 197.421 3.71C197.701 3.77 197.911 3.91 198.051 4.13C198.471 4.81 198.081 5.23 196.881 5.39C196.041 5.53 195.311 5.71 194.691 5.93C194.011 6.15 193.281 6.26 192.501 6.26C191.741 6.26 191.221 6.33 190.941 6.47C190.641 6.63 190.331 6.67 190.011 6.59C189.691 6.49 189.481 6.33 189.381 6.11C189.301 5.89 189.331 5.65 189.471 5.39C189.551 5.29 189.741 5.19 190.041 5.09C190.341 4.99 190.691 4.91 191.091 4.85C191.491 4.77 191.861 4.73 192.201 4.73C192.421 4.71 192.551 4.6 192.591 4.4C192.631 4.2 192.631 3.62 192.591 2.66C192.531 1.26 192.561 0.48 192.681 0.319999ZM203.511 5.36C203.731 5.04 203.961 4.92 204.201 5C204.441 5.06 204.611 5.3 204.711 5.72C204.811 6.1 204.811 7.08 204.711 8.66C204.611 10.32 204.631 11.46 204.771 12.08C204.911 12.76 204.861 13.25 204.621 13.55C204.101 14.29 203.701 14.25 203.421 13.43C203.241 12.91 203.151 12.16 203.151 11.18C203.151 10.22 203.061 9.65 202.881 9.47C202.701 9.27 202.241 9.28 201.501 9.5L200.571 9.8L200.751 10.91C201.051 12.85 200.971 13.87 200.511 13.97C200.011 14.07 199.691 13.89 199.551 13.43C199.431 12.97 199.371 11.79 199.371 9.89C199.371 7.93 199.411 6.71 199.491 6.23C199.571 5.75 199.771 5.51 200.091 5.51C200.411 5.51 200.651 5.66 200.811 5.96C200.971 6.24 201.031 6.63 200.991 7.13C200.971 7.55 200.991 7.8 201.051 7.88C201.111 7.96 201.331 7.99 201.711 7.97C202.331 7.95 202.721 7.87 202.881 7.73C203.061 7.59 203.151 7.28 203.151 6.8C203.151 6.2 203.271 5.72 203.511 5.36ZM192.471 7.97C192.911 7.69 193.291 7.53 193.611 7.49C193.951 7.45 194.511 7.52 195.291 7.7C195.991 7.84 196.481 8.03 196.761 8.27C197.041 8.49 197.281 8.9 197.481 9.5C197.821 10.54 197.801 11.52 197.421 12.44C197.061 13.36 196.431 14.04 195.531 14.48C194.651 14.82 193.821 14.93 193.041 14.81C192.261 14.67 191.591 14.29 191.031 13.67C190.471 13.05 190.191 12.33 190.191 11.51C190.191 10.95 190.411 10.33 190.851 9.65C191.291 8.97 191.831 8.41 192.471 7.97ZM195.921 9.5C195.621 9.18 195.311 9 194.991 8.96C194.671 8.92 194.221 9 193.641 9.2C193.021 9.42 192.601 9.64 192.381 9.86C192.161 10.06 191.991 10.41 191.871 10.91C191.711 11.51 191.751 12.02 191.991 12.44C192.231 12.86 192.651 13.15 193.251 13.31C193.791 13.45 194.241 13.44 194.601 13.28C194.961 13.12 195.361 12.75 195.801 12.17C196.121 11.73 196.291 11.27 196.311 10.79C196.331 10.29 196.201 9.86 195.921 9.5ZM202.821 16.04C203.041 15.82 203.221 15.71 203.361 15.71C203.501 15.71 203.671 15.82 203.871 16.04C204.071 16.3 204.111 16.63 203.991 17.03C203.911 17.31 203.951 17.57 204.111 17.81C204.291 18.05 204.771 18.52 205.551 19.22C206.671 20.28 207.181 20.9 207.081 21.08C206.721 21.64 205.871 21.33 204.531 20.15C204.291 19.93 204.061 19.74 203.841 19.58C203.621 19.4 203.441 19.27 203.301 19.19C203.181 19.11 203.111 19.09 203.091 19.13C203.011 19.35 202.881 19.85 202.701 20.63C202.501 21.49 202.311 21.98 202.131 22.1C201.671 22.42 201.291 22.28 200.991 21.68C200.831 21.3 200.261 20.86 199.281 20.36C198.461 19.98 197.931 19.84 197.691 19.94C197.471 20.02 197.231 20.49 196.971 21.35C196.591 22.47 196.091 22.9 195.471 22.64C195.191 22.54 195.111 22.24 195.231 21.74C195.371 21.24 195.781 20.28 196.461 18.86C196.881 18.04 197.231 17.43 197.511 17.03C197.791 16.61 198.061 16.35 198.321 16.25C198.581 16.13 198.821 16.18 199.041 16.4C199.261 16.58 199.361 16.77 199.341 16.97C199.321 17.15 199.161 17.4 198.861 17.72C198.621 18 198.491 18.18 198.471 18.26C198.471 18.32 198.581 18.44 198.801 18.62C199.001 18.76 199.461 19.01 200.181 19.37C200.901 19.73 201.311 19.91 201.411 19.91C201.491 19.91 201.531 19.75 201.531 19.43C201.531 19.23 201.611 18.88 201.771 18.38C201.931 17.88 202.111 17.4 202.311 16.94C202.531 16.48 202.701 16.18 202.821 16.04ZM212.469 6.8C212.769 6.7 213.029 6.67 213.249 6.71C213.489 6.75 213.859 6.88 214.359 7.1C215.119 7.46 215.709 7.84 216.129 8.24C216.569 8.64 216.869 9.13 217.029 9.71C217.209 10.29 217.299 11.06 217.299 12.02C217.299 13.26 216.929 14.3 216.189 15.14C215.449 15.96 214.529 16.38 213.429 16.4C212.709 16.4 211.909 16.18 211.029 15.74C210.169 15.28 209.559 14.76 209.199 14.18C208.799 13.56 208.589 12.88 208.569 12.14C208.549 11.38 208.689 10.65 208.989 9.95C209.289 9.25 209.749 8.62 210.369 8.06C210.989 7.48 211.689 7.06 212.469 6.8ZM214.899 9.05C214.439 8.69 213.979 8.47 213.519 8.39C213.059 8.29 212.669 8.34 212.349 8.54C211.389 9.14 210.719 9.85 210.339 10.67C209.979 11.49 209.989 12.23 210.369 12.89C210.789 13.57 211.399 14.1 212.199 14.48C212.999 14.86 213.649 14.92 214.149 14.66C214.489 14.46 214.789 14.24 215.049 14C215.329 13.76 215.539 13.5 215.679 13.22C215.819 12.94 215.889 12.67 215.889 12.41C215.889 11.61 215.789 10.9 215.589 10.28C215.409 9.66 215.179 9.25 214.899 9.05ZM221.649 8.27C221.749 7.87 221.989 7.67 222.369 7.67C222.769 7.67 223.019 7.77 223.119 7.97C223.259 8.23 223.269 9.44 223.149 11.6C223.049 13.7 222.979 15.48 222.939 16.94C222.919 17.84 222.879 18.42 222.819 18.68C222.759 18.94 222.639 19.12 222.459 19.22C222.139 19.4 221.859 19.44 221.619 19.34C221.459 19.28 221.369 19.06 221.349 18.68C221.329 18.28 221.349 17.4 221.409 16.04C221.489 14.48 221.519 13.56 221.499 13.28C221.479 12.98 221.349 12.83 221.109 12.83C220.809 12.83 220.429 12.92 219.969 13.1C219.509 13.28 219.029 13.32 218.529 13.22C218.029 13.1 217.779 12.9 217.779 12.62C217.779 12.42 217.869 12.24 218.049 12.08C218.229 11.9 218.489 11.75 218.829 11.63C219.189 11.51 219.609 11.42 220.089 11.36C220.889 11.28 221.379 11.19 221.559 11.09C221.719 10.99 221.739 10.59 221.619 9.89C221.539 9.17 221.549 8.63 221.649 8.27ZM227.651 3.35C228.371 3.09 229.061 3.01 229.721 3.11C230.401 3.19 231.031 3.46 231.611 3.92C232.211 4.38 232.701 5 233.081 5.78C233.461 6.52 233.641 7.21 233.621 7.85C233.621 8.49 233.421 9.2 233.021 9.98C232.701 10.62 232.321 11.1 231.881 11.42C231.441 11.72 230.881 11.92 230.201 12.02C229.061 12.18 227.981 11.96 226.961 11.36C225.941 10.76 225.291 9.99 225.011 9.05C224.611 7.77 224.651 6.63 225.131 5.63C225.611 4.63 226.451 3.87 227.651 3.35ZM230.081 4.58C229.881 4.58 229.661 4.54 229.421 4.46C229.061 4.34 228.491 4.56 227.711 5.12C226.931 5.68 226.461 6.22 226.301 6.74C226.241 6.94 226.231 7.18 226.271 7.46C226.311 7.72 226.381 7.99 226.481 8.27C226.581 8.53 226.711 8.79 226.871 9.05C227.051 9.31 227.241 9.53 227.441 9.71C228.201 10.39 228.971 10.7 229.751 10.64C230.531 10.58 231.151 10.17 231.611 9.41C232.351 8.21 232.231 6.96 231.251 5.66C230.671 4.94 230.281 4.58 230.081 4.58ZM231.341 13.91C231.501 13.53 231.701 13.34 231.941 13.34C232.201 13.32 232.421 13.51 232.601 13.91C232.761 14.29 232.741 14.95 232.541 15.89C232.341 16.79 232.301 17.34 232.421 17.54C232.521 17.72 233.121 17.81 234.221 17.81C234.981 17.81 235.451 17.84 235.631 17.9C235.831 17.94 235.981 18.08 236.081 18.32C236.221 18.74 236.171 19.03 235.931 19.19C235.711 19.35 235.211 19.42 234.431 19.4C233.811 19.38 233.041 19.42 232.121 19.52C231.221 19.6 230.581 19.69 230.201 19.79C230.021 19.85 229.561 19.94 228.821 20.06C228.101 20.2 227.391 20.33 226.691 20.45C225.991 20.57 225.571 20.63 225.431 20.63C225.191 20.63 225.011 20.47 224.891 20.15C224.771 19.83 224.801 19.56 224.981 19.34C225.141 19.14 225.531 18.99 226.151 18.89L227.021 18.77V16.85C227.041 15.79 227.121 15.12 227.261 14.84C227.401 14.54 227.701 14.45 228.161 14.57C228.441 14.65 228.601 14.78 228.641 14.96C228.701 15.12 228.721 15.62 228.701 16.46L228.641 18.14L229.811 18.23C230.551 18.27 230.921 18.23 230.921 18.11C230.921 17.57 230.941 17 230.981 16.4C231.041 15.8 231.101 15.28 231.161 14.84C231.241 14.4 231.301 14.09 231.341 13.91ZM238.262 17.72C238.562 17.58 238.812 17.53 239.012 17.57C239.232 17.59 239.472 17.72 239.732 17.96C239.952 18.14 240.092 18.29 240.152 18.41C240.212 18.51 240.242 18.67 240.242 18.89C240.242 19.87 239.742 20.36 238.742 20.36C238.602 20.36 238.482 20.35 238.382 20.33C238.302 20.31 238.232 20.27 238.172 20.21C238.112 20.17 238.032 20.1 237.932 20C237.732 19.76 237.632 19.41 237.632 18.95C237.632 18.59 237.672 18.33 237.752 18.17C237.832 18.01 238.002 17.86 238.262 17.72ZM24.2811 41.23C24.3411 41.11 24.4711 41.04 24.6711 41.02C24.8911 41 25.1311 41.05 25.3911 41.17C25.5511 41.23 25.6511 41.44 25.6911 41.8C25.7511 42.16 25.7811 42.91 25.7811 44.05C25.7811 45.91 25.8211 46.87 25.9011 46.93C25.9411 46.99 26.6611 46.97 28.0611 46.87C29.3411 46.73 30.1811 46.7 30.5811 46.78C31.0011 46.86 31.2111 47.09 31.2111 47.47C31.2111 47.55 31.2011 47.62 31.1811 47.68C31.1811 47.74 31.1511 47.8 31.0911 47.86C31.0511 47.92 31.0011 47.97 30.9411 48.01C30.9011 48.05 30.8211 48.09 30.7011 48.13C30.5811 48.17 30.4511 48.2 30.3111 48.22C30.1711 48.24 29.9811 48.27 29.7411 48.31C29.5211 48.33 29.2811 48.35 29.0211 48.37C28.7811 48.39 28.4611 48.42 28.0611 48.46C26.6811 48.56 25.9311 48.7 25.8111 48.88C25.7311 49.02 25.6711 49.88 25.6311 51.46C25.6111 53 25.5711 53.79 25.5111 53.83C25.4911 53.87 25.3011 53.95 24.9411 54.07C24.5211 54.19 24.2611 54.07 24.1611 53.71C24.0411 53.27 24.0411 51.82 24.1611 49.36C24.3211 46.58 24.3611 44.56 24.2811 43.3C24.1611 42.06 24.1611 41.37 24.2811 41.23ZM15.7611 42.07C17.1011 41.85 18.0511 41.75 18.6111 41.77C19.1711 41.77 19.4911 41.88 19.5711 42.1C19.7111 42.46 19.6511 42.74 19.3911 42.94C19.1511 43.14 18.7111 43.25 18.0711 43.27C16.2511 43.29 14.8511 43.52 13.8711 43.96L13.1211 44.23L13.2111 46.45C13.2511 47.05 13.2711 47.49 13.2711 47.77C13.2911 48.05 13.3311 48.34 13.3911 48.64C13.4511 48.94 13.5111 49.14 13.5711 49.24C13.6311 49.32 13.7411 49.42 13.9011 49.54C14.0811 49.64 14.2411 49.7 14.3811 49.72C14.5411 49.74 14.7811 49.76 15.1011 49.78C16.0011 49.86 16.9211 49.85 17.8611 49.75C19.3611 49.53 20.1111 49.74 20.1111 50.38C20.1111 50.62 20.0711 50.8 19.9911 50.92C19.9311 51.04 19.7411 51.14 19.4211 51.22C19.1211 51.3 18.7211 51.35 18.2211 51.37C17.7411 51.39 17.0211 51.4 16.0611 51.4C15.8811 51.4 15.6311 51.4 15.3111 51.4C14.8311 51.4 14.4911 51.4 14.2911 51.4C14.0911 51.4 13.8311 51.38 13.5111 51.34C13.2111 51.3 13.0211 51.28 12.9411 51.28C12.8611 51.26 12.7411 51.19 12.5811 51.07C12.4211 50.93 12.3211 50.82 12.2811 50.74C12.2611 50.64 12.2111 50.46 12.1311 50.2C12.0711 49.94 12.0311 49.72 12.0111 49.54C12.0111 49.34 11.9811 49.03 11.9211 48.61C11.9011 48.31 11.8811 48.07 11.8611 47.89C11.6811 46.07 11.6011 44.83 11.6211 44.17C11.6411 43.51 11.7711 43.12 12.0111 43C12.8711 42.66 14.1211 42.35 15.7611 42.07ZM35.6248 37.39C36.1048 37.15 36.6648 37.03 37.3048 37.03C37.9448 37.03 38.4948 37.15 38.9548 37.39C39.5348 37.71 40.1248 38.17 40.7248 38.77C41.3448 39.37 41.6948 39.84 41.7748 40.18C41.8748 40.6 41.8848 41.15 41.8048 41.83C41.7248 42.51 41.5848 43.06 41.3848 43.48C41.1248 44.02 40.6148 44.54 39.8548 45.04C39.0948 45.52 38.4148 45.77 37.8148 45.79C37.3148 45.79 36.7848 45.69 36.2248 45.49C35.6648 45.27 35.1348 44.98 34.6348 44.62C34.1348 44.26 33.7348 43.86 33.4348 43.42C32.9748 42.74 32.7348 42.17 32.7148 41.71C32.6948 41.23 32.8648 40.61 33.2248 39.85C33.8048 38.75 34.6048 37.93 35.6248 37.39ZM39.5848 39.52C38.9648 38.96 38.4648 38.64 38.0848 38.56C37.7048 38.46 37.1848 38.57 36.5248 38.89C35.8848 39.19 35.3648 39.58 34.9648 40.06C34.6648 40.38 34.4848 40.65 34.4248 40.87C34.3648 41.09 34.3648 41.37 34.4248 41.71C34.5048 42.23 34.7648 42.71 35.2048 43.15C35.6448 43.59 36.1748 43.9 36.7948 44.08C37.4148 44.24 37.8948 44.27 38.2348 44.17C38.5948 44.07 39.0448 43.75 39.5848 43.21C39.7848 43.03 39.9348 42.88 40.0348 42.76C40.1548 42.64 40.2448 42.51 40.3048 42.37C40.3648 42.23 40.4048 42.09 40.4248 41.95C40.4648 41.81 40.4848 41.63 40.4848 41.41C40.4848 40.99 40.4248 40.66 40.3048 40.42C40.2048 40.18 39.9648 39.88 39.5848 39.52ZM42.2548 47.29C42.3748 47.19 42.5948 47.26 42.9148 47.5C43.2348 47.72 43.4248 47.95 43.4848 48.19C43.5448 48.47 43.5048 48.67 43.3648 48.79C43.2248 48.93 42.0448 49.04 39.8248 49.12C37.6648 49.18 36.3048 49.3 35.7448 49.48C34.6048 49.8 33.9148 49.77 33.6748 49.39C33.5348 49.17 33.6548 48.87 34.0348 48.49C34.4948 48.03 36.6548 47.71 40.5148 47.53C41.5548 47.51 42.1348 47.43 42.2548 47.29ZM39.1648 50.74C40.8648 50.4 41.9548 50.41 42.4348 50.77C42.6348 50.91 42.7548 51.13 42.7948 51.43C42.8348 51.71 42.8348 52.34 42.7948 53.32C42.7148 54.86 42.5848 55.72 42.4048 55.9C42.2648 56.04 41.4548 56.23 39.9748 56.47C38.4948 56.73 37.4048 56.86 36.7048 56.86C36.2048 56.86 35.8848 56.79 35.7448 56.65C35.6048 56.51 35.5448 55.57 35.5648 53.83L35.6248 51.28L36.7948 51.1C37.7348 50.98 38.5248 50.86 39.1648 50.74ZM41.2948 52.21L40.3648 52.15C39.7048 52.13 38.9848 52.26 38.2048 52.54C37.7048 52.72 37.3748 52.88 37.2148 53.02C37.0748 53.16 36.9748 53.4 36.9148 53.74C36.7548 54.48 36.8348 54.91 37.1548 55.03C37.4748 55.15 38.3248 55.08 39.7048 54.82L41.2348 54.55L41.2648 53.38L41.2948 52.21ZM48.5295 42.25C48.9895 42.11 49.3795 42.07 49.6995 42.13C50.0395 42.17 50.6195 42.37 51.4395 42.73C52.7795 43.29 53.4595 44.49 53.4795 46.33C53.4795 47.27 53.3895 47.99 53.2095 48.49C53.0495 48.97 52.7395 49.48 52.2795 50.02C51.8595 50.5 51.5395 50.79 51.3195 50.89C51.1195 50.99 50.7295 51.04 50.1495 51.04C49.0095 51.04 47.9195 50.7 46.8795 50.02C45.8595 49.34 45.2695 48.58 45.1095 47.74C44.9695 46.92 44.9995 46.21 45.1995 45.61C45.3995 45.01 45.8295 44.38 46.4895 43.72C46.8095 43.38 47.1695 43.07 47.5695 42.79C47.9895 42.51 48.3095 42.33 48.5295 42.25ZM50.5995 43.84C50.0995 43.68 49.7395 43.62 49.5195 43.66C49.2995 43.68 48.8995 43.85 48.3195 44.17C47.6395 44.57 47.1895 44.92 46.9695 45.22C46.7495 45.52 46.6295 45.94 46.6095 46.48C46.6095 47.16 46.8595 47.75 47.3595 48.25C47.8795 48.75 48.5595 49.09 49.3995 49.27C50.0395 49.43 50.4395 49.5 50.5995 49.48C50.7595 49.44 50.9795 49.25 51.2595 48.91C51.4195 48.73 51.5295 48.56 51.5895 48.4C51.6695 48.22 51.7195 48 51.7395 47.74C51.7795 47.48 51.7995 47.12 51.7995 46.66C51.7995 45.66 51.7195 44.99 51.5595 44.65C51.4195 44.29 51.0995 44.02 50.5995 43.84ZM62.2395 42.25C62.3795 42.05 62.5595 41.96 62.7795 41.98C62.9995 41.98 63.1995 42.09 63.3795 42.31C63.5795 42.55 63.6195 44.11 63.4995 46.99C63.3595 49.81 63.2895 51.55 63.2895 52.21C63.2695 52.79 63.1895 53.18 63.0495 53.38C62.9295 53.58 62.6695 53.72 62.2695 53.8L61.6395 53.92L61.8495 50.44C61.9895 47.64 62.0595 45.75 62.0595 44.77C62.0595 43.29 62.1195 42.45 62.2395 42.25ZM58.6995 42.7C59.0995 42.32 59.4695 42.34 59.8095 42.76C59.9895 42.98 59.9895 44.1 59.8095 46.12C59.6895 47.66 59.5495 49.38 59.3895 51.28L59.2395 53.38H58.5495H57.8295L57.8595 50.59C57.8595 50.55 57.8595 50.5 57.8595 50.44C57.8995 49.02 57.8595 48.22 57.7395 48.04C57.6195 47.84 57.1795 47.85 56.4195 48.07C56.3595 48.09 56.3195 48.1 56.2995 48.1C55.7995 48.26 55.3195 48.3 54.8595 48.22C54.3995 48.14 54.1695 47.99 54.1695 47.77C54.1695 47.39 54.3395 47.09 54.6795 46.87C55.0395 46.65 55.6195 46.5 56.4195 46.42C57.4995 46.28 58.1095 46.11 58.2495 45.91C58.3695 45.67 58.4295 45.12 58.4295 44.26C58.4295 43.4 58.5195 42.88 58.6995 42.7ZM66.3486 37.42C66.5486 37.16 66.7986 37.08 67.0986 37.18C67.3186 37.22 67.4586 37.39 67.5186 37.69C67.5786 37.97 67.6086 38.69 67.6086 39.85V42.46L68.6286 42.31C68.8086 42.27 69.0986 42.22 69.4986 42.16C69.9186 42.1 70.1886 42.06 70.3086 42.04C72.0686 41.78 73.2486 41.64 73.8486 41.62C74.1686 41.62 74.3586 41.66 74.4186 41.74C74.4986 41.8 74.5386 42.03 74.5386 42.43V43.24L73.1886 43.3C72.2086 43.32 70.9886 43.5 69.5286 43.84C67.9886 44.14 67.0786 44.28 66.7986 44.26C66.5386 44.22 66.3186 43.94 66.1386 43.42C65.9786 42.82 65.9186 41.73 65.9586 40.15C66.0186 38.57 66.1486 37.66 66.3486 37.42ZM74.8386 46.45C74.8586 46.43 74.9886 46.55 75.2286 46.81C75.6486 47.23 75.7086 47.64 75.4086 48.04C75.1286 48.42 74.6686 48.55 74.0286 48.43C73.4886 48.35 72.5386 48.42 71.1786 48.64C68.8786 49.04 67.3586 49.28 66.6186 49.36C65.8986 49.42 65.4486 49.35 65.2686 49.15C65.1286 49.01 65.0586 48.89 65.0586 48.79C65.0586 48.67 65.1486 48.48 65.3286 48.22C65.4886 47.94 65.6686 47.77 65.8686 47.71C66.0686 47.65 66.4686 47.62 67.0686 47.62C68.0086 47.62 68.9686 47.51 69.9486 47.29C71.0686 47.07 71.9486 46.96 72.5886 46.96C73.2686 46.92 73.8186 46.83 74.2386 46.69L74.8386 46.45ZM68.2086 51.4C68.4486 51.12 68.5986 50.97 68.6586 50.95C68.7186 50.93 68.8686 50.97 69.1086 51.07C69.2086 51.11 69.2786 51.19 69.3186 51.31C69.3786 51.43 69.4186 51.62 69.4386 51.88C69.4586 52.12 69.4686 52.47 69.4686 52.93C69.4686 54.09 69.5486 54.67 69.7086 54.67C69.8686 54.67 70.2386 54.55 70.8186 54.31C71.3386 54.13 72.2086 53.91 73.4286 53.65C74.6686 53.39 75.4986 53.26 75.9186 53.26C76.2786 53.26 76.5086 53.42 76.6086 53.74C76.6486 53.92 76.6486 54.08 76.6086 54.22C76.5686 54.36 76.4686 54.48 76.3086 54.58C76.1686 54.68 75.9686 54.76 75.7086 54.82C75.4686 54.88 75.1586 54.93 74.7786 54.97C73.8586 55.05 72.9886 55.27 72.1686 55.63C71.8686 55.77 71.4786 55.9 70.9986 56.02C70.5386 56.16 70.1386 56.24 69.7986 56.26C69.2586 56.32 68.9086 56.33 68.7486 56.29C68.5886 56.25 68.4386 56.11 68.2986 55.87C68.1186 55.49 67.9886 54.73 67.9086 53.59C67.8486 52.85 67.8386 52.35 67.8786 52.09C67.9186 51.83 68.0286 51.6 68.2086 51.4ZM93.8991 37.99C93.9191 37.83 94.0291 37.73 94.2291 37.69C94.4491 37.65 94.6691 37.69 94.8891 37.81C95.1091 37.91 95.2491 38.05 95.3091 38.23C95.4491 38.57 95.4791 38.82 95.3991 38.98C95.2991 39.14 95.2691 40.3 95.3091 42.46V45.73L94.6491 46.09C94.1291 46.37 92.4791 46.69 89.6991 47.05C88.9791 47.15 88.5391 47.09 88.3791 46.87C87.8191 46.17 87.5391 44.34 87.5391 41.38C87.5391 39.98 87.5691 39.09 87.6291 38.71C87.6891 38.31 87.7991 38.08 87.9591 38.02C88.3591 37.86 88.6491 37.92 88.8291 38.2C89.0091 38.48 89.0791 38.97 89.0391 39.67C89.0391 39.73 89.0291 39.82 89.0091 39.94C88.9691 40.54 89.0391 40.88 89.2191 40.96C89.4191 41.02 90.0991 40.96 91.2591 40.78C91.3391 40.76 91.3991 40.75 91.4391 40.75C91.4791 40.73 91.5291 40.71 91.5891 40.69C91.6691 40.67 91.7391 40.66 91.7991 40.66L93.8091 40.39L93.8391 39.31C93.8791 38.57 93.8991 38.13 93.8991 37.99ZM93.2691 42.19C92.6491 41.87 92.2091 41.85 91.9491 42.13C91.8691 42.23 91.3691 42.37 90.4491 42.55C89.8691 42.65 89.4991 42.75 89.3391 42.85C89.1791 42.95 89.0791 43.13 89.0391 43.39C88.9791 43.77 89.0391 44.18 89.2191 44.62C89.3391 44.96 89.4791 45.16 89.6391 45.22C89.8191 45.26 90.3491 45.25 91.2291 45.19C92.3891 45.11 93.0991 44.97 93.3591 44.77C93.6191 44.55 93.7391 44.11 93.7191 43.45C93.6991 42.77 93.5491 42.35 93.2691 42.19ZM95.9091 48.16C96.4691 47.8 96.9191 47.94 97.2591 48.58C97.4391 48.96 97.3691 49.28 97.0491 49.54C96.7491 49.8 96.2691 49.95 95.6091 49.99L94.5291 50.08V51.97V53.86H93.8091H93.1191L93.0591 52.03L92.9691 50.2L91.9791 50.32C91.7791 50.34 91.3691 50.39 90.7491 50.47C90.1291 50.55 89.6991 50.61 89.4591 50.65C88.8991 50.73 88.4391 50.76 88.0791 50.74C87.7191 50.72 87.4591 50.65 87.2991 50.53C87.1391 50.39 87.0791 50.21 87.1191 49.99C87.2391 49.35 88.3591 48.99 90.4791 48.91C93.5991 48.75 95.4091 48.5 95.9091 48.16ZM89.1591 52.93C89.2791 52.81 89.4991 52.78 89.8191 52.84C90.0191 52.88 90.1491 52.99 90.2091 53.17C90.2691 53.33 90.3191 53.73 90.3591 54.37C90.3791 55.15 90.4391 55.6 90.5391 55.72C90.6391 55.84 90.9491 55.82 91.4691 55.66C91.9091 55.48 92.7691 55.35 94.0491 55.27C94.0891 55.25 94.1391 55.24 94.1991 55.24C95.8791 55.12 96.8691 55.07 97.1691 55.09C97.4691 55.11 97.6391 55.25 97.6791 55.51C97.6791 55.51 97.6791 55.52 97.6791 55.54C97.7191 55.88 97.5891 56.12 97.2891 56.26C97.0091 56.42 96.4791 56.56 95.6991 56.68C95.2591 56.72 94.0491 56.9 92.0691 57.22C90.8891 57.38 90.1691 57.46 89.9091 57.46C89.6491 57.46 89.4391 57.36 89.2791 57.16C89.1191 56.92 89.0191 56.2 88.9791 55C88.9391 53.78 88.9991 53.09 89.1591 52.93ZM112.239 39.1C112.499 38.6 112.879 38.52 113.379 38.86C113.499 38.92 113.559 39.25 113.559 39.85C113.579 40.43 113.549 41.53 113.469 43.15C113.349 45.57 113.289 47.25 113.289 48.19C113.289 48.63 113.259 48.9 113.199 49C113.139 49.08 112.939 49.12 112.599 49.12C112.259 49.12 112.049 49.06 111.969 48.94C111.909 48.82 111.859 48.4 111.819 47.68L111.759 46.24L110.889 46.36C110.249 46.46 109.689 46.57 109.209 46.69C108.949 46.75 108.709 46.78 108.489 46.78C108.269 46.76 108.079 46.71 107.919 46.63C107.779 46.55 107.669 46.45 107.589 46.33C107.529 46.21 107.519 46.07 107.559 45.91C107.599 45.75 107.699 45.58 107.859 45.4C108.079 45.18 108.719 45.02 109.779 44.92C110.719 44.84 111.329 44.71 111.609 44.53C111.889 44.33 112.009 43.99 111.969 43.51C111.929 43.19 111.859 42.99 111.759 42.91C111.679 42.83 111.489 42.79 111.189 42.79C110.789 42.79 110.229 42.85 109.509 42.97C108.829 43.09 108.419 43.04 108.279 42.82C108.159 42.58 108.329 42.23 108.789 41.77C109.029 41.53 109.289 41.36 109.569 41.26C109.869 41.14 110.279 41.06 110.799 41.02C111.439 40.96 111.819 40.9 111.939 40.84C112.059 40.76 112.099 40.56 112.059 40.24C112.039 39.78 112.099 39.4 112.239 39.1ZM103.869 39.1C103.949 39 104.299 38.96 104.919 38.98C105.539 39 105.909 39.07 106.029 39.19C106.149 39.29 106.209 40.53 106.209 42.91C106.229 45.27 106.189 46.61 106.089 46.93C106.089 46.93 106.079 46.94 106.059 46.96C105.959 47.28 105.779 47.48 105.519 47.56C105.259 47.64 104.389 47.76 102.909 47.92C102.789 47.94 102.699 47.95 102.639 47.95C101.979 48.03 101.389 48.12 100.869 48.22C100.589 48.28 100.389 48.27 100.269 48.19C100.169 48.11 100.049 47.9 99.9095 47.56C99.6295 46.92 99.3895 45.22 99.1895 42.46C99.1295 41.8 99.2795 41.26 99.6395 40.84C99.9195 40.5 100.439 40.17 101.199 39.85C101.979 39.51 102.609 39.34 103.089 39.34C103.509 39.34 103.769 39.26 103.869 39.1ZM104.709 43.21C104.709 42.31 104.689 41.68 104.649 41.32C104.609 40.96 104.539 40.79 104.439 40.81C103.959 40.85 103.409 40.95 102.789 41.11C102.189 41.27 101.729 41.43 101.409 41.59C101.069 41.77 100.859 41.93 100.779 42.07C100.719 42.21 100.729 42.47 100.809 42.85C100.889 43.51 100.929 44.22 100.929 44.98V46.27L102.459 46.12C102.539 46.1 102.639 46.09 102.759 46.09C103.159 46.05 103.439 46.02 103.599 46C103.759 45.98 103.939 45.93 104.139 45.85C104.339 45.77 104.459 45.7 104.499 45.64C104.539 45.56 104.589 45.41 104.649 45.19C104.709 44.95 104.739 44.74 104.739 44.56C104.739 44.38 104.729 44.06 104.709 43.6C104.709 43.44 104.709 43.31 104.709 43.21ZM108.249 50.05C108.969 49.85 109.459 49.76 109.719 49.78C109.999 49.8 110.349 49.96 110.769 50.26C111.189 50.56 111.579 51.05 111.939 51.73C112.299 52.39 112.479 52.96 112.479 53.44C112.479 54.46 112.169 55.38 111.549 56.2C110.949 57.04 110.229 57.53 109.389 57.67C108.549 57.81 107.589 57.53 106.509 56.83C105.429 56.13 104.799 55.39 104.619 54.61C104.579 54.37 104.579 54.05 104.619 53.65C104.679 53.25 104.769 52.89 104.889 52.57C105.009 52.25 105.129 52.09 105.249 52.09C105.369 52.09 105.429 52 105.429 51.82C105.429 51.56 105.699 51.26 106.239 50.92C106.799 50.56 107.469 50.27 108.249 50.05ZM109.959 51.67C109.739 51.51 109.539 51.43 109.359 51.43C109.179 51.43 108.789 51.51 108.189 51.67C107.689 51.79 107.219 52.09 106.779 52.57C106.339 53.03 106.119 53.46 106.119 53.86C106.119 54.2 106.339 54.61 106.779 55.09C107.239 55.59 107.669 55.9 108.069 56.02C109.509 56.36 110.439 55.64 110.859 53.86C111.039 53.04 110.739 52.31 109.959 51.67ZM119.508 37.87C119.788 37.59 120.158 37.68 120.618 38.14C120.798 38.34 120.898 38.55 120.918 38.77C120.938 38.99 120.898 39.41 120.798 40.03C120.658 40.99 120.638 41.55 120.738 41.71C120.838 41.85 121.538 41.84 122.838 41.68C123.978 41.54 124.698 41.51 124.998 41.59C125.318 41.65 125.478 41.88 125.478 42.28C125.478 42.62 125.348 42.84 125.088 42.94C124.828 43.04 124.178 43.13 123.138 43.21C121.438 43.33 119.468 43.65 117.228 44.17C115.808 44.53 115.098 44.42 115.098 43.84C115.098 43.5 115.278 43.23 115.638 43.03C115.998 42.83 116.588 42.67 117.408 42.55C117.768 42.49 118.028 42.44 118.188 42.4C118.368 42.36 118.538 42.29 118.698 42.19C118.878 42.09 118.988 42 119.028 41.92C119.088 41.84 119.148 41.67 119.208 41.41C119.268 41.15 119.298 40.9 119.298 40.66C119.298 40.42 119.308 40.05 119.328 39.55C119.348 38.51 119.408 37.95 119.508 37.87ZM127.698 44.8C127.898 44.46 128.248 44.44 128.748 44.74C128.888 44.84 128.968 45.74 128.988 47.44C129.008 49.14 128.958 50.85 128.838 52.57C128.718 54.27 128.578 55.18 128.418 55.3C127.798 55.76 127.408 55.45 127.248 54.37C127.168 53.73 127.188 52.03 127.308 49.27C127.428 46.49 127.558 45 127.698 44.8ZM119.118 45.43C119.798 45.07 120.408 44.94 120.948 45.04C121.508 45.14 122.168 45.5 122.928 46.12C123.868 46.86 124.448 47.71 124.668 48.67C124.888 49.63 124.718 50.61 124.158 51.61C123.918 52.07 123.658 52.45 123.378 52.75C123.118 53.03 122.818 53.26 122.478 53.44C122.138 53.62 121.758 53.76 121.338 53.86C120.698 53.98 120.168 54.02 119.748 53.98C119.348 53.92 118.968 53.75 118.608 53.47C118.148 53.17 117.868 53.02 117.768 53.02C117.528 53.02 117.278 52.7 117.018 52.06C116.778 51.42 116.628 50.73 116.568 49.99C116.508 49.23 116.518 48.73 116.598 48.49C116.678 48.23 116.938 47.79 117.378 47.17C117.638 46.83 117.928 46.49 118.248 46.15C118.588 45.79 118.878 45.55 119.118 45.43ZM122.718 47.71C122.378 47.37 122.038 47.08 121.698 46.84C121.438 46.68 121.228 46.6 121.068 46.6C120.908 46.58 120.658 46.64 120.318 46.78C119.838 47 119.398 47.34 118.998 47.8C118.598 48.24 118.318 48.74 118.158 49.3C118.038 49.66 117.978 49.95 117.978 50.17C117.998 50.37 118.098 50.65 118.278 51.01C118.678 51.85 119.228 52.35 119.928 52.51C120.628 52.67 121.318 52.45 121.998 51.85C122.718 51.23 123.138 50.54 123.258 49.78C123.398 49 123.218 48.31 122.718 47.71ZM148.953 36.79C149.813 36.67 150.453 36.65 150.873 36.73C151.313 36.79 151.623 36.91 151.803 37.09C151.983 37.27 152.113 37.58 152.193 38.02C152.273 38.44 152.333 39.19 152.373 40.27L152.433 43.06L151.743 43.57C151.303 43.89 151.033 43.94 150.933 43.72C150.813 43.46 150.753 42.47 150.753 40.75V38.14L149.643 38.32C148.963 38.42 148.403 38.54 147.963 38.68C147.283 38.92 146.783 38.96 146.463 38.8C146.163 38.62 146.103 38.28 146.283 37.78C146.403 37.5 146.623 37.3 146.943 37.18C147.263 37.04 147.933 36.91 148.953 36.79ZM142.923 37.81C143.043 37.69 143.393 37.66 143.973 37.72C144.573 37.78 144.943 37.88 145.083 38.02C145.263 38.24 145.333 39.48 145.293 41.74L145.203 45.13L144.453 45.19L143.613 45.25L143.703 42.31L143.763 39.31L143.073 39.46C142.353 39.62 141.653 39.72 140.973 39.76C140.293 39.78 139.863 39.73 139.683 39.61C139.323 39.37 139.453 39.06 140.073 38.68C140.453 38.46 140.933 38.29 141.513 38.17C142.413 37.99 142.883 37.87 142.923 37.81ZM147.483 44.14C147.643 43.94 147.823 43.85 148.023 43.87C148.243 43.87 148.443 43.97 148.623 44.17C148.743 44.35 148.793 44.56 148.773 44.8C148.773 45.04 148.703 45.51 148.563 46.21C148.303 47.29 148.213 47.86 148.293 47.92C148.373 48 148.833 48 149.673 47.92C150.533 47.84 151.203 47.74 151.683 47.62C152.963 47.24 153.753 47.31 154.053 47.83C154.273 48.27 154.253 48.62 153.993 48.88C153.753 49.12 153.313 49.24 152.673 49.24C152.033 49.24 151.193 49.32 150.153 49.48C149.133 49.66 148.263 49.78 147.543 49.84C146.523 49.96 145.613 50.09 144.813 50.23C143.893 50.39 143.273 50.43 142.953 50.35C142.633 50.27 142.473 50.04 142.473 49.66C142.473 49.36 142.533 49.14 142.653 49C142.793 48.84 143.023 48.73 143.343 48.67C143.663 48.59 144.153 48.54 144.813 48.52C145.373 48.5 145.823 48.46 146.163 48.4C146.503 48.32 146.733 48.21 146.853 48.07C146.973 47.93 146.983 47.76 146.883 47.56C146.803 47.34 146.843 46.76 147.003 45.82C147.183 44.88 147.343 44.32 147.483 44.14ZM148.413 51.85C150.393 51.73 151.453 51.67 151.593 51.67C152.033 51.63 152.313 51.8 152.433 52.18C152.553 52.56 152.613 53.44 152.613 54.82C152.613 56.42 152.553 57.3 152.433 57.46C152.373 57.54 152.253 57.6 152.073 57.64C151.593 57.76 151.293 57.69 151.173 57.43C151.053 57.19 150.993 56.5 150.993 55.36V53.23L148.803 53.41C147.203 53.55 146.203 53.61 145.803 53.59C145.403 53.57 145.183 53.46 145.143 53.26C145.123 53.02 145.213 52.76 145.413 52.48C145.493 52.34 145.623 52.24 145.803 52.18C146.003 52.1 146.293 52.04 146.673 52C147.053 51.96 147.633 51.91 148.413 51.85ZM177.447 38.92C177.607 38.74 177.817 38.65 178.077 38.65C178.697 38.65 178.867 39.59 178.587 41.47C178.407 42.55 178.317 43.15 178.317 43.27C178.317 43.35 178.797 43.35 179.757 43.27C180.537 43.17 181.077 43.19 181.377 43.33C181.697 43.45 181.857 43.69 181.857 44.05C181.857 44.53 181.367 44.78 180.387 44.8C179.747 44.8 179.187 44.91 178.707 45.13C178.227 45.35 177.997 45.6 178.017 45.88C178.097 46.58 178.127 47.28 178.107 47.98C178.107 48.68 178.067 49.09 177.987 49.21C177.847 49.43 177.627 49.52 177.327 49.48C177.027 49.42 176.807 49.25 176.667 48.97C176.467 48.61 176.427 47.77 176.547 46.45C176.687 44.57 176.847 42.89 177.027 41.41C177.227 39.91 177.367 39.08 177.447 38.92ZM168.657 39.22C169.697 39.02 170.627 38.92 171.447 38.92C172.267 38.9 172.727 39 172.827 39.22C172.967 39.48 172.997 40.77 172.917 43.09C172.897 43.21 172.887 43.37 172.887 43.57C172.867 44.21 172.847 44.67 172.827 44.95C172.827 45.21 172.797 45.54 172.737 45.94C172.677 46.34 172.627 46.6 172.587 46.72C172.567 46.82 172.457 46.97 172.257 47.17C172.077 47.35 171.937 47.46 171.837 47.5C171.737 47.52 171.497 47.56 171.117 47.62C170.757 47.68 170.447 47.71 170.187 47.71C169.927 47.71 169.497 47.71 168.897 47.71C168.737 47.71 168.617 47.71 168.537 47.71C167.157 47.71 166.267 47.69 165.867 47.65C165.467 47.61 165.217 47.51 165.117 47.35C164.937 47.03 164.807 45.9 164.727 43.96C164.647 42.02 164.677 40.9 164.817 40.6C164.977 40.34 165.337 40.11 165.897 39.91C166.457 39.71 167.377 39.48 168.657 39.22ZM171.357 42.94C171.437 41.34 171.417 40.54 171.297 40.54C171.197 40.56 170.587 40.64 169.467 40.78C168.367 40.9 167.517 41.09 166.917 41.35L166.017 41.71L166.167 43.18C166.267 44.2 166.317 44.89 166.317 45.25V45.97H168.657C170.257 45.97 171.077 45.87 171.117 45.67C171.197 45.51 171.277 44.6 171.357 42.94ZM172.317 50.29C173.317 50.09 174.247 49.99 175.107 49.99C175.967 49.99 176.537 50.09 176.817 50.29C177.017 50.43 177.127 50.57 177.147 50.71C177.167 50.83 177.097 51.07 176.937 51.43C176.597 52.27 176.457 52.87 176.517 53.23C176.597 53.57 176.957 54.11 177.597 54.85C178.737 56.15 179.097 56.99 178.677 57.37C178.577 57.47 178.417 57.52 178.197 57.52C177.977 57.52 177.737 57.41 177.477 57.19C177.237 56.97 176.887 56.57 176.427 55.99L175.197 54.4L173.637 56.14C172.917 56.9 172.447 57.35 172.227 57.49C172.027 57.65 171.797 57.67 171.537 57.55C171.197 57.37 171.027 57.2 171.027 57.04C171.027 56.9 171.727 56.02 173.127 54.4C174.867 52.44 175.547 51.45 175.167 51.43C175.107 51.43 175.007 51.46 174.867 51.52C174.427 51.64 173.967 51.72 173.487 51.76C172.827 51.86 172.137 52.03 171.417 52.27C170.937 52.43 170.607 52.52 170.427 52.54C170.267 52.54 170.117 52.46 169.977 52.3C169.297 51.64 169.717 51.06 171.237 50.56C171.557 50.46 171.917 50.37 172.317 50.29ZM184.649 37.42C184.849 37.16 185.099 37.08 185.399 37.18C185.619 37.22 185.759 37.39 185.819 37.69C185.879 37.97 185.909 38.69 185.909 39.85V42.46L186.929 42.31C187.109 42.27 187.399 42.22 187.799 42.16C188.219 42.1 188.489 42.06 188.609 42.04C190.369 41.78 191.549 41.64 192.149 41.62C192.469 41.62 192.659 41.66 192.719 41.74C192.799 41.8 192.839 42.03 192.839 42.43V43.24L191.489 43.3C190.509 43.32 189.289 43.5 187.829 43.84C186.289 44.14 185.379 44.28 185.099 44.26C184.839 44.22 184.619 43.94 184.439 43.42C184.279 42.82 184.219 41.73 184.259 40.15C184.319 38.57 184.449 37.66 184.649 37.42ZM193.139 46.45C193.159 46.43 193.289 46.55 193.529 46.81C193.949 47.23 194.009 47.64 193.709 48.04C193.429 48.42 192.969 48.55 192.329 48.43C191.789 48.35 190.839 48.42 189.479 48.64C187.179 49.04 185.659 49.28 184.919 49.36C184.199 49.42 183.749 49.35 183.569 49.15C183.429 49.01 183.359 48.89 183.359 48.79C183.359 48.67 183.449 48.48 183.629 48.22C183.789 47.94 183.969 47.77 184.169 47.71C184.369 47.65 184.769 47.62 185.369 47.62C186.309 47.62 187.269 47.51 188.249 47.29C189.369 47.07 190.249 46.96 190.889 46.96C191.569 46.92 192.119 46.83 192.539 46.69L193.139 46.45ZM186.509 51.4C186.749 51.12 186.899 50.97 186.959 50.95C187.019 50.93 187.169 50.97 187.409 51.07C187.509 51.11 187.579 51.19 187.619 51.31C187.679 51.43 187.719 51.62 187.739 51.88C187.759 52.12 187.769 52.47 187.769 52.93C187.769 54.09 187.849 54.67 188.009 54.67C188.169 54.67 188.539 54.55 189.119 54.31C189.639 54.13 190.509 53.91 191.729 53.65C192.969 53.39 193.799 53.26 194.219 53.26C194.579 53.26 194.809 53.42 194.909 53.74C194.949 53.92 194.949 54.08 194.909 54.22C194.869 54.36 194.769 54.48 194.609 54.58C194.469 54.68 194.269 54.76 194.009 54.82C193.769 54.88 193.459 54.93 193.079 54.97C192.159 55.05 191.289 55.27 190.469 55.63C190.169 55.77 189.779 55.9 189.299 56.02C188.839 56.16 188.439 56.24 188.099 56.26C187.559 56.32 187.209 56.33 187.049 56.29C186.889 56.25 186.739 56.11 186.599 55.87C186.419 55.49 186.289 54.73 186.209 53.59C186.149 52.85 186.139 52.35 186.179 52.09C186.219 51.83 186.329 51.6 186.509 51.4ZM209.74 38.44C209.78 38.44 209.84 38.43 209.92 38.41C211.36 38.27 212.21 38.22 212.47 38.26C212.73 38.28 212.92 38.42 213.04 38.68C213.06 38.72 213.07 38.75 213.07 38.77C213.15 38.99 213.2 39.18 213.22 39.34C213.24 39.48 213.14 39.59 212.92 39.67C212.7 39.75 212.41 39.81 212.05 39.85C211.71 39.87 211.19 39.89 210.49 39.91C209.81 39.93 209.27 39.96 208.87 40C208.49 40.04 208.15 40.1 207.85 40.18C207.57 40.26 207.37 40.4 207.25 40.6C207.13 40.78 207.04 40.99 206.98 41.23C206.94 41.47 206.92 41.81 206.92 42.25V43.66L207.79 43.48C211.29 42.8 213.04 42.88 213.04 43.72C213.04 44.04 212.91 44.26 212.65 44.38C212.41 44.48 211.93 44.54 211.21 44.56C210.45 44.56 209.56 44.7 208.54 44.98C207.86 45.16 207.44 45.31 207.28 45.43C207.12 45.53 207.06 45.71 207.1 45.97C207.14 46.45 207.29 46.73 207.55 46.81C207.81 46.87 208.39 46.8 209.29 46.6C211.85 46.04 213.28 46 213.58 46.48C213.74 46.72 213.72 46.97 213.52 47.23C213.34 47.49 213.07 47.62 212.71 47.62C212.39 47.62 211.45 47.77 209.89 48.07C208.45 48.37 207.48 48.52 206.98 48.52C206.48 48.52 206.19 48.39 206.11 48.13C205.77 47.07 205.55 45.48 205.45 43.36C205.35 41.24 205.43 40.03 205.69 39.73C206.29 39.05 207.64 38.62 209.74 38.44ZM216.01 39.73C216.09 39.51 216.27 39.39 216.55 39.37C216.85 39.33 217.06 39.41 217.18 39.61C217.28 39.77 217.35 41.31 217.39 44.23V48.58L216.85 48.7C216.49 48.78 216.24 48.72 216.1 48.52C215.94 48.28 215.84 46.88 215.8 44.32C215.78 41.76 215.85 40.23 216.01 39.73ZM214.63 50.41C215.05 50.27 215.28 50.2 215.32 50.2C215.36 50.2 215.44 50.23 215.56 50.29C215.7 50.33 215.84 50.4 215.98 50.5C216.12 50.6 216.25 50.7 216.37 50.8C216.51 50.88 216.6 50.95 216.64 51.01C216.76 51.21 216.82 52.09 216.82 53.65C216.82 55.03 216.71 55.85 216.49 56.11C216.29 56.37 215.59 56.56 214.39 56.68C214.11 56.7 213.64 56.74 212.98 56.8C212.34 56.88 211.93 56.93 211.75 56.95C211.47 56.99 211.24 57.01 211.06 57.01C210.88 57.01 210.71 56.99 210.55 56.95C210.39 56.93 210.27 56.87 210.19 56.77C210.11 56.67 210.03 56.55 209.95 56.41C209.89 56.29 209.84 56.09 209.8 55.81C209.78 55.55 209.76 55.28 209.74 55C209.74 54.7 209.74 54.32 209.74 53.86C209.74 52.3 209.8 51.43 209.92 51.25C210.04 51.07 210.41 50.98 211.03 50.98C212.19 50.98 213.39 50.79 214.63 50.41ZM215.26 52.21L214.33 52.15C213.99 52.15 213.63 52.18 213.25 52.24C212.87 52.28 212.51 52.36 212.17 52.48C211.85 52.6 211.62 52.72 211.48 52.84C211.26 53.02 211.15 53.49 211.15 54.25V55.39L212.53 55.24C212.77 55.2 213.12 55.15 213.58 55.09C214.04 55.05 214.33 55.02 214.45 55C214.53 55 214.62 54.99 214.72 54.97C214.84 54.95 214.93 54.94 214.99 54.94C215.07 54.94 215.12 54.94 215.14 54.94C215.22 54.9 215.26 54.43 215.26 53.53V52.21ZM221.836 36.61C223.056 36.03 224.266 36.01 225.466 36.55C226.686 37.09 227.496 38.01 227.896 39.31C227.996 39.69 228.036 40.02 228.016 40.3C227.996 40.58 227.916 40.96 227.776 41.44C227.556 42.1 227.206 42.66 226.726 43.12C226.266 43.58 225.646 43.99 224.866 44.35C224.426 44.53 224.086 44.63 223.846 44.65C223.606 44.67 223.276 44.62 222.856 44.5C222.496 44.42 222.126 44.31 221.746 44.17C221.386 44.01 221.066 43.85 220.786 43.69C220.506 43.53 220.296 43.38 220.156 43.24C219.956 43.06 219.756 42.81 219.556 42.49C219.356 42.17 219.196 41.85 219.076 41.53C218.956 41.21 218.896 40.95 218.896 40.75C218.896 39.95 219.166 39.16 219.706 38.38C220.266 37.6 220.976 37.01 221.836 36.61ZM225.556 38.26C225.196 37.92 224.726 37.75 224.146 37.75C223.566 37.73 223.016 37.84 222.496 38.08C221.976 38.32 221.516 38.67 221.116 39.13C220.736 39.57 220.546 40.04 220.546 40.54C220.546 41 220.756 41.47 221.176 41.95C221.616 42.43 222.116 42.75 222.676 42.91C223.256 43.09 223.776 43.1 224.236 42.94C224.696 42.76 225.226 42.35 225.826 41.71C226.306 41.27 226.566 40.96 226.606 40.78C226.666 40.6 226.626 40.27 226.486 39.79C226.266 39.15 225.956 38.64 225.556 38.26ZM227.506 45.73C228.246 45.41 228.786 45.5 229.126 46C229.286 46.24 229.366 46.41 229.366 46.51C229.366 46.61 229.276 46.76 229.096 46.96C228.856 47.24 228.236 47.38 227.236 47.38C226.196 47.38 224.886 47.55 223.306 47.89C221.686 48.23 220.606 48.4 220.066 48.4C219.706 48.42 219.476 48.4 219.376 48.34C219.296 48.26 219.256 48.09 219.256 47.83C219.256 47.61 219.336 47.41 219.496 47.23C219.656 47.05 219.886 46.91 220.186 46.81C220.506 46.71 220.856 46.66 221.236 46.66C221.776 46.66 222.446 46.55 223.246 46.33C223.986 46.11 224.806 45.98 225.706 45.94C226.606 45.94 227.206 45.87 227.506 45.73ZM224.656 49.69C225.216 49.47 225.876 49.43 226.636 49.57C227.416 49.69 227.916 49.93 228.136 50.29C228.256 50.47 228.306 51 228.286 51.88C228.286 52.74 228.226 53.33 228.106 53.65C227.846 54.29 226.696 54.67 224.656 54.79C223.456 54.85 222.816 54.88 222.736 54.88C222.536 54.9 222.436 55.1 222.436 55.48C222.436 55.86 222.596 56.08 222.916 56.14C223.256 56.22 223.836 56.17 224.656 55.99C226.996 55.41 228.326 55.39 228.646 55.93C228.706 56.13 228.746 56.29 228.766 56.41C228.806 56.53 228.666 56.65 228.346 56.77C228.026 56.89 227.616 57 227.116 57.1C226.616 57.22 225.866 57.37 224.866 57.55C223.406 57.79 222.346 57.75 221.686 57.43C221.046 57.11 220.726 56.46 220.726 55.48C220.726 54.8 220.916 54.34 221.296 54.1C221.696 53.84 222.536 53.65 223.816 53.53C225.296 53.35 226.146 53.18 226.366 53.02C226.586 52.84 226.696 52.48 226.696 51.94C226.696 51.56 226.656 51.34 226.576 51.28C226.496 51.2 226.236 51.16 225.796 51.16C225.256 51.16 224.316 51.29 222.976 51.55C221.536 51.85 220.756 51.85 220.636 51.55C220.596 51.41 220.636 51.19 220.756 50.89C220.836 50.63 220.986 50.45 221.206 50.35C221.426 50.23 221.826 50.11 222.406 49.99C223.386 49.79 223.926 49.72 224.026 49.78C224.146 49.86 224.356 49.83 224.656 49.69ZM47.3186 72.03C47.5786 71.87 47.8486 71.87 48.1286 72.03C48.3086 72.13 48.4186 72.3 48.4586 72.54C48.4986 72.76 48.4786 73.28 48.3986 74.1L48.2486 75.96L49.6886 75.75C50.7086 75.57 51.3186 75.53 51.5186 75.63C51.7386 75.71 51.8486 75.91 51.8486 76.23C51.8486 76.53 51.7486 76.77 51.5486 76.95C51.2486 77.19 50.8686 77.69 50.4086 78.45C49.9486 79.19 49.7186 79.68 49.7186 79.92C49.7186 80.1 49.8386 80.35 50.0786 80.67C50.3186 80.97 50.6186 81.27 50.9786 81.57C51.3586 81.85 51.7086 82.06 52.0286 82.2C52.3486 82.34 52.5086 82.58 52.5086 82.92C52.5286 83.24 52.3786 83.43 52.0586 83.49C51.8586 83.53 51.5986 83.5 51.2786 83.4C50.9586 83.28 50.6186 83.11 50.2586 82.89C49.9186 82.65 49.5886 82.38 49.2686 82.08L48.4886 81.33L47.2286 82.74C46.6486 83.36 46.2586 83.73 46.0586 83.85C45.8586 83.95 45.6286 83.94 45.3686 83.82C44.9686 83.66 44.7786 83.46 44.7986 83.22C44.8186 82.98 45.0486 82.65 45.4886 82.23C45.9686 81.81 46.6586 81.04 47.5586 79.92C48.4786 78.8 49.0386 78.05 49.2386 77.67C49.3986 77.37 49.4486 77.22 49.3886 77.22L49.1186 77.28C48.9186 77.36 48.1986 77.53 46.9586 77.79C45.7386 78.03 44.9686 78.16 44.6486 78.18C44.2486 78.2 43.9686 78.17 43.8086 78.09C43.6686 77.99 43.5986 77.81 43.5986 77.55C43.5986 77.21 43.7586 76.95 44.0786 76.77C44.4186 76.57 44.8886 76.47 45.4886 76.47C46.1686 76.47 46.5686 76.37 46.6886 76.17C46.8286 75.95 46.8986 75.3 46.8986 74.22C46.8986 73.66 46.9086 73.24 46.9286 72.96C46.9686 72.68 47.0086 72.47 47.0486 72.33C47.1086 72.19 47.1986 72.09 47.3186 72.03ZM54.9386 75.48C55.0786 75.22 55.2486 75.09 55.4486 75.09C55.6686 75.07 55.8886 75.17 56.1086 75.39C56.2486 75.57 56.3086 75.82 56.2886 76.14C56.2686 76.46 56.1486 77.11 55.9286 78.09L55.7786 78.87L56.7086 78.81C57.3286 78.75 57.7686 78.65 58.0286 78.51C58.2086 78.41 58.3786 78.39 58.5386 78.45C58.7186 78.49 58.8686 78.61 58.9886 78.81C59.1086 78.99 59.1686 79.2 59.1686 79.44C59.1686 79.8 59.1086 79.99 58.9886 80.01C58.0486 80.09 57.1986 80.24 56.4386 80.46L55.4486 80.73L55.5686 82.62C55.6086 83.42 55.6086 83.94 55.5686 84.18C55.5486 84.42 55.4486 84.57 55.2686 84.63C54.8886 84.77 54.5886 84.72 54.3686 84.48C54.1686 84.22 54.0586 83.78 54.0386 83.16C53.9986 82.44 54.0986 81.06 54.3386 79.02C54.5786 76.98 54.7786 75.8 54.9386 75.48ZM50.8586 86.01C52.3186 85.83 53.3586 85.75 53.9786 85.77C54.4186 85.79 54.7086 85.83 54.8486 85.89C54.9886 85.95 55.0686 86.09 55.0886 86.31C55.1486 86.65 55.0486 87.07 54.7886 87.57C54.5486 88.05 54.4786 88.48 54.5786 88.86C54.6986 89.22 55.0386 89.71 55.5986 90.33C56.7586 91.65 57.1886 92.46 56.8886 92.76C56.6286 93.02 56.2786 93.02 55.8386 92.76C55.4186 92.52 54.9586 92.05 54.4586 91.35C53.7986 90.39 53.3986 89.91 53.2586 89.91C53.0986 89.91 52.5886 90.43 51.7286 91.47C50.8086 92.47 50.1586 92.97 49.7786 92.97C48.7586 92.97 49.1686 91.96 51.0086 89.94C51.1086 89.86 51.1986 89.78 51.2786 89.7C52.8786 87.98 53.4986 87.12 53.1386 87.12C53.0786 87.14 52.9886 87.17 52.8686 87.21C52.6086 87.31 51.9586 87.43 50.9186 87.57C49.9586 87.71 49.4086 87.82 49.2686 87.9C49.1286 87.98 48.8886 87.93 48.5486 87.75C48.2286 87.57 48.0686 87.41 48.0686 87.27C48.0686 86.95 48.2786 86.7 48.6986 86.52C49.1186 86.32 49.8386 86.15 50.8586 86.01ZM63.6187 71.61C64.8387 71.03 66.0487 71.01 67.2487 71.55C68.4687 72.09 69.2787 73.01 69.6787 74.31C69.7787 74.69 69.8187 75.02 69.7987 75.3C69.7787 75.58 69.6987 75.96 69.5587 76.44C69.3387 77.1 68.9887 77.66 68.5087 78.12C68.0487 78.58 67.4287 78.99 66.6487 79.35C66.2087 79.53 65.8687 79.63 65.6287 79.65C65.3887 79.67 65.0587 79.62 64.6387 79.5C64.2787 79.42 63.9087 79.31 63.5287 79.17C63.1687 79.01 62.8487 78.85 62.5687 78.69C62.2887 78.53 62.0787 78.38 61.9387 78.24C61.7387 78.06 61.5387 77.81 61.3387 77.49C61.1387 77.17 60.9787 76.85 60.8587 76.53C60.7387 76.21 60.6787 75.95 60.6787 75.75C60.6787 74.95 60.9487 74.16 61.4887 73.38C62.0487 72.6 62.7587 72.01 63.6187 71.61ZM67.3387 73.26C66.9787 72.92 66.5087 72.75 65.9287 72.75C65.3487 72.73 64.7987 72.84 64.2787 73.08C63.7587 73.32 63.2987 73.67 62.8987 74.13C62.5187 74.57 62.3287 75.04 62.3287 75.54C62.3287 76 62.5387 76.47 62.9587 76.95C63.3987 77.43 63.8987 77.75 64.4587 77.91C65.0387 78.09 65.5587 78.1 66.0187 77.94C66.4787 77.76 67.0087 77.35 67.6087 76.71C68.0887 76.27 68.3487 75.96 68.3887 75.78C68.4487 75.6 68.4087 75.27 68.2687 74.79C68.0487 74.15 67.7387 73.64 67.3387 73.26ZM69.2887 80.73C70.0287 80.41 70.5687 80.5 70.9087 81C71.0687 81.24 71.1487 81.41 71.1487 81.51C71.1487 81.61 71.0587 81.76 70.8787 81.96C70.6387 82.24 70.0187 82.38 69.0187 82.38C67.9787 82.38 66.6687 82.55 65.0887 82.89C63.4687 83.23 62.3887 83.4 61.8487 83.4C61.4887 83.42 61.2587 83.4 61.1587 83.34C61.0787 83.26 61.0387 83.09 61.0387 82.83C61.0387 82.61 61.1187 82.41 61.2787 82.23C61.4387 82.05 61.6687 81.91 61.9687 81.81C62.2887 81.71 62.6387 81.66 63.0187 81.66C63.5587 81.66 64.2287 81.55 65.0287 81.33C65.7687 81.11 66.5887 80.98 67.4887 80.94C68.3887 80.94 68.9887 80.87 69.2887 80.73ZM66.4387 84.69C66.9987 84.47 67.6587 84.43 68.4187 84.57C69.1987 84.69 69.6987 84.93 69.9187 85.29C70.0387 85.47 70.0887 86 70.0687 86.88C70.0687 87.74 70.0087 88.33 69.8887 88.65C69.6287 89.29 68.4787 89.67 66.4387 89.79C65.2387 89.85 64.5987 89.88 64.5187 89.88C64.3187 89.9 64.2187 90.1 64.2187 90.48C64.2187 90.86 64.3787 91.08 64.6987 91.14C65.0387 91.22 65.6187 91.17 66.4387 90.99C68.7787 90.41 70.1087 90.39 70.4287 90.93C70.4887 91.13 70.5287 91.29 70.5487 91.41C70.5887 91.53 70.4487 91.65 70.1287 91.77C69.8087 91.89 69.3987 92 68.8987 92.1C68.3987 92.22 67.6487 92.37 66.6487 92.55C65.1887 92.79 64.1287 92.75 63.4687 92.43C62.8287 92.11 62.5087 91.46 62.5087 90.48C62.5087 89.8 62.6987 89.34 63.0787 89.1C63.4787 88.84 64.3187 88.65 65.5987 88.53C67.0787 88.35 67.9287 88.18 68.1487 88.02C68.3687 87.84 68.4787 87.48 68.4787 86.94C68.4787 86.56 68.4387 86.34 68.3587 86.28C68.2787 86.2 68.0187 86.16 67.5787 86.16C67.0387 86.16 66.0987 86.29 64.7587 86.55C63.3187 86.85 62.5387 86.85 62.4187 86.55C62.3787 86.41 62.4187 86.19 62.5387 85.89C62.6187 85.63 62.7687 85.45 62.9887 85.35C63.2087 85.23 63.6087 85.11 64.1887 84.99C65.1687 84.79 65.7087 84.72 65.8087 84.78C65.9287 84.86 66.1387 84.83 66.4387 84.69ZM86.3653 73.98C86.9253 73.36 87.4253 73.09 87.8653 73.17C88.1053 73.21 88.2253 73.36 88.2253 73.62C88.2253 73.9 88.1053 74.14 87.8653 74.34C87.2453 74.86 87.4653 75.41 88.5253 75.99C90.6053 77.13 91.7153 77.89 91.8553 78.27C91.9153 78.41 91.9153 78.58 91.8553 78.78C91.8153 78.98 91.7353 79.16 91.6153 79.32C91.4953 79.46 91.3753 79.53 91.2553 79.53C91.0953 79.53 90.6853 79.27 90.0253 78.75C89.5453 78.37 88.8853 77.94 88.0453 77.46C87.2253 76.96 86.7153 76.71 86.5153 76.71C86.4153 76.71 86.0953 77.12 85.5553 77.94C85.0153 78.76 84.5753 79.52 84.2353 80.22C83.9953 80.68 83.8153 80.95 83.6953 81.03C83.5953 81.09 83.3753 81.06 83.0353 80.94C82.9153 80.9 82.7953 80.85 82.6753 80.79C82.5753 80.71 82.4853 80.63 82.4053 80.55C82.3453 80.47 82.3153 80.4 82.3153 80.34C82.3153 80.12 82.7453 79.41 83.6053 78.21C84.4453 76.93 84.9953 76.06 85.2553 75.6C85.5353 75.04 85.9053 74.5 86.3653 73.98ZM90.7153 83.1C91.3553 82.9 91.9353 82.92 92.4553 83.16C92.9953 83.38 93.1853 83.7 93.0253 84.12C92.9253 84.36 92.6953 84.54 92.3353 84.66C91.9753 84.78 91.6253 84.8 91.2853 84.72C90.9053 84.64 90.4653 84.64 89.9653 84.72L89.2753 84.87L89.2153 87.81C89.1953 89.89 89.1753 91 89.1553 91.14C89.1553 91.42 88.9253 91.56 88.4653 91.56C88.2253 91.56 88.0453 91.52 87.9253 91.44C87.8053 91.38 87.7053 91.21 87.6253 90.93C87.5453 90.67 87.5053 90.3 87.5053 89.82C87.5253 89.32 87.5353 88.65 87.5353 87.81C87.5753 86.51 87.5753 85.73 87.5353 85.47C87.5153 85.21 87.3953 85.09 87.1753 85.11C87.0153 85.15 86.2553 85.21 84.8953 85.29C84.6753 85.31 84.4253 85.33 84.1453 85.35C83.8853 85.37 83.6553 85.39 83.4553 85.41C83.2553 85.41 83.0553 85.42 82.8553 85.44C82.6553 85.46 82.5153 85.47 82.4353 85.47C82.1353 85.51 81.9353 85.5 81.8353 85.44C81.7553 85.36 81.7053 85.19 81.6853 84.93C81.6253 84.59 81.6753 84.34 81.8353 84.18C82.0153 84.02 82.3353 83.9 82.7953 83.82C83.2553 83.74 84.0153 83.69 85.0753 83.67C88.0153 83.55 89.8953 83.36 90.7153 83.1ZM107.799 73.53C107.999 73.45 108.199 73.43 108.399 73.47C108.599 73.51 109.019 73.65 109.659 73.89C110.159 74.07 110.579 74.3 110.919 74.58C111.279 74.84 111.579 75.17 111.819 75.57C112.059 75.97 112.279 76.47 112.479 77.07C112.679 77.71 112.749 78.29 112.689 78.81C112.649 79.33 112.459 79.92 112.119 80.58C111.739 81.32 111.169 81.88 110.409 82.26C109.669 82.64 108.799 82.83 107.799 82.83C107.379 82.83 107.009 82.79 106.689 82.71C106.369 82.63 106.059 82.49 105.759 82.29C105.459 82.09 105.179 81.84 104.919 81.54C104.679 81.22 104.439 80.82 104.199 80.34C103.799 79.6 103.589 78.96 103.569 78.42C103.549 77.86 103.709 77.18 104.049 76.38C104.229 75.88 104.639 75.34 105.279 74.76C105.939 74.18 106.479 73.84 106.899 73.74C107.359 73.66 107.659 73.59 107.799 73.53ZM110.199 75.87C109.519 75.23 108.789 74.98 108.009 75.12C107.229 75.24 106.509 75.73 105.849 76.59C105.469 77.05 105.279 77.64 105.279 78.36C105.299 79.06 105.499 79.69 105.879 80.25C106.419 81.05 107.109 81.46 107.949 81.48C108.789 81.48 109.579 81.09 110.319 80.31C110.499 80.11 110.639 79.95 110.739 79.83C110.839 79.71 110.919 79.57 110.979 79.41C111.039 79.23 111.069 79.05 111.069 78.87C111.089 78.69 111.099 78.43 111.099 78.09C111.099 77.41 111.049 76.97 110.949 76.77C110.869 76.55 110.619 76.25 110.199 75.87ZM115.959 73.98C116.359 73.52 116.709 73.52 117.009 73.98C117.269 74.4 117.339 74.99 117.219 75.75C117.139 76.27 117.079 77.73 117.039 80.13C117.019 81.85 116.979 82.87 116.919 83.19C116.879 83.51 116.729 83.69 116.469 83.73C116.229 83.77 116.039 83.74 115.899 83.64C115.759 83.52 115.649 83.28 115.569 82.92C115.489 82.54 115.449 82 115.449 81.3C115.469 80.6 115.489 79.68 115.509 78.54C115.589 75.72 115.739 74.2 115.959 73.98ZM109.359 85.95C109.719 85.53 110.009 85.29 110.229 85.23C110.469 85.17 110.759 85.26 111.099 85.5C111.299 85.66 111.389 85.79 111.369 85.89C111.349 85.97 111.189 86.15 110.889 86.43C110.609 86.67 110.439 86.86 110.379 87C110.339 87.14 110.359 87.3 110.439 87.48C110.499 87.58 110.649 87.71 110.889 87.87C111.129 88.01 111.379 88.14 111.639 88.26C111.919 88.38 112.199 88.49 112.479 88.59C112.779 88.69 113.019 88.75 113.199 88.77C113.379 88.79 113.489 88.77 113.529 88.71C113.589 88.51 113.859 87.97 114.339 87.09C114.819 86.21 115.129 85.67 115.269 85.47C115.449 85.29 115.679 85.2 115.959 85.2C116.199 85.2 116.339 85.28 116.379 85.44C116.439 85.58 116.449 85.92 116.409 86.46C116.409 86.72 116.499 86.99 116.679 87.27C116.859 87.55 117.229 87.97 117.789 88.53C118.989 89.73 119.499 90.48 119.319 90.78C119.259 90.86 119.149 90.93 118.989 90.99C118.789 91.05 118.529 91.01 118.209 90.87C117.909 90.75 117.599 90.55 117.279 90.27C116.959 89.99 116.669 89.67 116.409 89.31C116.009 88.77 115.709 88.5 115.509 88.5C115.309 88.5 115.209 88.51 115.209 88.53C115.209 88.55 115.059 89.01 114.759 89.91C114.579 90.47 114.429 90.83 114.309 90.99C114.189 91.17 114.009 91.27 113.769 91.29C113.529 91.31 113.359 91.29 113.259 91.23C113.159 91.17 113.079 91.02 113.019 90.78C112.939 90.36 112.799 90.15 112.599 90.15C112.399 90.15 111.809 89.9 110.829 89.4C109.989 89 109.459 88.83 109.239 88.89C109.039 88.93 108.869 89.27 108.729 89.91C108.569 90.55 108.409 90.98 108.249 91.2C108.109 91.44 107.889 91.56 107.589 91.56C106.929 91.56 106.719 91.14 106.959 90.3C107.079 89.9 107.319 89.34 107.679 88.62C108.359 87.3 108.919 86.41 109.359 85.95ZM123.794 71.61C125.014 71.03 126.224 71.01 127.424 71.55C128.644 72.09 129.454 73.01 129.854 74.31C129.954 74.69 129.994 75.02 129.974 75.3C129.954 75.58 129.874 75.96 129.734 76.44C129.514 77.1 129.164 77.66 128.684 78.12C128.224 78.58 127.604 78.99 126.824 79.35C126.384 79.53 126.044 79.63 125.804 79.65C125.564 79.67 125.234 79.62 124.814 79.5C124.454 79.42 124.084 79.31 123.704 79.17C123.344 79.01 123.024 78.85 122.744 78.69C122.464 78.53 122.254 78.38 122.114 78.24C121.914 78.06 121.714 77.81 121.514 77.49C121.314 77.17 121.154 76.85 121.034 76.53C120.914 76.21 120.854 75.95 120.854 75.75C120.854 74.95 121.124 74.16 121.664 73.38C122.224 72.6 122.934 72.01 123.794 71.61ZM127.514 73.26C127.154 72.92 126.684 72.75 126.104 72.75C125.524 72.73 124.974 72.84 124.454 73.08C123.934 73.32 123.474 73.67 123.074 74.13C122.694 74.57 122.504 75.04 122.504 75.54C122.504 76 122.714 76.47 123.134 76.95C123.574 77.43 124.074 77.75 124.634 77.91C125.214 78.09 125.734 78.1 126.194 77.94C126.654 77.76 127.184 77.35 127.784 76.71C128.264 76.27 128.524 75.96 128.564 75.78C128.624 75.6 128.584 75.27 128.444 74.79C128.224 74.15 127.914 73.64 127.514 73.26ZM129.464 80.73C130.204 80.41 130.744 80.5 131.084 81C131.244 81.24 131.324 81.41 131.324 81.51C131.324 81.61 131.234 81.76 131.054 81.96C130.814 82.24 130.194 82.38 129.194 82.38C128.154 82.38 126.844 82.55 125.264 82.89C123.644 83.23 122.564 83.4 122.024 83.4C121.664 83.42 121.434 83.4 121.334 83.34C121.254 83.26 121.214 83.09 121.214 82.83C121.214 82.61 121.294 82.41 121.454 82.23C121.614 82.05 121.844 81.91 122.144 81.81C122.464 81.71 122.814 81.66 123.194 81.66C123.734 81.66 124.404 81.55 125.204 81.33C125.944 81.11 126.764 80.98 127.664 80.94C128.564 80.94 129.164 80.87 129.464 80.73ZM126.614 84.69C127.174 84.47 127.834 84.43 128.594 84.57C129.374 84.69 129.874 84.93 130.094 85.29C130.214 85.47 130.264 86 130.244 86.88C130.244 87.74 130.184 88.33 130.064 88.65C129.804 89.29 128.654 89.67 126.614 89.79C125.414 89.85 124.774 89.88 124.694 89.88C124.494 89.9 124.394 90.1 124.394 90.48C124.394 90.86 124.554 91.08 124.874 91.14C125.214 91.22 125.794 91.17 126.614 90.99C128.954 90.41 130.284 90.39 130.604 90.93C130.664 91.13 130.704 91.29 130.724 91.41C130.764 91.53 130.624 91.65 130.304 91.77C129.984 91.89 129.574 92 129.074 92.1C128.574 92.22 127.824 92.37 126.824 92.55C125.364 92.79 124.304 92.75 123.644 92.43C123.004 92.11 122.684 91.46 122.684 90.48C122.684 89.8 122.874 89.34 123.254 89.1C123.654 88.84 124.494 88.65 125.774 88.53C127.254 88.35 128.104 88.18 128.324 88.02C128.544 87.84 128.654 87.48 128.654 86.94C128.654 86.56 128.614 86.34 128.534 86.28C128.454 86.2 128.194 86.16 127.754 86.16C127.214 86.16 126.274 86.29 124.934 86.55C123.494 86.85 122.714 86.85 122.594 86.55C122.554 86.41 122.594 86.19 122.714 85.89C122.794 85.63 122.944 85.45 123.164 85.35C123.384 85.23 123.784 85.11 124.364 84.99C125.344 84.79 125.884 84.72 125.984 84.78C126.104 84.86 126.314 84.83 126.614 84.69ZM158.391 76.41C158.611 76.17 158.881 76.09 159.201 76.17C159.361 76.21 159.471 76.26 159.531 76.32C159.591 76.38 159.631 76.56 159.651 76.86C159.671 77.16 159.661 77.52 159.621 77.94C159.581 78.36 159.521 79.05 159.441 80.01C159.301 81.51 159.171 83.43 159.051 85.77C158.991 87.27 158.921 88.2 158.841 88.56C158.781 88.9 158.631 89.11 158.391 89.19C158.151 89.29 157.971 89.32 157.851 89.28C157.731 89.24 157.631 89.11 157.551 88.89C157.471 88.65 157.441 88.28 157.461 87.78C157.481 87.26 157.501 86.57 157.521 85.71C157.581 83.51 157.551 82.37 157.431 82.29C157.271 82.21 156.871 82.24 156.231 82.38C156.091 82.4 155.891 82.44 155.631 82.5C155.371 82.54 155.081 82.6 154.761 82.68C154.461 82.74 154.221 82.79 154.041 82.83C153.201 82.99 152.681 82.99 152.481 82.83C152.221 82.63 152.121 82.46 152.181 82.32C152.261 82.16 152.541 81.92 153.021 81.6C153.621 81.18 154.341 80.96 155.181 80.94C156.081 80.92 156.781 80.79 157.281 80.55L158.031 80.25V78.51C158.031 77.33 158.151 76.63 158.391 76.41ZM147.771 77.25C148.691 77.11 149.181 77.02 149.241 76.98C149.301 76.98 149.481 77.05 149.781 77.19C150.081 77.37 150.221 77.9 150.201 78.78C150.201 79.64 150.041 81.28 149.721 83.7L149.181 87.57H148.581C148.161 87.57 147.911 87.46 147.831 87.24C147.731 86.98 147.891 85.55 148.311 82.95C148.711 80.35 148.821 78.98 148.641 78.84C148.441 78.74 147.581 78.87 146.061 79.23C143.541 79.85 142.141 79.9 141.861 79.38C141.821 79.24 141.851 79.08 141.951 78.9C142.051 78.74 142.781 78.47 144.141 78.09C145.501 77.69 146.711 77.41 147.771 77.25ZM175.178 77.16C175.378 76.96 175.628 76.88 175.928 76.92C176.248 76.94 176.458 77.07 176.558 77.31C176.638 77.51 176.608 78.31 176.468 79.71C175.928 84.55 175.718 87.21 175.838 87.69C175.918 88.01 175.848 88.27 175.628 88.47C175.428 88.67 175.128 88.74 174.728 88.68C174.468 88.64 174.318 88.53 174.278 88.35C174.238 88.15 174.238 87.55 174.278 86.55C174.298 85.33 174.248 84.67 174.128 84.57C174.088 84.51 173.958 84.48 173.738 84.48C173.378 84.48 172.898 84.61 172.298 84.87C171.718 85.11 171.238 85.18 170.858 85.08C170.498 84.98 170.318 84.73 170.318 84.33C170.318 84.11 170.378 83.94 170.498 83.82C170.618 83.68 170.838 83.54 171.158 83.4C171.738 83.18 172.188 83.07 172.508 83.07C173.068 83.07 173.538 82.97 173.918 82.77C174.318 82.55 174.548 82.28 174.608 81.96C174.708 81.48 174.658 81.19 174.458 81.09C174.258 80.97 173.818 81 173.138 81.18C171.658 81.56 170.908 81.46 170.888 80.88C170.888 80.82 170.898 80.75 170.918 80.67C171.038 80.25 171.248 79.96 171.548 79.8C171.868 79.62 172.348 79.53 172.988 79.53C173.788 79.53 174.338 79.44 174.638 79.26C174.938 79.08 175.048 78.76 174.968 78.3C174.848 77.82 174.918 77.44 175.178 77.16ZM179.138 77.01C179.238 76.83 179.388 76.74 179.588 76.74C179.808 76.74 180.008 76.83 180.188 77.01C180.508 77.33 180.488 79.39 180.128 83.19C179.908 85.45 179.848 86.84 179.948 87.36C179.988 87.76 179.968 88.03 179.888 88.17C179.828 88.29 179.658 88.4 179.378 88.5C178.958 88.66 178.678 88.69 178.538 88.59C178.398 88.49 178.328 87.9 178.328 86.82C178.348 85.72 178.428 84.56 178.568 83.34C178.728 82.16 178.838 80.82 178.898 79.32C178.958 77.92 179.038 77.15 179.138 77.01ZM164.678 77.46C165.258 77.34 165.808 77.34 166.328 77.46C166.908 77.6 167.228 77.67 167.288 77.67C167.388 77.67 167.728 77.91 168.308 78.39L169.118 79.11V81.42C169.118 82.52 169.088 83.22 169.028 83.52C168.968 83.82 168.758 84.2 168.398 84.66C167.658 85.7 166.708 86.14 165.548 85.98C164.968 85.9 164.328 85.68 163.628 85.32C162.928 84.94 162.358 84.53 161.918 84.09C161.518 83.69 161.278 83.39 161.198 83.19C161.138 82.97 161.128 82.53 161.168 81.87C161.228 81.19 161.418 80.53 161.738 79.89C162.058 79.25 162.478 78.72 162.998 78.3C163.518 77.86 164.078 77.58 164.678 77.46ZM167.018 79.17C166.538 78.93 166.098 78.83 165.698 78.87C165.318 78.91 164.798 79.09 164.138 79.41C163.318 79.83 162.818 80.37 162.638 81.03C162.478 81.69 162.648 82.32 163.148 82.92C163.648 83.5 164.408 83.93 165.428 84.21C165.788 84.29 166.048 84.32 166.208 84.3C166.388 84.28 166.568 84.19 166.748 84.03C167.388 83.49 167.708 82.47 167.708 80.97C167.708 80.29 167.678 79.87 167.618 79.71C167.558 79.53 167.358 79.35 167.018 79.17ZM184.819 73.35C185.539 73.09 186.229 73.01 186.889 73.11C187.569 73.19 188.199 73.46 188.779 73.92C189.379 74.38 189.869 75 190.249 75.78C190.629 76.52 190.809 77.21 190.789 77.85C190.789 78.49 190.589 79.2 190.189 79.98C189.869 80.62 189.489 81.1 189.049 81.42C188.609 81.72 188.049 81.92 187.369 82.02C186.229 82.18 185.149 81.96 184.129 81.36C183.109 80.76 182.459 79.99 182.179 79.05C181.779 77.77 181.819 76.63 182.299 75.63C182.779 74.63 183.619 73.87 184.819 73.35ZM187.249 74.58C187.049 74.58 186.829 74.54 186.589 74.46C186.229 74.34 185.659 74.56 184.879 75.12C184.099 75.68 183.629 76.22 183.469 76.74C183.409 76.94 183.399 77.18 183.439 77.46C183.479 77.72 183.549 77.99 183.649 78.27C183.749 78.53 183.879 78.79 184.039 79.05C184.219 79.31 184.409 79.53 184.609 79.71C185.369 80.39 186.139 80.7 186.919 80.64C187.699 80.58 188.319 80.17 188.779 79.41C189.519 78.21 189.399 76.96 188.419 75.66C187.839 74.94 187.449 74.58 187.249 74.58ZM188.509 83.91C188.669 83.53 188.869 83.34 189.109 83.34C189.369 83.32 189.589 83.51 189.769 83.91C189.929 84.29 189.909 84.95 189.709 85.89C189.509 86.79 189.469 87.34 189.589 87.54C189.689 87.72 190.289 87.81 191.389 87.81C192.149 87.81 192.619 87.84 192.799 87.9C192.999 87.94 193.149 88.08 193.249 88.32C193.389 88.74 193.339 89.03 193.099 89.19C192.879 89.35 192.379 89.42 191.599 89.4C190.979 89.38 190.209 89.42 189.289 89.52C188.389 89.6 187.749 89.69 187.369 89.79C187.189 89.85 186.729 89.94 185.989 90.06C185.269 90.2 184.559 90.33 183.859 90.45C183.159 90.57 182.739 90.63 182.599 90.63C182.359 90.63 182.179 90.47 182.059 90.15C181.939 89.83 181.969 89.56 182.149 89.34C182.309 89.14 182.699 88.99 183.319 88.89L184.189 88.77V86.85C184.209 85.79 184.289 85.12 184.429 84.84C184.569 84.54 184.869 84.45 185.329 84.57C185.609 84.65 185.769 84.78 185.809 84.96C185.869 85.12 185.889 85.62 185.869 86.46L185.809 88.14L186.979 88.23C187.719 88.27 188.089 88.23 188.089 88.11C188.089 87.57 188.109 87 188.149 86.4C188.209 85.8 188.269 85.28 188.329 84.84C188.409 84.4 188.469 84.09 188.509 83.91ZM195.43 87.72C195.73 87.58 195.98 87.53 196.18 87.57C196.4 87.59 196.64 87.72 196.9 87.96C197.12 88.14 197.26 88.29 197.32 88.41C197.38 88.51 197.41 88.67 197.41 88.89C197.41 89.87 196.91 90.36 195.91 90.36C195.77 90.36 195.65 90.35 195.55 90.33C195.47 90.31 195.4 90.27 195.34 90.21C195.28 90.17 195.2 90.1 195.1 90C194.9 89.76 194.8 89.41 194.8 88.95C194.8 88.59 194.84 88.33 194.92 88.17C195 88.01 195.17 87.86 195.43 87.72Z" fill="#1A1A1A"/>
</svg>
