<svg width="240" height="49" viewBox="0 0 240 49" fill="none" xmlns="http://www.w3.org/2000/svg">
<path d="M2.184 9.328C2.616 8.944 2.928 8.72 3.12 8.656C3.312 8.576 3.728 8.536 4.368 8.536C4.848 8.536 5.224 8.56 5.496 8.608C5.768 8.656 6.024 8.744 6.264 8.872C6.504 9 6.776 9.2 7.08 9.472C7.48 9.824 7.76 10.2 7.92 10.6C8.096 11 8.176 11.488 8.16 12.064C8.16 13.104 7.84 13.976 7.2 14.68C6.56 15.368 5.784 15.712 4.872 15.712C4.104 15.712 3.4 15.536 2.76 15.184C2.12 14.816 1.608 14.296 1.224 13.624C0.808 12.936 0.6 12.424 0.6 12.088C0.6 11.928 0.624 11.76 0.672 11.584C0.72 11.408 0.784 11.232 0.864 11.056C0.96 10.864 1.072 10.672 1.2 10.48C1.328 10.272 1.472 10.072 1.632 9.88C1.808 9.688 1.992 9.504 2.184 9.328ZM5.88 9.904C5.4 9.664 4.808 9.64 4.104 9.832C3.416 10.008 2.864 10.344 2.448 10.84C2.128 11.208 1.96 11.552 1.944 11.872C1.928 12.192 2.048 12.592 2.304 13.072C2.736 13.808 3.416 14.264 4.344 14.44C4.728 14.52 5.072 14.504 5.376 14.392C5.68 14.264 6.024 14.008 6.408 13.624C6.664 13.384 6.832 13.176 6.912 13C6.992 12.808 7.032 12.552 7.032 12.232C7.032 11.752 6.912 11.288 6.672 10.84C6.448 10.376 6.184 10.064 5.88 9.904ZM7.872 17.224C8.288 17.096 8.568 17.04 8.712 17.056C8.872 17.072 9.056 17.184 9.264 17.392C9.488 17.616 9.608 17.8 9.624 17.944C9.64 18.072 9.552 18.224 9.36 18.4C9.168 18.624 8.632 18.736 7.752 18.736C7.304 18.736 6.992 18.752 6.816 18.784C6.656 18.8 6.536 18.84 6.456 18.904C6.376 18.952 6.304 19.064 6.24 19.24C6.112 19.624 6.08 20.376 6.144 21.496C6.224 22.36 6.248 22.872 6.216 23.032C6.184 23.208 6.064 23.344 5.856 23.44C5.632 23.52 5.464 23.544 5.352 23.512C5.24 23.496 5.144 23.4 5.064 23.224C5 23.064 4.968 22.792 4.968 22.408C4.968 22.04 4.968 21.56 4.968 20.968L5.04 18.76L4.56 18.832C4.256 18.88 3.552 18.936 2.448 19C1.792 19.048 1.352 19.064 1.128 19.048C0.904 19.016 0.768 18.944 0.72 18.832C0.56 18.4 0.72 18.088 1.2 17.896C1.696 17.704 2.568 17.6 3.816 17.584C5.72 17.584 7.072 17.464 7.872 17.224ZM14.2028 10.624C15.5948 10.384 16.4748 10.384 16.8428 10.624C16.9548 10.688 17.0348 10.888 17.0828 11.224C17.1308 11.56 17.1628 12.168 17.1788 13.048L17.2508 15.328L16.6508 15.664C16.2348 15.936 15.7148 16.104 15.0908 16.168C14.4668 16.248 13.9708 16.384 13.6028 16.576C13.3468 16.704 13.1948 16.832 13.1468 16.96C13.0988 17.088 13.0828 17.376 13.0988 17.824L13.1708 18.832L13.9148 18.808C14.3468 18.808 15.0348 18.72 15.9788 18.544C17.0028 18.336 17.6988 18.24 18.0668 18.256C18.4348 18.272 18.6428 18.408 18.6908 18.664C18.7388 18.92 18.6588 19.128 18.4508 19.288C18.3228 19.4 17.8028 19.544 16.8908 19.72C15.9948 19.896 15.0988 20.04 14.2028 20.152C13.3068 20.264 12.8028 20.288 12.6908 20.224C12.2588 20.016 11.9788 19.216 11.8508 17.824C11.8028 17.296 11.7948 16.944 11.8268 16.768C11.8748 16.576 12.0108 16.352 12.2348 16.096C12.4908 15.808 12.9148 15.552 13.5068 15.328C14.0988 15.088 14.6508 14.968 15.1628 14.968C15.5148 14.968 15.7388 14.832 15.8348 14.56C15.9468 14.288 15.9788 13.768 15.9308 13C15.8828 12.392 15.8348 12.032 15.7868 11.92C15.7388 11.808 15.5868 11.752 15.3308 11.752C15.0748 11.752 14.5788 11.864 13.8428 12.088C13.1068 12.296 12.6908 12.456 12.5948 12.568C12.4508 12.68 12.2028 12.72 11.8508 12.688C11.5148 12.656 11.2508 12.56 11.0588 12.4C10.8828 12.256 10.8028 12.152 10.8188 12.088C10.8348 12.024 10.9708 11.88 11.2268 11.656C11.7548 11.192 12.7468 10.848 14.2028 10.624ZM21.0188 11.632C21.1468 11.472 21.3468 11.44 21.6188 11.536C21.8268 11.616 21.9388 11.864 21.9548 12.28C21.9868 12.696 21.9948 14.096 21.9788 16.48C21.9468 18.88 21.8908 20.328 21.8108 20.824C21.7468 21.304 21.5548 21.544 21.2348 21.544C21.0748 21.544 20.9548 21.488 20.8748 21.376C20.7948 21.248 20.7308 20.984 20.6828 20.584C20.6508 20.168 20.6348 19.648 20.6348 19.024C20.6348 18.384 20.6588 17.472 20.7068 16.288C20.7868 13.344 20.8908 11.792 21.0188 11.632ZM26.6263 8.752C26.6583 8.752 26.7063 8.744 26.7703 8.728C27.9223 8.616 28.6023 8.576 28.8103 8.608C29.0183 8.624 29.1703 8.736 29.2663 8.944C29.2823 8.976 29.2903 9 29.2903 9.016C29.3543 9.192 29.3943 9.344 29.4103 9.472C29.4263 9.584 29.3463 9.672 29.1703 9.736C28.9943 9.8 28.7623 9.848 28.4743 9.88C28.2023 9.896 27.7863 9.912 27.2263 9.928C26.6823 9.944 26.2503 9.968 25.9303 10C25.6263 10.032 25.3543 10.08 25.1143 10.144C24.8903 10.208 24.7303 10.32 24.6343 10.48C24.5383 10.624 24.4663 10.792 24.4183 10.984C24.3863 11.176 24.3703 11.448 24.3703 11.8V12.928L25.0663 12.784C27.8663 12.24 29.2663 12.304 29.2663 12.976C29.2663 13.232 29.1623 13.408 28.9543 13.504C28.7623 13.584 28.3783 13.632 27.8023 13.648C27.1943 13.648 26.4823 13.76 25.6663 13.984C25.1223 14.128 24.7863 14.248 24.6583 14.344C24.5303 14.424 24.4823 14.568 24.5143 14.776C24.5463 15.16 24.6663 15.384 24.8743 15.448C25.0823 15.496 25.5463 15.44 26.2663 15.28C28.3143 14.832 29.4583 14.8 29.6983 15.184C29.8263 15.376 29.8103 15.576 29.6503 15.784C29.5063 15.992 29.2903 16.096 29.0023 16.096C28.7463 16.096 27.9943 16.216 26.7463 16.456C25.5943 16.696 24.8183 16.816 24.4183 16.816C24.0183 16.816 23.7863 16.712 23.7223 16.504C23.4503 15.656 23.2743 14.384 23.1943 12.688C23.1143 10.992 23.1783 10.024 23.3863 9.784C23.8663 9.24 24.9463 8.896 26.6263 8.752ZM31.6423 9.784C31.7063 9.608 31.8503 9.512 32.0743 9.496C32.3143 9.464 32.4823 9.528 32.5783 9.688C32.6583 9.816 32.7143 11.048 32.7463 13.384V16.864L32.3143 16.96C32.0263 17.024 31.8263 16.976 31.7143 16.816C31.5863 16.624 31.5063 15.504 31.4743 13.456C31.4583 11.408 31.5143 10.184 31.6423 9.784ZM30.5383 18.328C30.8743 18.216 31.0583 18.16 31.0903 18.16C31.1223 18.16 31.1863 18.184 31.2823 18.232C31.3943 18.264 31.5063 18.32 31.6183 18.4C31.7303 18.48 31.8343 18.56 31.9303 18.64C32.0423 18.704 32.1143 18.76 32.1463 18.808C32.2423 18.968 32.2903 19.672 32.2903 20.92C32.2903 22.024 32.2023 22.68 32.0263 22.888C31.8663 23.096 31.3063 23.248 30.3463 23.344C30.1223 23.36 29.7463 23.392 29.2183 23.44C28.7063 23.504 28.3783 23.544 28.2343 23.56C28.0103 23.592 27.8263 23.608 27.6823 23.608C27.5383 23.608 27.4023 23.592 27.2743 23.56C27.1463 23.544 27.0503 23.496 26.9863 23.416C26.9223 23.336 26.8583 23.24 26.7943 23.128C26.7463 23.032 26.7063 22.872 26.6743 22.648C26.6583 22.44 26.6423 22.224 26.6263 22C26.6263 21.76 26.6263 21.456 26.6263 21.088C26.6263 19.84 26.6743 19.144 26.7703 19C26.8663 18.856 27.1623 18.784 27.6583 18.784C28.5863 18.784 29.5463 18.632 30.5383 18.328ZM31.0423 19.768L30.2983 19.72C30.0263 19.72 29.7383 19.744 29.4343 19.792C29.1303 19.824 28.8423 19.888 28.5703 19.984C28.3143 20.08 28.1303 20.176 28.0183 20.272C27.8423 20.416 27.7543 20.792 27.7543 21.4V22.312L28.8583 22.192C29.0503 22.16 29.3303 22.12 29.6983 22.072C30.0663 22.04 30.2983 22.016 30.3943 22C30.4583 22 30.5303 21.992 30.6103 21.976C30.7063 21.96 30.7783 21.952 30.8263 21.952C30.8903 21.952 30.9303 21.952 30.9463 21.952C31.0103 21.92 31.0423 21.544 31.0423 20.824V19.768ZM44.4589 9.04C44.7629 8.736 44.9709 8.552 45.0829 8.488C45.1949 8.424 45.3149 8.44 45.4429 8.536C45.6349 8.696 45.7229 8.848 45.7069 8.992C45.6909 9.12 45.5709 9.328 45.3469 9.616C45.1069 9.92 45.0189 10.128 45.0829 10.24C45.1469 10.352 45.8109 10.824 47.0749 11.656C47.6029 12.008 47.9949 12.28 48.2509 12.472C48.5069 12.664 48.6829 12.824 48.7789 12.952C48.8909 13.08 48.9469 13.208 48.9469 13.336C48.9469 13.816 48.6269 13.904 47.9869 13.6C47.5869 13.408 47.0269 13.064 46.3069 12.568C45.7789 12.232 45.3069 11.952 44.8909 11.728C44.4909 11.504 44.2589 11.408 44.1949 11.44C44.0349 11.488 43.7309 11.904 43.2829 12.688C42.8509 13.472 42.6029 14.032 42.5389 14.368C42.4749 14.704 42.2749 14.904 41.9389 14.968C41.6029 15.016 41.3629 14.904 41.2189 14.632C41.1389 14.456 41.1149 14.288 41.1469 14.128C41.1949 13.952 41.3149 13.688 41.5069 13.336C41.8749 12.648 42.3549 11.872 42.9469 11.008C43.5549 10.128 44.0589 9.472 44.4589 9.04ZM45.0109 15.76C45.3469 15.36 45.5709 15.432 45.6829 15.976C45.7629 16.344 45.8109 16.984 45.8269 17.896L45.8509 19.768L46.7869 19.792C48.0029 19.808 48.7629 19.84 49.0669 19.888C49.3869 19.92 49.5789 20.016 49.6429 20.176C49.7389 20.384 49.6269 20.6 49.3069 20.824C49.1309 20.968 48.9469 21.056 48.7549 21.088C48.5629 21.12 48.2269 21.112 47.7469 21.064C46.9949 21 45.8349 21.096 44.2669 21.352C43.6269 21.464 43.1309 21.544 42.7789 21.592C42.4429 21.64 42.1549 21.664 41.9149 21.664C41.6909 21.648 41.5469 21.608 41.4829 21.544C41.4189 21.464 41.3869 21.352 41.3869 21.208C41.3869 20.936 41.5069 20.744 41.7469 20.632C41.9869 20.504 42.4429 20.4 43.1149 20.32L44.3869 20.2L44.4829 18.664C44.5789 17.048 44.7549 16.08 45.0109 15.76ZM65.7529 11.128C65.9449 11.048 66.1449 11.016 66.3529 11.032C66.5609 11.032 66.6969 11.08 66.7609 11.176C66.8249 11.272 66.7849 12.224 66.6409 14.032C66.5129 15.664 66.4009 17.256 66.3049 18.808C66.2409 19.88 66.1369 20.568 65.9929 20.872C65.8649 21.16 65.6169 21.24 65.2489 21.112C65.0889 21.048 64.9929 20.736 64.9609 20.176C64.9449 19.6 65.0009 18.648 65.1289 17.32L65.2489 15.856L64.3849 15.952C63.7929 16.032 63.2249 16.192 62.6809 16.432L61.7689 16.792V18.784C61.7529 19.568 61.7209 20.104 61.6729 20.392C61.6249 20.664 61.5369 20.848 61.4089 20.944C60.8169 21.392 60.5289 21.16 60.5449 20.248C60.5769 18.552 60.6409 16.712 60.7369 14.728C60.8489 12.728 60.9449 11.656 61.0249 11.512C61.1049 11.336 61.2489 11.232 61.4569 11.2C61.6809 11.168 61.8969 11.224 62.1049 11.368C62.2009 11.432 62.2489 11.576 62.2489 11.8C62.2649 12.024 62.2249 12.48 62.1289 13.168C61.9689 14.256 61.9289 14.832 62.0089 14.896C62.0409 14.944 62.2169 14.952 62.5369 14.92C62.8729 14.888 63.2249 14.84 63.5929 14.776C63.9769 14.712 64.3369 14.64 64.6729 14.56C65.0249 14.464 65.2329 14.392 65.2969 14.344C65.4409 14.216 65.5129 13.664 65.5129 12.688C65.5129 11.712 65.5929 11.192 65.7529 11.128ZM55.3369 12.208C56.1529 12.048 56.6649 11.968 56.8729 11.968C57.0809 11.968 57.2569 12.048 57.4009 12.208C57.5289 12.368 57.5769 12.664 57.5449 13.096C57.5289 13.512 57.4329 14.288 57.2569 15.424C57.2409 15.552 57.1769 15.96 57.0649 16.648C56.9529 17.336 56.8729 17.848 56.8249 18.184C56.6969 19.16 56.5689 19.696 56.4409 19.792C56.3769 19.84 56.2569 19.864 56.0809 19.864C55.7289 19.864 55.5209 19.728 55.4569 19.456C55.4089 19.184 55.4649 18.6 55.6249 17.704C56.0569 15.336 56.2729 13.984 56.2729 13.648C56.2729 13.536 56.2569 13.456 56.2249 13.408C56.1929 13.344 56.1449 13.32 56.0809 13.336C55.9529 13.432 55.3209 13.568 54.1849 13.744C53.0649 13.92 52.3129 14.008 51.9289 14.008C51.4809 14.008 51.1769 13.912 51.0169 13.72C50.7289 13.384 51.0009 13.104 51.8329 12.88C52.0889 12.816 52.4089 12.752 52.7929 12.688C53.7049 12.544 54.5529 12.384 55.3369 12.208ZM69.0148 7.936C69.1748 7.728 69.3748 7.664 69.6148 7.744C69.7908 7.776 69.9028 7.912 69.9508 8.152C69.9988 8.376 70.0228 8.952 70.0228 9.88V11.968L70.8388 11.848C70.9828 11.816 71.2148 11.776 71.5348 11.728C71.8708 11.68 72.0868 11.648 72.1828 11.632C73.5908 11.424 74.5348 11.312 75.0148 11.296C75.2708 11.296 75.4228 11.328 75.4708 11.392C75.5348 11.44 75.5668 11.624 75.5668 11.944V12.592L74.4868 12.64C73.7028 12.656 72.7268 12.8 71.5588 13.072C70.3268 13.312 69.5988 13.424 69.3748 13.408C69.1668 13.376 68.9908 13.152 68.8468 12.736C68.7188 12.256 68.6708 11.384 68.7028 10.12C68.7508 8.856 68.8548 8.128 69.0148 7.936ZM75.8068 15.16C75.8228 15.144 75.9268 15.24 76.1188 15.448C76.4548 15.784 76.5028 16.112 76.2628 16.432C76.0388 16.736 75.6708 16.84 75.1588 16.744C74.7268 16.68 73.9668 16.736 72.8788 16.912C71.0388 17.232 69.8228 17.424 69.2308 17.488C68.6548 17.536 68.2948 17.48 68.1508 17.32C68.0388 17.208 67.9828 17.112 67.9828 17.032C67.9828 16.936 68.0548 16.784 68.1988 16.576C68.3268 16.352 68.4708 16.216 68.6308 16.168C68.7908 16.12 69.1108 16.096 69.5908 16.096C70.3428 16.096 71.1108 16.008 71.8948 15.832C72.7908 15.656 73.4948 15.568 74.0068 15.568C74.5508 15.536 74.9908 15.464 75.3268 15.352L75.8068 15.16ZM70.5028 19.12C70.6948 18.896 70.8148 18.776 70.8628 18.76C70.9108 18.744 71.0308 18.776 71.2228 18.856C71.3028 18.888 71.3588 18.952 71.3908 19.048C71.4388 19.144 71.4708 19.296 71.4868 19.504C71.5028 19.696 71.5108 19.976 71.5108 20.344C71.5108 21.272 71.5748 21.736 71.7028 21.736C71.8308 21.736 72.1268 21.64 72.5908 21.448C73.0068 21.304 73.7028 21.128 74.6788 20.92C75.6708 20.712 76.3348 20.608 76.6708 20.608C76.9588 20.608 77.1428 20.736 77.2228 20.992C77.2548 21.136 77.2548 21.264 77.2228 21.376C77.1908 21.488 77.1108 21.584 76.9828 21.664C76.8708 21.744 76.7108 21.808 76.5028 21.856C76.3108 21.904 76.0628 21.944 75.7588 21.976C75.0228 22.04 74.3268 22.216 73.6708 22.504C73.4308 22.616 73.1188 22.72 72.7348 22.816C72.3668 22.928 72.0468 22.992 71.7748 23.008C71.3428 23.056 71.0628 23.064 70.9348 23.032C70.8068 23 70.6868 22.888 70.5748 22.696C70.4308 22.392 70.3268 21.784 70.2628 20.872C70.2148 20.28 70.2068 19.88 70.2388 19.672C70.2708 19.464 70.3588 19.28 70.5028 19.12ZM166.722 9.832C166.802 9.624 166.922 9.512 167.082 9.496C167.242 9.48 167.402 9.568 167.562 9.76C167.722 9.952 167.77 10.52 167.706 11.464C167.61 12.392 167.618 12.88 167.73 12.928C167.81 12.992 168.218 12.968 168.954 12.856C169.578 12.76 170.01 12.76 170.25 12.856C170.506 12.952 170.61 13.168 170.562 13.504C170.546 13.664 170.482 13.776 170.37 13.84C170.274 13.904 170.098 13.944 169.842 13.96C169.41 13.992 168.85 14.072 168.162 14.2L167.154 14.416L167.226 15.856C167.258 16.832 167.226 17.392 167.13 17.536C167.034 17.696 166.834 17.776 166.53 17.776C166.242 17.76 166.074 17.68 166.026 17.536C165.946 17.328 166.01 16.104 166.218 13.864C166.426 11.608 166.594 10.264 166.722 9.832ZM161.058 9.952C161.682 9.792 162.242 9.72 162.738 9.736C163.234 9.752 163.546 9.864 163.674 10.072C163.754 10.216 163.738 10.416 163.626 10.672C163.514 10.912 163.25 11.344 162.834 11.968C162.626 12.256 162.466 12.488 162.354 12.664C162.258 12.84 162.154 13.016 162.042 13.192C161.946 13.368 161.906 13.512 161.922 13.624C161.938 13.736 161.954 13.856 161.97 13.984C162.002 14.096 162.082 14.216 162.21 14.344C162.354 14.472 162.498 14.592 162.642 14.704C162.786 14.816 162.994 14.968 163.266 15.16C163.65 15.4 163.882 15.672 163.962 15.976C164.058 16.28 163.97 16.48 163.698 16.576C163.522 16.656 163.186 16.552 162.69 16.264C162.21 15.96 161.794 15.608 161.442 15.208L160.842 14.56L160.194 15.304C159.762 15.784 159.442 16.224 159.234 16.624C159.09 16.896 158.962 17.064 158.85 17.128C158.738 17.192 158.554 17.208 158.298 17.176C157.882 17.128 157.658 17.016 157.626 16.84C157.61 16.712 158.042 16.08 158.922 14.944C159.818 13.808 160.642 12.84 161.394 12.04C161.746 11.656 161.922 11.416 161.922 11.32C161.89 11.256 161.73 11.232 161.442 11.248C161.17 11.248 160.802 11.296 160.338 11.392C159.89 11.472 159.45 11.576 159.018 11.704C158.186 11.944 157.634 12.072 157.362 12.088C157.106 12.104 156.946 12.024 156.882 11.848C156.738 11.496 156.874 11.192 157.29 10.936C157.706 10.664 158.37 10.472 159.282 10.36C159.938 10.248 160.53 10.112 161.058 9.952ZM165.69 18.472C165.754 18.456 165.818 18.448 165.882 18.448C165.962 18.432 166.026 18.424 166.074 18.424C166.138 18.408 166.194 18.392 166.242 18.376C166.306 18.36 166.346 18.352 166.362 18.352C166.506 18.352 166.674 18.464 166.866 18.688C167.074 18.928 167.194 19.784 167.226 21.256C167.258 22.36 167.25 23.016 167.202 23.224C167.17 23.432 167.042 23.584 166.818 23.68C166.466 23.808 166.218 23.72 166.074 23.416C165.946 23.128 165.882 22.528 165.882 21.616C165.882 20.688 165.802 20.152 165.642 20.008C165.498 19.848 165.042 19.864 164.274 20.056C163.346 20.28 162.69 20.416 162.306 20.464C161.938 20.512 161.706 20.488 161.61 20.392C161.402 20.232 161.322 20.048 161.37 19.84C161.418 19.616 161.562 19.448 161.802 19.336C162.25 19.096 163.546 18.808 165.69 18.472ZM180.476 9.136C180.668 8.864 180.948 8.84 181.316 9.064C181.476 9.16 181.532 10.4 181.484 12.784C181.468 13.856 181.444 14.64 181.412 15.136C181.38 15.632 181.34 15.984 181.292 16.192C181.244 16.384 181.172 16.52 181.076 16.6C180.692 16.872 180.444 16.72 180.332 16.144C180.268 15.792 180.228 15.256 180.212 14.536C180.18 13.288 180.116 12.632 180.02 12.568C179.892 12.504 179.396 12.584 178.532 12.808C177.812 12.984 177.316 13.032 177.044 12.952C176.772 12.856 176.636 12.6 176.636 12.184C176.636 12.184 176.636 12.176 176.636 12.16C176.636 11.92 176.716 11.768 176.876 11.704C177.052 11.64 177.628 11.536 178.604 11.392C178.684 11.392 178.748 11.384 178.796 11.368L180.428 11.152L180.38 10.24C180.348 9.664 180.38 9.296 180.476 9.136ZM174.812 9.496C175.02 9.256 175.236 9.144 175.46 9.16C175.684 9.16 175.812 9.288 175.844 9.544C175.892 9.752 175.724 10.16 175.34 10.768C174.956 11.36 174.764 11.712 174.764 11.824C174.764 11.952 174.956 12.224 175.34 12.64C175.724 13.04 176.188 13.456 176.732 13.888C177.644 14.656 177.9 15.208 177.5 15.544C177.148 15.816 176.364 15.336 175.148 14.104C174.588 13.528 174.244 13.24 174.116 13.24C173.988 13.24 173.812 13.464 173.588 13.912C173.364 14.344 173.204 14.784 173.108 15.232C173.044 15.568 172.972 15.784 172.892 15.88C172.828 15.96 172.66 16 172.388 16C171.876 16 171.676 15.736 171.788 15.208C171.9 14.76 172.252 13.992 172.844 12.904C173.564 11.576 174.004 10.736 174.164 10.384C174.324 10.064 174.54 9.768 174.812 9.496ZM177.596 17.536C178.492 17.232 179.292 17.408 179.996 18.064C180.508 18.512 180.836 18.992 180.98 19.504C181.124 20 181.124 20.616 180.98 21.352C180.932 21.656 180.868 21.904 180.788 22.096C180.724 22.288 180.636 22.456 180.524 22.6C180.428 22.76 180.292 22.92 180.116 23.08C179.284 23.784 178.364 23.944 177.356 23.56C176.54 23.256 175.924 22.792 175.508 22.168C175.092 21.544 174.94 20.872 175.052 20.152C175.26 18.904 176.108 18.032 177.596 17.536ZM179.396 19.216C179.14 18.944 178.828 18.792 178.46 18.76C178.092 18.712 177.748 18.752 177.428 18.88C177.124 19.008 176.852 19.224 176.612 19.528C176.388 19.816 176.276 20.136 176.276 20.488C176.276 21.176 176.572 21.728 177.164 22.144C177.772 22.56 178.364 22.608 178.94 22.288C179.42 22.032 179.708 21.552 179.804 20.848C179.916 20.128 179.78 19.584 179.396 19.216ZM185.542 9.616C185.51 9.088 185.51 8.776 185.542 8.68C185.59 8.584 185.734 8.536 185.974 8.536C186.646 8.536 186.894 9.248 186.718 10.672L186.598 11.752L187.414 11.728C188.038 11.712 188.51 11.664 188.83 11.584C189.022 11.536 189.214 11.52 189.406 11.536C189.598 11.536 189.766 11.568 189.91 11.632C190.054 11.68 190.174 11.76 190.27 11.872C190.382 11.984 190.454 12.104 190.486 12.232C190.534 12.552 190.454 12.76 190.246 12.856C190.054 12.952 189.75 12.944 189.334 12.832C188.902 12.72 188.438 12.728 187.942 12.856C187.446 13 186.822 13.104 186.07 13.168C185.27 13.264 184.694 13.392 184.342 13.552C184.006 13.728 183.638 13.816 183.238 13.816C183.014 13.816 182.862 13.792 182.782 13.744C182.718 13.68 182.686 13.552 182.686 13.36C182.686 13.056 182.79 12.84 182.998 12.712C183.206 12.568 183.654 12.432 184.342 12.304C184.934 12.176 185.278 12.072 185.374 11.992C185.486 11.912 185.55 11.704 185.566 11.368C185.566 10.6 185.558 10.016 185.542 9.616ZM195.238 11.968C195.286 11.808 195.486 11.752 195.838 11.8L196.342 11.848L196.294 13.24C196.246 14.12 196.166 15.224 196.054 16.552C195.91 17.816 195.886 18.856 195.982 19.672C196.03 20.264 196.038 20.632 196.006 20.776C195.99 20.904 195.87 21.016 195.646 21.112C195.342 21.256 195.118 21.28 194.974 21.184C194.846 21.088 194.766 20.4 194.734 19.12C194.702 18.032 194.622 17.392 194.494 17.2C194.382 16.992 194.07 17.008 193.558 17.248L192.982 17.56L193.078 19.12C193.142 19.776 193.158 20.216 193.126 20.44C193.11 20.664 193.038 20.824 192.91 20.92C192.526 21.224 192.198 21.224 191.926 20.92C191.782 20.712 191.742 19.392 191.806 16.96C191.854 15.136 191.926 13.936 192.022 13.36C192.118 12.784 192.302 12.496 192.574 12.496C192.846 12.496 193.03 12.648 193.126 12.952C193.222 13.24 193.262 13.728 193.246 14.416L193.174 15.808L193.726 15.856C194.078 15.888 194.334 15.856 194.494 15.76C194.67 15.664 194.798 15.472 194.878 15.184C194.958 14.896 195.022 14.44 195.07 13.816C195.134 12.712 195.19 12.096 195.238 11.968ZM185.998 14.536C186.382 14.312 186.734 14.208 187.054 14.224C187.39 14.224 187.806 14.36 188.302 14.632C189.486 15.224 190.11 16.104 190.174 17.272C190.206 17.704 190.19 18.032 190.126 18.256C190.078 18.464 189.91 18.776 189.622 19.192C189.19 19.848 188.79 20.296 188.422 20.536C188.054 20.76 187.598 20.864 187.054 20.848C185.79 20.8 184.87 20.352 184.294 19.504C183.734 18.64 183.702 17.648 184.198 16.528C184.406 16.016 184.646 15.616 184.918 15.328C185.19 15.024 185.55 14.76 185.998 14.536ZM188.062 15.712C187.694 15.568 187.382 15.512 187.126 15.544C186.886 15.576 186.598 15.712 186.262 15.952C185.894 16.192 185.606 16.544 185.398 17.008C185.19 17.472 185.134 17.88 185.23 18.232C185.294 18.536 185.414 18.8 185.59 19.024C185.766 19.232 185.974 19.392 186.214 19.504C186.454 19.616 186.718 19.672 187.006 19.672C187.31 19.672 187.542 19.632 187.702 19.552C187.862 19.472 188.062 19.288 188.302 19C188.702 18.536 188.934 18.112 188.998 17.728C189.078 17.36 189.014 16.96 188.806 16.528C188.598 16.096 188.35 15.824 188.062 15.712ZM208.101 9.424C209.653 9.248 210.637 9.16 211.053 9.16C211.469 9.144 211.733 9.208 211.845 9.352C211.957 9.496 211.957 9.68 211.845 9.904C211.749 10.112 211.461 10.544 210.981 11.2L210.357 12.016L210.789 12.352C211.077 12.576 211.269 12.688 211.365 12.688C211.445 12.688 211.741 12.848 212.253 13.168C212.749 13.52 212.997 13.832 212.997 14.104C212.997 14.744 212.381 14.688 211.149 13.936C210.877 13.76 210.685 13.64 210.573 13.576C210.461 13.512 210.317 13.44 210.141 13.36C209.965 13.28 209.845 13.232 209.781 13.216C209.733 13.184 209.637 13.176 209.493 13.192C209.349 13.208 209.253 13.232 209.205 13.264C209.173 13.296 209.085 13.368 208.941 13.48C208.813 13.576 208.709 13.672 208.629 13.768C208.549 13.848 208.421 13.992 208.245 14.2C207.829 14.648 207.517 14.952 207.309 15.112C207.101 15.272 206.917 15.336 206.757 15.304C206.245 15.224 206.141 14.936 206.445 14.44C206.685 14.072 207.205 13.488 208.005 12.688C209.445 11.248 210.021 10.496 209.733 10.432C209.701 10.416 209.669 10.408 209.637 10.408C209.525 10.408 208.757 10.544 207.333 10.816C206.421 10.976 205.813 11.064 205.509 11.08C205.221 11.096 205.021 11.048 204.909 10.936C204.733 10.76 204.685 10.568 204.765 10.36C204.861 10.136 205.045 9.976 205.317 9.88C205.541 9.784 206.469 9.632 208.101 9.424ZM212.085 16.912C212.437 16.72 212.757 16.656 213.045 16.72C213.349 16.784 213.557 16.968 213.669 17.272C213.765 17.512 213.781 17.704 213.717 17.848C213.653 17.976 213.509 18.072 213.285 18.136C213.077 18.184 212.773 18.192 212.373 18.16C211.685 18.144 211.293 18.216 211.197 18.376C211.085 18.552 211.029 19.36 211.029 20.8C211.029 21.872 211.005 22.504 210.957 22.696C210.925 22.888 210.797 23 210.573 23.032C210.269 23.08 210.069 23.016 209.973 22.84C209.845 22.632 209.805 21.88 209.853 20.584C209.869 19.24 209.853 18.528 209.805 18.448C209.757 18.4 209.221 18.44 208.197 18.568C206.901 18.728 206.101 18.8 205.797 18.784C205.493 18.768 205.325 18.64 205.293 18.4C205.277 18.304 205.309 18.184 205.389 18.04C205.469 17.896 205.557 17.776 205.653 17.68C205.861 17.504 206.229 17.384 206.757 17.32C207.301 17.256 208.421 17.216 210.117 17.2C211.141 17.168 211.797 17.072 212.085 16.912ZM218.224 11.704C218.4 11.48 218.576 11.368 218.752 11.368C219.28 11.368 219.28 11.88 218.752 12.904C218.72 12.968 218.688 13.024 218.656 13.072C218.256 13.792 218.056 14.28 218.056 14.536C218.056 14.728 218.464 15.336 219.28 16.36C220.656 17.992 220.912 18.776 220.048 18.712C220.032 18.712 220.016 18.704 220 18.688C219.664 18.656 219.16 18.192 218.488 17.296C217.8 16.416 217.4 15.96 217.288 15.928C217.192 15.896 217.032 16.112 216.808 16.576C216.6 17.04 216.456 17.504 216.376 17.968C216.312 18.256 216.24 18.44 216.16 18.52C216.096 18.6 215.952 18.64 215.728 18.64C215.216 18.64 214.952 18.488 214.936 18.184C214.92 17.864 215.144 17.248 215.608 16.336C216.888 13.792 217.76 12.248 218.224 11.704ZM223.912 11.656C224.056 11.48 224.184 11.392 224.296 11.392C224.408 11.392 224.568 11.488 224.776 11.68C224.968 11.872 225.024 12.08 224.944 12.304C224.832 12.528 224.744 13.872 224.68 16.336C224.648 18.096 224.608 19.168 224.56 19.552C224.528 19.92 224.424 20.152 224.248 20.248C223.896 20.44 223.664 20.36 223.552 20.008C223.472 19.688 223.424 18.928 223.408 17.728C223.376 16.192 223.288 15.408 223.144 15.376C223 15.328 222.624 15.4 222.016 15.592C220.72 16.024 220.008 15.992 219.88 15.496C219.816 15.24 219.816 15.032 219.88 14.872C219.928 14.728 220.248 14.584 220.84 14.44C221.432 14.28 222.048 14.176 222.688 14.128L223.432 14.104L223.552 13.024C223.648 12.272 223.768 11.816 223.912 11.656ZM227.104 11.704C227.104 11.624 227.184 11.576 227.344 11.56C227.504 11.544 227.672 11.568 227.848 11.632C228.024 11.68 228.152 11.752 228.232 11.848C228.392 12.04 228.432 12.336 228.352 12.736C228.288 13.12 228.248 14.488 228.232 16.84C228.216 17.784 228.192 18.512 228.16 19.024C228.144 19.52 228.104 19.928 228.04 20.248C227.976 20.568 227.896 20.776 227.8 20.872C227.704 20.952 227.56 20.992 227.368 20.992C227.16 20.992 227.032 20.688 226.984 20.08C226.936 19.472 226.944 18.104 227.008 15.976C227.008 15.672 227.008 15.36 227.008 15.04C227.024 14.72 227.032 14.424 227.032 14.152C227.048 13.88 227.056 13.616 227.056 13.36C227.072 13.104 227.08 12.88 227.08 12.688C227.096 12.496 227.104 12.328 227.104 12.184C227.104 12.04 227.104 11.928 227.104 11.848C227.104 11.752 227.104 11.704 227.104 11.704ZM231.936 8.68C232.512 8.472 233.064 8.408 233.592 8.488C234.136 8.552 234.64 8.768 235.104 9.136C235.584 9.504 235.976 10 236.28 10.624C236.584 11.216 236.728 11.768 236.712 12.28C236.712 12.792 236.552 13.36 236.232 13.984C235.976 14.496 235.672 14.88 235.32 15.136C234.968 15.376 234.52 15.536 233.976 15.616C233.064 15.744 232.2 15.568 231.384 15.088C230.568 14.608 230.048 13.992 229.824 13.24C229.504 12.216 229.536 11.304 229.92 10.504C230.304 9.704 230.976 9.096 231.936 8.68ZM233.88 9.664C233.72 9.664 233.544 9.632 233.352 9.568C233.064 9.472 232.608 9.648 231.984 10.096C231.36 10.544 230.984 10.976 230.856 11.392C230.808 11.552 230.8 11.744 230.832 11.968C230.864 12.176 230.92 12.392 231 12.616C231.08 12.824 231.184 13.032 231.312 13.24C231.456 13.448 231.608 13.624 231.768 13.768C232.376 14.312 232.992 14.56 233.616 14.512C234.24 14.464 234.736 14.136 235.104 13.528C235.696 12.568 235.6 11.568 234.816 10.528C234.352 9.952 234.04 9.664 233.88 9.664ZM234.888 17.128C235.016 16.824 235.176 16.672 235.368 16.672C235.576 16.656 235.752 16.808 235.896 17.128C236.024 17.432 236.008 17.96 235.848 18.712C235.688 19.432 235.656 19.872 235.752 20.032C235.832 20.176 236.312 20.248 237.192 20.248C237.8 20.248 238.176 20.272 238.32 20.32C238.48 20.352 238.6 20.464 238.68 20.656C238.792 20.992 238.752 21.224 238.56 21.352C238.384 21.48 237.984 21.536 237.36 21.52C236.864 21.504 236.248 21.536 235.512 21.616C234.792 21.68 234.28 21.752 233.976 21.832C233.832 21.88 233.464 21.952 232.872 22.048C232.296 22.16 231.728 22.264 231.168 22.36C230.608 22.456 230.272 22.504 230.16 22.504C229.968 22.504 229.824 22.376 229.728 22.12C229.632 21.864 229.656 21.648 229.8 21.472C229.928 21.312 230.24 21.192 230.736 21.112L231.432 21.016V19.48C231.448 18.632 231.512 18.096 231.624 17.872C231.736 17.632 231.976 17.56 232.344 17.656C232.568 17.72 232.696 17.824 232.728 17.968C232.776 18.096 232.792 18.496 232.776 19.168L232.728 20.512L233.664 20.584C234.256 20.616 234.552 20.584 234.552 20.488C234.552 20.056 234.568 19.6 234.6 19.12C234.648 18.64 234.696 18.224 234.744 17.872C234.808 17.52 234.856 17.272 234.888 17.128Z" fill="black"/>
<path d="M87.2633 11.848C87.3433 11.992 87.3913 12.12 87.4073 12.232C87.4233 12.328 87.4233 12.416 87.4073 12.496C87.3593 12.624 87.3033 13.488 87.2393 15.088C87.1753 16.864 87.1273 18.16 87.0953 18.976C87.0633 20.016 87.0873 20.656 87.1673 20.896C87.1833 20.976 87.1913 21.048 87.1913 21.112C87.2073 21.16 87.2153 21.208 87.2153 21.256C87.1993 21.336 87.1273 21.48 86.9993 21.688C86.9033 21.816 86.8153 21.92 86.7353 22C86.6553 22.096 86.5753 22.16 86.4953 22.192C86.3673 22.288 86.2473 22.288 86.1353 22.192C86.0233 22.128 85.9193 21.984 85.8232 21.76C85.7753 21.648 85.7353 21.448 85.7033 21.16C85.6713 20.872 85.6473 20.512 85.6313 20.08C85.6153 19.184 85.6633 18.624 85.7753 18.4C85.8553 18.208 85.9273 17.352 85.9913 15.832C86.0073 14.952 86.0313 14.232 86.0633 13.672C86.0953 13.112 86.1193 12.704 86.1353 12.448C86.1993 11.936 86.2953 11.608 86.4233 11.464C86.4713 11.416 86.5273 11.376 86.5913 11.344C86.8153 11.216 87.0393 11.384 87.2633 11.848ZM91.2238 11.968C91.3358 11.936 91.5278 11.912 91.7998 11.896C92.0878 11.864 92.4478 11.848 92.8798 11.848C93.7598 11.848 94.3278 11.888 94.5838 11.968C94.6958 12 94.7998 12.04 94.8958 12.088C94.9918 12.12 95.0798 12.16 95.1598 12.208C95.2398 12.24 95.3118 12.288 95.3758 12.352C95.4238 12.384 95.4718 12.416 95.5198 12.448C95.5838 12.48 95.6398 12.512 95.6878 12.544C95.7358 12.576 95.7838 12.608 95.8318 12.64C95.8958 12.672 95.9518 12.704 95.9998 12.736C96.0638 12.752 96.1198 12.776 96.1678 12.808C96.2478 12.856 96.3198 12.904 96.3838 12.952C96.4638 12.984 96.5278 13.024 96.5758 13.072C96.6878 13.152 96.7918 13.256 96.8878 13.384C96.9998 13.496 97.1038 13.624 97.1998 13.768C97.1998 13.8 97.2078 13.824 97.2238 13.84C97.2398 13.856 97.2478 13.88 97.2478 13.912C97.2638 13.928 97.2798 13.952 97.2958 13.984C97.3118 14 97.3278 14.024 97.3438 14.056C97.3598 14.072 97.3678 14.096 97.3678 14.128C97.3838 14.16 97.3998 14.192 97.4158 14.224C97.4318 14.256 97.4478 14.288 97.4638 14.32C97.4798 14.352 97.4958 14.384 97.5118 14.416C97.7358 14.848 97.8558 15.168 97.8718 15.376C97.8718 15.472 97.8558 15.656 97.8238 15.928C97.8078 16.2 97.7678 16.552 97.7038 16.984C97.5758 17.912 97.3358 18.72 96.9838 19.408C96.4238 20.496 95.9038 21.24 95.4238 21.64C95.1838 21.848 94.9118 22 94.6078 22.096C94.3038 22.208 93.9758 22.264 93.6238 22.264C93.0958 22.264 92.6798 22.208 92.3758 22.096C92.0558 22 91.8078 21.952 91.6318 21.952C91.6158 21.952 91.5918 21.952 91.5598 21.952C91.5278 21.936 91.4878 21.92 91.4398 21.904C91.4078 21.872 91.3598 21.848 91.2958 21.832C91.2478 21.8 91.1918 21.768 91.1278 21.736C91.0638 21.688 90.9918 21.64 90.9118 21.592C90.5438 21.368 90.2158 21.112 89.9278 20.824C89.5598 20.504 89.2078 19.968 88.8718 19.216C88.5358 18.464 88.3678 17.864 88.3678 17.416C88.3678 16.92 88.5038 16.376 88.7758 15.784C89.0478 15.192 89.3678 14.704 89.7358 14.32C90.1038 13.968 90.2878 13.752 90.2878 13.672C90.2878 13.576 90.1838 13.416 89.9758 13.192L89.7118 12.88L89.9998 12.592C90.1918 12.384 90.3918 12.256 90.5998 12.208L90.7678 12.136C90.8638 12.104 90.9518 12.072 91.0318 12.04C91.0638 12.04 91.0878 12.04 91.1038 12.04C91.1358 12.024 91.1598 12.016 91.1758 12.016C91.1918 12 91.2078 11.984 91.2238 11.968ZM94.9198 13.432C94.3758 13.16 93.7598 13.088 93.0718 13.216C92.7358 13.248 92.3758 13.464 91.9918 13.864C91.6718 14.184 91.4238 14.424 91.2478 14.584C91.0078 14.824 90.8078 15.048 90.6478 15.256C90.4878 15.448 90.3758 15.616 90.3118 15.76C90.2318 15.904 90.1518 16.184 90.0718 16.6C89.9918 17 89.9518 17.32 89.9518 17.56C89.9518 17.624 89.9518 17.688 89.9518 17.752C89.9518 17.816 89.9518 17.88 89.9518 17.944C89.9678 18.008 89.9838 18.072 89.9998 18.136C90.0158 18.2 90.0318 18.264 90.0478 18.328C90.0638 18.392 90.0798 18.456 90.0958 18.52C90.1118 18.584 90.1278 18.648 90.1438 18.712C90.1758 18.776 90.2078 18.848 90.2398 18.928C90.2718 18.992 90.3038 19.056 90.3358 19.12C90.5918 19.648 90.8798 19.992 91.1998 20.152C92.0478 20.584 92.8478 20.8 93.5998 20.8H94.4398H94.4638V20.776L94.8958 20.296C95.0078 20.184 95.1038 20.056 95.1838 19.912C95.2798 19.768 95.3598 19.616 95.4238 19.456C95.5038 19.296 95.5758 19.12 95.6398 18.928C95.6718 18.816 95.7038 18.712 95.7358 18.616C95.7678 18.504 95.7998 18.408 95.8318 18.328C95.8638 18.232 95.8958 18.144 95.9278 18.064C95.9598 17.984 95.9838 17.912 95.9998 17.848C96.0318 17.784 96.0638 17.72 96.0958 17.656C96.2398 17.384 96.3118 16.824 96.3118 15.976V14.728L95.8318 14.176C95.7838 14.128 95.7358 14.088 95.6878 14.056C95.6558 14.008 95.6158 13.968 95.5678 13.936C95.5358 13.904 95.4958 13.872 95.4478 13.84C95.4158 13.792 95.3758 13.76 95.3278 13.744C95.2958 13.712 95.2638 13.68 95.2318 13.648C95.1998 13.616 95.1598 13.592 95.1118 13.576C95.0798 13.544 95.0478 13.52 95.0158 13.504C94.9838 13.488 94.9518 13.464 94.9198 13.432ZM110.251 11.248C110.395 11.088 110.539 11.008 110.683 11.008C110.955 11.008 111.123 11.168 111.187 11.488C111.251 11.792 111.259 12.464 111.211 13.504L111.115 15.592L112.699 15.472C113.547 15.408 114.131 15.424 114.451 15.52C114.771 15.6 114.931 15.792 114.931 16.096C114.931 16.304 114.803 16.44 114.547 16.504C114.307 16.568 113.659 16.64 112.603 16.72C111.595 16.784 111.075 16.84 111.043 16.888C110.995 16.936 110.963 17.616 110.947 18.928C110.915 19.872 110.875 20.448 110.827 20.656C110.779 20.848 110.643 21 110.419 21.112C110.211 21.224 110.059 21.272 109.963 21.256C109.883 21.24 109.795 21.16 109.699 21.016C109.523 20.808 109.483 20.488 109.579 20.056C109.739 18.952 109.875 16.808 109.987 13.624C110.035 12.2 110.123 11.408 110.251 11.248ZM102.403 12.04C103.891 11.848 104.843 11.76 105.259 11.776C105.675 11.776 105.883 11.896 105.883 12.136C105.883 12.44 105.763 12.832 105.523 13.312C105.299 13.792 105.003 14.264 104.635 14.728C104.283 15.128 104.083 15.392 104.035 15.52C104.003 15.648 104.059 15.824 104.203 16.048C104.363 16.336 104.739 16.712 105.331 17.176C106.195 17.832 106.547 18.376 106.387 18.808C106.275 19.096 106.043 19.192 105.691 19.096C105.355 18.984 104.979 18.696 104.563 18.232C104.019 17.704 103.683 17.336 103.555 17.128C103.459 16.936 103.331 16.84 103.171 16.84C103.011 16.84 102.707 17.104 102.259 17.632C101.827 18.16 101.587 18.552 101.539 18.808C101.475 19.064 101.331 19.248 101.107 19.36C100.899 19.472 100.651 19.488 100.363 19.408C99.6586 19.248 99.7306 18.688 100.579 17.728C100.819 17.456 101.299 16.88 102.019 16C102.515 15.36 102.899 14.92 103.171 14.68C103.475 14.36 103.707 14.056 103.867 13.768C104.027 13.528 104.107 13.376 104.107 13.312C104.123 13.248 104.059 13.192 103.915 13.144C103.707 13.048 102.947 13.136 101.635 13.408C101.027 13.536 100.507 13.64 100.075 13.72C99.6586 13.784 99.4026 13.816 99.3066 13.816C99.0666 13.816 98.9146 13.728 98.8506 13.552C98.7866 13.36 98.8346 13.144 98.9946 12.904C99.1386 12.696 99.4186 12.544 99.8346 12.448C100.251 12.336 101.107 12.2 102.403 12.04ZM125.767 11.68C126.631 11.232 127.575 11.368 128.599 12.088C129.431 12.648 130.023 13.344 130.375 14.176C130.727 14.992 130.791 15.824 130.567 16.672C130.423 17.264 130.215 17.704 129.943 17.992C129.687 18.28 129.271 18.544 128.695 18.784C128.135 19.024 127.623 19.144 127.159 19.144C126.775 19.16 126.359 19.088 125.911 18.928C125.463 18.768 125.047 18.544 124.663 18.256C124.295 17.968 123.999 17.664 123.775 17.344C123.551 16.992 123.415 16.712 123.367 16.504C123.319 16.28 123.311 15.92 123.343 15.424C123.391 14.656 123.519 14.088 123.727 13.72C123.919 13.352 124.215 12.968 124.615 12.568C125.015 12.168 125.399 11.872 125.767 11.68ZM127.999 13.072C127.535 12.736 127.151 12.584 126.847 12.616C126.543 12.632 126.175 12.832 125.743 13.216C125.103 13.824 124.727 14.448 124.615 15.088C124.519 15.712 124.703 16.304 125.167 16.864C125.711 17.52 126.375 17.856 127.159 17.872C127.959 17.872 128.615 17.536 129.127 16.864C129.287 16.672 129.391 16.48 129.439 16.288C129.487 16.08 129.495 15.776 129.463 15.376C129.415 14.864 129.287 14.448 129.079 14.128C128.871 13.792 128.511 13.44 127.999 13.072ZM133.231 11.872C133.295 11.76 133.479 11.72 133.783 11.752C134.087 11.784 134.247 11.856 134.263 11.968C134.295 12.24 134.231 14.464 134.071 18.64L133.927 21.64H133.375C133.215 21.64 133.103 21.64 133.039 21.64C132.975 21.624 132.919 21.584 132.871 21.52C132.823 21.44 132.791 21.352 132.775 21.256C132.775 21.144 132.767 20.96 132.751 20.704C132.719 20.176 132.767 18.6 132.895 15.976C133.039 13.352 133.151 11.984 133.231 11.872ZM144.051 9.184C144.115 9.008 144.259 8.92 144.483 8.92C144.803 8.92 145.003 9.048 145.083 9.304C145.163 9.544 145.147 10.04 145.035 10.792C144.923 11.688 144.931 12.208 145.059 12.352C145.203 12.48 145.699 12.464 146.547 12.304C147.299 12.176 147.803 12.144 148.059 12.208C148.315 12.256 148.443 12.432 148.443 12.736C148.443 12.944 148.387 13.08 148.275 13.144C148.179 13.208 147.939 13.264 147.555 13.312C146.963 13.376 146.347 13.512 145.707 13.72L144.747 14.032L144.843 15.352L144.939 16.648H144.315C143.915 16.648 143.675 16.552 143.595 16.36C143.531 16.2 143.563 15.016 143.691 12.808C143.835 10.6 143.955 9.392 144.051 9.184ZM138.459 10.024C138.779 9.656 139.067 9.4 139.323 9.256C139.595 9.112 139.779 9.08 139.875 9.16C139.987 9.24 139.995 9.424 139.899 9.712C139.803 10 139.603 10.344 139.299 10.744C138.851 11.272 138.627 11.624 138.627 11.8C138.627 11.864 138.723 11.984 138.915 12.16C139.107 12.32 139.323 12.48 139.563 12.64C140.843 13.504 141.483 14.2 141.483 14.728C141.483 15.512 140.979 15.448 139.971 14.536C139.587 14.152 139.171 13.816 138.723 13.528C138.275 13.224 137.971 13.072 137.811 13.072C137.715 13.072 137.531 13.368 137.259 13.96C136.987 14.552 136.827 15.008 136.779 15.328C136.731 15.632 136.659 15.824 136.563 15.904C136.483 15.968 136.323 16 136.083 16C135.843 16 135.683 15.968 135.603 15.904C135.523 15.84 135.475 15.704 135.459 15.496C135.411 15.096 135.715 14.296 136.371 13.096C137.043 11.896 137.739 10.872 138.459 10.024ZM141.315 17.776C141.875 17.568 142.331 17.488 142.683 17.536C143.035 17.568 143.459 17.744 143.955 18.064C145.043 18.784 145.515 19.824 145.371 21.184C145.323 21.792 145.195 22.272 144.987 22.624C144.779 22.976 144.427 23.312 143.931 23.632C143.659 23.808 143.419 23.912 143.211 23.944C143.019 23.992 142.715 23.992 142.299 23.944C141.627 23.864 141.099 23.736 140.715 23.56C140.347 23.4 139.987 23.12 139.635 22.72C139.107 22.112 138.851 21.424 138.867 20.656C138.883 19.872 139.171 19.216 139.731 18.688C140.083 18.32 140.611 18.016 141.315 17.776ZM143.715 19.384C143.059 18.728 142.267 18.632 141.339 19.096C140.891 19.304 140.579 19.536 140.403 19.792C140.227 20.048 140.139 20.4 140.139 20.848C140.139 21.088 140.203 21.336 140.331 21.592C140.475 21.832 140.659 22.048 140.883 22.24C141.123 22.432 141.363 22.56 141.603 22.624C141.955 22.72 142.355 22.712 142.803 22.6C143.267 22.488 143.595 22.328 143.787 22.12C144.091 21.816 144.235 21.368 144.219 20.776C144.203 20.168 144.035 19.704 143.715 19.384Z" fill="#F49393"/>
<path d="M27.2495 36.7422H26.2466V39.6875H23.9741V40.5127H26.2466V43.4707H27.2495V36.7422ZM17.9438 42.5693L18.4644 43.3691C19.8101 42.855 20.8574 41.8013 21.3398 40.481C21.8286 41.6426 22.8125 42.5947 24.0757 43.0518L24.5962 42.252C22.9458 41.687 21.8159 40.2842 21.8159 38.8115V38.4053H24.3423V37.5674H18.2612V38.4053H20.813V38.8242C20.813 40.4365 19.6196 41.9663 17.9438 42.5693ZM19.7212 45.9209C19.7148 47.2539 21.1558 48.0156 23.5044 48.0283C25.8467 48.0156 27.2876 47.2539 27.2876 45.9209C27.2876 44.5942 25.8467 43.8198 23.5044 43.8262C21.1558 43.8198 19.7148 44.5942 19.7212 45.9209ZM20.7114 45.9209C20.7051 45.0957 21.7715 44.6006 23.5044 44.6006C25.231 44.6006 26.2974 45.0957 26.2974 45.9209C26.2974 46.7397 25.231 47.2349 23.5044 47.2285C21.7715 47.2349 20.7051 46.7397 20.7114 45.9209ZM33.0132 38.5195V37.3896H32.0229V38.5576C32.0103 40.3096 30.855 41.8076 29.1157 42.417L29.6616 43.2295C31.0264 42.7153 32.0547 41.668 32.5371 40.3159C33.0259 41.5029 34.0034 42.4233 35.2476 42.8867L35.8062 42.1123C34.1494 41.5474 33.0005 40.1318 33.0132 38.5195ZM30.9565 45.8955C30.9502 47.2412 32.3911 48.0029 34.7397 48.0029C37.082 48.0029 38.5229 47.2412 38.5229 45.8955C38.5229 44.5371 37.082 43.7563 34.7397 43.7627C32.3911 43.7563 30.9502 44.5371 30.9565 45.8955ZM31.9468 45.8955C31.9404 45.0513 33.0068 44.5498 34.7397 44.5498C36.4663 44.5498 37.5327 45.0513 37.5327 45.8955C37.5327 46.7144 36.4663 47.2095 34.7397 47.2031C33.0068 47.2095 31.9404 46.7144 31.9468 45.8955ZM34.9683 39.9922H37.4819V43.4326H38.4849V36.7422H37.4819V39.167H34.9683V39.9922ZM45.9878 38.4053V37.542H44.9468V38.4053C44.9404 40.3477 42.7505 42.0552 40.7954 42.4297L41.2524 43.2676C42.96 42.8677 44.7437 41.6616 45.48 40.0049C46.21 41.6616 48 42.874 49.7075 43.2676L50.1646 42.4297C48.2031 42.0615 45.9941 40.3413 45.9878 38.4053ZM40.3638 46.4922H50.6978V45.667H40.3638V46.4922ZM60.9429 36.7422H59.9526V41.084H57.7563V41.9219H59.9526V48.0537H60.9429V36.7422ZM51.9927 38.6211H56.106V40.9189H52.0308V45.3369H52.894C54.938 45.3306 56.4043 45.2607 58.0991 44.9561L58.0229 44.1182C56.3789 44.4229 54.9697 44.4863 53.021 44.4863V41.7441H57.0708V37.7959H51.9927V38.6211ZM73.1558 42.4805H62.8218V43.3057H67.5698V45.6162H68.5728V43.3057H73.1558V42.4805ZM63.9897 39.3066C63.9834 40.6968 65.564 41.5601 67.9761 41.5537C70.3882 41.5601 71.9497 40.6968 71.9497 39.3066C71.9497 37.9038 70.3882 37.0405 67.9761 37.0342C65.564 37.0405 63.9834 37.9038 63.9897 39.3066ZM64.1548 47.7871H72.0005V46.9365H65.1577V44.4863H64.1548V47.7871ZM65.0562 39.3066C65.0435 38.4053 66.2178 37.853 67.9761 37.8467C69.728 37.853 70.896 38.4053 70.896 39.3066C70.896 40.1826 69.728 40.7412 67.9761 40.7412C66.2178 40.7412 65.0435 40.1826 65.0562 39.3066ZM87.6665 45.7305H82.9312V42.9629H81.9536V45.7305H77.3325V46.5557H87.6665V45.7305ZM77.7388 42.2646L78.1831 43.0898C79.9097 42.7344 81.7061 41.5664 82.4487 39.9478C83.1787 41.5728 84.9941 42.7344 86.7144 43.0898L87.1587 42.2646C85.1909 41.9282 82.9629 40.2651 82.9565 38.3799V37.5166H81.9155V38.3799C81.9092 40.2778 79.7129 41.9282 77.7388 42.2646ZM98.2036 36.7422H97.2261V41.2998H95.6646V37.0469H94.7124V47.4697H95.6646V42.125H97.2261V48.0283H98.2036V36.7422ZM88.5806 44.9053L89.1646 45.6035C92.4082 43.7944 93.4175 41.084 93.4302 38.2148H89.0122V39.04H92.4526C92.2812 41.376 91.2021 43.439 88.5806 44.9053ZM108.779 37.2373H101.111V38.0498H107.789C107.795 38.7925 107.782 39.7129 107.522 40.9697H99.8032V41.7695H110.137V40.9697H108.525C108.779 39.7002 108.779 38.7227 108.779 37.9609V37.2373ZM101.035 43.7119H107.827V44.9688H101.047V47.9014H109.109V47.0889H102.05V45.7559H108.817V42.9121H101.035V43.7119ZM120.344 36.7422H119.341V48.0537H120.344V36.7422ZM111.458 41.5537C111.464 43.9595 112.657 45.4829 114.339 45.4766C116.015 45.4829 117.228 43.9595 117.221 41.5537C117.228 39.1543 116.015 37.6245 114.339 37.6182C112.657 37.6245 111.464 39.1543 111.458 41.5537ZM112.422 41.5537C112.422 39.7192 113.209 38.5132 114.339 38.5068C115.476 38.5132 116.256 39.7192 116.256 41.5537C116.256 43.3882 115.476 44.5942 114.339 44.5879C113.209 44.5942 112.422 43.3882 112.422 41.5537ZM135.21 36.7422H134.246V41.2236H132.671V36.9834H131.719V47.457H132.671V42.0488H134.246V48.0283H135.21V36.7422ZM125.956 44.9941H130.272V38.0625H125.956V44.9941ZM126.895 44.1943V38.8623H129.333V44.1943H126.895ZM140.873 39.1035V38.9512H143.462V38.1514H140.885V36.7422H139.882V38.1514H137.28V38.9512H139.882V39.1035C139.882 40.6523 138.676 42.0361 137 42.5693L137.496 43.3564C138.854 42.9058 139.908 41.9346 140.403 40.6904C140.917 41.814 141.99 42.6772 143.323 43.0645L143.792 42.29C142.104 41.8013 140.866 40.5381 140.873 39.1035ZM138.511 45.9463C138.505 47.2603 139.939 48.0029 142.32 48.0029C144.681 48.0029 146.116 47.2603 146.128 45.9463C146.116 44.6577 144.681 43.9023 142.32 43.915C139.939 43.9023 138.505 44.6577 138.511 45.9463ZM139.514 45.9463C139.514 45.1782 140.562 44.7021 142.32 44.7021C144.072 44.7021 145.138 45.1782 145.138 45.9463C145.138 46.7461 144.072 47.2158 142.32 47.2158C140.562 47.2158 139.514 46.7461 139.514 45.9463ZM145.1 43.6738H146.09V36.7549H145.1V43.6738ZM158.329 41.8965H147.995V42.6709H150.8V43.6992H149.239V44.4355H156.043V45.4004H149.251V47.9014H157.402V47.1777H150.254V46.0986H157.034V43.6992H155.536V42.6709H158.329V41.8965ZM149.302 37.7959H155.993V38.7354H149.34V41.0967H157.199V40.373H150.331V39.4082H156.996V37.085H149.302V37.7959ZM151.778 43.6992V42.6709H154.545V43.6992H151.778ZM164.384 36.9453C161.864 36.9453 160.385 37.6372 160.385 38.8877C160.385 40.1699 161.864 40.8618 164.384 40.8682C166.892 40.8618 168.364 40.1699 168.371 38.8877C168.364 37.6372 166.892 36.9453 164.384 36.9453ZM159.243 42.4424H169.526V41.6299H159.243V42.4424ZM160.487 44.1816H167.228V45.21H160.512V47.9014H168.548V47.1143H161.502V45.9463H168.206V43.4199H160.487V44.1816ZM161.426 38.8877C161.414 38.145 162.512 37.7007 164.384 37.6943C166.257 37.7007 167.349 38.145 167.355 38.8877C167.349 39.6748 166.257 40.1064 164.384 40.1064C162.512 40.1064 161.414 39.6748 161.426 38.8877ZM182.881 39.6621H176.14V36.9961H175.15V40.4619H178.387V41.8965H173.741V42.7217H184.024V41.8965H179.377V40.4619H182.881V39.6621ZM174.794 47.876H182.983V47.0635H181.142V44.6514H182.894V43.8516H174.896V44.6514H176.635V47.0635H174.794V47.876ZM177.625 47.0635V44.6514H180.165V47.0635H177.625ZM188.01 37.6182C186.341 37.6245 185.173 39.1543 185.179 41.5537C185.173 43.9595 186.341 45.4829 188.01 45.4766C189.102 45.4829 189.978 44.8164 190.448 43.6738H193.342V48.0537H194.333V36.7422H193.342V39.2686H190.378C189.889 38.2275 189.045 37.6245 188.01 37.6182ZM186.131 41.5537C186.138 39.7192 186.899 38.5132 188.01 38.5068C189.115 38.5132 189.889 39.7192 189.889 41.5537C189.889 43.3882 189.115 44.5942 188.01 44.5879C186.899 44.5942 186.138 43.3882 186.131 41.5537ZM190.664 40.1064H193.342V42.8486H190.702C190.784 42.4551 190.829 42.0171 190.829 41.5537C190.829 41.0269 190.771 40.5444 190.664 40.1064ZM200.363 38.6084V38.4053H202.876V37.5801H196.897V38.4053H199.36V38.6084C199.354 39.7573 198.179 40.7539 196.516 41.0967L196.935 41.8711C198.319 41.5537 199.385 40.8237 199.88 39.8525C200.388 40.7412 201.442 41.4077 202.762 41.6934L203.168 40.9189C201.556 40.6079 200.369 39.6748 200.363 38.6084ZM196.161 42.7725L196.3 43.6357C197.208 43.6294 198.236 43.623 199.322 43.5786V47.6855H200.325V43.5278C201.448 43.458 202.597 43.3438 203.714 43.1533L203.651 42.4043C201.156 42.7534 198.287 42.7788 196.161 42.7725ZM201.937 45.2988H204.54V48.041H205.555V36.7549H204.54V44.5244H201.937V45.2988ZM217.781 45.7432H215.216V42.6709C216.149 42.1694 216.714 41.3696 216.714 40.3604C216.714 38.6147 215 37.4658 212.588 37.4531C210.176 37.4658 208.462 38.6147 208.462 40.3604C208.462 41.3887 209.046 42.2012 210.011 42.7026V45.7432H207.447V46.5811H217.781V45.7432ZM209.427 40.3604C209.421 39.0972 210.735 38.2656 212.588 38.2783C214.423 38.2656 215.75 39.0972 215.75 40.3604C215.75 41.6235 214.423 42.4678 212.588 42.4678C210.735 42.4678 209.421 41.6235 209.427 40.3604ZM210.989 45.7432V43.0645C211.471 43.1914 212.011 43.2549 212.588 43.2549C213.179 43.2549 213.725 43.1851 214.213 43.0581V45.7432H210.989ZM220.51 37.8086H219.266L219.355 44.4102H220.421L220.51 37.8086ZM219.076 46.251C219.063 46.7017 219.444 47.0698 219.888 47.0762C220.339 47.0698 220.707 46.7017 220.701 46.251C220.707 45.8066 220.339 45.4385 219.888 45.4385C219.444 45.4385 219.063 45.8066 219.076 46.251Z" fill="#525252"/>
</svg>
