<svg width="265" height="61" viewBox="0 0 265 61" fill="none" xmlns="http://www.w3.org/2000/svg">
<path d="M3.47025 6.24C4.62225 5.64267 5.88092 5.824 7.24625 6.784C8.35558 7.53067 9.14492 8.45867 9.61425 9.568C10.0836 10.656 10.1689 11.7653 9.87025 12.896C9.67825 13.6853 9.40092 14.272 9.03825 14.656C8.69692 15.04 8.14225 15.392 7.37425 15.712C6.62758 16.032 5.94492 16.192 5.32625 16.192C4.81425 16.2133 4.25958 16.1173 3.66225 15.904C3.06492 15.6907 2.51025 15.392 1.99825 15.008C1.50758 14.624 1.11292 14.2187 0.81425 13.792C0.515583 13.3227 0.33425 12.9493 0.27025 12.672C0.20625 12.3733 0.195583 11.8933 0.23825 11.232C0.30225 10.208 0.472917 9.45067 0.75025 8.96C1.00625 8.46933 1.40092 7.95733 1.93425 7.424C2.46758 6.89067 2.97958 6.496 3.47025 6.24ZM6.44625 8.096C5.82758 7.648 5.31558 7.44533 4.91025 7.488C4.50492 7.50933 4.01425 7.776 3.43825 8.288C2.58492 9.09867 2.08358 9.93067 1.93425 10.784C1.80625 11.616 2.05158 12.4053 2.67025 13.152C3.39558 14.0267 4.28092 14.4747 5.32625 14.496C6.39292 14.496 7.26758 14.048 7.95025 13.152C8.16358 12.896 8.30225 12.64 8.36625 12.384C8.43025 12.1067 8.44092 11.7013 8.39825 11.168C8.33425 10.4853 8.16358 9.93067 7.88625 9.504C7.60892 9.056 7.12892 8.58667 6.44625 8.096ZM13.4223 6.496C13.5076 6.34667 13.7529 6.29333 14.1583 6.336C14.5636 6.37867 14.7769 6.47467 14.7983 6.624C14.8409 6.98667 14.7556 9.952 14.5423 15.52L14.3503 19.52H13.6143C13.4009 19.52 13.2516 19.52 13.1663 19.52C13.0809 19.4987 13.0063 19.4453 12.9423 19.36C12.8783 19.2533 12.8356 19.136 12.8143 19.008C12.8143 18.8587 12.8036 18.6133 12.7823 18.272C12.7396 17.568 12.8036 15.4667 12.9743 11.968C13.1663 8.46933 13.3156 6.64533 13.4223 6.496ZM27.9778 6.272C28.1484 5.80267 28.4258 5.568 28.8098 5.568C28.9591 5.568 29.0764 5.58933 29.1618 5.632C29.2684 5.67467 29.3538 5.76 29.4178 5.888C29.4818 5.99467 29.5244 6.13333 29.5458 6.304C29.5671 6.47467 29.5671 6.73067 29.5458 7.072C29.5458 7.41333 29.5244 7.79733 29.4818 8.224C29.4391 8.62933 29.3858 9.152 29.3218 9.792L29.1938 10.656L30.5378 10.464C31.7324 10.3147 32.4364 10.1333 32.6498 9.92C32.8631 9.70667 32.9698 9.10933 32.9698 8.128C32.9698 6.528 33.2151 5.71733 33.7058 5.696C33.8551 5.696 34.0151 5.73867 34.1858 5.824C34.4418 5.952 34.5911 6.10133 34.6338 6.272C34.6764 6.42133 34.6658 6.72 34.6018 7.168C34.4951 8.04267 34.3991 10.0907 34.3138 13.312C34.2498 15.8293 34.1751 17.3227 34.0898 17.792C34.0258 18.2613 33.8551 18.56 33.5778 18.688C33.1724 18.88 32.9058 18.912 32.7778 18.784C32.6498 18.6347 32.6071 17.504 32.6498 15.392C32.6924 13.5147 32.6178 12.448 32.4258 12.192C32.2551 11.9147 31.6258 11.936 30.5378 12.256L29.1298 12.64L29.2258 15.168C29.2684 16.2773 29.2684 17.0027 29.2258 17.344C29.1831 17.664 29.0658 17.8773 28.8738 17.984C28.5751 18.176 28.2871 18.176 28.0098 17.984C27.7964 17.8773 27.6684 17.5253 27.6258 16.928C27.5831 16.3093 27.5831 14.784 27.6258 12.352C27.6898 8.74667 27.8071 6.72 27.9778 6.272ZM22.2818 6.08C22.6018 5.93067 23.0604 5.87733 23.6578 5.92C24.0418 5.94133 24.2871 5.99467 24.3938 6.08C24.5004 6.16533 24.5538 6.37867 24.5538 6.72V7.456L21.8658 7.744C20.0098 7.97867 18.8898 8.17067 18.5058 8.32C18.1858 8.448 17.9938 8.576 17.9298 8.704C17.8871 8.81067 17.8978 9.024 17.9618 9.344C18.0684 9.984 18.1218 10.7733 18.1218 11.712C18.1218 12.7573 18.2391 13.4293 18.4738 13.728C18.7298 14.0053 19.3271 14.1547 20.2658 14.176C21.3111 14.176 22.2391 14.112 23.0498 13.984C23.6258 13.8987 23.9991 13.8773 24.1698 13.92C24.3618 13.9627 24.5218 14.0907 24.6498 14.304C24.9058 14.7947 24.8951 15.136 24.6178 15.328C24.3618 15.52 23.7324 15.6587 22.7298 15.744C19.1031 16.0213 17.2044 15.968 17.0338 15.584C16.9484 15.3493 16.7991 14.0053 16.5858 11.552C16.4578 9.93067 16.3938 8.88533 16.3938 8.416C16.3938 7.94667 16.4791 7.63733 16.6497 7.488C16.7991 7.33867 17.1191 7.17867 17.6098 7.008C18.1004 6.816 18.6444 6.656 19.2418 6.528C19.8391 6.4 20.3404 6.32533 20.7458 6.304C21.4284 6.304 21.9404 6.22933 22.2818 6.08ZM39.5328 3.04C42.3914 2.528 43.9701 2.464 44.2688 2.848C44.4181 3.104 44.5674 4.032 44.7168 5.632C44.8874 7.232 44.9194 8.13867 44.8128 8.352C44.7061 8.56533 44.1941 8.81067 43.2768 9.088C42.3808 9.344 41.3674 9.54667 40.2368 9.696C39.6181 9.80267 39.2128 10.0053 39.0208 10.304C38.8501 10.6027 38.8714 11.0293 39.0848 11.584C39.1914 11.84 39.3194 11.9893 39.4688 12.032C39.6181 12.0747 40.0021 12.064 40.6208 12C41.4954 11.872 42.4661 11.6907 43.5328 11.456C44.4288 11.264 45.0261 11.1893 45.3248 11.232C45.6234 11.2747 45.8688 11.456 46.0608 11.776C46.2528 12.16 46.2208 12.4587 45.9648 12.672C45.7301 12.8853 45.2501 13.0453 44.5248 13.152C41.4314 13.5573 39.5434 13.7707 38.8608 13.792C38.1994 13.792 37.8048 13.6 37.6768 13.216C37.5914 13.024 37.4848 12.3733 37.3568 11.264C37.2714 10.1973 37.3781 9.504 37.6768 9.184C37.9968 8.84267 38.8394 8.52267 40.2048 8.224C40.7168 8.11733 41.1008 8.04267 41.3568 8C41.6128 7.936 41.8794 7.872 42.1568 7.808C42.4341 7.72267 42.6154 7.648 42.7008 7.584C42.8074 7.52 42.9141 7.456 43.0208 7.392C43.1274 7.328 43.1808 7.232 43.1808 7.104C43.1808 6.976 43.1808 6.85867 43.1808 6.752C43.1808 6.64533 43.1701 6.48533 43.1488 6.272C42.9781 5.20533 42.8074 4.58667 42.6368 4.416C42.4661 4.24533 41.9754 4.224 41.1648 4.352C40.5888 4.43733 39.6288 4.62933 38.2848 4.928C37.5381 5.09867 37.0154 5.152 36.7168 5.088C36.4181 5.024 36.2688 4.8 36.2688 4.416C36.2688 4.096 36.5141 3.84 37.0048 3.648C37.4954 3.43467 38.3381 3.232 39.5328 3.04ZM41.3248 16.128C41.4954 15.7867 41.8048 15.648 42.2528 15.712C42.5941 15.7333 42.7861 15.8293 42.8288 16C42.8714 16.1493 42.8821 16.6507 42.8608 17.504L42.7648 19.232L44.4928 19.04C45.3034 18.9547 46.0501 18.8587 46.7328 18.752C47.0741 18.6667 47.3834 18.7627 47.6608 19.04C47.9594 19.3173 48.0874 19.6373 48.0448 20C48.0021 20.2347 47.8848 20.384 47.6928 20.448C47.5221 20.512 47.1061 20.576 46.4448 20.64C45.9541 20.64 45.2394 20.6933 44.3008 20.8C43.3621 20.928 42.4021 21.0667 41.4208 21.216C40.4608 21.3867 39.6501 21.5467 38.9888 21.696C38.2634 21.8667 37.7728 21.888 37.5168 21.76C37.2821 21.6533 37.2288 21.3973 37.3568 20.992C37.5274 20.4587 38.4554 20.0533 40.1408 19.776L41.0368 19.616V18.112C41.0368 17.1307 41.1328 16.4693 41.3248 16.128ZM66.2455 3.648C66.3308 3.56267 66.8322 3.552 67.7495 3.616L69.1255 3.68L69.1895 8.032L69.2215 12.384L68.5815 12.64C68.1335 12.7893 67.8455 12.768 67.7175 12.576C67.5895 12.3413 67.5255 11.04 67.5255 8.672V5.088L66.7255 5.248C63.7175 5.71733 62.0002 6.05867 61.5735 6.272C61.3602 6.336 61.1575 6.18667 60.9655 5.824C60.7308 5.39733 60.8055 5.06667 61.1895 4.832C61.5735 4.59733 62.4268 4.37333 63.7495 4.16C65.3495 3.904 66.1815 3.73333 66.2455 3.648ZM69.7655 17.664C70.7042 17.536 71.2162 17.4507 71.3015 17.408C71.4295 17.3867 71.5788 17.4613 71.7495 17.632C71.9202 17.8027 72.0375 17.9947 72.1015 18.208C72.2082 18.5067 72.0908 18.816 71.7495 19.136C71.4508 19.4133 71.1735 19.5733 70.9175 19.616C70.6615 19.6587 70.3628 19.5947 70.0215 19.424C69.7868 19.2747 68.1762 19.4027 65.1895 19.808C63.8668 20 62.8428 20.128 62.1175 20.192C61.4135 20.2773 60.8268 20.32 60.3575 20.32C59.9095 20.32 59.6215 20.2667 59.4935 20.16C59.3655 20.0747 59.2802 19.9253 59.2375 19.712C59.1735 19.328 59.4615 19.0293 60.1015 18.816C60.7415 18.5813 61.7868 18.4107 63.2375 18.304C65.8615 18.1333 68.0375 17.92 69.7655 17.664ZM87.5615 3.168C87.7108 2.95467 87.9455 2.90133 88.2655 3.008C88.6068 3.09333 88.8202 3.264 88.9055 3.52C88.9908 3.776 88.9588 4.256 88.8095 4.96C88.6388 5.68533 88.5535 6.45333 88.5535 7.264C88.5535 7.904 88.5855 8.27733 88.6495 8.384C88.7135 8.49067 88.9162 8.52267 89.2575 8.48C89.7055 8.416 90.0682 8.33067 90.3455 8.224C90.6655 8.11733 90.9642 8.10667 91.2415 8.192C91.5402 8.256 91.7642 8.416 91.9135 8.672C92.0628 8.90667 92.0842 9.16267 91.9775 9.44C91.8708 9.696 91.5188 9.824 90.9215 9.824C90.3455 9.824 89.7268 10.0053 89.0655 10.368L88.0415 10.88L87.9775 12.928C87.9562 13.44 87.9348 13.824 87.9135 14.08C87.8922 14.3147 87.8495 14.528 87.7855 14.72C87.7428 14.8907 87.6788 15.008 87.5935 15.072C87.5295 15.136 87.4228 15.2107 87.2735 15.296C86.7402 15.5733 86.4202 15.5093 86.3135 15.104C86.1855 14.656 86.2815 13.0347 86.6015 10.24C86.8788 7.78667 87.0602 6.06933 87.1455 5.088C87.2735 3.97867 87.4122 3.33867 87.5615 3.168ZM76.8415 3.84C77.8228 3.52 78.9535 3.34933 80.2335 3.328C81.5348 3.28533 82.2388 3.41333 82.3455 3.712C82.4522 4.01067 82.5055 5.33333 82.5055 7.68C82.5055 9.10933 82.4628 10.1333 82.3775 10.752C82.2922 11.3707 82.1428 11.7973 81.9295 12.032C81.7375 12.2453 81.3962 12.352 80.9055 12.352C80.0948 12.352 78.9855 12.3947 77.5775 12.48C75.8922 12.5867 74.9108 12.5333 74.6335 12.32C74.3775 12.1067 74.1535 11.328 73.9615 9.984C73.7695 8.61867 73.7055 7.31733 73.7695 6.08C73.7908 5.29067 73.8335 4.82133 73.8975 4.672C73.9828 4.52267 74.2068 4.42667 74.5695 4.384C75.0602 4.34133 75.8175 4.16 76.8415 3.84ZM80.8415 6.144C80.9482 5.632 80.9695 5.33333 80.9055 5.248C80.8628 5.14133 80.6708 5.09867 80.3295 5.12C79.5402 5.14133 78.3455 5.344 76.7455 5.728L75.1775 6.144L75.3695 8.32C75.4762 9.792 75.6255 10.5813 75.8175 10.688C76.0095 10.8373 76.6922 10.848 77.8655 10.72C78.5055 10.6773 79.2522 10.6133 80.1055 10.528C80.3188 10.5067 80.4468 10.4 80.4895 10.208C80.5535 9.99467 80.5962 9.536 80.6175 8.832C80.6388 7.744 80.7135 6.848 80.8415 6.144ZM79.4975 16.288C79.8388 15.8613 80.2442 15.808 80.7135 16.128C80.9482 16.2773 81.0015 16.672 80.8735 17.312C80.5322 18.976 80.5215 19.8613 80.8415 19.968C81.0122 20.0533 81.6842 19.9893 82.8575 19.776C84.1588 19.5413 85.3002 19.4027 86.2815 19.36L87.8815 19.264V20.032C87.8815 20.3947 87.8068 20.6187 87.6575 20.704C87.5295 20.7893 87.0708 20.8853 86.2815 20.992C85.1722 21.0987 84.2975 21.248 83.6575 21.44C83.0175 21.6107 82.1642 21.7173 81.0975 21.76C80.0522 21.8027 79.4548 21.7493 79.3055 21.6C79.1562 21.4293 79.1028 20.5547 79.1455 18.976C79.2095 17.376 79.3268 16.48 79.4975 16.288ZM100.172 2.56C101.644 2.41067 102.497 2.336 102.732 2.336C102.988 2.31467 103.19 2.41067 103.34 2.624C103.489 2.816 103.564 3.08267 103.564 3.424C103.564 3.552 103.436 3.69067 103.18 3.84C102.924 3.98933 102.657 4.096 102.38 4.16C102.102 4.20267 101.878 4.192 101.708 4.128C101.324 3.872 100.332 3.92533 98.7318 4.288C97.1318 4.62933 96.2038 4.992 95.9478 5.376C95.8411 5.568 95.7771 6.08 95.7558 6.912C95.7558 7.744 95.8091 8.36267 95.9158 8.768C95.9798 9.04533 96.0971 9.216 96.2678 9.28C96.4598 9.32267 96.9291 9.312 97.6758 9.248C98.7424 9.16267 99.4251 9.04533 99.7238 8.896C100.022 8.72533 100.716 8.608 101.804 8.544L103.436 8.448V9.344C103.436 9.77067 103.393 10.0267 103.308 10.112C103.222 10.1973 102.881 10.24 102.284 10.24C101.558 10.24 100.726 10.3787 99.7878 10.656C98.9558 10.912 97.9744 11.0933 96.8438 11.2C95.7131 11.3067 95.0411 11.296 94.8278 11.168C94.6358 11.04 94.4544 9.93067 94.2838 7.84L94.0278 4.672L94.6678 4.16C95.1158 3.776 95.8518 3.43467 96.8758 3.136C97.9211 2.83733 99.0198 2.64533 100.172 2.56ZM103.148 13.28C103.724 13.024 104.108 12.9067 104.3 12.928C104.513 12.9493 104.748 13.1413 105.004 13.504C105.196 13.8453 105.281 14.0693 105.26 14.176C105.26 14.2613 105.121 14.4213 104.844 14.656C104.46 14.9547 103.777 15.104 102.796 15.104H101.292L101.26 16.448C101.238 17.3227 101.238 18.4107 101.26 19.712C101.281 20.5653 101.27 21.1093 101.228 21.344C101.185 21.6 101.057 21.792 100.844 21.92C100.481 22.0907 100.182 22.1227 99.9478 22.016C99.7771 21.952 99.6598 21.7067 99.5958 21.28C99.5531 20.8533 99.5318 19.9573 99.5318 18.592C99.5318 16.6293 99.4784 15.5947 99.3718 15.488C99.3078 15.4453 99.1798 15.4453 98.9878 15.488C98.4971 15.616 97.5798 15.7227 96.2358 15.808C95.2118 15.872 94.5824 15.8933 94.3478 15.872C94.1131 15.8293 93.9211 15.6907 93.7718 15.456C93.6651 15.2 93.6224 15.008 93.6438 14.88C93.6864 14.752 93.8038 14.5813 93.9958 14.368C94.2091 14.176 94.4651 14.048 94.7638 13.984C95.0624 13.8987 95.5851 13.856 96.3318 13.856C100.086 13.792 102.358 13.6 103.148 13.28ZM122.99 5.376C123.139 5.14133 123.374 5.056 123.694 5.12C124.035 5.16267 124.259 5.33333 124.366 5.632C124.494 6.016 124.494 7.296 124.366 9.472C124.238 11.8613 124.174 14.016 124.174 15.936C124.152 18.0267 124.046 19.168 123.854 19.36C123.64 19.552 123.395 19.648 123.118 19.648C122.84 19.6267 122.67 19.52 122.606 19.328C122.52 19.072 122.542 16.7253 122.67 12.288C122.798 7.85067 122.904 5.54667 122.99 5.376ZM112.718 6.72C113.294 6.61333 113.731 6.53867 114.03 6.496C114.35 6.45333 114.659 6.42133 114.958 6.4C115.256 6.37867 115.47 6.37867 115.598 6.4C115.747 6.4 115.875 6.432 115.982 6.496C116.11 6.53867 116.195 6.60267 116.238 6.688C116.28 6.752 116.334 6.85867 116.398 7.008C116.718 7.84 116.387 10.272 115.406 14.304C115.128 15.4773 114.915 16.256 114.766 16.64C114.616 17.0027 114.435 17.2053 114.222 17.248C113.731 17.376 113.432 17.28 113.326 16.96C113.219 16.64 113.294 16.0533 113.55 15.2C113.806 14.3893 114.094 13.0453 114.414 11.168C114.755 9.29067 114.883 8.30933 114.798 8.224C114.712 8.13867 114.254 8.17067 113.422 8.32C111.011 8.832 109.486 9.13067 108.846 9.216C108.227 9.28 107.747 9.248 107.406 9.12C106.467 8.69333 106.83 8.20267 108.494 7.648C109.518 7.30667 110.926 6.99733 112.718 6.72ZM129.794 6.4C130.285 6.25067 130.701 6.208 131.042 6.272C131.405 6.31467 132.023 6.528 132.898 6.912C134.327 7.50933 135.053 8.78933 135.074 10.752C135.074 11.7547 134.978 12.5227 134.786 13.056C134.615 13.568 134.285 14.112 133.794 14.688C133.346 15.2 133.005 15.5093 132.77 15.616C132.557 15.7227 132.141 15.776 131.522 15.776C130.306 15.776 129.143 15.4133 128.034 14.688C126.946 13.9627 126.317 13.152 126.146 12.256C125.997 11.3813 126.029 10.624 126.242 9.984C126.455 9.344 126.914 8.672 127.618 7.968C127.959 7.60533 128.343 7.27467 128.77 6.976C129.218 6.67733 129.559 6.48533 129.794 6.4ZM132.002 8.096C131.469 7.92533 131.085 7.86133 130.85 7.904C130.615 7.92533 130.189 8.10667 129.57 8.448C128.845 8.87467 128.365 9.248 128.13 9.568C127.895 9.888 127.767 10.336 127.746 10.912C127.746 11.6373 128.013 12.2667 128.546 12.8C129.101 13.3333 129.826 13.696 130.722 13.888C131.405 14.0587 131.831 14.1333 132.002 14.112C132.173 14.0693 132.407 13.8667 132.706 13.504C132.877 13.312 132.994 13.1307 133.058 12.96C133.143 12.768 133.197 12.5333 133.218 12.256C133.261 11.9787 133.282 11.5947 133.282 11.104C133.282 10.0373 133.197 9.32267 133.026 8.96C132.877 8.576 132.535 8.288 132.002 8.096ZM144.418 6.4C144.567 6.18667 144.759 6.09067 144.994 6.112C145.229 6.112 145.442 6.22933 145.634 6.464C145.847 6.72 145.89 8.384 145.762 11.456C145.613 14.464 145.538 16.32 145.538 17.024C145.517 17.6427 145.431 18.0587 145.282 18.272C145.154 18.4853 144.877 18.6347 144.45 18.72L143.778 18.848L144.002 15.136C144.151 12.1493 144.226 10.1333 144.226 9.088C144.226 7.50933 144.29 6.61333 144.418 6.4ZM140.642 6.88C141.069 6.47467 141.463 6.496 141.826 6.944C142.018 7.17867 142.018 8.37333 141.826 10.528C141.698 12.1707 141.549 14.0053 141.378 16.032L141.218 18.272H140.482H139.714L139.746 15.296C139.746 15.2533 139.746 15.2 139.746 15.136C139.789 13.6213 139.746 12.768 139.618 12.576C139.49 12.3627 139.021 12.3733 138.21 12.608C138.146 12.6293 138.103 12.64 138.082 12.64C137.549 12.8107 137.037 12.8533 136.546 12.768C136.055 12.6827 135.81 12.5227 135.81 12.288C135.81 11.8827 135.991 11.5627 136.354 11.328C136.738 11.0933 137.357 10.9333 138.21 10.848C139.362 10.6987 140.013 10.5173 140.162 10.304C140.29 10.048 140.354 9.46133 140.354 8.544C140.354 7.62667 140.45 7.072 140.642 6.88ZM148.801 1.248C149.014 0.970666 149.281 0.885332 149.601 0.991999C149.836 1.03467 149.985 1.216 150.049 1.536C150.113 1.83467 150.145 2.60267 150.145 3.84V6.624L151.233 6.464C151.425 6.42133 151.734 6.368 152.161 6.304C152.609 6.24 152.897 6.19733 153.025 6.176C154.902 5.89867 156.161 5.74933 156.801 5.728C157.142 5.728 157.345 5.77067 157.409 5.856C157.494 5.92 157.537 6.16533 157.537 6.592V7.456L156.097 7.52C155.052 7.54133 153.75 7.73333 152.193 8.096C150.55 8.416 149.58 8.56533 149.281 8.544C149.004 8.50133 148.769 8.20267 148.577 7.648C148.406 7.008 148.342 5.84533 148.385 4.16C148.449 2.47467 148.588 1.504 148.801 1.248ZM157.857 10.88C157.878 10.8587 158.017 10.9867 158.273 11.264C158.721 11.712 158.785 12.1493 158.465 12.576C158.166 12.9813 157.676 13.12 156.993 12.992C156.417 12.9067 155.404 12.9813 153.953 13.216C151.5 13.6427 149.878 13.8987 149.089 13.984C148.321 14.048 147.841 13.9733 147.649 13.76C147.5 13.6107 147.425 13.4827 147.425 13.376C147.425 13.248 147.521 13.0453 147.713 12.768C147.884 12.4693 148.076 12.288 148.289 12.224C148.502 12.16 148.929 12.128 149.569 12.128C150.572 12.128 151.596 12.0107 152.641 11.776C153.836 11.5413 154.774 11.424 155.457 11.424C156.182 11.3813 156.769 11.2853 157.217 11.136L157.857 10.88ZM150.785 16.16C151.041 15.8613 151.201 15.7013 151.265 15.68C151.329 15.6587 151.489 15.7013 151.745 15.808C151.852 15.8507 151.926 15.936 151.969 16.064C152.033 16.192 152.076 16.3947 152.097 16.672C152.118 16.928 152.129 17.3013 152.129 17.792C152.129 19.0293 152.214 19.648 152.385 19.648C152.556 19.648 152.95 19.52 153.569 19.264C154.124 19.072 155.052 18.8373 156.353 18.56C157.676 18.2827 158.561 18.144 159.009 18.144C159.393 18.144 159.638 18.3147 159.745 18.656C159.788 18.848 159.788 19.0187 159.745 19.168C159.702 19.3173 159.596 19.4453 159.425 19.552C159.276 19.6587 159.062 19.744 158.785 19.808C158.529 19.872 158.198 19.9253 157.793 19.968C156.812 20.0533 155.884 20.288 155.009 20.672C154.689 20.8213 154.273 20.96 153.761 21.088C153.27 21.2373 152.844 21.3227 152.481 21.344C151.905 21.408 151.532 21.4187 151.361 21.376C151.19 21.3333 151.03 21.184 150.881 20.928C150.689 20.5227 150.55 19.712 150.465 18.496C150.401 17.7067 150.39 17.1733 150.433 16.896C150.476 16.6187 150.593 16.3733 150.785 16.16ZM184.204 4.992C184.29 4.71467 184.482 4.576 184.78 4.576C185.079 4.55467 185.335 4.672 185.548 4.928C185.74 5.16267 185.815 7.60533 185.772 12.256L185.708 19.264L184.876 19.36C184.663 19.3813 184.492 19.3813 184.364 19.36C184.236 19.3173 184.14 19.264 184.076 19.2C184.034 19.1147 183.991 18.976 183.948 18.784C183.863 18.336 183.842 17.9307 183.884 17.568C184.012 17.0133 184.098 15.7547 184.14 13.792C184.183 11.8293 184.151 10.816 184.044 10.752C183.916 10.6453 183.052 10.6987 181.452 10.912C180.364 11.04 179.66 11.104 179.34 11.104C179.02 11.0827 178.775 10.9867 178.604 10.816C178.455 10.6667 178.37 10.528 178.348 10.4C178.327 10.272 178.37 10.0907 178.476 9.856C178.647 9.57867 178.85 9.41867 179.084 9.376C179.34 9.312 180.023 9.28 181.132 9.28C182.135 9.28 182.86 9.19467 183.308 9.024C183.671 8.896 183.884 8.74667 183.948 8.576C184.012 8.40533 184.044 7.904 184.044 7.072C184.044 5.984 184.098 5.29067 184.204 4.992ZM171.276 5.376C171.49 5.184 171.692 5.088 171.884 5.088C172.098 5.088 172.268 5.184 172.396 5.376C172.524 5.58933 172.567 6.28267 172.524 7.456C172.482 8.39467 172.524 9.696 172.652 11.36C172.802 13.024 172.94 13.92 173.068 14.048C173.346 14.3253 174.572 14.336 176.748 14.08C177.964 13.9307 178.807 13.92 179.276 14.048C179.767 14.176 180.012 14.4853 180.012 14.976C180.012 15.1467 179.98 15.3067 179.916 15.456C179.852 15.584 179.788 15.648 179.724 15.648C179.618 15.6693 179.042 15.712 177.996 15.776C177.847 15.776 177.634 15.7867 177.356 15.808C174.818 16 173.314 16.096 172.844 16.096C172.396 16.0747 172.098 15.936 171.948 15.68C171.906 15.6373 171.884 15.6053 171.884 15.584C171.5 14.9867 171.223 13.216 171.052 10.272C170.882 7.328 170.956 5.696 171.276 5.376ZM192.035 2.816C192.845 2.688 193.731 2.64533 194.691 2.688C195.651 2.73067 196.216 2.848 196.387 3.04C196.536 3.18933 196.664 4.39467 196.771 6.656C196.813 8.21333 196.813 9.19467 196.771 9.6C196.728 10.0053 196.6 10.3147 196.387 10.528C195.896 11.0187 193.891 11.4347 190.371 11.776C189.901 11.84 189.549 11.8827 189.315 11.904C189.101 11.904 188.867 11.8613 188.611 11.776C188.376 11.6907 188.216 11.6053 188.131 11.52C188.067 11.4133 187.992 11.1893 187.907 10.848C187.821 10.5067 187.768 10.1653 187.747 9.824C187.725 9.48267 187.704 8.94933 187.683 8.224C187.555 6.176 187.555 4.93867 187.683 4.512C187.811 4.21333 188.301 3.89333 189.155 3.552C190.029 3.21067 190.989 2.96533 192.035 2.816ZM194.947 4.416L193.667 4.384C193.155 4.36267 192.76 4.37333 192.483 4.416C192.205 4.43733 191.907 4.49067 191.587 4.576C191.288 4.64 190.872 4.78933 190.339 5.024L189.219 5.408L189.283 7.68L189.379 9.952H190.275C190.829 9.952 191.747 9.83467 193.027 9.6L194.947 9.216V6.848V4.416ZM196.771 13.504C197.795 13.1413 198.52 13.2907 198.947 13.952C199.075 14.208 199.053 14.4427 198.883 14.656C198.733 14.848 198.456 15.0187 198.051 15.168C197.667 15.296 197.208 15.36 196.675 15.36C195.736 15.36 195.181 15.4347 195.01 15.584C194.861 15.712 194.776 16.32 194.755 17.408C194.733 18.496 194.776 19.712 194.883 21.056C194.904 21.3547 194.872 21.568 194.786 21.696C194.701 21.824 194.52 21.9307 194.243 22.016C193.773 22.1867 193.475 22.208 193.347 22.08C193.197 21.952 193.123 20.8213 193.123 18.688C193.123 18.0267 193.112 17.504 193.091 17.12C193.069 16.736 193.037 16.4267 192.995 16.192C192.973 15.936 192.941 15.776 192.899 15.712C192.856 15.6267 192.803 15.5947 192.739 15.616C192.568 15.6587 191.683 15.776 190.083 15.968C189.379 16.0533 188.845 16.096 188.483 16.096C188.141 16.096 187.864 16.064 187.651 16C187.437 15.936 187.341 15.8187 187.363 15.648C187.384 15.4773 187.448 15.2533 187.555 14.976C187.683 14.6773 187.971 14.464 188.419 14.336C188.867 14.208 189.571 14.144 190.531 14.144C191.64 14.1227 192.856 14.048 194.179 13.92C195.501 13.7707 196.365 13.632 196.771 13.504ZM225.15 6.048C225.363 5.89867 225.587 5.856 225.822 5.92C225.971 5.94133 226.067 6.144 226.11 6.528C226.174 6.89067 226.206 7.65867 226.206 8.832V11.744L227.998 11.68C229.043 11.616 229.779 11.6693 230.206 11.84C230.654 11.9893 230.878 12.2773 230.878 12.704C230.878 13.0027 230.76 13.184 230.526 13.248C230.312 13.312 229.63 13.3653 228.478 13.408C226.92 13.4507 226.088 13.5147 225.982 13.6C225.896 13.7067 225.79 14.72 225.662 16.64C225.662 16.64 225.662 16.6507 225.662 16.672C225.555 18.08 225.459 18.912 225.374 19.168C225.31 19.424 225.118 19.5627 224.798 19.584C224.563 19.6267 224.382 19.616 224.254 19.552C224.147 19.488 224.062 19.3173 223.998 19.04C223.934 18.7627 223.912 18.4 223.934 17.952C223.955 17.504 224.008 16.832 224.094 15.936C224.264 14.144 224.35 12.5333 224.35 11.104C224.35 9.99467 224.435 8.90667 224.606 7.84C224.776 6.752 224.958 6.15467 225.15 6.048ZM213.406 6.848C214.131 6.37867 214.75 6.13333 215.262 6.112C215.774 6.09067 216.499 6.29333 217.438 6.72C218.334 7.104 218.963 7.456 219.326 7.776C219.688 8.07467 220.019 8.52267 220.318 9.12C220.702 10.0373 220.84 10.9547 220.734 11.872C220.648 12.7893 220.307 13.6533 219.71 14.464C219.134 15.2747 218.408 15.8293 217.534 16.128C217.064 16.2987 216.542 16.3733 215.966 16.352C215.39 16.3307 214.824 16.2453 214.27 16.096C213.715 15.9467 213.16 15.7227 212.606 15.424C212.072 15.104 211.603 14.7307 211.198 14.304C210.899 14.0053 210.686 13.76 210.558 13.568C210.43 13.376 210.344 13.1733 210.302 12.96C210.259 12.7467 210.238 12.4267 210.238 12C210.259 9.86667 211.315 8.14933 213.406 6.848ZM217.982 8.768C217.363 8.27733 216.702 7.98933 215.998 7.904C215.294 7.81867 214.675 7.94667 214.141 8.288C213.011 8.992 212.296 9.77067 211.998 10.624C211.699 11.456 211.827 12.224 212.382 12.928C212.936 13.6107 213.854 14.112 215.134 14.432L216.638 14.848L217.63 14.144C218.632 13.4827 219.166 12.5973 219.23 11.488C219.294 10.3787 218.878 9.472 217.982 8.768ZM236.872 1.152C237.384 0.575998 237.746 0.287998 237.96 0.287998C238.194 0.287998 238.322 0.437332 238.344 0.735998C238.386 1.03467 238.301 1.39733 238.088 1.824C237.874 2.208 237.778 2.464 237.8 2.592C237.821 2.69867 237.97 2.85867 238.248 3.072C238.696 3.41333 239.325 3.79733 240.135 4.224C240.84 4.608 241.298 4.992 241.512 5.376C241.725 5.76 241.672 6.09067 241.352 6.368C241.138 6.53867 240.37 6.24 239.048 5.472C237.768 4.68267 236.989 4.288 236.712 4.288C236.52 4.288 236.242 4.65067 235.88 5.376C235.517 6.10133 235.176 6.944 234.856 7.904C234.728 8.24533 234.44 8.384 233.992 8.32C233.544 8.23467 233.298 8.01067 233.256 7.648C233.213 7.456 233.405 6.90133 233.832 5.984C234.28 5.06667 234.802 4.128 235.4 3.168C236.018 2.208 236.509 1.536 236.872 1.152ZM245.096 3.712C245.245 3.41333 245.512 3.296 245.896 3.36C246.152 3.40267 246.301 3.616 246.344 4C246.386 4.36267 246.418 5.51467 246.44 7.456C246.461 10.1867 246.504 11.744 246.568 12.128C246.61 12.384 246.589 12.5547 246.504 12.64C246.44 12.7253 246.226 12.7893 245.864 12.832C245.522 12.8533 245.288 12.832 245.16 12.768C245.053 12.6827 244.957 12.4907 244.872 12.192C244.765 11.7653 244.722 10.5173 244.744 8.448C244.786 6.57067 244.818 5.38667 244.84 4.896C244.882 4.384 244.968 3.98933 245.096 3.712ZM240.104 9.344C240.68 9.19467 241.042 9.12 241.192 9.12C241.341 9.09867 241.49 9.12 241.64 9.184C241.81 9.22667 241.96 9.30133 242.088 9.408C242.216 9.49333 242.312 9.6 242.376 9.728C242.461 9.83467 242.504 9.952 242.504 10.08C242.504 10.464 242.354 10.7413 242.056 10.912C241.757 11.0613 241.33 11.0827 240.776 10.976C240.136 10.8907 239.634 10.9547 239.272 11.168C238.909 11.3813 238.632 11.7867 238.44 12.384C238.248 12.9813 238.098 13.8453 237.992 14.976C237.928 15.8507 237.853 16.3733 237.768 16.544C237.704 16.7147 237.501 16.8107 237.16 16.832C236.989 16.8747 236.84 16.8853 236.712 16.864C236.605 16.8213 236.52 16.7573 236.456 16.672C236.413 16.5867 236.37 16.4587 236.328 16.288C236.242 15.9893 236.253 15.4027 236.36 14.528C236.488 13.6533 236.658 12.8533 236.872 12.128C236.957 11.872 236.968 11.7227 236.904 11.68C236.84 11.6373 236.605 11.648 236.2 11.712C235.666 11.8187 235.016 11.968 234.248 12.16C233.8 12.2667 233.48 12.32 233.288 12.32C233.096 12.2987 232.925 12.2027 232.776 12.032C232.584 11.8613 232.488 11.7227 232.488 11.616C232.488 11.5093 232.584 11.3067 232.776 11.008C233.053 10.5813 233.405 10.3467 233.832 10.304C234.984 10.24 236.242 10.0907 237.608 9.856C238.781 9.68533 239.613 9.51467 240.104 9.344ZM246.024 15.936C246.024 15.296 246.12 14.88 246.312 14.688C246.525 14.4747 246.834 14.368 247.24 14.368C247.517 14.368 247.677 14.4213 247.72 14.528C247.762 14.6347 247.752 14.944 247.688 15.456C247.432 17.4613 247.272 18.6987 247.208 19.168C246.994 20.96 246.781 21.9947 246.568 22.272C246.354 22.5493 245.97 22.688 245.416 22.688C244.84 22.688 243.976 22.8053 242.824 23.04C242.44 23.104 242.152 23.1573 241.96 23.2C241.789 23.2427 241.576 23.2533 241.32 23.232C241.085 23.232 240.925 23.2213 240.84 23.2C240.776 23.2 240.68 23.1147 240.552 22.944C240.424 22.7947 240.349 22.656 240.328 22.528C240.306 22.4213 240.274 22.1867 240.232 21.824C240.189 21.4613 240.168 21.1413 240.168 20.864C240.168 20.608 240.168 20.1707 240.168 19.552C240.168 18.2293 240.189 17.344 240.232 16.896C240.274 16.4267 240.392 16.1173 240.584 15.968C240.904 15.648 241.181 15.584 241.416 15.776C241.65 15.9467 241.768 16.32 241.768 16.896C241.768 17.5573 241.832 17.888 241.96 17.888C242.088 17.888 242.44 17.8347 243.016 17.728C243.613 17.6 244.189 17.472 244.744 17.344C245.32 17.1947 245.661 17.088 245.768 17.024C245.938 16.9387 246.024 16.576 246.024 15.936ZM245.448 19.712C245.512 19.1787 245.469 18.912 245.32 18.912C245.128 18.976 244.818 19.0293 244.392 19.072C243.88 19.136 243.314 19.2427 242.696 19.392C242.397 19.4773 242.184 19.5627 242.056 19.648C241.928 19.712 241.842 19.808 241.8 19.936C241.778 20.0427 241.768 20.2347 241.768 20.512C241.768 20.96 241.81 21.2267 241.896 21.312C241.981 21.3973 242.248 21.44 242.696 21.44C243.336 21.3973 243.944 21.248 244.52 20.992C244.861 20.8 245.096 20.6187 245.224 20.448C245.352 20.2773 245.426 20.032 245.448 19.712ZM256.979 6.208C257.811 5.99467 258.323 5.93067 258.515 6.016C258.813 6.18667 258.781 6.73067 258.419 7.648C258.056 8.56533 257.501 9.52533 256.755 10.528L256.115 11.36L256.979 12.256C257.597 12.832 258.109 13.1947 258.515 13.344C258.664 13.408 258.845 13.5573 259.059 13.792C259.272 14.0053 259.432 14.24 259.539 14.496C259.795 14.9227 259.923 15.2 259.923 15.328C259.923 15.456 259.816 15.6053 259.603 15.776C259.261 16.0107 258.92 16.0427 258.579 15.872C258.237 15.7013 257.608 15.168 256.691 14.272L255.123 12.736L254.483 13.504C254.099 13.9733 253.736 14.5707 253.395 15.296C253.309 15.5093 253.203 15.7013 253.075 15.872C252.947 16.0427 252.819 16.192 252.691 16.32C252.584 16.4267 252.488 16.4907 252.403 16.512C252.104 16.5973 251.816 16.5653 251.539 16.416C251.261 16.2453 251.123 16.0427 251.123 15.808C251.123 15.6587 251.784 14.6667 253.107 12.832C254.451 10.976 255.219 9.97333 255.411 9.824C255.56 9.73867 255.752 9.45067 255.987 8.96C256.221 8.46933 256.317 8.17067 256.275 8.064C256.211 7.95733 255.624 8.01067 254.515 8.224C253.427 8.416 252.616 8.608 252.083 8.8C251.571 8.992 250.984 9.088 250.323 9.088C249.939 9.088 249.683 9.056 249.555 8.992C249.427 8.928 249.363 8.78933 249.363 8.576C249.363 8.256 249.555 7.97867 249.939 7.744C250.216 7.552 251.197 7.264 252.883 6.88C254.568 6.47467 255.464 6.31467 255.571 6.4C255.635 6.48533 256.104 6.42133 256.979 6.208ZM263.315 6.144C263.443 5.90933 263.72 5.824 264.147 5.888C264.339 5.90933 264.467 5.93067 264.531 5.952C264.616 5.97333 264.68 6.03733 264.722 6.144C264.787 6.22933 264.808 6.35733 264.787 6.528C264.787 6.67733 264.787 6.90133 264.787 7.2C264.765 7.62667 264.723 9.80267 264.659 13.728C264.659 13.728 264.659 13.7387 264.659 13.76C264.616 16.3413 264.563 17.8667 264.499 18.336C264.456 18.8053 264.296 19.0933 264.019 19.2C263.763 19.2853 263.56 19.2853 263.411 19.2C263.283 19.0933 263.176 18.816 263.091 18.368C263.005 17.8987 262.963 17.184 262.963 16.224C262.984 15.264 262.995 13.984 262.995 12.384C263.059 8.416 263.165 6.336 263.315 6.144ZM18.9836 39.656C19.6663 39.4 20.445 39.3147 21.3196 39.4C22.1943 39.4853 22.9303 39.72 23.5276 40.104C24.2103 40.552 24.701 41.1173 24.9996 41.8C25.2983 42.4827 25.4476 43.3467 25.4476 44.392C25.4476 45.1387 25.405 45.6507 25.3196 45.928C25.2556 46.184 25.0636 46.4827 24.7436 46.824C23.933 47.656 22.8236 48.2213 21.4156 48.52C20.029 48.8187 18.9516 48.7227 18.1836 48.232C17.0956 47.5493 16.3703 46.6427 16.0076 45.512C15.6663 44.3813 15.7516 43.2827 16.2636 42.216C16.861 40.936 17.7676 40.0827 18.9836 39.656ZM22.9196 41.608C22.429 41.1387 21.949 40.8827 21.4796 40.84C21.0316 40.776 20.4236 40.9253 19.6556 41.288C18.525 41.8213 17.8316 42.568 17.5756 43.528C17.3196 44.4667 17.597 45.352 18.4076 46.184C18.9623 46.8027 19.4743 47.112 19.9436 47.112C21.2876 47.112 22.4076 46.6533 23.3036 45.736C23.6876 45.3307 23.9116 45.032 23.9756 44.84C24.0396 44.648 24.029 44.264 23.9436 43.688C23.8156 42.8773 23.4743 42.184 22.9196 41.608ZM29.4156 39.72C29.5863 39.4213 29.8423 39.2933 30.1836 39.336C30.4396 39.3787 30.589 39.5067 30.6316 39.72C30.6743 39.9333 30.6743 40.5627 30.6316 41.608C30.6103 42.0987 30.5996 42.4507 30.5996 42.664C30.5996 42.8773 30.6103 43.0907 30.6316 43.304C30.6743 43.5173 30.717 43.656 30.7596 43.72C30.8023 43.7627 30.8876 43.7947 31.0156 43.816C31.1436 43.8373 31.2716 43.8267 31.3996 43.784C31.549 43.7413 31.7623 43.6773 32.0396 43.592C32.6156 43.3787 33.1063 43.368 33.5116 43.56C33.9383 43.752 34.1303 44.072 34.0876 44.52C34.045 44.84 33.9703 45.032 33.8636 45.096C33.7783 45.16 33.5223 45.1813 33.0956 45.16C32.4556 45.1173 31.8583 45.1813 31.3036 45.352L30.4076 45.576L30.2796 47.56C30.1943 48.9253 30.0983 49.832 29.9916 50.28L29.7996 51.08L31.3996 51.048C32.189 51.0267 32.6476 51.048 32.7756 51.112C32.925 51.1547 33.021 51.336 33.0636 51.656C33.085 51.848 33.085 51.9973 33.0636 52.104C33.0423 52.1893 32.9996 52.264 32.9356 52.328C32.8716 52.392 32.7756 52.424 32.6476 52.424C32.5196 52.424 32.349 52.4133 32.1356 52.392C31.837 52.328 31.421 52.3707 30.8876 52.52C30.3756 52.648 30.1196 52.7653 30.1196 52.872C30.1196 53 30.4396 53.128 31.0796 53.256C31.9756 53.384 32.637 53.8533 33.0636 54.664C33.4903 55.4533 33.5116 56.3067 33.1276 57.224C32.9996 57.608 32.6583 58.1307 32.1036 58.792C31.5063 59.4747 30.7703 59.848 29.8956 59.912C29.021 59.976 28.253 59.7307 27.5916 59.176C26.9303 58.6427 26.589 57.928 26.5676 57.032L26.5036 56.488C26.4823 56.488 26.429 56.5947 26.3436 56.808C26.173 57.1707 25.693 57.4053 24.9036 57.512C23.9223 57.6827 23.0156 57.8747 22.1836 58.088C21.0743 58.3227 20.317 58.4293 19.9116 58.408C19.5276 58.3867 19.293 58.2053 19.2076 57.864C19.101 57.4373 19.0476 56.36 19.0476 54.632C19.0476 52.648 19.229 51.592 19.5916 51.464C19.7623 51.4 19.9863 51.4533 20.2636 51.624C20.4983 51.752 20.637 51.9547 20.6796 52.232C20.7223 52.488 20.701 53.1813 20.6156 54.312C20.5303 55.7627 20.5516 56.52 20.6796 56.584C20.7223 56.6053 20.8076 56.6053 20.9356 56.584C22.6423 56.0507 24.061 55.848 25.1916 55.976C25.7676 56.04 26.141 56.0613 26.3116 56.04C26.5036 55.9973 26.6316 55.88 26.6956 55.688C26.7596 55.432 27.0903 54.9733 27.6876 54.312C28.285 53.672 28.5516 53.288 28.4876 53.16C28.4236 53.032 28.0396 53.0427 27.3356 53.192C26.6956 53.3627 26.1516 53.3947 25.7036 53.288C25.277 53.1813 25.0636 52.968 25.0636 52.648C25.0636 52.3067 25.1916 52.072 25.4476 51.944C25.725 51.7947 26.2263 51.688 26.9516 51.624L28.2316 51.496L28.2636 50.472C28.285 49.7893 28.381 49.2773 28.5516 48.936C28.7436 48.616 28.893 47.08 28.9996 44.328C29.1276 41.5547 29.2663 40.0187 29.4156 39.72ZM30.8236 54.536C30.3756 54.28 30.0983 54.1733 29.9916 54.216C29.885 54.2373 29.597 54.4933 29.1276 54.984C28.445 55.688 28.1676 56.392 28.2956 57.096C28.4236 57.8213 28.9036 58.184 29.7356 58.184C30.269 58.184 30.749 57.9173 31.1756 57.384C31.6876 56.8293 31.9116 56.296 31.8476 55.784C31.7836 55.2507 31.4423 54.8347 30.8236 54.536ZM48.2986 41.896C48.384 41.6613 48.544 41.5547 48.7786 41.576C49.0346 41.576 49.28 41.6933 49.5146 41.928C49.6426 42.0773 49.7173 42.376 49.7386 42.824C49.7813 43.2507 49.7813 44.0507 49.7386 45.224L49.6106 48.136L50.4426 48.008C52.96 47.624 54.368 47.6133 54.6666 47.976C54.944 48.3173 55.008 48.616 54.8586 48.872C54.7306 49.128 54.432 49.2773 53.9626 49.32C53.408 49.3413 52.544 49.448 51.3706 49.64L49.7386 49.928L49.5466 52.936C49.4613 54.3653 49.376 55.2293 49.2906 55.528C49.2266 55.8053 49.0453 55.976 48.7466 56.04C47.9146 56.2747 47.584 55.8053 47.7546 54.632C47.8186 53.992 47.9146 51.7733 48.0426 47.976C48.1493 44.1147 48.2346 42.088 48.2986 41.896ZM35.8506 42.696C36.0426 42.4613 36.2026 42.344 36.3306 42.344C36.48 42.344 36.6506 42.4613 36.8426 42.696C37.0346 42.952 37.152 44.2107 37.1946 46.472C37.2373 48.7547 37.3546 49.9813 37.5466 50.152C37.6746 50.28 38.816 50.3973 40.9706 50.504C43.104 50.5893 44.256 50.6747 44.4266 50.76C44.576 50.8667 44.64 51.08 44.6186 51.4C44.6186 51.72 44.5226 51.9333 44.3306 52.04C44.1386 52.1467 42.7306 52.1787 40.1066 52.136C37.504 52.0933 36.1493 52.008 36.0426 51.88C35.872 51.7307 35.7546 50.2053 35.6906 47.304C35.648 44.4027 35.7013 42.8667 35.8506 42.696ZM59.6384 39.24C60.4064 38.9627 61.1424 38.8773 61.8464 38.984C62.5717 39.0693 63.2437 39.3573 63.8624 39.848C64.5024 40.3387 65.025 41 65.4304 41.832C65.8357 42.6213 66.0277 43.3573 66.0064 44.04C66.0064 44.7227 65.793 45.48 65.3664 46.312C65.025 46.9947 64.6197 47.5067 64.1504 47.848C63.681 48.168 63.0837 48.3813 62.3584 48.488C61.1424 48.6587 59.9904 48.424 58.9024 47.784C57.8144 47.144 57.121 46.3227 56.8224 45.32C56.3957 43.9547 56.4384 42.7387 56.9504 41.672C57.4624 40.6053 58.3584 39.7947 59.6384 39.24ZM62.2304 40.552C62.017 40.552 61.7824 40.5093 61.5264 40.424C61.1424 40.296 60.5344 40.5307 59.7024 41.128C58.8704 41.7253 58.369 42.3013 58.1984 42.856C58.1344 43.0693 58.1237 43.3253 58.1664 43.624C58.209 43.9013 58.2837 44.1893 58.3904 44.488C58.497 44.7653 58.6357 45.0427 58.8064 45.32C58.9984 45.5973 59.201 45.832 59.4144 46.024C60.225 46.7493 61.0464 47.08 61.8784 47.016C62.7104 46.952 63.3717 46.5147 63.8624 45.704C64.6517 44.424 64.5237 43.0907 63.4784 41.704C62.8597 40.936 62.4437 40.552 62.2304 40.552ZM63.5744 50.504C63.745 50.0987 63.9584 49.896 64.2144 49.896C64.4917 49.8747 64.7264 50.0773 64.9184 50.504C65.089 50.9093 65.0677 51.6133 64.8544 52.616C64.641 53.576 64.5984 54.1627 64.7264 54.376C64.833 54.568 65.473 54.664 66.6464 54.664C67.457 54.664 67.9584 54.696 68.1504 54.76C68.3637 54.8027 68.5237 54.952 68.6304 55.208C68.7797 55.656 68.7264 55.9653 68.4704 56.136C68.2357 56.3067 67.7024 56.3813 66.8704 56.36C66.209 56.3387 65.3877 56.3813 64.4064 56.488C63.4464 56.5733 62.7637 56.6693 62.3584 56.776C62.1664 56.84 61.6757 56.936 60.8864 57.064C60.1184 57.2133 59.361 57.352 58.6144 57.48C57.8677 57.608 57.4197 57.672 57.2704 57.672C57.0144 57.672 56.8224 57.5013 56.6944 57.16C56.5664 56.8187 56.5984 56.5307 56.7904 56.296C56.961 56.0827 57.377 55.9227 58.0384 55.816L58.9664 55.688V53.64C58.9877 52.5093 59.073 51.7947 59.2224 51.496C59.3717 51.176 59.6917 51.08 60.1824 51.208C60.481 51.2933 60.6517 51.432 60.6944 51.624C60.7584 51.7947 60.7797 52.328 60.7584 53.224L60.6944 55.016L61.9424 55.112C62.7317 55.1547 63.1264 55.112 63.1264 54.984C63.1264 54.408 63.1477 53.8 63.1904 53.16C63.2544 52.52 63.3184 51.9653 63.3824 51.496C63.4677 51.0267 63.5317 50.696 63.5744 50.504ZM72.1404 41.96L73.9004 41.992C75.159 42.0347 75.959 42.0987 76.3004 42.184C76.3644 42.184 76.567 42.2267 76.9084 42.312C77.2497 42.376 77.495 42.4187 77.6444 42.44C78.1137 42.5253 78.615 42.7067 79.1484 42.984C79.7244 43.2827 80.0977 43.6133 80.2684 43.976C80.439 44.3387 80.5244 44.9787 80.5244 45.896C80.5244 46.8773 80.4817 47.4747 80.3964 47.688C80.311 47.9013 80.247 48.136 80.2044 48.392C80.1404 48.6907 79.991 49.0533 79.7564 49.48C79.5217 49.9067 79.2764 50.2267 79.0204 50.44C78.8497 50.5893 78.7004 50.7067 78.5724 50.792C78.4444 50.8773 78.2844 50.952 78.0924 51.016C77.9217 51.08 77.6764 51.1547 77.3564 51.24C77.143 51.2827 76.823 51.368 76.3964 51.496C76.1404 51.5813 75.8737 51.624 75.5964 51.624C74.935 51.624 74.6044 52.104 74.6044 53.064C74.6044 53.5333 74.6684 53.896 74.7964 54.152C74.903 54.3867 74.9244 54.6107 74.8604 54.824C74.8177 55.016 74.679 55.1867 74.4444 55.336C74.231 55.464 73.9537 55.528 73.6124 55.528C73.207 55.528 72.951 55.3787 72.8444 55.08C72.759 54.7813 72.7164 54.024 72.7164 52.808C72.7164 51.464 72.7697 50.7067 72.8764 50.536C73.0044 50.3867 73.463 50.28 74.2524 50.216C74.999 50.1733 75.575 50.0987 75.9804 49.992C76.3217 49.928 76.695 49.8533 77.1004 49.768C77.3137 49.704 77.527 49.608 77.7404 49.48C77.975 49.3307 78.1564 49.16 78.2844 48.968C78.4124 48.776 78.4764 48.5947 78.4764 48.424C78.4764 48.2107 78.519 48.0187 78.6044 47.848C78.711 47.6773 78.7644 47.112 78.7644 46.152C78.7644 45.4907 78.743 45.0853 78.7004 44.936C78.679 44.7653 78.583 44.616 78.4124 44.488C78.199 44.296 77.9964 44.2 77.8044 44.2C77.6124 44.2 77.367 44.136 77.0684 44.008C76.983 43.9867 76.8977 43.9653 76.8124 43.944C76.7484 43.9227 76.695 43.912 76.6524 43.912C76.631 43.8907 76.6204 43.88 76.6204 43.88C76.599 43.9013 76.567 43.912 76.5244 43.912C76.4817 43.8907 76.4177 43.8693 76.3324 43.848C76.2684 43.8267 76.1937 43.8053 76.1084 43.784C75.7457 43.656 75.0524 43.592 74.0284 43.592C73.1537 43.592 72.535 43.6453 72.1724 43.752C71.831 43.8373 71.511 44.0507 71.2124 44.392C70.8497 44.776 70.5084 44.808 70.1884 44.488C69.911 44.2533 69.9004 43.9013 70.1564 43.432C70.3057 43.1547 70.4444 42.952 70.5724 42.824C70.7217 42.696 70.999 42.5253 71.4044 42.312L72.1404 41.96ZM72.7164 58.632C72.887 58.4187 73.1537 58.312 73.5164 58.312C73.9217 58.312 74.199 58.3867 74.3484 58.536C74.519 58.6853 74.6044 58.9413 74.6044 59.304C74.6044 59.688 74.487 59.9973 74.2524 60.232C74.0604 60.424 73.7937 60.5307 73.4524 60.552C73.1324 60.5733 72.8764 60.4987 72.6844 60.328C72.5137 60.2 72.4284 59.9333 72.4284 59.528C72.4497 59.144 72.5457 58.8453 72.7164 58.632ZM95.5054 37.32C96.0387 36.808 96.444 36.9573 96.7214 37.768C96.8707 38.2373 96.9454 38.8453 96.9454 39.592V40.872L98.0014 40.712C99.8574 40.4133 100.903 40.3173 101.137 40.424C101.265 40.4667 101.415 40.6267 101.585 40.904C101.905 41.3733 101.948 41.6933 101.713 41.864C101.5 42.0347 100.913 42.1413 99.9534 42.184C98.9294 42.2053 97.404 42.44 95.3774 42.888C93.7134 43.2507 92.636 43.4213 92.1454 43.4C91.6547 43.3573 91.4094 43.1227 91.4094 42.696C91.4094 42.4827 91.516 42.2907 91.7294 42.12C91.9427 41.9493 92.2307 41.8107 92.5934 41.704C92.9774 41.5973 93.4147 41.544 93.9054 41.544C94.588 41.544 95.0254 41.3947 95.2174 41.096C95.4094 40.776 95.4627 40.1467 95.3774 39.208C95.2707 38.1627 95.3134 37.5333 95.5054 37.32ZM104.625 42.536C104.753 42.3653 104.988 42.312 105.329 42.376C105.585 42.4187 105.735 42.5573 105.777 42.792C105.841 43.0267 105.852 43.7413 105.809 44.936L105.745 47.432L107.441 47.272C108.273 47.1867 108.775 47.1653 108.945 47.208C109.137 47.2293 109.265 47.3787 109.329 47.656C109.436 48.0613 109.372 48.3707 109.137 48.584C108.903 48.776 108.476 48.872 107.857 48.872C107.132 48.872 106.577 48.9467 106.193 49.096C105.916 49.2027 105.745 49.3413 105.681 49.512C105.639 49.6613 105.649 50.024 105.713 50.6C105.863 52.1787 105.628 53.0533 105.009 53.224C104.54 53.352 104.252 53.2133 104.145 52.808C103.996 52.2747 104.017 50.568 104.209 47.688C104.38 44.424 104.519 42.7067 104.625 42.536ZM95.5694 44.232C96.0174 43.976 96.572 43.848 97.2334 43.848C97.8947 43.848 98.4494 43.9547 98.8974 44.168C99.7934 44.6373 100.465 45.352 100.913 46.312C101.361 47.272 101.457 48.1893 101.201 49.064C101.031 49.64 100.668 50.2053 100.113 50.76C99.58 51.3147 98.972 51.7307 98.2894 52.008C97.82 52.2427 97.2014 52.3707 96.4334 52.392C95.6654 52.4133 95.068 52.328 94.6414 52.136C94.108 51.944 93.6067 51.5707 93.1374 51.016C92.668 50.44 92.3907 49.8853 92.3054 49.352C92.22 48.776 92.3054 48.1573 92.5614 47.496C92.8174 46.8133 93.212 46.1947 93.7454 45.64C94.2787 45.064 94.8867 44.5947 95.5694 44.232ZM99.0254 46.12C98.3427 45.2667 97.436 45.1387 96.3054 45.736C95.3454 46.2267 94.652 46.8987 94.2254 47.752C93.7987 48.6053 93.8094 49.32 94.2574 49.896C94.8547 50.664 95.676 50.984 96.7214 50.856C97.788 50.7067 98.5987 50.184 99.1534 49.288C99.9 48.1147 99.8574 47.0587 99.0254 46.12ZM98.5774 54.536C98.8334 54.28 99.1427 54.2373 99.5054 54.408C99.7187 54.536 99.8467 54.696 99.8894 54.888C99.932 55.08 99.9107 55.5067 99.8254 56.168C99.7827 56.424 99.7507 56.6693 99.7294 56.904C99.7294 57.1387 99.7294 57.32 99.7294 57.448C99.7507 57.5973 99.772 57.672 99.7934 57.672C99.8574 57.672 100.391 57.544 101.393 57.288C102.375 57.032 103.431 56.904 104.561 56.904C105.713 56.904 106.332 57.032 106.417 57.288C106.545 57.6507 106.439 57.928 106.097 58.12C105.756 58.312 105.127 58.4507 104.209 58.536C103.036 58.664 101.991 58.8453 101.073 59.08C100.177 59.3147 99.516 59.4213 99.0894 59.4C98.684 59.4 98.4387 59.272 98.3534 59.016C98.2467 58.7173 98.1934 57.9707 98.1934 56.776C98.1934 55.5387 98.3214 54.792 98.5774 54.536ZM117.179 41.448C117.222 40.7653 117.275 40.328 117.339 40.136C117.403 39.9227 117.531 39.816 117.723 39.816C118.022 39.816 118.299 39.9547 118.555 40.232C118.704 40.424 118.79 40.808 118.811 41.384C118.854 41.96 118.843 43.1227 118.779 44.872C118.672 47.6667 118.555 49.128 118.427 49.256C118.342 49.384 117.35 49.5973 115.451 49.896C114.022 50.152 113.168 50.28 112.891 50.28C112.614 50.28 112.379 50.152 112.187 49.896C111.696 49.2987 111.323 47.336 111.067 44.008C110.982 42.856 110.992 42.0773 111.099 41.672C111.227 41.2667 111.515 41.064 111.963 41.064C112.24 41.064 112.432 41.224 112.539 41.544C112.646 41.8427 112.699 42.408 112.699 43.24C112.699 44.136 112.774 44.584 112.923 44.584C112.987 44.584 113.296 44.4987 113.851 44.328C114.406 44.1573 114.982 43.976 115.579 43.784C116.198 43.5707 116.582 43.4213 116.731 43.336C116.987 43.2293 117.136 42.6 117.179 41.448ZM117.179 46.44C117.179 45.9067 117.136 45.5973 117.051 45.512C116.987 45.4053 116.763 45.352 116.379 45.352C115.952 45.3733 115.27 45.5333 114.331 45.832C113.67 46.0667 113.254 46.344 113.083 46.664C112.912 46.984 112.955 47.3893 113.211 47.88C113.339 48.1147 113.488 48.264 113.659 48.328C113.83 48.3707 114.171 48.36 114.683 48.296C115.472 48.2107 116.091 48.072 116.539 47.88C116.838 47.7307 117.019 47.5813 117.083 47.432C117.147 47.2613 117.179 46.9307 117.179 46.44ZM123.931 40.936C123.995 40.744 124.219 40.6267 124.603 40.584C125.008 40.52 125.264 40.5733 125.371 40.744C125.456 40.8933 125.446 42.0347 125.339 44.168C125.211 46.3013 125.19 47.9973 125.275 49.256C125.339 50.2373 125.307 50.92 125.179 51.304C125.072 51.688 124.816 51.88 124.411 51.88C124.048 51.88 123.803 51.6667 123.675 51.24C123.568 50.8133 123.515 49.9707 123.515 48.712C123.515 47.2187 123.43 46.312 123.259 45.992C123.088 45.6507 122.683 45.6293 122.043 45.928C121.552 46.184 121.126 46.312 120.763 46.312C120.422 46.312 120.24 46.1733 120.219 45.896C120.176 45.448 120.198 45.1067 120.283 44.872C120.39 44.6373 120.582 44.456 120.859 44.328C121.136 44.1787 121.542 44.0613 122.075 43.976C122.779 43.8693 123.238 43.7093 123.451 43.496C123.664 43.2827 123.771 42.8987 123.771 42.344C123.771 41.7253 123.824 41.256 123.931 40.936ZM117.051 53.192C117.243 53 117.542 52.904 117.947 52.904C118.246 52.904 118.406 52.9893 118.427 53.16C118.47 53.3093 118.448 53.8853 118.363 54.888C118.363 55.016 118.352 55.1973 118.331 55.432C118.246 56.2427 118.31 56.7013 118.523 56.808C118.736 56.9147 119.536 56.8613 120.923 56.648C121.286 56.6053 121.574 56.5627 121.787 56.52C122.854 56.3493 123.568 56.264 123.931 56.264C124.294 56.2427 124.55 56.3173 124.699 56.488C124.934 56.7013 124.987 56.9467 124.859 57.224C124.752 57.5227 124.528 57.704 124.187 57.768C121.35 58.3013 119.483 58.6 118.587 58.664C117.691 58.7493 117.147 58.6533 116.955 58.376C116.784 58.12 116.71 57.2347 116.731 55.72C116.752 54.2053 116.859 53.3627 117.051 53.192ZM144.404 42.248C144.532 42.12 144.681 42.0987 144.852 42.184C145.023 42.248 145.183 42.408 145.332 42.664C145.503 42.92 145.439 43.2187 145.14 43.56C144.948 43.7733 144.692 43.9227 144.372 44.008C144.073 44.072 143.497 44.104 142.644 44.104C141.364 44.104 140.308 44.2107 139.476 44.424L138.324 44.712L138.42 46.216C138.548 49.736 138.74 51.5813 138.996 51.752C139.167 51.88 140.169 51.8267 142.004 51.592C143.263 51.4427 144.052 51.3787 144.372 51.4C144.713 51.4 144.991 51.496 145.204 51.688C145.78 52.3067 145.535 52.7547 144.468 53.032C144.212 53.096 143.924 53.1387 143.604 53.16C141.172 53.4373 139.625 53.5867 138.964 53.608C138.303 53.608 137.887 53.5013 137.716 53.288C137.353 52.84 137.044 51.24 136.788 48.488C136.553 45.7147 136.585 44.1573 136.884 43.816C137.14 43.496 137.823 43.208 138.932 42.952C140.063 42.6747 141.183 42.5147 142.292 42.472C143.593 42.4507 144.297 42.376 144.404 42.248ZM149.62 43.24C149.727 42.792 149.929 42.568 150.228 42.568C150.74 42.5893 151.039 42.8987 151.124 43.496C151.231 44.0933 151.295 46.0347 151.316 49.32C151.316 53.5653 151.263 55.7627 151.156 55.912C151.028 56.104 150.772 56.1787 150.388 56.136C150.004 56.0933 149.769 55.9653 149.684 55.752C149.577 55.4533 149.524 54.184 149.524 51.944V48.552L148.596 48.712C147.913 48.84 147.113 48.9467 146.196 49.032C145.492 49.1173 145.065 49.1387 144.916 49.096C144.788 49.032 144.681 48.84 144.596 48.52C144.511 48.0507 144.543 47.7307 144.692 47.56C144.863 47.3893 145.599 47.272 146.9 47.208C148.244 47.144 149.055 47.016 149.332 46.824C149.609 46.6107 149.695 46.0773 149.588 45.224C149.503 44.2853 149.513 43.624 149.62 43.24ZM170.695 40.2C170.78 40.0933 170.972 40.04 171.271 40.04C171.527 40.04 171.751 40.2853 171.943 40.776C172.156 41.2667 172.156 41.576 171.943 41.704C171.751 41.8533 170.77 41.9387 168.999 41.96C167.271 41.9813 166.119 42.0987 165.543 42.312C165.095 42.4827 164.796 42.792 164.647 43.24C164.519 43.6667 164.455 44.4987 164.455 45.736C164.455 46.0773 164.455 46.344 164.455 46.536C164.476 46.728 164.508 46.9093 164.551 47.08C164.594 47.2293 164.636 47.3467 164.679 47.432C164.743 47.496 164.828 47.5493 164.935 47.592C165.255 47.784 165.447 47.8267 165.511 47.72C165.618 47.6347 166.023 47.5707 166.727 47.528C167.687 47.4427 168.935 47.1973 170.471 46.792C170.94 46.664 171.25 46.6107 171.399 46.632C171.57 46.6533 171.73 46.7493 171.879 46.92C172.05 47.1973 172.103 47.5067 172.039 47.848C171.996 48.168 171.847 48.3707 171.591 48.456C171.25 48.584 170.204 48.7653 168.455 49C166.706 49.2347 165.522 49.352 164.903 49.352C164.327 49.352 163.964 49.32 163.815 49.256C163.666 49.1707 163.516 48.936 163.367 48.552C163.111 48.04 162.94 47.1333 162.855 45.832C162.706 44.3173 162.61 43.3893 162.567 43.048C162.482 42.6213 162.471 42.3333 162.535 42.184C162.62 42.0347 162.844 41.832 163.207 41.576C164.231 40.9787 166.108 40.5947 168.839 40.424C169.991 40.36 170.61 40.2853 170.695 40.2ZM166.951 51.592C167.164 51.1013 167.474 50.856 167.879 50.856C168.178 50.856 168.348 50.9733 168.391 51.208C168.455 51.4213 168.508 51.9973 168.551 52.936L168.615 55.016L171.175 54.952L173.767 54.888V55.496C173.767 55.9227 173.607 56.2107 173.287 56.36C172.988 56.488 172.263 56.5947 171.111 56.68C170.066 56.744 168.476 56.904 166.343 57.16C165.212 57.288 164.466 57.352 164.103 57.352C163.74 57.352 163.516 57.2773 163.431 57.128C163.175 56.7013 163.207 56.3493 163.527 56.072C163.868 55.7947 164.423 55.656 165.191 55.656C166.023 55.656 166.503 55.5493 166.631 55.336C166.759 55.144 166.791 54.6 166.727 53.704C166.706 52.8293 166.78 52.1253 166.951 51.592ZM181.458 40.936C183.421 40.4667 184.455 40.5307 184.562 41.128C184.605 41.3413 184.551 41.64 184.402 42.024C184.295 42.344 183.965 42.8667 183.41 43.592C182.877 44.3173 182.525 44.712 182.354 44.776C181.97 44.9467 182.322 45.64 183.41 46.856L183.73 47.24C184.989 48.6693 185.351 49.5013 184.818 49.736C184.733 49.7787 184.626 49.8107 184.498 49.832C184.263 49.8533 183.997 49.768 183.698 49.576C183.399 49.3627 182.983 48.9573 182.45 48.36L181.01 46.792L179.986 47.944C179.282 48.712 178.887 49.2453 178.802 49.544C178.717 49.8 178.493 50.0133 178.13 50.184C177.789 50.3333 177.522 50.344 177.33 50.216C176.967 50.0027 177.063 49.4373 177.618 48.52C178.194 47.5813 179.357 46.0667 181.106 43.976H181.138C181.757 43.2293 182.034 42.8133 181.97 42.728L181.586 42.632C181.245 42.5893 180.423 42.7067 179.122 42.984C178.269 43.176 177.618 43.3147 177.17 43.4C176.722 43.4853 176.349 43.5387 176.05 43.56C175.773 43.56 175.591 43.528 175.506 43.464C175.421 43.4 175.378 43.2933 175.378 43.144C175.378 42.696 175.634 42.3227 176.146 42.024C176.679 41.7253 177.437 41.5227 178.418 41.416C179.57 41.3093 180.583 41.1493 181.458 40.936ZM189.266 41.096C189.607 40.7547 189.97 40.7227 190.354 41C190.525 41.1067 190.61 42.824 190.61 46.152C190.61 48.4987 190.578 49.928 190.514 50.44C190.471 50.9307 190.343 51.208 190.13 51.272C189.703 51.4 189.383 51.2507 189.17 50.824C188.978 50.3973 188.85 49.576 188.786 48.36L188.658 46.024L187.73 46.248C186.002 46.6107 185.085 46.536 184.978 46.024C184.914 45.6613 185.085 45.3307 185.49 45.032C185.917 44.7333 186.439 44.584 187.058 44.584C187.527 44.584 187.869 44.5733 188.082 44.552C188.317 44.5307 188.509 44.456 188.658 44.328C188.829 44.1787 188.925 44.008 188.946 43.816C188.967 43.624 188.978 43.304 188.978 42.856C188.978 41.896 189.074 41.3093 189.266 41.096ZM181.714 52.712C182.098 52.3067 182.471 52.296 182.834 52.68C183.026 52.872 183.079 53.512 182.994 54.6L182.834 56.2L184.338 56.04C185.469 55.9333 186.589 55.8693 187.698 55.848C188.573 55.8053 189.106 55.816 189.298 55.88C189.511 55.9227 189.639 56.0613 189.682 56.296C189.725 56.68 189.586 56.968 189.266 57.16C188.946 57.3733 188.391 57.512 187.602 57.576C186.813 57.6613 185.714 57.7787 184.306 57.928C183.751 57.992 183.346 58.0347 183.09 58.056C182.834 58.0773 182.567 58.056 182.29 57.992C182.013 57.9493 181.831 57.896 181.746 57.832C181.682 57.768 181.607 57.5973 181.522 57.32C181.458 57.0427 181.415 56.7867 181.394 56.552C181.394 56.296 181.394 55.8907 181.394 55.336C181.394 53.7787 181.501 52.904 181.714 52.712ZM196.03 40.488C195.987 39.784 195.987 39.368 196.03 39.24C196.094 39.112 196.286 39.048 196.606 39.048C197.502 39.048 197.833 39.9973 197.598 41.896L197.438 43.336L198.526 43.304C199.358 43.2827 199.987 43.2187 200.414 43.112C200.67 43.048 200.926 43.0267 201.182 43.048C201.438 43.048 201.662 43.0907 201.854 43.176C202.046 43.24 202.206 43.3467 202.334 43.496C202.483 43.6453 202.579 43.8053 202.622 43.976C202.686 44.4027 202.579 44.68 202.302 44.808C202.046 44.936 201.641 44.9253 201.086 44.776C200.51 44.6267 199.891 44.6373 199.23 44.808C198.569 45 197.737 45.1387 196.734 45.224C195.667 45.352 194.899 45.5227 194.43 45.736C193.982 45.9707 193.491 46.088 192.958 46.088C192.659 46.088 192.457 46.056 192.35 45.992C192.265 45.9067 192.222 45.736 192.222 45.48C192.222 45.0747 192.361 44.7867 192.638 44.616C192.915 44.424 193.513 44.2427 194.43 44.072C195.219 43.9013 195.678 43.7627 195.806 43.656C195.955 43.5493 196.041 43.272 196.062 42.824C196.062 41.8 196.051 41.0213 196.03 40.488ZM208.958 43.624C209.022 43.4107 209.289 43.336 209.758 43.4L210.43 43.464L210.366 45.32C210.302 46.4933 210.195 47.9653 210.046 49.736C209.854 51.4213 209.822 52.808 209.95 53.896C210.014 54.6853 210.025 55.176 209.982 55.368C209.961 55.5387 209.801 55.688 209.502 55.816C209.097 56.008 208.798 56.04 208.606 55.912C208.435 55.784 208.329 54.8667 208.286 53.16C208.243 51.7093 208.137 50.856 207.966 50.6C207.817 50.3227 207.401 50.344 206.718 50.664L205.95 51.08L206.078 53.16C206.163 54.0347 206.185 54.6213 206.142 54.92C206.121 55.2187 206.025 55.432 205.854 55.56C205.342 55.9653 204.905 55.9653 204.542 55.56C204.35 55.2827 204.297 53.5227 204.382 50.28C204.446 47.848 204.542 46.248 204.67 45.48C204.798 44.712 205.043 44.328 205.406 44.328C205.769 44.328 206.014 44.5307 206.142 44.936C206.27 45.32 206.323 45.9707 206.302 46.888L206.206 48.744L206.942 48.808C207.411 48.8507 207.753 48.808 207.966 48.68C208.201 48.552 208.371 48.296 208.478 47.912C208.585 47.528 208.67 46.92 208.734 46.088C208.819 44.616 208.894 43.7947 208.958 43.624ZM196.638 47.048C197.15 46.7493 197.619 46.6107 198.046 46.632C198.494 46.632 199.049 46.8133 199.71 47.176C201.289 47.9653 202.121 49.1387 202.206 50.696C202.249 51.272 202.227 51.7093 202.142 52.008C202.078 52.2853 201.854 52.7013 201.47 53.256C200.894 54.1307 200.361 54.728 199.87 55.048C199.379 55.3467 198.771 55.4853 198.046 55.464C196.361 55.4 195.134 54.8027 194.366 53.672C193.619 52.52 193.577 51.1973 194.238 49.704C194.515 49.0213 194.835 48.488 195.198 48.104C195.561 47.6987 196.041 47.3467 196.638 47.048ZM199.39 48.616C198.899 48.424 198.483 48.3493 198.142 48.392C197.822 48.4347 197.438 48.616 196.99 48.936C196.499 49.256 196.115 49.7253 195.838 50.344C195.561 50.9627 195.486 51.5067 195.614 51.976C195.699 52.3813 195.859 52.7333 196.094 53.032C196.329 53.3093 196.606 53.5227 196.926 53.672C197.246 53.8213 197.598 53.896 197.982 53.896C198.387 53.896 198.697 53.8427 198.91 53.736C199.123 53.6293 199.39 53.384 199.71 53C200.243 52.3813 200.553 51.816 200.638 51.304C200.745 50.8133 200.659 50.28 200.382 49.704C200.105 49.128 199.774 48.7653 199.39 48.616ZM218.946 40.232C219.224 39.9333 219.64 39.9867 220.194 40.392C220.408 40.5627 220.525 40.7973 220.546 41.096C220.568 41.3733 220.504 42.1307 220.354 43.368C220.162 44.9893 220.066 46.248 220.066 47.144C220.066 47.912 219.885 48.5093 219.522 48.936C219.373 49.1493 219.224 49.2987 219.074 49.384C218.925 49.4693 218.733 49.5227 218.498 49.544C218.285 49.5653 217.922 49.576 217.41 49.576C216.344 49.5547 215.341 49.6507 214.402 49.864C213.464 50.056 212.92 50.1093 212.77 50.024C212.45 49.8107 212.226 48.104 212.098 44.904C212.034 43.4107 212.013 42.472 212.034 42.088C212.077 41.6827 212.194 41.448 212.386 41.384C212.77 41.2347 213.069 41.2987 213.282 41.576C213.496 41.832 213.581 42.216 213.538 42.728C213.496 43.5387 213.592 44.008 213.826 44.136C214.061 44.264 214.722 44.2 215.81 43.944C217.346 43.624 218.157 43.4533 218.242 43.432C218.477 43.3893 218.626 43.2827 218.69 43.112C218.754 42.9413 218.786 42.5253 218.786 41.864C218.786 40.8613 218.84 40.3173 218.946 40.232ZM217.954 45.224C217.634 45.1387 217.4 45.1173 217.25 45.16C217.101 45.1813 216.504 45.352 215.458 45.672L213.73 46.184L213.794 47.08L213.89 47.976L215.618 47.88C216.856 47.816 217.624 47.7093 217.922 47.56C218.221 47.4107 218.392 47.0267 218.434 46.408C218.477 45.96 218.466 45.672 218.402 45.544C218.36 45.3947 218.21 45.288 217.954 45.224ZM225.634 44.04C225.89 43.8907 226.125 43.848 226.338 43.912C226.488 43.9333 226.584 44.1147 226.626 44.456C226.669 44.776 226.669 45.4693 226.626 46.536C226.626 46.6213 226.616 46.7387 226.594 46.888C226.594 47.4 226.584 47.752 226.562 47.944C226.562 48.136 226.584 48.3493 226.626 48.584C226.69 48.8187 226.733 48.9573 226.754 49C226.797 49.0427 226.914 49.0853 227.106 49.128C227.32 49.1493 227.501 49.1493 227.65 49.128C227.821 49.0853 228.109 49.0213 228.514 48.936C228.664 48.9147 228.77 48.8933 228.834 48.872C229.474 48.744 230.029 48.776 230.498 48.968C230.968 49.16 231.16 49.448 231.074 49.832C231.032 50.088 230.285 50.3227 228.834 50.536C227.448 50.7493 226.68 50.9307 226.53 51.08C226.381 51.2293 226.296 52.136 226.274 53.8L226.21 56.264H225.474C225.09 56.264 224.856 56.2107 224.77 56.104C224.706 55.9973 224.642 55.6773 224.578 55.144C224.557 54.632 224.621 52.9787 224.77 50.184C224.941 47.368 225.09 45.5973 225.218 44.872C225.304 44.4667 225.442 44.1893 225.634 44.04ZM216.802 51.848C217.016 51.72 217.144 51.656 217.186 51.656C217.25 51.6347 217.4 51.6667 217.634 51.752C217.89 51.8587 218.018 52.296 218.018 53.064V54.184L219.618 53.992C220.322 53.9067 220.834 53.8533 221.154 53.832C221.496 53.7893 221.773 53.7787 221.986 53.8C222.221 53.8213 222.36 53.8747 222.402 53.96C222.466 54.024 222.509 54.1413 222.53 54.312C222.552 54.568 222.477 54.8027 222.306 55.016C222.136 55.208 221.858 55.368 221.474 55.496C221.112 55.6027 220.685 55.656 220.194 55.656C219.32 55.656 218.104 55.816 216.546 56.136C215.074 56.456 214.125 56.6267 213.698 56.648C213.272 56.648 213.005 56.52 212.898 56.264C212.77 55.88 212.834 55.56 213.09 55.304C213.368 55.048 213.826 54.8667 214.466 54.76C215.341 54.6533 215.853 54.536 216.002 54.408C216.173 54.28 216.29 53.9067 216.354 53.288C216.418 52.4987 216.568 52.0187 216.802 51.848ZM235.763 39.24C236.531 38.9627 237.267 38.8773 237.971 38.984C238.697 39.0693 239.369 39.3573 239.987 39.848C240.627 40.3387 241.15 41 241.555 41.832C241.961 42.6213 242.153 43.3573 242.131 44.04C242.131 44.7227 241.918 45.48 241.491 46.312C241.15 46.9947 240.745 47.5067 240.275 47.848C239.806 48.168 239.209 48.3813 238.483 48.488C237.267 48.6587 236.115 48.424 235.027 47.784C233.939 47.144 233.246 46.3227 232.947 45.32C232.521 43.9547 232.563 42.7387 233.075 41.672C233.587 40.6053 234.483 39.7947 235.763 39.24ZM238.355 40.552C238.142 40.552 237.907 40.5093 237.651 40.424C237.267 40.296 236.659 40.5307 235.827 41.128C234.995 41.7253 234.494 42.3013 234.323 42.856C234.259 43.0693 234.249 43.3253 234.291 43.624C234.334 43.9013 234.409 44.1893 234.515 44.488C234.622 44.7653 234.761 45.0427 234.931 45.32C235.123 45.5973 235.326 45.832 235.539 46.024C236.35 46.7493 237.171 47.08 238.003 47.016C238.835 46.952 239.497 46.5147 239.987 45.704C240.777 44.424 240.649 43.0907 239.603 41.704C238.985 40.936 238.569 40.552 238.355 40.552ZM239.699 50.504C239.87 50.0987 240.083 49.896 240.339 49.896C240.617 49.8747 240.851 50.0773 241.043 50.504C241.214 50.9093 241.193 51.6133 240.979 52.616C240.766 53.576 240.723 54.1627 240.851 54.376C240.958 54.568 241.598 54.664 242.771 54.664C243.582 54.664 244.083 54.696 244.275 54.76C244.489 54.8027 244.649 54.952 244.755 55.208C244.905 55.656 244.851 55.9653 244.595 56.136C244.361 56.3067 243.827 56.3813 242.995 56.36C242.334 56.3387 241.513 56.3813 240.531 56.488C239.571 56.5733 238.889 56.6693 238.483 56.776C238.291 56.84 237.801 56.936 237.011 57.064C236.243 57.2133 235.486 57.352 234.739 57.48C233.993 57.608 233.545 57.672 233.395 57.672C233.139 57.672 232.947 57.5013 232.819 57.16C232.691 56.8187 232.723 56.5307 232.915 56.296C233.086 56.0827 233.502 55.9227 234.163 55.816L235.091 55.688V53.64C235.113 52.5093 235.198 51.7947 235.347 51.496C235.497 51.176 235.817 51.08 236.307 51.208C236.606 51.2933 236.777 51.432 236.819 51.624C236.883 51.7947 236.905 52.328 236.883 53.224L236.819 55.016L238.067 55.112C238.857 55.1547 239.251 55.112 239.251 54.984C239.251 54.408 239.273 53.8 239.315 53.16C239.379 52.52 239.443 51.9653 239.507 51.496C239.593 51.0267 239.657 50.696 239.699 50.504ZM247.081 54.568C247.401 54.4187 247.668 54.3653 247.881 54.408C248.116 54.4293 248.372 54.568 248.649 54.824C248.884 55.016 249.033 55.176 249.097 55.304C249.161 55.4107 249.193 55.5813 249.193 55.816C249.193 56.8613 248.66 57.384 247.593 57.384C247.444 57.384 247.316 57.3733 247.209 57.352C247.124 57.3307 247.049 57.288 246.985 57.224C246.921 57.1813 246.836 57.1067 246.729 57C246.516 56.744 246.409 56.3707 246.409 55.88C246.409 55.496 246.452 55.2187 246.537 55.048C246.623 54.8773 246.804 54.7173 247.081 54.568Z" fill="#1A1A1A"/>
</svg>
