<svg width="283" height="117" viewBox="0 0 283 117" fill="none" xmlns="http://www.w3.org/2000/svg">
<path d="M72.3943 11.98C72.4743 11.76 72.6543 11.65 72.9343 11.65C73.3343 11.65 73.5843 11.81 73.6843 12.13C73.7843 12.43 73.7643 13.05 73.6243 13.99C73.4843 15.11 73.4943 15.76 73.6543 15.94C73.8343 16.1 74.4543 16.08 75.5143 15.88C76.4543 15.72 77.0843 15.68 77.4043 15.76C77.7243 15.82 77.8843 16.04 77.8843 16.42C77.8843 16.68 77.8143 16.85 77.6743 16.93C77.5543 17.01 77.2543 17.08 76.7743 17.14C76.0343 17.22 75.2643 17.39 74.4643 17.65L73.2643 18.04L73.3843 19.69L73.5043 21.31H72.7243C72.2243 21.31 71.9243 21.19 71.8243 20.95C71.7443 20.75 71.7843 19.27 71.9443 16.51C72.1243 13.75 72.2743 12.24 72.3943 11.98ZM65.4043 13.03C65.8043 12.57 66.1643 12.25 66.4843 12.07C66.8243 11.89 67.0543 11.85 67.1743 11.95C67.3143 12.05 67.3243 12.28 67.2043 12.64C67.0843 13 66.8343 13.43 66.4543 13.93C65.8943 14.59 65.6143 15.03 65.6143 15.25C65.6143 15.33 65.7343 15.48 65.9743 15.7C66.2143 15.9 66.4843 16.1 66.7843 16.3C68.3843 17.38 69.1843 18.25 69.1843 18.91C69.1843 19.89 68.5543 19.81 67.2943 18.67C66.8143 18.19 66.2943 17.77 65.7343 17.41C65.1743 17.03 64.7943 16.84 64.5943 16.84C64.4743 16.84 64.2443 17.21 63.9043 17.95C63.5643 18.69 63.3643 19.26 63.3043 19.66C63.2443 20.04 63.1543 20.28 63.0343 20.38C62.9343 20.46 62.7343 20.5 62.4343 20.5C62.1343 20.5 61.9343 20.46 61.8343 20.38C61.7343 20.3 61.6743 20.13 61.6543 19.87C61.5943 19.37 61.9743 18.37 62.7943 16.87C63.6343 15.37 64.5043 14.09 65.4043 13.03ZM68.9743 22.72C69.6743 22.46 70.2443 22.36 70.6843 22.42C71.1243 22.46 71.6543 22.68 72.2743 23.08C73.6343 23.98 74.2243 25.28 74.0443 26.98C73.9843 27.74 73.8243 28.34 73.5643 28.78C73.3043 29.22 72.8643 29.64 72.2443 30.04C71.9043 30.26 71.6043 30.39 71.3443 30.43C71.1043 30.49 70.7243 30.49 70.2043 30.43C69.3643 30.33 68.7043 30.17 68.2243 29.95C67.7643 29.75 67.3143 29.4 66.8743 28.9C66.2143 28.14 65.8943 27.28 65.9143 26.32C65.9343 25.34 66.2943 24.52 66.9943 23.86C67.4343 23.4 68.0943 23.02 68.9743 22.72ZM71.9743 24.73C71.1543 23.91 70.1643 23.79 69.0043 24.37C68.4443 24.63 68.0543 24.92 67.8343 25.24C67.6143 25.56 67.5043 26 67.5043 26.56C67.5043 26.86 67.5843 27.17 67.7443 27.49C67.9243 27.79 68.1543 28.06 68.4343 28.3C68.7343 28.54 69.0343 28.7 69.3343 28.78C69.7743 28.9 70.2743 28.89 70.8343 28.75C71.4143 28.61 71.8243 28.41 72.0643 28.15C72.4443 27.77 72.6243 27.21 72.6043 26.47C72.5843 25.71 72.3743 25.13 71.9743 24.73ZM90.2389 15.13C90.3989 14.69 90.6589 14.47 91.0189 14.47C91.1589 14.47 91.2689 14.49 91.3489 14.53C91.4489 14.57 91.5289 14.65 91.5889 14.77C91.6489 14.87 91.6889 15 91.7089 15.16C91.7289 15.32 91.7289 15.56 91.7089 15.88C91.7089 16.2 91.6889 16.56 91.6489 16.96C91.6089 17.34 91.5589 17.83 91.4989 18.43L91.3789 19.24L92.6389 19.06C93.7589 18.92 94.4189 18.75 94.6189 18.55C94.8189 18.35 94.9189 17.79 94.9189 16.87C94.9189 15.37 95.1489 14.61 95.6089 14.59C95.7489 14.59 95.8989 14.63 96.0589 14.71C96.2989 14.83 96.4389 14.97 96.4789 15.13C96.5189 15.27 96.5089 15.55 96.4489 15.97C96.3489 16.79 96.2589 18.71 96.1789 21.73C96.1189 24.09 96.0489 25.49 95.9689 25.93C95.9089 26.37 95.7489 26.65 95.4889 26.77C95.1089 26.95 94.8589 26.98 94.7389 26.86C94.6189 26.72 94.5789 25.66 94.6189 23.68C94.6589 21.92 94.5889 20.92 94.4089 20.68C94.2489 20.42 93.6589 20.44 92.6389 20.74L91.3189 21.1L91.4089 23.47C91.4489 24.51 91.4489 25.19 91.4089 25.51C91.3689 25.81 91.2589 26.01 91.0789 26.11C90.7989 26.29 90.5289 26.29 90.2689 26.11C90.0689 26.01 89.9489 25.68 89.9089 25.12C89.8689 24.54 89.8689 23.11 89.9089 20.83C89.9689 17.45 90.0789 15.55 90.2389 15.13ZM84.8989 14.95C85.1989 14.81 85.6289 14.76 86.1889 14.8C86.5489 14.82 86.7789 14.87 86.8789 14.95C86.9789 15.03 87.0289 15.23 87.0289 15.55V16.24L84.5089 16.51C82.7689 16.73 81.7189 16.91 81.3589 17.05C81.0589 17.17 80.8789 17.29 80.8189 17.41C80.7789 17.51 80.7889 17.71 80.8489 18.01C80.9489 18.61 80.9989 19.35 80.9989 20.23C80.9989 21.21 81.1089 21.84 81.3289 22.12C81.5689 22.38 82.1289 22.52 83.0089 22.54C83.9889 22.54 84.8589 22.48 85.6189 22.36C86.1589 22.28 86.5089 22.26 86.6689 22.3C86.8489 22.34 86.9989 22.46 87.1189 22.66C87.3589 23.12 87.3489 23.44 87.0889 23.62C86.8489 23.8 86.2589 23.93 85.3189 24.01C81.9189 24.27 80.1389 24.22 79.9789 23.86C79.8989 23.64 79.7589 22.38 79.5589 20.08C79.4389 18.56 79.3789 17.58 79.3789 17.14C79.3789 16.7 79.4589 16.41 79.6189 16.27C79.7589 16.13 80.0589 15.98 80.5189 15.82C80.9789 15.64 81.4889 15.49 82.0489 15.37C82.6089 15.25 83.0789 15.18 83.4589 15.16C84.0989 15.16 84.5789 15.09 84.8989 14.95ZM102.332 11.44C102.372 11.44 102.432 11.43 102.512 11.41C103.952 11.27 104.802 11.22 105.062 11.26C105.322 11.28 105.512 11.42 105.632 11.68C105.652 11.72 105.662 11.75 105.662 11.77C105.742 11.99 105.792 12.18 105.812 12.34C105.832 12.48 105.732 12.59 105.512 12.67C105.292 12.75 105.002 12.81 104.642 12.85C104.302 12.87 103.782 12.89 103.082 12.91C102.402 12.93 101.862 12.96 101.462 13C101.082 13.04 100.742 13.1 100.442 13.18C100.162 13.26 99.9617 13.4 99.8417 13.6C99.7217 13.78 99.6317 13.99 99.5717 14.23C99.5317 14.47 99.5117 14.81 99.5117 15.25V16.66L100.382 16.48C103.882 15.8 105.632 15.88 105.632 16.72C105.632 17.04 105.502 17.26 105.242 17.38C105.002 17.48 104.522 17.54 103.802 17.56C103.042 17.56 102.152 17.7 101.132 17.98C100.452 18.16 100.032 18.31 99.8717 18.43C99.7117 18.53 99.6517 18.71 99.6917 18.97C99.7317 19.45 99.8817 19.73 100.142 19.81C100.402 19.87 100.982 19.8 101.882 19.6C104.442 19.04 105.872 19 106.172 19.48C106.332 19.72 106.312 19.97 106.112 20.23C105.932 20.49 105.662 20.62 105.302 20.62C104.982 20.62 104.042 20.77 102.482 21.07C101.042 21.37 100.072 21.52 99.5717 21.52C99.0717 21.52 98.7817 21.39 98.7017 21.13C98.3617 20.07 98.1417 18.48 98.0417 16.36C97.9417 14.24 98.0217 13.03 98.2817 12.73C98.8817 12.05 100.232 11.62 102.332 11.44ZM108.602 12.73C108.682 12.51 108.862 12.39 109.142 12.37C109.442 12.33 109.652 12.41 109.772 12.61C109.872 12.77 109.942 14.31 109.982 17.23V21.58L109.442 21.7C109.082 21.78 108.832 21.72 108.692 21.52C108.532 21.28 108.432 19.88 108.392 17.32C108.372 14.76 108.442 13.23 108.602 12.73ZM107.222 23.41C107.642 23.27 107.872 23.2 107.912 23.2C107.952 23.2 108.032 23.23 108.152 23.29C108.292 23.33 108.432 23.4 108.572 23.5C108.712 23.6 108.842 23.7 108.962 23.8C109.102 23.88 109.192 23.95 109.232 24.01C109.352 24.21 109.412 25.09 109.412 26.65C109.412 28.03 109.302 28.85 109.082 29.11C108.882 29.37 108.182 29.56 106.982 29.68C106.702 29.7 106.232 29.74 105.572 29.8C104.932 29.88 104.522 29.93 104.342 29.95C104.062 29.99 103.832 30.01 103.652 30.01C103.472 30.01 103.302 29.99 103.142 29.95C102.982 29.93 102.862 29.87 102.782 29.77C102.702 29.67 102.622 29.55 102.542 29.41C102.482 29.29 102.432 29.09 102.392 28.81C102.372 28.55 102.352 28.28 102.332 28C102.332 27.7 102.332 27.32 102.332 26.86C102.332 25.3 102.392 24.43 102.512 24.25C102.632 24.07 103.002 23.98 103.622 23.98C104.782 23.98 105.982 23.79 107.222 23.41ZM107.852 25.21L106.922 25.15C106.582 25.15 106.222 25.18 105.842 25.24C105.462 25.28 105.102 25.36 104.762 25.48C104.442 25.6 104.212 25.72 104.072 25.84C103.852 26.02 103.742 26.49 103.742 27.25V28.39L105.122 28.24C105.362 28.2 105.712 28.15 106.172 28.09C106.632 28.05 106.922 28.02 107.042 28C107.122 28 107.212 27.99 107.312 27.97C107.432 27.95 107.522 27.94 107.582 27.94C107.662 27.94 107.712 27.94 107.732 27.94C107.812 27.9 107.852 27.43 107.852 26.53V25.21ZM114.428 9.61C115.648 9.03 116.858 9.01 118.058 9.55C119.278 10.09 120.088 11.01 120.488 12.31C120.588 12.69 120.628 13.02 120.608 13.3C120.588 13.58 120.508 13.96 120.368 14.44C120.148 15.1 119.798 15.66 119.318 16.12C118.858 16.58 118.238 16.99 117.458 17.35C117.018 17.53 116.678 17.63 116.438 17.65C116.198 17.67 115.868 17.62 115.448 17.5C115.088 17.42 114.718 17.31 114.338 17.17C113.978 17.01 113.658 16.85 113.378 16.69C113.098 16.53 112.888 16.38 112.748 16.24C112.548 16.06 112.348 15.81 112.148 15.49C111.948 15.17 111.788 14.85 111.668 14.53C111.548 14.21 111.488 13.95 111.488 13.75C111.488 12.95 111.758 12.16 112.298 11.38C112.858 10.6 113.568 10.01 114.428 9.61ZM118.148 11.26C117.788 10.92 117.318 10.75 116.738 10.75C116.158 10.73 115.608 10.84 115.088 11.08C114.568 11.32 114.108 11.67 113.708 12.13C113.328 12.57 113.138 13.04 113.138 13.54C113.138 14 113.348 14.47 113.768 14.95C114.208 15.43 114.708 15.75 115.268 15.91C115.848 16.09 116.368 16.1 116.828 15.94C117.288 15.76 117.818 15.35 118.418 14.71C118.898 14.27 119.158 13.96 119.198 13.78C119.258 13.6 119.218 13.27 119.078 12.79C118.858 12.15 118.548 11.64 118.148 11.26ZM120.098 18.73C120.838 18.41 121.378 18.5 121.718 19C121.878 19.24 121.958 19.41 121.958 19.51C121.958 19.61 121.868 19.76 121.688 19.96C121.448 20.24 120.828 20.38 119.828 20.38C118.788 20.38 117.478 20.55 115.898 20.89C114.278 21.23 113.198 21.4 112.658 21.4C112.298 21.42 112.068 21.4 111.968 21.34C111.888 21.26 111.848 21.09 111.848 20.83C111.848 20.61 111.928 20.41 112.088 20.23C112.248 20.05 112.478 19.91 112.778 19.81C113.098 19.71 113.448 19.66 113.828 19.66C114.368 19.66 115.038 19.55 115.838 19.33C116.578 19.11 117.398 18.98 118.298 18.94C119.198 18.94 119.798 18.87 120.098 18.73ZM117.248 22.69C117.808 22.47 118.468 22.43 119.228 22.57C120.008 22.69 120.508 22.93 120.728 23.29C120.848 23.47 120.898 24 120.878 24.88C120.878 25.74 120.818 26.33 120.698 26.65C120.438 27.29 119.288 27.67 117.248 27.79C116.048 27.85 115.408 27.88 115.328 27.88C115.128 27.9 115.028 28.1 115.028 28.48C115.028 28.86 115.188 29.08 115.508 29.14C115.848 29.22 116.428 29.17 117.248 28.99C119.588 28.41 120.918 28.39 121.238 28.93C121.298 29.13 121.338 29.29 121.358 29.41C121.398 29.53 121.258 29.65 120.938 29.77C120.618 29.89 120.208 30 119.708 30.1C119.208 30.22 118.458 30.37 117.458 30.55C115.998 30.79 114.938 30.75 114.278 30.43C113.638 30.11 113.318 29.46 113.318 28.48C113.318 27.8 113.508 27.34 113.888 27.1C114.288 26.84 115.128 26.65 116.408 26.53C117.888 26.35 118.738 26.18 118.958 26.02C119.178 25.84 119.288 25.48 119.288 24.94C119.288 24.56 119.248 24.34 119.168 24.28C119.088 24.2 118.828 24.16 118.388 24.16C117.848 24.16 116.908 24.29 115.568 24.55C114.128 24.85 113.348 24.85 113.228 24.55C113.188 24.41 113.228 24.19 113.348 23.89C113.428 23.63 113.578 23.45 113.798 23.35C114.018 23.23 114.418 23.11 114.998 22.99C115.978 22.79 116.518 22.72 116.618 22.78C116.738 22.86 116.948 22.83 117.248 22.69ZM136.185 10.03C136.445 9.87 136.715 9.87 136.995 10.03C137.175 10.13 137.285 10.3 137.325 10.54C137.365 10.76 137.345 11.28 137.265 12.1L137.115 13.96L138.555 13.75C139.575 13.57 140.185 13.53 140.385 13.63C140.605 13.71 140.715 13.91 140.715 14.23C140.715 14.53 140.615 14.77 140.415 14.95C140.115 15.19 139.735 15.69 139.275 16.45C138.815 17.19 138.585 17.68 138.585 17.92C138.585 18.1 138.705 18.35 138.945 18.67C139.185 18.97 139.485 19.27 139.845 19.57C140.225 19.85 140.575 20.06 140.895 20.2C141.215 20.34 141.375 20.58 141.375 20.92C141.395 21.24 141.245 21.43 140.925 21.49C140.725 21.53 140.465 21.5 140.145 21.4C139.825 21.28 139.485 21.11 139.125 20.89C138.785 20.65 138.455 20.38 138.135 20.08L137.355 19.33L136.095 20.74C135.515 21.36 135.125 21.73 134.925 21.85C134.725 21.95 134.495 21.94 134.235 21.82C133.835 21.66 133.645 21.46 133.665 21.22C133.685 20.98 133.915 20.65 134.355 20.23C134.835 19.81 135.525 19.04 136.425 17.92C137.345 16.8 137.905 16.05 138.105 15.67C138.265 15.37 138.315 15.22 138.255 15.22L137.985 15.28C137.785 15.36 137.065 15.53 135.825 15.79C134.605 16.03 133.835 16.16 133.515 16.18C133.115 16.2 132.835 16.17 132.675 16.09C132.535 15.99 132.465 15.81 132.465 15.55C132.465 15.21 132.625 14.95 132.945 14.77C133.285 14.57 133.755 14.47 134.355 14.47C135.035 14.47 135.435 14.37 135.555 14.17C135.695 13.95 135.765 13.3 135.765 12.22C135.765 11.66 135.775 11.24 135.795 10.96C135.835 10.68 135.875 10.47 135.915 10.33C135.975 10.19 136.065 10.09 136.185 10.03ZM143.805 13.48C143.945 13.22 144.115 13.09 144.315 13.09C144.535 13.07 144.755 13.17 144.975 13.39C145.115 13.57 145.175 13.82 145.155 14.14C145.135 14.46 145.015 15.11 144.795 16.09L144.645 16.87L145.575 16.81C146.195 16.75 146.635 16.65 146.895 16.51C147.075 16.41 147.245 16.39 147.405 16.45C147.585 16.49 147.735 16.61 147.855 16.81C147.975 16.99 148.035 17.2 148.035 17.44C148.035 17.8 147.975 17.99 147.855 18.01C146.915 18.09 146.065 18.24 145.305 18.46L144.315 18.73L144.435 20.62C144.475 21.42 144.475 21.94 144.435 22.18C144.415 22.42 144.315 22.57 144.135 22.63C143.755 22.77 143.455 22.72 143.235 22.48C143.035 22.22 142.925 21.78 142.905 21.16C142.865 20.44 142.965 19.06 143.205 17.02C143.445 14.98 143.645 13.8 143.805 13.48ZM139.725 24.01C141.185 23.83 142.225 23.75 142.845 23.77C143.285 23.79 143.575 23.83 143.715 23.89C143.855 23.95 143.935 24.09 143.955 24.31C144.015 24.65 143.915 25.07 143.655 25.57C143.415 26.05 143.345 26.48 143.445 26.86C143.565 27.22 143.905 27.71 144.465 28.33C145.625 29.65 146.055 30.46 145.755 30.76C145.495 31.02 145.145 31.02 144.705 30.76C144.285 30.52 143.825 30.05 143.325 29.35C142.665 28.39 142.265 27.91 142.125 27.91C141.965 27.91 141.455 28.43 140.595 29.47C139.675 30.47 139.025 30.97 138.645 30.97C137.625 30.97 138.035 29.96 139.875 27.94C139.975 27.86 140.065 27.78 140.145 27.7C141.745 25.98 142.365 25.12 142.005 25.12C141.945 25.14 141.855 25.17 141.735 25.21C141.475 25.31 140.825 25.43 139.785 25.57C138.825 25.71 138.275 25.82 138.135 25.9C137.995 25.98 137.755 25.93 137.415 25.75C137.095 25.57 136.935 25.41 136.935 25.27C136.935 24.95 137.145 24.7 137.565 24.52C137.985 24.32 138.705 24.15 139.725 24.01ZM155.845 12.1C156.445 12 157.195 11.95 158.095 11.95L159.385 11.98L159.325 15.49C159.305 17.81 159.245 19.05 159.145 19.21C159.005 19.41 158.785 19.48 158.485 19.42C158.185 19.36 157.965 19.19 157.825 18.91C157.645 18.55 157.605 17.54 157.705 15.88L157.855 13.39L155.545 13.72C154.145 13.9 153.105 14.08 152.425 14.26C151.725 14.44 151.235 14.51 150.955 14.47C150.675 14.43 150.535 14.26 150.535 13.96C150.535 13.52 150.755 13.21 151.195 13.03C151.635 12.83 152.515 12.64 153.835 12.46C154.475 12.38 155.145 12.26 155.845 12.1ZM153.835 20.83C154.275 20.55 154.555 20.59 154.675 20.95C154.775 21.27 154.845 22.06 154.885 23.32C154.905 24.82 154.995 25.64 155.155 25.78C155.275 25.9 156.215 25.91 157.975 25.81C159.055 25.75 159.775 25.73 160.135 25.75C160.495 25.77 160.735 25.86 160.855 26.02C161.255 26.52 161.165 26.95 160.585 27.31C160.345 27.47 160.145 27.56 159.985 27.58C159.845 27.58 159.675 27.53 159.475 27.43C159.115 27.25 158.545 27.21 157.765 27.31C156.865 27.39 155.945 27.47 155.005 27.55C154.145 27.63 153.115 27.76 151.915 27.94C150.855 28.12 150.195 28.11 149.935 27.91C149.335 27.39 149.425 26.96 150.205 26.62C150.645 26.44 151.215 26.32 151.915 26.26L153.415 26.14L153.475 23.59C153.475 23.07 153.475 22.66 153.475 22.36C153.495 22.04 153.515 21.77 153.535 21.55C153.575 21.33 153.615 21.17 153.655 21.07C153.715 20.97 153.775 20.89 153.835 20.83ZM175.835 11.53C176.035 11.45 176.235 11.43 176.435 11.47C176.635 11.51 177.055 11.65 177.695 11.89C178.195 12.07 178.615 12.3 178.955 12.58C179.315 12.84 179.615 13.17 179.855 13.57C180.095 13.97 180.315 14.47 180.515 15.07C180.715 15.71 180.785 16.29 180.725 16.81C180.685 17.33 180.495 17.92 180.155 18.58C179.775 19.32 179.205 19.88 178.445 20.26C177.705 20.64 176.835 20.83 175.835 20.83C175.415 20.83 175.045 20.79 174.725 20.71C174.405 20.63 174.095 20.49 173.795 20.29C173.495 20.09 173.215 19.84 172.955 19.54C172.715 19.22 172.475 18.82 172.235 18.34C171.835 17.6 171.625 16.96 171.605 16.42C171.585 15.86 171.745 15.18 172.085 14.38C172.265 13.88 172.675 13.34 173.315 12.76C173.975 12.18 174.515 11.84 174.935 11.74C175.395 11.66 175.695 11.59 175.835 11.53ZM178.235 13.87C177.555 13.23 176.825 12.98 176.045 13.12C175.265 13.24 174.545 13.73 173.885 14.59C173.505 15.05 173.315 15.64 173.315 16.36C173.335 17.06 173.535 17.69 173.915 18.25C174.455 19.05 175.145 19.46 175.985 19.48C176.825 19.48 177.615 19.09 178.355 18.31C178.535 18.11 178.675 17.95 178.775 17.83C178.875 17.71 178.955 17.57 179.015 17.41C179.075 17.23 179.105 17.05 179.105 16.87C179.125 16.69 179.135 16.43 179.135 16.09C179.135 15.41 179.085 14.97 178.985 14.77C178.905 14.55 178.655 14.25 178.235 13.87ZM183.995 11.98C184.395 11.52 184.745 11.52 185.045 11.98C185.305 12.4 185.375 12.99 185.255 13.75C185.175 14.27 185.115 15.73 185.075 18.13C185.055 19.85 185.015 20.87 184.955 21.19C184.915 21.51 184.765 21.69 184.505 21.73C184.265 21.77 184.075 21.74 183.935 21.64C183.795 21.52 183.685 21.28 183.605 20.92C183.525 20.54 183.485 20 183.485 19.3C183.505 18.6 183.525 17.68 183.545 16.54C183.625 13.72 183.775 12.2 183.995 11.98ZM177.395 23.95C177.755 23.53 178.045 23.29 178.265 23.23C178.505 23.17 178.795 23.26 179.135 23.5C179.335 23.66 179.425 23.79 179.405 23.89C179.385 23.97 179.225 24.15 178.925 24.43C178.645 24.67 178.475 24.86 178.415 25C178.375 25.14 178.395 25.3 178.475 25.48C178.535 25.58 178.685 25.71 178.925 25.87C179.165 26.01 179.415 26.14 179.675 26.26C179.955 26.38 180.235 26.49 180.515 26.59C180.815 26.69 181.055 26.75 181.235 26.77C181.415 26.79 181.525 26.77 181.565 26.71C181.625 26.51 181.895 25.97 182.375 25.09C182.855 24.21 183.165 23.67 183.305 23.47C183.485 23.29 183.715 23.2 183.995 23.2C184.235 23.2 184.375 23.28 184.415 23.44C184.475 23.58 184.485 23.92 184.445 24.46C184.445 24.72 184.535 24.99 184.715 25.27C184.895 25.55 185.265 25.97 185.825 26.53C187.025 27.73 187.535 28.48 187.355 28.78C187.295 28.86 187.185 28.93 187.025 28.99C186.825 29.05 186.565 29.01 186.245 28.87C185.945 28.75 185.635 28.55 185.315 28.27C184.995 27.99 184.705 27.67 184.445 27.31C184.045 26.77 183.745 26.5 183.545 26.5C183.345 26.5 183.245 26.51 183.245 26.53C183.245 26.55 183.095 27.01 182.795 27.91C182.615 28.47 182.465 28.83 182.345 28.99C182.225 29.17 182.045 29.27 181.805 29.29C181.565 29.31 181.395 29.29 181.295 29.23C181.195 29.17 181.115 29.02 181.055 28.78C180.975 28.36 180.835 28.15 180.635 28.15C180.435 28.15 179.845 27.9 178.865 27.4C178.025 27 177.495 26.83 177.275 26.89C177.075 26.93 176.905 27.27 176.765 27.91C176.605 28.55 176.445 28.98 176.285 29.2C176.145 29.44 175.925 29.56 175.625 29.56C174.965 29.56 174.755 29.14 174.995 28.3C175.115 27.9 175.355 27.34 175.715 26.62C176.395 25.3 176.955 24.41 177.395 23.95ZM192.791 14.8C193.091 14.7 193.351 14.67 193.571 14.71C193.811 14.75 194.181 14.88 194.681 15.1C195.441 15.46 196.031 15.84 196.451 16.24C196.891 16.64 197.191 17.13 197.351 17.71C197.531 18.29 197.621 19.06 197.621 20.02C197.621 21.26 197.251 22.3 196.511 23.14C195.771 23.96 194.851 24.38 193.751 24.4C193.031 24.4 192.231 24.18 191.351 23.74C190.491 23.28 189.881 22.76 189.521 22.18C189.121 21.56 188.911 20.88 188.891 20.14C188.871 19.38 189.011 18.65 189.311 17.95C189.611 17.25 190.071 16.62 190.691 16.06C191.311 15.48 192.011 15.06 192.791 14.8ZM195.221 17.05C194.761 16.69 194.301 16.47 193.841 16.39C193.381 16.29 192.991 16.34 192.671 16.54C191.711 17.14 191.041 17.85 190.661 18.67C190.301 19.49 190.311 20.23 190.691 20.89C191.111 21.57 191.721 22.1 192.521 22.48C193.321 22.86 193.971 22.92 194.471 22.66C194.811 22.46 195.111 22.24 195.371 22C195.651 21.76 195.861 21.5 196.001 21.22C196.141 20.94 196.211 20.67 196.211 20.41C196.211 19.61 196.111 18.9 195.911 18.28C195.731 17.66 195.501 17.25 195.221 17.05ZM201.971 16.27C202.071 15.87 202.311 15.67 202.691 15.67C203.091 15.67 203.341 15.77 203.441 15.97C203.581 16.23 203.591 17.44 203.471 19.6C203.371 21.7 203.301 23.48 203.261 24.94C203.241 25.84 203.201 26.42 203.141 26.68C203.081 26.94 202.961 27.12 202.781 27.22C202.461 27.4 202.181 27.44 201.941 27.34C201.781 27.28 201.691 27.06 201.671 26.68C201.651 26.28 201.671 25.4 201.731 24.04C201.811 22.48 201.841 21.56 201.821 21.28C201.801 20.98 201.671 20.83 201.431 20.83C201.131 20.83 200.751 20.92 200.291 21.1C199.831 21.28 199.351 21.32 198.851 21.22C198.351 21.1 198.101 20.9 198.101 20.62C198.101 20.42 198.191 20.24 198.371 20.08C198.551 19.9 198.811 19.75 199.151 19.63C199.511 19.51 199.931 19.42 200.411 19.36C201.211 19.28 201.701 19.19 201.881 19.09C202.041 18.99 202.061 18.59 201.941 17.89C201.861 17.17 201.871 16.63 201.971 16.27ZM207.973 11.35C208.693 11.09 209.383 11.01 210.043 11.11C210.723 11.19 211.353 11.46 211.933 11.92C212.533 12.38 213.023 13 213.403 13.78C213.783 14.52 213.963 15.21 213.943 15.85C213.943 16.49 213.743 17.2 213.343 17.98C213.023 18.62 212.643 19.1 212.203 19.42C211.763 19.72 211.203 19.92 210.523 20.02C209.383 20.18 208.303 19.96 207.283 19.36C206.263 18.76 205.613 17.99 205.333 17.05C204.933 15.77 204.973 14.63 205.453 13.63C205.933 12.63 206.773 11.87 207.973 11.35ZM210.403 12.58C210.203 12.58 209.983 12.54 209.743 12.46C209.383 12.34 208.813 12.56 208.033 13.12C207.253 13.68 206.783 14.22 206.623 14.74C206.563 14.94 206.553 15.18 206.593 15.46C206.633 15.72 206.703 15.99 206.803 16.27C206.903 16.53 207.033 16.79 207.193 17.05C207.373 17.31 207.563 17.53 207.763 17.71C208.523 18.39 209.293 18.7 210.073 18.64C210.853 18.58 211.473 18.17 211.933 17.41C212.673 16.21 212.553 14.96 211.573 13.66C210.993 12.94 210.603 12.58 210.403 12.58ZM211.663 21.91C211.823 21.53 212.023 21.34 212.263 21.34C212.523 21.32 212.743 21.51 212.923 21.91C213.083 22.29 213.063 22.95 212.863 23.89C212.663 24.79 212.623 25.34 212.743 25.54C212.843 25.72 213.443 25.81 214.543 25.81C215.303 25.81 215.773 25.84 215.953 25.9C216.153 25.94 216.303 26.08 216.403 26.32C216.543 26.74 216.493 27.03 216.253 27.19C216.033 27.35 215.533 27.42 214.753 27.4C214.133 27.38 213.363 27.42 212.443 27.52C211.543 27.6 210.903 27.69 210.523 27.79C210.343 27.85 209.883 27.94 209.143 28.06C208.423 28.2 207.713 28.33 207.013 28.45C206.313 28.57 205.893 28.63 205.753 28.63C205.513 28.63 205.333 28.47 205.213 28.15C205.093 27.83 205.123 27.56 205.302 27.34C205.463 27.14 205.853 26.99 206.473 26.89L207.343 26.77V24.85C207.363 23.79 207.443 23.12 207.583 22.84C207.723 22.54 208.023 22.45 208.483 22.57C208.763 22.65 208.923 22.78 208.963 22.96C209.023 23.12 209.043 23.62 209.023 24.46L208.963 26.14L210.133 26.23C210.873 26.27 211.243 26.23 211.243 26.11C211.243 25.57 211.263 25 211.303 24.4C211.363 23.8 211.423 23.28 211.483 22.84C211.563 22.4 211.623 22.09 211.663 21.91ZM220.203 12.94C220.303 12.84 220.453 12.8 220.653 12.82C220.853 12.84 221.023 12.92 221.163 13.06C221.263 13.16 221.323 13.29 221.343 13.45C221.363 13.59 221.363 13.93 221.343 14.47C221.303 15.23 221.213 16.07 221.073 16.99C220.933 17.91 220.803 18.48 220.683 18.7C220.583 18.9 220.543 19.22 220.563 19.66C220.603 20.08 220.693 20.49 220.833 20.89C220.973 21.31 221.023 21.64 220.983 21.88C220.943 22.12 220.803 22.36 220.563 22.6C220.343 22.82 220.123 22.94 219.903 22.96C219.703 22.96 219.543 22.87 219.423 22.69C219.303 22.51 219.233 21.75 219.213 20.41C219.193 19.05 219.243 18.23 219.363 17.95C219.443 17.75 219.523 17.38 219.603 16.84C219.723 16.08 219.803 15.57 219.843 15.31C219.923 14.71 219.983 14.22 220.023 13.84C220.063 13.36 220.123 13.06 220.203 12.94ZM218.613 26.98C218.853 26.84 219.143 26.86 219.483 27.04C219.863 27.24 220.053 27.59 220.053 28.09C220.053 28.57 219.863 28.9 219.483 29.08C219.123 29.28 218.743 29.25 218.343 28.99C218.083 28.85 217.953 28.64 217.953 28.36C217.953 28.16 218.023 27.9 218.163 27.58C218.323 27.26 218.473 27.06 218.613 26.98Z" fill="#1A1A1A"/>
<path d="M43.3782 64.89C43.5582 64.43 43.9882 64.37 44.6682 64.71C44.8282 64.81 44.9182 64.93 44.9382 65.07C44.9782 65.21 44.9582 65.46 44.8782 65.82C44.7582 66.46 44.6582 67.16 44.5782 67.92L44.4582 69.18L45.5382 69.03C46.9982 68.85 47.7282 68.61 47.7282 68.31C47.8082 66.75 47.9182 65.73 48.0582 65.25C48.2182 64.75 48.4982 64.55 48.8982 64.65C49.2182 64.73 49.4082 64.93 49.4682 65.25C49.5482 65.55 49.5282 66.05 49.4082 66.75C49.2482 67.57 49.1082 69.39 48.9882 72.21C48.9282 74.15 48.8582 75.37 48.7782 75.87C48.7182 76.35 48.5882 76.65 48.3882 76.77C48.0882 76.93 47.8182 76.96 47.5782 76.86C47.4182 76.8 47.3182 76.58 47.2782 76.2C47.2582 75.8 47.2582 74.93 47.2782 73.59L47.3682 70.5L46.6182 70.53C46.1382 70.53 45.6282 70.64 45.0882 70.86L44.3682 71.16L44.4582 73.56C44.5182 74.38 44.5282 75.01 44.4882 75.45C44.4482 75.87 44.3682 76.15 44.2482 76.29C44.1482 76.43 43.9682 76.5 43.7082 76.5C43.2482 76.5 42.9782 76.2 42.8982 75.6C42.8382 75 42.8582 73.32 42.9582 70.56C43.1382 67 43.2782 65.11 43.3782 64.89ZM37.8282 65.1C38.8682 64.94 39.4782 65.07 39.6582 65.49C39.8382 65.89 39.8782 67.23 39.7782 69.51C39.6982 71.35 39.6282 72.44 39.5682 72.78C39.5082 73.12 39.3282 73.36 39.0282 73.5C38.6282 73.74 37.4982 73.87 35.6382 73.89L32.9082 73.95L32.6682 73.02C32.5682 72.64 32.4882 71.82 32.4282 70.56C32.3682 69.3 32.3582 68.24 32.3982 67.38C32.4382 66.4 34.2482 65.64 37.8282 65.1ZM38.4582 66.84H37.6182C37.0982 66.84 36.3382 66.98 35.3382 67.26L33.9282 67.65L33.8682 69.45C33.8082 70.53 33.8282 71.29 33.9282 71.73C34.0082 72.01 34.1382 72.17 34.3182 72.21C34.4982 72.25 35.0682 72.24 36.0282 72.18L37.9482 72.09L38.0982 71.28C38.1982 70.74 38.2782 69.87 38.3382 68.67L38.4582 66.84ZM54.9603 60.18C55.0003 60.06 55.1803 60 55.5003 60C55.7603 60 55.9303 60.19 56.0103 60.57C56.1103 60.93 56.0903 61.44 55.9503 62.1C55.8703 62.52 55.8103 62.8 55.7703 62.94C55.7503 63.08 55.7403 63.26 55.7403 63.48C55.7403 63.68 55.7503 63.8 55.7703 63.84C55.7903 63.86 55.8803 63.89 56.0403 63.93C56.2003 63.97 56.3403 63.98 56.4603 63.96C56.5803 63.94 56.8003 63.91 57.1203 63.87C58.3003 63.73 58.9603 63.86 59.1003 64.26C59.2603 64.64 58.9103 65.37 58.0503 66.45C57.4303 67.21 57.1203 67.65 57.1203 67.77C57.1203 67.89 57.3203 68.12 57.7203 68.46C58.1203 68.8 58.5803 69.12 59.1003 69.42C59.7203 69.8 60.0303 70.21 60.0303 70.65C60.0103 70.93 59.8203 71.07 59.4603 71.07C59.1203 71.07 58.6703 70.92 58.1103 70.62C57.5703 70.3 57.0603 69.91 56.5803 69.45L55.9203 68.85L55.3203 69.54C54.5603 70.44 54.0103 71.04 53.6703 71.34C53.3503 71.64 53.0803 71.79 52.8603 71.79C52.5403 71.79 52.3403 71.67 52.2603 71.43C52.1803 71.17 52.2503 70.87 52.4703 70.53C52.7103 70.19 53.5103 69.31 54.8703 67.89C56.2303 66.45 56.9103 65.67 56.9103 65.55C56.9103 65.53 56.8803 65.51 56.8203 65.49C56.7803 65.47 56.7203 65.46 56.6403 65.46C56.5603 65.46 56.4703 65.48 56.3703 65.52C55.9103 65.62 54.9903 65.79 53.6103 66.03C52.0303 66.29 51.1803 66.29 51.0603 66.03C51.0003 65.89 51.0403 65.67 51.1803 65.37C51.2603 65.15 51.4103 64.99 51.6303 64.89C51.8703 64.79 52.3003 64.69 52.9203 64.59C53.9403 64.43 54.4203 64.25 54.3603 64.05C54.3203 63.89 54.3903 63.24 54.5703 62.1C54.7503 60.96 54.8803 60.32 54.9603 60.18ZM62.0703 64.23C62.2103 63.97 62.3303 63.83 62.4303 63.81C62.5303 63.79 62.7303 63.86 63.0303 64.02C63.2503 64.14 63.3803 64.4 63.4203 64.8C63.4603 65.18 63.4803 66.15 63.4803 67.71C63.4403 70.11 63.3903 71.4 63.3303 71.58C63.2503 71.86 63.0303 72.01 62.6703 72.03C62.3103 72.03 62.0803 71.9 61.9803 71.64C61.8603 71.32 61.8103 70.07 61.8303 67.89C61.8703 65.69 61.9503 64.47 62.0703 64.23ZM57.6603 73.83C58.2003 73.57 58.9303 73.44 59.8503 73.44C60.2703 73.44 60.6203 73.48 60.9003 73.56C61.2003 73.62 61.4703 73.72 61.7103 73.86C61.9503 74 62.1603 74.19 62.3403 74.43C62.5203 74.65 62.7003 74.93 62.8803 75.27C63.1003 75.69 63.1903 76.25 63.1503 76.95C63.1103 77.63 62.9403 78.33 62.6403 79.05C62.4803 79.47 62.0903 79.85 61.4703 80.19C60.8703 80.55 60.2803 80.74 59.7003 80.76C59.2003 80.76 58.6103 80.57 57.9303 80.19C57.2503 79.81 56.7303 79.39 56.3703 78.93C55.7503 78.09 55.5703 77.13 55.8303 76.05C56.1103 74.97 56.7203 74.23 57.6603 73.83ZM60.9903 75.21C60.5103 74.85 59.8803 74.77 59.1003 74.97C58.3203 75.15 57.7703 75.51 57.4503 76.05C57.2103 76.49 57.1203 76.85 57.1803 77.13C57.2403 77.41 57.4903 77.78 57.9303 78.24C58.9703 79.36 60.0003 79.44 61.0203 78.48C61.3203 78.2 61.5003 77.97 61.5603 77.79C61.6203 77.59 61.6203 77.23 61.5603 76.71C61.4603 75.91 61.2703 75.41 60.9903 75.21ZM78.1697 59.1C78.5497 58.4 78.8697 58.34 79.1297 58.92C79.3297 59.36 79.4197 60.04 79.3997 60.96V62.64L80.1497 62.49C80.4097 62.43 81.1097 62.33 82.2497 62.19C82.8497 62.13 83.2397 62.12 83.4197 62.16C83.5997 62.2 83.7697 62.35 83.9297 62.61C84.2097 63.01 84.2297 63.3 83.9897 63.48C83.7497 63.64 83.1397 63.77 82.1597 63.87C79.6597 64.07 77.7297 64.39 76.3697 64.83C75.6697 65.07 75.0897 65.16 74.6297 65.1C74.1897 65.02 73.9697 64.81 73.9697 64.47C73.9697 64.27 74.0497 64.1 74.2097 63.96C74.3897 63.82 74.6797 63.69 75.0797 63.57C75.4997 63.43 76.1497 63.27 77.0297 63.09L77.8097 62.94L77.8697 61.29C77.8897 60.21 77.9897 59.48 78.1697 59.1ZM78.2597 65.73C78.8797 65.53 79.3997 65.45 79.8197 65.49C80.2597 65.53 80.8097 65.7 81.4697 66C82.6497 66.6 83.2897 67.53 83.3897 68.79C83.5097 70.03 83.0497 71.14 82.0097 72.12C81.7097 72.42 81.4197 72.62 81.1397 72.72C80.8597 72.8 80.3997 72.86 79.7597 72.9C78.1797 73 76.9797 72.66 76.1597 71.88C75.7997 71.52 75.5597 70.96 75.4397 70.2C75.3397 69.44 75.3997 68.75 75.6197 68.13C75.6997 67.93 75.8397 67.7 76.0397 67.44C76.2397 67.18 76.4597 66.94 76.6997 66.72C76.9597 66.48 77.2297 66.27 77.5097 66.09C77.7897 65.91 78.0397 65.79 78.2597 65.73ZM81.6797 67.92C81.0797 67.06 80.1897 66.83 79.0097 67.23C77.9897 67.57 77.3297 68.14 77.0297 68.94C76.7497 69.74 76.9497 70.43 77.6297 71.01C77.9097 71.25 78.1597 71.4 78.3797 71.46C78.5997 71.52 78.9597 71.53 79.4597 71.49C80.2197 71.41 80.7897 71.18 81.1697 70.8C81.5697 70.44 81.8197 69.96 81.9197 69.36C82.0197 68.76 81.9397 68.28 81.6797 67.92ZM82.3397 74.76C82.6797 74.7 83.0697 74.69 83.5097 74.73C83.8097 74.73 84.0097 74.78 84.1097 74.88C84.2097 74.96 84.2697 75.12 84.2897 75.36C84.3497 75.72 84.2597 75.96 84.0197 76.08C83.7997 76.18 83.2397 76.26 82.3397 76.32L81.3797 76.38V77.55C81.3797 78.27 81.4497 79.04 81.5897 79.86C81.6897 80.4 81.7197 80.73 81.6797 80.85C81.6397 80.97 81.4597 81.06 81.1397 81.12C80.7397 81.22 80.4497 81.19 80.2697 81.03C80.1097 80.87 79.9897 80.07 79.9097 78.63L79.7897 76.47L78.8297 76.62C78.3497 76.68 77.6497 76.81 76.7297 77.01C75.7697 77.23 75.1797 77.13 74.9597 76.71C74.7997 76.41 74.9397 76.07 75.3797 75.69C75.6797 75.41 76.8397 75.2 78.8597 75.06C80.8397 74.92 81.9997 74.82 82.3397 74.76ZM105.54 61.98C105.62 61.76 105.8 61.65 106.08 61.65C106.48 61.65 106.73 61.81 106.83 62.13C106.93 62.43 106.91 63.05 106.77 63.99C106.63 65.11 106.64 65.76 106.8 65.94C106.98 66.1 107.6 66.08 108.66 65.88C109.6 65.72 110.23 65.68 110.55 65.76C110.87 65.82 111.03 66.04 111.03 66.42C111.03 66.68 110.96 66.85 110.82 66.93C110.7 67.01 110.4 67.08 109.92 67.14C109.18 67.22 108.41 67.39 107.61 67.65L106.41 68.04L106.53 69.69L106.65 71.31H105.87C105.37 71.31 105.07 71.19 104.97 70.95C104.89 70.75 104.93 69.27 105.09 66.51C105.27 63.75 105.42 62.24 105.54 61.98ZM98.5498 63.03C98.9498 62.57 99.3098 62.25 99.6298 62.07C99.9698 61.89 100.2 61.85 100.32 61.95C100.46 62.05 100.47 62.28 100.35 62.64C100.23 63 99.9798 63.43 99.5998 63.93C99.0398 64.59 98.7598 65.03 98.7598 65.25C98.7598 65.33 98.8798 65.48 99.1198 65.7C99.3598 65.9 99.6298 66.1 99.9298 66.3C101.53 67.38 102.33 68.25 102.33 68.91C102.33 69.89 101.7 69.81 100.44 68.67C99.9598 68.19 99.4398 67.77 98.8798 67.41C98.3198 67.03 97.9398 66.84 97.7398 66.84C97.6198 66.84 97.3898 67.21 97.0498 67.95C96.7098 68.69 96.5098 69.26 96.4498 69.66C96.3898 70.04 96.2998 70.28 96.1798 70.38C96.0798 70.46 95.8798 70.5 95.5798 70.5C95.2798 70.5 95.0798 70.46 94.9798 70.38C94.8798 70.3 94.8198 70.13 94.7998 69.87C94.7398 69.37 95.1198 68.37 95.9398 66.87C96.7798 65.37 97.6498 64.09 98.5498 63.03ZM102.12 72.72C102.82 72.46 103.39 72.36 103.83 72.42C104.27 72.46 104.8 72.68 105.42 73.08C106.78 73.98 107.37 75.28 107.19 76.98C107.13 77.74 106.97 78.34 106.71 78.78C106.45 79.22 106.01 79.64 105.39 80.04C105.05 80.26 104.75 80.39 104.49 80.43C104.25 80.49 103.87 80.49 103.35 80.43C102.51 80.33 101.85 80.17 101.37 79.95C100.91 79.75 100.46 79.4 100.02 78.9C99.3598 78.14 99.0398 77.28 99.0598 76.32C99.0798 75.34 99.4398 74.52 100.14 73.86C100.58 73.4 101.24 73.02 102.12 72.72ZM105.12 74.73C104.3 73.91 103.31 73.79 102.15 74.37C101.59 74.63 101.2 74.92 100.98 75.24C100.76 75.56 100.65 76 100.65 76.56C100.65 76.86 100.73 77.17 100.89 77.49C101.07 77.79 101.3 78.06 101.58 78.3C101.88 78.54 102.18 78.7 102.48 78.78C102.92 78.9 103.42 78.89 103.98 78.75C104.56 78.61 104.97 78.41 105.21 78.15C105.59 77.77 105.77 77.21 105.75 76.47C105.73 75.71 105.52 75.13 105.12 74.73ZM123.384 65.13C123.544 64.69 123.804 64.47 124.164 64.47C124.304 64.47 124.414 64.49 124.494 64.53C124.594 64.57 124.674 64.65 124.734 64.77C124.794 64.87 124.834 65 124.854 65.16C124.874 65.32 124.874 65.56 124.854 65.88C124.854 66.2 124.834 66.56 124.794 66.96C124.754 67.34 124.704 67.83 124.644 68.43L124.524 69.24L125.784 69.06C126.904 68.92 127.564 68.75 127.764 68.55C127.964 68.35 128.064 67.79 128.064 66.87C128.064 65.37 128.294 64.61 128.754 64.59C128.894 64.59 129.044 64.63 129.204 64.71C129.444 64.83 129.584 64.97 129.624 65.13C129.664 65.27 129.654 65.55 129.594 65.97C129.494 66.79 129.404 68.71 129.324 71.73C129.264 74.09 129.194 75.49 129.114 75.93C129.054 76.37 128.894 76.65 128.634 76.77C128.254 76.95 128.004 76.98 127.884 76.86C127.764 76.72 127.724 75.66 127.764 73.68C127.804 71.92 127.734 70.92 127.554 70.68C127.394 70.42 126.804 70.44 125.784 70.74L124.464 71.1L124.554 73.47C124.594 74.51 124.594 75.19 124.554 75.51C124.514 75.81 124.404 76.01 124.224 76.11C123.944 76.29 123.674 76.29 123.414 76.11C123.214 76.01 123.094 75.68 123.054 75.12C123.014 74.54 123.014 73.11 123.054 70.83C123.114 67.45 123.224 65.55 123.384 65.13ZM118.044 64.95C118.344 64.81 118.774 64.76 119.334 64.8C119.694 64.82 119.924 64.87 120.024 64.95C120.124 65.03 120.174 65.23 120.174 65.55V66.24L117.654 66.51C115.914 66.73 114.864 66.91 114.504 67.05C114.204 67.17 114.024 67.29 113.964 67.41C113.924 67.51 113.934 67.71 113.994 68.01C114.094 68.61 114.144 69.35 114.144 70.23C114.144 71.21 114.254 71.84 114.474 72.12C114.714 72.38 115.274 72.52 116.154 72.54C117.134 72.54 118.004 72.48 118.764 72.36C119.304 72.28 119.654 72.26 119.814 72.3C119.994 72.34 120.144 72.46 120.264 72.66C120.504 73.12 120.494 73.44 120.234 73.62C119.994 73.8 119.404 73.93 118.464 74.01C115.064 74.27 113.284 74.22 113.124 73.86C113.044 73.64 112.904 72.38 112.704 70.08C112.584 68.56 112.524 67.58 112.524 67.14C112.524 66.7 112.604 66.41 112.764 66.27C112.904 66.13 113.204 65.98 113.664 65.82C114.124 65.64 114.634 65.49 115.194 65.37C115.754 65.25 116.224 65.18 116.604 65.16C117.244 65.16 117.724 65.09 118.044 64.95ZM135.477 61.44C135.517 61.44 135.577 61.43 135.657 61.41C137.097 61.27 137.947 61.22 138.207 61.26C138.467 61.28 138.657 61.42 138.777 61.68C138.797 61.72 138.807 61.75 138.807 61.77C138.887 61.99 138.937 62.18 138.957 62.34C138.977 62.48 138.877 62.59 138.657 62.67C138.437 62.75 138.147 62.81 137.787 62.85C137.447 62.87 136.927 62.89 136.227 62.91C135.547 62.93 135.007 62.96 134.607 63C134.227 63.04 133.887 63.1 133.587 63.18C133.307 63.26 133.107 63.4 132.987 63.6C132.867 63.78 132.777 63.99 132.717 64.23C132.677 64.47 132.657 64.81 132.657 65.25V66.66L133.527 66.48C137.027 65.8 138.777 65.88 138.777 66.72C138.777 67.04 138.647 67.26 138.387 67.38C138.147 67.48 137.667 67.54 136.947 67.56C136.187 67.56 135.297 67.7 134.277 67.98C133.597 68.16 133.177 68.31 133.017 68.43C132.857 68.53 132.797 68.71 132.837 68.97C132.877 69.45 133.027 69.73 133.287 69.81C133.547 69.87 134.127 69.8 135.027 69.6C137.587 69.04 139.017 69 139.317 69.48C139.477 69.72 139.457 69.97 139.257 70.23C139.077 70.49 138.807 70.62 138.447 70.62C138.127 70.62 137.187 70.77 135.627 71.07C134.187 71.37 133.217 71.52 132.717 71.52C132.217 71.52 131.927 71.39 131.847 71.13C131.507 70.07 131.287 68.48 131.187 66.36C131.087 64.24 131.167 63.03 131.427 62.73C132.027 62.05 133.377 61.62 135.477 61.44ZM141.747 62.73C141.827 62.51 142.007 62.39 142.287 62.37C142.587 62.33 142.797 62.41 142.917 62.61C143.017 62.77 143.087 64.31 143.127 67.23V71.58L142.587 71.7C142.227 71.78 141.977 71.72 141.837 71.52C141.677 71.28 141.577 69.88 141.537 67.32C141.517 64.76 141.587 63.23 141.747 62.73ZM140.367 73.41C140.787 73.27 141.017 73.2 141.057 73.2C141.097 73.2 141.177 73.23 141.297 73.29C141.437 73.33 141.577 73.4 141.717 73.5C141.857 73.6 141.987 73.7 142.107 73.8C142.247 73.88 142.337 73.95 142.377 74.01C142.497 74.21 142.557 75.09 142.557 76.65C142.557 78.03 142.447 78.85 142.227 79.11C142.027 79.37 141.327 79.56 140.127 79.68C139.847 79.7 139.377 79.74 138.717 79.8C138.077 79.88 137.667 79.93 137.487 79.95C137.207 79.99 136.977 80.01 136.797 80.01C136.617 80.01 136.447 79.99 136.287 79.95C136.127 79.93 136.007 79.87 135.927 79.77C135.847 79.67 135.767 79.55 135.687 79.41C135.627 79.29 135.577 79.09 135.537 78.81C135.517 78.55 135.497 78.28 135.477 78C135.477 77.7 135.477 77.32 135.477 76.86C135.477 75.3 135.537 74.43 135.657 74.25C135.777 74.07 136.147 73.98 136.767 73.98C137.927 73.98 139.127 73.79 140.367 73.41ZM140.997 75.21L140.067 75.15C139.727 75.15 139.367 75.18 138.987 75.24C138.607 75.28 138.247 75.36 137.907 75.48C137.587 75.6 137.357 75.72 137.217 75.84C136.997 76.02 136.887 76.49 136.887 77.25V78.39L138.267 78.24C138.507 78.2 138.857 78.15 139.317 78.09C139.777 78.05 140.067 78.02 140.187 78C140.267 78 140.357 77.99 140.457 77.97C140.577 77.95 140.667 77.94 140.727 77.94C140.807 77.94 140.857 77.94 140.877 77.94C140.957 77.9 140.997 77.43 140.997 76.53V75.21ZM147.574 59.61C148.794 59.03 150.004 59.01 151.204 59.55C152.424 60.09 153.234 61.01 153.634 62.31C153.734 62.69 153.774 63.02 153.754 63.3C153.734 63.58 153.654 63.96 153.514 64.44C153.294 65.1 152.944 65.66 152.464 66.12C152.004 66.58 151.384 66.99 150.604 67.35C150.164 67.53 149.824 67.63 149.584 67.65C149.344 67.67 149.014 67.62 148.594 67.5C148.234 67.42 147.864 67.31 147.484 67.17C147.124 67.01 146.804 66.85 146.524 66.69C146.244 66.53 146.034 66.38 145.894 66.24C145.694 66.06 145.494 65.81 145.294 65.49C145.094 65.17 144.934 64.85 144.814 64.53C144.694 64.21 144.634 63.95 144.634 63.75C144.634 62.95 144.904 62.16 145.444 61.38C146.004 60.6 146.714 60.01 147.574 59.61ZM151.294 61.26C150.934 60.92 150.464 60.75 149.884 60.75C149.304 60.73 148.754 60.84 148.234 61.08C147.714 61.32 147.254 61.67 146.854 62.13C146.474 62.57 146.284 63.04 146.284 63.54C146.284 64 146.494 64.47 146.914 64.95C147.354 65.43 147.854 65.75 148.414 65.91C148.994 66.09 149.514 66.1 149.974 65.94C150.434 65.76 150.964 65.35 151.564 64.71C152.044 64.27 152.304 63.96 152.344 63.78C152.404 63.6 152.364 63.27 152.224 62.79C152.004 62.15 151.694 61.64 151.294 61.26ZM153.244 68.73C153.984 68.41 154.524 68.5 154.864 69C155.024 69.24 155.104 69.41 155.104 69.51C155.104 69.61 155.014 69.76 154.834 69.96C154.594 70.24 153.974 70.38 152.974 70.38C151.934 70.38 150.624 70.55 149.044 70.89C147.424 71.23 146.344 71.4 145.804 71.4C145.444 71.42 145.214 71.4 145.114 71.34C145.034 71.26 144.994 71.09 144.994 70.83C144.994 70.61 145.074 70.41 145.234 70.23C145.394 70.05 145.624 69.91 145.924 69.81C146.244 69.71 146.594 69.66 146.974 69.66C147.514 69.66 148.184 69.55 148.984 69.33C149.724 69.11 150.544 68.98 151.444 68.94C152.344 68.94 152.944 68.87 153.244 68.73ZM150.394 72.69C150.954 72.47 151.614 72.43 152.374 72.57C153.154 72.69 153.654 72.93 153.874 73.29C153.994 73.47 154.044 74 154.024 74.88C154.024 75.74 153.964 76.33 153.844 76.65C153.584 77.29 152.434 77.67 150.394 77.79C149.194 77.85 148.554 77.88 148.474 77.88C148.274 77.9 148.174 78.1 148.174 78.48C148.174 78.86 148.334 79.08 148.654 79.14C148.994 79.22 149.574 79.17 150.394 78.99C152.734 78.41 154.064 78.39 154.384 78.93C154.444 79.13 154.484 79.29 154.504 79.41C154.544 79.53 154.404 79.65 154.084 79.77C153.764 79.89 153.354 80 152.854 80.1C152.354 80.22 151.604 80.37 150.604 80.55C149.144 80.79 148.084 80.75 147.424 80.43C146.784 80.11 146.464 79.46 146.464 78.48C146.464 77.8 146.654 77.34 147.034 77.1C147.434 76.84 148.274 76.65 149.554 76.53C151.034 76.35 151.884 76.18 152.104 76.02C152.324 75.84 152.434 75.48 152.434 74.94C152.434 74.56 152.394 74.34 152.314 74.28C152.234 74.2 151.974 74.16 151.534 74.16C150.994 74.16 150.054 74.29 148.714 74.55C147.274 74.85 146.494 74.85 146.374 74.55C146.334 74.41 146.374 74.19 146.494 73.89C146.574 73.63 146.724 73.45 146.944 73.35C147.164 73.23 147.564 73.11 148.144 72.99C149.124 72.79 149.664 72.72 149.764 72.78C149.884 72.86 150.094 72.83 150.394 72.69ZM170.32 61.98C170.88 61.36 171.38 61.09 171.82 61.17C172.06 61.21 172.18 61.36 172.18 61.62C172.18 61.9 172.06 62.14 171.82 62.34C171.2 62.86 171.42 63.41 172.48 63.99C174.56 65.13 175.67 65.89 175.81 66.27C175.87 66.41 175.87 66.58 175.81 66.78C175.77 66.98 175.69 67.16 175.57 67.32C175.45 67.46 175.33 67.53 175.21 67.53C175.05 67.53 174.64 67.27 173.98 66.75C173.5 66.37 172.84 65.94 172 65.46C171.18 64.96 170.67 64.71 170.47 64.71C170.37 64.71 170.05 65.12 169.51 65.94C168.97 66.76 168.53 67.52 168.19 68.22C167.95 68.68 167.77 68.95 167.65 69.03C167.55 69.09 167.33 69.06 166.99 68.94C166.87 68.9 166.75 68.85 166.63 68.79C166.53 68.71 166.44 68.63 166.36 68.55C166.3 68.47 166.27 68.4 166.27 68.34C166.27 68.12 166.7 67.41 167.56 66.21C168.4 64.93 168.95 64.06 169.21 63.6C169.49 63.04 169.86 62.5 170.32 61.98ZM174.67 71.1C175.31 70.9 175.89 70.92 176.41 71.16C176.95 71.38 177.14 71.7 176.98 72.12C176.88 72.36 176.65 72.54 176.29 72.66C175.93 72.78 175.58 72.8 175.24 72.72C174.86 72.64 174.42 72.64 173.92 72.72L173.23 72.87L173.17 75.81C173.15 77.89 173.13 79 173.11 79.14C173.11 79.42 172.88 79.56 172.42 79.56C172.18 79.56 172 79.52 171.88 79.44C171.76 79.38 171.66 79.21 171.58 78.93C171.5 78.67 171.46 78.3 171.46 77.82C171.48 77.32 171.49 76.65 171.49 75.81C171.53 74.51 171.53 73.73 171.49 73.47C171.47 73.21 171.35 73.09 171.13 73.11C170.97 73.15 170.21 73.21 168.85 73.29C168.63 73.31 168.38 73.33 168.1 73.35C167.84 73.37 167.61 73.39 167.41 73.41C167.21 73.41 167.01 73.42 166.81 73.44C166.61 73.46 166.47 73.47 166.39 73.47C166.09 73.51 165.89 73.5 165.79 73.44C165.71 73.36 165.66 73.19 165.64 72.93C165.58 72.59 165.63 72.34 165.79 72.18C165.97 72.02 166.29 71.9 166.75 71.82C167.21 71.74 167.97 71.69 169.03 71.67C171.97 71.55 173.85 71.36 174.67 71.1ZM184.62 61.05C184.8 60.85 185.08 60.94 185.46 61.32C185.6 61.46 185.69 61.73 185.73 62.13C185.79 62.53 185.82 63.28 185.82 64.38C185.82 66.14 185.74 67.07 185.58 67.17C185.36 67.31 184.79 67.48 183.87 67.68C183.81 67.68 183.73 67.7 183.63 67.74C182.15 68.08 181.28 68.32 181.02 68.46C180.76 68.6 180.63 68.87 180.63 69.27C180.63 69.31 180.63 69.33 180.63 69.33C180.63 69.83 180.75 70.14 180.99 70.26C181.25 70.36 181.74 70.33 182.46 70.17C183.4 69.99 184.3 69.86 185.16 69.78C185.88 69.7 186.34 69.68 186.54 69.72C186.74 69.74 186.87 69.84 186.93 70.02C187.09 70.42 187 70.73 186.66 70.95C186.34 71.15 185.62 71.33 184.5 71.49C182.96 71.71 181.83 71.81 181.11 71.79C180.39 71.77 179.9 71.61 179.64 71.31C179.4 71.01 179.22 70.44 179.1 69.6C179 68.74 179.04 68.15 179.22 67.83C179.3 67.69 179.46 67.55 179.7 67.41C179.96 67.27 180.35 67.12 180.87 66.96C181.41 66.78 182.16 66.56 183.12 66.3L184.29 65.97L184.32 64.5C184.34 63.5 184.24 62.96 184.02 62.88C183.78 62.8 182.97 62.93 181.59 63.27C180.39 63.57 179.58 63.7 179.16 63.66C178.74 63.6 178.53 63.36 178.53 62.94C178.53 62.6 178.76 62.34 179.22 62.16C179.68 61.98 180.69 61.77 182.25 61.53C183.75 61.27 184.54 61.11 184.62 61.05ZM190.59 62.28C190.75 62 191 61.88 191.34 61.92C191.58 61.96 191.72 62.09 191.76 62.31C191.82 62.53 191.85 63.18 191.85 64.26C191.85 64.4 191.85 64.59 191.85 64.83C191.85 65.69 191.91 66.18 192.03 66.3C192.15 66.42 192.59 66.42 193.35 66.3C193.59 66.26 193.77 66.23 193.89 66.21C194.37 66.15 194.69 66.14 194.85 66.18C195.01 66.22 195.14 66.34 195.24 66.54C195.44 66.92 195.46 67.22 195.3 67.44C195.16 67.66 194.87 67.77 194.43 67.77C193.85 67.77 193.23 67.86 192.57 68.04L191.52 68.34V70.44V72.51L190.74 72.45C190.34 72.41 190.11 72.33 190.05 72.21C189.99 72.09 189.97 71.71 189.99 71.07C190.01 69.39 190.09 67.55 190.23 65.55C190.37 63.55 190.49 62.46 190.59 62.28ZM189.36 74.49C189.42 74.39 189.7 74.37 190.2 74.43C190.68 74.49 191.01 74.76 191.19 75.24C191.39 75.72 191.52 76.74 191.58 78.3L191.7 80.97L191.01 81.09C190.53 81.21 190.23 81.21 190.11 81.09C189.99 80.97 189.92 80.14 189.9 78.6C189.82 77.02 189.68 76.19 189.48 76.11C189.26 76.03 188.49 76.16 187.17 76.5C185.97 76.8 185.15 76.94 184.71 76.92C184.29 76.9 184.05 76.71 183.99 76.35C183.95 75.97 184.18 75.67 184.68 75.45C185.18 75.21 186.05 75.01 187.29 74.85C188.55 74.69 189.24 74.57 189.36 74.49ZM201.099 61.08C201.239 60.96 201.439 60.92 201.699 60.96C201.979 61 202.199 61.12 202.359 61.32C202.579 61.58 202.669 62.25 202.629 63.33L202.569 64.98L204.279 64.83C205.419 64.73 206.109 64.65 206.349 64.59C206.589 64.51 206.809 64.58 207.009 64.8C207.209 65.02 207.299 65.28 207.279 65.58C207.279 65.86 207.179 66.11 206.979 66.33C206.759 66.53 206.449 66.53 206.049 66.33C205.789 66.21 205.529 66.16 205.269 66.18C205.029 66.2 204.619 66.28 204.039 66.42C202.979 66.7 202.029 66.88 201.189 66.96C200.129 67.06 199.259 67.23 198.579 67.47C198.099 67.65 197.799 67.74 197.679 67.74C197.559 67.74 197.419 67.63 197.259 67.41C197.039 67.13 196.929 66.93 196.929 66.81C196.929 66.33 197.769 65.94 199.449 65.64L201.249 65.34L201.099 63.27C200.999 61.93 200.999 61.2 201.099 61.08ZM210.369 66.51C210.549 66.27 210.699 66.15 210.819 66.15C210.959 66.15 211.129 66.26 211.329 66.48C211.529 66.72 211.559 67.64 211.419 69.24L211.269 71.61L212.409 71.46C212.549 71.44 212.709 71.42 212.889 71.4C213.069 71.36 213.219 71.33 213.339 71.31C213.479 71.27 213.609 71.24 213.729 71.22C213.869 71.2 213.969 71.18 214.029 71.16C214.309 71.1 214.589 71.18 214.869 71.4C215.169 71.62 215.319 71.86 215.319 72.12C215.319 72.5 214.769 72.75 213.669 72.87C212.409 72.99 211.699 73.13 211.539 73.29C211.379 73.41 211.299 73.84 211.299 74.58C211.299 74.64 211.299 74.74 211.299 74.88C211.259 76.46 211.209 77.38 211.149 77.64C211.109 77.9 210.949 78.05 210.669 78.09C210.629 78.09 210.599 78.09 210.579 78.09C210.299 78.13 210.109 78.11 210.009 78.03C209.929 77.95 209.859 77.74 209.799 77.4C209.719 77.04 209.689 76.29 209.709 75.15C209.749 73.99 209.799 72.8 209.859 71.58C209.919 70.34 209.989 69.21 210.069 68.19C210.169 67.17 210.269 66.61 210.369 66.51ZM202.479 68.16C202.739 68.08 203.039 68.08 203.379 68.16C203.739 68.22 203.999 68.25 204.159 68.25C204.359 68.25 204.889 68.66 205.749 69.48C206.469 70.18 206.929 70.83 207.129 71.43C207.329 72.01 207.319 72.67 207.099 73.41C206.859 74.21 206.469 74.91 205.929 75.51C205.409 76.09 204.819 76.5 204.159 76.74C203.519 76.96 202.869 77.07 202.209 77.07C201.549 77.05 200.939 76.84 200.379 76.44C199.819 76.04 199.379 75.49 199.059 74.79C198.739 74.05 198.579 73.51 198.579 73.17C198.579 72.87 198.709 72.38 198.969 71.7C199.249 71 199.539 70.46 199.839 70.08C199.999 69.86 200.239 69.62 200.559 69.36C200.879 69.08 201.209 68.83 201.549 68.61C201.909 68.39 202.219 68.24 202.479 68.16ZM205.029 70.62C204.129 69.66 203.139 69.54 202.059 70.26C201.239 70.82 200.699 71.53 200.439 72.39C200.199 73.23 200.289 73.97 200.709 74.61C201.129 75.25 201.789 75.57 202.689 75.57C203.249 75.57 203.719 75.46 204.099 75.24C204.479 75 204.839 74.61 205.179 74.07C205.539 73.47 205.699 72.86 205.659 72.24C205.639 71.6 205.429 71.06 205.029 70.62ZM221.501 63.57C222.661 63.47 223.401 63.45 223.721 63.51C224.041 63.55 224.241 63.74 224.321 64.08C224.421 64.48 224.471 65.44 224.471 66.96C224.491 68.46 224.451 69.29 224.351 69.45C224.271 69.59 224.031 69.75 223.631 69.93C223.231 70.09 222.491 70.36 221.411 70.74L219.881 71.25L219.791 72.24C219.731 73.12 219.771 73.7 219.911 73.98C220.051 74.26 220.381 74.4 220.901 74.4C221.581 74.4 222.301 74.3 223.061 74.1C223.621 73.98 223.981 73.93 224.141 73.95C224.321 73.97 224.481 74.08 224.621 74.28C224.841 74.58 224.931 74.84 224.891 75.06C224.811 75.48 223.361 75.84 220.541 76.14C219.861 76.22 219.431 76.25 219.251 76.23C219.091 76.19 218.951 76.04 218.831 75.78C218.631 75.44 218.491 74.56 218.411 73.14C218.351 72.12 218.341 71.49 218.381 71.25C218.441 70.99 218.631 70.7 218.951 70.38C219.371 69.92 220.041 69.56 220.961 69.3C221.941 69 222.531 68.7 222.731 68.4C222.951 68.08 223.021 67.45 222.941 66.51L222.761 64.92L221.771 65.1C221.211 65.16 220.581 65.31 219.881 65.55C218.241 66.09 217.271 66.18 216.971 65.82C216.571 65.36 216.921 64.89 218.021 64.41C218.941 63.99 220.101 63.71 221.501 63.57ZM231.431 64.77C231.531 64.43 231.761 64.26 232.121 64.26C232.541 64.26 232.811 64.38 232.931 64.62C233.071 64.86 233.081 65.24 232.961 65.76C232.801 66.52 232.681 68.09 232.601 70.47C232.541 72.83 232.571 74.35 232.691 75.03C232.811 75.73 232.801 76.23 232.661 76.53C232.521 76.83 232.221 76.98 231.761 76.98C231.461 76.98 231.271 76.87 231.191 76.65C231.131 76.41 231.051 75.7 230.951 74.52C230.871 73.1 230.791 72.35 230.711 72.27C230.631 72.21 230.011 72.28 228.851 72.48C227.811 72.66 227.141 72.72 226.841 72.66C226.561 72.58 226.451 72.33 226.511 71.91C226.591 71.57 226.761 71.34 227.021 71.22C227.281 71.1 227.901 70.97 228.881 70.83C229.741 70.73 230.321 70.59 230.621 70.41C230.921 70.21 231.071 69.91 231.071 69.51C231.071 69.13 230.921 68.91 230.621 68.85C230.341 68.79 229.791 68.87 228.971 69.09C228.151 69.31 227.581 69.39 227.261 69.33C226.961 69.27 226.811 69.03 226.811 68.61C226.811 68.23 226.991 67.95 227.351 67.77C227.711 67.59 228.311 67.46 229.151 67.38C230.051 67.28 230.631 67.15 230.891 66.99C231.171 66.83 231.311 66.52 231.311 66.06C231.311 65.6 231.351 65.17 231.431 64.77ZM239.136 62.55C239.356 62.41 239.796 62.34 240.456 62.34C240.836 62.34 241.096 62.37 241.236 62.43C241.376 62.49 241.446 62.59 241.446 62.73C241.446 63.21 241.486 64.51 241.566 66.63C241.606 68.17 241.606 69.16 241.566 69.6C241.546 70.04 241.446 70.36 241.266 70.56C241.046 70.82 240.486 71.04 239.586 71.22C238.706 71.4 237.756 71.48 236.736 71.46C236.076 71.44 235.676 71.39 235.536 71.31C235.416 71.23 235.286 70.96 235.146 70.5C234.966 69.98 234.816 68.8 234.696 66.96L234.546 64.35L235.176 63.84C235.576 63.5 236.286 63.24 237.306 63.06C238.246 62.88 238.856 62.71 239.136 62.55ZM239.916 64.26L239.166 64.32C238.766 64.34 238.196 64.46 237.456 64.68C236.716 64.9 236.276 65.08 236.136 65.22C236.036 65.34 236.046 66.05 236.166 67.35C236.306 68.63 236.446 69.36 236.586 69.54C236.706 69.72 236.876 69.81 237.096 69.81C237.316 69.81 237.746 69.75 238.386 69.63L239.916 69.33V66.78V64.26ZM247.266 62.85C247.306 62.65 247.376 62.52 247.476 62.46C247.576 62.38 247.756 62.36 248.016 62.4L248.646 62.46L248.526 65.43C248.446 67.23 248.406 69.01 248.406 70.77C248.406 71.93 248.376 72.64 248.316 72.9C248.276 73.14 248.126 73.31 247.866 73.41C247.446 73.63 247.156 73.61 246.996 73.35C246.836 73.07 246.726 72.46 246.666 71.52C246.626 70.68 246.576 70.2 246.516 70.08C246.456 69.96 246.266 69.93 245.946 69.99C244.226 70.39 243.216 70.41 242.916 70.05C242.436 69.49 242.876 69.03 244.236 68.67C244.476 68.59 244.726 68.52 244.986 68.46C246.066 68.28 246.696 68.08 246.876 67.86C247.076 67.66 247.146 67.3 247.086 66.78C247.066 66.48 247.006 66.28 246.906 66.18C246.826 66.08 246.696 66.04 246.516 66.06C246.436 66.06 246.306 66.08 246.126 66.12C245.946 66.14 245.726 66.17 245.466 66.21C245.226 66.23 245.016 66.25 244.836 66.27C244.216 66.35 243.846 66.37 243.726 66.33C243.626 66.29 243.576 66.13 243.576 65.85C243.576 65.43 243.736 65.12 244.056 64.92C244.376 64.7 244.916 64.55 245.676 64.47C246.216 64.43 246.576 64.38 246.756 64.32C246.936 64.24 247.046 64.1 247.086 63.9C247.106 63.66 247.166 63.31 247.266 62.85ZM240.426 74.49C240.626 74.29 240.786 74.19 240.906 74.19C241.026 74.17 241.196 74.23 241.416 74.37C241.556 74.45 241.626 74.6 241.626 74.82C241.646 75.04 241.606 75.44 241.506 76.02C241.366 76.98 241.356 77.5 241.476 77.58C241.576 77.62 242.066 77.62 242.946 77.58C243.826 77.52 244.706 77.44 245.586 77.34C246.466 77.24 246.976 77.15 247.116 77.07C247.236 77.03 247.436 77.11 247.716 77.31C247.976 77.49 248.066 77.71 247.986 77.97C247.906 78.23 247.686 78.44 247.326 78.6C247.006 78.72 246.086 78.88 244.566 79.08C243.046 79.3 241.886 79.42 241.086 79.44C240.626 79.44 240.346 79.4 240.246 79.32C240.166 79.24 240.086 78.92 240.006 78.36C239.886 77.66 239.876 76.89 239.976 76.05C240.076 75.21 240.226 74.69 240.426 74.49ZM138.993 100.1C140.073 99.54 141.253 99.71 142.533 100.61C143.573 101.31 144.313 102.18 144.753 103.22C145.193 104.24 145.273 105.28 144.993 106.34C144.813 107.08 144.553 107.63 144.213 107.99C143.893 108.35 143.373 108.68 142.653 108.98C141.953 109.28 141.313 109.43 140.733 109.43C140.253 109.45 139.733 109.36 139.173 109.16C138.613 108.96 138.093 108.68 137.613 108.32C137.153 107.96 136.783 107.58 136.503 107.18C136.223 106.74 136.053 106.39 135.993 106.13C135.933 105.85 135.923 105.4 135.963 104.78C136.023 103.82 136.183 103.11 136.443 102.65C136.683 102.19 137.053 101.71 137.553 101.21C138.053 100.71 138.533 100.34 138.993 100.1ZM141.783 101.84C141.203 101.42 140.723 101.23 140.343 101.27C139.963 101.29 139.503 101.54 138.963 102.02C138.163 102.78 137.693 103.56 137.553 104.36C137.433 105.14 137.663 105.88 138.243 106.58C138.923 107.4 139.753 107.82 140.733 107.84C141.733 107.84 142.553 107.42 143.193 106.58C143.393 106.34 143.523 106.1 143.583 105.86C143.643 105.6 143.653 105.22 143.613 104.72C143.553 104.08 143.393 103.56 143.133 103.16C142.873 102.74 142.423 102.3 141.783 101.84ZM148.323 100.34C148.403 100.2 148.633 100.15 149.013 100.19C149.393 100.23 149.593 100.32 149.613 100.46C149.653 100.8 149.573 103.58 149.373 108.8L149.193 112.55H148.503C148.303 112.55 148.163 112.55 148.083 112.55C148.003 112.53 147.933 112.48 147.873 112.4C147.813 112.3 147.773 112.19 147.753 112.07C147.753 111.93 147.743 111.7 147.723 111.38C147.683 110.72 147.743 108.75 147.903 105.47C148.083 102.19 148.223 100.48 148.323 100.34ZM166.703 95.72C167.923 95.44 168.713 95.3 169.073 95.3C169.453 95.28 169.723 95.38 169.883 95.6C170.003 95.78 170.023 95.96 169.943 96.14C169.883 96.32 169.703 96.5 169.403 96.68C169.123 96.84 168.793 96.96 168.413 97.04L167.453 97.22L167.423 99.83L167.393 102.41H168.353C168.933 102.43 169.333 102.5 169.553 102.62C169.773 102.74 169.883 102.94 169.883 103.22C169.883 103.56 169.753 103.81 169.493 103.97C169.233 104.11 168.783 104.21 168.143 104.27C167.983 104.29 167.473 104.35 166.613 104.45C165.773 104.55 165.113 104.62 164.633 104.66C163.053 104.84 162.163 104.89 161.963 104.81C161.683 104.71 161.573 104.5 161.633 104.18C161.693 103.84 161.883 103.6 162.203 103.46C162.483 103.38 162.643 103.24 162.683 103.04C162.723 102.82 162.713 102.21 162.653 101.21C162.573 99.55 162.453 98.61 162.293 98.39C162.153 98.23 161.793 98.15 161.213 98.15C160.713 98.15 160.403 98.13 160.283 98.09C160.163 98.03 160.103 97.87 160.103 97.61C160.103 97.27 160.253 97.04 160.553 96.92C160.853 96.8 161.693 96.63 163.073 96.41C163.853 96.27 165.063 96.04 166.703 95.72ZM165.983 99.89C166.003 99.37 166.013 98.96 166.013 98.66C166.033 98.34 166.033 98.08 166.013 97.88C166.013 97.68 165.993 97.55 165.953 97.49C165.933 97.41 165.893 97.37 165.833 97.37C165.133 97.43 164.643 97.58 164.363 97.82C164.223 97.96 164.123 98.44 164.063 99.26C164.023 100.08 164.053 100.87 164.153 101.63C164.213 102.29 164.283 102.69 164.363 102.83C164.443 102.95 164.643 103.01 164.963 103.01C165.423 103.01 165.683 102.91 165.743 102.71C165.803 102.57 165.883 101.63 165.983 99.89ZM171.923 96.53C172.143 96.31 172.323 96.2 172.463 96.2C172.603 96.18 172.763 96.27 172.943 96.47C173.083 96.69 173.083 97.3 172.943 98.3C172.783 99.3 172.743 100.61 172.823 102.23C172.923 103.83 172.893 104.68 172.733 104.78C172.493 104.92 172.223 104.91 171.923 104.75C171.643 104.57 171.453 104.32 171.353 104C171.153 103.26 171.123 101.9 171.263 99.92C171.423 97.92 171.643 96.79 171.923 96.53ZM169.643 106.7C169.763 106.7 169.903 106.69 170.063 106.67C170.243 106.65 170.383 106.63 170.483 106.61C170.603 106.59 170.683 106.58 170.723 106.58C171.383 106.5 171.773 107.41 171.893 109.31C171.913 109.65 171.923 109.93 171.923 110.15C171.943 110.35 171.933 110.56 171.893 110.78C171.873 110.98 171.843 111.14 171.803 111.26C171.763 111.38 171.683 111.5 171.563 111.62C171.463 111.72 171.353 111.8 171.233 111.86C171.113 111.9 170.933 111.95 170.693 112.01C170.473 112.05 170.243 112.08 170.003 112.1C169.783 112.12 169.483 112.14 169.103 112.16C167.963 112.22 167.213 112.32 166.853 112.46C166.513 112.6 166.343 112.87 166.343 113.27C166.343 113.73 166.523 113.99 166.883 114.05C167.243 114.13 167.953 114.06 169.013 113.84C170.233 113.56 171.073 113.41 171.533 113.39C172.013 113.39 172.303 113.52 172.403 113.78C172.563 114.2 172.433 114.51 172.013 114.71C171.593 114.93 170.683 115.17 169.283 115.43C167.423 115.77 166.303 115.87 165.923 115.73C165.423 115.53 165.063 115 164.843 114.14C164.643 113.3 164.703 112.58 165.023 111.98C165.123 111.74 165.283 111.57 165.503 111.47C165.743 111.35 166.143 111.23 166.703 111.11C167.503 110.93 168.263 110.83 168.983 110.81C169.523 110.81 169.883 110.71 170.063 110.51C170.223 110.35 170.313 109.97 170.333 109.37C170.373 108.77 170.323 108.43 170.183 108.35C169.943 108.21 168.633 108.4 166.253 108.92C165.333 109.1 164.803 109.12 164.663 108.98C164.443 108.76 164.423 108.5 164.603 108.2C164.803 107.88 165.093 107.66 165.473 107.54C166.953 107.12 168.343 106.84 169.643 106.7ZM177.456 96.35C178.176 96.09 178.866 96.01 179.526 96.11C180.206 96.19 180.836 96.46 181.416 96.92C182.016 97.38 182.506 98 182.886 98.78C183.266 99.52 183.446 100.21 183.426 100.85C183.426 101.49 183.226 102.2 182.826 102.98C182.506 103.62 182.126 104.1 181.686 104.42C181.246 104.72 180.686 104.92 180.006 105.02C178.866 105.18 177.786 104.96 176.766 104.36C175.746 103.76 175.096 102.99 174.816 102.05C174.416 100.77 174.456 99.63 174.936 98.63C175.416 97.63 176.256 96.87 177.456 96.35ZM179.886 97.58C179.686 97.58 179.466 97.54 179.226 97.46C178.866 97.34 178.296 97.56 177.516 98.12C176.736 98.68 176.266 99.22 176.106 99.74C176.046 99.94 176.036 100.18 176.076 100.46C176.116 100.72 176.186 100.99 176.286 101.27C176.386 101.53 176.516 101.79 176.676 102.05C176.856 102.31 177.046 102.53 177.246 102.71C178.006 103.39 178.776 103.7 179.556 103.64C180.336 103.58 180.956 103.17 181.416 102.41C182.156 101.21 182.036 99.96 181.056 98.66C180.476 97.94 180.086 97.58 179.886 97.58ZM181.146 106.91C181.306 106.53 181.506 106.34 181.746 106.34C182.006 106.32 182.226 106.51 182.406 106.91C182.566 107.29 182.546 107.95 182.346 108.89C182.146 109.79 182.106 110.34 182.226 110.54C182.326 110.72 182.926 110.81 184.026 110.81C184.786 110.81 185.256 110.84 185.436 110.9C185.636 110.94 185.786 111.08 185.886 111.32C186.026 111.74 185.976 112.03 185.736 112.19C185.516 112.35 185.016 112.42 184.236 112.4C183.616 112.38 182.846 112.42 181.926 112.52C181.026 112.6 180.386 112.69 180.006 112.79C179.826 112.85 179.366 112.94 178.626 113.06C177.906 113.2 177.196 113.33 176.496 113.45C175.796 113.57 175.376 113.63 175.236 113.63C174.996 113.63 174.816 113.47 174.696 113.15C174.576 112.83 174.606 112.56 174.786 112.34C174.946 112.14 175.336 111.99 175.956 111.89L176.826 111.77V109.85C176.846 108.79 176.926 108.12 177.066 107.84C177.206 107.54 177.506 107.45 177.966 107.57C178.246 107.65 178.406 107.78 178.446 107.96C178.506 108.12 178.526 108.62 178.506 109.46L178.446 111.14L179.616 111.23C180.356 111.27 180.726 111.23 180.726 111.11C180.726 110.57 180.746 110 180.786 109.4C180.846 108.8 180.906 108.28 180.966 107.84C181.046 107.4 181.106 107.09 181.146 106.91ZM191.007 97.52C190.967 96.86 190.967 96.47 191.007 96.35C191.067 96.23 191.247 96.17 191.547 96.17C192.387 96.17 192.697 97.06 192.477 98.84L192.327 100.19L193.347 100.16C194.127 100.14 194.717 100.08 195.117 99.98C195.357 99.92 195.597 99.9 195.837 99.92C196.077 99.92 196.287 99.96 196.467 100.04C196.647 100.1 196.797 100.2 196.917 100.34C197.057 100.48 197.147 100.63 197.187 100.79C197.247 101.19 197.147 101.45 196.887 101.57C196.647 101.69 196.267 101.68 195.747 101.54C195.207 101.4 194.627 101.41 194.007 101.57C193.387 101.75 192.607 101.88 191.667 101.96C190.667 102.08 189.947 102.24 189.507 102.44C189.087 102.66 188.627 102.77 188.127 102.77C187.847 102.77 187.657 102.74 187.557 102.68C187.477 102.6 187.437 102.44 187.437 102.2C187.437 101.82 187.567 101.55 187.827 101.39C188.087 101.21 188.647 101.04 189.507 100.88C190.247 100.72 190.677 100.59 190.797 100.49C190.937 100.39 191.017 100.13 191.037 99.71C191.037 98.75 191.027 98.02 191.007 97.52ZM203.127 100.46C203.187 100.26 203.437 100.19 203.877 100.25L204.507 100.31L204.447 102.05C204.387 103.15 204.287 104.53 204.147 106.19C203.967 107.77 203.937 109.07 204.057 110.09C204.117 110.83 204.127 111.29 204.087 111.47C204.067 111.63 203.917 111.77 203.637 111.89C203.257 112.07 202.977 112.1 202.797 111.98C202.637 111.86 202.537 111 202.497 109.4C202.457 108.04 202.357 107.24 202.197 107C202.057 106.74 201.667 106.76 201.027 107.06L200.307 107.45L200.427 109.4C200.507 110.22 200.527 110.77 200.487 111.05C200.467 111.33 200.377 111.53 200.217 111.65C199.737 112.03 199.327 112.03 198.987 111.65C198.807 111.39 198.757 109.74 198.837 106.7C198.897 104.42 198.987 102.92 199.107 102.2C199.227 101.48 199.457 101.12 199.797 101.12C200.137 101.12 200.367 101.31 200.487 101.69C200.607 102.05 200.657 102.66 200.637 103.52L200.547 105.26L201.237 105.32C201.677 105.36 201.997 105.32 202.197 105.2C202.417 105.08 202.577 104.84 202.677 104.48C202.777 104.12 202.857 103.55 202.917 102.77C202.997 101.39 203.067 100.62 203.127 100.46ZM191.577 103.67C192.057 103.39 192.497 103.26 192.897 103.28C193.317 103.28 193.837 103.45 194.457 103.79C195.937 104.53 196.717 105.63 196.797 107.09C196.837 107.63 196.817 108.04 196.737 108.32C196.677 108.58 196.467 108.97 196.107 109.49C195.567 110.31 195.067 110.87 194.607 111.17C194.147 111.45 193.577 111.58 192.897 111.56C191.317 111.5 190.167 110.94 189.447 109.88C188.747 108.8 188.707 107.56 189.327 106.16C189.587 105.52 189.887 105.02 190.227 104.66C190.567 104.28 191.017 103.95 191.577 103.67ZM194.157 105.14C193.697 104.96 193.307 104.89 192.987 104.93C192.687 104.97 192.327 105.14 191.907 105.44C191.447 105.74 191.087 106.18 190.827 106.76C190.567 107.34 190.497 107.85 190.617 108.29C190.697 108.67 190.847 109 191.067 109.28C191.287 109.54 191.547 109.74 191.847 109.88C192.147 110.02 192.477 110.09 192.837 110.09C193.217 110.09 193.507 110.04 193.707 109.94C193.907 109.84 194.157 109.61 194.457 109.25C194.957 108.67 195.247 108.14 195.327 107.66C195.427 107.2 195.347 106.7 195.087 106.16C194.827 105.62 194.517 105.28 194.157 105.14ZM208.921 96.35C209.641 96.09 210.331 96.01 210.991 96.11C211.671 96.19 212.301 96.46 212.881 96.92C213.481 97.38 213.971 98 214.351 98.78C214.731 99.52 214.911 100.21 214.891 100.85C214.891 101.49 214.691 102.2 214.291 102.98C213.971 103.62 213.591 104.1 213.151 104.42C212.711 104.72 212.151 104.92 211.471 105.02C210.331 105.18 209.251 104.96 208.231 104.36C207.211 103.76 206.561 102.99 206.281 102.05C205.881 100.77 205.921 99.63 206.401 98.63C206.881 97.63 207.721 96.87 208.921 96.35ZM211.351 97.58C211.151 97.58 210.931 97.54 210.691 97.46C210.331 97.34 209.761 97.56 208.981 98.12C208.201 98.68 207.731 99.22 207.571 99.74C207.511 99.94 207.501 100.18 207.541 100.46C207.581 100.72 207.651 100.99 207.751 101.27C207.851 101.53 207.981 101.79 208.141 102.05C208.321 102.31 208.511 102.53 208.711 102.71C209.471 103.39 210.241 103.7 211.021 103.64C211.801 103.58 212.421 103.17 212.881 102.41C213.621 101.21 213.501 99.96 212.521 98.66C211.941 97.94 211.551 97.58 211.351 97.58ZM212.611 106.91C212.771 106.53 212.971 106.34 213.211 106.34C213.471 106.32 213.691 106.51 213.871 106.91C214.031 107.29 214.011 107.95 213.811 108.89C213.611 109.79 213.571 110.34 213.691 110.54C213.791 110.72 214.391 110.81 215.491 110.81C216.251 110.81 216.721 110.84 216.901 110.9C217.101 110.94 217.251 111.08 217.351 111.32C217.491 111.74 217.441 112.03 217.201 112.19C216.981 112.35 216.481 112.42 215.701 112.4C215.081 112.38 214.311 112.42 213.391 112.52C212.491 112.6 211.851 112.69 211.471 112.79C211.291 112.85 210.831 112.94 210.091 113.06C209.371 113.2 208.661 113.33 207.961 113.45C207.261 113.57 206.841 113.63 206.701 113.63C206.461 113.63 206.281 113.47 206.161 113.15C206.041 112.83 206.071 112.56 206.251 112.34C206.411 112.14 206.801 111.99 207.421 111.89L208.291 111.77V109.85C208.311 108.79 208.391 108.12 208.531 107.84C208.671 107.54 208.971 107.45 209.431 107.57C209.711 107.65 209.871 107.78 209.911 107.96C209.971 108.12 209.991 108.62 209.971 109.46L209.911 111.14L211.081 111.23C211.821 111.27 212.191 111.23 212.191 111.11C212.191 110.57 212.211 110 212.251 109.4C212.311 108.8 212.371 108.28 212.431 107.84C212.511 107.4 212.571 107.09 212.611 106.91ZM219.531 110.72C219.831 110.58 220.081 110.53 220.281 110.57C220.501 110.59 220.741 110.72 221.001 110.96C221.221 111.14 221.361 111.29 221.421 111.41C221.481 111.51 221.511 111.67 221.511 111.89C221.511 112.87 221.011 113.36 220.011 113.36C219.871 113.36 219.751 113.35 219.651 113.33C219.571 113.31 219.501 113.27 219.441 113.21C219.381 113.17 219.301 113.1 219.201 113C219.001 112.76 218.901 112.41 218.901 111.95C218.901 111.59 218.941 111.33 219.021 111.17C219.101 111.01 219.271 110.86 219.531 110.72Z" fill="#1A1A1A"/>
<path d="M62.5571 100.1C63.6371 99.54 64.8171 99.71 66.0971 100.61C67.1371 101.31 67.8771 102.18 68.3171 103.22C68.7571 104.24 68.8371 105.28 68.5571 106.34C68.3771 107.08 68.1171 107.63 67.7771 107.99C67.4571 108.35 66.9371 108.68 66.2171 108.98C65.5171 109.28 64.8771 109.43 64.2971 109.43C63.8171 109.45 63.2971 109.36 62.7371 109.16C62.1771 108.96 61.6571 108.68 61.1771 108.32C60.7171 107.96 60.3471 107.58 60.0671 107.18C59.7871 106.74 59.6171 106.39 59.5571 106.13C59.4971 105.85 59.4871 105.4 59.5271 104.78C59.5871 103.82 59.7471 103.11 60.0071 102.65C60.2471 102.19 60.6171 101.71 61.1171 101.21C61.6171 100.71 62.0971 100.34 62.5571 100.1ZM65.3471 101.84C64.7671 101.42 64.2871 101.23 63.9071 101.27C63.5271 101.29 63.0671 101.54 62.5271 102.02C61.7271 102.78 61.2571 103.56 61.1171 104.36C60.9971 105.14 61.2271 105.88 61.8071 106.58C62.4871 107.4 63.3171 107.82 64.2971 107.84C65.2971 107.84 66.1171 107.42 66.7571 106.58C66.9571 106.34 67.0871 106.1 67.1471 105.86C67.2071 105.6 67.2171 105.22 67.1771 104.72C67.1171 104.08 66.9571 103.56 66.6971 103.16C66.4371 102.74 65.9871 102.3 65.3471 101.84ZM71.8871 100.34C71.9671 100.2 72.1971 100.15 72.5771 100.19C72.9571 100.23 73.1571 100.32 73.1771 100.46C73.2171 100.8 73.1371 103.58 72.9371 108.8L72.7571 112.55H72.0671C71.8671 112.55 71.7271 112.55 71.6471 112.55C71.5671 112.53 71.4971 112.48 71.4371 112.4C71.3771 112.3 71.3371 112.19 71.3171 112.07C71.3171 111.93 71.3071 111.7 71.2871 111.38C71.2471 110.72 71.3071 108.75 71.4671 105.47C71.6471 102.19 71.7871 100.48 71.8871 100.34ZM77.7029 94.52C78.3229 94.24 78.9929 94.1 79.7129 94.1C80.4529 94.08 81.0129 94.2 81.3929 94.46C82.5729 95.24 83.3529 96.11 83.7329 97.07C84.1329 98.03 84.1029 99.05 83.6429 100.13C83.2429 101.05 82.5829 101.74 81.6629 102.2C80.7629 102.64 79.7029 102.79 78.4829 102.65C77.5429 102.55 76.8529 102.35 76.4129 102.05C75.9929 101.75 75.5729 101.18 75.1529 100.34C74.8729 99.76 74.7129 99.35 74.6729 99.11C74.6529 98.87 74.7129 98.48 74.8529 97.94C75.0329 97.26 75.3929 96.59 75.9329 95.93C76.4929 95.27 77.0829 94.8 77.7029 94.52ZM81.6629 96.44C81.2029 95.92 80.6729 95.63 80.0729 95.57C79.5129 95.51 79.0729 95.55 78.7529 95.69C78.4329 95.81 78.0029 96.12 77.4629 96.62C76.9229 97.14 76.5729 97.61 76.4129 98.03C76.2729 98.43 76.2929 98.87 76.4729 99.35C76.8729 100.33 77.4929 100.95 78.3329 101.21C79.1729 101.45 80.0529 101.27 80.9729 100.67C81.6129 100.27 82.0629 99.86 82.3229 99.44C82.5429 99.02 82.5829 98.53 82.4429 97.97C82.3229 97.41 82.0629 96.9 81.6629 96.44ZM77.4929 103.73C77.5929 103.55 77.7429 103.46 77.9429 103.46C78.5229 103.46 78.8129 104.14 78.8129 105.5C78.8129 106.5 78.8729 107.03 78.9929 107.09C79.1129 107.17 79.4829 107.15 80.1029 107.03L81.0329 106.91L81.0629 105.68C81.0829 104.82 81.1529 104.28 81.2729 104.06C81.3929 103.82 81.6429 103.73 82.0229 103.79C82.3429 103.81 82.5229 103.89 82.5629 104.03C82.6229 104.15 82.6429 104.5 82.6229 105.08C82.6029 105.64 82.6129 106 82.6529 106.16C82.7129 106.32 82.8829 106.46 83.1629 106.58C83.6029 106.78 83.9729 106.78 84.2729 106.58C84.7129 106.3 85.1129 106.31 85.4729 106.61C85.8329 106.89 85.8929 107.25 85.6529 107.69C85.6129 107.77 85.5429 107.84 85.4429 107.9C85.3629 107.96 85.2229 108.01 85.0229 108.05C84.8429 108.09 84.6129 108.13 84.3329 108.17C84.0529 108.19 83.6729 108.22 83.1929 108.26C81.7729 108.34 80.4629 108.55 79.2629 108.89C77.8629 109.25 76.9329 109.46 76.4729 109.52C76.0129 109.56 75.7329 109.48 75.6329 109.28C75.4129 108.66 75.7029 108.18 76.5029 107.84C76.8629 107.68 77.0729 107.51 77.1329 107.33C77.2129 107.15 77.2629 106.62 77.2829 105.74C77.3429 104.52 77.4129 103.85 77.4929 103.73ZM79.7129 110.03C80.4129 109.79 80.9829 109.67 81.4229 109.67C81.8629 109.65 82.3329 109.75 82.8329 109.97C83.5329 110.27 83.9929 110.56 84.2129 110.84C84.4529 111.1 84.5929 111.53 84.6329 112.13C84.7129 112.93 84.6129 113.62 84.3329 114.2C84.0529 114.8 83.5629 115.32 82.8629 115.76C81.9629 116.34 81.0429 116.55 80.1029 116.39C79.1629 116.23 78.3529 115.73 77.6729 114.89C77.4329 114.55 77.2829 114.26 77.2229 114.02C77.1629 113.78 77.1529 113.4 77.1929 112.88C77.3329 111.48 78.1729 110.53 79.7129 110.03ZM82.4129 113.96C83.3729 113 83.5329 112.24 82.8929 111.68C82.2529 111.12 81.4129 111.02 80.3729 111.38C79.7529 111.6 79.3229 111.84 79.0829 112.1C78.8629 112.36 78.7529 112.71 78.7529 113.15C78.7529 113.67 78.9229 114.07 79.2629 114.35C79.6229 114.65 80.1029 114.8 80.7029 114.8C81.0429 114.8 81.3329 114.74 81.5729 114.62C81.8129 114.52 82.0929 114.3 82.4129 113.96ZM91.1698 95.99C92.7298 95.83 93.5898 95.74 93.7498 95.72C94.2298 95.7 94.5198 95.89 94.6198 96.29C94.7198 96.69 94.7298 97.64 94.6498 99.14C94.5498 100.94 94.3498 101.91 94.0498 102.05C93.9098 102.13 93.6998 102.08 93.4198 101.9C93.2598 101.8 93.1598 101.6 93.1198 101.3C93.0798 101 93.0798 100.39 93.1198 99.47L93.1798 97.28L91.5898 97.46C90.2098 97.62 89.2798 97.69 88.7998 97.67C88.3198 97.65 88.0598 97.53 88.0198 97.31C87.9598 96.97 88.1798 96.7 88.6798 96.5C89.1998 96.28 90.0298 96.11 91.1698 95.99ZM101.25 97.22C101.39 96.96 101.62 96.86 101.94 96.92C102.2 96.96 102.35 97.2 102.39 97.64C102.45 98.06 102.48 99.51 102.48 101.99C102.48 103.97 102.45 105.31 102.39 106.01C102.35 106.71 102.27 107.08 102.15 107.12C101.93 107.22 101.67 107.26 101.37 107.24C101.09 107.22 100.94 107.16 100.92 107.06C100.92 106.82 100.88 105.98 100.8 104.54C100.72 102.96 100.61 102.11 100.47 101.99C100.35 101.85 99.8798 101.91 99.0598 102.17C97.6398 102.65 96.9298 102.5 96.9298 101.72C96.9298 101.48 97.0198 101.31 97.1998 101.21C97.3798 101.09 97.8198 100.94 98.5198 100.76C98.5398 100.76 98.5698 100.76 98.6098 100.76C99.9298 100.42 100.69 100.17 100.89 100.01C101.11 99.85 101.19 99.45 101.13 98.81C101.13 98.79 101.13 98.78 101.13 98.78C101.05 98.04 101.09 97.52 101.25 97.22ZM95.0698 103.01C95.4098 102.89 95.7198 102.9 95.9998 103.04C96.2998 103.16 96.4498 103.38 96.4498 103.7C96.4498 104.04 96.3098 104.29 96.0298 104.45C95.7698 104.59 95.3098 104.66 94.6498 104.66C93.8098 104.66 93.2898 104.82 93.0898 105.14C92.8898 105.44 92.7798 106.24 92.7598 107.54C92.7198 108.98 92.6198 109.78 92.4598 109.94C92.3198 110.08 92.0398 110.1 91.6198 110L90.9898 109.82L91.0798 107.42L91.1698 105.02H89.2498C88.5098 105.02 88.0098 105 87.7498 104.96C87.4898 104.9 87.3498 104.8 87.3298 104.66C87.2898 104.44 87.2898 104.27 87.3298 104.15C87.3898 104.01 87.5598 103.9 87.8398 103.82C88.1398 103.72 88.5198 103.64 88.9798 103.58C89.4598 103.52 90.1698 103.47 91.1098 103.43C93.3498 103.31 94.6698 103.17 95.0698 103.01ZM95.9098 109.91C96.0698 109.63 96.2998 109.46 96.5998 109.4C96.9198 109.34 97.1498 109.42 97.2898 109.64C97.3898 109.78 97.3398 110.36 97.1398 111.38C96.9398 112.38 96.8798 112.93 96.9598 113.03C97.0398 113.09 97.3498 113.05 97.8898 112.91C98.3498 112.77 99.1198 112.64 100.2 112.52C101.56 112.38 102.36 112.33 102.6 112.37C102.84 112.41 102.97 112.6 102.99 112.94C103.05 113.3 102.96 113.53 102.72 113.63C102.5 113.75 101.83 113.88 100.71 114.02C99.7898 114.08 98.8098 114.27 97.7698 114.59C96.9698 114.85 96.3898 114.99 96.0298 115.01C95.6898 115.03 95.5098 114.94 95.4898 114.74C95.4498 113.8 95.4698 112.82 95.5498 111.8C95.6498 110.76 95.7698 110.13 95.9098 109.91ZM115.561 100.31C115.661 100.49 115.721 100.65 115.741 100.79C115.761 100.91 115.761 101.02 115.741 101.12C115.681 101.28 115.611 102.36 115.531 104.36C115.451 106.58 115.391 108.2 115.351 109.22C115.311 110.52 115.341 111.32 115.441 111.62C115.461 111.72 115.471 111.81 115.471 111.89C115.491 111.95 115.501 112.01 115.501 112.07C115.481 112.17 115.391 112.35 115.231 112.61C115.111 112.77 115.001 112.9 114.901 113C114.801 113.12 114.701 113.2 114.601 113.24C114.441 113.36 114.291 113.36 114.151 113.24C114.011 113.16 113.881 112.98 113.761 112.7C113.701 112.56 113.651 112.31 113.611 111.95C113.571 111.59 113.541 111.14 113.521 110.6C113.501 109.48 113.561 108.78 113.701 108.5C113.801 108.26 113.891 107.19 113.971 105.29C113.991 104.19 114.021 103.29 114.061 102.59C114.101 101.89 114.131 101.38 114.151 101.06C114.231 100.42 114.351 100.01 114.511 99.83C114.571 99.77 114.641 99.72 114.721 99.68C115.001 99.52 115.281 99.73 115.561 100.31ZM124.231 97.46C124.991 97.32 125.501 97.45 125.761 97.85C126.001 98.23 125.351 99.4 123.811 101.36C123.511 101.72 123.431 102.04 123.571 102.32C123.711 102.6 124.181 103.02 124.981 103.58C125.761 104.18 126.131 104.65 126.091 104.99C125.991 105.83 125.221 105.69 123.781 104.57C122.861 103.83 122.331 103.46 122.191 103.46C122.011 103.46 121.641 103.82 121.081 104.54C120.541 105.26 120.271 105.73 120.271 105.95C120.271 106.17 120.071 106.34 119.671 106.46C119.391 106.52 119.061 106.48 118.681 106.34C118.301 106.2 118.111 106.05 118.111 105.89C118.111 105.79 118.641 105.11 119.701 103.85C120.761 102.57 121.741 101.44 122.641 100.46C123.281 99.78 123.561 99.4 123.481 99.32C123.421 99.26 123.071 99.28 122.431 99.38C121.811 99.46 121.121 99.58 120.361 99.74C119.621 99.88 119.081 100.01 118.741 100.13C118.341 100.25 118.061 100.31 117.901 100.31C117.761 100.31 117.611 100.24 117.451 100.1C117.311 99.94 117.241 99.81 117.241 99.71C117.241 99.59 117.331 99.41 117.511 99.17C117.771 98.73 118.071 98.48 118.411 98.42C120.191 98.12 121.201 97.96 121.441 97.94C123.081 97.68 124.011 97.52 124.231 97.46ZM129.481 98.09C129.641 97.57 129.841 97.34 130.081 97.4C130.441 97.46 130.661 97.68 130.741 98.06C130.841 98.42 130.831 99.06 130.711 99.98L130.501 101.66L132.121 101.51C133.061 101.43 133.661 101.44 133.921 101.54C134.181 101.62 134.341 101.87 134.401 102.29C134.441 102.59 134.381 102.77 134.221 102.83C134.061 102.89 133.501 102.96 132.541 103.04C131.241 103.16 130.531 103.26 130.411 103.34C130.331 103.48 130.291 104.06 130.291 105.08V106.67H129.541C129.241 106.67 129.041 106.63 128.941 106.55C128.861 106.45 128.801 106.21 128.761 105.83C128.721 105.49 128.741 104.76 128.821 103.64C128.901 102.52 129.001 101.4 129.121 100.28C129.261 99.14 129.381 98.41 129.481 98.09ZM126.091 108.29C126.711 108.13 127.381 108.1 128.101 108.2C128.821 108.28 129.401 108.48 129.841 108.8C130.361 109.2 130.701 109.66 130.861 110.18C131.041 110.68 131.081 111.33 130.981 112.13C130.921 112.67 130.831 113.08 130.711 113.36C130.591 113.64 130.381 113.94 130.081 114.26C129.581 114.72 129.041 115.01 128.461 115.13C127.881 115.25 127.151 115.22 126.271 115.04C124.931 114.78 124.001 114.2 123.481 113.3C122.961 112.4 122.971 111.42 123.511 110.36C124.031 109.34 124.891 108.65 126.091 108.29ZM128.941 110.24C128.441 109.82 127.851 109.64 127.171 109.7C126.511 109.74 125.921 110.01 125.401 110.51C124.641 111.21 124.481 111.91 124.921 112.61C125.361 113.29 126.171 113.63 127.351 113.63C127.851 113.63 128.291 113.51 128.671 113.27C129.071 113.03 129.351 112.74 129.511 112.4C129.691 112.06 129.731 111.69 129.631 111.29C129.531 110.89 129.301 110.54 128.941 110.24Z" fill="#EB8888"/>
</svg>
