<svg width="195" height="93" viewBox="0 0 195 93" fill="none" xmlns="http://www.w3.org/2000/svg">
<path d="M11.2996 2.98C11.3796 2.76 11.5596 2.65 11.8396 2.65C12.2396 2.65 12.4896 2.81 12.5896 3.13C12.6896 3.43 12.6696 4.05 12.5296 4.99C12.3896 6.11 12.3996 6.76 12.5596 6.94C12.7396 7.1 13.3596 7.08 14.4196 6.88C15.3596 6.72 15.9896 6.68 16.3096 6.76C16.6296 6.82 16.7896 7.04 16.7896 7.42C16.7896 7.68 16.7196 7.85 16.5796 7.93C16.4596 8.01 16.1596 8.08 15.6796 8.14C14.9396 8.22 14.1696 8.39 13.3696 8.65L12.1696 9.04L12.2896 10.69L12.4096 12.31H11.6296C11.1296 12.31 10.8296 12.19 10.7296 11.95C10.6496 11.75 10.6896 10.27 10.8496 7.51C11.0296 4.75 11.1796 3.24 11.2996 2.98ZM4.30957 4.03C4.70957 3.57 5.06957 3.25 5.38957 3.07C5.72957 2.89 5.95957 2.85 6.07957 2.95C6.21957 3.05 6.22957 3.28 6.10957 3.64C5.98957 4 5.73957 4.43 5.35957 4.93C4.79957 5.59 4.51957 6.03 4.51957 6.25C4.51957 6.33 4.63957 6.48 4.87957 6.7C5.11957 6.9 5.38957 7.1 5.68957 7.3C7.28957 8.38 8.08957 9.25 8.08957 9.91C8.08957 10.89 7.45957 10.81 6.19957 9.67C5.71957 9.19 5.19957 8.77 4.63957 8.41C4.07957 8.03 3.69957 7.84 3.49957 7.84C3.37957 7.84 3.14957 8.21 2.80957 8.95C2.46957 9.69 2.26957 10.26 2.20957 10.66C2.14957 11.04 2.05957 11.28 1.93957 11.38C1.83957 11.46 1.63957 11.5 1.33957 11.5C1.03957 11.5 0.83957 11.46 0.73957 11.38C0.63957 11.3 0.57957 11.13 0.55957 10.87C0.49957 10.37 0.87957 9.37 1.69957 7.87C2.53957 6.37 3.40957 5.09 4.30957 4.03ZM7.87957 13.72C8.57957 13.46 9.14957 13.36 9.58957 13.42C10.0296 13.46 10.5596 13.68 11.1796 14.08C12.5396 14.98 13.1296 16.28 12.9496 17.98C12.8896 18.74 12.7296 19.34 12.4696 19.78C12.2096 20.22 11.7696 20.64 11.1496 21.04C10.8096 21.26 10.5096 21.39 10.2496 21.43C10.0096 21.49 9.62957 21.49 9.10957 21.43C8.26957 21.33 7.60957 21.17 7.12957 20.95C6.66957 20.75 6.21957 20.4 5.77957 19.9C5.11957 19.14 4.79957 18.28 4.81957 17.32C4.83957 16.34 5.19957 15.52 5.89957 14.86C6.33957 14.4 6.99957 14.02 7.87957 13.72ZM10.8796 15.73C10.0596 14.91 9.06957 14.79 7.90957 15.37C7.34957 15.63 6.95957 15.92 6.73957 16.24C6.51957 16.56 6.40957 17 6.40957 17.56C6.40957 17.86 6.48957 18.17 6.64957 18.49C6.82957 18.79 7.05957 19.06 7.33957 19.3C7.63957 19.54 7.93957 19.7 8.23957 19.78C8.67957 19.9 9.17957 19.89 9.73957 19.75C10.3196 19.61 10.7296 19.41 10.9696 19.15C11.3496 18.77 11.5296 18.21 11.5096 17.47C11.4896 16.71 11.2796 16.13 10.8796 15.73ZM29.1442 6.13C29.3042 5.69 29.5642 5.47 29.9242 5.47C30.0642 5.47 30.1742 5.49 30.2542 5.53C30.3542 5.57 30.4342 5.65 30.4942 5.77C30.5542 5.87 30.5942 6 30.6142 6.16C30.6342 6.32 30.6342 6.56 30.6142 6.88C30.6142 7.2 30.5942 7.56 30.5542 7.96C30.5142 8.34 30.4642 8.83 30.4042 9.43L30.2842 10.24L31.5442 10.06C32.6642 9.92 33.3242 9.75 33.5242 9.55C33.7242 9.35 33.8242 8.79 33.8242 7.87C33.8242 6.37 34.0542 5.61 34.5142 5.59C34.6542 5.59 34.8042 5.63 34.9642 5.71C35.2042 5.83 35.3442 5.97 35.3842 6.13C35.4242 6.27 35.4142 6.55 35.3542 6.97C35.2542 7.79 35.1642 9.71 35.0842 12.73C35.0242 15.09 34.9542 16.49 34.8742 16.93C34.8142 17.37 34.6542 17.65 34.3942 17.77C34.0142 17.95 33.7642 17.98 33.6442 17.86C33.5242 17.72 33.4842 16.66 33.5242 14.68C33.5642 12.92 33.4942 11.92 33.3142 11.68C33.1542 11.42 32.5642 11.44 31.5442 11.74L30.2242 12.1L30.3142 14.47C30.3542 15.51 30.3542 16.19 30.3142 16.51C30.2742 16.81 30.1642 17.01 29.9842 17.11C29.7042 17.29 29.4342 17.29 29.1742 17.11C28.9742 17.01 28.8542 16.68 28.8142 16.12C28.7742 15.54 28.7742 14.11 28.8142 11.83C28.8742 8.45 28.9842 6.55 29.1442 6.13ZM23.8042 5.95C24.1042 5.81 24.5342 5.76 25.0942 5.8C25.4542 5.82 25.6842 5.87 25.7842 5.95C25.8842 6.03 25.9342 6.23 25.9342 6.55V7.24L23.4142 7.51C21.6742 7.73 20.6242 7.91 20.2642 8.05C19.9642 8.17 19.7842 8.29 19.7242 8.41C19.6842 8.51 19.6942 8.71 19.7542 9.01C19.8542 9.61 19.9042 10.35 19.9042 11.23C19.9042 12.21 20.0142 12.84 20.2342 13.12C20.4742 13.38 21.0342 13.52 21.9142 13.54C22.8942 13.54 23.7642 13.48 24.5242 13.36C25.0642 13.28 25.4142 13.26 25.5742 13.3C25.7542 13.34 25.9042 13.46 26.0242 13.66C26.2642 14.12 26.2542 14.44 25.9942 14.62C25.7542 14.8 25.1642 14.93 24.2242 15.01C20.8242 15.27 19.0442 15.22 18.8842 14.86C18.8042 14.64 18.6642 13.38 18.4642 11.08C18.3442 9.56 18.2842 8.58 18.2842 8.14C18.2842 7.7 18.3642 7.41 18.5242 7.27C18.6642 7.13 18.9642 6.98 19.4242 6.82C19.8842 6.64 20.3942 6.49 20.9542 6.37C21.5142 6.25 21.9842 6.18 22.3642 6.16C23.0042 6.16 23.4842 6.09 23.8042 5.95ZM41.237 2.44C41.277 2.44 41.337 2.43 41.417 2.41C42.857 2.27 43.707 2.22 43.967 2.26C44.227 2.28 44.417 2.42 44.537 2.68C44.557 2.72 44.567 2.75 44.567 2.77C44.647 2.99 44.697 3.18 44.717 3.34C44.737 3.48 44.637 3.59 44.417 3.67C44.197 3.75 43.907 3.81 43.547 3.85C43.207 3.87 42.687 3.89 41.987 3.91C41.307 3.93 40.767 3.96 40.367 4C39.987 4.04 39.647 4.1 39.347 4.18C39.067 4.26 38.867 4.4 38.747 4.6C38.627 4.78 38.537 4.99 38.477 5.23C38.437 5.47 38.417 5.81 38.417 6.25V7.66L39.287 7.48C42.787 6.8 44.537 6.88 44.537 7.72C44.537 8.04 44.407 8.26 44.147 8.38C43.907 8.48 43.427 8.54 42.707 8.56C41.947 8.56 41.057 8.7 40.037 8.98C39.357 9.16 38.937 9.31 38.777 9.43C38.617 9.53 38.557 9.71 38.597 9.97C38.637 10.45 38.787 10.73 39.047 10.81C39.307 10.87 39.887 10.8 40.787 10.6C43.347 10.04 44.777 10 45.077 10.48C45.237 10.72 45.217 10.97 45.017 11.23C44.837 11.49 44.567 11.62 44.207 11.62C43.887 11.62 42.947 11.77 41.387 12.07C39.947 12.37 38.977 12.52 38.477 12.52C37.977 12.52 37.687 12.39 37.607 12.13C37.267 11.07 37.047 9.48 36.947 7.36C36.847 5.24 36.927 4.03 37.187 3.73C37.787 3.05 39.137 2.62 41.237 2.44ZM47.507 3.73C47.587 3.51 47.767 3.39 48.047 3.37C48.347 3.33 48.557 3.41 48.677 3.61C48.777 3.77 48.847 5.31 48.887 8.23V12.58L48.347 12.7C47.987 12.78 47.737 12.72 47.597 12.52C47.437 12.28 47.337 10.88 47.297 8.32C47.277 5.76 47.347 4.23 47.507 3.73ZM46.127 14.41C46.547 14.27 46.777 14.2 46.817 14.2C46.857 14.2 46.937 14.23 47.057 14.29C47.197 14.33 47.337 14.4 47.477 14.5C47.617 14.6 47.747 14.7 47.867 14.8C48.007 14.88 48.097 14.95 48.137 15.01C48.257 15.21 48.317 16.09 48.317 17.65C48.317 19.03 48.207 19.85 47.987 20.11C47.787 20.37 47.087 20.56 45.887 20.68C45.607 20.7 45.137 20.74 44.477 20.8C43.837 20.88 43.427 20.93 43.247 20.95C42.967 20.99 42.737 21.01 42.557 21.01C42.377 21.01 42.207 20.99 42.047 20.95C41.887 20.93 41.767 20.87 41.687 20.77C41.607 20.67 41.527 20.55 41.447 20.41C41.387 20.29 41.337 20.09 41.297 19.81C41.277 19.55 41.257 19.28 41.237 19C41.237 18.7 41.237 18.32 41.237 17.86C41.237 16.3 41.297 15.43 41.417 15.25C41.537 15.07 41.907 14.98 42.527 14.98C43.687 14.98 44.887 14.79 46.127 14.41ZM46.757 16.21L45.827 16.15C45.487 16.15 45.127 16.18 44.747 16.24C44.367 16.28 44.007 16.36 43.667 16.48C43.347 16.6 43.117 16.72 42.977 16.84C42.757 17.02 42.647 17.49 42.647 18.25V19.39L44.027 19.24C44.267 19.2 44.617 19.15 45.077 19.09C45.537 19.05 45.827 19.02 45.947 19C46.027 19 46.117 18.99 46.217 18.97C46.337 18.95 46.427 18.94 46.487 18.94C46.567 18.94 46.617 18.94 46.637 18.94C46.717 18.9 46.757 18.43 46.757 17.53V16.21ZM53.4536 6.1C54.5336 5.54 55.7136 5.71 56.9936 6.61C58.0336 7.31 58.7736 8.18 59.2136 9.22C59.6536 10.24 59.7336 11.28 59.4536 12.34C59.2736 13.08 59.0136 13.63 58.6736 13.99C58.3536 14.35 57.8336 14.68 57.1136 14.98C56.4136 15.28 55.7736 15.43 55.1936 15.43C54.7136 15.45 54.1936 15.36 53.6336 15.16C53.0736 14.96 52.5536 14.68 52.0736 14.32C51.6136 13.96 51.2436 13.58 50.9636 13.18C50.6836 12.74 50.5136 12.39 50.4536 12.13C50.3936 11.85 50.3836 11.4 50.4236 10.78C50.4836 9.82 50.6436 9.11 50.9036 8.65C51.1436 8.19 51.5136 7.71 52.0136 7.21C52.5136 6.71 52.9936 6.34 53.4536 6.1ZM56.2436 7.84C55.6636 7.42 55.1836 7.23 54.8036 7.27C54.4236 7.29 53.9636 7.54 53.4236 8.02C52.6236 8.78 52.1536 9.56 52.0136 10.36C51.8936 11.14 52.1236 11.88 52.7036 12.58C53.3836 13.4 54.2136 13.82 55.1936 13.84C56.1936 13.84 57.0136 13.42 57.6536 12.58C57.8536 12.34 57.9836 12.1 58.0436 11.86C58.1036 11.6 58.1136 11.22 58.0736 10.72C58.0136 10.08 57.8536 9.56 57.5936 9.16C57.3336 8.74 56.8836 8.3 56.2436 7.84ZM62.7836 6.34C62.8636 6.2 63.0936 6.15 63.4736 6.19C63.8536 6.23 64.0536 6.32 64.0736 6.46C64.1136 6.8 64.0336 9.58 63.8336 14.8L63.6536 18.55H62.9636C62.7636 18.55 62.6236 18.55 62.5436 18.55C62.4636 18.53 62.3936 18.48 62.3336 18.4C62.2736 18.3 62.2336 18.19 62.2136 18.07C62.2136 17.93 62.2036 17.7 62.1836 17.38C62.1436 16.72 62.2036 14.75 62.3636 11.47C62.5436 8.19 62.6836 6.48 62.7836 6.34ZM79.2735 2.98C79.8335 2.36 80.3335 2.09 80.7735 2.17C81.0135 2.21 81.1335 2.36 81.1335 2.62C81.1335 2.9 81.0135 3.14 80.7735 3.34C80.1535 3.86 80.3735 4.41 81.4335 4.99C83.5135 6.13 84.6235 6.89 84.7635 7.27C84.8235 7.41 84.8235 7.58 84.7635 7.78C84.7235 7.98 84.6435 8.16 84.5235 8.32C84.4035 8.46 84.2835 8.53 84.1635 8.53C84.0035 8.53 83.5935 8.27 82.9335 7.75C82.4535 7.37 81.7935 6.94 80.9535 6.46C80.1335 5.96 79.6235 5.71 79.4235 5.71C79.3235 5.71 79.0035 6.12 78.4635 6.94C77.9235 7.76 77.4835 8.52 77.1435 9.22C76.9035 9.68 76.7235 9.95 76.6035 10.03C76.5035 10.09 76.2835 10.06 75.9435 9.94C75.8235 9.9 75.7035 9.85 75.5835 9.79C75.4835 9.71 75.3935 9.63 75.3135 9.55C75.2535 9.47 75.2235 9.4 75.2235 9.34C75.2235 9.12 75.6535 8.41 76.5135 7.21C77.3535 5.93 77.9035 5.06 78.1635 4.6C78.4435 4.04 78.8135 3.5 79.2735 2.98ZM83.6235 12.1C84.2635 11.9 84.8435 11.92 85.3635 12.16C85.9035 12.38 86.0935 12.7 85.9335 13.12C85.8335 13.36 85.6035 13.54 85.2435 13.66C84.8835 13.78 84.5335 13.8 84.1935 13.72C83.8135 13.64 83.3735 13.64 82.8735 13.72L82.1835 13.87L82.1235 16.81C82.1035 18.89 82.0835 20 82.0635 20.14C82.0635 20.42 81.8335 20.56 81.3735 20.56C81.1335 20.56 80.9535 20.52 80.8335 20.44C80.7135 20.38 80.6135 20.21 80.5335 19.93C80.4535 19.67 80.4135 19.3 80.4135 18.82C80.4335 18.32 80.4435 17.65 80.4435 16.81C80.4835 15.51 80.4835 14.73 80.4435 14.47C80.4235 14.21 80.3035 14.09 80.0835 14.11C79.9235 14.15 79.1635 14.21 77.8035 14.29C77.5835 14.31 77.3335 14.33 77.0535 14.35C76.7935 14.37 76.5635 14.39 76.3635 14.41C76.1635 14.41 75.9635 14.42 75.7635 14.44C75.5635 14.46 75.4235 14.47 75.3435 14.47C75.0435 14.51 74.8435 14.5 74.7435 14.44C74.6635 14.36 74.6135 14.19 74.5935 13.93C74.5335 13.59 74.5835 13.34 74.7435 13.18C74.9235 13.02 75.2435 12.9 75.7035 12.82C76.1635 12.74 76.9235 12.69 77.9835 12.67C80.9235 12.55 82.8035 12.36 83.6235 12.1ZM93.5734 2.05C93.7534 1.85 94.0334 1.94 94.4134 2.32C94.5534 2.46 94.6434 2.73 94.6834 3.13C94.7434 3.53 94.7734 4.28 94.7734 5.38C94.7734 7.14 94.6934 8.07 94.5334 8.17C94.3134 8.31 93.7434 8.48 92.8234 8.68C92.7634 8.68 92.6834 8.7 92.5834 8.74C91.1034 9.08 90.2334 9.32 89.9734 9.46C89.7134 9.6 89.5834 9.87 89.5834 10.27C89.5834 10.31 89.5834 10.33 89.5834 10.33C89.5834 10.83 89.7034 11.14 89.9434 11.26C90.2034 11.36 90.6934 11.33 91.4134 11.17C92.3534 10.99 93.2534 10.86 94.1134 10.78C94.8334 10.7 95.2934 10.68 95.4934 10.72C95.6934 10.74 95.8234 10.84 95.8834 11.02C96.0434 11.42 95.9534 11.73 95.6134 11.95C95.2934 12.15 94.5734 12.33 93.4534 12.49C91.9134 12.71 90.7834 12.81 90.0634 12.79C89.3434 12.77 88.8534 12.61 88.5934 12.31C88.3534 12.01 88.1734 11.44 88.0534 10.6C87.9534 9.74 87.9934 9.15 88.1734 8.83C88.2534 8.69 88.4134 8.55 88.6534 8.41C88.9134 8.27 89.3034 8.12 89.8234 7.96C90.3634 7.78 91.1134 7.56 92.0734 7.3L93.2434 6.97L93.2734 5.5C93.2934 4.5 93.1934 3.96 92.9734 3.88C92.7334 3.8 91.9234 3.93 90.5434 4.27C89.3434 4.57 88.5334 4.7 88.1134 4.66C87.6934 4.6 87.4834 4.36 87.4834 3.94C87.4834 3.6 87.7134 3.34 88.1734 3.16C88.6334 2.98 89.6434 2.77 91.2034 2.53C92.7034 2.27 93.4934 2.11 93.5734 2.05ZM99.5434 3.28C99.7034 3 99.9534 2.88 100.293 2.92C100.533 2.96 100.673 3.09 100.713 3.31C100.773 3.53 100.803 4.18 100.803 5.26C100.803 5.4 100.803 5.59 100.803 5.83C100.803 6.69 100.863 7.18 100.983 7.3C101.103 7.42 101.543 7.42 102.303 7.3C102.543 7.26 102.723 7.23 102.843 7.21C103.323 7.15 103.643 7.14 103.803 7.18C103.963 7.22 104.093 7.34 104.193 7.54C104.393 7.92 104.413 8.22 104.253 8.44C104.113 8.66 103.823 8.77 103.383 8.77C102.803 8.77 102.183 8.86 101.523 9.04L100.473 9.34V11.44V13.51L99.6934 13.45C99.2934 13.41 99.0634 13.33 99.0034 13.21C98.9434 13.09 98.9234 12.71 98.9434 12.07C98.9634 10.39 99.0434 8.55 99.1834 6.55C99.3234 4.55 99.4434 3.46 99.5434 3.28ZM98.3134 15.49C98.3734 15.39 98.6534 15.37 99.1534 15.43C99.6334 15.49 99.9634 15.76 100.143 16.24C100.343 16.72 100.473 17.74 100.533 19.3L100.653 21.97L99.9634 22.09C99.4834 22.21 99.1834 22.21 99.0634 22.09C98.9434 21.97 98.8734 21.14 98.8534 19.6C98.7734 18.02 98.6334 17.19 98.4334 17.11C98.2134 17.03 97.4434 17.16 96.1234 17.5C94.9234 17.8 94.1034 17.94 93.6634 17.92C93.2434 17.9 93.0034 17.71 92.9434 17.35C92.9034 16.97 93.1334 16.67 93.6334 16.45C94.1334 16.21 95.0034 16.01 96.2434 15.85C97.5034 15.69 98.1934 15.57 98.3134 15.49ZM110.052 2.08C110.192 1.96 110.392 1.92 110.652 1.96C110.932 2 111.152 2.12 111.312 2.32C111.532 2.58 111.622 3.25 111.582 4.33L111.522 5.98L113.232 5.83C114.372 5.73 115.062 5.65 115.302 5.59C115.542 5.51 115.762 5.58 115.962 5.8C116.162 6.02 116.252 6.28 116.232 6.58C116.232 6.86 116.132 7.11 115.932 7.33C115.712 7.53 115.402 7.53 115.002 7.33C114.742 7.21 114.482 7.16 114.222 7.18C113.982 7.2 113.572 7.28 112.992 7.42C111.932 7.7 110.982 7.88 110.142 7.96C109.082 8.06 108.212 8.23 107.532 8.47C107.052 8.65 106.752 8.74 106.632 8.74C106.512 8.74 106.372 8.63 106.212 8.41C105.992 8.13 105.882 7.93 105.882 7.81C105.882 7.33 106.722 6.94 108.402 6.64L110.202 6.34L110.052 4.27C109.952 2.93 109.952 2.2 110.052 2.08ZM119.322 7.51C119.502 7.27 119.652 7.15 119.772 7.15C119.912 7.15 120.082 7.26 120.282 7.48C120.482 7.72 120.512 8.64 120.372 10.24L120.222 12.61L121.362 12.46C121.502 12.44 121.662 12.42 121.842 12.4C122.022 12.36 122.172 12.33 122.292 12.31C122.432 12.27 122.562 12.24 122.682 12.22C122.822 12.2 122.922 12.18 122.982 12.16C123.262 12.1 123.542 12.18 123.822 12.4C124.122 12.62 124.272 12.86 124.272 13.12C124.272 13.5 123.722 13.75 122.622 13.87C121.362 13.99 120.652 14.13 120.492 14.29C120.332 14.41 120.252 14.84 120.252 15.58C120.252 15.64 120.252 15.74 120.252 15.88C120.212 17.46 120.162 18.38 120.102 18.64C120.062 18.9 119.902 19.05 119.622 19.09C119.582 19.09 119.552 19.09 119.532 19.09C119.252 19.13 119.062 19.11 118.962 19.03C118.882 18.95 118.812 18.74 118.752 18.4C118.672 18.04 118.642 17.29 118.662 16.15C118.702 14.99 118.752 13.8 118.812 12.58C118.872 11.34 118.942 10.21 119.022 9.19C119.122 8.17 119.222 7.61 119.322 7.51ZM111.432 9.16C111.692 9.08 111.992 9.08 112.332 9.16C112.692 9.22 112.952 9.25 113.112 9.25C113.312 9.25 113.842 9.66 114.702 10.48C115.422 11.18 115.882 11.83 116.082 12.43C116.282 13.01 116.272 13.67 116.052 14.41C115.812 15.21 115.422 15.91 114.882 16.51C114.362 17.09 113.772 17.5 113.112 17.74C112.472 17.96 111.822 18.07 111.162 18.07C110.502 18.05 109.892 17.84 109.332 17.44C108.772 17.04 108.332 16.49 108.012 15.79C107.692 15.05 107.532 14.51 107.532 14.17C107.532 13.87 107.662 13.38 107.922 12.7C108.202 12 108.492 11.46 108.792 11.08C108.952 10.86 109.192 10.62 109.512 10.36C109.832 10.08 110.162 9.83 110.502 9.61C110.862 9.39 111.172 9.24 111.432 9.16ZM113.982 11.62C113.082 10.66 112.092 10.54 111.012 11.26C110.192 11.82 109.652 12.53 109.392 13.39C109.152 14.23 109.242 14.97 109.662 15.61C110.082 16.25 110.742 16.57 111.642 16.57C112.202 16.57 112.672 16.46 113.052 16.24C113.432 16 113.792 15.61 114.132 15.07C114.492 14.47 114.652 13.86 114.612 13.24C114.592 12.6 114.382 12.06 113.982 11.62ZM138.254 1.27C138.354 1.11 138.464 1.03 138.584 1.03C138.704 1.03 138.894 1.13 139.154 1.33C139.254 1.39 139.324 1.49 139.364 1.63C139.424 1.77 139.464 2.06 139.484 2.5C139.524 2.92 139.544 3.45 139.544 4.09C139.564 4.71 139.574 5.64 139.574 6.88C139.614 10.38 139.554 12.21 139.394 12.37C139.214 12.53 138.964 12.55 138.644 12.43C138.344 12.29 138.144 12.07 138.044 11.77C137.964 11.39 137.924 10.73 137.924 9.79C137.924 8.93 137.834 8.46 137.654 8.38C137.494 8.28 136.944 8.41 136.004 8.77C135.284 9.07 134.744 9.21 134.384 9.19C134.024 9.15 133.774 8.95 133.634 8.59C133.494 8.23 133.564 7.94 133.844 7.72C134.144 7.5 134.654 7.34 135.374 7.24C136.254 7.12 136.934 6.96 137.414 6.76C137.774 6.6 137.984 6.47 138.044 6.37C138.124 6.25 138.124 6.02 138.044 5.68C137.964 5.2 137.894 4.92 137.834 4.84C137.654 4.66 136.974 4.7 135.794 4.96C134.814 5.14 134.124 5.15 133.724 4.99C133.344 4.81 133.254 4.43 133.454 3.85C133.534 3.63 133.654 3.49 133.814 3.43C133.974 3.37 134.314 3.34 134.834 3.34C135.514 3.34 136.264 3.3 137.084 3.22C137.604 3.12 137.904 3.03 137.984 2.95C138.084 2.87 138.124 2.66 138.104 2.32C138.084 1.84 138.134 1.49 138.254 1.27ZM129.734 2.71C130.014 2.39 130.294 2.22 130.574 2.2C130.874 2.16 131.074 2.28 131.174 2.56C131.334 2.92 131.014 3.64 130.214 4.72C129.894 5.16 129.784 5.53 129.884 5.83C129.984 6.11 130.504 6.88 131.444 8.14C132.084 8.98 132.474 9.61 132.614 10.03C132.774 10.45 132.704 10.71 132.404 10.81C132.224 10.89 132.034 10.89 131.834 10.81C131.654 10.71 131.424 10.52 131.144 10.24C130.884 9.94 130.534 9.49 130.094 8.89C129.254 7.83 128.754 7.27 128.594 7.21C128.474 7.17 128.264 7.51 127.964 8.23C127.684 8.93 127.544 9.46 127.544 9.82C127.544 10.12 127.324 10.34 126.884 10.48C126.464 10.62 126.154 10.57 125.954 10.33C125.794 10.19 125.744 9.99 125.804 9.73C125.864 9.47 126.074 8.96 126.434 8.2C126.934 7.12 127.534 6.07 128.234 5.05C128.894 4.11 129.224 3.57 129.224 3.43C129.224 3.33 129.394 3.09 129.734 2.71ZM132.794 14.23C133.194 13.81 133.444 13.58 133.544 13.54C133.664 13.5 133.884 13.56 134.204 13.72C134.744 14.04 134.734 14.46 134.174 14.98C133.834 15.24 133.664 15.48 133.664 15.7C133.664 15.86 133.754 16.05 133.934 16.27C134.114 16.49 134.344 16.7 134.624 16.9C134.904 17.1 135.194 17.26 135.494 17.38C136.114 17.64 136.444 17.73 136.484 17.65C136.504 17.61 136.514 17.54 136.514 17.44C136.514 17.26 136.784 16.59 137.324 15.43C137.624 14.83 137.864 14.4 138.044 14.14C138.244 13.86 138.414 13.74 138.554 13.78C138.734 13.8 138.894 13.88 139.034 14.02C139.174 14.16 139.254 14.33 139.274 14.53C139.314 14.71 139.304 14.89 139.244 15.07C139.044 15.45 139.034 15.8 139.214 16.12C139.414 16.42 139.934 16.98 140.774 17.8C142.054 19.08 142.554 19.82 142.274 20.02C142.174 20.08 142.014 20.11 141.794 20.11C141.374 20.11 140.974 19.99 140.594 19.75C140.234 19.51 139.764 19.08 139.184 18.46C138.604 17.84 138.224 17.57 138.044 17.65C137.884 17.73 137.684 18.27 137.444 19.27C137.264 20.01 137.104 20.46 136.964 20.62C136.844 20.78 136.614 20.8 136.274 20.68C135.954 20.6 135.794 20.34 135.794 19.9C135.794 19.54 135.714 19.24 135.554 19C135.394 18.78 135.194 18.67 134.954 18.67C134.754 18.67 134.314 18.44 133.634 17.98C133.054 17.54 132.664 17.38 132.464 17.5C132.284 17.6 132.064 18.09 131.804 18.97C131.624 19.55 131.474 19.9 131.354 20.02C131.254 20.16 131.044 20.23 130.724 20.23C130.444 20.23 130.254 20.19 130.154 20.11C130.054 20.03 129.994 19.89 129.974 19.69C129.914 19.35 130.244 18.5 130.964 17.14C131.684 15.76 132.294 14.79 132.794 14.23ZM148.621 1.27C149.081 0.79 149.471 0.659999 149.791 0.879999C150.071 1.06 150.051 1.41 149.731 1.93C149.571 2.21 149.621 2.5 149.881 2.8C150.141 3.08 150.711 3.46 151.591 3.94C152.531 4.46 153.131 4.88 153.391 5.2C153.671 5.5 153.711 5.83 153.511 6.19C153.371 6.45 153.191 6.6 152.971 6.64C152.751 6.66 152.531 6.56 152.311 6.34C152.151 6.14 151.621 5.76 150.721 5.2C149.821 4.64 149.201 4.3 148.861 4.18C148.681 4.12 148.521 4.15 148.381 4.27C148.241 4.39 148.051 4.65 147.811 5.05C147.391 5.77 147.061 6.46 146.821 7.12C146.641 7.58 146.491 7.87 146.371 7.99C146.271 8.11 146.081 8.16 145.801 8.14C145.561 8.12 145.361 8.07 145.201 7.99C145.041 7.89 144.931 7.77 144.871 7.63C144.831 7.49 144.831 7.33 144.871 7.15C144.951 6.97 145.261 6.44 145.801 5.56C146.341 4.66 146.901 3.77 147.481 2.89C148.081 1.99 148.461 1.45 148.621 1.27ZM152.851 9.76C153.371 9.52 153.841 9.48 154.261 9.64C154.681 9.78 154.891 10.05 154.891 10.45C154.891 10.77 154.691 11 154.291 11.14C153.891 11.28 153.071 11.39 151.831 11.47C150.191 11.59 148.551 11.81 146.911 12.13C145.771 12.35 145.031 12.47 144.691 12.49C144.351 12.51 144.131 12.44 144.031 12.28C143.891 12.04 143.831 11.86 143.851 11.74C143.891 11.6 144.041 11.4 144.301 11.14C144.621 10.82 145.211 10.66 146.071 10.66C146.931 10.66 147.381 10.67 147.421 10.69C147.501 10.69 147.731 10.61 148.111 10.45C148.571 10.31 149.361 10.2 150.481 10.12C151.641 10.02 152.431 9.9 152.851 9.76ZM152.971 12.94C153.111 12.8 153.311 12.76 153.571 12.82C153.851 12.86 154.071 12.97 154.231 13.15C154.351 13.29 154.411 13.48 154.411 13.72C154.411 13.94 154.361 14.33 154.261 14.89C154.061 15.73 153.961 16.76 153.961 17.98C153.961 18.46 153.951 18.82 153.931 19.06C153.931 19.3 153.881 19.55 153.781 19.81C153.681 20.07 153.571 20.24 153.451 20.32C153.351 20.42 153.131 20.52 152.791 20.62C152.451 20.74 152.111 20.82 151.771 20.86C151.451 20.9 150.961 20.95 150.301 21.01C150.241 21.03 150.151 21.04 150.031 21.04C149.531 21.1 149.171 21.14 148.951 21.16C148.731 21.2 148.471 21.21 148.171 21.19C147.871 21.17 147.671 21.15 147.571 21.13C147.471 21.13 147.341 21.06 147.181 20.92C147.021 20.78 146.931 20.66 146.911 20.56C146.891 20.48 146.851 20.27 146.791 19.93C146.751 19.61 146.721 19.34 146.701 19.12C146.701 18.9 146.701 18.53 146.701 18.01C146.701 17.85 146.701 17.73 146.701 17.65C146.661 16.47 146.651 15.68 146.671 15.28C146.711 14.88 146.811 14.6 146.971 14.44C147.291 14.18 147.551 14.14 147.751 14.32C147.971 14.48 148.081 14.84 148.081 15.4V16.39L149.551 16.24C150.451 16.14 151.231 15.99 151.891 15.79C152.331 15.65 152.591 15.52 152.671 15.4C152.751 15.26 152.791 14.89 152.791 14.29C152.791 13.47 152.851 13.02 152.971 12.94ZM152.191 18.91C152.431 18.71 152.551 18.43 152.551 18.07C152.551 17.69 152.491 17.48 152.371 17.44C152.211 17.38 151.481 17.47 150.181 17.71L148.201 18.07L148.261 18.79C148.321 19.25 148.381 19.52 148.441 19.6C148.461 19.64 148.661 19.63 149.041 19.57C149.421 19.53 149.821 19.47 150.241 19.39C150.681 19.31 151.101 19.22 151.501 19.12C151.901 19.04 152.131 18.97 152.191 18.91ZM168 4.96C168.14 4.84 168.37 4.8 168.69 4.84C168.83 4.86 168.92 4.89 168.96 4.93C169.02 4.97 169.07 5.09 169.11 5.29C169.17 5.49 169.2 5.75 169.2 6.07C169.22 6.37 169.24 6.84 169.26 7.48C169.3 9.34 169.26 11.61 169.14 14.29L168.96 18.55H168.24H167.52L167.55 16.69C167.55 13.51 167.59 10.78 167.67 8.5C167.77 6.22 167.88 5.04 168 4.96ZM156.72 5.68C156.94 5.44 157.1 5.31 157.2 5.29C157.3 5.25 157.46 5.3 157.68 5.44C157.86 5.56 157.97 6.83 158.01 9.25L158.1 12.91H160.59C162.25 12.91 163.37 12.86 163.95 12.76C164.45 12.66 164.8 12.7 165 12.88C165.22 13.04 165.3 13.36 165.24 13.84L165.18 14.47L161.13 14.53C158.43 14.61 156.99 14.55 156.81 14.35C156.65 14.11 156.53 12.69 156.45 10.09C156.39 8.33 156.37 7.21 156.39 6.73C156.43 6.23 156.54 5.88 156.72 5.68ZM183.405 5.23C183.465 5.11 183.595 5.04 183.795 5.02C184.015 5 184.255 5.05 184.515 5.17C184.675 5.23 184.775 5.44 184.815 5.8C184.875 6.16 184.905 6.91 184.905 8.05C184.905 9.91 184.945 10.87 185.025 10.93C185.065 10.99 185.785 10.97 187.185 10.87C188.465 10.73 189.305 10.7 189.705 10.78C190.125 10.86 190.335 11.09 190.335 11.47C190.335 11.55 190.325 11.62 190.305 11.68C190.305 11.74 190.275 11.8 190.215 11.86C190.175 11.92 190.125 11.97 190.065 12.01C190.025 12.05 189.945 12.09 189.825 12.13C189.705 12.17 189.575 12.2 189.435 12.22C189.295 12.24 189.105 12.27 188.865 12.31C188.645 12.33 188.405 12.35 188.145 12.37C187.905 12.39 187.585 12.42 187.185 12.46C185.805 12.56 185.055 12.7 184.935 12.88C184.855 13.02 184.795 13.88 184.755 15.46C184.735 17 184.695 17.79 184.635 17.83C184.615 17.87 184.425 17.95 184.065 18.07C183.645 18.19 183.385 18.07 183.285 17.71C183.165 17.27 183.165 15.82 183.285 13.36C183.445 10.58 183.485 8.56 183.405 7.3C183.285 6.06 183.285 5.37 183.405 5.23ZM174.885 6.07C176.225 5.85 177.175 5.75 177.735 5.77C178.295 5.77 178.615 5.88 178.695 6.1C178.835 6.46 178.775 6.74 178.515 6.94C178.275 7.14 177.835 7.25 177.195 7.27C175.375 7.29 173.975 7.52 172.995 7.96L172.245 8.23L172.335 10.45C172.375 11.05 172.395 11.49 172.395 11.77C172.415 12.05 172.455 12.34 172.515 12.64C172.575 12.94 172.635 13.14 172.695 13.24C172.755 13.32 172.865 13.42 173.025 13.54C173.205 13.64 173.365 13.7 173.505 13.72C173.665 13.74 173.905 13.76 174.225 13.78C175.125 13.86 176.045 13.85 176.985 13.75C178.485 13.53 179.235 13.74 179.235 14.38C179.235 14.62 179.195 14.8 179.115 14.92C179.055 15.04 178.865 15.14 178.545 15.22C178.245 15.3 177.845 15.35 177.345 15.37C176.865 15.39 176.145 15.4 175.185 15.4C175.005 15.4 174.755 15.4 174.435 15.4C173.955 15.4 173.615 15.4 173.415 15.4C173.215 15.4 172.955 15.38 172.635 15.34C172.335 15.3 172.145 15.28 172.065 15.28C171.985 15.26 171.865 15.19 171.705 15.07C171.545 14.93 171.445 14.82 171.405 14.74C171.385 14.64 171.335 14.46 171.255 14.2C171.195 13.94 171.155 13.72 171.135 13.54C171.135 13.34 171.105 13.03 171.045 12.61C171.025 12.31 171.005 12.07 170.985 11.89C170.805 10.07 170.725 8.83 170.745 8.17C170.765 7.51 170.895 7.12 171.135 7C171.995 6.66 173.245 6.35 174.885 6.07ZM192.469 16.72C192.769 16.58 193.019 16.53 193.219 16.57C193.439 16.59 193.679 16.72 193.939 16.96C194.159 17.14 194.299 17.29 194.359 17.41C194.419 17.51 194.449 17.67 194.449 17.89C194.449 18.87 193.949 19.36 192.949 19.36C192.809 19.36 192.689 19.35 192.589 19.33C192.509 19.31 192.439 19.27 192.379 19.21C192.319 19.17 192.239 19.1 192.139 19C191.939 18.76 191.839 18.41 191.839 17.95C191.839 17.59 191.879 17.33 191.959 17.17C192.039 17.01 192.209 16.86 192.469 16.72ZM7.2116 38.22C8.3916 38.06 9.1916 37.95 9.6116 37.89C9.8716 37.89 10.0916 38.01 10.2716 38.25C10.4716 38.47 10.5416 38.71 10.4816 38.97C10.4616 39.15 10.3016 39.28 10.0016 39.36C9.7216 39.42 9.1116 39.49 8.1716 39.57C6.7316 39.69 5.6616 39.86 4.9616 40.08C4.9216 40.1 4.8616 40.12 4.7816 40.14C4.5016 40.24 4.3216 40.33 4.2416 40.41C4.1816 40.49 4.1316 40.72 4.0916 41.1C4.0516 41.48 4.0616 42.05 4.1216 42.81C4.1216 43.09 4.1216 43.31 4.1216 43.47L4.1816 45.03L6.8516 44.91C7.3716 44.87 7.7916 44.85 8.1116 44.85C8.4516 44.85 8.7516 44.86 9.0116 44.88C9.2916 44.88 9.4916 44.91 9.6116 44.97C9.7516 45.01 9.8616 45.07 9.9416 45.15C10.0416 45.23 10.0816 45.33 10.0616 45.45C10.0416 45.57 10.0116 45.71 9.9716 45.87C9.9116 46.05 9.7516 46.18 9.4916 46.26C9.2516 46.32 8.7516 46.38 7.9916 46.44C6.2916 46.6 5.2916 46.7 4.9916 46.74C4.7116 46.78 4.4816 46.8 4.3016 46.8C4.1416 46.8 3.9716 46.79 3.7916 46.77C3.6316 46.75 3.5016 46.69 3.4016 46.59C3.3216 46.47 3.2416 46.35 3.1616 46.23C3.0816 46.11 3.0116 45.93 2.9516 45.69C2.8916 45.43 2.8416 45.16 2.8016 44.88C2.7616 44.58 2.7116 44.2 2.6516 43.74C2.4516 42.06 2.2916 41.08 2.1716 40.8C2.0516 40.44 2.1816 40.06 2.5616 39.66C2.9416 39.26 3.4616 38.98 4.1216 38.82C4.8416 38.62 5.8716 38.42 7.2116 38.22ZM13.9916 38.16C14.0516 37.98 14.2216 37.89 14.5016 37.89C14.9216 37.89 15.1916 38.07 15.3116 38.43C15.4316 38.79 15.4416 39.51 15.3416 40.59L15.1916 42.6H15.9416C16.4216 42.6 16.8016 42.51 17.0816 42.33C17.4216 42.13 17.7916 42.13 18.1916 42.33C18.5916 42.53 18.7916 42.81 18.7916 43.17C18.7916 43.33 18.7616 43.45 18.7016 43.53C18.6616 43.61 18.5616 43.68 18.4016 43.74C18.2616 43.78 18.0316 43.83 17.7116 43.89C16.9116 43.97 16.2716 44.11 15.7916 44.31L15.0116 44.55V46.53C15.0116 47.47 14.9816 48.04 14.9216 48.24C14.8816 48.42 14.7316 48.55 14.4716 48.63C13.9316 48.75 13.6116 48.67 13.5116 48.39C13.4116 48.11 13.4016 47.31 13.4816 45.99C13.5016 45.61 13.5416 44.81 13.6016 43.59C13.6816 42.37 13.7316 41.51 13.7516 41.01C13.8316 39.27 13.9116 38.32 13.9916 38.16ZM7.2416 50.37C7.4216 50.05 7.6816 49.92 8.0216 49.98C8.1616 50 8.2616 50.03 8.3216 50.07C8.3816 50.09 8.4316 50.18 8.4716 50.34C8.5116 50.5 8.5316 50.69 8.5316 50.91C8.5316 51.11 8.5316 51.46 8.5316 51.96C8.5316 53.08 8.6116 53.78 8.7716 54.06C8.9316 54.34 9.2616 54.38 9.7616 54.18C10.2016 53.98 10.5816 53.9 10.9016 53.94C11.2616 53.94 12.0116 53.83 13.1516 53.61C14.0716 53.43 14.6916 53.38 15.0116 53.46C15.3316 53.52 15.4916 53.74 15.4916 54.12C15.4916 54.78 15.0416 55.11 14.1416 55.11C13.7016 55.11 12.6116 55.27 10.8716 55.59C9.4316 55.89 8.4816 55.99 8.0216 55.89C7.5816 55.81 7.2816 55.47 7.1216 54.87C7.0016 54.25 6.9516 53.41 6.9716 52.35C7.0116 51.29 7.1016 50.63 7.2416 50.37ZM22.6757 36.42C23.4757 36.14 24.6257 36 26.1257 36C27.6457 35.98 28.5157 36.11 28.7357 36.39C29.1157 36.85 28.9857 37.18 28.3457 37.38C27.8657 37.52 27.2457 37.52 26.4857 37.38C26.2657 37.34 25.8757 37.35 25.3157 37.41C24.7557 37.47 24.2057 37.56 23.6657 37.68C23.1457 37.8 22.8057 37.9 22.6457 37.98C22.5057 38.08 22.3957 38.19 22.3157 38.31C22.2357 38.43 22.1757 38.58 22.1357 38.76C22.1157 38.92 22.1057 39.14 22.1057 39.42C22.1057 39.7 22.1057 39.9 22.1057 40.02C22.1257 40.14 22.1457 40.24 22.1657 40.32C22.2057 40.4 22.2557 40.43 22.3157 40.41C22.3757 40.39 22.4457 40.38 22.5257 40.38C22.7657 40.26 23.3657 40.13 24.3257 39.99C25.1257 39.87 25.8057 39.84 26.3657 39.9C26.9457 39.94 27.3757 40.07 27.6557 40.29C27.9557 40.51 28.0357 40.78 27.8957 41.1C27.8557 41.24 27.7357 41.33 27.5357 41.37C27.3557 41.39 27.0057 41.37 26.4857 41.31C25.6457 41.19 24.6557 41.3 23.5157 41.64C22.7357 41.86 22.2657 42.03 22.1057 42.15C21.9457 42.27 21.8657 42.5 21.8657 42.84C21.8657 43.06 21.8857 43.22 21.9257 43.32C21.9657 43.4 22.0257 43.46 22.1057 43.5C22.2057 43.52 22.3757 43.53 22.6157 43.53C23.0557 43.53 23.8457 43.41 24.9857 43.17C26.1257 42.91 26.7857 42.71 26.9657 42.57C27.1457 42.43 27.4357 42.52 27.8357 42.84C28.2557 43.16 28.4157 43.43 28.3157 43.65C28.2357 43.85 27.8657 44.05 27.2057 44.25C26.5657 44.43 25.4157 44.67 23.7557 44.97C23.1757 45.07 22.7357 45.15 22.4357 45.21C22.1357 45.25 21.8357 45.27 21.5357 45.27C21.2557 45.25 21.0557 45.22 20.9357 45.18C20.8357 45.14 20.7357 45.05 20.6357 44.91C20.5557 44.75 20.5057 44.58 20.4857 44.4C20.4657 44.2 20.4557 43.93 20.4557 43.59C20.4157 42.75 20.4257 42.22 20.4857 42C20.5257 41.76 20.5357 41.19 20.5157 40.29C20.4957 39.37 20.4457 38.74 20.3657 38.4C20.2857 38.08 20.2757 37.86 20.3357 37.74C20.4157 37.6 20.5857 37.44 20.8457 37.26C21.2057 37.02 21.8157 36.74 22.6757 36.42ZM24.2357 46.11C24.5157 45.59 24.8157 45.48 25.1357 45.78C25.4757 46.08 25.6057 46.58 25.5257 47.28L25.3757 48.24L26.9957 48.09C28.3157 47.95 29.1057 47.9 29.3657 47.94C29.6457 47.98 29.7957 48.15 29.8157 48.45C29.8757 48.87 29.7757 49.16 29.5157 49.32C29.2757 49.46 28.7857 49.54 28.0457 49.56C27.2657 49.58 26.3457 49.68 25.2857 49.86C24.2257 50.02 23.4257 50.2 22.8857 50.4C22.3857 50.56 21.8757 50.62 21.3557 50.58C20.8357 50.52 20.5557 50.37 20.5157 50.13C20.4757 49.87 20.5857 49.61 20.8457 49.35C21.1057 49.09 21.3957 48.96 21.7157 48.96C22.0557 48.96 22.5257 48.87 23.1257 48.69C23.5257 48.59 23.7657 48.48 23.8457 48.36C23.9457 48.24 23.9957 47.96 23.9957 47.52C23.9957 46.92 24.0757 46.45 24.2357 46.11ZM25.0157 51.42C26.5157 51.24 27.4657 51.15 27.8657 51.15C28.2657 51.13 28.5257 51.2 28.6457 51.36C28.8057 51.58 28.9157 52.55 28.9757 54.27C29.0157 55.55 29.0157 56.3 28.9757 56.52C28.9357 56.76 28.7757 56.9 28.4957 56.94C28.0557 57 27.7657 56.89 27.6257 56.61C27.5057 56.33 27.4657 55.71 27.5057 54.75C27.5257 53.99 27.5157 53.5 27.4757 53.28C27.4357 53.04 27.3357 52.89 27.1757 52.83C26.9157 52.71 26.0657 52.78 24.6257 53.04C23.1657 53.26 22.3857 53.34 22.2857 53.28C22.1257 53.18 22.0657 52.99 22.1057 52.71C22.1657 52.41 22.2957 52.18 22.4957 52.02C22.7357 51.8 23.5757 51.6 25.0157 51.42ZM38.4606 37.59C38.6606 37.47 38.8206 37.42 38.9406 37.44C39.0606 37.46 39.2306 37.58 39.4506 37.8C39.6106 37.96 39.7006 38.18 39.7206 38.46C39.7606 38.72 39.7406 39.23 39.6606 39.99C39.5406 41.17 39.4706 42.43 39.4506 43.77C39.4306 44.27 39.4206 44.6 39.4206 44.76C39.4406 44.92 39.4206 45.16 39.3606 45.48C39.3006 45.8 39.2606 45.99 39.2406 46.05C39.2406 46.09 39.1506 46.2 38.9706 46.38C38.7906 46.54 38.6506 46.63 38.5506 46.65C38.4706 46.65 38.2406 46.7 37.8606 46.8C37.5006 46.88 37.2006 46.93 36.9606 46.95C36.7406 46.95 36.3306 46.98 35.7306 47.04C35.6306 47.04 35.4806 47.05 35.2806 47.07C34.7606 47.11 34.3906 47.15 34.1706 47.19C33.9506 47.21 33.6706 47.21 33.3306 47.19C32.9906 47.15 32.7706 47.13 32.6706 47.13C32.5906 47.11 32.4606 47.03 32.2806 46.89C32.1206 46.73 32.0206 46.6 31.9806 46.5C31.9606 46.4 31.9106 46.18 31.8306 45.84C31.7506 45.5 31.7006 45.21 31.6806 44.97C31.6606 44.73 31.6206 44.33 31.5606 43.77C31.5406 43.57 31.5306 43.42 31.5306 43.32C31.3706 41.7 31.3106 40.6 31.3506 40.02C31.4106 39.42 31.5906 39.06 31.8906 38.94C32.2506 38.82 32.4906 38.89 32.6106 39.15C32.7506 39.41 32.7906 39.89 32.7306 40.59C32.6906 41.39 32.7706 41.86 32.9706 42C33.1706 42.12 33.7206 42.04 34.6206 41.76C35.4206 41.52 36.2006 41.34 36.9606 41.22L38.0106 41.07L38.0706 39.39C38.1306 38.29 38.2606 37.69 38.4606 37.59ZM38.1306 42.84H37.2306C36.6106 42.88 36.0106 42.99 35.4306 43.17C34.8306 43.39 34.3006 43.5 33.8406 43.5C33.5006 43.52 33.3006 43.58 33.2406 43.68C33.1806 43.76 33.1706 44.04 33.2106 44.52L33.2706 45.54L35.3106 45.45C36.6306 45.41 37.4106 45.33 37.6506 45.21C37.8906 45.09 38.0306 44.66 38.0706 43.92L38.1306 42.84ZM44.1006 38.4C44.2606 38.16 44.4606 38.07 44.7006 38.13C44.9406 38.19 45.1306 38.38 45.2706 38.7C45.4306 39.06 45.4306 39.81 45.2706 40.95C45.1706 41.77 45.1306 42.25 45.1506 42.39C45.1906 42.53 45.3506 42.6 45.6306 42.6C45.9706 42.6 46.3006 42.52 46.6206 42.36C46.9006 42.2 47.2506 42.2 47.6706 42.36C47.9106 42.46 48.0706 42.57 48.1506 42.69C48.2506 42.81 48.2706 43 48.2106 43.26C48.1706 43.54 48.1006 43.72 48.0006 43.8C47.9006 43.86 47.6706 43.9 47.3106 43.92C46.7506 43.92 46.2206 44.02 45.7206 44.22C45.3606 44.36 45.1406 44.53 45.0606 44.73C45.0006 44.93 44.9606 45.47 44.9406 46.35C44.9206 46.75 44.9006 47.04 44.8806 47.22C44.8606 47.4 44.8406 47.57 44.8206 47.73C44.8006 47.89 44.7606 47.99 44.7006 48.03C44.6406 48.07 44.5806 48.11 44.5206 48.15C44.4606 48.17 44.3606 48.19 44.2206 48.21C43.8206 48.25 43.5506 48.07 43.4106 47.67C43.2906 47.27 43.3006 46.49 43.4406 45.33C43.5606 43.99 43.6706 42.61 43.7706 41.19C43.8906 39.51 44.0006 38.58 44.1006 38.4ZM40.2006 49.29C40.6806 49.11 41.1306 49.01 41.5506 48.99C41.8906 48.97 42.3006 49.11 42.7806 49.41C43.2606 49.69 43.7006 50.07 44.1006 50.55C44.5006 51.01 44.7906 51.47 44.9706 51.93C45.1106 52.31 45.1406 52.82 45.0606 53.46C45.0006 54.1 44.8506 54.66 44.6106 55.14C44.3306 55.66 43.8306 56.09 43.1106 56.43C42.4106 56.79 41.6806 56.97 40.9206 56.97C40.3606 56.97 39.9406 56.92 39.6606 56.82C39.4006 56.74 39.0606 56.54 38.6406 56.22C37.6806 55.46 37.0806 54.54 36.8406 53.46C36.6806 52.74 36.9506 51.95 37.6506 51.09C38.3706 50.21 39.2206 49.61 40.2006 49.29ZM42.7806 51.36C42.3406 50.92 41.9506 50.69 41.6106 50.67C41.2706 50.63 40.7606 50.78 40.0806 51.12C39.2006 51.56 38.6706 52.12 38.4906 52.8C38.3306 53.46 38.5806 54.11 39.2406 54.75C39.4606 54.99 39.6806 55.15 39.9006 55.23C40.1406 55.31 40.4806 55.35 40.9206 55.35C41.5406 55.35 42.0506 55.23 42.4506 54.99C42.8506 54.77 43.1906 54.39 43.4706 53.85C43.7106 53.41 43.7806 53 43.6806 52.62C43.5806 52.24 43.2806 51.82 42.7806 51.36ZM52.089 37.23C52.469 36.99 52.789 36.85 53.049 36.81C53.329 36.75 53.759 36.74 54.339 36.78C55.139 36.84 55.799 37 56.319 37.26C56.839 37.52 57.399 37.98 57.999 38.64C58.899 39.68 59.169 40.87 58.809 42.21C58.469 43.53 57.619 44.54 56.259 45.24C54.979 45.9 53.589 45.72 52.089 44.7C51.349 44.18 50.769 43.6 50.349 42.96C49.949 42.32 49.749 41.68 49.749 41.04C49.749 40.46 49.979 39.79 50.439 39.03C50.919 38.25 51.469 37.65 52.089 37.23ZM55.779 38.49C55.239 38.23 54.899 38.11 54.759 38.13C54.259 38.19 53.739 38.37 53.199 38.67C52.679 38.95 52.249 39.31 51.909 39.75C51.569 40.17 51.399 40.56 51.399 40.92C51.399 41.66 51.619 42.29 52.059 42.81C52.499 43.33 53.019 43.67 53.619 43.83C54.219 43.99 54.839 43.97 55.479 43.77C56.119 43.55 56.629 43.13 57.009 42.51C57.369 41.99 57.549 41.51 57.549 41.07C57.549 40.61 57.369 40.12 57.009 39.6C56.649 39.08 56.239 38.71 55.779 38.49ZM56.349 47.55C57.669 47.37 58.559 47.31 59.019 47.37C59.479 47.41 59.779 47.59 59.919 47.91C60.159 48.39 60.119 48.71 59.799 48.87C59.499 49.03 58.769 49.12 57.609 49.14C56.249 49.14 54.719 49.24 53.019 49.44C51.299 49.64 50.389 49.69 50.289 49.59C50.189 49.49 50.199 49.25 50.319 48.87C50.499 48.15 51.559 47.78 53.499 47.76C54.759 47.72 55.709 47.65 56.349 47.55ZM52.719 51.24C53.479 50.48 53.889 50.84 53.949 52.32C54.009 53.22 54.109 53.67 54.249 53.67C54.369 53.67 54.719 53.55 55.299 53.31C55.779 53.11 56.699 52.92 58.059 52.74C59.419 52.54 60.219 52.49 60.459 52.59C60.699 52.67 60.809 52.9 60.789 53.28C60.789 53.66 60.679 53.9 60.459 54C60.179 54.1 59.709 54.15 59.049 54.15C58.349 54.15 57.419 54.35 56.259 54.75C55.599 54.97 55.069 55.12 54.669 55.2C54.289 55.28 53.949 55.32 53.649 55.32C53.349 55.32 53.119 55.22 52.959 55.02C52.819 54.82 52.709 54.56 52.629 54.24C52.549 53.94 52.479 53.52 52.419 52.98C52.379 52.44 52.379 52.06 52.419 51.84C52.459 51.6 52.559 51.4 52.719 51.24ZM34.3048 75.17C34.5248 74.93 34.7048 74.81 34.8448 74.81C34.9848 74.79 35.1448 74.89 35.3248 75.11C35.5048 75.31 35.5148 76.26 35.3548 77.96C35.2348 79.68 35.2348 80.62 35.3548 80.78C35.5148 80.92 36.2548 80.89 37.5748 80.69C38.6748 80.53 39.3748 80.5 39.6748 80.6C39.9748 80.68 40.0848 80.95 40.0048 81.41C39.9648 81.69 39.7648 81.89 39.4048 82.01C39.0448 82.11 38.0648 82.25 36.4648 82.43L35.1148 82.58V85.16C35.1148 86.34 35.0848 87.08 35.0248 87.38C34.9648 87.66 34.8148 87.86 34.5748 87.98C34.1348 88.22 33.8548 88.14 33.7348 87.74C33.6148 87.32 33.5648 86.27 33.5848 84.59C33.6648 78.79 33.9048 75.65 34.3048 75.17ZM27.6748 75.47C27.7948 75.47 27.9148 75.51 28.0348 75.59C28.1548 75.65 28.2548 75.73 28.3348 75.83C28.4348 75.91 28.4848 75.98 28.4848 76.04C28.4848 76.24 28.1748 76.78 27.5548 77.66C26.9148 78.52 26.5948 79.05 26.5948 79.25C26.5948 79.43 27.1948 80.09 28.3948 81.23C29.8148 82.61 30.3448 83.44 29.9848 83.72C29.8648 83.82 29.6848 83.88 29.4448 83.9C29.2048 83.94 28.9448 83.86 28.6648 83.66C28.3848 83.46 27.9548 83.04 27.3748 82.4C26.7548 81.74 26.3248 81.34 26.0848 81.2C25.8648 81.04 25.6948 81.03 25.5748 81.17C25.3948 81.37 25.1248 81.88 24.7648 82.7C24.4048 83.52 24.2248 84.06 24.2248 84.32C24.2248 84.58 24.1048 84.75 23.8648 84.83C23.6448 84.89 23.3848 84.84 23.0848 84.68C22.7048 84.48 22.5648 84.16 22.6648 83.72C22.7648 83.28 23.1748 82.4 23.8948 81.08C24.7548 79.5 25.1848 78.67 25.1848 78.59C25.1848 78.53 25.2848 78.36 25.4848 78.08C25.6848 77.8 25.9148 77.49 26.1748 77.15C26.4548 76.79 26.7048 76.49 26.9248 76.25L27.6748 75.47ZM44.562 76.1C45.642 75.54 46.822 75.71 48.102 76.61C49.142 77.31 49.882 78.18 50.322 79.22C50.762 80.24 50.842 81.28 50.562 82.34C50.382 83.08 50.122 83.63 49.782 83.99C49.462 84.35 48.942 84.68 48.222 84.98C47.522 85.28 46.882 85.43 46.302 85.43C45.822 85.45 45.302 85.36 44.742 85.16C44.182 84.96 43.662 84.68 43.182 84.32C42.722 83.96 42.352 83.58 42.072 83.18C41.792 82.74 41.622 82.39 41.562 82.13C41.502 81.85 41.492 81.4 41.532 80.78C41.592 79.82 41.752 79.11 42.012 78.65C42.252 78.19 42.622 77.71 43.122 77.21C43.622 76.71 44.102 76.34 44.562 76.1ZM47.352 77.84C46.772 77.42 46.292 77.23 45.912 77.27C45.532 77.29 45.072 77.54 44.532 78.02C43.732 78.78 43.262 79.56 43.122 80.36C43.002 81.14 43.232 81.88 43.812 82.58C44.492 83.4 45.322 83.82 46.302 83.84C47.302 83.84 48.122 83.42 48.762 82.58C48.962 82.34 49.092 82.1 49.152 81.86C49.212 81.6 49.222 81.22 49.182 80.72C49.122 80.08 48.962 79.56 48.702 79.16C48.442 78.74 47.992 78.3 47.352 77.84ZM53.892 76.34C53.972 76.2 54.202 76.15 54.582 76.19C54.962 76.23 55.162 76.32 55.182 76.46C55.222 76.8 55.142 79.58 54.942 84.8L54.762 88.55H54.072C53.872 88.55 53.732 88.55 53.652 88.55C53.572 88.53 53.502 88.48 53.442 88.4C53.382 88.3 53.342 88.19 53.322 88.07C53.322 87.93 53.312 87.7 53.292 87.38C53.252 86.72 53.312 84.75 53.472 81.47C53.652 78.19 53.792 76.48 53.892 76.34ZM60.1877 76.25C60.6477 76.11 61.0377 76.07 61.3577 76.13C61.6977 76.17 62.2777 76.37 63.0977 76.73C64.4377 77.29 65.1177 78.49 65.1377 80.33C65.1377 81.27 65.0477 81.99 64.8677 82.49C64.7077 82.97 64.3977 83.48 63.9377 84.02C63.5177 84.5 63.1977 84.79 62.9777 84.89C62.7777 84.99 62.3877 85.04 61.8077 85.04C60.6677 85.04 59.5777 84.7 58.5377 84.02C57.5177 83.34 56.9277 82.58 56.7677 81.74C56.6277 80.92 56.6577 80.21 56.8577 79.61C57.0577 79.01 57.4877 78.38 58.1477 77.72C58.4677 77.38 58.8277 77.07 59.2277 76.79C59.6477 76.51 59.9677 76.33 60.1877 76.25ZM62.2577 77.84C61.7577 77.68 61.3977 77.62 61.1777 77.66C60.9577 77.68 60.5577 77.85 59.9777 78.17C59.2977 78.57 58.8477 78.92 58.6277 79.22C58.4077 79.52 58.2877 79.94 58.2677 80.48C58.2677 81.16 58.5177 81.75 59.0177 82.25C59.5377 82.75 60.2177 83.09 61.0577 83.27C61.6977 83.43 62.0977 83.5 62.2577 83.48C62.4177 83.44 62.6377 83.25 62.9177 82.91C63.0777 82.73 63.1877 82.56 63.2477 82.4C63.3277 82.22 63.3777 82 63.3977 81.74C63.4377 81.48 63.4577 81.12 63.4577 80.66C63.4577 79.66 63.3777 78.99 63.2177 78.65C63.0777 78.29 62.7577 78.02 62.2577 77.84ZM73.8977 76.25C74.0377 76.05 74.2177 75.96 74.4377 75.98C74.6577 75.98 74.8577 76.09 75.0377 76.31C75.2377 76.55 75.2777 78.11 75.1577 80.99C75.0177 83.81 74.9477 85.55 74.9477 86.21C74.9277 86.79 74.8477 87.18 74.7077 87.38C74.5877 87.58 74.3277 87.72 73.9277 87.8L73.2977 87.92L73.5077 84.44C73.6477 81.64 73.7177 79.75 73.7177 78.77C73.7177 77.29 73.7777 76.45 73.8977 76.25ZM70.3577 76.7C70.7577 76.32 71.1277 76.34 71.4677 76.76C71.6477 76.98 71.6477 78.1 71.4677 80.12C71.3477 81.66 71.2077 83.38 71.0477 85.28L70.8977 87.38H70.2077H69.4877L69.5177 84.59C69.5177 84.55 69.5177 84.5 69.5177 84.44C69.5577 83.02 69.5177 82.22 69.3977 82.04C69.2777 81.84 68.8377 81.85 68.0777 82.07C68.0177 82.09 67.9777 82.1 67.9577 82.1C67.4577 82.26 66.9777 82.3 66.5177 82.22C66.0577 82.14 65.8277 81.99 65.8277 81.77C65.8277 81.39 65.9977 81.09 66.3377 80.87C66.6977 80.65 67.2777 80.5 68.0777 80.42C69.1577 80.28 69.7677 80.11 69.9077 79.91C70.0277 79.67 70.0877 79.12 70.0877 78.26C70.0877 77.4 70.1777 76.88 70.3577 76.7ZM104.281 75.41C104.521 75.31 104.771 75.27 105.031 75.29C105.291 75.29 105.461 75.35 105.541 75.47C105.621 75.59 105.571 76.78 105.391 79.04C105.231 81.08 105.091 83.07 104.971 85.01C104.891 86.35 104.761 87.21 104.581 87.59C104.421 87.95 104.111 88.05 103.651 87.89C103.451 87.81 103.331 87.42 103.291 86.72C103.271 86 103.341 84.81 103.501 83.15L103.651 81.32L102.571 81.44C101.831 81.54 101.121 81.74 100.441 82.04L99.3009 82.49V84.98C99.2809 85.96 99.2409 86.63 99.1809 86.99C99.1209 87.33 99.0109 87.56 98.8509 87.68C98.1109 88.24 97.7509 87.95 97.7709 86.81C97.8109 84.69 97.8909 82.39 98.0109 79.91C98.1509 77.41 98.2709 76.07 98.3709 75.89C98.4709 75.67 98.6509 75.54 98.9109 75.5C99.1909 75.46 99.4609 75.53 99.7209 75.71C99.8409 75.79 99.9009 75.97 99.9009 76.25C99.9209 76.53 99.8709 77.1 99.7509 77.96C99.5509 79.32 99.5009 80.04 99.6009 80.12C99.6409 80.18 99.8609 80.19 100.261 80.15C100.681 80.11 101.121 80.05 101.581 79.97C102.061 79.89 102.511 79.8 102.931 79.7C103.371 79.58 103.631 79.49 103.711 79.43C103.891 79.27 103.981 78.58 103.981 77.36C103.981 76.14 104.081 75.49 104.281 75.41ZM91.2609 76.76C92.2809 76.56 92.9209 76.46 93.1809 76.46C93.4409 76.46 93.6609 76.56 93.8409 76.76C94.0009 76.96 94.0609 77.33 94.0209 77.87C94.0009 78.39 93.8809 79.36 93.6609 80.78C93.6409 80.94 93.5609 81.45 93.4209 82.31C93.2809 83.17 93.1809 83.81 93.1209 84.23C92.9609 85.45 92.8009 86.12 92.6409 86.24C92.5609 86.3 92.4109 86.33 92.1909 86.33C91.7509 86.33 91.4909 86.16 91.4109 85.82C91.3509 85.48 91.4209 84.75 91.6209 83.63C92.1609 80.67 92.4309 78.98 92.4309 78.56C92.4309 78.42 92.4109 78.32 92.3709 78.26C92.3309 78.18 92.2709 78.15 92.1909 78.17C92.0309 78.29 91.2409 78.46 89.8209 78.68C88.4209 78.9 87.4809 79.01 87.0009 79.01C86.4409 79.01 86.0609 78.89 85.8609 78.65C85.5009 78.23 85.8409 77.88 86.8809 77.6C87.2009 77.52 87.6009 77.44 88.0809 77.36C89.2209 77.18 90.2809 76.98 91.2609 76.76ZM118.198 72.23C118.158 71.69 118.158 71.35 118.198 71.21C118.238 71.07 118.348 71 118.528 71C119.028 71.02 119.328 71.25 119.428 71.69C119.548 72.13 119.618 73.5 119.638 75.8C119.658 77.7 119.648 78.93 119.608 79.49C119.568 80.05 119.458 80.42 119.278 80.6C118.818 81.04 118.498 80.9 118.318 80.18C118.218 79.72 118.138 78.96 118.078 77.9C117.978 76.24 117.838 75.35 117.658 75.23C117.458 75.11 117.048 75.16 116.428 75.38C115.828 75.6 115.208 75.71 114.568 75.71C114.108 75.71 113.838 75.68 113.758 75.62C113.698 75.54 113.678 75.32 113.698 74.96L113.788 74.18L116.038 73.82L118.258 73.46L118.198 72.23ZM110.908 71.99C111.088 71.81 111.348 71.72 111.688 71.72C112.328 71.72 112.368 72.24 111.808 73.28C111.768 73.38 111.718 73.48 111.658 73.58C111.258 74.28 111.098 74.8 111.178 75.14C111.258 75.42 111.768 76.1 112.708 77.18C113.088 77.58 113.378 77.91 113.578 78.17C113.798 78.43 113.948 78.66 114.028 78.86C114.108 79.04 114.128 79.19 114.088 79.31C114.048 79.41 113.948 79.49 113.788 79.55C113.448 79.69 113.098 79.64 112.738 79.4C112.398 79.14 111.958 78.65 111.418 77.93C110.638 76.93 110.158 76.43 109.978 76.43C109.758 76.43 109.298 77.42 108.598 79.4C108.538 79.62 108.258 79.73 107.758 79.73C107.558 79.73 107.408 79.71 107.308 79.67C107.228 79.63 107.168 79.57 107.128 79.49C107.088 79.41 107.068 79.29 107.068 79.13C107.068 78.75 107.388 77.98 108.028 76.82C108.028 76.82 108.628 75.78 109.828 73.7C110.388 72.72 110.748 72.15 110.908 71.99ZM112.288 82.67C113.088 82.47 114.228 82.36 115.708 82.34C116.228 82.34 116.608 82.34 116.848 82.34C117.088 82.34 117.328 82.38 117.568 82.46C117.828 82.52 117.998 82.59 118.078 82.67C118.158 82.73 118.238 82.88 118.318 83.12C118.398 83.34 118.438 83.56 118.438 83.78C118.458 84 118.468 84.36 118.468 84.86C118.488 85.98 118.338 86.69 118.018 86.99C117.718 87.29 116.908 87.49 115.588 87.59C114.568 87.69 113.908 87.83 113.608 88.01C113.328 88.19 113.188 88.56 113.188 89.12C113.188 89.58 113.458 89.75 113.998 89.63C114.458 89.53 115.358 89.43 116.698 89.33C118.058 89.25 118.818 89.23 118.978 89.27C119.218 89.37 119.328 89.61 119.308 89.99C119.288 90.37 119.158 90.6 118.918 90.68C118.558 90.78 117.688 90.9 116.308 91.04C114.948 91.2 113.968 91.28 113.368 91.28C112.988 91.28 112.718 91.26 112.558 91.22C112.398 91.2 112.268 91.13 112.168 91.01C112.088 90.91 111.988 90.73 111.868 90.47C111.668 89.95 111.608 89.23 111.688 88.31C111.788 87.51 111.998 86.99 112.318 86.75C112.638 86.51 113.328 86.35 114.388 86.27C115.068 86.21 115.588 86.14 115.948 86.06C116.308 85.96 116.568 85.82 116.728 85.64C116.888 85.46 116.968 85.23 116.968 84.95C116.968 84.51 116.858 84.18 116.638 83.96C116.418 83.8 115.898 83.76 115.078 83.84C114.258 83.9 113.318 84.06 112.258 84.32C111.358 84.58 110.858 84.66 110.758 84.56C110.678 84.5 110.598 84.33 110.518 84.05C110.418 83.73 110.498 83.47 110.758 83.27C111.018 83.05 111.528 82.85 112.288 82.67ZM124.341 70.55C125.181 70.31 126.081 70.16 127.041 70.1C128.001 70.04 128.611 70.09 128.871 70.25C129.171 70.43 129.281 70.81 129.201 71.39C129.181 71.55 128.491 71.63 127.131 71.63C125.751 71.63 124.701 71.8 123.981 72.14L122.871 72.59L122.721 74.06C122.621 75 122.621 75.57 122.721 75.77C122.781 75.89 123.251 75.92 124.131 75.86C125.011 75.8 126.011 75.67 127.131 75.47C127.731 75.37 128.141 75.33 128.361 75.35C128.581 75.35 128.761 75.42 128.901 75.56C129.121 75.76 129.181 76.04 129.081 76.4C128.981 76.74 128.801 76.91 128.541 76.91C127.001 76.97 125.491 77.2 124.011 77.6C123.311 77.78 122.731 77.85 122.271 77.81C121.831 77.77 121.551 77.63 121.431 77.39C121.271 77.13 121.171 76.12 121.131 74.36C121.111 72.92 121.171 71.96 121.311 71.48C121.451 70.98 121.741 70.78 122.181 70.88C122.501 70.98 123.221 70.87 124.341 70.55ZM131.391 72.92C131.491 72.74 131.651 72.65 131.871 72.65C132.091 72.65 132.271 72.74 132.411 72.92C132.571 73.16 132.681 74.91 132.741 78.17C132.781 80.33 132.781 81.7 132.741 82.28C132.721 82.86 132.631 83.17 132.471 83.21C132.211 83.23 131.951 83.15 131.691 82.97C131.511 82.83 131.401 82.49 131.361 81.95C131.321 81.39 131.281 80.06 131.241 77.96C131.221 74.82 131.271 73.14 131.391 72.92ZM124.131 78.8C124.191 78.62 124.411 78.53 124.791 78.53C125.351 78.53 125.631 79.12 125.631 80.3C125.631 80.6 125.661 80.78 125.721 80.84C125.801 80.88 125.991 80.87 126.291 80.81C126.871 80.69 127.611 80.6 128.511 80.54C129.151 80.46 129.571 80.44 129.771 80.48C129.991 80.5 130.131 80.6 130.191 80.78C130.391 81.26 130.261 81.61 129.801 81.83C129.361 82.03 128.251 82.26 126.471 82.52C125.191 82.72 124.151 82.95 123.351 83.21C122.751 83.39 122.371 83.48 122.211 83.48C122.051 83.46 121.871 83.36 121.671 83.18C121.391 82.88 121.351 82.6 121.551 82.34C121.771 82.06 122.191 81.85 122.811 81.71L123.891 81.44L123.951 80.3C123.971 79.6 124.031 79.1 124.131 78.8ZM130.401 85.43C130.361 84.85 130.361 84.5 130.401 84.38C130.441 84.26 130.571 84.2 130.791 84.2C131.171 84.2 131.471 84.35 131.691 84.65C131.911 84.95 131.981 85.3 131.901 85.7C131.821 86.2 131.781 87.18 131.781 88.64C131.781 90.02 131.691 90.9 131.511 91.28C131.331 91.66 130.931 91.83 130.311 91.79C129.671 91.75 128.781 91.85 127.641 92.09C126.601 92.29 125.931 92.33 125.631 92.21C125.351 92.11 125.121 91.73 124.941 91.07C124.781 90.47 124.701 89.47 124.701 88.07C124.721 86.65 124.821 85.85 125.001 85.67C125.261 85.45 125.501 85.37 125.721 85.43C125.961 85.47 126.141 85.65 126.261 85.97C126.381 86.29 126.391 86.64 126.291 87.02C126.231 87.22 126.241 87.35 126.321 87.41C126.421 87.47 126.651 87.49 127.011 87.47C127.591 87.47 128.321 87.33 129.201 87.05L130.491 86.66L130.401 85.43ZM130.371 89.39C130.371 89.03 130.251 88.79 130.011 88.67C129.771 88.53 129.451 88.53 129.051 88.67C128.931 88.73 128.691 88.8 128.331 88.88C127.991 88.94 127.651 88.99 127.311 89.03C126.971 89.09 126.701 89.13 126.501 89.15C126.381 89.15 126.341 89.37 126.381 89.81C126.421 90.11 126.491 90.29 126.591 90.35C126.691 90.41 126.961 90.43 127.401 90.41C128.061 90.35 128.721 90.28 129.381 90.2C129.821 90.14 130.091 90.07 130.191 89.99C130.311 89.91 130.371 89.71 130.371 89.39ZM145.924 74.96C146.064 74.84 146.294 74.8 146.614 74.84C146.754 74.86 146.844 74.89 146.884 74.93C146.944 74.97 146.994 75.09 147.034 75.29C147.094 75.49 147.124 75.75 147.124 76.07C147.144 76.37 147.164 76.84 147.184 77.48C147.224 79.34 147.184 81.61 147.064 84.29L146.884 88.55H146.164H145.444L145.474 86.69C145.474 83.51 145.514 80.78 145.594 78.5C145.694 76.22 145.804 75.04 145.924 74.96ZM134.644 75.68C134.864 75.44 135.024 75.31 135.124 75.29C135.224 75.25 135.384 75.3 135.604 75.44C135.784 75.56 135.894 76.83 135.934 79.25L136.024 82.91H138.514C140.174 82.91 141.294 82.86 141.874 82.76C142.374 82.66 142.724 82.7 142.924 82.88C143.144 83.04 143.224 83.36 143.164 83.84L143.104 84.47L139.054 84.53C136.354 84.61 134.914 84.55 134.734 84.35C134.574 84.11 134.454 82.69 134.374 80.09C134.314 78.33 134.294 77.21 134.314 76.73C134.354 76.23 134.464 75.88 134.644 75.68ZM161.33 75.23C161.39 75.11 161.52 75.04 161.72 75.02C161.94 75 162.18 75.05 162.44 75.17C162.6 75.23 162.7 75.44 162.74 75.8C162.8 76.16 162.83 76.91 162.83 78.05C162.83 79.91 162.87 80.87 162.95 80.93C162.99 80.99 163.71 80.97 165.11 80.87C166.39 80.73 167.23 80.7 167.63 80.78C168.05 80.86 168.26 81.09 168.26 81.47C168.26 81.55 168.25 81.62 168.23 81.68C168.23 81.74 168.2 81.8 168.14 81.86C168.1 81.92 168.05 81.97 167.99 82.01C167.95 82.05 167.87 82.09 167.75 82.13C167.63 82.17 167.5 82.2 167.36 82.22C167.22 82.24 167.03 82.27 166.79 82.31C166.57 82.33 166.33 82.35 166.07 82.37C165.83 82.39 165.51 82.42 165.11 82.46C163.73 82.56 162.98 82.7 162.86 82.88C162.78 83.02 162.72 83.88 162.68 85.46C162.66 87 162.62 87.79 162.56 87.83C162.54 87.87 162.35 87.95 161.99 88.07C161.57 88.19 161.31 88.07 161.21 87.71C161.09 87.27 161.09 85.82 161.21 83.36C161.37 80.58 161.41 78.56 161.33 77.3C161.21 76.06 161.21 75.37 161.33 75.23ZM152.81 76.07C154.15 75.85 155.1 75.75 155.66 75.77C156.22 75.77 156.54 75.88 156.62 76.1C156.76 76.46 156.7 76.74 156.44 76.94C156.2 77.14 155.76 77.25 155.12 77.27C153.3 77.29 151.9 77.52 150.92 77.96L150.17 78.23L150.26 80.45C150.3 81.05 150.32 81.49 150.32 81.77C150.34 82.05 150.38 82.34 150.44 82.64C150.5 82.94 150.56 83.14 150.62 83.24C150.68 83.32 150.79 83.42 150.95 83.54C151.13 83.64 151.29 83.7 151.43 83.72C151.59 83.74 151.83 83.76 152.15 83.78C153.05 83.86 153.97 83.85 154.91 83.75C156.41 83.53 157.16 83.74 157.16 84.38C157.16 84.62 157.12 84.8 157.04 84.92C156.98 85.04 156.79 85.14 156.47 85.22C156.17 85.3 155.77 85.35 155.27 85.37C154.79 85.39 154.07 85.4 153.11 85.4C152.93 85.4 152.68 85.4 152.36 85.4C151.88 85.4 151.54 85.4 151.34 85.4C151.14 85.4 150.88 85.38 150.56 85.34C150.26 85.3 150.07 85.28 149.99 85.28C149.91 85.26 149.79 85.19 149.63 85.07C149.47 84.93 149.37 84.82 149.33 84.74C149.31 84.64 149.26 84.46 149.18 84.2C149.12 83.94 149.08 83.72 149.06 83.54C149.06 83.34 149.03 83.03 148.97 82.61C148.95 82.31 148.93 82.07 148.91 81.89C148.73 80.07 148.65 78.83 148.67 78.17C148.69 77.51 148.82 77.12 149.06 77C149.92 76.66 151.17 76.35 152.81 76.07ZM170.394 86.72C170.694 86.58 170.944 86.53 171.144 86.57C171.364 86.59 171.604 86.72 171.864 86.96C172.084 87.14 172.224 87.29 172.284 87.41C172.344 87.51 172.374 87.67 172.374 87.89C172.374 88.87 171.874 89.36 170.874 89.36C170.734 89.36 170.614 89.35 170.514 89.33C170.434 89.31 170.364 89.27 170.304 89.21C170.244 89.17 170.164 89.1 170.064 89C169.864 88.76 169.764 88.41 169.764 87.95C169.764 87.59 169.804 87.33 169.884 87.17C169.964 87.01 170.134 86.86 170.394 86.72Z" fill="#1A1A1A"/>
<path d="M74.8215 38.04C75.0815 37.96 75.5515 37.94 76.2315 37.98C76.8515 38.02 77.5315 38.34 78.2715 38.94C79.0115 39.54 79.5515 40.2 79.8915 40.92C80.1315 41.5 80.2715 42.15 80.3115 42.87C80.3515 43.59 80.2715 44.15 80.0715 44.55C79.8715 44.95 79.5515 45.37 79.1115 45.81C78.6715 46.25 78.2715 46.56 77.9115 46.74C77.1115 47.16 76.1615 47.23 75.0615 46.95C73.9615 46.65 73.0115 46.08 72.2115 45.24L71.3115 44.28L71.4015 42.51C71.4415 41.75 71.5015 41.22 71.5815 40.92C71.6815 40.6 71.8915 40.25 72.2115 39.87C72.9515 38.93 73.8215 38.32 74.8215 38.04ZM77.2515 39.93C76.8115 39.55 76.4415 39.35 76.1415 39.33C75.8615 39.31 75.4115 39.45 74.7915 39.75C74.3315 39.97 73.9615 40.19 73.6815 40.41C73.4215 40.63 73.2215 40.89 73.0815 41.19C72.9415 41.49 72.8515 41.86 72.8115 42.3C72.7715 42.84 72.7915 43.21 72.8715 43.41C72.9515 43.61 73.2215 43.95 73.6815 44.43C74.4815 45.23 75.2115 45.64 75.8715 45.66C76.5315 45.66 77.2515 45.28 78.0315 44.52C78.6315 43.94 78.9315 43.44 78.9315 43.02C78.9315 42.8 78.8815 42.55 78.7815 42.27C78.6815 41.97 78.5515 41.68 78.3915 41.4C78.2515 41.12 78.0815 40.85 77.8815 40.59C77.6815 40.33 77.4715 40.11 77.2515 39.93ZM75.9615 48.72C76.2415 48.42 76.5115 48.34 76.7715 48.48C76.9515 48.58 77.0515 48.72 77.0715 48.9C77.0915 49.08 77.0515 49.47 76.9515 50.07C76.8315 50.93 76.8115 51.42 76.8915 51.54C77.0115 51.64 77.8415 51.69 79.3815 51.69C80.9215 51.69 81.7315 51.73 81.8115 51.81C81.9115 51.91 81.9815 52.15 82.0215 52.53L82.0815 53.07L78.6015 53.25C76.3415 53.37 74.7915 53.54 73.9515 53.76C72.5315 54.18 71.8215 54 71.8215 53.22C71.8215 52.62 72.5715 52.28 74.0715 52.2L75.2415 52.14L75.3915 50.67C75.4915 49.69 75.6815 49.04 75.9615 48.72ZM89.2869 38.94C91.1269 38.5 92.0969 38.56 92.1969 39.12C92.2369 39.32 92.1869 39.6 92.0469 39.96C91.9469 40.26 91.6369 40.75 91.1169 41.43C90.6169 42.11 90.2869 42.48 90.1269 42.54C89.7669 42.7 90.0969 43.35 91.1169 44.49L91.4169 44.85C92.5969 46.19 92.9369 46.97 92.4369 47.19C92.3569 47.23 92.2569 47.26 92.1369 47.28C91.9169 47.3 91.6669 47.22 91.3869 47.04C91.1069 46.84 90.7169 46.46 90.2169 45.9L88.8669 44.43L87.9069 45.51C87.2469 46.23 86.8769 46.73 86.7969 47.01C86.7169 47.25 86.5069 47.45 86.1669 47.61C85.8469 47.75 85.5969 47.76 85.4169 47.64C85.0769 47.44 85.1669 46.91 85.6869 46.05C86.2269 45.17 87.3169 43.75 88.9569 41.79H88.9869C89.5669 41.09 89.8269 40.7 89.7669 40.62L89.4069 40.53C89.0869 40.49 88.3169 40.6 87.0969 40.86C86.2969 41.04 85.6869 41.17 85.2669 41.25C84.8469 41.33 84.4969 41.38 84.2169 41.4C83.9569 41.4 83.7869 41.37 83.7069 41.31C83.6269 41.25 83.5869 41.15 83.5869 41.01C83.5869 40.59 83.8269 40.24 84.3069 39.96C84.8069 39.68 85.5169 39.49 86.4369 39.39C87.5169 39.29 88.4669 39.14 89.2869 38.94ZM96.6069 39.09C96.9269 38.77 97.2669 38.74 97.6269 39C97.7869 39.1 97.8669 40.71 97.8669 43.83C97.8669 46.03 97.8369 47.37 97.7769 47.85C97.7369 48.31 97.6169 48.57 97.4169 48.63C97.0169 48.75 96.7169 48.61 96.5169 48.21C96.3369 47.81 96.2169 47.04 96.1569 45.9L96.0369 43.71L95.1669 43.92C93.5469 44.26 92.6869 44.19 92.5869 43.71C92.5269 43.37 92.6869 43.06 93.0669 42.78C93.4669 42.5 93.9569 42.36 94.5369 42.36C94.9769 42.36 95.2969 42.35 95.4969 42.33C95.7169 42.31 95.8969 42.24 96.0369 42.12C96.1969 41.98 96.2869 41.82 96.3069 41.64C96.3269 41.46 96.3369 41.16 96.3369 40.74C96.3369 39.84 96.4269 39.29 96.6069 39.09ZM89.5269 49.98C89.8869 49.6 90.2369 49.59 90.5769 49.95C90.7569 50.13 90.8069 50.73 90.7269 51.75L90.5769 53.25L91.9869 53.1C93.0469 53 94.0969 52.94 95.1369 52.92C95.9569 52.88 96.4569 52.89 96.6369 52.95C96.8369 52.99 96.9569 53.12 96.9969 53.34C97.0369 53.7 96.9069 53.97 96.6069 54.15C96.3069 54.35 95.7869 54.48 95.0469 54.54C94.3069 54.62 93.2769 54.73 91.9569 54.87C91.4369 54.93 91.0569 54.97 90.8169 54.99C90.5769 55.01 90.3269 54.99 90.0669 54.93C89.8069 54.89 89.6369 54.84 89.5569 54.78C89.4969 54.72 89.4269 54.56 89.3469 54.3C89.2869 54.04 89.2469 53.8 89.2269 53.58C89.2269 53.34 89.2269 52.96 89.2269 52.44C89.2269 50.98 89.3269 50.16 89.5269 49.98ZM105.018 40.32C105.638 39.64 106.108 39.48 106.428 39.84C106.528 39.94 106.588 40.09 106.608 40.29C106.628 40.49 106.598 40.61 106.518 40.65C106.438 40.71 106.278 40.96 106.038 41.4C105.638 42.14 105.278 42.75 104.958 43.23C104.798 43.47 104.668 43.73 104.568 44.01C104.448 44.33 104.288 44.62 104.088 44.88C103.908 45.14 103.728 45.46 103.548 45.84C103.368 46.24 103.218 46.52 103.098 46.68C102.878 46.9 102.598 47.39 102.258 48.15C101.918 48.91 101.618 49.7 101.358 50.52C101.058 51.44 100.788 52.06 100.548 52.38C100.328 52.7 100.038 52.86 99.6779 52.86C98.8979 52.86 98.8779 52.09 99.6179 50.55C100.778 48.07 101.778 46.08 102.618 44.58C103.218 43.52 103.718 42.56 104.118 41.7C104.318 41.24 104.618 40.78 105.018 40.32ZM111.325 38.04C111.585 37.96 112.055 37.94 112.735 37.98C113.355 38.02 114.035 38.34 114.775 38.94C115.515 39.54 116.055 40.2 116.395 40.92C116.635 41.5 116.775 42.15 116.815 42.87C116.855 43.59 116.775 44.15 116.575 44.55C116.375 44.95 116.055 45.37 115.615 45.81C115.175 46.25 114.775 46.56 114.415 46.74C113.615 47.16 112.665 47.23 111.565 46.95C110.465 46.65 109.515 46.08 108.715 45.24L107.815 44.28L107.905 42.51C107.945 41.75 108.005 41.22 108.085 40.92C108.185 40.6 108.395 40.25 108.715 39.87C109.455 38.93 110.325 38.32 111.325 38.04ZM113.755 39.93C113.315 39.55 112.945 39.35 112.645 39.33C112.365 39.31 111.915 39.45 111.295 39.75C110.835 39.97 110.465 40.19 110.185 40.41C109.925 40.63 109.725 40.89 109.585 41.19C109.445 41.49 109.355 41.86 109.315 42.3C109.275 42.84 109.295 43.21 109.375 43.41C109.455 43.61 109.725 43.95 110.185 44.43C110.985 45.23 111.715 45.64 112.375 45.66C113.035 45.66 113.755 45.28 114.535 44.52C115.135 43.94 115.435 43.44 115.435 43.02C115.435 42.8 115.385 42.55 115.285 42.27C115.185 41.97 115.055 41.68 114.895 41.4C114.755 41.12 114.585 40.85 114.385 40.59C114.185 40.33 113.975 40.11 113.755 39.93ZM112.465 48.72C112.745 48.42 113.015 48.34 113.275 48.48C113.455 48.58 113.555 48.72 113.575 48.9C113.595 49.08 113.555 49.47 113.455 50.07C113.335 50.93 113.315 51.42 113.395 51.54C113.515 51.64 114.345 51.69 115.885 51.69C117.425 51.69 118.235 51.73 118.315 51.81C118.415 51.91 118.485 52.15 118.525 52.53L118.585 53.07L115.105 53.25C112.845 53.37 111.295 53.54 110.455 53.76C109.035 54.18 108.325 54 108.325 53.22C108.325 52.62 109.075 52.28 110.575 52.2L111.745 52.14L111.895 50.67C111.995 49.69 112.185 49.04 112.465 48.72ZM124.291 35.1C124.671 34.4 124.991 34.34 125.251 34.92C125.451 35.36 125.541 36.04 125.521 36.96V38.64L126.271 38.49C126.531 38.43 127.231 38.33 128.371 38.19C128.971 38.13 129.361 38.12 129.541 38.16C129.721 38.2 129.891 38.35 130.051 38.61C130.331 39.01 130.351 39.3 130.111 39.48C129.871 39.64 129.261 39.77 128.281 39.87C125.781 40.07 123.851 40.39 122.491 40.83C121.791 41.07 121.211 41.16 120.751 41.1C120.311 41.02 120.091 40.81 120.091 40.47C120.091 40.27 120.171 40.1 120.331 39.96C120.511 39.82 120.801 39.69 121.201 39.57C121.621 39.43 122.271 39.27 123.151 39.09L123.931 38.94L123.991 37.29C124.011 36.21 124.111 35.48 124.291 35.1ZM124.381 41.73C125.001 41.53 125.521 41.45 125.941 41.49C126.381 41.53 126.931 41.7 127.591 42C128.771 42.6 129.411 43.53 129.511 44.79C129.631 46.03 129.171 47.14 128.131 48.12C127.831 48.42 127.541 48.62 127.261 48.72C126.981 48.8 126.521 48.86 125.881 48.9C124.301 49 123.101 48.66 122.281 47.88C121.921 47.52 121.681 46.96 121.561 46.2C121.461 45.44 121.521 44.75 121.741 44.13C121.821 43.93 121.961 43.7 122.161 43.44C122.361 43.18 122.581 42.94 122.821 42.72C123.081 42.48 123.351 42.27 123.631 42.09C123.911 41.91 124.161 41.79 124.381 41.73ZM127.801 43.92C127.201 43.06 126.311 42.83 125.131 43.23C124.111 43.57 123.451 44.14 123.151 44.94C122.871 45.74 123.071 46.43 123.751 47.01C124.031 47.25 124.281 47.4 124.501 47.46C124.721 47.52 125.081 47.53 125.581 47.49C126.341 47.41 126.911 47.18 127.291 46.8C127.691 46.44 127.941 45.96 128.041 45.36C128.141 44.76 128.061 44.28 127.801 43.92ZM128.461 50.76C128.801 50.7 129.191 50.69 129.631 50.73C129.931 50.73 130.131 50.78 130.231 50.88C130.331 50.96 130.391 51.12 130.411 51.36C130.471 51.72 130.381 51.96 130.141 52.08C129.921 52.18 129.361 52.26 128.461 52.32L127.501 52.38V53.55C127.501 54.27 127.571 55.04 127.711 55.86C127.811 56.4 127.841 56.73 127.801 56.85C127.761 56.97 127.581 57.06 127.261 57.12C126.861 57.22 126.571 57.19 126.391 57.03C126.231 56.87 126.111 56.07 126.031 54.63L125.911 52.47L124.951 52.62C124.471 52.68 123.771 52.81 122.851 53.01C121.891 53.23 121.301 53.13 121.081 52.71C120.921 52.41 121.061 52.07 121.501 51.69C121.801 51.41 122.961 51.2 124.981 51.06C126.961 50.92 128.121 50.82 128.461 50.76ZM142.961 41.31C143.061 41.49 143.121 41.65 143.141 41.79C143.161 41.91 143.161 42.02 143.141 42.12C143.081 42.28 143.011 43.36 142.931 45.36C142.851 47.58 142.791 49.2 142.751 50.22C142.711 51.52 142.741 52.32 142.841 52.62C142.861 52.72 142.871 52.81 142.871 52.89C142.891 52.95 142.901 53.01 142.901 53.07C142.881 53.17 142.791 53.35 142.631 53.61C142.511 53.77 142.401 53.9 142.301 54C142.201 54.12 142.101 54.2 142.001 54.24C141.841 54.36 141.691 54.36 141.551 54.24C141.411 54.16 141.281 53.98 141.161 53.7C141.101 53.56 141.051 53.31 141.011 52.95C140.971 52.59 140.941 52.14 140.921 51.6C140.901 50.48 140.961 49.78 141.101 49.5C141.201 49.26 141.291 48.19 141.371 46.29C141.391 45.19 141.421 44.29 141.461 43.59C141.501 42.89 141.531 42.38 141.551 42.06C141.631 41.42 141.751 41.01 141.911 40.83C141.971 40.77 142.041 40.72 142.121 40.68C142.401 40.52 142.681 40.73 142.961 41.31ZM147.912 41.46C148.052 41.42 148.292 41.39 148.632 41.37C148.992 41.33 149.442 41.31 149.982 41.31C151.082 41.31 151.792 41.36 152.112 41.46C152.252 41.5 152.382 41.55 152.502 41.61C152.622 41.65 152.732 41.7 152.832 41.76C152.932 41.8 153.022 41.86 153.102 41.94C153.162 41.98 153.222 42.02 153.282 42.06C153.362 42.1 153.432 42.14 153.492 42.18C153.552 42.22 153.612 42.26 153.672 42.3C153.752 42.34 153.822 42.38 153.882 42.42C153.962 42.44 154.032 42.47 154.092 42.51C154.192 42.57 154.282 42.63 154.362 42.69C154.462 42.73 154.542 42.78 154.602 42.84C154.742 42.94 154.872 43.07 154.992 43.23C155.132 43.37 155.262 43.53 155.382 43.71C155.382 43.75 155.392 43.78 155.412 43.8C155.432 43.82 155.442 43.85 155.442 43.89C155.462 43.91 155.482 43.94 155.502 43.98C155.522 44 155.542 44.03 155.562 44.07C155.582 44.09 155.592 44.12 155.592 44.16C155.612 44.2 155.632 44.24 155.652 44.28C155.672 44.32 155.692 44.36 155.712 44.4C155.732 44.44 155.752 44.48 155.772 44.52C156.052 45.06 156.202 45.46 156.222 45.72C156.222 45.84 156.202 46.07 156.162 46.41C156.142 46.75 156.092 47.19 156.012 47.73C155.852 48.89 155.552 49.9 155.112 50.76C154.412 52.12 153.762 53.05 153.162 53.55C152.862 53.81 152.522 54 152.142 54.12C151.762 54.26 151.352 54.33 150.912 54.33C150.252 54.33 149.732 54.26 149.352 54.12C148.952 54 148.642 53.94 148.422 53.94C148.402 53.94 148.372 53.94 148.332 53.94C148.292 53.92 148.242 53.9 148.182 53.88C148.142 53.84 148.082 53.81 148.002 53.79C147.942 53.75 147.872 53.71 147.792 53.67C147.712 53.61 147.622 53.55 147.522 53.49C147.062 53.21 146.652 52.89 146.292 52.53C145.832 52.13 145.392 51.46 144.972 50.52C144.552 49.58 144.342 48.83 144.342 48.27C144.342 47.65 144.512 46.97 144.852 46.23C145.192 45.49 145.592 44.88 146.052 44.4C146.512 43.96 146.742 43.69 146.742 43.59C146.742 43.47 146.612 43.27 146.352 42.99L146.022 42.6L146.382 42.24C146.622 41.98 146.872 41.82 147.132 41.76L147.342 41.67C147.462 41.63 147.572 41.59 147.672 41.55C147.712 41.55 147.742 41.55 147.762 41.55C147.802 41.53 147.832 41.52 147.852 41.52C147.872 41.5 147.892 41.48 147.912 41.46ZM152.532 43.29C151.852 42.95 151.082 42.86 150.222 43.02C149.802 43.06 149.352 43.33 148.872 43.83C148.472 44.23 148.162 44.53 147.942 44.73C147.642 45.03 147.392 45.31 147.192 45.57C146.992 45.81 146.852 46.02 146.772 46.2C146.672 46.38 146.572 46.73 146.472 47.25C146.372 47.75 146.322 48.15 146.322 48.45C146.322 48.53 146.322 48.61 146.322 48.69C146.322 48.77 146.322 48.85 146.322 48.93C146.342 49.01 146.362 49.09 146.382 49.17C146.402 49.25 146.422 49.33 146.442 49.41C146.462 49.49 146.482 49.57 146.502 49.65C146.522 49.73 146.542 49.81 146.562 49.89C146.602 49.97 146.642 50.06 146.682 50.16C146.722 50.24 146.762 50.32 146.802 50.4C147.122 51.06 147.482 51.49 147.882 51.69C148.942 52.23 149.942 52.5 150.882 52.5H151.932H151.962V52.47L152.502 51.87C152.642 51.73 152.762 51.57 152.862 51.39C152.982 51.21 153.082 51.02 153.162 50.82C153.262 50.62 153.352 50.4 153.432 50.16C153.472 50.02 153.512 49.89 153.552 49.77C153.592 49.63 153.632 49.51 153.672 49.41C153.712 49.29 153.752 49.18 153.792 49.08C153.832 48.98 153.862 48.89 153.882 48.81C153.922 48.73 153.962 48.65 154.002 48.57C154.182 48.23 154.272 47.53 154.272 46.47V44.91L153.672 44.22C153.612 44.16 153.552 44.11 153.492 44.07C153.452 44.01 153.402 43.96 153.342 43.92C153.302 43.88 153.252 43.84 153.192 43.8C153.152 43.74 153.102 43.7 153.042 43.68C153.002 43.64 152.962 43.6 152.922 43.56C152.882 43.52 152.832 43.49 152.772 43.47C152.732 43.43 152.692 43.4 152.652 43.38C152.612 43.36 152.572 43.33 152.532 43.29ZM159.755 43.98C160.115 43.84 160.435 43.79 160.715 43.83C160.995 43.85 161.515 43.99 162.275 44.25C163.215 44.57 163.865 44.82 164.225 45C164.585 45.18 164.835 45.39 164.975 45.63C165.115 45.89 165.295 46.08 165.515 46.2C165.755 46.32 166.025 46.48 166.325 46.68C166.645 46.86 167.045 46.98 167.525 47.04C168.025 47.08 168.395 47.03 168.635 46.89C168.875 46.77 169.075 46.61 169.235 46.41C169.375 46.19 169.535 45.98 169.715 45.78C170.015 45.46 170.245 45.21 170.405 45.03C170.585 44.85 170.715 44.73 170.795 44.67C170.895 44.61 171.035 44.59 171.215 44.61C171.435 44.65 171.565 44.7 171.605 44.76C171.645 44.8 171.675 44.94 171.695 45.18C171.715 45.34 171.705 45.47 171.665 45.57C171.645 45.67 171.595 45.78 171.515 45.9C171.455 46 171.315 46.16 171.095 46.38C170.975 46.52 170.765 46.76 170.465 47.1C170.185 47.42 169.995 47.63 169.895 47.73C169.515 48.15 169.195 48.42 168.935 48.54C168.695 48.66 168.385 48.7 168.005 48.66C167.005 48.56 166.295 48.43 165.875 48.27C165.475 48.09 164.945 47.7 164.285 47.1C163.905 46.78 163.665 46.62 163.565 46.62C163.485 46.62 163.405 46.56 163.325 46.44C163.025 46.14 162.375 45.83 161.375 45.51C160.955 45.37 160.625 45.35 160.385 45.45C159.625 45.77 158.935 46.52 158.315 47.7C157.995 48.32 157.655 48.44 157.295 48.06C157.135 47.92 157.075 47.73 157.115 47.49C157.175 47.23 157.345 46.83 157.625 46.29C158.225 45.07 158.935 44.3 159.755 43.98ZM174.924 41.31C175.024 41.49 175.084 41.65 175.104 41.79C175.124 41.91 175.124 42.02 175.104 42.12C175.044 42.28 174.974 43.36 174.894 45.36C174.814 47.58 174.754 49.2 174.714 50.22C174.674 51.52 174.704 52.32 174.804 52.62C174.824 52.72 174.834 52.81 174.834 52.89C174.854 52.95 174.864 53.01 174.864 53.07C174.844 53.17 174.754 53.35 174.594 53.61C174.474 53.77 174.364 53.9 174.264 54C174.164 54.12 174.064 54.2 173.964 54.24C173.804 54.36 173.654 54.36 173.514 54.24C173.374 54.16 173.244 53.98 173.124 53.7C173.064 53.56 173.014 53.31 172.974 52.95C172.934 52.59 172.904 52.14 172.884 51.6C172.864 50.48 172.924 49.78 173.064 49.5C173.164 49.26 173.254 48.19 173.334 46.29C173.354 45.19 173.384 44.29 173.424 43.59C173.464 42.89 173.494 42.38 173.514 42.06C173.594 41.42 173.714 41.01 173.874 40.83C173.934 40.77 174.004 40.72 174.084 40.68C174.364 40.52 174.644 40.73 174.924 41.31ZM178.644 41.31C178.744 41.49 178.804 41.65 178.824 41.79C178.844 41.91 178.844 42.02 178.824 42.12C178.764 42.28 178.694 43.36 178.614 45.36C178.534 47.58 178.474 49.2 178.434 50.22C178.394 51.52 178.424 52.32 178.524 52.62C178.544 52.72 178.554 52.81 178.554 52.89C178.574 52.95 178.584 53.01 178.584 53.07C178.564 53.17 178.474 53.35 178.314 53.61C178.194 53.77 178.084 53.9 177.984 54C177.884 54.12 177.784 54.2 177.684 54.24C177.524 54.36 177.374 54.36 177.234 54.24C177.094 54.16 176.964 53.98 176.844 53.7C176.784 53.56 176.734 53.31 176.694 52.95C176.654 52.59 176.624 52.14 176.604 51.6C176.584 50.48 176.644 49.78 176.784 49.5C176.884 49.26 176.974 48.19 177.054 46.29C177.074 45.19 177.104 44.29 177.144 43.59C177.184 42.89 177.214 42.38 177.234 42.06C177.314 41.42 177.434 41.01 177.594 40.83C177.654 40.77 177.724 40.72 177.804 40.68C178.084 40.52 178.364 40.73 178.644 41.31ZM191.605 40.71C191.745 40.45 191.865 40.31 191.965 40.29C192.085 40.25 192.265 40.31 192.505 40.47C192.765 40.61 192.875 42.74 192.835 46.86C192.815 50.96 192.685 53.14 192.445 53.4C192.205 53.62 191.975 53.69 191.755 53.61C191.575 53.53 191.465 53.14 191.425 52.44C191.385 51.72 191.365 50.01 191.365 47.31C191.365 43.21 191.445 41.01 191.605 40.71ZM184.825 41.07C185.525 40.59 185.925 40.54 186.025 40.92C186.145 41.26 185.925 41.76 185.365 42.42C184.785 43.1 184.495 43.55 184.495 43.77C184.495 44.01 185.145 44.77 186.445 46.05C187.865 47.49 188.435 48.37 188.155 48.69C188.055 48.79 187.875 48.86 187.615 48.9C187.395 48.94 187.135 48.86 186.835 48.66C186.555 48.46 186.145 48.06 185.605 47.46C184.605 46.42 183.975 45.9 183.715 45.9C183.495 45.9 183.145 46.37 182.665 47.31C182.185 48.23 181.945 48.91 181.945 49.35C181.945 49.73 181.775 49.97 181.435 50.07C181.095 50.17 180.815 50.07 180.595 49.77C180.335 49.43 180.255 49.06 180.355 48.66C180.475 48.24 180.855 47.42 181.495 46.2C183.015 43.28 184.125 41.57 184.825 41.07Z" fill="#EB8888"/>
</svg>
