<svg width="241" height="60" viewBox="0 0 241 60" fill="none" xmlns="http://www.w3.org/2000/svg">
<path d="M3.44082 8.34C4.48082 7.88 5.52082 7.93 6.56082 8.49C7.54082 9.03 8.23082 9.85 8.63082 10.95C9.03082 12.03 9.07082 13.13 8.75082 14.25C8.45082 15.35 7.84082 16.22 6.92082 16.86C5.96082 17.52 4.66082 17.45 3.02082 16.65C1.10082 15.67 0.32082 14.11 0.68082 11.97C0.78082 11.37 1.13082 10.67 1.73082 9.87C2.35082 9.07 2.92082 8.56 3.44082 8.34ZM5.75082 9.72C5.37082 9.5 5.13082 9.39 5.03082 9.39C4.93082 9.39 4.73082 9.48 4.43082 9.66C3.59082 10.14 3.01082 10.63 2.69082 11.13C2.37082 11.61 2.21082 12.21 2.21082 12.93C2.21082 13.33 2.26082 13.64 2.36082 13.86C2.46082 14.08 2.68082 14.35 3.02082 14.67C3.56082 15.19 4.17082 15.5 4.85082 15.6C5.31082 15.68 5.63082 15.69 5.81082 15.63C5.99082 15.55 6.26082 15.31 6.62082 14.91C6.96082 14.55 7.17082 14.25 7.25082 14.01C7.35082 13.75 7.40082 13.31 7.40082 12.69C7.40082 11.91 7.27082 11.3 7.01082 10.86C6.77082 10.4 6.35082 10.02 5.75082 9.72ZM14.1808 8.13C14.3008 7.99 14.4908 7.94 14.7508 7.98C15.0308 8 15.2308 8.09 15.3508 8.25C15.5108 8.45 15.5308 9.56 15.4108 11.58C15.2708 13.58 15.2108 15.48 15.2308 17.28C15.2308 18.46 15.2008 19.2 15.1408 19.5C15.1008 19.78 14.9708 20 14.7508 20.16C14.1708 20.56 13.8008 20.39 13.6408 19.65C13.5608 19.27 13.5208 18.7 13.5208 17.94V15.9L12.7708 16.05C12.0108 16.17 11.3408 16.26 10.7608 16.32C10.1808 16.4 9.83082 16.42 9.71082 16.38C9.59082 16.34 9.53082 16.18 9.53082 15.9C9.53082 15.16 9.91082 14.79 10.6708 14.79C11.0108 14.79 11.6108 14.67 12.4708 14.43C13.0508 14.25 13.4008 14.1 13.5208 13.98C13.6608 13.86 13.7708 13.6 13.8508 13.2C13.9308 12.62 13.8508 12.24 13.6108 12.06C13.3708 11.88 12.9208 11.86 12.2608 12C11.3608 12.18 10.7608 12.25 10.4608 12.21C10.1608 12.15 10.0108 11.95 10.0108 11.61C10.0108 10.73 10.8708 10.29 12.5908 10.29H14.0308V9.3C14.0308 8.6 14.0808 8.21 14.1808 8.13ZM23.5078 6.15C23.6478 5.99 23.9178 6.06 24.3178 6.36C24.4378 6.42 24.5178 6.51 24.5578 6.63C24.6178 6.75 24.6678 6.93 24.7078 7.17C24.7478 7.39 24.7778 7.67 24.7978 8.01C24.8378 8.35 24.8678 8.81 24.8878 9.39C24.9478 10.73 24.9578 11.54 24.9178 11.82C24.8778 12.1 24.6878 12.38 24.3478 12.66C23.9078 13.06 23.0978 13.42 21.9178 13.74L20.1178 14.19L20.0878 15.33C20.0678 15.79 20.0778 16.15 20.1178 16.41C20.1578 16.67 20.2278 16.89 20.3278 17.07C20.4278 17.23 20.6178 17.32 20.8978 17.34C21.1778 17.36 21.4978 17.35 21.8578 17.31C22.2378 17.27 22.7478 17.18 23.3878 17.04C24.4878 16.8 25.1478 16.77 25.3678 16.95C25.5278 17.11 25.6178 17.33 25.6378 17.61C25.6778 17.89 25.6278 18.08 25.4878 18.18C25.2678 18.32 24.5278 18.5 23.2678 18.72C22.0278 18.92 21.1178 19.02 20.5378 19.02C20.1178 19.02 19.8178 19.01 19.6378 18.99C19.4778 18.95 19.3478 18.88 19.2478 18.78C19.1678 18.68 19.0578 18.48 18.9178 18.18C18.6778 17.62 18.5578 16.74 18.5578 15.54C18.5578 14.78 18.5878 14.28 18.6478 14.04C18.7278 13.78 18.8978 13.53 19.1578 13.29C19.5778 12.91 20.1578 12.63 20.8978 12.45C21.3178 12.35 21.6278 12.27 21.8278 12.21C22.0278 12.15 22.2378 12.07 22.4578 11.97C22.6778 11.85 22.8178 11.75 22.8778 11.67C22.9378 11.59 22.9978 11.45 23.0578 11.25C23.1178 11.05 23.1478 10.86 23.1478 10.68C23.1678 10.5 23.1778 10.22 23.1778 9.84V8.07L22.2178 8.1C21.6778 8.1 20.9678 8.22 20.0878 8.46C18.0078 9.14 16.9678 9.17 16.9678 8.55C16.9678 8.47 16.9878 8.37 17.0278 8.25C17.1278 7.91 17.6078 7.58 18.4678 7.26C19.3278 6.92 20.3278 6.66 21.4678 6.48C22.7878 6.32 23.4678 6.21 23.5078 6.15ZM30.8878 8.16C30.9878 7.94 31.0778 7.83 31.1578 7.83C31.2378 7.81 31.3978 7.87 31.6378 8.01C31.9778 8.25 32.1378 8.67 32.1178 9.27C32.1178 9.39 32.1078 9.64 32.0878 10.02C32.0878 10.4 32.0778 10.83 32.0578 11.31C32.0578 11.77 32.0478 12.36 32.0278 13.08C32.0278 13.78 32.0278 14.41 32.0278 14.97C31.9878 17.35 31.9378 18.75 31.8778 19.17C31.8378 19.57 31.6778 19.8 31.3978 19.86C31.0178 19.96 30.7678 19.96 30.6478 19.86C30.4678 19.76 30.3778 18.69 30.3778 16.65V13.62H29.8078C29.4478 13.62 28.9178 13.73 28.2178 13.95C27.6178 14.17 27.1178 14.25 26.7178 14.19C26.3178 14.13 26.1178 13.95 26.1178 13.65C26.1178 13.49 26.1378 13.35 26.1778 13.23C26.2378 13.09 26.3178 12.97 26.4178 12.87C26.5378 12.75 26.6878 12.66 26.8678 12.6C27.0678 12.52 27.2878 12.45 27.5278 12.39C27.7878 12.33 28.0978 12.28 28.4578 12.24C28.9178 12.18 29.3378 12.1 29.7178 12C30.1178 11.88 30.3478 11.78 30.4078 11.7C30.5478 11.48 30.6178 10.91 30.6178 9.99C30.6178 9.09 30.7078 8.48 30.8878 8.16ZM40.3884 3.99C40.4084 3.83 40.5184 3.73 40.7184 3.69C40.9384 3.65 41.1584 3.69 41.3784 3.81C41.5984 3.91 41.7384 4.05 41.7984 4.23C41.9384 4.57 41.9684 4.82 41.8884 4.98C41.7884 5.14 41.7584 6.3 41.7984 8.46V11.73L41.1384 12.09C40.6184 12.37 38.9684 12.69 36.1884 13.05C35.4684 13.15 35.0284 13.09 34.8684 12.87C34.3084 12.17 34.0284 10.34 34.0284 7.38C34.0284 5.98 34.0584 5.09 34.1184 4.71C34.1784 4.31 34.2884 4.08 34.4484 4.02C34.8484 3.86 35.1384 3.92 35.3184 4.2C35.4984 4.48 35.5684 4.97 35.5284 5.67C35.5284 5.73 35.5184 5.82 35.4984 5.94C35.4584 6.54 35.5284 6.88 35.7084 6.96C35.9084 7.02 36.5884 6.96 37.7484 6.78C37.8284 6.76 37.8884 6.75 37.9284 6.75C37.9684 6.73 38.0184 6.71 38.0784 6.69C38.1584 6.67 38.2284 6.66 38.2884 6.66L40.2984 6.39L40.3284 5.31C40.3684 4.57 40.3884 4.13 40.3884 3.99ZM39.7584 8.19C39.1384 7.87 38.6984 7.85 38.4384 8.13C38.3584 8.23 37.8584 8.37 36.9384 8.55C36.3584 8.65 35.9884 8.75 35.8284 8.85C35.6684 8.95 35.5684 9.13 35.5284 9.39C35.4684 9.77 35.5284 10.18 35.7084 10.62C35.8284 10.96 35.9684 11.16 36.1284 11.22C36.3084 11.26 36.8384 11.25 37.7184 11.19C38.8784 11.11 39.5884 10.97 39.8484 10.77C40.1084 10.55 40.2284 10.11 40.2084 9.45C40.1884 8.77 40.0384 8.35 39.7584 8.19ZM42.3984 14.16C42.9584 13.8 43.4084 13.94 43.7484 14.58C43.9284 14.96 43.8584 15.28 43.5384 15.54C43.2384 15.8 42.7584 15.95 42.0984 15.99L41.0184 16.08V17.97V19.86H40.2984H39.6084L39.5484 18.03L39.4584 16.2L38.4684 16.32C38.2684 16.34 37.8584 16.39 37.2384 16.47C36.6184 16.55 36.1884 16.61 35.9484 16.65C35.3884 16.73 34.9284 16.76 34.5684 16.74C34.2084 16.72 33.9484 16.65 33.7884 16.53C33.6284 16.39 33.5684 16.21 33.6084 15.99C33.7284 15.35 34.8484 14.99 36.9684 14.91C40.0884 14.75 41.8984 14.5 42.3984 14.16ZM35.6484 18.93C35.7684 18.81 35.9884 18.78 36.3084 18.84C36.5084 18.88 36.6384 18.99 36.6984 19.17C36.7584 19.33 36.8084 19.73 36.8484 20.37C36.8684 21.15 36.9284 21.6 37.0284 21.72C37.1284 21.84 37.4384 21.82 37.9584 21.66C38.3984 21.48 39.2584 21.35 40.5384 21.27C40.5784 21.25 40.6284 21.24 40.6884 21.24C42.3684 21.12 43.3584 21.07 43.6584 21.09C43.9584 21.11 44.1284 21.25 44.1684 21.51C44.1684 21.51 44.1684 21.52 44.1684 21.54C44.2084 21.88 44.0784 22.12 43.7784 22.26C43.4984 22.42 42.9684 22.56 42.1884 22.68C41.7484 22.72 40.5384 22.9 38.5584 23.22C37.3784 23.38 36.6584 23.46 36.3984 23.46C36.1384 23.46 35.9284 23.36 35.7684 23.16C35.6084 22.92 35.5084 22.2 35.4684 21C35.4284 19.78 35.4884 19.09 35.6484 18.93ZM48.6187 2.61C49.8387 2.03 51.0487 2.01 52.2487 2.55C53.4687 3.09 54.2787 4.01 54.6787 5.31C54.7787 5.69 54.8187 6.02 54.7987 6.3C54.7787 6.58 54.6987 6.96 54.5587 7.44C54.3387 8.1 53.9887 8.66 53.5087 9.12C53.0487 9.58 52.4287 9.99 51.6487 10.35C51.2087 10.53 50.8687 10.63 50.6287 10.65C50.3887 10.67 50.0587 10.62 49.6387 10.5C49.2787 10.42 48.9087 10.31 48.5287 10.17C48.1687 10.01 47.8487 9.85 47.5687 9.69C47.2887 9.53 47.0787 9.38 46.9387 9.24C46.7387 9.06 46.5387 8.81 46.3387 8.49C46.1387 8.17 45.9787 7.85 45.8587 7.53C45.7387 7.21 45.6787 6.95 45.6787 6.75C45.6787 5.95 45.9487 5.16 46.4887 4.38C47.0487 3.6 47.7587 3.01 48.6187 2.61ZM52.3387 4.26C51.9787 3.92 51.5087 3.75 50.9287 3.75C50.3487 3.73 49.7987 3.84 49.2787 4.08C48.7587 4.32 48.2987 4.67 47.8987 5.13C47.5187 5.57 47.3287 6.04 47.3287 6.54C47.3287 7 47.5387 7.47 47.9587 7.95C48.3987 8.43 48.8987 8.75 49.4587 8.91C50.0387 9.09 50.5587 9.1 51.0187 8.94C51.4787 8.76 52.0087 8.35 52.6087 7.71C53.0887 7.27 53.3487 6.96 53.3887 6.78C53.4487 6.6 53.4087 6.27 53.2687 5.79C53.0487 5.15 52.7387 4.64 52.3387 4.26ZM54.2887 11.73C55.0287 11.41 55.5687 11.5 55.9087 12C56.0687 12.24 56.1487 12.41 56.1487 12.51C56.1487 12.61 56.0587 12.76 55.8787 12.96C55.6387 13.24 55.0187 13.38 54.0187 13.38C52.9787 13.38 51.6687 13.55 50.0887 13.89C48.4687 14.23 47.3887 14.4 46.8487 14.4C46.4887 14.42 46.2587 14.4 46.1587 14.34C46.0787 14.26 46.0387 14.09 46.0387 13.83C46.0387 13.61 46.1187 13.41 46.2787 13.23C46.4387 13.05 46.6687 12.91 46.9687 12.81C47.2887 12.71 47.6387 12.66 48.0187 12.66C48.5587 12.66 49.2287 12.55 50.0287 12.33C50.7687 12.11 51.5887 11.98 52.4887 11.94C53.3887 11.94 53.9887 11.87 54.2887 11.73ZM51.4387 15.69C51.9987 15.47 52.6587 15.43 53.4187 15.57C54.1987 15.69 54.6987 15.93 54.9187 16.29C55.0387 16.47 55.0887 17 55.0687 17.88C55.0687 18.74 55.0087 19.33 54.8887 19.65C54.6287 20.29 53.4787 20.67 51.4387 20.79C50.2387 20.85 49.5987 20.88 49.5187 20.88C49.3187 20.9 49.2187 21.1 49.2187 21.48C49.2187 21.86 49.3787 22.08 49.6987 22.14C50.0387 22.22 50.6187 22.17 51.4387 21.99C53.7787 21.41 55.1087 21.39 55.4287 21.93C55.4887 22.13 55.5287 22.29 55.5487 22.41C55.5887 22.53 55.4487 22.65 55.1287 22.77C54.8087 22.89 54.3987 23 53.8987 23.1C53.3987 23.22 52.6487 23.37 51.6487 23.55C50.1887 23.79 49.1287 23.75 48.4687 23.43C47.8287 23.11 47.5087 22.46 47.5087 21.48C47.5087 20.8 47.6987 20.34 48.0787 20.1C48.4787 19.84 49.3187 19.65 50.5987 19.53C52.0787 19.35 52.9287 19.18 53.1487 19.02C53.3687 18.84 53.4787 18.48 53.4787 17.94C53.4787 17.56 53.4387 17.34 53.3587 17.28C53.2787 17.2 53.0187 17.16 52.5787 17.16C52.0387 17.16 51.0987 17.29 49.7587 17.55C48.3187 17.85 47.5387 17.85 47.4187 17.55C47.3787 17.41 47.4187 17.19 47.5387 16.89C47.6187 16.63 47.7687 16.45 47.9887 16.35C48.2087 16.23 48.6087 16.11 49.1887 15.99C50.1687 15.79 50.7087 15.72 50.8087 15.78C50.9287 15.86 51.1387 15.83 51.4387 15.69ZM81.7453 7.29C81.8853 7.07 82.1053 6.99 82.4053 7.05C82.7253 7.09 82.9353 7.25 83.0353 7.53C83.1553 7.89 83.1553 9.09 83.0353 11.13C82.9153 13.37 82.8553 15.39 82.8553 17.19C82.8353 19.15 82.7353 20.22 82.5553 20.4C82.3553 20.58 82.1253 20.67 81.8653 20.67C81.6053 20.65 81.4453 20.55 81.3853 20.37C81.3053 20.13 81.3253 17.93 81.4453 13.77C81.5653 9.61 81.6653 7.45 81.7453 7.29ZM72.1153 8.55C72.6553 8.45 73.0653 8.38 73.3453 8.34C73.6453 8.3 73.9353 8.27 74.2153 8.25C74.4953 8.23 74.6953 8.23 74.8153 8.25C74.9553 8.25 75.0753 8.28 75.1753 8.34C75.2953 8.38 75.3753 8.44 75.4153 8.52C75.4553 8.58 75.5053 8.68 75.5653 8.82C75.8653 9.6 75.5553 11.88 74.6353 15.66C74.3753 16.76 74.1753 17.49 74.0353 17.85C73.8953 18.19 73.7253 18.38 73.5253 18.42C73.0653 18.54 72.7853 18.45 72.6853 18.15C72.5853 17.85 72.6553 17.3 72.8953 16.5C73.1353 15.74 73.4053 14.48 73.7053 12.72C74.0253 10.96 74.1453 10.04 74.0653 9.96C73.9853 9.88 73.5553 9.91 72.7753 10.05C70.5153 10.53 69.0853 10.81 68.4853 10.89C67.9053 10.95 67.4553 10.92 67.1353 10.8C66.2553 10.4 66.5953 9.94 68.1553 9.42C69.1153 9.1 70.4353 8.81 72.1153 8.55ZM97.2743 7.23C97.3343 7.11 97.4643 7.04 97.6643 7.02C97.8843 7 98.1243 7.05 98.3843 7.17C98.5443 7.23 98.6443 7.44 98.6843 7.8C98.7443 8.16 98.7743 8.91 98.7743 10.05C98.7743 11.91 98.8143 12.87 98.8943 12.93C98.9343 12.99 99.6543 12.97 101.054 12.87C102.334 12.73 103.174 12.7 103.574 12.78C103.994 12.86 104.204 13.09 104.204 13.47C104.204 13.55 104.194 13.62 104.174 13.68C104.174 13.74 104.144 13.8 104.084 13.86C104.044 13.92 103.994 13.97 103.934 14.01C103.894 14.05 103.814 14.09 103.694 14.13C103.574 14.17 103.444 14.2 103.304 14.22C103.164 14.24 102.974 14.27 102.734 14.31C102.514 14.33 102.274 14.35 102.014 14.37C101.774 14.39 101.454 14.42 101.054 14.46C99.6743 14.56 98.9243 14.7 98.8043 14.88C98.7243 15.02 98.6643 15.88 98.6243 17.46C98.6043 19 98.5643 19.79 98.5043 19.83C98.4843 19.87 98.2943 19.95 97.9343 20.07C97.5143 20.19 97.2543 20.07 97.1543 19.71C97.0343 19.27 97.0343 17.82 97.1543 15.36C97.3143 12.58 97.3543 10.56 97.2743 9.3C97.1543 8.06 97.1543 7.37 97.2743 7.23ZM88.7543 8.07C90.0943 7.85 91.0443 7.75 91.6043 7.77C92.1643 7.77 92.4843 7.88 92.5643 8.1C92.7043 8.46 92.6443 8.74 92.3843 8.94C92.1443 9.14 91.7043 9.25 91.0643 9.27C89.2443 9.29 87.8443 9.52 86.8643 9.96L86.1143 10.23L86.2043 12.45C86.2443 13.05 86.2643 13.49 86.2643 13.77C86.2843 14.05 86.3243 14.34 86.3843 14.64C86.4443 14.94 86.5043 15.14 86.5643 15.24C86.6243 15.32 86.7343 15.42 86.8943 15.54C87.0743 15.64 87.2343 15.7 87.3743 15.72C87.5343 15.74 87.7743 15.76 88.0943 15.78C88.9943 15.86 89.9143 15.85 90.8543 15.75C92.3543 15.53 93.1043 15.74 93.1043 16.38C93.1043 16.62 93.0643 16.8 92.9843 16.92C92.9243 17.04 92.7343 17.14 92.4143 17.22C92.1143 17.3 91.7143 17.35 91.2143 17.37C90.7343 17.39 90.0143 17.4 89.0543 17.4C88.8743 17.4 88.6243 17.4 88.3043 17.4C87.8243 17.4 87.4843 17.4 87.2843 17.4C87.0843 17.4 86.8243 17.38 86.5043 17.34C86.2043 17.3 86.0143 17.28 85.9343 17.28C85.8543 17.26 85.7343 17.19 85.5743 17.07C85.4143 16.93 85.3143 16.82 85.2743 16.74C85.2543 16.64 85.2043 16.46 85.1243 16.2C85.0643 15.94 85.0243 15.72 85.0043 15.54C85.0043 15.34 84.9743 15.03 84.9143 14.61C84.8943 14.31 84.8743 14.07 84.8543 13.89C84.6743 12.07 84.5943 10.83 84.6143 10.17C84.6343 9.51 84.7643 9.12 85.0043 9C85.8643 8.66 87.1143 8.35 88.7543 8.07ZM109.938 6.78C111.678 6.48 112.778 6.48 113.238 6.78C113.378 6.86 113.478 7.11 113.538 7.53C113.598 7.95 113.638 8.71 113.658 9.81L113.748 12.66L112.998 13.08C112.478 13.42 111.828 13.63 111.048 13.71C110.268 13.81 109.648 13.98 109.188 14.22C108.868 14.38 108.678 14.54 108.618 14.7C108.558 14.86 108.538 15.22 108.558 15.78L108.648 17.04L109.578 17.01C110.118 17.01 110.978 16.9 112.158 16.68C113.438 16.42 114.308 16.3 114.768 16.32C115.228 16.34 115.488 16.51 115.548 16.83C115.608 17.15 115.508 17.41 115.248 17.61C115.088 17.75 114.438 17.93 113.298 18.15C112.178 18.37 111.058 18.55 109.938 18.69C108.818 18.83 108.188 18.86 108.048 18.78C107.508 18.52 107.158 17.52 106.998 15.78C106.938 15.12 106.928 14.68 106.968 14.46C107.028 14.22 107.198 13.94 107.478 13.62C107.798 13.26 108.328 12.94 109.068 12.66C109.808 12.36 110.498 12.21 111.138 12.21C111.578 12.21 111.858 12.04 111.978 11.7C112.118 11.36 112.158 10.71 112.098 9.75C112.038 8.99 111.978 8.54 111.918 8.4C111.858 8.26 111.668 8.19 111.348 8.19C111.028 8.19 110.408 8.33 109.488 8.61C108.568 8.87 108.048 9.07 107.928 9.21C107.748 9.35 107.438 9.4 106.998 9.36C106.578 9.32 106.248 9.2 106.008 9C105.788 8.82 105.688 8.69 105.708 8.61C105.728 8.53 105.898 8.35 106.218 8.07C106.878 7.49 108.118 7.06 109.938 6.78ZM118.458 8.04C118.618 7.84 118.868 7.8 119.208 7.92C119.468 8.02 119.608 8.33 119.628 8.85C119.668 9.37 119.678 11.12 119.658 14.1C119.618 17.1 119.548 18.91 119.448 19.53C119.368 20.13 119.128 20.43 118.728 20.43C118.528 20.43 118.378 20.36 118.278 20.22C118.178 20.06 118.098 19.73 118.038 19.23C117.998 18.71 117.978 18.06 117.978 17.28C117.978 16.48 118.008 15.34 118.068 13.86C118.168 10.18 118.298 8.24 118.458 8.04ZM122.437 3.42C122.637 3.16 122.887 3.08 123.187 3.18C123.407 3.22 123.547 3.39 123.607 3.69C123.667 3.97 123.697 4.69 123.697 5.85V8.46L124.717 8.31C124.897 8.27 125.187 8.22 125.587 8.16C126.007 8.1 126.277 8.06 126.397 8.04C128.157 7.78 129.337 7.64 129.937 7.62C130.257 7.62 130.447 7.66 130.507 7.74C130.587 7.8 130.627 8.03 130.627 8.43V9.24L129.277 9.3C128.297 9.32 127.077 9.5 125.617 9.84C124.077 10.14 123.167 10.28 122.887 10.26C122.627 10.22 122.407 9.94 122.227 9.42C122.067 8.82 122.007 7.73 122.047 6.15C122.107 4.57 122.237 3.66 122.437 3.42ZM130.927 12.45C130.947 12.43 131.077 12.55 131.317 12.81C131.737 13.23 131.797 13.64 131.497 14.04C131.217 14.42 130.757 14.55 130.117 14.43C129.577 14.35 128.627 14.42 127.267 14.64C124.967 15.04 123.447 15.28 122.707 15.36C121.987 15.42 121.537 15.35 121.357 15.15C121.217 15.01 121.147 14.89 121.147 14.79C121.147 14.67 121.237 14.48 121.417 14.22C121.577 13.94 121.757 13.77 121.957 13.71C122.157 13.65 122.557 13.62 123.157 13.62C124.097 13.62 125.057 13.51 126.037 13.29C127.157 13.07 128.037 12.96 128.677 12.96C129.357 12.92 129.907 12.83 130.327 12.69L130.927 12.45ZM124.297 17.4C124.537 17.12 124.687 16.97 124.747 16.95C124.807 16.93 124.957 16.97 125.197 17.07C125.297 17.11 125.367 17.19 125.407 17.31C125.467 17.43 125.507 17.62 125.527 17.88C125.547 18.12 125.557 18.47 125.557 18.93C125.557 20.09 125.637 20.67 125.797 20.67C125.957 20.67 126.327 20.55 126.907 20.31C127.427 20.13 128.297 19.91 129.517 19.65C130.757 19.39 131.587 19.26 132.007 19.26C132.367 19.26 132.597 19.42 132.697 19.74C132.737 19.92 132.737 20.08 132.697 20.22C132.657 20.36 132.557 20.48 132.397 20.58C132.257 20.68 132.057 20.76 131.797 20.82C131.557 20.88 131.247 20.93 130.867 20.97C129.947 21.05 129.077 21.27 128.257 21.63C127.957 21.77 127.567 21.9 127.087 22.02C126.627 22.16 126.227 22.24 125.887 22.26C125.347 22.32 124.997 22.33 124.837 22.29C124.677 22.25 124.527 22.11 124.387 21.87C124.207 21.49 124.077 20.73 123.997 19.59C123.937 18.85 123.927 18.35 123.967 18.09C124.007 17.83 124.117 17.6 124.297 17.4ZM149.988 3.99C150.008 3.83 150.118 3.73 150.318 3.69C150.538 3.65 150.758 3.69 150.978 3.81C151.198 3.91 151.338 4.05 151.398 4.23C151.538 4.57 151.568 4.82 151.488 4.98C151.388 5.14 151.358 6.3 151.398 8.46V11.73L150.738 12.09C150.218 12.37 148.568 12.69 145.788 13.05C145.068 13.15 144.628 13.09 144.468 12.87C143.908 12.17 143.628 10.34 143.628 7.38C143.628 5.98 143.658 5.09 143.718 4.71C143.778 4.31 143.888 4.08 144.048 4.02C144.448 3.86 144.738 3.92 144.918 4.2C145.098 4.48 145.168 4.97 145.128 5.67C145.128 5.73 145.118 5.82 145.098 5.94C145.058 6.54 145.128 6.88 145.308 6.96C145.508 7.02 146.188 6.96 147.348 6.78C147.428 6.76 147.488 6.75 147.528 6.75C147.568 6.73 147.618 6.71 147.678 6.69C147.758 6.67 147.828 6.66 147.888 6.66L149.898 6.39L149.928 5.31C149.968 4.57 149.988 4.13 149.988 3.99ZM149.358 8.19C148.738 7.87 148.298 7.85 148.038 8.13C147.958 8.23 147.458 8.37 146.538 8.55C145.958 8.65 145.588 8.75 145.428 8.85C145.268 8.95 145.168 9.13 145.128 9.39C145.068 9.77 145.128 10.18 145.308 10.62C145.428 10.96 145.568 11.16 145.728 11.22C145.908 11.26 146.438 11.25 147.318 11.19C148.478 11.11 149.188 10.97 149.448 10.77C149.708 10.55 149.828 10.11 149.808 9.45C149.788 8.77 149.638 8.35 149.358 8.19ZM151.998 14.16C152.558 13.8 153.008 13.94 153.348 14.58C153.528 14.96 153.458 15.28 153.138 15.54C152.838 15.8 152.358 15.95 151.698 15.99L150.618 16.08V17.97V19.86H149.898H149.208L149.148 18.03L149.058 16.2L148.068 16.32C147.868 16.34 147.458 16.39 146.838 16.47C146.218 16.55 145.788 16.61 145.548 16.65C144.988 16.73 144.528 16.76 144.168 16.74C143.808 16.72 143.548 16.65 143.388 16.53C143.228 16.39 143.168 16.21 143.208 15.99C143.328 15.35 144.448 14.99 146.568 14.91C149.688 14.75 151.498 14.5 151.998 14.16ZM145.248 18.93C145.368 18.81 145.588 18.78 145.908 18.84C146.108 18.88 146.238 18.99 146.298 19.17C146.358 19.33 146.408 19.73 146.448 20.37C146.468 21.15 146.528 21.6 146.628 21.72C146.728 21.84 147.038 21.82 147.558 21.66C147.998 21.48 148.858 21.35 150.138 21.27C150.178 21.25 150.228 21.24 150.288 21.24C151.968 21.12 152.958 21.07 153.258 21.09C153.558 21.11 153.728 21.25 153.768 21.51C153.768 21.51 153.768 21.52 153.768 21.54C153.808 21.88 153.678 22.12 153.378 22.26C153.098 22.42 152.568 22.56 151.788 22.68C151.348 22.72 150.138 22.9 148.158 23.22C146.978 23.38 146.258 23.46 145.998 23.46C145.738 23.46 145.528 23.36 145.368 23.16C145.208 22.92 145.108 22.2 145.068 21C145.028 19.78 145.088 19.09 145.248 18.93ZM161.248 0.779999C162.008 0.599999 162.648 0.599999 163.168 0.779999C163.708 0.94 163.978 1.23 163.978 1.65C163.978 1.93 163.888 2.1 163.708 2.16C163.528 2.2 162.978 2.22 162.058 2.22C160.698 2.26 159.688 2.36 159.028 2.52C158.568 2.64 158.238 2.78 158.038 2.94C157.858 3.08 157.738 3.32 157.678 3.66C157.618 3.98 157.588 4.57 157.588 5.43V7.05L158.998 6.96C159.878 6.9 160.408 6.82 160.588 6.72C160.708 6.62 161.298 6.51 162.358 6.39C163.138 6.31 163.608 6.29 163.768 6.33C163.948 6.37 164.088 6.53 164.188 6.81C164.328 7.17 164.258 7.49 163.978 7.77C163.698 8.05 163.348 8.14 162.928 8.04C162.568 7.96 161.468 8.09 159.628 8.43C157.748 8.75 156.738 8.83 156.598 8.67C156.458 8.55 156.308 7.52 156.148 5.58C156.028 4.24 155.978 3.4 155.998 3.06C156.018 2.7 156.138 2.38 156.358 2.1C156.558 1.82 156.798 1.63 157.078 1.53C157.378 1.41 157.958 1.3 158.818 1.2C160.058 1.04 160.868 0.899999 161.248 0.779999ZM162.898 10.8C163.778 10.62 164.398 10.55 164.758 10.59C165.138 10.61 165.418 10.76 165.598 11.04C165.738 11.26 165.798 11.43 165.778 11.55C165.758 11.67 165.628 11.82 165.388 12C165.028 12.3 164.468 12.45 163.708 12.45C162.908 12.45 161.538 12.62 159.598 12.96C157.678 13.3 156.488 13.47 156.028 13.47C155.588 13.47 155.348 13.29 155.308 12.93C155.248 12.55 155.288 12.31 155.428 12.21C155.508 12.09 156.628 11.84 158.788 11.46C161.028 11.1 162.398 10.88 162.898 10.8ZM161.548 15.15C161.628 15.07 162.028 15.1 162.748 15.24C163.488 15.36 163.908 15.49 164.008 15.63C164.168 15.81 164.278 16.52 164.338 17.76C164.418 18.98 164.388 19.7 164.248 19.92C164.048 20.22 163.588 20.45 162.868 20.61C162.148 20.77 161.318 20.82 160.378 20.76C159.558 20.72 159.038 20.72 158.818 20.76C158.598 20.8 158.438 20.93 158.338 21.15C158.118 21.51 158.098 21.84 158.278 22.14C158.478 22.46 158.748 22.58 159.088 22.5C159.488 22.4 160.118 22.29 160.978 22.17C161.858 22.07 162.678 21.99 163.438 21.93C164.198 21.89 164.638 21.89 164.758 21.93C164.978 22.01 165.098 22.19 165.118 22.47C165.158 22.77 165.078 23.02 164.878 23.22C164.678 23.42 164.188 23.52 163.408 23.52C162.608 23.52 161.958 23.59 161.458 23.73C160.958 23.85 160.208 23.97 159.208 24.09C158.508 24.17 158.048 24.19 157.828 24.15C157.608 24.11 157.388 23.98 157.168 23.76C156.828 23.36 156.618 22.8 156.538 22.08C156.458 21.38 156.548 20.85 156.808 20.49C157.088 20.13 157.438 19.89 157.858 19.77C158.278 19.63 159.128 19.52 160.408 19.44C161.728 19.34 162.418 19.25 162.478 19.17C162.578 19.07 162.658 18.68 162.718 18C162.738 17.82 162.748 17.68 162.748 17.58C162.748 17.46 162.738 17.35 162.718 17.25C162.718 17.15 162.688 17.07 162.628 17.01C162.588 16.95 162.538 16.9 162.478 16.86C162.418 16.8 162.318 16.77 162.178 16.77C162.058 16.75 161.928 16.74 161.788 16.74C161.648 16.72 161.458 16.73 161.218 16.77C160.998 16.79 160.768 16.82 160.528 16.86C160.288 16.88 159.988 16.92 159.628 16.98C158.188 17.24 157.248 17.37 156.808 17.37C156.368 17.37 156.108 17.26 156.028 17.04C155.908 16.7 156.028 16.4 156.388 16.14C156.748 15.88 157.248 15.72 157.888 15.66C160.268 15.38 161.488 15.21 161.548 15.15ZM170.35 8.1C171.43 7.54 172.61 7.71 173.89 8.61C174.93 9.31 175.67 10.18 176.11 11.22C176.55 12.24 176.63 13.28 176.35 14.34C176.17 15.08 175.91 15.63 175.57 15.99C175.25 16.35 174.73 16.68 174.01 16.98C173.31 17.28 172.67 17.43 172.09 17.43C171.61 17.45 171.09 17.36 170.53 17.16C169.97 16.96 169.45 16.68 168.97 16.32C168.51 15.96 168.14 15.58 167.86 15.18C167.58 14.74 167.41 14.39 167.35 14.13C167.29 13.85 167.28 13.4 167.32 12.78C167.38 11.82 167.54 11.11 167.8 10.65C168.04 10.19 168.41 9.71 168.91 9.21C169.41 8.71 169.89 8.34 170.35 8.1ZM173.14 9.84C172.56 9.42 172.08 9.23 171.7 9.27C171.32 9.29 170.86 9.54 170.32 10.02C169.52 10.78 169.05 11.56 168.91 12.36C168.79 13.14 169.02 13.88 169.6 14.58C170.28 15.4 171.11 15.82 172.09 15.84C173.09 15.84 173.91 15.42 174.55 14.58C174.75 14.34 174.88 14.1 174.94 13.86C175 13.6 175.01 13.22 174.97 12.72C174.91 12.08 174.75 11.56 174.49 11.16C174.23 10.74 173.78 10.3 173.14 9.84ZM179.68 8.34C179.76 8.2 179.99 8.15 180.37 8.19C180.75 8.23 180.95 8.32 180.97 8.46C181.01 8.8 180.93 11.58 180.73 16.8L180.55 20.55H179.86C179.66 20.55 179.52 20.55 179.44 20.55C179.36 20.53 179.29 20.48 179.23 20.4C179.17 20.3 179.13 20.19 179.11 20.07C179.11 19.93 179.1 19.7 179.08 19.38C179.04 18.72 179.1 16.75 179.26 13.47C179.44 10.19 179.58 8.48 179.68 8.34ZM195.69 4.53C195.89 4.45 196.09 4.43 196.29 4.47C196.49 4.51 196.91 4.65 197.55 4.89C198.05 5.07 198.47 5.3 198.81 5.58C199.17 5.84 199.47 6.17 199.71 6.57C199.95 6.97 200.17 7.47 200.37 8.07C200.57 8.71 200.64 9.29 200.58 9.81C200.54 10.33 200.35 10.92 200.01 11.58C199.63 12.32 199.06 12.88 198.3 13.26C197.56 13.64 196.69 13.83 195.69 13.83C195.27 13.83 194.9 13.79 194.58 13.71C194.26 13.63 193.95 13.49 193.65 13.29C193.35 13.09 193.07 12.84 192.81 12.54C192.57 12.22 192.33 11.82 192.09 11.34C191.69 10.6 191.48 9.96 191.46 9.42C191.44 8.86 191.6 8.18 191.94 7.38C192.12 6.88 192.53 6.34 193.17 5.76C193.83 5.18 194.37 4.84 194.79 4.74C195.25 4.66 195.55 4.59 195.69 4.53ZM198.09 6.87C197.41 6.23 196.68 5.98 195.9 6.12C195.12 6.24 194.4 6.73 193.74 7.59C193.36 8.05 193.17 8.64 193.17 9.36C193.19 10.06 193.39 10.69 193.77 11.25C194.31 12.05 195 12.46 195.84 12.48C196.68 12.48 197.47 12.09 198.21 11.31C198.39 11.11 198.53 10.95 198.63 10.83C198.73 10.71 198.81 10.57 198.87 10.41C198.93 10.23 198.96 10.05 198.96 9.87C198.98 9.69 198.99 9.43 198.99 9.09C198.99 8.41 198.94 7.97 198.84 7.77C198.76 7.55 198.51 7.25 198.09 6.87ZM203.85 4.98C204.25 4.52 204.6 4.52 204.9 4.98C205.16 5.4 205.23 5.99 205.11 6.75C205.03 7.27 204.97 8.73 204.93 11.13C204.91 12.85 204.87 13.87 204.81 14.19C204.77 14.51 204.62 14.69 204.36 14.73C204.12 14.77 203.93 14.74 203.79 14.64C203.65 14.52 203.54 14.28 203.46 13.92C203.38 13.54 203.34 13 203.34 12.3C203.36 11.6 203.38 10.68 203.4 9.54C203.48 6.72 203.63 5.2 203.85 4.98ZM197.25 16.95C197.61 16.53 197.9 16.29 198.12 16.23C198.36 16.17 198.65 16.26 198.99 16.5C199.19 16.66 199.28 16.79 199.26 16.89C199.24 16.97 199.08 17.15 198.78 17.43C198.5 17.67 198.33 17.86 198.27 18C198.23 18.14 198.25 18.3 198.33 18.48C198.39 18.58 198.54 18.71 198.78 18.87C199.02 19.01 199.27 19.14 199.53 19.26C199.81 19.38 200.09 19.49 200.37 19.59C200.67 19.69 200.91 19.75 201.09 19.77C201.27 19.79 201.38 19.77 201.42 19.71C201.48 19.51 201.75 18.97 202.23 18.09C202.71 17.21 203.02 16.67 203.16 16.47C203.34 16.29 203.57 16.2 203.85 16.2C204.09 16.2 204.23 16.28 204.27 16.44C204.33 16.58 204.34 16.92 204.3 17.46C204.3 17.72 204.39 17.99 204.57 18.27C204.75 18.55 205.12 18.97 205.68 19.53C206.88 20.73 207.39 21.48 207.21 21.78C207.15 21.86 207.04 21.93 206.88 21.99C206.68 22.05 206.42 22.01 206.1 21.87C205.8 21.75 205.49 21.55 205.17 21.27C204.85 20.99 204.56 20.67 204.3 20.31C203.9 19.77 203.6 19.5 203.4 19.5C203.2 19.5 203.1 19.51 203.1 19.53C203.1 19.55 202.95 20.01 202.65 20.91C202.47 21.47 202.32 21.83 202.2 21.99C202.08 22.17 201.9 22.27 201.66 22.29C201.42 22.31 201.25 22.29 201.15 22.23C201.05 22.17 200.97 22.02 200.91 21.78C200.83 21.36 200.69 21.15 200.49 21.15C200.29 21.15 199.7 20.9 198.72 20.4C197.88 20 197.35 19.83 197.13 19.89C196.93 19.93 196.76 20.27 196.62 20.91C196.46 21.55 196.3 21.98 196.14 22.2C196 22.44 195.78 22.56 195.48 22.56C194.82 22.56 194.61 22.14 194.85 21.3C194.97 20.9 195.21 20.34 195.57 19.62C196.25 18.3 196.81 17.41 197.25 16.95ZM212.645 7.8C212.945 7.7 213.205 7.67 213.425 7.71C213.665 7.75 214.035 7.88 214.535 8.1C215.295 8.46 215.885 8.84 216.305 9.24C216.745 9.64 217.045 10.13 217.205 10.71C217.385 11.29 217.475 12.06 217.475 13.02C217.475 14.26 217.105 15.3 216.365 16.14C215.625 16.96 214.705 17.38 213.605 17.4C212.885 17.4 212.085 17.18 211.205 16.74C210.345 16.28 209.735 15.76 209.375 15.18C208.975 14.56 208.765 13.88 208.745 13.14C208.725 12.38 208.865 11.65 209.165 10.95C209.465 10.25 209.925 9.62 210.545 9.06C211.165 8.48 211.865 8.06 212.645 7.8ZM215.075 10.05C214.615 9.69 214.155 9.47 213.695 9.39C213.235 9.29 212.845 9.34 212.525 9.54C211.565 10.14 210.895 10.85 210.515 11.67C210.155 12.49 210.165 13.23 210.545 13.89C210.965 14.57 211.575 15.1 212.375 15.48C213.175 15.86 213.825 15.92 214.325 15.66C214.665 15.46 214.965 15.24 215.225 15C215.505 14.76 215.715 14.5 215.855 14.22C215.995 13.94 216.065 13.67 216.065 13.41C216.065 12.61 215.965 11.9 215.765 11.28C215.585 10.66 215.355 10.25 215.075 10.05ZM221.825 9.27C221.925 8.87 222.165 8.67 222.545 8.67C222.945 8.67 223.195 8.77 223.295 8.97C223.435 9.23 223.445 10.44 223.325 12.6C223.225 14.7 223.155 16.48 223.115 17.94C223.095 18.84 223.055 19.42 222.995 19.68C222.935 19.94 222.815 20.12 222.635 20.22C222.315 20.4 222.035 20.44 221.795 20.34C221.635 20.28 221.545 20.06 221.525 19.68C221.505 19.28 221.525 18.4 221.585 17.04C221.665 15.48 221.695 14.56 221.675 14.28C221.655 13.98 221.525 13.83 221.285 13.83C220.985 13.83 220.605 13.92 220.145 14.1C219.685 14.28 219.205 14.32 218.705 14.22C218.205 14.1 217.955 13.9 217.955 13.62C217.955 13.42 218.045 13.24 218.225 13.08C218.405 12.9 218.665 12.75 219.005 12.63C219.365 12.51 219.785 12.42 220.265 12.36C221.065 12.28 221.555 12.19 221.735 12.09C221.895 11.99 221.915 11.59 221.795 10.89C221.715 10.17 221.725 9.63 221.825 9.27ZM227.827 4.35C228.547 4.09 229.237 4.01 229.897 4.11C230.577 4.19 231.207 4.46 231.787 4.92C232.387 5.38 232.877 6 233.257 6.78C233.637 7.52 233.817 8.21 233.797 8.85C233.797 9.49 233.597 10.2 233.197 10.98C232.877 11.62 232.497 12.1 232.057 12.42C231.617 12.72 231.057 12.92 230.377 13.02C229.237 13.18 228.157 12.96 227.137 12.36C226.117 11.76 225.467 10.99 225.187 10.05C224.787 8.77 224.827 7.63 225.307 6.63C225.787 5.63 226.627 4.87 227.827 4.35ZM230.257 5.58C230.057 5.58 229.837 5.54 229.597 5.46C229.237 5.34 228.667 5.56 227.887 6.12C227.107 6.68 226.637 7.22 226.477 7.74C226.417 7.94 226.407 8.18 226.447 8.46C226.487 8.72 226.557 8.99 226.657 9.27C226.757 9.53 226.887 9.79 227.047 10.05C227.227 10.31 227.417 10.53 227.617 10.71C228.377 11.39 229.147 11.7 229.927 11.64C230.707 11.58 231.327 11.17 231.787 10.41C232.527 9.21 232.407 7.96 231.427 6.66C230.847 5.94 230.457 5.58 230.257 5.58ZM231.517 14.91C231.677 14.53 231.877 14.34 232.117 14.34C232.377 14.32 232.597 14.51 232.777 14.91C232.937 15.29 232.917 15.95 232.717 16.89C232.517 17.79 232.477 18.34 232.597 18.54C232.697 18.72 233.297 18.81 234.397 18.81C235.157 18.81 235.627 18.84 235.807 18.9C236.007 18.94 236.157 19.08 236.257 19.32C236.397 19.74 236.347 20.03 236.107 20.19C235.887 20.35 235.387 20.42 234.607 20.4C233.987 20.38 233.217 20.42 232.297 20.52C231.397 20.6 230.757 20.69 230.377 20.79C230.197 20.85 229.737 20.94 228.997 21.06C228.277 21.2 227.567 21.33 226.867 21.45C226.167 21.57 225.747 21.63 225.607 21.63C225.367 21.63 225.187 21.47 225.067 21.15C224.947 20.83 224.977 20.56 225.157 20.34C225.317 20.14 225.707 19.99 226.327 19.89L227.197 19.77V17.85C227.217 16.79 227.297 16.12 227.437 15.84C227.577 15.54 227.877 15.45 228.337 15.57C228.617 15.65 228.777 15.78 228.817 15.96C228.877 16.12 228.897 16.62 228.877 17.46L228.817 19.14L229.987 19.23C230.727 19.27 231.097 19.23 231.097 19.11C231.097 18.57 231.117 18 231.157 17.4C231.217 16.8 231.277 16.28 231.337 15.84C231.417 15.4 231.477 15.09 231.517 14.91ZM238.438 18.72C238.738 18.58 238.988 18.53 239.188 18.57C239.408 18.59 239.648 18.72 239.908 18.96C240.128 19.14 240.268 19.29 240.328 19.41C240.388 19.51 240.418 19.67 240.418 19.89C240.418 20.87 239.918 21.36 238.918 21.36C238.778 21.36 238.658 21.35 238.558 21.33C238.478 21.31 238.408 21.27 238.348 21.21C238.288 21.17 238.208 21.1 238.108 21C237.908 20.76 237.808 20.41 237.808 19.95C237.808 19.59 237.848 19.33 237.928 19.17C238.008 19.01 238.178 18.86 238.438 18.72ZM85.4354 42.95C85.5554 42.77 85.7754 42.7 86.0954 42.74C86.4154 42.78 86.6254 42.91 86.7254 43.13C86.8654 43.39 86.8754 44.39 86.7554 46.13C86.5954 48.09 86.4954 50.09 86.4554 52.13C86.4354 53.49 86.3954 54.41 86.3354 54.89C86.2754 55.37 86.1654 55.65 86.0054 55.73C85.7854 55.89 85.5254 55.92 85.2254 55.82C85.0254 55.74 84.9154 55.4 84.8954 54.8C84.8754 54.2 84.9054 52.54 84.9854 49.82C85.0854 46.8 85.1554 44.95 85.1954 44.27C85.2354 43.59 85.3154 43.15 85.4354 42.95ZM75.7754 43.67C76.6954 43.41 77.6854 43.29 78.7454 43.31C79.8254 43.33 80.5154 43.48 80.8154 43.76C81.0154 43.96 81.1354 45.24 81.1754 47.6C81.2354 49.94 81.1754 51.2 80.9954 51.38C80.8754 51.5 79.7354 51.72 77.5754 52.04C76.1154 52.22 75.2054 52.31 74.8454 52.31C74.4854 52.31 74.2454 52.22 74.1254 52.04C73.8254 51.62 73.6354 50.39 73.5554 48.35C73.4754 46.29 73.5554 45.05 73.7954 44.63C74.0154 44.31 74.6754 43.99 75.7754 43.67ZM79.3154 44.96C79.0754 44.88 78.8954 44.84 78.7754 44.84C78.7554 44.86 78.6754 44.88 78.5354 44.9C78.4154 44.92 78.2454 44.95 78.0254 44.99C77.8054 45.03 77.6054 45.06 77.4254 45.08C76.1854 45.28 75.4654 45.49 75.2654 45.71C75.0654 45.93 74.9654 46.62 74.9654 47.78C74.9654 49.06 75.0054 49.83 75.0854 50.09C75.1854 50.33 75.8754 50.41 77.1554 50.33C78.3954 50.27 79.1454 50.2 79.4054 50.12C79.5854 50.06 79.6754 49.21 79.6754 47.57C79.6754 46.57 79.6454 45.9 79.5854 45.56C79.5454 45.22 79.4554 45.02 79.3154 44.96ZM92.4603 39.68C93.1403 39.6 94.0703 39.52 95.2503 39.44C95.5703 39.42 95.8203 39.57 96.0003 39.89C96.1803 40.21 96.1903 40.52 96.0303 40.82C95.9503 40.96 95.7503 41.05 95.4303 41.09C95.1103 41.11 94.5003 41.11 93.6003 41.09C92.1403 41.03 91.1703 41.11 90.6903 41.33C90.2103 41.55 89.9203 42.07 89.8203 42.89C89.7403 43.59 89.7603 44.13 89.8803 44.51C90.0003 44.77 90.1203 44.91 90.2403 44.93C90.3603 44.93 90.7403 44.85 91.3803 44.69C92.2803 44.47 93.2503 44.36 94.2903 44.36C94.7903 44.36 95.1603 44.37 95.4003 44.39C95.6603 44.41 95.8503 44.45 95.9703 44.51C96.0903 44.57 96.1803 44.67 96.2403 44.81C96.5003 45.27 96.2303 45.59 95.4303 45.77C95.0303 45.87 94.4303 45.95 93.6303 46.01C92.1303 46.17 91.1603 46.32 90.7203 46.46C90.4003 46.6 90.2003 46.72 90.1203 46.82C90.0403 46.92 90.0303 47.09 90.0903 47.33C90.1303 47.61 90.1903 47.78 90.2703 47.84C90.3703 47.88 90.6003 47.87 90.9603 47.81C93.2003 47.43 94.7403 47.24 95.5803 47.24C96.4203 47.24 96.8703 47.43 96.9303 47.81C96.9303 47.83 96.9303 47.85 96.9303 47.87C96.9703 48.07 96.8803 48.22 96.6603 48.32C96.3403 48.44 94.8203 48.77 92.1003 49.31L92.0703 49.34H92.0403H92.0103H91.9803H91.9503L91.9203 49.37H91.8903H91.8603H91.8303H91.8003L91.7703 49.4H91.7403H91.7103H91.6803H91.6503L91.6203 49.43H91.5903C90.7303 49.61 90.1603 49.7 89.8803 49.7C89.6203 49.7 89.4203 49.63 89.2803 49.49C88.8803 49.11 88.5803 47.28 88.3803 44C88.3403 43.52 88.3203 43.12 88.3203 42.8C88.3203 42.48 88.3403 42.17 88.3803 41.87C88.4203 41.55 88.4703 41.3 88.5303 41.12C88.5903 40.94 88.7003 40.77 88.8603 40.61C89.0203 40.43 89.1903 40.3 89.3703 40.22C89.5503 40.14 89.8003 40.06 90.1203 39.98C90.4403 39.9 90.7803 39.84 91.1403 39.8C91.5003 39.76 91.9403 39.72 92.4603 39.68ZM99.0003 41.18C99.0803 40.96 99.2603 40.84 99.5403 40.82C99.8203 40.8 100.04 40.89 100.2 41.09C100.3 41.25 100.35 42.73 100.35 45.53C100.37 48.33 100.33 49.79 100.23 49.91C100.15 49.97 99.9003 49.93 99.4803 49.79L98.8503 49.55V45.56C98.8503 42.92 98.9003 41.46 99.0003 41.18ZM96.6303 51.11C97.0503 51.07 97.3103 51.03 97.4103 50.99C97.4903 50.95 97.6603 51.01 97.9203 51.17C98.2003 51.31 98.4903 51.52 98.7903 51.8C99.0903 52.06 99.3203 52.31 99.4803 52.55C99.7603 52.93 99.9403 53.25 100.02 53.51C100.1 53.77 100.13 54.2 100.11 54.8C100.09 55.38 100.03 55.83 99.9303 56.15C99.8303 56.47 99.6403 56.82 99.3603 57.2C98.4203 58.5 97.3103 59.01 96.0303 58.73C95.3903 58.59 94.7303 58.25 94.0503 57.71C93.3703 57.19 92.9003 56.63 92.6403 56.03C92.3403 55.43 92.2403 54.88 92.3403 54.38C92.4403 53.86 92.7503 53.31 93.2703 52.73C93.4503 52.51 93.6203 52.33 93.7803 52.19C93.9403 52.05 94.1103 51.93 94.2903 51.83C94.4903 51.71 94.7003 51.61 94.9203 51.53C95.1603 51.43 95.4103 51.35 95.6703 51.29C95.9503 51.23 96.2703 51.17 96.6303 51.11ZM98.1603 53.27C97.8403 52.89 97.5303 52.67 97.2303 52.61C96.9303 52.53 96.5003 52.59 95.9403 52.79C95.5603 52.91 95.2103 53.08 94.8903 53.3C94.5903 53.52 94.3503 53.77 94.1703 54.05C93.9903 54.31 93.9003 54.56 93.9003 54.8C93.9003 55.18 94.1703 55.66 94.7103 56.24C95.2503 56.82 95.7503 57.16 96.2103 57.26C96.5303 57.32 96.7803 57.31 96.9603 57.23C97.1603 57.15 97.4403 56.92 97.8003 56.54C98.1203 56.2 98.3303 55.92 98.4303 55.7C98.5503 55.46 98.6103 55.15 98.6103 54.77C98.6103 54.17 98.4603 53.67 98.1603 53.27ZM114.719 37.55C115.219 37.07 115.599 37.21 115.859 37.97C115.999 38.41 116.069 38.98 116.069 39.68V40.88L117.059 40.73C118.799 40.45 119.779 40.36 119.999 40.46C120.119 40.5 120.259 40.65 120.419 40.91C120.719 41.35 120.759 41.65 120.539 41.81C120.339 41.97 119.789 42.07 118.889 42.11C117.929 42.13 116.499 42.35 114.599 42.77C113.039 43.11 112.029 43.27 111.569 43.25C111.109 43.21 110.879 42.99 110.879 42.59C110.879 42.39 110.979 42.21 111.179 42.05C111.379 41.89 111.649 41.76 111.989 41.66C112.349 41.56 112.759 41.51 113.219 41.51C113.859 41.51 114.269 41.37 114.449 41.09C114.629 40.79 114.679 40.2 114.599 39.32C114.499 38.34 114.539 37.75 114.719 37.55ZM123.269 42.44C123.389 42.28 123.609 42.23 123.929 42.29C124.169 42.33 124.309 42.46 124.349 42.68C124.409 42.9 124.419 43.57 124.379 44.69L124.319 47.03L125.909 46.88C126.689 46.8 127.159 46.78 127.319 46.82C127.499 46.84 127.619 46.98 127.679 47.24C127.779 47.62 127.719 47.91 127.499 48.11C127.279 48.29 126.879 48.38 126.299 48.38C125.619 48.38 125.099 48.45 124.739 48.59C124.479 48.69 124.319 48.82 124.259 48.98C124.219 49.12 124.229 49.46 124.289 50C124.429 51.48 124.209 52.3 123.629 52.46C123.189 52.58 122.919 52.45 122.819 52.07C122.679 51.57 122.699 49.97 122.879 47.27C123.039 44.21 123.169 42.6 123.269 42.44ZM114.779 44.03C115.199 43.79 115.719 43.67 116.339 43.67C116.959 43.67 117.479 43.77 117.899 43.97C118.739 44.41 119.369 45.08 119.789 45.98C120.209 46.88 120.299 47.74 120.059 48.56C119.899 49.1 119.559 49.63 119.039 50.15C118.539 50.67 117.969 51.06 117.329 51.32C116.889 51.54 116.309 51.66 115.589 51.68C114.869 51.7 114.309 51.62 113.909 51.44C113.409 51.26 112.939 50.91 112.499 50.39C112.059 49.85 111.799 49.33 111.719 48.83C111.639 48.29 111.719 47.71 111.959 47.09C112.199 46.45 112.569 45.87 113.069 45.35C113.569 44.81 114.139 44.37 114.779 44.03ZM118.019 45.8C117.379 45 116.529 44.88 115.469 45.44C114.569 45.9 113.919 46.53 113.519 47.33C113.119 48.13 113.129 48.8 113.549 49.34C114.109 50.06 114.879 50.36 115.859 50.24C116.859 50.1 117.619 49.61 118.139 48.77C118.839 47.67 118.799 46.68 118.019 45.8ZM117.599 53.69C117.839 53.45 118.129 53.41 118.469 53.57C118.669 53.69 118.789 53.84 118.829 54.02C118.869 54.2 118.849 54.6 118.769 55.22C118.729 55.46 118.699 55.69 118.679 55.91C118.679 56.13 118.679 56.3 118.679 56.42C118.699 56.56 118.719 56.63 118.739 56.63C118.799 56.63 119.299 56.51 120.239 56.27C121.159 56.03 122.149 55.91 123.209 55.91C124.289 55.91 124.869 56.03 124.949 56.27C125.069 56.61 124.969 56.87 124.649 57.05C124.329 57.23 123.739 57.36 122.879 57.44C121.779 57.56 120.799 57.73 119.939 57.95C119.099 58.17 118.479 58.27 118.079 58.25C117.699 58.25 117.469 58.13 117.389 57.89C117.289 57.61 117.239 56.91 117.239 55.79C117.239 54.63 117.359 53.93 117.599 53.69ZM144.032 41.42C144.072 40.78 144.122 40.37 144.182 40.19C144.242 39.99 144.362 39.89 144.542 39.89C144.822 39.89 145.082 40.02 145.322 40.28C145.462 40.46 145.542 40.82 145.562 41.36C145.602 41.9 145.592 42.99 145.532 44.63C145.432 47.25 145.322 48.62 145.202 48.74C145.122 48.86 144.192 49.06 142.412 49.34C141.072 49.58 140.272 49.7 140.012 49.7C139.752 49.7 139.532 49.58 139.352 49.34C138.892 48.78 138.542 46.94 138.302 43.82C138.222 42.74 138.232 42.01 138.332 41.63C138.452 41.25 138.722 41.06 139.142 41.06C139.402 41.06 139.582 41.21 139.682 41.51C139.782 41.79 139.832 42.32 139.832 43.1C139.832 43.94 139.902 44.36 140.042 44.36C140.102 44.36 140.392 44.28 140.912 44.12C141.432 43.96 141.972 43.79 142.532 43.61C143.112 43.41 143.472 43.27 143.612 43.19C143.852 43.09 143.992 42.5 144.032 41.42ZM144.032 46.1C144.032 45.6 143.992 45.31 143.912 45.23C143.852 45.13 143.642 45.08 143.282 45.08C142.882 45.1 142.242 45.25 141.362 45.53C140.742 45.75 140.352 46.01 140.192 46.31C140.032 46.61 140.072 46.99 140.312 47.45C140.432 47.67 140.572 47.81 140.732 47.87C140.892 47.91 141.212 47.9 141.692 47.84C142.432 47.76 143.012 47.63 143.432 47.45C143.712 47.31 143.882 47.17 143.942 47.03C144.002 46.87 144.032 46.56 144.032 46.1ZM150.362 40.94C150.422 40.76 150.632 40.65 150.992 40.61C151.372 40.55 151.612 40.6 151.712 40.76C151.792 40.9 151.782 41.97 151.682 43.97C151.562 45.97 151.542 47.56 151.622 48.74C151.682 49.66 151.652 50.3 151.532 50.66C151.432 51.02 151.192 51.2 150.812 51.2C150.472 51.2 150.242 51 150.122 50.6C150.022 50.2 149.972 49.41 149.972 48.23C149.972 46.83 149.892 45.98 149.732 45.68C149.572 45.36 149.192 45.34 148.592 45.62C148.132 45.86 147.732 45.98 147.392 45.98C147.072 45.98 146.902 45.85 146.882 45.59C146.842 45.17 146.862 44.85 146.942 44.63C147.042 44.41 147.222 44.24 147.482 44.12C147.742 43.98 148.122 43.87 148.622 43.79C149.282 43.69 149.712 43.54 149.912 43.34C150.112 43.14 150.212 42.78 150.212 42.26C150.212 41.68 150.262 41.24 150.362 40.94ZM143.912 52.43C144.092 52.25 144.372 52.16 144.752 52.16C145.032 52.16 145.182 52.24 145.202 52.4C145.242 52.54 145.222 53.08 145.142 54.02C145.142 54.14 145.132 54.31 145.112 54.53C145.032 55.29 145.092 55.72 145.292 55.82C145.492 55.92 146.242 55.87 147.542 55.67C147.882 55.63 148.152 55.59 148.352 55.55C149.352 55.39 150.022 55.31 150.362 55.31C150.702 55.29 150.942 55.36 151.082 55.52C151.302 55.72 151.352 55.95 151.232 56.21C151.132 56.49 150.922 56.66 150.602 56.72C147.942 57.22 146.192 57.5 145.352 57.56C144.512 57.64 144.002 57.55 143.822 57.29C143.662 57.05 143.592 56.22 143.612 54.8C143.632 53.38 143.732 52.59 143.912 52.43ZM155.521 40.94C155.621 40.84 155.771 40.8 155.971 40.82C156.171 40.84 156.341 40.92 156.481 41.06C156.581 41.16 156.641 41.29 156.661 41.45C156.681 41.59 156.681 41.93 156.661 42.47C156.621 43.23 156.531 44.07 156.391 44.99C156.251 45.91 156.121 46.48 156.001 46.7C155.901 46.9 155.861 47.22 155.881 47.66C155.921 48.08 156.011 48.49 156.151 48.89C156.291 49.31 156.341 49.64 156.301 49.88C156.261 50.12 156.121 50.36 155.881 50.6C155.661 50.82 155.441 50.94 155.221 50.96C155.021 50.96 154.861 50.87 154.741 50.69C154.621 50.51 154.551 49.75 154.531 48.41C154.511 47.05 154.561 46.23 154.681 45.95C154.761 45.75 154.841 45.38 154.921 44.84C155.041 44.08 155.121 43.57 155.161 43.31C155.241 42.71 155.301 42.22 155.341 41.84C155.381 41.36 155.441 41.06 155.521 40.94ZM153.931 54.98C154.171 54.84 154.461 54.86 154.801 55.04C155.181 55.24 155.371 55.59 155.371 56.09C155.371 56.57 155.181 56.9 154.801 57.08C154.441 57.28 154.061 57.25 153.661 56.99C153.401 56.85 153.271 56.64 153.271 56.36C153.271 56.16 153.341 55.9 153.481 55.58C153.641 55.26 153.791 55.06 153.931 54.98ZM159.904 41.9L161.554 41.93C162.734 41.97 163.484 42.03 163.804 42.11C163.864 42.11 164.054 42.15 164.374 42.23C164.694 42.29 164.924 42.33 165.064 42.35C165.504 42.43 165.974 42.6 166.474 42.86C167.014 43.14 167.364 43.45 167.524 43.79C167.684 44.13 167.764 44.73 167.764 45.59C167.764 46.51 167.724 47.07 167.644 47.27C167.564 47.47 167.504 47.69 167.464 47.93C167.404 48.21 167.264 48.55 167.044 48.95C166.824 49.35 166.594 49.65 166.354 49.85C166.194 49.99 166.054 50.1 165.934 50.18C165.814 50.26 165.664 50.33 165.484 50.39C165.324 50.45 165.094 50.52 164.794 50.6C164.594 50.64 164.294 50.72 163.894 50.84C163.654 50.92 163.404 50.96 163.144 50.96C162.524 50.96 162.214 51.41 162.214 52.31C162.214 52.75 162.274 53.09 162.394 53.33C162.494 53.55 162.514 53.76 162.454 53.96C162.414 54.14 162.284 54.3 162.064 54.44C161.864 54.56 161.604 54.62 161.284 54.62C160.904 54.62 160.664 54.48 160.564 54.2C160.484 53.92 160.444 53.21 160.444 52.07C160.444 50.81 160.494 50.1 160.594 49.94C160.714 49.8 161.144 49.7 161.884 49.64C162.584 49.6 163.124 49.53 163.504 49.43C163.824 49.37 164.174 49.3 164.554 49.22C164.754 49.16 164.954 49.07 165.154 48.95C165.374 48.81 165.544 48.65 165.664 48.47C165.784 48.29 165.844 48.12 165.844 47.96C165.844 47.76 165.884 47.58 165.964 47.42C166.064 47.26 166.114 46.73 166.114 45.83C166.114 45.21 166.094 44.83 166.054 44.69C166.034 44.53 165.944 44.39 165.784 44.27C165.584 44.09 165.394 44 165.214 44C165.034 44 164.804 43.94 164.524 43.82C164.444 43.8 164.364 43.78 164.284 43.76C164.224 43.74 164.174 43.73 164.134 43.73C164.114 43.71 164.104 43.7 164.104 43.7C164.084 43.72 164.054 43.73 164.014 43.73C163.974 43.71 163.914 43.69 163.834 43.67C163.774 43.65 163.704 43.63 163.624 43.61C163.284 43.49 162.634 43.43 161.674 43.43C160.854 43.43 160.274 43.48 159.934 43.58C159.614 43.66 159.314 43.86 159.034 44.18C158.694 44.54 158.374 44.57 158.074 44.27C157.814 44.05 157.804 43.72 158.044 43.28C158.184 43.02 158.314 42.83 158.434 42.71C158.574 42.59 158.834 42.43 159.214 42.23L159.904 41.9ZM160.444 57.53C160.604 57.33 160.854 57.23 161.194 57.23C161.574 57.23 161.834 57.3 161.974 57.44C162.134 57.58 162.214 57.82 162.214 58.16C162.214 58.52 162.104 58.81 161.884 59.03C161.704 59.21 161.454 59.31 161.134 59.33C160.834 59.35 160.594 59.28 160.414 59.12C160.254 59 160.174 58.75 160.174 58.37C160.194 58.01 160.284 57.73 160.444 57.53Z" fill="#1A1A1A"/>
</svg>
