<svg width="207" height="57" viewBox="0 0 207 57" fill="none" xmlns="http://www.w3.org/2000/svg">
<path d="M8.18215 2.67C8.32215 2.55 8.49215 2.59 8.69215 2.79C8.91215 2.99 9.06215 3.22 9.14215 3.48C9.24215 3.74 9.25215 3.95 9.17215 4.11C9.03215 4.23 8.06215 4.31 6.26215 4.35C5.20215 4.35 4.45215 4.38 4.01215 4.44C3.57215 4.5 3.22215 4.62 2.96215 4.8C2.78215 4.9 2.66215 4.98 2.60215 5.04C2.54215 5.1 2.48215 5.24 2.42215 5.46C2.36215 5.66 2.33215 5.89 2.33215 6.15C2.33215 6.39 2.33215 6.81 2.33215 7.41C2.33215 8.89 2.39215 9.68 2.51215 9.78C2.63215 9.84 3.16215 9.88 4.10215 9.9C5.14215 9.9 6.44215 9.78 8.00215 9.54C8.56215 9.44 8.95215 9.52 9.17215 9.78C9.67215 10.4 9.24215 10.85 7.88215 11.13C7.72215 11.17 7.55215 11.2 7.37215 11.22C6.35215 11.38 5.17215 11.5 3.83215 11.58C2.51215 11.66 1.77215 11.66 1.61215 11.58C1.41215 11.44 1.20215 10.86 0.982149 9.84C0.762149 8.8 0.652149 7.89 0.652149 7.11C0.652149 6.09 0.572149 5.45 0.412148 5.19C0.252148 4.85 0.392148 4.51 0.832149 4.17C1.27215 3.83 1.94215 3.55 2.84215 3.33C3.74215 3.09 4.74215 2.94 5.84215 2.88C7.36215 2.8 8.14215 2.73 8.18215 2.67ZM8.87215 15.69C8.97215 15.57 9.19215 15.53 9.53215 15.57C9.89215 15.61 10.1321 15.69 10.2521 15.81C10.4521 16.01 10.4921 16.26 10.3721 16.56C10.2721 16.84 10.0721 17.03 9.77215 17.13C9.47215 17.23 8.59215 17.27 7.13215 17.25C5.83215 17.23 4.44215 17.28 2.96215 17.4C2.38215 17.44 1.85215 17.46 1.37215 17.46C0.912148 17.46 0.632148 17.43 0.532149 17.37C0.332148 17.25 0.222148 17.05 0.202148 16.77C0.182148 16.47 0.282148 16.24 0.502148 16.08C0.662148 15.94 2.08215 15.85 4.76215 15.81C7.46215 15.79 8.83215 15.75 8.87215 15.69ZM23.8302 4.65C23.9302 4.37 24.1802 4.25 24.5802 4.29L25.2402 4.38L25.1202 9.54C25.1202 10.3 25.1102 11.21 25.0902 12.27C25.0702 13.33 25.0502 14.19 25.0302 14.85C25.0102 15.49 25.0002 15.92 25.0002 16.14V17.55L24.1902 17.61L23.3802 17.7L23.5602 11.37C23.6602 7.27 23.7502 5.03 23.8302 4.65ZM16.0902 4.65C16.1302 4.61 16.7002 4.58 17.8002 4.56C18.1402 4.54 18.4202 4.53 18.6402 4.53C18.8602 4.53 19.0402 4.55 19.1802 4.59C19.3202 4.61 19.4202 4.65 19.4802 4.71C19.5602 4.75 19.6202 4.82 19.6602 4.92C19.8202 5.22 19.8002 5.5 19.6002 5.76C19.4602 5.94 19.2502 6.06 18.9702 6.12C18.7102 6.16 18.1902 6.17 17.4102 6.15C16.1302 6.13 15.1602 6.25 14.5002 6.51L13.4802 6.9L13.6302 9.42C13.6302 9.52 13.6402 9.68 13.6602 9.9C13.6802 10.48 13.6902 10.89 13.6902 11.13C13.7102 11.37 13.7602 11.64 13.8402 11.94C13.9202 12.22 13.9802 12.39 14.0202 12.45C14.0802 12.51 14.2202 12.58 14.4402 12.66C14.6602 12.72 14.8602 12.74 15.0402 12.72C15.2402 12.7 15.5702 12.68 16.0302 12.66C16.1702 12.64 16.2902 12.63 16.3902 12.63C17.6502 12.55 18.7202 12.45 19.6002 12.33C20.1002 12.27 20.4102 12.27 20.5302 12.33C20.6502 12.37 20.7702 12.54 20.8902 12.84C21.0702 13.3 21.0502 13.64 20.8302 13.86C20.6102 14.06 20.1602 14.14 19.4802 14.1C18.7602 14.08 17.5502 14.17 15.8502 14.37C14.7502 14.49 14.0202 14.55 13.6602 14.55C13.3202 14.55 13.0802 14.48 12.9402 14.34C12.6002 14 12.3202 12.59 12.1002 10.11C11.8802 7.63 11.9102 6.2 12.1902 5.82C12.4102 5.56 13.1002 5.3 14.2602 5.04C15.3802 4.82 15.9902 4.69 16.0902 4.65ZM30.6451 4.8C30.9451 4.7 31.2051 4.67 31.4251 4.71C31.6651 4.75 32.0351 4.88 32.5351 5.1C33.2951 5.46 33.8851 5.84 34.3051 6.24C34.7451 6.64 35.0451 7.13 35.2051 7.71C35.3851 8.29 35.4751 9.06 35.4751 10.02C35.4751 11.26 35.1051 12.3 34.3651 13.14C33.6251 13.96 32.7051 14.38 31.6051 14.4C30.8851 14.4 30.0851 14.18 29.2051 13.74C28.3451 13.28 27.7351 12.76 27.3751 12.18C26.9751 11.56 26.7651 10.88 26.7451 10.14C26.7251 9.38 26.8651 8.65 27.1651 7.95C27.4651 7.25 27.9251 6.62 28.5451 6.06C29.1651 5.48 29.8651 5.06 30.6451 4.8ZM33.0751 7.05C32.6151 6.69 32.1551 6.47 31.6951 6.39C31.2351 6.29 30.8451 6.34 30.5251 6.54C29.5651 7.14 28.8951 7.85 28.5151 8.67C28.1551 9.49 28.1651 10.23 28.5451 10.89C28.9651 11.57 29.5751 12.1 30.3751 12.48C31.1751 12.86 31.8251 12.92 32.3251 12.66C32.6651 12.46 32.9651 12.24 33.2251 12C33.5051 11.76 33.7151 11.5 33.8551 11.22C33.9951 10.94 34.0651 10.67 34.0651 10.41C34.0651 9.61 33.9651 8.9 33.7651 8.28C33.5851 7.66 33.3551 7.25 33.0751 7.05ZM39.8251 6.27C39.9251 5.87 40.1651 5.67 40.5451 5.67C40.9451 5.67 41.1951 5.77 41.2951 5.97C41.4351 6.23 41.4451 7.44 41.3251 9.6C41.2251 11.7 41.1551 13.48 41.1151 14.94C41.0951 15.84 41.0551 16.42 40.9951 16.68C40.9351 16.94 40.8151 17.12 40.6351 17.22C40.3151 17.4 40.0351 17.44 39.7951 17.34C39.6351 17.28 39.5451 17.06 39.5251 16.68C39.5051 16.28 39.5251 15.4 39.5851 14.04C39.6651 12.48 39.6951 11.56 39.6751 11.28C39.6551 10.98 39.5251 10.83 39.2851 10.83C38.9851 10.83 38.6051 10.92 38.1451 11.1C37.6851 11.28 37.2051 11.32 36.7051 11.22C36.2051 11.1 35.9551 10.9 35.9551 10.62C35.9551 10.42 36.0451 10.24 36.2251 10.08C36.4051 9.9 36.6651 9.75 37.0051 9.63C37.3651 9.51 37.7851 9.42 38.2651 9.36C39.0651 9.28 39.5551 9.19 39.7351 9.09C39.8951 8.99 39.9151 8.59 39.7951 7.89C39.7151 7.17 39.7251 6.63 39.8251 6.27ZM53.8911 2.16C54.4311 1.68 54.8211 1.4 55.0611 1.32C55.3011 1.22 55.8211 1.17 56.6211 1.17C57.2211 1.17 57.6911 1.2 58.0311 1.26C58.3711 1.32 58.6911 1.43 58.9911 1.59C59.2911 1.75 59.6311 2 60.0111 2.34C60.5111 2.78 60.8611 3.25 61.0611 3.75C61.2811 4.25 61.3811 4.86 61.3611 5.58C61.3611 6.88 60.9611 7.97 60.1611 8.85C59.3611 9.71 58.3911 10.14 57.2511 10.14C56.2911 10.14 55.4111 9.92 54.6111 9.48C53.8111 9.02 53.1711 8.37 52.6911 7.53C52.1711 6.67 51.9111 6.03 51.9111 5.61C51.9111 5.41 51.9411 5.2 52.0011 4.98C52.0611 4.76 52.1411 4.54 52.2411 4.32C52.3611 4.08 52.5011 3.84 52.6611 3.6C52.8211 3.34 53.0011 3.09 53.2011 2.85C53.4211 2.61 53.6511 2.38 53.8911 2.16ZM58.5111 2.88C57.9111 2.58 57.1711 2.55 56.2911 2.79C55.4311 3.01 54.7411 3.43 54.2211 4.05C53.8211 4.51 53.6111 4.94 53.5911 5.34C53.5711 5.74 53.7211 6.24 54.0411 6.84C54.5811 7.76 55.4311 8.33 56.5911 8.55C57.0711 8.65 57.5011 8.63 57.8811 8.49C58.2611 8.33 58.6911 8.01 59.1711 7.53C59.4911 7.23 59.7011 6.97 59.8011 6.75C59.9011 6.51 59.9511 6.19 59.9511 5.79C59.9511 5.19 59.8011 4.61 59.5011 4.05C59.2211 3.47 58.8911 3.08 58.5111 2.88ZM61.0011 12.03C61.5211 11.87 61.8711 11.8 62.0511 11.82C62.2511 11.84 62.4811 11.98 62.7411 12.24C63.0211 12.52 63.1711 12.75 63.1911 12.93C63.2111 13.09 63.1011 13.28 62.8611 13.5C62.6211 13.78 61.9511 13.92 60.8511 13.92C60.2911 13.92 59.9011 13.94 59.6811 13.98C59.4811 14 59.3311 14.05 59.2311 14.13C59.1311 14.19 59.0411 14.33 58.9611 14.55C58.8011 15.03 58.7611 15.97 58.8411 17.37C58.9411 18.45 58.9711 19.09 58.9311 19.29C58.8911 19.51 58.7411 19.68 58.4811 19.8C58.2011 19.9 57.9911 19.93 57.8511 19.89C57.7111 19.87 57.5911 19.75 57.4911 19.53C57.4111 19.33 57.3711 18.99 57.3711 18.51C57.3711 18.05 57.3711 17.45 57.3711 16.71L57.4611 13.95L56.8611 14.04C56.4811 14.1 55.6011 14.17 54.2211 14.25C53.4011 14.31 52.8511 14.33 52.5711 14.31C52.2911 14.27 52.1211 14.18 52.0611 14.04C51.8611 13.5 52.0611 13.11 52.6611 12.87C53.2811 12.63 54.3711 12.5 55.9311 12.48C58.3111 12.48 60.0011 12.33 61.0011 12.03ZM68.9146 3.78C70.6546 3.48 71.7546 3.48 72.2146 3.78C72.3546 3.86 72.4546 4.11 72.5146 4.53C72.5746 4.95 72.6146 5.71 72.6346 6.81L72.7246 9.66L71.9746 10.08C71.4546 10.42 70.8046 10.63 70.0246 10.71C69.2446 10.81 68.6246 10.98 68.1646 11.22C67.8446 11.38 67.6546 11.54 67.5946 11.7C67.5346 11.86 67.5146 12.22 67.5346 12.78L67.6246 14.04L68.5546 14.01C69.0946 14.01 69.9546 13.9 71.1346 13.68C72.4146 13.42 73.2846 13.3 73.7446 13.32C74.2046 13.34 74.4646 13.51 74.5246 13.83C74.5846 14.15 74.4846 14.41 74.2246 14.61C74.0646 14.75 73.4146 14.93 72.2746 15.15C71.1546 15.37 70.0346 15.55 68.9146 15.69C67.7946 15.83 67.1646 15.86 67.0246 15.78C66.4846 15.52 66.1346 14.52 65.9746 12.78C65.9146 12.12 65.9046 11.68 65.9446 11.46C66.0046 11.22 66.1746 10.94 66.4546 10.62C66.7746 10.26 67.3046 9.94 68.0446 9.66C68.7846 9.36 69.4746 9.21 70.1146 9.21C70.5546 9.21 70.8346 9.04 70.9546 8.7C71.0946 8.36 71.1346 7.71 71.0746 6.75C71.0146 5.99 70.9546 5.54 70.8946 5.4C70.8346 5.26 70.6446 5.19 70.3246 5.19C70.0046 5.19 69.3846 5.33 68.4646 5.61C67.5446 5.87 67.0246 6.07 66.9046 6.21C66.7246 6.35 66.4146 6.4 65.9746 6.36C65.5546 6.32 65.2246 6.2 64.9846 6C64.7646 5.82 64.6646 5.69 64.6846 5.61C64.7046 5.53 64.8746 5.35 65.1946 5.07C65.8546 4.49 67.0946 4.06 68.9146 3.78ZM77.4346 5.04C77.5946 4.84 77.8446 4.8 78.1846 4.92C78.4446 5.02 78.5846 5.33 78.6046 5.85C78.6446 6.37 78.6546 8.12 78.6346 11.1C78.5946 14.1 78.5246 15.91 78.4246 16.53C78.3446 17.13 78.1046 17.43 77.7046 17.43C77.5046 17.43 77.3546 17.36 77.2546 17.22C77.1546 17.06 77.0746 16.73 77.0146 16.23C76.9746 15.71 76.9546 15.06 76.9546 14.28C76.9546 13.48 76.9846 12.34 77.0446 10.86C77.1446 7.18 77.2746 5.24 77.4346 5.04ZM84.444 1.44C84.484 1.44 84.544 1.43 84.624 1.41C86.064 1.27 86.914 1.22 87.174 1.26C87.434 1.28 87.624 1.42 87.744 1.68C87.764 1.72 87.774 1.75 87.774 1.77C87.854 1.99 87.904 2.18 87.924 2.34C87.944 2.48 87.844 2.59 87.624 2.67C87.404 2.75 87.114 2.81 86.754 2.85C86.414 2.87 85.894 2.89 85.194 2.91C84.514 2.93 83.974 2.96 83.574 3C83.194 3.04 82.854 3.1 82.554 3.18C82.274 3.26 82.074 3.4 81.954 3.6C81.834 3.78 81.744 3.99 81.684 4.23C81.644 4.47 81.624 4.81 81.624 5.25V6.66L82.494 6.48C85.994 5.8 87.744 5.88 87.744 6.72C87.744 7.04 87.614 7.26 87.354 7.38C87.114 7.48 86.634 7.54 85.914 7.56C85.154 7.56 84.264 7.7 83.244 7.98C82.564 8.16 82.144 8.31 81.984 8.43C81.824 8.53 81.764 8.71 81.804 8.97C81.844 9.45 81.994 9.73 82.254 9.81C82.514 9.87 83.094 9.8 83.994 9.6C86.554 9.04 87.984 9 88.284 9.48C88.444 9.72 88.424 9.97 88.224 10.23C88.044 10.49 87.774 10.62 87.414 10.62C87.094 10.62 86.154 10.77 84.594 11.07C83.154 11.37 82.184 11.52 81.684 11.52C81.184 11.52 80.894 11.39 80.814 11.13C80.474 10.07 80.254 8.48 80.154 6.36C80.054 4.24 80.134 3.03 80.394 2.73C80.994 2.05 82.344 1.62 84.444 1.44ZM90.714 2.73C90.794 2.51 90.974 2.39 91.254 2.37C91.554 2.33 91.764 2.41 91.884 2.61C91.984 2.77 92.054 4.31 92.094 7.23V11.58L91.554 11.7C91.194 11.78 90.944 11.72 90.804 11.52C90.644 11.28 90.544 9.88 90.504 7.32C90.484 4.76 90.554 3.23 90.714 2.73ZM89.334 13.41C89.754 13.27 89.984 13.2 90.024 13.2C90.064 13.2 90.144 13.23 90.264 13.29C90.404 13.33 90.544 13.4 90.684 13.5C90.824 13.6 90.954 13.7 91.074 13.8C91.214 13.88 91.304 13.95 91.344 14.01C91.464 14.21 91.524 15.09 91.524 16.65C91.524 18.03 91.414 18.85 91.194 19.11C90.994 19.37 90.294 19.56 89.094 19.68C88.814 19.7 88.344 19.74 87.684 19.8C87.044 19.88 86.634 19.93 86.454 19.95C86.174 19.99 85.944 20.01 85.764 20.01C85.584 20.01 85.414 19.99 85.254 19.95C85.094 19.93 84.974 19.87 84.894 19.77C84.814 19.67 84.734 19.55 84.654 19.41C84.594 19.29 84.544 19.09 84.504 18.81C84.484 18.55 84.464 18.28 84.444 18C84.444 17.7 84.444 17.32 84.444 16.86C84.444 15.3 84.504 14.43 84.624 14.25C84.744 14.07 85.114 13.98 85.734 13.98C86.894 13.98 88.094 13.79 89.334 13.41ZM89.964 15.21L89.034 15.15C88.694 15.15 88.334 15.18 87.954 15.24C87.574 15.28 87.214 15.36 86.874 15.48C86.554 15.6 86.324 15.72 86.184 15.84C85.964 16.02 85.854 16.49 85.854 17.25V18.39L87.234 18.24C87.474 18.2 87.824 18.15 88.284 18.09C88.744 18.05 89.034 18.02 89.154 18C89.234 18 89.324 17.99 89.424 17.97C89.544 17.95 89.634 17.94 89.694 17.94C89.774 17.94 89.824 17.94 89.844 17.94C89.924 17.9 89.964 17.43 89.964 16.53V15.21ZM97.1106 5.25C97.5706 5.11 97.9606 5.07 98.2806 5.13C98.6206 5.17 99.2006 5.37 100.021 5.73C101.361 6.29 102.041 7.49 102.061 9.33C102.061 10.27 101.971 10.99 101.791 11.49C101.631 11.97 101.321 12.48 100.861 13.02C100.441 13.5 100.121 13.79 99.9006 13.89C99.7006 13.99 99.3106 14.04 98.7306 14.04C97.5906 14.04 96.5006 13.7 95.4606 13.02C94.4406 12.34 93.8506 11.58 93.6906 10.74C93.5506 9.92 93.5806 9.21 93.7806 8.61C93.9806 8.01 94.4106 7.38 95.0706 6.72C95.3906 6.38 95.7506 6.07 96.1506 5.79C96.5706 5.51 96.8906 5.33 97.1106 5.25ZM99.1806 6.84C98.6806 6.68 98.3206 6.62 98.1006 6.66C97.8806 6.68 97.4806 6.85 96.9006 7.17C96.2206 7.57 95.7706 7.92 95.5506 8.22C95.3306 8.52 95.2106 8.94 95.1906 9.48C95.1906 10.16 95.4406 10.75 95.9406 11.25C96.4606 11.75 97.1406 12.09 97.9806 12.27C98.6206 12.43 99.0206 12.5 99.1806 12.48C99.3406 12.44 99.5606 12.25 99.8406 11.91C100.001 11.73 100.111 11.56 100.171 11.4C100.251 11.22 100.301 11 100.321 10.74C100.361 10.48 100.381 10.12 100.381 9.66C100.381 8.66 100.301 7.99 100.141 7.65C100.001 7.29 99.6806 7.02 99.1806 6.84ZM110.821 5.25C110.961 5.05 111.141 4.96 111.361 4.98C111.581 4.98 111.781 5.09 111.961 5.31C112.161 5.55 112.201 7.11 112.081 9.99C111.941 12.81 111.871 14.55 111.871 15.21C111.851 15.79 111.771 16.18 111.631 16.38C111.511 16.58 111.251 16.72 110.851 16.8L110.221 16.92L110.431 13.44C110.571 10.64 110.641 8.75 110.641 7.77C110.641 6.29 110.701 5.45 110.821 5.25ZM107.281 5.7C107.681 5.32 108.051 5.34 108.391 5.76C108.571 5.98 108.571 7.1 108.391 9.12C108.271 10.66 108.131 12.38 107.971 14.28L107.821 16.38H107.131H106.411L106.441 13.59C106.441 13.55 106.441 13.5 106.441 13.44C106.481 12.02 106.441 11.22 106.321 11.04C106.201 10.84 105.761 10.85 105.001 11.07C104.941 11.09 104.901 11.1 104.881 11.1C104.381 11.26 103.901 11.3 103.441 11.22C102.981 11.14 102.751 10.99 102.751 10.77C102.751 10.39 102.921 10.09 103.261 9.87C103.621 9.65 104.201 9.5 105.001 9.42C106.081 9.28 106.691 9.11 106.831 8.91C106.951 8.67 107.011 8.12 107.011 7.26C107.011 6.4 107.101 5.88 107.281 5.7ZM128.64 5.1C128.76 4.8 128.91 4.62 129.09 4.56C129.29 4.48 129.56 4.5 129.9 4.62C130.14 4.72 130.26 4.93 130.26 5.25C130.26 5.55 130.14 6.15 129.9 7.05C129.64 8.07 129.47 9.83 129.39 12.33L129.21 16.14L128.58 16.35C128.06 16.53 127.75 16.48 127.65 16.2C127.55 15.88 127.55 14.91 127.65 13.29C127.79 11.45 127.83 10.48 127.77 10.38C127.71 10.32 127.18 10.42 126.18 10.68C125.26 10.92 124.58 11.05 124.14 11.07C123.7 11.07 123.39 10.96 123.21 10.74C123.03 10.5 123.05 10.28 123.27 10.08C123.55 9.82 124 9.57 124.62 9.33C125.24 9.09 125.76 8.97 126.18 8.97C126.48 8.97 126.76 8.94 127.02 8.88C127.3 8.8 127.54 8.7 127.74 8.58C127.96 8.44 128.12 8.29 128.22 8.13C128.34 7.95 128.4 7.5 128.4 6.78C128.4 6.02 128.48 5.46 128.64 5.1ZM133.2 4.83C133.28 4.63 133.46 4.52 133.74 4.5C134.04 4.48 134.29 4.57 134.49 4.77C134.65 4.95 134.74 5.74 134.76 7.14C134.78 8.54 134.7 9.58 134.52 10.26C134.36 11 134.24 12.2 134.16 13.86C134.08 15.12 134 15.9 133.92 16.2C133.84 16.48 133.68 16.68 133.44 16.8C132.96 17.02 132.67 16.99 132.57 16.71C132.41 16.25 132.54 14.08 132.96 10.2C133 9.82 133.05 9.37 133.11 8.85C133.25 7.61 133.28 6.69 133.2 6.09C133.12 5.51 133.12 5.09 133.2 4.83ZM119.64 5.55C119.74 5.45 120.13 5.43 120.81 5.49C121.51 5.53 121.91 5.61 122.01 5.73C122.17 5.93 122.17 6.53 122.01 7.53C121.93 8.05 121.71 9.58 121.35 12.12C121.33 12.14 121.32 12.16 121.32 12.18C121.14 13.7 121 14.59 120.9 14.85C120.82 15.11 120.62 15.25 120.3 15.27C119.88 15.33 119.62 15.23 119.52 14.97C119.42 14.75 119.5 13.7 119.76 11.82C120.2 8.94 120.38 7.4 120.3 7.2C120.28 7.12 120.14 7.11 119.88 7.17C118.2 7.49 116.91 7.7 116.01 7.8C115.13 7.9 114.53 7.9 114.21 7.8C113.39 7.48 113.46 7.11 114.42 6.69C115.32 6.29 116.72 5.98 118.62 5.76C119.2 5.68 119.54 5.61 119.64 5.55ZM160.641 2.31C160.741 2.15 160.981 2.09 161.361 2.13C161.741 2.17 161.971 2.27 162.051 2.43C162.131 2.67 162.091 3.36 161.931 4.5C161.771 5.66 161.771 6.29 161.931 6.39C162.111 6.49 162.621 6.46 163.461 6.3C164.961 6.06 165.811 6.21 166.011 6.75C166.091 6.95 166.091 7.13 166.011 7.29C165.931 7.43 165.771 7.55 165.531 7.65C165.311 7.73 165.031 7.77 164.691 7.77C164.071 7.77 163.421 7.85 162.741 8.01L161.691 8.28L161.631 10.35L161.571 12.36L160.821 12.45C160.361 12.49 160.091 12.39 160.011 12.15C159.931 11.89 159.951 11.18 160.071 10.02C160.151 9.04 160.251 7.47 160.371 5.31C160.471 3.47 160.561 2.47 160.641 2.31ZM154.491 2.52C155.091 2.44 155.741 2.39 156.441 2.37C156.681 2.37 156.871 2.37 157.011 2.37C157.151 2.37 157.271 2.38 157.371 2.4C157.491 2.42 157.581 2.46 157.641 2.52C157.701 2.56 157.751 2.61 157.791 2.67C157.831 2.73 157.881 2.82 157.941 2.94C158.121 3.34 158.111 3.65 157.911 3.87C157.731 4.09 157.431 4.15 157.011 4.05C156.591 3.93 156.091 3.89 155.511 3.93C154.951 3.97 154.451 4.07 154.011 4.23L153.351 4.47L153.531 6.42C153.651 7.7 153.771 8.41 153.891 8.55C153.991 8.69 154.361 8.73 155.001 8.67C155.661 8.61 156.201 8.5 156.621 8.34C156.941 8.26 157.231 8.35 157.491 8.61C157.771 8.87 157.891 9.18 157.851 9.54C157.811 9.86 157.551 10.04 157.071 10.08C156.571 10.16 155.771 10.3 154.671 10.5C154.431 10.56 154.151 10.62 153.831 10.68C153.511 10.72 153.271 10.76 153.111 10.8C152.951 10.82 152.861 10.83 152.841 10.83C152.561 10.83 152.291 9.77 152.031 7.65C151.771 5.53 151.751 4.25 151.971 3.81C152.131 3.51 152.451 3.24 152.931 3C153.431 2.74 153.951 2.58 154.491 2.52ZM145.281 5.76C145.201 4.96 145.351 4.39 145.731 4.05C146.111 3.69 146.951 3.37 148.251 3.09C149.571 2.79 150.401 2.64 150.741 2.64C151.101 2.64 151.331 2.78 151.431 3.06C151.531 3.42 151.461 3.71 151.221 3.93C150.981 4.15 150.591 4.26 150.051 4.26C149.391 4.26 148.681 4.39 147.921 4.65L146.781 5.07L146.931 7.05C147.031 8.35 147.161 9.16 147.321 9.48C147.481 9.78 147.801 9.88 148.281 9.78C148.801 9.66 149.261 9.58 149.661 9.54C150.121 9.48 150.461 9.41 150.681 9.33C150.921 9.21 151.161 9.26 151.401 9.48C151.641 9.7 151.761 9.97 151.761 10.29C151.761 10.35 151.681 10.43 151.521 10.53C151.381 10.63 151.171 10.73 150.891 10.83C150.631 10.91 150.331 10.99 149.991 11.07C149.671 11.15 149.311 11.23 148.911 11.31C148.531 11.37 148.151 11.42 147.771 11.46C147.071 11.54 146.651 11.56 146.511 11.52C146.371 11.46 146.231 11.27 146.091 10.95C145.831 10.27 145.561 8.54 145.281 5.76ZM157.191 14.07C157.691 13.93 158.071 13.83 158.331 13.77C158.611 13.71 158.881 13.7 159.141 13.74C159.401 13.78 159.581 13.86 159.681 13.98C159.801 14.08 159.901 14.3 159.981 14.64C160.081 14.96 160.141 15.32 160.161 15.72C160.201 16.1 160.241 16.64 160.281 17.34C160.301 18.32 160.301 19.09 160.281 19.65C160.281 20.21 160.241 20.52 160.161 20.58C160.021 20.68 159.741 20.72 159.321 20.7C159.021 20.66 158.841 20.53 158.781 20.31C158.721 20.09 158.671 19.35 158.631 18.09V18.06L158.571 15.57H157.701C157.121 15.57 156.291 15.72 155.211 16.02C154.251 16.26 153.631 16.36 153.351 16.32C153.071 16.28 152.931 16.06 152.931 15.66C152.931 15.28 153.121 14.97 153.501 14.73C153.901 14.49 154.431 14.37 155.091 14.37C155.771 14.37 156.471 14.27 157.191 14.07ZM189.319 1.92C189.479 1.74 189.689 1.65 189.949 1.65C190.569 1.65 190.739 2.59 190.459 4.47C190.279 5.55 190.189 6.15 190.189 6.27C190.189 6.35 190.669 6.35 191.629 6.27C192.409 6.17 192.949 6.19 193.249 6.33C193.569 6.45 193.729 6.69 193.729 7.05C193.729 7.53 193.239 7.78 192.259 7.8C191.619 7.8 191.059 7.91 190.579 8.13C190.099 8.35 189.869 8.6 189.889 8.88C189.969 9.58 189.999 10.28 189.979 10.98C189.979 11.68 189.939 12.09 189.859 12.21C189.719 12.43 189.499 12.52 189.199 12.48C188.899 12.42 188.679 12.25 188.539 11.97C188.339 11.61 188.299 10.77 188.419 9.45C188.559 7.57 188.719 5.89 188.899 4.41C189.099 2.91 189.239 2.08 189.319 1.92ZM180.529 2.22C181.569 2.02 182.499 1.92 183.319 1.92C184.139 1.9 184.599 2 184.699 2.22C184.839 2.48 184.869 3.77 184.789 6.09C184.769 6.21 184.759 6.37 184.759 6.57C184.739 7.21 184.719 7.67 184.699 7.95C184.699 8.21 184.669 8.54 184.609 8.94C184.549 9.34 184.499 9.6 184.459 9.72C184.439 9.82 184.329 9.97 184.129 10.17C183.949 10.35 183.809 10.46 183.709 10.5C183.609 10.52 183.369 10.56 182.989 10.62C182.629 10.68 182.319 10.71 182.059 10.71C181.799 10.71 181.369 10.71 180.769 10.71C180.609 10.71 180.489 10.71 180.409 10.71C179.029 10.71 178.139 10.69 177.739 10.65C177.339 10.61 177.089 10.51 176.989 10.35C176.809 10.03 176.679 8.9 176.599 6.96C176.519 5.02 176.549 3.9 176.689 3.6C176.849 3.34 177.209 3.11 177.769 2.91C178.329 2.71 179.249 2.48 180.529 2.22ZM183.229 5.94C183.309 4.34 183.289 3.54 183.169 3.54C183.069 3.56 182.459 3.64 181.339 3.78C180.239 3.9 179.389 4.09 178.789 4.35L177.889 4.71L178.039 6.18C178.139 7.2 178.189 7.89 178.189 8.25V8.97H180.529C182.129 8.97 182.949 8.87 182.989 8.67C183.069 8.51 183.149 7.6 183.229 5.94ZM184.189 13.29C185.189 13.09 186.119 12.99 186.979 12.99C187.839 12.99 188.409 13.09 188.689 13.29C188.889 13.43 188.999 13.57 189.019 13.71C189.039 13.83 188.969 14.07 188.809 14.43C188.469 15.27 188.329 15.87 188.389 16.23C188.469 16.57 188.829 17.11 189.469 17.85C190.609 19.15 190.969 19.99 190.549 20.37C190.449 20.47 190.289 20.52 190.069 20.52C189.849 20.52 189.609 20.41 189.349 20.19C189.109 19.97 188.759 19.57 188.299 18.99L187.069 17.4L185.509 19.14C184.789 19.9 184.319 20.35 184.099 20.49C183.899 20.65 183.669 20.67 183.409 20.55C183.069 20.37 182.899 20.2 182.899 20.04C182.899 19.9 183.599 19.02 184.999 17.4C186.739 15.44 187.419 14.45 187.039 14.43C186.979 14.43 186.879 14.46 186.739 14.52C186.299 14.64 185.839 14.72 185.359 14.76C184.699 14.86 184.009 15.03 183.289 15.27C182.809 15.43 182.479 15.52 182.299 15.54C182.139 15.54 181.989 15.46 181.849 15.3C181.169 14.64 181.589 14.06 183.109 13.56C183.429 13.46 183.789 13.37 184.189 13.29ZM196.521 0.419999C196.721 0.159999 196.971 0.0799989 197.271 0.179999C197.491 0.219999 197.631 0.39 197.691 0.689999C197.751 0.969999 197.781 1.69 197.781 2.85V5.46L198.801 5.31C198.981 5.27 199.271 5.22 199.671 5.16C200.091 5.1 200.361 5.06 200.481 5.04C202.241 4.78 203.421 4.64 204.021 4.62C204.341 4.62 204.531 4.66 204.591 4.74C204.671 4.8 204.711 5.03 204.711 5.43V6.24L203.361 6.3C202.381 6.32 201.161 6.5 199.701 6.84C198.161 7.14 197.251 7.28 196.971 7.26C196.711 7.22 196.491 6.94 196.311 6.42C196.151 5.82 196.091 4.73 196.131 3.15C196.191 1.57 196.321 0.66 196.521 0.419999ZM205.011 9.45C205.031 9.43 205.161 9.55 205.401 9.81C205.821 10.23 205.881 10.64 205.581 11.04C205.301 11.42 204.841 11.55 204.201 11.43C203.661 11.35 202.711 11.42 201.351 11.64C199.051 12.04 197.531 12.28 196.791 12.36C196.071 12.42 195.621 12.35 195.441 12.15C195.301 12.01 195.231 11.89 195.231 11.79C195.231 11.67 195.321 11.48 195.501 11.22C195.661 10.94 195.841 10.77 196.041 10.71C196.241 10.65 196.641 10.62 197.241 10.62C198.181 10.62 199.141 10.51 200.121 10.29C201.241 10.07 202.121 9.96 202.761 9.96C203.441 9.92 203.991 9.83 204.411 9.69L205.011 9.45ZM198.381 14.4C198.621 14.12 198.771 13.97 198.831 13.95C198.891 13.93 199.041 13.97 199.281 14.07C199.381 14.11 199.451 14.19 199.491 14.31C199.551 14.43 199.591 14.62 199.611 14.88C199.631 15.12 199.641 15.47 199.641 15.93C199.641 17.09 199.721 17.67 199.881 17.67C200.041 17.67 200.411 17.55 200.991 17.31C201.511 17.13 202.381 16.91 203.601 16.65C204.841 16.39 205.671 16.26 206.091 16.26C206.451 16.26 206.681 16.42 206.781 16.74C206.821 16.92 206.821 17.08 206.781 17.22C206.741 17.36 206.641 17.48 206.481 17.58C206.341 17.68 206.141 17.76 205.881 17.82C205.641 17.88 205.331 17.93 204.951 17.97C204.031 18.05 203.161 18.27 202.341 18.63C202.041 18.77 201.651 18.9 201.171 19.02C200.711 19.16 200.311 19.24 199.971 19.26C199.431 19.32 199.081 19.33 198.921 19.29C198.761 19.25 198.611 19.11 198.471 18.87C198.291 18.49 198.161 17.73 198.081 16.59C198.021 15.85 198.011 15.35 198.051 15.09C198.091 14.83 198.201 14.6 198.381 14.4ZM36.3572 36.98C36.4372 36.76 36.6172 36.65 36.8972 36.65C37.2972 36.65 37.5472 36.81 37.6472 37.13C37.7472 37.43 37.7272 38.05 37.5872 38.99C37.4472 40.11 37.4572 40.76 37.6172 40.94C37.7972 41.1 38.4172 41.08 39.4772 40.88C40.4172 40.72 41.0472 40.68 41.3672 40.76C41.6872 40.82 41.8472 41.04 41.8472 41.42C41.8472 41.68 41.7772 41.85 41.6372 41.93C41.5172 42.01 41.2172 42.08 40.7372 42.14C39.9972 42.22 39.2272 42.39 38.4272 42.65L37.2272 43.04L37.3472 44.69L37.4672 46.31H36.6872C36.1872 46.31 35.8872 46.19 35.7872 45.95C35.7072 45.75 35.7472 44.27 35.9072 41.51C36.0872 38.75 36.2372 37.24 36.3572 36.98ZM29.3672 38.03C29.7672 37.57 30.1272 37.25 30.4472 37.07C30.7872 36.89 31.0172 36.85 31.1372 36.95C31.2772 37.05 31.2872 37.28 31.1672 37.64C31.0472 38 30.7972 38.43 30.4172 38.93C29.8572 39.59 29.5772 40.03 29.5772 40.25C29.5772 40.33 29.6972 40.48 29.9372 40.7C30.1772 40.9 30.4472 41.1 30.7472 41.3C32.3472 42.38 33.1472 43.25 33.1472 43.91C33.1472 44.89 32.5172 44.81 31.2572 43.67C30.7772 43.19 30.2572 42.77 29.6972 42.41C29.1372 42.03 28.7572 41.84 28.5572 41.84C28.4372 41.84 28.2072 42.21 27.8672 42.95C27.5272 43.69 27.3272 44.26 27.2672 44.66C27.2072 45.04 27.1172 45.28 26.9972 45.38C26.8972 45.46 26.6972 45.5 26.3972 45.5C26.0972 45.5 25.8972 45.46 25.7972 45.38C25.6972 45.3 25.6372 45.13 25.6172 44.87C25.5572 44.37 25.9372 43.37 26.7572 41.87C27.5972 40.37 28.4672 39.09 29.3672 38.03ZM32.9372 47.72C33.6372 47.46 34.2072 47.36 34.6472 47.42C35.0872 47.46 35.6172 47.68 36.2372 48.08C37.5972 48.98 38.1872 50.28 38.0072 51.98C37.9472 52.74 37.7872 53.34 37.5272 53.78C37.2672 54.22 36.8272 54.64 36.2072 55.04C35.8672 55.26 35.5672 55.39 35.3072 55.43C35.0672 55.49 34.6872 55.49 34.1672 55.43C33.3272 55.33 32.6672 55.17 32.1872 54.95C31.7272 54.75 31.2772 54.4 30.8372 53.9C30.1772 53.14 29.8572 52.28 29.8772 51.32C29.8972 50.34 30.2572 49.52 30.9572 48.86C31.3972 48.4 32.0572 48.02 32.9372 47.72ZM35.9372 49.73C35.1172 48.91 34.1272 48.79 32.9672 49.37C32.4072 49.63 32.0172 49.92 31.7972 50.24C31.5772 50.56 31.4672 51 31.4672 51.56C31.4672 51.86 31.5472 52.17 31.7072 52.49C31.8872 52.79 32.1172 53.06 32.3972 53.3C32.6972 53.54 32.9972 53.7 33.2972 53.78C33.7372 53.9 34.2372 53.89 34.7972 53.75C35.3772 53.61 35.7872 53.41 36.0272 53.15C36.4072 52.77 36.5872 52.21 36.5672 51.47C36.5472 50.71 36.3372 50.13 35.9372 49.73ZM54.2018 40.13C54.3618 39.69 54.6218 39.47 54.9818 39.47C55.1218 39.47 55.2318 39.49 55.3118 39.53C55.4118 39.57 55.4918 39.65 55.5518 39.77C55.6118 39.87 55.6518 40 55.6718 40.16C55.6918 40.32 55.6918 40.56 55.6718 40.88C55.6718 41.2 55.6518 41.56 55.6118 41.96C55.5718 42.34 55.5218 42.83 55.4618 43.43L55.3418 44.24L56.6018 44.06C57.7218 43.92 58.3818 43.75 58.5818 43.55C58.7818 43.35 58.8818 42.79 58.8818 41.87C58.8818 40.37 59.1118 39.61 59.5718 39.59C59.7118 39.59 59.8618 39.63 60.0218 39.71C60.2618 39.83 60.4018 39.97 60.4418 40.13C60.4818 40.27 60.4718 40.55 60.4118 40.97C60.3118 41.79 60.2218 43.71 60.1418 46.73C60.0818 49.09 60.0118 50.49 59.9318 50.93C59.8718 51.37 59.7118 51.65 59.4518 51.77C59.0718 51.95 58.8218 51.98 58.7018 51.86C58.5818 51.72 58.5418 50.66 58.5818 48.68C58.6218 46.92 58.5518 45.92 58.3718 45.68C58.2118 45.42 57.6218 45.44 56.6018 45.74L55.2818 46.1L55.3718 48.47C55.4118 49.51 55.4118 50.19 55.3718 50.51C55.3318 50.81 55.2218 51.01 55.0418 51.11C54.7618 51.29 54.4918 51.29 54.2318 51.11C54.0318 51.01 53.9118 50.68 53.8718 50.12C53.8318 49.54 53.8318 48.11 53.8718 45.83C53.9318 42.45 54.0418 40.55 54.2018 40.13ZM48.8618 39.95C49.1618 39.81 49.5918 39.76 50.1518 39.8C50.5118 39.82 50.7418 39.87 50.8418 39.95C50.9418 40.03 50.9918 40.23 50.9918 40.55V41.24L48.4718 41.51C46.7318 41.73 45.6818 41.91 45.3218 42.05C45.0218 42.17 44.8418 42.29 44.7818 42.41C44.7418 42.51 44.7518 42.71 44.8118 43.01C44.9118 43.61 44.9618 44.35 44.9618 45.23C44.9618 46.21 45.0718 46.84 45.2918 47.12C45.5318 47.38 46.0918 47.52 46.9718 47.54C47.9518 47.54 48.8218 47.48 49.5818 47.36C50.1218 47.28 50.4718 47.26 50.6318 47.3C50.8118 47.34 50.9618 47.46 51.0818 47.66C51.3218 48.12 51.3118 48.44 51.0518 48.62C50.8118 48.8 50.2218 48.93 49.2818 49.01C45.8818 49.27 44.1018 49.22 43.9418 48.86C43.8618 48.64 43.7218 47.38 43.5218 45.08C43.4018 43.56 43.3418 42.58 43.3418 42.14C43.3418 41.7 43.4218 41.41 43.5818 41.27C43.7218 41.13 44.0218 40.98 44.4818 40.82C44.9418 40.64 45.4518 40.49 46.0118 40.37C46.5718 40.25 47.0418 40.18 47.4218 40.16C48.0618 40.16 48.5418 40.09 48.8618 39.95ZM66.2946 36.44C66.3346 36.44 66.3946 36.43 66.4746 36.41C67.9146 36.27 68.7646 36.22 69.0246 36.26C69.2846 36.28 69.4746 36.42 69.5946 36.68C69.6146 36.72 69.6246 36.75 69.6246 36.77C69.7046 36.99 69.7546 37.18 69.7746 37.34C69.7946 37.48 69.6946 37.59 69.4746 37.67C69.2546 37.75 68.9646 37.81 68.6046 37.85C68.2646 37.87 67.7446 37.89 67.0446 37.91C66.3646 37.93 65.8246 37.96 65.4246 38C65.0446 38.04 64.7046 38.1 64.4046 38.18C64.1246 38.26 63.9246 38.4 63.8046 38.6C63.6846 38.78 63.5946 38.99 63.5346 39.23C63.4946 39.47 63.4746 39.81 63.4746 40.25V41.66L64.3446 41.48C67.8446 40.8 69.5946 40.88 69.5946 41.72C69.5946 42.04 69.4646 42.26 69.2046 42.38C68.9646 42.48 68.4846 42.54 67.7646 42.56C67.0046 42.56 66.1146 42.7 65.0946 42.98C64.4146 43.16 63.9946 43.31 63.8346 43.43C63.6746 43.53 63.6146 43.71 63.6546 43.97C63.6946 44.45 63.8446 44.73 64.1046 44.81C64.3646 44.87 64.9446 44.8 65.8446 44.6C68.4046 44.04 69.8346 44 70.1346 44.48C70.2946 44.72 70.2746 44.97 70.0746 45.23C69.8946 45.49 69.6246 45.62 69.2646 45.62C68.9446 45.62 68.0046 45.77 66.4446 46.07C65.0046 46.37 64.0346 46.52 63.5346 46.52C63.0346 46.52 62.7446 46.39 62.6646 46.13C62.3246 45.07 62.1046 43.48 62.0046 41.36C61.9046 39.24 61.9846 38.03 62.2446 37.73C62.8446 37.05 64.1946 36.62 66.2946 36.44ZM72.5646 37.73C72.6446 37.51 72.8246 37.39 73.1046 37.37C73.4046 37.33 73.6146 37.41 73.7346 37.61C73.8346 37.77 73.9046 39.31 73.9446 42.23V46.58L73.4046 46.7C73.0446 46.78 72.7946 46.72 72.6546 46.52C72.4946 46.28 72.3946 44.88 72.3546 42.32C72.3346 39.76 72.4046 38.23 72.5646 37.73ZM71.1846 48.41C71.6046 48.27 71.8346 48.2 71.8746 48.2C71.9146 48.2 71.9946 48.23 72.1146 48.29C72.2546 48.33 72.3946 48.4 72.5346 48.5C72.6746 48.6 72.8046 48.7 72.9246 48.8C73.0646 48.88 73.1546 48.95 73.1946 49.01C73.3146 49.21 73.3746 50.09 73.3746 51.65C73.3746 53.03 73.2646 53.85 73.0446 54.11C72.8446 54.37 72.1446 54.56 70.9446 54.68C70.6646 54.7 70.1946 54.74 69.5346 54.8C68.8946 54.88 68.4846 54.93 68.3046 54.95C68.0246 54.99 67.7946 55.01 67.6146 55.01C67.4346 55.01 67.2646 54.99 67.1046 54.95C66.9446 54.93 66.8246 54.87 66.7446 54.77C66.6646 54.67 66.5846 54.55 66.5046 54.41C66.4446 54.29 66.3946 54.09 66.3546 53.81C66.3346 53.55 66.3146 53.28 66.2946 53C66.2946 52.7 66.2946 52.32 66.2946 51.86C66.2946 50.3 66.3546 49.43 66.4746 49.25C66.5946 49.07 66.9646 48.98 67.5846 48.98C68.7446 48.98 69.9446 48.79 71.1846 48.41ZM71.8146 50.21L70.8846 50.15C70.5446 50.15 70.1846 50.18 69.8046 50.24C69.4246 50.28 69.0646 50.36 68.7246 50.48C68.4046 50.6 68.1746 50.72 68.0346 50.84C67.8146 51.02 67.7046 51.49 67.7046 52.25V53.39L69.0846 53.24C69.3246 53.2 69.6746 53.15 70.1346 53.09C70.5946 53.05 70.8846 53.02 71.0046 53C71.0846 53 71.1746 52.99 71.2746 52.97C71.3946 52.95 71.4846 52.94 71.5446 52.94C71.6246 52.94 71.6746 52.94 71.6946 52.94C71.7746 52.9 71.8146 52.43 71.8146 51.53V50.21ZM78.5112 40.1C79.5912 39.54 80.7712 39.71 82.0512 40.61C83.0912 41.31 83.8312 42.18 84.2712 43.22C84.7112 44.24 84.7912 45.28 84.5112 46.34C84.3312 47.08 84.0712 47.63 83.7312 47.99C83.4112 48.35 82.8912 48.68 82.1712 48.98C81.4712 49.28 80.8312 49.43 80.2512 49.43C79.7712 49.45 79.2512 49.36 78.6912 49.16C78.1312 48.96 77.6112 48.68 77.1312 48.32C76.6712 47.96 76.3012 47.58 76.0212 47.18C75.7412 46.74 75.5712 46.39 75.5112 46.13C75.4512 45.85 75.4412 45.4 75.4812 44.78C75.5412 43.82 75.7012 43.11 75.9612 42.65C76.2012 42.19 76.5712 41.71 77.0712 41.21C77.5712 40.71 78.0512 40.34 78.5112 40.1ZM81.3012 41.84C80.7212 41.42 80.2412 41.23 79.8612 41.27C79.4812 41.29 79.0212 41.54 78.4812 42.02C77.6812 42.78 77.2112 43.56 77.0712 44.36C76.9512 45.14 77.1812 45.88 77.7612 46.58C78.4412 47.4 79.2712 47.82 80.2512 47.84C81.2512 47.84 82.0712 47.42 82.7112 46.58C82.9112 46.34 83.0412 46.1 83.1012 45.86C83.1612 45.6 83.1712 45.22 83.1312 44.72C83.0712 44.08 82.9112 43.56 82.6512 43.16C82.3912 42.74 81.9412 42.3 81.3012 41.84ZM87.8412 40.34C87.9212 40.2 88.1512 40.15 88.5312 40.19C88.9112 40.23 89.1112 40.32 89.1312 40.46C89.1712 40.8 89.0912 43.58 88.8912 48.8L88.7112 52.55H88.0212C87.8212 52.55 87.6812 52.55 87.6012 52.55C87.5212 52.53 87.4512 52.48 87.3912 52.4C87.3312 52.3 87.2912 52.19 87.2712 52.07C87.2712 51.93 87.2612 51.7 87.2412 51.38C87.2012 50.72 87.2612 48.75 87.4212 45.47C87.6012 42.19 87.7412 40.48 87.8412 40.34ZM107.301 37.25C107.381 37.15 107.561 37.1 107.841 37.1C108.081 37.1 108.291 37.33 108.471 37.79C108.671 38.25 108.671 38.54 108.471 38.66C108.291 38.8 107.371 38.88 105.711 38.9C104.091 38.92 103.011 39.03 102.471 39.23C102.051 39.39 101.771 39.68 101.631 40.1C101.511 40.5 101.451 41.28 101.451 42.44C101.451 42.76 101.451 43.01 101.451 43.19C101.471 43.37 101.501 43.54 101.541 43.7C101.581 43.84 101.621 43.95 101.661 44.03C101.721 44.09 101.801 44.14 101.901 44.18C102.201 44.36 102.381 44.4 102.441 44.3C102.541 44.22 102.921 44.16 103.581 44.12C104.481 44.04 105.651 43.81 107.091 43.43C107.531 43.31 107.821 43.26 107.961 43.28C108.121 43.3 108.271 43.39 108.411 43.55C108.571 43.81 108.621 44.1 108.561 44.42C108.521 44.72 108.381 44.91 108.141 44.99C107.821 45.11 106.841 45.28 105.201 45.5C103.561 45.72 102.451 45.83 101.871 45.83C101.331 45.83 100.991 45.8 100.851 45.74C100.711 45.66 100.571 45.44 100.431 45.08C100.191 44.6 100.031 43.75 99.9511 42.53C99.8111 41.11 99.7211 40.24 99.6811 39.92C99.6011 39.52 99.5911 39.25 99.6511 39.11C99.7311 38.97 99.9411 38.78 100.281 38.54C101.241 37.98 103.001 37.62 105.561 37.46C106.641 37.4 107.221 37.33 107.301 37.25ZM103.791 47.93C103.991 47.47 104.281 47.24 104.661 47.24C104.941 47.24 105.101 47.35 105.141 47.57C105.201 47.77 105.251 48.31 105.291 49.19L105.351 51.14L107.751 51.08L110.181 51.02V51.59C110.181 51.99 110.031 52.26 109.731 52.4C109.451 52.52 108.771 52.62 107.691 52.7C106.711 52.76 105.221 52.91 103.221 53.15C102.161 53.27 101.461 53.33 101.121 53.33C100.781 53.33 100.571 53.26 100.491 53.12C100.251 52.72 100.281 52.39 100.581 52.13C100.901 51.87 101.421 51.74 102.141 51.74C102.921 51.74 103.371 51.64 103.491 51.44C103.611 51.26 103.641 50.75 103.581 49.91C103.561 49.09 103.631 48.43 103.791 47.93ZM115.441 35.63C115.461 35.53 115.491 35.45 115.531 35.39C115.571 35.33 115.641 35.29 115.741 35.27C115.841 35.25 115.971 35.25 116.131 35.27L116.761 35.36L116.701 37.28L116.641 39.26H117.301C117.761 39.26 118.221 39.19 118.681 39.05C118.901 38.99 119.111 38.96 119.311 38.96C119.531 38.96 119.721 38.99 119.881 39.05C120.041 39.11 120.171 39.19 120.271 39.29C120.371 39.39 120.421 39.51 120.421 39.65C120.421 39.93 120.221 40.26 119.821 40.64C119.401 41.04 119.001 41.58 118.621 42.26C118.241 42.94 118.091 43.38 118.171 43.58C118.251 43.82 118.681 44.2 119.461 44.72C120.261 45.22 120.701 45.59 120.781 45.83C120.841 46.01 120.791 46.22 120.631 46.46C120.471 46.68 120.281 46.79 120.061 46.79C119.801 46.79 119.421 46.64 118.921 46.34C118.421 46.04 117.991 45.7 117.631 45.32C117.271 44.98 117.031 44.79 116.911 44.75C116.811 44.71 116.651 44.79 116.431 44.99C116.091 45.31 115.721 45.76 115.321 46.34C115.081 46.7 114.871 46.94 114.691 47.06C114.511 47.18 114.291 47.24 114.031 47.24C113.511 47.24 113.251 47.12 113.251 46.88C113.251 46.54 113.861 45.69 115.081 44.33C117.081 42.15 117.991 40.96 117.811 40.76C117.731 40.7 117.381 40.74 116.761 40.88C115.281 41.22 114.121 41.46 113.281 41.6C112.461 41.74 112.001 41.78 111.901 41.72C111.701 41.58 111.631 41.36 111.691 41.06C111.771 40.74 111.951 40.5 112.231 40.34C112.571 40.08 113.071 39.95 113.731 39.95C114.311 39.95 114.711 39.89 114.931 39.77C115.051 39.69 115.161 39.24 115.261 38.42C115.361 37.6 115.421 36.67 115.441 35.63ZM123.961 38.42C124.161 38.18 124.411 38.14 124.711 38.3C124.931 38.42 125.061 38.57 125.101 38.75C125.141 38.93 125.121 39.28 125.041 39.8C124.981 40.4 124.891 41.03 124.771 41.69L124.591 42.38L126.001 42.26C126.841 42.18 127.421 42.21 127.741 42.35C128.061 42.47 128.221 42.73 128.221 43.13C128.221 43.37 128.171 43.53 128.071 43.61C127.971 43.69 127.751 43.73 127.411 43.73C126.851 43.73 126.211 43.83 125.491 44.03C124.791 44.23 124.431 44.4 124.411 44.54C124.411 44.62 124.401 45.2 124.381 46.28C124.341 47.08 124.231 47.63 124.051 47.93C123.871 48.21 123.581 48.27 123.181 48.11C122.921 48.01 122.801 47.51 122.821 46.61C122.821 45.57 122.961 44 123.241 41.9C123.541 39.8 123.781 38.64 123.961 38.42ZM122.341 49.19C122.901 49.03 123.241 48.96 123.361 48.98C123.481 48.98 123.641 49.09 123.841 49.31C124.081 49.53 124.201 50.2 124.201 51.32C124.241 52.46 124.311 53.37 124.411 54.05C124.511 54.51 124.541 54.81 124.501 54.95C124.461 55.11 124.311 55.28 124.051 55.46C123.771 55.64 123.581 55.72 123.481 55.7C123.401 55.7 123.281 55.6 123.121 55.4C122.901 55.12 122.791 54.7 122.791 54.14C122.791 53.64 122.751 52.94 122.671 52.04L122.491 50.84L121.621 50.96C121.121 51 120.361 51.15 119.341 51.41C118.521 51.61 117.951 51.67 117.631 51.59C117.311 51.51 117.151 51.28 117.151 50.9C117.151 50.64 117.231 50.44 117.391 50.3C117.551 50.14 117.811 50.01 118.171 49.91C118.551 49.81 119.091 49.71 119.791 49.61C120.831 49.49 121.681 49.35 122.341 49.19ZM133.039 33.32C133.159 33.14 133.369 33.08 133.669 33.14C133.889 33.16 134.029 33.24 134.089 33.38C134.169 33.52 134.219 33.83 134.239 34.31C134.299 35.07 134.369 35.75 134.449 36.35C134.509 36.85 134.569 37.14 134.629 37.22C134.709 37.3 134.899 37.3 135.199 37.22C135.739 37.08 136.079 37 136.219 36.98C136.479 36.96 136.729 36.89 136.969 36.77C137.249 36.65 137.519 36.63 137.779 36.71C138.059 36.77 138.269 36.91 138.409 37.13C138.829 37.81 138.439 38.23 137.239 38.39C136.399 38.53 135.669 38.71 135.049 38.93C134.369 39.15 133.639 39.26 132.859 39.26C132.099 39.26 131.579 39.33 131.299 39.47C130.999 39.63 130.689 39.67 130.369 39.59C130.049 39.49 129.839 39.33 129.739 39.11C129.659 38.89 129.689 38.65 129.829 38.39C129.909 38.29 130.099 38.19 130.399 38.09C130.699 37.99 131.049 37.91 131.449 37.85C131.849 37.77 132.219 37.73 132.559 37.73C132.779 37.71 132.909 37.6 132.949 37.4C132.989 37.2 132.989 36.62 132.949 35.66C132.889 34.26 132.919 33.48 133.039 33.32ZM143.869 38.36C144.089 38.04 144.319 37.92 144.559 38C144.799 38.06 144.969 38.3 145.069 38.72C145.169 39.1 145.169 40.08 145.069 41.66C144.969 43.32 144.989 44.46 145.129 45.08C145.269 45.76 145.219 46.25 144.979 46.55C144.459 47.29 144.059 47.25 143.779 46.43C143.599 45.91 143.509 45.16 143.509 44.18C143.509 43.22 143.419 42.65 143.239 42.47C143.059 42.27 142.599 42.28 141.859 42.5L140.929 42.8L141.109 43.91C141.409 45.85 141.329 46.87 140.869 46.97C140.369 47.07 140.049 46.89 139.909 46.43C139.789 45.97 139.729 44.79 139.729 42.89C139.729 40.93 139.769 39.71 139.849 39.23C139.929 38.75 140.129 38.51 140.449 38.51C140.769 38.51 141.009 38.66 141.169 38.96C141.329 39.24 141.389 39.63 141.349 40.13C141.329 40.55 141.349 40.8 141.409 40.88C141.469 40.96 141.689 40.99 142.069 40.97C142.689 40.95 143.079 40.87 143.239 40.73C143.419 40.59 143.509 40.28 143.509 39.8C143.509 39.2 143.629 38.72 143.869 38.36ZM132.829 40.97C133.269 40.69 133.649 40.53 133.969 40.49C134.309 40.45 134.869 40.52 135.649 40.7C136.349 40.84 136.839 41.03 137.119 41.27C137.399 41.49 137.639 41.9 137.839 42.5C138.179 43.54 138.159 44.52 137.779 45.44C137.419 46.36 136.789 47.04 135.889 47.48C135.009 47.82 134.179 47.93 133.399 47.81C132.619 47.67 131.949 47.29 131.389 46.67C130.829 46.05 130.549 45.33 130.549 44.51C130.549 43.95 130.769 43.33 131.209 42.65C131.649 41.97 132.189 41.41 132.829 40.97ZM136.279 42.5C135.979 42.18 135.669 42 135.349 41.96C135.029 41.92 134.579 42 133.999 42.2C133.379 42.42 132.959 42.64 132.739 42.86C132.519 43.06 132.349 43.41 132.229 43.91C132.069 44.51 132.109 45.02 132.349 45.44C132.589 45.86 133.009 46.15 133.609 46.31C134.149 46.45 134.599 46.44 134.959 46.28C135.319 46.12 135.719 45.75 136.159 45.17C136.479 44.73 136.649 44.27 136.669 43.79C136.689 43.29 136.559 42.86 136.279 42.5ZM143.179 49.04C143.399 48.82 143.579 48.71 143.719 48.71C143.859 48.71 144.029 48.82 144.229 49.04C144.429 49.3 144.469 49.63 144.349 50.03C144.269 50.31 144.309 50.57 144.469 50.81C144.649 51.05 145.129 51.52 145.909 52.22C147.029 53.28 147.539 53.9 147.439 54.08C147.079 54.64 146.229 54.33 144.889 53.15C144.649 52.93 144.419 52.74 144.199 52.58C143.979 52.4 143.799 52.27 143.659 52.19C143.539 52.11 143.469 52.09 143.449 52.13C143.369 52.35 143.239 52.85 143.059 53.63C142.859 54.49 142.669 54.98 142.489 55.1C142.029 55.42 141.649 55.28 141.349 54.68C141.189 54.3 140.619 53.86 139.639 53.36C138.819 52.98 138.289 52.84 138.049 52.94C137.829 53.02 137.589 53.49 137.329 54.35C136.949 55.47 136.449 55.9 135.829 55.64C135.549 55.54 135.469 55.24 135.589 54.74C135.729 54.24 136.139 53.28 136.819 51.86C137.239 51.04 137.589 50.43 137.869 50.03C138.149 49.61 138.419 49.35 138.679 49.25C138.939 49.13 139.179 49.18 139.399 49.4C139.619 49.58 139.719 49.77 139.699 49.97C139.679 50.15 139.519 50.4 139.219 50.72C138.979 51 138.849 51.18 138.829 51.26C138.829 51.32 138.939 51.44 139.159 51.62C139.359 51.76 139.819 52.01 140.539 52.37C141.259 52.73 141.669 52.91 141.769 52.91C141.849 52.91 141.889 52.75 141.889 52.43C141.889 52.23 141.969 51.88 142.129 51.38C142.289 50.88 142.469 50.4 142.669 49.94C142.889 49.48 143.059 49.18 143.179 49.04ZM152.828 39.8C153.128 39.7 153.388 39.67 153.608 39.71C153.848 39.75 154.218 39.88 154.718 40.1C155.478 40.46 156.068 40.84 156.488 41.24C156.928 41.64 157.228 42.13 157.388 42.71C157.568 43.29 157.658 44.06 157.658 45.02C157.658 46.26 157.288 47.3 156.548 48.14C155.808 48.96 154.888 49.38 153.788 49.4C153.068 49.4 152.268 49.18 151.388 48.74C150.528 48.28 149.918 47.76 149.558 47.18C149.158 46.56 148.948 45.88 148.928 45.14C148.908 44.38 149.048 43.65 149.348 42.95C149.648 42.25 150.108 41.62 150.728 41.06C151.348 40.48 152.048 40.06 152.828 39.8ZM155.258 42.05C154.798 41.69 154.338 41.47 153.878 41.39C153.418 41.29 153.028 41.34 152.708 41.54C151.748 42.14 151.078 42.85 150.698 43.67C150.338 44.49 150.348 45.23 150.728 45.89C151.148 46.57 151.758 47.1 152.558 47.48C153.358 47.86 154.008 47.92 154.508 47.66C154.848 47.46 155.148 47.24 155.408 47C155.688 46.76 155.898 46.5 156.038 46.22C156.178 45.94 156.248 45.67 156.248 45.41C156.248 44.61 156.148 43.9 155.948 43.28C155.768 42.66 155.538 42.25 155.258 42.05ZM162.008 41.27C162.108 40.87 162.348 40.67 162.728 40.67C163.128 40.67 163.378 40.77 163.478 40.97C163.618 41.23 163.628 42.44 163.508 44.6C163.408 46.7 163.338 48.48 163.298 49.94C163.278 50.84 163.238 51.42 163.178 51.68C163.118 51.94 162.998 52.12 162.818 52.22C162.498 52.4 162.218 52.44 161.978 52.34C161.818 52.28 161.728 52.06 161.708 51.68C161.688 51.28 161.708 50.4 161.768 49.04C161.848 47.48 161.878 46.56 161.858 46.28C161.838 45.98 161.708 45.83 161.468 45.83C161.168 45.83 160.788 45.92 160.328 46.1C159.868 46.28 159.388 46.32 158.888 46.22C158.388 46.1 158.138 45.9 158.138 45.62C158.138 45.42 158.228 45.24 158.408 45.08C158.588 44.9 158.848 44.75 159.188 44.63C159.548 44.51 159.968 44.42 160.448 44.36C161.248 44.28 161.738 44.19 161.918 44.09C162.078 43.99 162.098 43.59 161.978 42.89C161.898 42.17 161.908 41.63 162.008 41.27ZM168.01 36.35C168.73 36.09 169.42 36.01 170.08 36.11C170.76 36.19 171.39 36.46 171.97 36.92C172.57 37.38 173.06 38 173.44 38.78C173.82 39.52 174 40.21 173.98 40.85C173.98 41.49 173.78 42.2 173.38 42.98C173.06 43.62 172.68 44.1 172.24 44.42C171.8 44.72 171.24 44.92 170.56 45.02C169.42 45.18 168.34 44.96 167.32 44.36C166.3 43.76 165.65 42.99 165.37 42.05C164.97 40.77 165.01 39.63 165.49 38.63C165.97 37.63 166.81 36.87 168.01 36.35ZM170.44 37.58C170.24 37.58 170.02 37.54 169.78 37.46C169.42 37.34 168.85 37.56 168.07 38.12C167.29 38.68 166.82 39.22 166.66 39.74C166.6 39.94 166.59 40.18 166.63 40.46C166.67 40.72 166.74 40.99 166.84 41.27C166.94 41.53 167.07 41.79 167.23 42.05C167.41 42.31 167.6 42.53 167.8 42.71C168.56 43.39 169.33 43.7 170.11 43.64C170.89 43.58 171.51 43.17 171.97 42.41C172.71 41.21 172.59 39.96 171.61 38.66C171.03 37.94 170.64 37.58 170.44 37.58ZM171.7 46.91C171.86 46.53 172.06 46.34 172.3 46.34C172.56 46.32 172.78 46.51 172.96 46.91C173.12 47.29 173.1 47.95 172.9 48.89C172.7 49.79 172.66 50.34 172.78 50.54C172.88 50.72 173.48 50.81 174.58 50.81C175.34 50.81 175.81 50.84 175.99 50.9C176.19 50.94 176.34 51.08 176.44 51.32C176.58 51.74 176.53 52.03 176.29 52.19C176.07 52.35 175.57 52.42 174.79 52.4C174.17 52.38 173.4 52.42 172.48 52.52C171.58 52.6 170.94 52.69 170.56 52.79C170.38 52.85 169.92 52.94 169.18 53.06C168.46 53.2 167.75 53.33 167.05 53.45C166.35 53.57 165.93 53.63 165.79 53.63C165.55 53.63 165.37 53.47 165.25 53.15C165.13 52.83 165.16 52.56 165.34 52.34C165.5 52.14 165.89 51.99 166.51 51.89L167.38 51.77V49.85C167.4 48.79 167.48 48.12 167.62 47.84C167.76 47.54 168.06 47.45 168.52 47.57C168.8 47.65 168.96 47.78 169 47.96C169.06 48.12 169.08 48.62 169.06 49.46L169 51.14L170.17 51.23C170.91 51.27 171.28 51.23 171.28 51.11C171.28 50.57 171.3 50 171.34 49.4C171.4 48.8 171.46 48.28 171.52 47.84C171.6 47.4 171.66 47.09 171.7 46.91ZM180.24 37.94C180.34 37.84 180.49 37.8 180.69 37.82C180.89 37.84 181.06 37.92 181.2 38.06C181.3 38.16 181.36 38.29 181.38 38.45C181.4 38.59 181.4 38.93 181.38 39.47C181.34 40.23 181.25 41.07 181.11 41.99C180.97 42.91 180.84 43.48 180.72 43.7C180.62 43.9 180.58 44.22 180.6 44.66C180.64 45.08 180.73 45.49 180.87 45.89C181.01 46.31 181.06 46.64 181.02 46.88C180.98 47.12 180.84 47.36 180.6 47.6C180.38 47.82 180.16 47.94 179.94 47.96C179.74 47.96 179.58 47.87 179.46 47.69C179.34 47.51 179.27 46.75 179.25 45.41C179.23 44.05 179.28 43.23 179.4 42.95C179.48 42.75 179.56 42.38 179.64 41.84C179.76 41.08 179.84 40.57 179.88 40.31C179.96 39.71 180.02 39.22 180.06 38.84C180.1 38.36 180.16 38.06 180.24 37.94ZM178.65 51.98C178.89 51.84 179.18 51.86 179.52 52.04C179.9 52.24 180.09 52.59 180.09 53.09C180.09 53.57 179.9 53.9 179.52 54.08C179.16 54.28 178.78 54.25 178.38 53.99C178.12 53.85 177.99 53.64 177.99 53.36C177.99 53.16 178.06 52.9 178.2 52.58C178.36 52.26 178.51 52.06 178.65 51.98Z" fill="#1A1A1A"/>
</svg>
