<svg width="283" height="113" viewBox="0 0 283 113" fill="none" xmlns="http://www.w3.org/2000/svg">
<path d="M59.446 13.392C60.0647 12.56 60.6407 11.9627 61.174 11.6C61.7073 11.2373 62.5073 11.056 63.574 11.056C64.342 11.056 64.854 11.1093 65.11 11.216C65.3873 11.3227 65.8567 11.6853 66.518 12.304C67.3287 13.0507 67.862 13.7013 68.118 14.256C68.3953 14.7893 68.47 15.4187 68.342 16.144C68.15 17.488 67.4673 18.5973 66.294 19.472C65.3127 20.24 64.15 20.4533 62.806 20.112C61.462 19.7707 60.2887 18.9813 59.286 17.744C58.2407 16.4427 58.294 14.992 59.446 13.392ZM65.782 13.488C65.1207 12.8267 64.4593 12.5173 63.798 12.56C63.1367 12.6027 62.294 13.0187 61.27 13.808C60.8647 14.1067 60.5873 14.5333 60.438 15.088C60.2887 15.6427 60.3207 16.1227 60.534 16.528C61.0673 17.552 61.846 18.2027 62.87 18.48C63.9153 18.736 64.822 18.5333 65.59 17.872C66.422 17.1467 66.8487 16.432 66.87 15.728C66.9127 15.024 66.55 14.2773 65.782 13.488ZM67.67 21.968C67.8407 21.8187 68.1927 21.7973 68.726 21.904C69.2593 21.9893 69.622 22.1387 69.814 22.352C69.9847 22.544 70.0807 22.704 70.102 22.832C70.1447 22.96 70.0913 23.1413 69.942 23.376C69.814 23.632 69.654 23.7813 69.462 23.824C69.27 23.8667 68.822 23.8453 68.118 23.76C67.0513 23.6747 65.5687 23.7173 63.67 23.888C63.5207 23.9093 63.2967 23.9307 62.998 23.952C61.142 24.1227 60.054 24.1973 59.734 24.176C59.414 24.1547 59.254 23.9947 59.254 23.696C59.254 23.6533 59.254 23.6213 59.254 23.6C59.254 23.1733 59.606 22.864 60.31 22.672C61.014 22.48 62.3473 22.3413 64.31 22.256C66.486 22.128 67.606 22.032 67.67 21.968ZM63.286 25.712C63.9047 25.392 64.4593 25.2107 64.95 25.168C65.462 25.1253 66.006 25.232 66.582 25.488C68.9287 26.4907 69.718 28.0053 68.95 30.032C68.694 30.6933 68.1713 31.3013 67.382 31.856C66.5927 32.4107 65.8567 32.688 65.174 32.688C64.4487 32.688 63.766 32.5387 63.126 32.24C62.486 31.9413 61.974 31.5467 61.59 31.056C61.2273 30.5867 60.9713 30.064 60.822 29.488C60.694 28.912 60.7793 28.3573 61.078 27.824C61.3127 27.3333 61.5793 26.9493 61.878 26.672C62.1767 26.3947 62.646 26.0747 63.286 25.712ZM67.158 27.696C66.3047 26.9067 65.43 26.672 64.534 26.992C63.3393 27.44 62.6673 27.952 62.518 28.528C62.3473 29.2107 62.5073 29.7867 62.998 30.256C63.4887 30.7253 64.1287 30.9387 64.918 30.896C65.7073 30.8747 66.39 30.576 66.966 30C67.8407 29.1893 67.9047 28.4213 67.158 27.696ZM77.4655 12.592C78.6388 12.4213 79.3748 12.3467 79.6735 12.368C79.9935 12.368 80.2388 12.4747 80.4095 12.688C80.5802 12.9227 80.6442 13.1893 80.6015 13.488C80.5588 13.6587 80.3882 13.7867 80.0895 13.872C79.7908 13.936 79.1722 14 78.2335 14.064C76.2708 14.2133 74.9695 14.4693 74.3295 14.832C73.6895 15.1733 73.4548 15.728 73.6255 16.496C73.7748 17.136 73.8495 17.8187 73.8495 18.544V19.632L75.5775 19.472C76.6655 19.3653 77.5828 19.2693 78.3295 19.184C78.7562 19.1413 79.0548 19.1413 79.2255 19.184C79.3962 19.2267 79.5242 19.3547 79.6095 19.568C79.7588 19.8027 79.8015 20.08 79.7375 20.4C79.6948 20.6987 79.5882 20.8587 79.4175 20.88C77.8388 21.1147 76.1962 21.232 74.4895 21.232H72.4735L72.3455 19.344C72.2388 18.0853 72.0895 17.0613 71.8975 16.272C71.6202 15.0773 71.7268 14.3093 72.2175 13.968C72.4735 13.7973 73.2202 13.552 74.4575 13.232C75.6948 12.8907 76.6975 12.6773 77.4655 12.592ZM84.0895 12.464C84.1748 12.3147 84.3775 12.2613 84.6975 12.304C85.0175 12.3467 85.2522 12.464 85.4015 12.656C85.6148 12.8693 85.6575 13.7227 85.5295 15.216L85.3375 17.392L87.3535 17.296L89.3375 17.2V17.968C89.3375 18.3307 89.2735 18.5547 89.1455 18.64C89.0175 18.7253 88.6228 18.8107 87.9615 18.896C87.1508 19.0027 86.4362 19.12 85.8175 19.248C85.4548 19.376 85.2415 19.504 85.1775 19.632C85.1135 19.76 85.1028 20.1013 85.1455 20.656C85.2522 21.7653 85.2842 22.48 85.2415 22.8C85.2202 23.0987 85.0922 23.2693 84.8575 23.312C84.5588 23.376 84.2708 23.3013 83.9935 23.088C83.8442 22.9387 83.7482 22.5653 83.7055 21.968C83.6842 21.3493 83.7162 19.9307 83.8015 17.712C83.9295 14.3627 84.0255 12.6133 84.0895 12.464ZM83.8335 25.008C83.9188 24.7733 84.1108 24.656 84.4095 24.656C84.7082 24.6347 84.9535 24.7413 85.1455 24.976C85.3588 25.2533 85.3802 25.7013 85.2095 26.32C85.0175 26.96 84.9215 28.0053 84.9215 29.456C84.9215 30.416 84.8895 31.056 84.8255 31.376C84.7615 31.7173 84.6015 32.0267 84.3455 32.304C84.1322 32.5813 83.8868 32.7627 83.6095 32.848C83.3535 32.9547 82.9162 33.0293 82.2975 33.072C81.2095 33.136 80.2708 33.2107 79.4815 33.296C78.9482 33.36 78.5642 33.3707 78.3295 33.328C78.0948 33.2853 77.8708 33.1573 77.6575 32.944C76.9962 32.2827 76.7828 30.5547 77.0175 27.76C77.1028 26.672 77.2308 25.9467 77.4015 25.584C77.5935 25.2213 77.9028 25.0827 78.3295 25.168C78.5002 25.2107 78.6068 25.328 78.6495 25.52C78.7135 25.6907 78.7242 26.0533 78.6815 26.608C78.6815 26.6507 78.6815 26.7253 78.6815 26.832C78.6388 27.408 78.7028 27.7387 78.8735 27.824C79.0655 27.888 79.7162 27.8453 80.8255 27.696C81.0388 27.6533 81.2095 27.632 81.3375 27.632C82.3828 27.4613 83.0335 27.3013 83.2895 27.152C83.5455 26.9813 83.6735 26.6293 83.6735 26.096C83.6735 25.6907 83.7268 25.328 83.8335 25.008ZM82.7775 29.36C82.2015 29.168 81.7002 29.136 81.2735 29.264C81.1882 29.3067 80.7082 29.392 79.8335 29.52C79.2362 29.6053 78.8842 29.6907 78.7775 29.776C78.6922 29.8613 78.6602 30.096 78.6815 30.48C78.7242 30.8853 78.8095 31.1307 78.9375 31.216C79.0655 31.3013 79.4495 31.376 80.0895 31.44C81.9242 31.632 82.9588 31.2587 83.1935 30.32C83.2788 30.0213 83.2895 29.8187 83.2255 29.712C83.1828 29.6053 83.0335 29.488 82.7775 29.36ZM112.551 15.824C112.7 15.5467 112.828 15.3973 112.935 15.376C113.063 15.3333 113.255 15.3973 113.511 15.568C113.788 15.7173 113.905 17.9893 113.863 22.384C113.841 26.7573 113.703 29.0827 113.447 29.36C113.191 29.5947 112.945 29.6693 112.711 29.584C112.519 29.4987 112.401 29.0827 112.359 28.336C112.316 27.568 112.295 25.744 112.295 22.864C112.295 18.4907 112.38 16.144 112.551 15.824ZM105.319 16.208C106.065 15.696 106.492 15.6427 106.599 16.048C106.727 16.4107 106.492 16.944 105.895 17.648C105.276 18.3733 104.967 18.8533 104.967 19.088C104.967 19.344 105.66 20.1547 107.047 21.52C108.561 23.056 109.169 23.9947 108.871 24.336C108.764 24.4427 108.572 24.5173 108.295 24.56C108.06 24.6027 107.783 24.5173 107.463 24.304C107.164 24.0907 106.727 23.664 106.151 23.024C105.084 21.9147 104.412 21.36 104.135 21.36C103.9 21.36 103.527 21.8613 103.015 22.864C102.503 23.8453 102.247 24.5707 102.247 25.04C102.247 25.4453 102.065 25.7013 101.703 25.808C101.34 25.9147 101.041 25.808 100.807 25.488C100.529 25.1253 100.444 24.7307 100.551 24.304C100.679 23.856 101.084 22.9813 101.767 21.68C103.388 18.5653 104.572 16.7413 105.319 16.208ZM130.208 12.24C130.314 12.0907 130.517 12.0373 130.816 12.08C131.114 12.1013 131.338 12.1973 131.488 12.368C131.637 12.5387 131.658 13.3493 131.552 14.8C131.466 16.2293 131.338 17.1787 131.168 17.648C131.125 17.7547 131.146 17.872 131.232 18C131.338 18.128 131.456 18.2133 131.583 18.256C131.733 18.2987 131.872 18.288 132 18.224C132.17 18.16 132.533 18.0853 133.088 18C133.77 17.8933 134.165 17.8293 134.272 17.808C134.378 17.7867 134.634 17.7867 135.04 17.808C135.274 17.8293 135.424 17.8827 135.488 17.968C135.552 18.0533 135.562 18.2347 135.52 18.512C135.498 18.832 135.402 19.0453 135.232 19.152C135.061 19.2587 134.624 19.376 133.92 19.504C133.749 19.5467 133.546 19.6 133.312 19.664C133.098 19.7067 132.906 19.7493 132.736 19.792C132.586 19.8133 132.448 19.8453 132.319 19.888C132.192 19.9093 132.106 19.92 132.064 19.92C131.829 20.0267 131.605 20.08 131.392 20.08C131.157 20.1013 131.04 20.7733 131.04 22.096C131.04 23.0987 130.954 23.8133 130.784 24.24C130.634 24.6667 130.346 24.88 129.92 24.88C129.749 24.88 129.557 24.7307 129.344 24.432C129.13 24.1333 129.077 23.9413 129.184 23.856C129.269 23.728 129.386 22.2667 129.536 19.472C129.813 14.928 130.037 12.5173 130.208 12.24ZM120.224 13.584C121.632 13.4347 122.485 13.36 122.784 13.36C123.082 13.36 123.317 13.456 123.488 13.648C123.68 13.8827 123.701 14.5867 123.552 15.76C123.338 16.9547 123.146 18.2667 122.976 19.696C122.762 21.4027 122.581 22.3307 122.432 22.48C122.325 22.5653 122.133 22.608 121.856 22.608C121.408 22.608 121.141 22.4373 121.056 22.096C120.992 21.7333 121.056 20.9547 121.248 19.76C121.482 18.288 121.621 17.168 121.664 16.4L121.792 15.024L120.576 15.216C119.808 15.3013 118.826 15.4827 117.632 15.76C116.202 16.1227 115.488 16.08 115.488 15.632C115.509 15.44 115.584 15.2267 115.712 14.992C115.882 14.608 116.288 14.32 116.928 14.128C117.589 13.936 118.688 13.7547 120.224 13.584ZM122.304 26.192C122.474 26 122.602 25.904 122.688 25.904C122.773 25.904 122.954 25.9893 123.232 26.16C123.466 26.2667 123.594 26.448 123.616 26.704C123.658 26.96 123.648 27.568 123.584 28.528L123.456 30.672H124.544C125.248 30.672 126.688 30.48 128.864 30.096C130.997 29.7547 132.106 29.6267 132.192 29.712C132.277 29.7973 132.33 30.0213 132.352 30.384C132.373 30.64 132.341 30.8213 132.256 30.928C132.192 31.056 132.042 31.152 131.808 31.216C130.101 31.7067 128.181 32.0587 126.048 32.272C123.936 32.5067 122.709 32.4747 122.368 32.176C122.133 31.984 121.994 31.0027 121.952 29.232C121.93 27.44 122.048 26.4267 122.304 26.192ZM140.408 16.24C141.56 15.6427 142.818 15.824 144.184 16.784C145.293 17.5307 146.082 18.4587 146.552 19.568C147.021 20.656 147.106 21.7653 146.808 22.896C146.616 23.6853 146.338 24.272 145.976 24.656C145.634 25.04 145.08 25.392 144.312 25.712C143.565 26.032 142.882 26.192 142.264 26.192C141.752 26.2133 141.197 26.1173 140.6 25.904C140.002 25.6907 139.448 25.392 138.936 25.008C138.445 24.624 138.05 24.2187 137.752 23.792C137.453 23.3227 137.272 22.9493 137.208 22.672C137.144 22.3733 137.133 21.8933 137.176 21.232C137.24 20.208 137.41 19.4507 137.688 18.96C137.944 18.4693 138.338 17.9573 138.872 17.424C139.405 16.8907 139.917 16.496 140.408 16.24ZM143.384 18.096C142.765 17.648 142.253 17.4453 141.848 17.488C141.442 17.5093 140.952 17.776 140.376 18.288C139.522 19.0987 139.021 19.9307 138.872 20.784C138.744 21.616 138.989 22.4053 139.608 23.152C140.333 24.0267 141.218 24.4747 142.264 24.496C143.33 24.496 144.205 24.048 144.888 23.152C145.101 22.896 145.24 22.64 145.304 22.384C145.368 22.1067 145.378 21.7013 145.336 21.168C145.272 20.4853 145.101 19.9307 144.824 19.504C144.546 19.056 144.066 18.5867 143.384 18.096ZM150.36 16.496C150.445 16.3467 150.69 16.2933 151.096 16.336C151.501 16.3787 151.714 16.4747 151.736 16.624C151.778 16.9867 151.693 19.952 151.48 25.52L151.288 29.52H150.552C150.338 29.52 150.189 29.52 150.104 29.52C150.018 29.4987 149.944 29.4453 149.88 29.36C149.816 29.2533 149.773 29.136 149.752 29.008C149.752 28.8587 149.741 28.6133 149.72 28.272C149.677 27.568 149.741 25.4667 149.912 21.968C150.104 18.4693 150.253 16.6453 150.36 16.496ZM170.541 16.208C171.373 15.9947 171.885 15.9307 172.077 16.016C172.376 16.1867 172.344 16.7307 171.981 17.648C171.618 18.5653 171.064 19.5253 170.317 20.528L169.677 21.36L170.541 22.256C171.16 22.832 171.672 23.1947 172.077 23.344C172.226 23.408 172.408 23.5573 172.621 23.792C172.834 24.0053 172.994 24.24 173.101 24.496C173.357 24.9227 173.485 25.2 173.485 25.328C173.485 25.456 173.378 25.6053 173.165 25.776C172.824 26.0107 172.482 26.0427 172.141 25.872C171.8 25.7013 171.17 25.168 170.253 24.272L168.685 22.736L168.045 23.504C167.661 23.9733 167.298 24.5707 166.957 25.296C166.872 25.5093 166.765 25.7013 166.637 25.872C166.509 26.0427 166.381 26.192 166.253 26.32C166.146 26.4267 166.05 26.4907 165.965 26.512C165.666 26.5973 165.378 26.5653 165.101 26.416C164.824 26.2453 164.685 26.0427 164.685 25.808C164.685 25.6587 165.346 24.6667 166.669 22.832C168.013 20.976 168.781 19.9733 168.973 19.824C169.122 19.7387 169.314 19.4507 169.549 18.96C169.784 18.4693 169.88 18.1707 169.837 18.064C169.773 17.9573 169.186 18.0107 168.077 18.224C166.989 18.416 166.178 18.608 165.645 18.8C165.133 18.992 164.546 19.088 163.885 19.088C163.501 19.088 163.245 19.056 163.117 18.992C162.989 18.928 162.925 18.7893 162.925 18.576C162.925 18.256 163.117 17.9787 163.501 17.744C163.778 17.552 164.76 17.264 166.445 16.88C168.13 16.4747 169.026 16.3147 169.133 16.4C169.197 16.4853 169.666 16.4213 170.541 16.208ZM176.877 16.144C177.005 15.9093 177.282 15.824 177.709 15.888C177.901 15.9093 178.029 15.9307 178.093 15.952C178.178 15.9733 178.242 16.0373 178.285 16.144C178.349 16.2293 178.37 16.3573 178.349 16.528C178.349 16.6773 178.349 16.9013 178.349 17.2C178.328 17.6267 178.285 19.8027 178.221 23.728C178.221 23.728 178.221 23.7387 178.221 23.76C178.178 26.3413 178.125 27.8667 178.061 28.336C178.018 28.8053 177.858 29.0933 177.581 29.2C177.325 29.2853 177.122 29.2853 176.973 29.2C176.845 29.0933 176.738 28.816 176.653 28.368C176.568 27.8987 176.525 27.184 176.525 26.224C176.546 25.264 176.557 23.984 176.557 22.384C176.621 18.416 176.728 16.336 176.877 16.144ZM192.564 14.896C192.65 14.6613 192.81 14.5547 193.044 14.576C193.3 14.576 193.546 14.6933 193.78 14.928C193.908 15.0773 193.983 15.376 194.004 15.824C194.047 16.2507 194.047 17.0507 194.004 18.224L193.876 21.136L194.708 21.008C197.226 20.624 198.634 20.6133 198.932 20.976C199.21 21.3173 199.274 21.616 199.124 21.872C198.996 22.128 198.698 22.2773 198.228 22.32C197.674 22.3413 196.81 22.448 195.636 22.64L194.004 22.928L193.812 25.936C193.727 27.3653 193.642 28.2293 193.556 28.528C193.492 28.8053 193.311 28.976 193.012 29.04C192.18 29.2747 191.85 28.8053 192.02 27.632C192.084 26.992 192.18 24.7733 192.308 20.976C192.415 17.1147 192.5 15.088 192.564 14.896ZM180.116 15.696C180.308 15.4613 180.468 15.344 180.596 15.344C180.746 15.344 180.916 15.4613 181.108 15.696C181.3 15.952 181.418 17.2107 181.46 19.472C181.503 21.7547 181.62 22.9813 181.812 23.152C181.94 23.28 183.082 23.3973 185.236 23.504C187.37 23.5893 188.522 23.6747 188.692 23.76C188.842 23.8667 188.906 24.08 188.884 24.4C188.884 24.72 188.788 24.9333 188.596 25.04C188.404 25.1467 186.996 25.1787 184.372 25.136C181.77 25.0933 180.415 25.008 180.308 24.88C180.138 24.7307 180.02 23.2053 179.956 20.304C179.914 17.4027 179.967 15.8667 180.116 15.696ZM204.128 17.264C204.875 16.1333 205.419 15.568 205.76 15.568C206.528 15.568 206.549 16.1973 205.824 17.456L205.664 17.776C205.045 18.7787 204.736 19.3973 204.736 19.632C204.736 19.8667 205.376 20.688 206.656 22.096C208.235 23.8453 208.768 24.88 208.256 25.2C208.149 25.2427 208 25.296 207.808 25.36C207.616 25.3813 207.371 25.264 207.072 25.008C206.773 24.752 206.325 24.2507 205.728 23.504C204.683 22.2453 204.075 21.616 203.904 21.616C203.776 21.616 203.616 21.808 203.424 22.192C203.232 22.5547 203.061 22.992 202.912 23.504C202.784 24.016 202.72 24.4427 202.72 24.784C202.72 25.0827 202.709 25.296 202.688 25.424C202.688 25.552 202.656 25.6587 202.592 25.744C202.549 25.8293 202.485 25.8827 202.4 25.904C202.315 25.904 202.165 25.904 201.952 25.904C201.461 25.904 201.12 25.6907 200.928 25.264C200.779 24.9867 200.768 24.6453 200.896 24.24C201.024 23.8347 201.547 22.544 202.464 20.368C202.848 19.4507 203.403 18.416 204.128 17.264ZM212.96 16.016C213.045 15.888 213.248 15.824 213.568 15.824C213.76 15.824 213.931 15.92 214.08 16.112C214.229 16.304 214.336 16.56 214.4 16.88C214.485 17.2 214.517 17.5413 214.496 17.904C214.453 18.5013 214.507 20.4213 214.656 23.664L214.848 28.624L214.144 28.784C213.717 28.912 213.419 28.8587 213.248 28.624C213.12 28.4107 213.035 27.376 212.992 25.52C212.971 23.7067 212.939 22.5547 212.896 22.064C212.853 21.5733 212.779 21.2853 212.672 21.2C212.565 21.0933 211.989 21.1787 210.944 21.456C208.277 22.1387 207.061 21.8933 207.296 20.72C207.339 20.464 207.573 20.2613 208 20.112C208.448 19.9627 209.291 19.8347 210.528 19.728C211.787 19.6 212.469 19.504 212.576 19.44C212.704 19.3333 212.768 18.768 212.768 17.744C212.768 16.6773 212.832 16.1013 212.96 16.016ZM81.5284 53.016C81.7204 52.5253 82.179 52.4613 82.9044 52.824C83.075 52.9307 83.171 53.0587 83.1924 53.208C83.235 53.3573 83.2137 53.624 83.1284 54.008C83.0004 54.6907 82.8937 55.4373 82.8084 56.248L82.6804 57.592L83.8324 57.432C85.3897 57.24 86.1684 56.984 86.1684 56.664C86.2537 55 86.371 53.912 86.5204 53.4C86.691 52.8667 86.9897 52.6533 87.4164 52.76C87.7577 52.8453 87.9604 53.0587 88.0244 53.4C88.1097 53.72 88.0884 54.2533 87.9604 55C87.7897 55.8747 87.6404 57.816 87.5124 60.824C87.4484 62.8933 87.3737 64.1947 87.2884 64.728C87.2244 65.24 87.0857 65.56 86.8724 65.688C86.5524 65.8587 86.2644 65.8907 86.0084 65.784C85.8377 65.72 85.731 65.4853 85.6884 65.08C85.667 64.6533 85.667 63.7253 85.6884 62.296L85.7844 59L84.9844 59.032C84.4724 59.032 83.9284 59.1493 83.3524 59.384L82.5844 59.704L82.6804 62.264C82.7444 63.1387 82.755 63.8107 82.7124 64.28C82.6697 64.728 82.5844 65.0267 82.4564 65.176C82.3497 65.3253 82.1577 65.4 81.8804 65.4C81.3897 65.4 81.1017 65.08 81.0164 64.44C80.9524 63.8 80.9737 62.008 81.0804 59.064C81.2724 55.2667 81.4217 53.2507 81.5284 53.016ZM75.6084 53.24C76.7177 53.0693 77.3684 53.208 77.5604 53.656C77.7524 54.0827 77.795 55.512 77.6884 57.944C77.603 59.9067 77.5284 61.0693 77.4644 61.432C77.4004 61.7947 77.2084 62.0507 76.8884 62.2C76.4617 62.456 75.2564 62.5947 73.2724 62.616L70.3604 62.68L70.1044 61.688C69.9977 61.2827 69.9124 60.408 69.8484 59.064C69.7844 57.72 69.7737 56.5893 69.8164 55.672C69.859 54.6267 71.7897 53.816 75.6084 53.24ZM76.2804 55.096H75.3844C74.8297 55.096 74.019 55.2453 72.9524 55.544L71.4484 55.96L71.3844 57.88C71.3204 59.032 71.3417 59.8427 71.4484 60.312C71.5337 60.6107 71.6724 60.7813 71.8644 60.824C72.0564 60.8667 72.6644 60.856 73.6884 60.792L75.7364 60.696L75.8964 59.832C76.003 59.256 76.0884 58.328 76.1524 57.048L76.2804 55.096ZM93.8826 47.992C93.9253 47.864 94.1173 47.8 94.4586 47.8C94.736 47.8 94.9173 48.0027 95.0026 48.408C95.1093 48.792 95.088 49.336 94.9386 50.04C94.8533 50.488 94.7893 50.7867 94.7466 50.936C94.7253 51.0853 94.7146 51.2773 94.7146 51.512C94.7146 51.7253 94.7253 51.8533 94.7466 51.896C94.768 51.9173 94.864 51.9493 95.0346 51.992C95.2053 52.0347 95.3546 52.0453 95.4826 52.024C95.6106 52.0027 95.8453 51.9707 96.1866 51.928C97.4453 51.7787 98.1493 51.9173 98.2986 52.344C98.4693 52.7493 98.096 53.528 97.1786 54.68C96.5173 55.4907 96.1866 55.96 96.1866 56.088C96.1866 56.216 96.4 56.4613 96.8266 56.824C97.2533 57.1867 97.744 57.528 98.2986 57.848C98.96 58.2533 99.2906 58.6907 99.2906 59.16C99.2693 59.4587 99.0666 59.608 98.6826 59.608C98.32 59.608 97.84 59.448 97.2426 59.128C96.6666 58.7867 96.1226 58.3707 95.6106 57.88L94.9066 57.24L94.2666 57.976C93.456 58.936 92.8693 59.576 92.5066 59.896C92.1653 60.216 91.8773 60.376 91.6426 60.376C91.3013 60.376 91.088 60.248 91.0026 59.992C90.9173 59.7147 90.992 59.3947 91.2266 59.032C91.4826 58.6693 92.336 57.7307 93.7866 56.216C95.2373 54.68 95.9626 53.848 95.9626 53.72C95.9626 53.6987 95.9306 53.6773 95.8666 53.656C95.824 53.6347 95.76 53.624 95.6746 53.624C95.5893 53.624 95.4933 53.6453 95.3866 53.688C94.896 53.7947 93.9146 53.976 92.4426 54.232C90.7573 54.5093 89.8506 54.5093 89.7226 54.232C89.6586 54.0827 89.7013 53.848 89.8506 53.528C89.936 53.2933 90.096 53.1227 90.3306 53.016C90.5866 52.9093 91.0453 52.8027 91.7066 52.696C92.7946 52.5253 93.3066 52.3333 93.2426 52.12C93.2 51.9493 93.2746 51.256 93.4666 50.04C93.6586 48.824 93.7973 48.1413 93.8826 47.992ZM101.467 52.312C101.616 52.0347 101.744 51.8853 101.851 51.864C101.957 51.8427 102.171 51.9173 102.491 52.088C102.725 52.216 102.864 52.4933 102.907 52.92C102.949 53.3253 102.971 54.36 102.971 56.024C102.928 58.584 102.875 59.96 102.811 60.152C102.725 60.4507 102.491 60.6107 102.107 60.632C101.723 60.632 101.477 60.4933 101.371 60.216C101.243 59.8747 101.189 58.5413 101.211 56.216C101.253 53.8693 101.339 52.568 101.467 52.312ZM96.7626 62.552C97.3386 62.2747 98.1173 62.136 99.0986 62.136C99.5466 62.136 99.92 62.1787 100.219 62.264C100.539 62.328 100.827 62.4347 101.083 62.584C101.339 62.7333 101.563 62.936 101.755 63.192C101.947 63.4267 102.139 63.7253 102.331 64.088C102.565 64.536 102.661 65.1333 102.619 65.88C102.576 66.6053 102.395 67.352 102.075 68.12C101.904 68.568 101.488 68.9733 100.827 69.336C100.187 69.72 99.5573 69.9227 98.9386 69.944C98.4053 69.944 97.776 69.7413 97.0506 69.336C96.3253 68.9307 95.7706 68.4827 95.3866 67.992C94.7253 67.096 94.5333 66.072 94.8106 64.92C95.1093 63.768 95.76 62.9787 96.7626 62.552ZM100.315 64.024C99.8026 63.64 99.1306 63.5547 98.2986 63.768C97.4666 63.96 96.88 64.344 96.5386 64.92C96.2826 65.3893 96.1866 65.7733 96.2506 66.072C96.3146 66.3707 96.5813 66.7653 97.0506 67.256C98.16 68.4507 99.2586 68.536 100.347 67.512C100.667 67.2133 100.859 66.968 100.923 66.776C100.987 66.5627 100.987 66.1787 100.923 65.624C100.816 64.7707 100.613 64.2373 100.315 64.024ZM107.83 53.24C108.982 52.6427 110.24 52.824 111.606 53.784C112.715 54.5307 113.504 55.4587 113.974 56.568C114.443 57.656 114.528 58.7653 114.23 59.896C114.038 60.6853 113.76 61.272 113.398 61.656C113.056 62.04 112.502 62.392 111.734 62.712C110.987 63.032 110.304 63.192 109.686 63.192C109.174 63.2133 108.619 63.1173 108.022 62.904C107.424 62.6907 106.87 62.392 106.358 62.008C105.867 61.624 105.472 61.2187 105.174 60.792C104.875 60.3227 104.694 59.9493 104.63 59.672C104.566 59.3733 104.555 58.8933 104.598 58.232C104.662 57.208 104.832 56.4507 105.11 55.96C105.366 55.4693 105.76 54.9573 106.294 54.424C106.827 53.8907 107.339 53.496 107.83 53.24ZM110.806 55.096C110.187 54.648 109.675 54.4453 109.27 54.488C108.864 54.5093 108.374 54.776 107.798 55.288C106.944 56.0987 106.443 56.9307 106.294 57.784C106.166 58.616 106.411 59.4053 107.03 60.152C107.755 61.0267 108.64 61.4747 109.686 61.496C110.752 61.496 111.627 61.048 112.31 60.152C112.523 59.896 112.662 59.64 112.726 59.384C112.79 59.1067 112.8 58.7013 112.758 58.168C112.694 57.4853 112.523 56.9307 112.246 56.504C111.968 56.056 111.488 55.5867 110.806 55.096ZM117.782 53.496C117.867 53.3467 118.112 53.2933 118.518 53.336C118.923 53.3787 119.136 53.4747 119.158 53.624C119.2 53.9867 119.115 56.952 118.902 62.52L118.71 66.52H117.974C117.76 66.52 117.611 66.52 117.526 66.52C117.44 66.4987 117.366 66.4453 117.302 66.36C117.238 66.2533 117.195 66.136 117.174 66.008C117.174 65.8587 117.163 65.6133 117.142 65.272C117.099 64.568 117.163 62.4667 117.334 58.968C117.526 55.4693 117.675 53.6453 117.782 53.496ZM134.507 48.792C134.806 48.216 135.126 48.0987 135.467 48.44C135.808 48.8667 135.894 49.4853 135.723 50.296C135.574 50.872 135.499 51.448 135.499 52.024V52.824L137.227 52.696C138.4 52.5893 139.04 52.6213 139.147 52.792C139.19 52.92 139.19 53.0907 139.147 53.304C139.104 53.5173 139.008 53.7627 138.859 54.04C138.71 54.296 138.518 54.5307 138.283 54.744C137.92 55.1067 137.739 55.3627 137.739 55.512C137.739 55.64 138.176 55.9813 139.051 56.536C139.52 56.8773 139.84 57.1547 140.011 57.368C140.203 57.56 140.299 57.7733 140.299 58.008C140.299 58.4347 140.15 58.6907 139.851 58.776C139.574 58.84 139.232 58.712 138.827 58.392C138.336 58.008 137.835 57.688 137.323 57.432C136.832 57.1973 136.448 57.1653 136.171 57.336C135.894 57.5067 135.446 58.0827 134.827 59.064C134.614 59.4053 134.39 59.7147 134.155 59.992C133.92 60.248 133.75 60.376 133.643 60.376C133.302 60.376 133.014 60.312 132.779 60.184C132.566 60.0347 132.459 59.8533 132.459 59.64C132.459 59.448 132.779 58.9467 133.419 58.136C134.08 57.304 134.88 56.3867 135.819 55.384C135.947 55.2347 136.064 55.096 136.171 54.968C136.278 54.8187 136.352 54.7013 136.395 54.616C136.459 54.5307 136.48 54.4773 136.459 54.456C136.395 54.392 135.606 54.4347 134.091 54.584C132.576 54.7333 131.691 54.8613 131.435 54.968C131.2 55.0533 130.944 54.968 130.667 54.712C130.39 54.456 130.294 54.2 130.379 53.944C130.464 53.7307 130.795 53.528 131.371 53.336C131.968 53.144 132.459 53.08 132.843 53.144C133.355 53.2293 133.686 53.144 133.835 52.888C134.006 52.632 134.112 52.024 134.155 51.064C134.219 49.9333 134.336 49.176 134.507 48.792ZM143.403 54.584C143.531 54.392 143.755 54.3173 144.075 54.36C144.416 54.4027 144.651 54.5307 144.779 54.744C144.928 55.0427 144.982 56.9627 144.939 60.504C144.918 63.6827 144.854 65.4 144.747 65.656C144.662 65.7627 144.544 65.8267 144.395 65.848C144.139 65.8907 143.926 65.8587 143.755 65.752C143.606 65.624 143.488 65.336 143.403 64.888C143.318 64.4187 143.264 63.8 143.243 63.032C143.222 62.264 143.222 61.1867 143.243 59.8C143.243 56.5147 143.296 54.776 143.403 54.584ZM135.915 61.752C137.92 61.5387 139.339 61.4427 140.171 61.464C140.726 61.4853 141.067 61.528 141.195 61.592C141.344 61.656 141.44 61.8267 141.483 62.104C141.547 62.5307 141.43 62.8187 141.131 62.968C140.854 63.096 140.235 63.16 139.275 63.16H137.579L137.323 64.824C137.152 65.8693 137.067 66.7227 137.067 67.384C137.088 67.64 137.088 67.832 137.067 67.96C137.046 68.088 137.003 68.184 136.939 68.248C136.875 68.312 136.79 68.3547 136.683 68.376C136.128 68.4827 135.766 68.2053 135.595 67.544C135.446 66.904 135.499 65.944 135.755 64.664C135.883 63.896 135.926 63.4907 135.883 63.448C135.819 63.384 135.243 63.4907 134.155 63.768C133.216 64.0027 132.576 64.0987 132.235 64.056C131.894 63.992 131.723 63.7787 131.723 63.416C131.723 62.9893 132.032 62.648 132.651 62.392C133.27 62.136 134.358 61.9227 135.915 61.752ZM150.95 49.72C151.356 49.3147 151.633 49.0693 151.782 48.984C151.932 48.8987 152.092 48.92 152.262 49.048C152.518 49.2613 152.636 49.464 152.614 49.656C152.593 49.8267 152.433 50.104 152.134 50.488C151.814 50.8933 151.697 51.1707 151.782 51.32C151.868 51.4693 152.753 52.0987 154.438 53.208C155.142 53.6773 155.665 54.04 156.006 54.296C156.348 54.552 156.582 54.7653 156.71 54.936C156.86 55.1067 156.934 55.2773 156.934 55.448C156.934 56.088 156.508 56.2053 155.654 55.8C155.121 55.544 154.374 55.0853 153.414 54.424C152.71 53.976 152.081 53.6027 151.526 53.304C150.993 53.0053 150.684 52.8773 150.598 52.92C150.385 52.984 149.98 53.5387 149.382 54.584C148.806 55.6293 148.476 56.376 148.39 56.824C148.305 57.272 148.038 57.5387 147.59 57.624C147.142 57.688 146.822 57.5387 146.63 57.176C146.524 56.9413 146.492 56.7173 146.534 56.504C146.598 56.2693 146.758 55.9173 147.014 55.448C147.505 54.5307 148.145 53.496 148.934 52.344C149.745 51.1707 150.417 50.296 150.95 49.72ZM151.686 58.68C152.134 58.1467 152.433 58.2427 152.582 58.968C152.689 59.4587 152.753 60.312 152.774 61.528L152.806 64.024L154.054 64.056C155.676 64.0773 156.689 64.12 157.094 64.184C157.521 64.2267 157.777 64.3547 157.862 64.568C157.99 64.8453 157.841 65.1333 157.414 65.432C157.18 65.624 156.934 65.7413 156.678 65.784C156.422 65.8267 155.974 65.816 155.334 65.752C154.332 65.6667 152.785 65.7947 150.694 66.136C149.841 66.2853 149.18 66.392 148.71 66.456C148.262 66.52 147.878 66.552 147.558 66.552C147.26 66.5307 147.068 66.4773 146.982 66.392C146.897 66.2853 146.854 66.136 146.854 65.944C146.854 65.5813 147.014 65.3253 147.334 65.176C147.654 65.0053 148.262 64.8667 149.158 64.76L150.854 64.6L150.982 62.552C151.11 60.3973 151.345 59.1067 151.686 58.68ZM163.278 47.864C164.516 47.5013 165.401 47.32 165.934 47.32C166.489 47.32 166.884 47.4907 167.118 47.832C167.438 48.28 167.492 48.6 167.278 48.792C167.086 48.9627 166.596 49.048 165.806 49.048C164.91 49.048 164.004 49.1867 163.086 49.464C162.19 49.72 161.657 49.9973 161.486 50.296C161.337 50.6373 161.262 51.2347 161.262 52.088V53.368L162.734 53.208C163.652 53.1227 164.43 52.984 165.07 52.792C166.201 52.4507 166.766 52.664 166.766 53.432C166.766 53.7733 166.66 53.9973 166.446 54.104C166.233 54.2107 165.678 54.328 164.782 54.456C164.121 54.5627 163.214 54.744 162.062 55C161.636 55.1067 161.316 55.1813 161.102 55.224C160.889 55.2667 160.676 55.2667 160.462 55.224C160.27 55.16 160.132 55.0853 160.046 55C159.982 54.9147 159.908 54.7333 159.822 54.456C159.737 54.1573 159.684 53.8587 159.662 53.56C159.641 53.24 159.609 52.7813 159.566 52.184C159.502 50.6693 159.545 49.6453 159.694 49.112C159.844 48.5787 160.174 48.3227 160.686 48.344C161.156 48.344 162.02 48.184 163.278 47.864ZM169.806 49.816C169.956 49.5387 170.201 49.3787 170.542 49.336C170.884 49.272 171.097 49.3573 171.182 49.592C171.268 49.8053 171.236 50.4987 171.086 51.672C170.937 52.8667 170.905 53.5067 170.99 53.592C171.097 53.6987 171.492 53.72 172.174 53.656C172.857 53.5707 173.294 53.464 173.486 53.336C173.721 53.1227 173.796 52.6747 173.71 51.992C173.625 51.416 173.678 50.9467 173.87 50.584C174.062 50.2213 174.34 50.04 174.702 50.04C175.065 50.04 175.289 50.2213 175.374 50.584C175.481 50.9253 175.46 51.512 175.31 52.344C175.14 53.3893 175.086 54.8827 175.15 56.824C175.193 58.5733 175.15 59.5227 175.022 59.672C174.958 59.736 174.83 59.7893 174.638 59.832C174.254 59.8747 173.945 59.608 173.71 59.032C173.476 58.4347 173.358 57.6347 173.358 56.632C173.358 55.608 173.294 55.096 173.166 55.096C173.06 55.096 172.644 55.1813 171.918 55.352L170.766 55.672L170.926 57.656C171.012 58.616 171.033 59.192 170.99 59.384C170.969 59.5547 170.798 59.672 170.478 59.736C170.052 59.864 169.742 59.864 169.55 59.736C169.38 59.6293 169.326 58.04 169.39 54.968C169.476 51.8747 169.614 50.1573 169.806 49.816ZM162.414 56.824C162.5 56.4827 162.777 56.3333 163.246 56.376C163.545 56.4187 163.726 56.504 163.79 56.632C163.876 56.76 163.94 57.0693 163.982 57.56L164.046 58.68L165.102 58.552C165.721 58.4667 166.34 58.36 166.958 58.232C167.278 58.168 167.502 58.1573 167.63 58.2C167.758 58.2427 167.897 58.36 168.046 58.552C168.174 58.8293 168.121 59.1707 167.886 59.576C167.673 59.9813 167.449 60.1413 167.214 60.056C167.044 59.992 166.318 60.1093 165.038 60.408C162.094 61.1333 160.43 61.4427 160.046 61.336C159.854 61.2507 159.758 61.0587 159.758 60.76C159.758 60.4613 159.908 60.2267 160.206 60.056C160.526 59.864 161.07 59.672 161.838 59.48C162.18 59.416 162.372 59.3307 162.414 59.224C162.478 59.1173 162.478 58.8187 162.414 58.328C162.329 57.7093 162.329 57.208 162.414 56.824ZM172.75 64.088C173.134 63.2773 173.422 62.744 173.614 62.488C173.806 62.232 174.02 62.104 174.254 62.104C174.617 62.104 174.884 62.264 175.054 62.584C175.246 62.904 175.214 63.1707 174.958 63.384C174.66 63.64 174.564 63.896 174.67 64.152C174.777 64.408 175.129 64.7493 175.726 65.176C176.217 65.5387 176.686 65.9973 177.134 66.552C177.604 67.1067 177.838 67.512 177.838 67.768C177.838 67.8747 177.646 67.928 177.262 67.928C176.665 67.928 175.854 67.448 174.83 66.488C174.425 66.0827 174.137 65.912 173.966 65.976C173.774 66.04 173.54 66.3813 173.262 67C172.985 67.6187 172.836 68.1093 172.814 68.472C172.814 68.728 172.772 68.92 172.686 69.048C172.601 69.176 172.441 69.272 172.206 69.336C171.438 69.5067 171.054 69.2827 171.054 68.664C171.054 68.344 170.83 68.0773 170.382 67.864C169.934 67.6507 169.39 67.3413 168.75 66.936C168.153 66.5947 167.726 66.4987 167.47 66.648C167.236 66.776 166.926 67.2773 166.542 68.152C166.094 69.2827 165.529 69.7307 164.846 69.496C164.59 69.4107 164.505 69.176 164.59 68.792C164.676 68.408 164.953 67.7787 165.422 66.904C166.596 64.7067 167.492 63.4267 168.11 63.064C168.43 62.872 168.718 62.9147 168.974 63.192C169.166 63.4053 169.262 63.5653 169.262 63.672C169.262 63.7787 169.166 63.9813 168.974 64.28C168.676 64.728 168.558 64.9627 168.622 64.984C169.945 65.9653 170.926 66.4667 171.566 66.488C171.737 66.488 171.822 66.4347 171.822 66.328C171.822 66.1147 172.132 65.368 172.75 64.088ZM183.601 52.92C183.921 52.8133 184.198 52.7813 184.433 52.824C184.689 52.8667 185.083 53.0053 185.617 53.24C186.427 53.624 187.057 54.0293 187.505 54.456C187.974 54.8827 188.294 55.4053 188.465 56.024C188.657 56.6427 188.753 57.464 188.753 58.488C188.753 59.8107 188.358 60.92 187.569 61.816C186.779 62.6907 185.798 63.1387 184.625 63.16C183.857 63.16 183.003 62.9253 182.065 62.456C181.147 61.9653 180.497 61.4107 180.113 60.792C179.686 60.1307 179.462 59.4053 179.441 58.616C179.419 57.8053 179.569 57.0267 179.889 56.28C180.209 55.5333 180.699 54.8613 181.361 54.264C182.022 53.6453 182.769 53.1973 183.601 52.92ZM186.193 55.32C185.702 54.936 185.211 54.7013 184.721 54.616C184.23 54.5093 183.814 54.5627 183.473 54.776C182.449 55.416 181.734 56.1733 181.329 57.048C180.945 57.9227 180.955 58.712 181.361 59.416C181.809 60.1413 182.459 60.7067 183.313 61.112C184.166 61.5173 184.859 61.5813 185.393 61.304C185.755 61.0907 186.075 60.856 186.353 60.6C186.651 60.344 186.875 60.0667 187.025 59.768C187.174 59.4693 187.249 59.1813 187.249 58.904C187.249 58.0507 187.142 57.2933 186.929 56.632C186.737 55.9707 186.491 55.5333 186.193 55.32ZM193.393 54.488C193.499 54.0613 193.755 53.848 194.161 53.848C194.587 53.848 194.854 53.9547 194.961 54.168C195.11 54.4453 195.121 55.736 194.993 58.04C194.886 60.28 194.811 62.1787 194.769 63.736C194.747 64.696 194.705 65.3147 194.641 65.592C194.577 65.8693 194.449 66.0613 194.257 66.168C193.915 66.36 193.617 66.4027 193.361 66.296C193.19 66.232 193.094 65.9973 193.073 65.592C193.051 65.1653 193.073 64.2267 193.137 62.776C193.222 61.112 193.254 60.1307 193.233 59.832C193.211 59.512 193.073 59.352 192.817 59.352C192.497 59.352 192.091 59.448 191.601 59.64C191.11 59.832 190.598 59.8747 190.065 59.768C189.531 59.64 189.265 59.4267 189.265 59.128C189.265 58.9147 189.361 58.7227 189.553 58.552C189.745 58.36 190.022 58.2 190.385 58.072C190.769 57.944 191.217 57.848 191.729 57.784C192.582 57.6987 193.105 57.6027 193.297 57.496C193.467 57.3893 193.489 56.9627 193.361 56.216C193.275 55.448 193.286 54.872 193.393 54.488ZM199.795 49.24C200.563 48.9627 201.299 48.8773 202.003 48.984C202.728 49.0693 203.4 49.3573 204.019 49.848C204.659 50.3387 205.181 51 205.587 51.832C205.992 52.6213 206.184 53.3573 206.163 54.04C206.163 54.7227 205.949 55.48 205.523 56.312C205.181 56.9947 204.776 57.5067 204.307 57.848C203.837 58.168 203.24 58.3813 202.515 58.488C201.299 58.6587 200.147 58.424 199.059 57.784C197.971 57.144 197.277 56.3227 196.979 55.32C196.552 53.9547 196.595 52.7387 197.107 51.672C197.619 50.6053 198.515 49.7947 199.795 49.24ZM202.387 50.552C202.173 50.552 201.939 50.5093 201.683 50.424C201.299 50.296 200.691 50.5307 199.859 51.128C199.027 51.7253 198.525 52.3013 198.355 52.856C198.291 53.0693 198.28 53.3253 198.323 53.624C198.365 53.9013 198.44 54.1893 198.547 54.488C198.653 54.7653 198.792 55.0427 198.963 55.32C199.155 55.5973 199.357 55.832 199.571 56.024C200.381 56.7493 201.203 57.08 202.035 57.016C202.867 56.952 203.528 56.5147 204.019 55.704C204.808 54.424 204.68 53.0907 203.635 51.704C203.016 50.936 202.6 50.552 202.387 50.552ZM203.731 60.504C203.901 60.0987 204.115 59.896 204.371 59.896C204.648 59.8747 204.883 60.0773 205.075 60.504C205.245 60.9093 205.224 61.6133 205.011 62.616C204.797 63.576 204.755 64.1627 204.883 64.376C204.989 64.568 205.629 64.664 206.803 64.664C207.613 64.664 208.115 64.696 208.307 64.76C208.52 64.8027 208.68 64.952 208.787 65.208C208.936 65.656 208.883 65.9653 208.627 66.136C208.392 66.3067 207.859 66.3813 207.027 66.36C206.365 66.3387 205.544 66.3813 204.563 66.488C203.603 66.5733 202.92 66.6693 202.515 66.776C202.323 66.84 201.832 66.936 201.043 67.064C200.275 67.2133 199.517 67.352 198.771 67.48C198.024 67.608 197.576 67.672 197.427 67.672C197.171 67.672 196.979 67.5013 196.851 67.16C196.723 66.8187 196.755 66.5307 196.947 66.296C197.117 66.0827 197.533 65.9227 198.195 65.816L199.123 65.688V63.64C199.144 62.5093 199.229 61.7947 199.379 61.496C199.528 61.176 199.848 61.08 200.339 61.208C200.637 61.2933 200.808 61.432 200.851 61.624C200.915 61.7947 200.936 62.328 200.915 63.224L200.851 65.016L202.099 65.112C202.888 65.1547 203.283 65.112 203.283 64.984C203.283 64.408 203.304 63.8 203.347 63.16C203.411 62.52 203.475 61.9653 203.539 61.496C203.624 61.0267 203.688 60.696 203.731 60.504ZM211.113 64.568C211.433 64.4187 211.699 64.3653 211.913 64.408C212.147 64.4293 212.403 64.568 212.681 64.824C212.915 65.016 213.065 65.176 213.129 65.304C213.193 65.4107 213.225 65.5813 213.225 65.816C213.225 66.8613 212.691 67.384 211.625 67.384C211.475 67.384 211.347 67.3733 211.241 67.352C211.155 67.3307 211.081 67.288 211.017 67.224C210.953 67.1813 210.867 67.1067 210.761 67C210.547 66.744 210.441 66.3707 210.441 65.88C210.441 65.496 210.483 65.2187 210.569 65.048C210.654 64.8773 210.835 64.7173 211.113 64.568Z" fill="#1A1A1A"/>
<path d="M37.6412 100.82C37.6812 100.74 37.7678 100.693 37.9012 100.68C38.0478 100.667 38.2078 100.7 38.3812 100.78C38.4878 100.82 38.5545 100.96 38.5812 101.2C38.6212 101.44 38.6412 101.94 38.6412 102.7C38.6412 103.94 38.6678 104.58 38.7212 104.62C38.7478 104.66 39.2278 104.647 40.1612 104.58C41.0145 104.487 41.5745 104.467 41.8412 104.52C42.1212 104.573 42.2612 104.727 42.2612 104.98C42.2612 105.033 42.2545 105.08 42.2412 105.12C42.2412 105.16 42.2212 105.2 42.1812 105.24C42.1545 105.28 42.1212 105.313 42.0812 105.34C42.0545 105.367 42.0012 105.393 41.9212 105.42C41.8412 105.447 41.7545 105.467 41.6612 105.48C41.5678 105.493 41.4412 105.513 41.2812 105.54C41.1345 105.553 40.9745 105.567 40.8012 105.58C40.6412 105.593 40.4278 105.613 40.1612 105.64C39.2412 105.707 38.7412 105.8 38.6612 105.92C38.6078 106.013 38.5678 106.587 38.5412 107.64C38.5278 108.667 38.5012 109.193 38.4612 109.22C38.4478 109.247 38.3212 109.3 38.0812 109.38C37.8012 109.46 37.6278 109.38 37.5612 109.14C37.4812 108.847 37.4812 107.88 37.5612 106.24C37.6678 104.387 37.6945 103.04 37.6412 102.2C37.5612 101.373 37.5612 100.913 37.6412 100.82ZM31.9612 101.38C32.8545 101.233 33.4878 101.167 33.8612 101.18C34.2345 101.18 34.4478 101.253 34.5012 101.4C34.5945 101.64 34.5545 101.827 34.3812 101.96C34.2212 102.093 33.9278 102.167 33.5012 102.18C32.2878 102.193 31.3545 102.347 30.7012 102.64L30.2012 102.82L30.2612 104.3C30.2878 104.7 30.3012 104.993 30.3012 105.18C30.3145 105.367 30.3412 105.56 30.3812 105.76C30.4212 105.96 30.4612 106.093 30.5012 106.16C30.5412 106.213 30.6145 106.28 30.7212 106.36C30.8412 106.427 30.9478 106.467 31.0412 106.48C31.1478 106.493 31.3078 106.507 31.5212 106.52C32.1212 106.573 32.7345 106.567 33.3612 106.5C34.3612 106.353 34.8612 106.493 34.8612 106.92C34.8612 107.08 34.8345 107.2 34.7812 107.28C34.7412 107.36 34.6145 107.427 34.4012 107.48C34.2012 107.533 33.9345 107.567 33.6012 107.58C33.2812 107.593 32.8012 107.6 32.1612 107.6C32.0412 107.6 31.8745 107.6 31.6612 107.6C31.3412 107.6 31.1145 107.6 30.9812 107.6C30.8478 107.6 30.6745 107.587 30.4612 107.56C30.2612 107.533 30.1345 107.52 30.0812 107.52C30.0278 107.507 29.9478 107.46 29.8412 107.38C29.7345 107.287 29.6678 107.213 29.6412 107.16C29.6278 107.093 29.5945 106.973 29.5412 106.8C29.5012 106.627 29.4745 106.48 29.4612 106.36C29.4612 106.227 29.4412 106.02 29.4012 105.74C29.3878 105.54 29.3745 105.38 29.3612 105.26C29.2412 104.047 29.1878 103.22 29.2012 102.78C29.2145 102.34 29.3012 102.08 29.4612 102C30.0345 101.773 30.8678 101.567 31.9612 101.38ZM45.2037 98.26C45.5237 98.1 45.897 98.02 46.3237 98.02C46.7503 98.02 47.117 98.1 47.4237 98.26C47.8103 98.4733 48.2037 98.78 48.6037 99.18C49.017 99.58 49.2503 99.8933 49.3037 100.12C49.3703 100.4 49.377 100.767 49.3237 101.22C49.2703 101.673 49.177 102.04 49.0437 102.32C48.8703 102.68 48.5303 103.027 48.0237 103.36C47.517 103.68 47.0637 103.847 46.6637 103.86C46.3303 103.86 45.977 103.793 45.6037 103.66C45.2303 103.513 44.877 103.32 44.5437 103.08C44.2103 102.84 43.9437 102.573 43.7437 102.28C43.437 101.827 43.277 101.447 43.2637 101.14C43.2503 100.82 43.3637 100.407 43.6037 99.9C43.9903 99.1667 44.5237 98.62 45.2037 98.26ZM47.8437 99.68C47.4303 99.3067 47.097 99.0933 46.8437 99.04C46.5903 98.9733 46.2437 99.0467 45.8037 99.26C45.377 99.46 45.0303 99.72 44.7637 100.04C44.5637 100.253 44.4437 100.433 44.4037 100.58C44.3637 100.727 44.3637 100.913 44.4037 101.14C44.457 101.487 44.6303 101.807 44.9237 102.1C45.217 102.393 45.5703 102.6 45.9837 102.72C46.397 102.827 46.717 102.847 46.9437 102.78C47.1837 102.713 47.4837 102.5 47.8437 102.14C47.977 102.02 48.077 101.92 48.1437 101.84C48.2237 101.76 48.2837 101.673 48.3237 101.58C48.3637 101.487 48.3903 101.393 48.4037 101.3C48.4303 101.207 48.4437 101.087 48.4437 100.94C48.4437 100.66 48.4037 100.44 48.3237 100.28C48.257 100.12 48.097 99.92 47.8437 99.68ZM49.6237 104.86C49.7037 104.793 49.8503 104.84 50.0637 105C50.277 105.147 50.4037 105.3 50.4437 105.46C50.4837 105.647 50.457 105.78 50.3637 105.86C50.2703 105.953 49.4837 106.027 48.0037 106.08C46.5637 106.12 45.657 106.2 45.2837 106.32C44.5237 106.533 44.0637 106.513 43.9037 106.26C43.8103 106.113 43.8903 105.913 44.1437 105.66C44.4503 105.353 45.8903 105.14 48.4637 105.02C49.157 105.007 49.5437 104.953 49.6237 104.86ZM47.5637 107.16C48.697 106.933 49.4237 106.94 49.7437 107.18C49.877 107.273 49.957 107.42 49.9837 107.62C50.0103 107.807 50.0103 108.227 49.9837 108.88C49.9303 109.907 49.8437 110.48 49.7237 110.6C49.6303 110.693 49.0903 110.82 48.1037 110.98C47.117 111.153 46.3903 111.24 45.9237 111.24C45.5903 111.24 45.377 111.193 45.2837 111.1C45.1903 111.007 45.1503 110.38 45.1637 109.22L45.2037 107.52L45.9837 107.4C46.6103 107.32 47.137 107.24 47.5637 107.16ZM48.9837 108.14L48.3637 108.1C47.9237 108.087 47.4437 108.173 46.9237 108.36C46.5903 108.48 46.3703 108.587 46.2637 108.68C46.1703 108.773 46.1037 108.933 46.0637 109.16C45.957 109.653 46.0103 109.94 46.2237 110.02C46.437 110.1 47.0037 110.053 47.9237 109.88L48.9437 109.7L48.9637 108.92L48.9837 108.14ZM53.8068 101.5C54.1135 101.407 54.3735 101.38 54.5868 101.42C54.8135 101.447 55.2001 101.58 55.7468 101.82C56.6401 102.193 57.0935 102.993 57.1068 104.22C57.1068 104.847 57.0468 105.327 56.9268 105.66C56.8201 105.98 56.6135 106.32 56.3068 106.68C56.0268 107 55.8135 107.193 55.6668 107.26C55.5335 107.327 55.2735 107.36 54.8868 107.36C54.1268 107.36 53.4001 107.133 52.7068 106.68C52.0268 106.227 51.6335 105.72 51.5268 105.16C51.4335 104.613 51.4535 104.14 51.5868 103.74C51.7201 103.34 52.0068 102.92 52.4468 102.48C52.6601 102.253 52.9001 102.047 53.1668 101.86C53.4468 101.673 53.6601 101.553 53.8068 101.5ZM55.1868 102.56C54.8535 102.453 54.6135 102.413 54.4668 102.44C54.3201 102.453 54.0535 102.567 53.6668 102.78C53.2135 103.047 52.9135 103.28 52.7668 103.48C52.6201 103.68 52.5401 103.96 52.5268 104.32C52.5268 104.773 52.6935 105.167 53.0268 105.5C53.3735 105.833 53.8268 106.06 54.3868 106.18C54.8135 106.287 55.0801 106.333 55.1868 106.32C55.2935 106.293 55.4401 106.167 55.6268 105.94C55.7335 105.82 55.8068 105.707 55.8468 105.6C55.9001 105.48 55.9335 105.333 55.9468 105.16C55.9735 104.987 55.9868 104.747 55.9868 104.44C55.9868 103.773 55.9335 103.327 55.8268 103.1C55.7335 102.86 55.5201 102.68 55.1868 102.56ZM62.9468 101.5C63.0401 101.367 63.1601 101.307 63.3068 101.32C63.4535 101.32 63.5868 101.393 63.7068 101.54C63.8401 101.7 63.8668 102.74 63.7868 104.66C63.6935 106.54 63.6468 107.7 63.6468 108.14C63.6335 108.527 63.5801 108.787 63.4868 108.92C63.4068 109.053 63.2335 109.147 62.9668 109.2L62.5468 109.28L62.6868 106.96C62.7801 105.093 62.8268 103.833 62.8268 103.18C62.8268 102.193 62.8668 101.633 62.9468 101.5ZM60.5868 101.8C60.8535 101.547 61.1001 101.56 61.3268 101.84C61.4468 101.987 61.4468 102.733 61.3268 104.08C61.2468 105.107 61.1535 106.253 61.0468 107.52L60.9468 108.92H60.4868H60.0068L60.0268 107.06C60.0268 107.033 60.0268 107 60.0268 106.96C60.0535 106.013 60.0268 105.48 59.9468 105.36C59.8668 105.227 59.5735 105.233 59.0668 105.38C59.0268 105.393 59.0001 105.4 58.9868 105.4C58.6535 105.507 58.3335 105.533 58.0268 105.48C57.7201 105.427 57.5668 105.327 57.5668 105.18C57.5668 104.927 57.6801 104.727 57.9068 104.58C58.1468 104.433 58.5335 104.333 59.0668 104.28C59.7868 104.187 60.1935 104.073 60.2868 103.94C60.3668 103.78 60.4068 103.413 60.4068 102.84C60.4068 102.267 60.4668 101.92 60.5868 101.8ZM65.6862 98.28C65.8195 98.1067 65.9862 98.0533 66.1862 98.12C66.3328 98.1467 66.4262 98.26 66.4662 98.46C66.5062 98.6467 66.5262 99.1267 66.5262 99.9V101.64L67.2062 101.54C67.3262 101.513 67.5195 101.48 67.7862 101.44C68.0662 101.4 68.2462 101.373 68.3262 101.36C69.4995 101.187 70.2862 101.093 70.6862 101.08C70.8995 101.08 71.0262 101.107 71.0662 101.16C71.1195 101.2 71.1462 101.353 71.1462 101.62V102.16L70.2462 102.2C69.5928 102.213 68.7795 102.333 67.8062 102.56C66.7795 102.76 66.1728 102.853 65.9862 102.84C65.8128 102.813 65.6662 102.627 65.5462 102.28C65.4395 101.88 65.3995 101.153 65.4262 100.1C65.4662 99.0467 65.5528 98.44 65.6862 98.28ZM71.3462 104.3C71.3595 104.287 71.4462 104.367 71.6062 104.54C71.8862 104.82 71.9262 105.093 71.7262 105.36C71.5395 105.613 71.2328 105.7 70.8062 105.62C70.4462 105.567 69.8128 105.613 68.9062 105.76C67.3728 106.027 66.3595 106.187 65.8662 106.24C65.3862 106.28 65.0862 106.233 64.9662 106.1C64.8728 106.007 64.8262 105.927 64.8262 105.86C64.8262 105.78 64.8862 105.653 65.0062 105.48C65.1128 105.293 65.2328 105.18 65.3662 105.14C65.4995 105.1 65.7662 105.08 66.1662 105.08C66.7928 105.08 67.4328 105.007 68.0862 104.86C68.8328 104.713 69.4195 104.64 69.8462 104.64C70.2995 104.613 70.6662 104.553 70.9462 104.46L71.3462 104.3ZM66.9262 107.6C67.0862 107.413 67.1862 107.313 67.2262 107.3C67.2662 107.287 67.3662 107.313 67.5262 107.38C67.5928 107.407 67.6395 107.46 67.6662 107.54C67.7062 107.62 67.7328 107.747 67.7462 107.92C67.7595 108.08 67.7662 108.313 67.7662 108.62C67.7662 109.393 67.8195 109.78 67.9262 109.78C68.0328 109.78 68.2795 109.7 68.6662 109.54C69.0128 109.42 69.5928 109.273 70.4062 109.1C71.2328 108.927 71.7862 108.84 72.0662 108.84C72.3062 108.84 72.4595 108.947 72.5262 109.16C72.5528 109.28 72.5528 109.387 72.5262 109.48C72.4995 109.573 72.4328 109.653 72.3262 109.72C72.2328 109.787 72.0995 109.84 71.9262 109.88C71.7662 109.92 71.5595 109.953 71.3062 109.98C70.6928 110.033 70.1128 110.18 69.5662 110.42C69.3662 110.513 69.1062 110.6 68.7862 110.68C68.4795 110.773 68.2128 110.827 67.9862 110.84C67.6262 110.88 67.3928 110.887 67.2862 110.86C67.1795 110.833 67.0795 110.74 66.9862 110.58C66.8662 110.327 66.7795 109.82 66.7262 109.06C66.6862 108.567 66.6795 108.233 66.7062 108.06C66.7328 107.887 66.8062 107.733 66.9262 107.6ZM85.8532 97.86C86.4265 97.78 86.8532 97.7667 87.1332 97.82C87.4265 97.86 87.6332 97.94 87.7532 98.06C87.8732 98.18 87.9599 98.3867 88.0132 98.68C88.0665 98.96 88.1065 99.46 88.1332 100.18L88.1732 102.04L87.7132 102.38C87.4199 102.593 87.2399 102.627 87.1732 102.48C87.0932 102.307 87.0532 101.647 87.0532 100.5V98.76L86.3132 98.88C85.8599 98.9467 85.4865 99.0267 85.1932 99.12C84.7399 99.28 84.4065 99.3067 84.1932 99.2C83.9932 99.08 83.9532 98.8533 84.0732 98.52C84.1532 98.3333 84.2999 98.2 84.5132 98.12C84.7265 98.0267 85.1732 97.94 85.8532 97.86ZM81.8332 98.54C81.9132 98.46 82.1465 98.44 82.5332 98.48C82.9332 98.52 83.1799 98.5867 83.2732 98.68C83.3932 98.8267 83.4399 99.6533 83.4132 101.16L83.3532 103.42L82.8532 103.46L82.2932 103.5L82.3532 101.54L82.3932 99.54L81.9332 99.64C81.4532 99.7467 80.9865 99.8133 80.5332 99.84C80.0799 99.8533 79.7932 99.82 79.6732 99.74C79.4332 99.58 79.5199 99.3733 79.9332 99.12C80.1865 98.9733 80.5065 98.86 80.8932 98.78C81.4932 98.66 81.8065 98.58 81.8332 98.54ZM84.8732 102.76C84.9799 102.627 85.0999 102.567 85.2332 102.58C85.3799 102.58 85.5132 102.647 85.6332 102.78C85.7132 102.9 85.7465 103.04 85.7332 103.2C85.7332 103.36 85.6865 103.673 85.5932 104.14C85.4199 104.86 85.3599 105.24 85.4132 105.28C85.4665 105.333 85.7732 105.333 86.3332 105.28C86.9065 105.227 87.3532 105.16 87.6732 105.08C88.5265 104.827 89.0532 104.873 89.2532 105.22C89.3999 105.513 89.3865 105.747 89.2132 105.92C89.0532 106.08 88.7599 106.16 88.3332 106.16C87.9065 106.16 87.3465 106.213 86.6532 106.32C85.9732 106.44 85.3932 106.52 84.9132 106.56C84.2332 106.64 83.6265 106.727 83.0932 106.82C82.4799 106.927 82.0665 106.953 81.8532 106.9C81.6399 106.847 81.5332 106.693 81.5332 106.44C81.5332 106.24 81.5732 106.093 81.6532 106C81.7465 105.893 81.8999 105.82 82.1132 105.78C82.3265 105.727 82.6532 105.693 83.0932 105.68C83.4665 105.667 83.7665 105.64 83.9932 105.6C84.2199 105.547 84.3732 105.473 84.4532 105.38C84.5332 105.287 84.5399 105.173 84.4732 105.04C84.4199 104.893 84.4465 104.507 84.5532 103.88C84.6732 103.253 84.7799 102.88 84.8732 102.76ZM85.4932 107.9C86.8132 107.82 87.5199 107.78 87.6132 107.78C87.9065 107.753 88.0932 107.867 88.1732 108.12C88.2532 108.373 88.2932 108.96 88.2932 109.88C88.2932 110.947 88.2532 111.533 88.1732 111.64C88.1332 111.693 88.0532 111.733 87.9332 111.76C87.6132 111.84 87.4132 111.793 87.3332 111.62C87.2532 111.46 87.2132 111 87.2132 110.24V108.82L85.7532 108.94C84.6865 109.033 84.0199 109.073 83.7532 109.06C83.4865 109.047 83.3399 108.973 83.3132 108.84C83.2999 108.68 83.3599 108.507 83.4932 108.32C83.5465 108.227 83.6332 108.16 83.7532 108.12C83.8865 108.067 84.0799 108.027 84.3332 108C84.5865 107.973 84.9732 107.94 85.4932 107.9ZM98.7096 100.9C98.8696 100.9 98.9896 100.873 99.0696 100.82C99.1496 100.753 99.3963 100.72 99.8096 100.72C100.316 100.72 100.71 100.82 100.99 101.02C101.043 101.06 101.096 101.107 101.15 101.16C101.203 101.2 101.256 101.253 101.31 101.32C101.363 101.373 101.41 101.44 101.45 101.52C101.49 101.587 101.53 101.667 101.57 101.76C101.623 101.84 101.67 101.927 101.71 102.02C101.856 102.407 101.923 102.847 101.91 103.34C101.91 103.833 101.83 104.3 101.67 104.74C101.496 105.22 101.27 105.733 100.99 106.28C100.856 106.547 100.73 106.78 100.61 106.98C100.49 107.167 100.383 107.32 100.29 107.44C100.236 107.507 100.176 107.6 100.11 107.72C100.03 107.88 99.8429 108.107 99.5496 108.4C99.2429 108.707 99.1229 108.893 99.1896 108.96C99.2563 109.027 99.6296 109.06 100.31 109.06H101.33L101.53 109.3C101.77 109.58 101.803 109.813 101.63 110C101.47 110.173 101.17 110.24 100.73 110.2C100.556 110.187 100.276 110.173 99.8896 110.16C99.5163 110.147 99.0363 110.127 98.4496 110.1C97.9963 110.087 97.6296 110.067 97.3496 110.04C97.0696 110.027 96.8829 110.013 96.7896 110C96.7096 109.973 96.6496 109.933 96.6096 109.88C96.5696 109.813 96.5496 109.733 96.5496 109.64C96.5496 109.52 96.6229 109.387 96.7696 109.24C96.9163 109.08 97.0963 108.933 97.3096 108.8C98.5229 108.093 99.3496 107.313 99.7896 106.46C99.8429 106.34 99.8963 106.24 99.9496 106.16C100.003 106.067 100.043 106 100.07 105.96C100.096 105.907 100.116 105.873 100.13 105.86C100.21 105.807 100.343 105.56 100.53 105.12C100.73 104.68 100.85 104.353 100.89 104.14C100.89 104.073 100.903 103.953 100.93 103.78C100.956 103.607 100.976 103.493 100.99 103.44C101.016 103.32 101.003 103.16 100.95 102.96C100.936 102.92 100.923 102.88 100.91 102.84C100.896 102.8 100.883 102.76 100.87 102.72C100.856 102.68 100.843 102.64 100.83 102.6C100.816 102.56 100.796 102.527 100.77 102.5C100.756 102.46 100.743 102.42 100.73 102.38C100.703 102.34 100.676 102.3 100.65 102.26C100.636 102.22 100.616 102.187 100.59 102.16C100.576 102.12 100.556 102.093 100.53 102.08C100.516 102.053 100.496 102.027 100.47 102C100.403 101.96 100.316 101.92 100.21 101.88C100.103 101.827 99.9763 101.787 99.8296 101.76C99.6829 101.733 99.5429 101.72 99.4096 101.72C99.2896 101.707 99.1829 101.713 99.0896 101.74C98.9429 101.767 98.7296 101.82 98.4496 101.9C98.1829 101.98 97.9163 102.073 97.6496 102.18C97.3829 102.287 97.1629 102.38 96.9896 102.46C96.7629 102.567 96.5763 102.627 96.4296 102.64C96.3496 102.64 96.2829 102.627 96.2296 102.6C96.1896 102.573 96.1629 102.54 96.1496 102.5C96.1363 102.38 96.3096 102.14 96.6696 101.78C97.0429 101.407 97.3096 101.207 97.4696 101.18C97.6829 101.127 97.8896 101.067 98.0896 101C98.3563 100.933 98.5629 100.9 98.7096 100.9ZM106.856 100.52C106.936 100.52 107.003 100.547 107.056 100.6C107.11 100.64 107.15 100.713 107.176 100.82C107.203 100.913 107.23 101.047 107.256 101.22C107.283 101.38 107.303 101.587 107.316 101.84C107.343 102.08 107.363 102.36 107.376 102.68C107.39 103 107.403 103.36 107.416 103.76V103.92C107.416 104.253 107.416 104.54 107.416 104.78C107.43 105.007 107.443 105.193 107.456 105.34C107.483 105.487 107.51 105.587 107.536 105.64C107.603 105.8 107.83 105.88 108.216 105.88H108.276C108.383 105.88 108.47 105.887 108.536 105.9C108.603 105.9 108.656 105.907 108.696 105.92C108.723 105.92 108.743 105.927 108.756 105.94C108.783 105.953 108.803 105.973 108.816 106C108.843 106.013 108.863 106.033 108.876 106.06C108.97 106.167 109.016 106.307 109.016 106.48C109.016 106.56 109.003 106.64 108.976 106.72C108.95 106.787 108.916 106.853 108.876 106.92C108.863 106.947 108.843 106.967 108.816 106.98C108.803 106.993 108.783 107.007 108.756 107.02C108.743 107.033 108.73 107.04 108.716 107.04C108.69 107.053 108.643 107.06 108.576 107.06C108.523 107.06 108.456 107.053 108.376 107.04C108.15 107 107.943 106.98 107.756 106.98L107.476 106.96L107.496 107.34C107.55 108.367 107.623 109.007 107.716 109.26C107.756 109.367 107.703 109.533 107.556 109.76C107.476 109.867 107.396 109.953 107.316 110.02C107.25 110.1 107.17 110.153 107.076 110.18C106.996 110.207 106.91 110.22 106.816 110.22L106.596 110.2L106.556 108.62C106.53 107.553 106.483 106.973 106.416 106.88C106.363 106.827 106.25 106.793 106.076 106.78C105.903 106.767 105.476 106.767 104.796 106.78C104.29 106.78 103.896 106.787 103.616 106.8C103.35 106.813 103.19 106.833 103.136 106.86C103.043 106.913 102.923 106.86 102.776 106.7C102.723 106.647 102.676 106.593 102.636 106.54C102.61 106.487 102.583 106.44 102.556 106.4C102.543 106.347 102.536 106.293 102.536 106.24C102.536 106.147 102.57 106.013 102.636 105.84C102.716 105.667 102.81 105.493 102.916 105.32C102.97 105.24 103.016 105.173 103.056 105.12C103.11 105.053 103.156 105 103.196 104.96C103.343 104.827 103.416 104.733 103.416 104.68C103.416 104.573 103.596 104.327 103.956 103.94C103.983 103.913 104.01 103.88 104.036 103.84C104.076 103.8 104.11 103.753 104.136 103.7C104.176 103.647 104.21 103.593 104.236 103.54C104.316 103.353 104.423 103.193 104.556 103.06C104.823 102.74 105.07 102.373 105.296 101.96C105.376 101.8 105.576 101.553 105.896 101.22C106.23 100.887 106.463 100.68 106.596 100.6C106.703 100.547 106.79 100.52 106.856 100.52ZM106.556 104.12C106.556 103.16 106.53 102.647 106.476 102.58C106.45 102.567 106.423 102.553 106.396 102.54C106.383 102.513 106.363 102.5 106.336 102.5C106.323 102.487 106.31 102.48 106.296 102.48C106.136 102.48 105.736 102.967 105.096 103.94C104.683 104.593 104.39 105 104.216 105.16C104.003 105.387 103.923 105.547 103.976 105.64C104.043 105.72 104.27 105.767 104.656 105.78C104.923 105.793 105.276 105.813 105.716 105.84C105.943 105.867 106.096 105.873 106.176 105.86C106.256 105.847 106.33 105.807 106.396 105.74C106.476 105.66 106.523 105.54 106.536 105.38C106.55 105.313 106.556 105.173 106.556 104.96C106.556 104.747 106.556 104.467 106.556 104.12ZM117.327 101.14C117.42 100.967 117.5 100.873 117.567 100.86C117.647 100.833 117.767 100.873 117.927 100.98C118.1 101.073 118.173 102.493 118.147 105.24C118.133 107.973 118.047 109.427 117.887 109.6C117.727 109.747 117.573 109.793 117.427 109.74C117.307 109.687 117.233 109.427 117.207 108.96C117.18 108.48 117.167 107.34 117.167 105.54C117.167 102.807 117.22 101.34 117.327 101.14ZM112.807 101.38C113.273 101.06 113.54 101.027 113.607 101.28C113.687 101.507 113.54 101.84 113.167 102.28C112.78 102.733 112.587 103.033 112.587 103.18C112.587 103.34 113.02 103.847 113.887 104.7C114.833 105.66 115.213 106.247 115.027 106.46C114.96 106.527 114.84 106.573 114.667 106.6C114.52 106.627 114.347 106.573 114.147 106.44C113.96 106.307 113.687 106.04 113.327 105.64C112.66 104.947 112.24 104.6 112.067 104.6C111.92 104.6 111.687 104.913 111.367 105.54C111.047 106.153 110.887 106.607 110.887 106.9C110.887 107.153 110.773 107.313 110.547 107.38C110.32 107.447 110.133 107.38 109.987 107.18C109.813 106.953 109.76 106.707 109.827 106.44C109.907 106.16 110.16 105.613 110.587 104.8C111.6 102.853 112.34 101.713 112.807 101.38ZM128.362 98.9C128.429 98.8067 128.555 98.7733 128.742 98.8C128.929 98.8133 129.069 98.8733 129.162 98.98C129.255 99.0867 129.269 99.5933 129.202 100.5C129.149 101.393 129.069 101.987 128.962 102.28C128.935 102.347 128.949 102.42 129.002 102.5C129.069 102.58 129.142 102.633 129.222 102.66C129.315 102.687 129.402 102.68 129.482 102.64C129.589 102.6 129.815 102.553 130.162 102.5C130.589 102.433 130.835 102.393 130.902 102.38C130.969 102.367 131.129 102.367 131.382 102.38C131.529 102.393 131.622 102.427 131.662 102.48C131.702 102.533 131.709 102.647 131.682 102.82C131.669 103.02 131.609 103.153 131.502 103.22C131.395 103.287 131.122 103.36 130.682 103.44C130.575 103.467 130.449 103.5 130.302 103.54C130.169 103.567 130.049 103.593 129.942 103.62C129.849 103.633 129.762 103.653 129.682 103.68C129.602 103.693 129.549 103.7 129.522 103.7C129.375 103.767 129.235 103.8 129.102 103.8C128.955 103.813 128.882 104.233 128.882 105.06C128.882 105.687 128.829 106.133 128.722 106.4C128.629 106.667 128.449 106.8 128.182 106.8C128.075 106.8 127.955 106.707 127.822 106.52C127.689 106.333 127.655 106.213 127.722 106.16C127.775 106.08 127.849 105.167 127.942 103.42C128.115 100.58 128.255 99.0733 128.362 98.9ZM122.122 99.74C123.002 99.6467 123.535 99.6 123.722 99.6C123.909 99.6 124.055 99.66 124.162 99.78C124.282 99.9267 124.295 100.367 124.202 101.1C124.069 101.847 123.949 102.667 123.842 103.56C123.709 104.627 123.595 105.207 123.502 105.3C123.435 105.353 123.315 105.38 123.142 105.38C122.862 105.38 122.695 105.273 122.642 105.06C122.602 104.833 122.642 104.347 122.762 103.6C122.909 102.68 122.995 101.98 123.022 101.5L123.102 100.64L122.342 100.76C121.862 100.813 121.249 100.927 120.502 101.1C119.609 101.327 119.162 101.3 119.162 101.02C119.175 100.9 119.222 100.767 119.302 100.62C119.409 100.38 119.662 100.2 120.062 100.08C120.475 99.96 121.162 99.8467 122.122 99.74ZM123.422 107.62C123.529 107.5 123.609 107.44 123.662 107.44C123.715 107.44 123.829 107.493 124.002 107.6C124.149 107.667 124.229 107.78 124.242 107.94C124.269 108.1 124.262 108.48 124.222 109.08L124.142 110.42H124.822C125.262 110.42 126.162 110.3 127.522 110.06C128.855 109.847 129.549 109.767 129.602 109.82C129.655 109.873 129.689 110.013 129.702 110.24C129.715 110.4 129.695 110.513 129.642 110.58C129.602 110.66 129.509 110.72 129.362 110.76C128.295 111.067 127.095 111.287 125.762 111.42C124.442 111.567 123.675 111.547 123.462 111.36C123.315 111.24 123.229 110.627 123.202 109.52C123.189 108.4 123.262 107.767 123.422 107.62ZM140.733 101.4C141.453 101.027 142.24 101.14 143.093 101.74C143.787 102.207 144.28 102.787 144.573 103.48C144.867 104.16 144.92 104.853 144.733 105.56C144.613 106.053 144.44 106.42 144.213 106.66C144 106.9 143.653 107.12 143.173 107.32C142.707 107.52 142.28 107.62 141.893 107.62C141.573 107.633 141.227 107.573 140.853 107.44C140.48 107.307 140.133 107.12 139.813 106.88C139.507 106.64 139.26 106.387 139.073 106.12C138.887 105.827 138.773 105.593 138.733 105.42C138.693 105.233 138.687 104.933 138.713 104.52C138.753 103.88 138.86 103.407 139.033 103.1C139.193 102.793 139.44 102.473 139.773 102.14C140.107 101.807 140.427 101.56 140.733 101.4ZM142.593 102.56C142.207 102.28 141.887 102.153 141.633 102.18C141.38 102.193 141.073 102.36 140.713 102.68C140.18 103.187 139.867 103.707 139.773 104.24C139.693 104.76 139.847 105.253 140.233 105.72C140.687 106.267 141.24 106.547 141.893 106.56C142.56 106.56 143.107 106.28 143.533 105.72C143.667 105.56 143.753 105.4 143.793 105.24C143.833 105.067 143.84 104.813 143.813 104.48C143.773 104.053 143.667 103.707 143.493 103.44C143.32 103.16 143.02 102.867 142.593 102.56ZM146.953 101.56C147.007 101.467 147.16 101.433 147.413 101.46C147.667 101.487 147.8 101.547 147.813 101.64C147.84 101.867 147.787 103.72 147.653 107.2L147.533 109.7H147.073C146.94 109.7 146.847 109.7 146.793 109.7C146.74 109.687 146.693 109.653 146.653 109.6C146.613 109.533 146.587 109.46 146.573 109.38C146.573 109.287 146.567 109.133 146.553 108.92C146.527 108.48 146.567 107.167 146.673 104.98C146.793 102.793 146.887 101.653 146.953 101.56ZM155.671 101.02C155.737 100.793 155.897 100.68 156.151 100.68C156.417 100.68 156.571 100.747 156.611 100.88C156.664 100.987 156.651 101.547 156.571 102.56C156.477 103.547 156.444 104.06 156.471 104.1C156.497 104.127 156.784 104.087 157.331 103.98C157.904 103.873 158.271 103.733 158.431 103.56C158.604 103.373 158.671 103.04 158.631 102.56C158.577 102.08 158.611 101.727 158.731 101.5C158.851 101.26 159.057 101.153 159.351 101.18C159.537 101.207 159.651 101.253 159.691 101.32C159.731 101.387 159.744 101.56 159.731 101.84C159.731 102.04 159.717 103.34 159.691 105.74V109L159.271 109.16C159.004 109.267 158.824 109.287 158.731 109.22C158.637 109.167 158.591 108.427 158.591 107V104.92H158.151C157.871 104.92 157.497 105.02 157.031 105.22L156.371 105.54L156.391 107C156.417 108 156.397 108.56 156.331 108.68C156.237 108.813 156.091 108.867 155.891 108.84C155.691 108.813 155.551 108.72 155.471 108.56C155.404 108.427 155.397 107.227 155.451 104.96C155.517 102.693 155.591 101.38 155.671 101.02ZM148.871 101.26C148.977 101.073 149.091 100.98 149.211 100.98C149.437 100.98 149.591 101.107 149.671 101.36C149.751 101.6 149.791 102.073 149.791 102.78C149.791 103.473 149.824 104.127 149.891 104.74C149.971 105.353 150.051 105.707 150.131 105.8C150.184 105.853 150.857 105.887 152.151 105.9C153.017 105.913 153.557 105.94 153.771 105.98C153.997 106.007 154.124 106.087 154.151 106.22C154.137 106.327 154.137 106.42 154.151 106.5C154.177 106.567 154.144 106.627 154.051 106.68C153.971 106.733 153.884 106.78 153.791 106.82C153.697 106.86 153.537 106.887 153.311 106.9C153.097 106.913 152.857 106.927 152.591 106.94C152.337 106.94 151.997 106.94 151.571 106.94C150.077 106.94 149.291 106.873 149.211 106.74C149.117 106.607 149.017 105.7 148.911 104.02C148.804 102.34 148.791 101.42 148.871 101.26ZM167.281 99.62C167.667 99.1 168.027 98.7267 168.361 98.5C168.694 98.2733 169.194 98.16 169.861 98.16C170.341 98.16 170.661 98.1933 170.821 98.26C170.994 98.3267 171.287 98.5533 171.701 98.94C172.207 99.4067 172.541 99.8133 172.701 100.16C172.874 100.493 172.921 100.887 172.841 101.34C172.721 102.18 172.294 102.873 171.561 103.42C170.947 103.9 170.221 104.033 169.381 103.82C168.541 103.607 167.807 103.113 167.181 102.34C166.527 101.527 166.561 100.62 167.281 99.62ZM171.241 99.68C170.827 99.2667 170.414 99.0733 170.001 99.1C169.587 99.1267 169.061 99.3867 168.421 99.88C168.167 100.067 167.994 100.333 167.901 100.68C167.807 101.027 167.827 101.327 167.961 101.58C168.294 102.22 168.781 102.627 169.421 102.8C170.074 102.96 170.641 102.833 171.121 102.42C171.641 101.967 171.907 101.52 171.921 101.08C171.947 100.64 171.721 100.173 171.241 99.68ZM172.421 104.98C172.527 104.887 172.747 104.873 173.081 104.94C173.414 104.993 173.641 105.087 173.761 105.22C173.867 105.34 173.927 105.44 173.941 105.52C173.967 105.6 173.934 105.713 173.841 105.86C173.761 106.02 173.661 106.113 173.541 106.14C173.421 106.167 173.141 106.153 172.701 106.1C172.034 106.047 171.107 106.073 169.921 106.18C169.827 106.193 169.687 106.207 169.501 106.22C168.341 106.327 167.661 106.373 167.461 106.36C167.261 106.347 167.161 106.247 167.161 106.06C167.161 106.033 167.161 106.013 167.161 106C167.161 105.733 167.381 105.54 167.821 105.42C168.261 105.3 169.094 105.213 170.321 105.16C171.681 105.08 172.381 105.02 172.421 104.98ZM169.681 107.32C170.067 107.12 170.414 107.007 170.721 106.98C171.041 106.953 171.381 107.02 171.741 107.18C173.207 107.807 173.701 108.753 173.221 110.02C173.061 110.433 172.734 110.813 172.241 111.16C171.747 111.507 171.287 111.68 170.861 111.68C170.407 111.68 169.981 111.587 169.581 111.4C169.181 111.213 168.861 110.967 168.621 110.66C168.394 110.367 168.234 110.04 168.141 109.68C168.061 109.32 168.114 108.973 168.301 108.64C168.447 108.333 168.614 108.093 168.801 107.92C168.987 107.747 169.281 107.547 169.681 107.32ZM172.101 108.56C171.567 108.067 171.021 107.92 170.461 108.12C169.714 108.4 169.294 108.72 169.201 109.08C169.094 109.507 169.194 109.867 169.501 110.16C169.807 110.453 170.207 110.587 170.701 110.56C171.194 110.547 171.621 110.36 171.981 110C172.527 109.493 172.567 109.013 172.101 108.56ZM178.543 99.12C179.276 99.0133 179.736 98.9667 179.923 98.98C180.123 98.98 180.276 99.0467 180.383 99.18C180.49 99.3267 180.53 99.4933 180.503 99.68C180.476 99.7867 180.37 99.8667 180.183 99.92C179.996 99.96 179.61 100 179.023 100.04C177.796 100.133 176.983 100.293 176.583 100.52C176.183 100.733 176.036 101.08 176.143 101.56C176.236 101.96 176.283 102.387 176.283 102.84V103.52L177.363 103.42C178.043 103.353 178.616 103.293 179.083 103.24C179.35 103.213 179.536 103.213 179.643 103.24C179.75 103.267 179.83 103.347 179.883 103.48C179.976 103.627 180.003 103.8 179.963 104C179.936 104.187 179.87 104.287 179.763 104.3C178.776 104.447 177.75 104.52 176.683 104.52H175.423L175.343 103.34C175.276 102.553 175.183 101.913 175.063 101.42C174.89 100.673 174.956 100.193 175.263 99.98C175.423 99.8733 175.89 99.72 176.663 99.52C177.436 99.3067 178.063 99.1733 178.543 99.12ZM182.683 99.04C182.736 98.9467 182.863 98.9133 183.063 98.94C183.263 98.9667 183.41 99.04 183.503 99.16C183.636 99.2933 183.663 99.8267 183.583 100.76L183.463 102.12L184.723 102.06L185.963 102V102.48C185.963 102.707 185.923 102.847 185.843 102.9C185.763 102.953 185.516 103.007 185.103 103.06C184.596 103.127 184.15 103.2 183.763 103.28C183.536 103.36 183.403 103.44 183.363 103.52C183.323 103.6 183.316 103.813 183.343 104.16C183.41 104.853 183.43 105.3 183.403 105.5C183.39 105.687 183.31 105.793 183.163 105.82C182.976 105.86 182.796 105.813 182.623 105.68C182.53 105.587 182.47 105.353 182.443 104.98C182.43 104.593 182.45 103.707 182.503 102.32C182.583 100.227 182.643 99.1333 182.683 99.04ZM182.523 106.88C182.576 106.733 182.696 106.66 182.883 106.66C183.07 106.647 183.223 106.713 183.343 106.86C183.476 107.033 183.49 107.313 183.383 107.7C183.263 108.1 183.203 108.753 183.203 109.66C183.203 110.26 183.183 110.66 183.143 110.86C183.103 111.073 183.003 111.267 182.843 111.44C182.71 111.613 182.556 111.727 182.383 111.78C182.223 111.847 181.95 111.893 181.563 111.92C180.883 111.96 180.296 112.007 179.803 112.06C179.47 112.1 179.23 112.107 179.083 112.08C178.936 112.053 178.796 111.973 178.663 111.84C178.25 111.427 178.116 110.347 178.263 108.6C178.316 107.92 178.396 107.467 178.503 107.24C178.623 107.013 178.816 106.927 179.083 106.98C179.19 107.007 179.256 107.08 179.283 107.2C179.323 107.307 179.33 107.533 179.303 107.88C179.303 107.907 179.303 107.953 179.303 108.02C179.276 108.38 179.316 108.587 179.423 108.64C179.543 108.68 179.95 108.653 180.643 108.56C180.776 108.533 180.883 108.52 180.963 108.52C181.616 108.413 182.023 108.313 182.183 108.22C182.343 108.113 182.423 107.893 182.423 107.56C182.423 107.307 182.456 107.08 182.523 106.88ZM181.863 109.6C181.503 109.48 181.19 109.46 180.923 109.54C180.87 109.567 180.57 109.62 180.023 109.7C179.65 109.753 179.43 109.807 179.363 109.86C179.31 109.913 179.29 110.06 179.303 110.3C179.33 110.553 179.383 110.707 179.463 110.76C179.543 110.813 179.783 110.86 180.183 110.9C181.33 111.02 181.976 110.787 182.123 110.2C182.176 110.013 182.183 109.887 182.143 109.82C182.116 109.753 182.023 109.68 181.863 109.6ZM188.915 97.74C189.728 97.3533 190.535 97.34 191.335 97.7C192.148 98.06 192.688 98.6733 192.955 99.54C193.022 99.7933 193.048 100.013 193.035 100.2C193.022 100.387 192.968 100.64 192.875 100.96C192.728 101.4 192.495 101.773 192.175 102.08C191.868 102.387 191.455 102.66 190.935 102.9C190.642 103.02 190.415 103.087 190.255 103.1C190.095 103.113 189.875 103.08 189.595 103C189.355 102.947 189.108 102.873 188.855 102.78C188.615 102.673 188.402 102.567 188.215 102.46C188.028 102.353 187.888 102.253 187.795 102.16C187.662 102.04 187.528 101.873 187.395 101.66C187.262 101.447 187.155 101.233 187.075 101.02C186.995 100.807 186.955 100.633 186.955 100.5C186.955 99.9667 187.135 99.44 187.495 98.92C187.868 98.4 188.342 98.0067 188.915 97.74ZM191.395 98.84C191.155 98.6133 190.842 98.5 190.455 98.5C190.068 98.4867 189.702 98.56 189.355 98.72C189.008 98.88 188.702 99.1133 188.435 99.42C188.182 99.7133 188.055 100.027 188.055 100.36C188.055 100.667 188.195 100.98 188.475 101.3C188.768 101.62 189.102 101.833 189.475 101.94C189.862 102.06 190.208 102.067 190.515 101.96C190.822 101.84 191.175 101.567 191.575 101.14C191.895 100.847 192.068 100.64 192.095 100.52C192.135 100.4 192.108 100.18 192.015 99.86C191.868 99.4333 191.662 99.0933 191.395 98.84ZM192.695 103.82C193.188 103.607 193.548 103.667 193.775 104C193.882 104.16 193.935 104.273 193.935 104.34C193.935 104.407 193.875 104.507 193.755 104.64C193.595 104.827 193.182 104.92 192.515 104.92C191.822 104.92 190.948 105.033 189.895 105.26C188.815 105.487 188.095 105.6 187.735 105.6C187.495 105.613 187.342 105.6 187.275 105.56C187.222 105.507 187.195 105.393 187.195 105.22C187.195 105.073 187.248 104.94 187.355 104.82C187.462 104.7 187.615 104.607 187.815 104.54C188.028 104.473 188.262 104.44 188.515 104.44C188.875 104.44 189.322 104.367 189.855 104.22C190.348 104.073 190.895 103.987 191.495 103.96C192.095 103.96 192.495 103.913 192.695 103.82ZM190.795 106.46C191.168 106.313 191.608 106.287 192.115 106.38C192.635 106.46 192.968 106.62 193.115 106.86C193.195 106.98 193.228 107.333 193.215 107.92C193.215 108.493 193.175 108.887 193.095 109.1C192.922 109.527 192.155 109.78 190.795 109.86C189.995 109.9 189.568 109.92 189.515 109.92C189.382 109.933 189.315 110.067 189.315 110.32C189.315 110.573 189.422 110.72 189.635 110.76C189.862 110.813 190.248 110.78 190.795 110.66C192.355 110.273 193.242 110.26 193.455 110.62C193.495 110.753 193.522 110.86 193.535 110.94C193.562 111.02 193.468 111.1 193.255 111.18C193.042 111.26 192.768 111.333 192.435 111.4C192.102 111.48 191.602 111.58 190.935 111.7C189.962 111.86 189.255 111.833 188.815 111.62C188.388 111.407 188.175 110.973 188.175 110.32C188.175 109.867 188.302 109.56 188.555 109.4C188.822 109.227 189.382 109.1 190.235 109.02C191.222 108.9 191.788 108.787 191.935 108.68C192.082 108.56 192.155 108.32 192.155 107.96C192.155 107.707 192.128 107.56 192.075 107.52C192.022 107.467 191.848 107.44 191.555 107.44C191.195 107.44 190.568 107.527 189.675 107.7C188.715 107.9 188.195 107.9 188.115 107.7C188.088 107.607 188.115 107.46 188.195 107.26C188.248 107.087 188.348 106.967 188.495 106.9C188.642 106.82 188.908 106.74 189.295 106.66C189.948 106.527 190.308 106.48 190.375 106.52C190.455 106.573 190.595 106.553 190.795 106.46ZM205.479 99.52C205.493 99.3467 205.506 99.22 205.519 99.14C205.546 99.06 205.579 99.0067 205.619 98.98C205.673 98.9533 205.759 98.94 205.879 98.94C206.199 98.94 206.399 99.0467 206.479 99.26C206.573 99.46 206.573 99.8333 206.479 100.38C206.359 101.087 206.319 101.913 206.359 102.86C206.426 103.367 206.433 103.773 206.379 104.08C206.326 104.387 206.246 104.607 206.139 104.74C206.046 104.86 205.866 104.993 205.599 105.14C205.306 105.287 204.546 105.367 203.319 105.38C202.093 105.393 201.419 105.333 201.299 105.2C201.099 104.947 200.979 103.947 200.939 102.2C200.913 100.44 200.999 99.46 201.199 99.26C201.346 99.1 201.513 99.0733 201.699 99.18C201.806 99.26 201.873 99.38 201.899 99.54C201.926 99.7 201.933 99.9933 201.919 100.42L201.859 101.5L202.619 101.42C203.179 101.353 203.566 101.287 203.779 101.22C204.166 101.14 204.506 101.073 204.799 101.02C205.133 100.953 205.326 100.867 205.379 100.76C205.433 100.653 205.466 100.24 205.479 99.52ZM204.999 102.18C204.773 102.127 204.573 102.1 204.399 102.1C204.266 102.113 203.893 102.193 203.279 102.34C202.666 102.473 202.266 102.573 202.079 102.64C201.933 102.693 201.893 102.94 201.959 103.38C202.039 103.82 202.119 104.093 202.199 104.2C202.279 104.28 202.753 104.307 203.619 104.28C204.499 104.24 205.013 104.173 205.159 104.08C205.279 104 205.339 103.68 205.339 103.12C205.339 102.92 205.333 102.773 205.319 102.68C205.319 102.573 205.306 102.487 205.279 102.42C205.253 102.34 205.219 102.287 205.179 102.26C205.139 102.233 205.079 102.207 204.999 102.18ZM206.459 106.5C206.899 106.327 207.233 106.313 207.459 106.46C207.699 106.593 207.739 106.84 207.579 107.2C207.499 107.387 207.393 107.5 207.259 107.54C207.139 107.58 206.839 107.6 206.359 107.6H205.339V109.46C205.339 109.967 205.333 110.36 205.319 110.64C205.306 110.92 205.279 111.127 205.239 111.26C205.213 111.407 205.166 111.513 205.099 111.58C204.633 112.033 204.366 111.787 204.299 110.84C204.259 110.493 204.246 110.06 204.259 109.54C204.286 108.447 204.273 107.873 204.219 107.82C204.166 107.753 203.813 107.807 203.159 107.98C202.493 108.153 201.973 108.22 201.599 108.18C201.346 108.167 201.186 108.133 201.119 108.08C201.053 108.027 201.019 107.913 201.019 107.74C201.019 107.46 201.206 107.26 201.579 107.14C201.953 107.02 202.739 106.913 203.939 106.82C205.366 106.7 206.206 106.593 206.459 106.5ZM210.594 99.5C211.194 99.3667 211.92 99.2867 212.774 99.26C213.414 99.26 213.84 99.3133 214.054 99.42C214.28 99.5133 214.367 99.7 214.314 99.98C214.287 100.1 214.214 100.18 214.094 100.22C213.987 100.247 213.747 100.247 213.374 100.22C212.88 100.193 212.26 100.24 211.514 100.36C210.78 100.467 210.3 100.587 210.074 100.72C209.94 100.8 209.854 100.907 209.814 101.04C209.787 101.173 209.78 101.42 209.794 101.78C209.794 101.833 209.8 101.913 209.814 102.02C209.814 102.34 209.894 102.527 210.054 102.58C210.214 102.62 210.774 102.607 211.734 102.54C212.08 102.513 212.36 102.493 212.574 102.48L214.334 102.34V102.78C214.334 103.047 214.2 103.227 213.934 103.32C213.68 103.413 213.107 103.487 212.214 103.54C211.254 103.607 210.634 103.7 210.354 103.82C210.074 103.94 209.934 104.173 209.934 104.52C209.934 104.84 210 105.02 210.134 105.06C210.28 105.087 210.714 105.033 211.434 104.9C213.207 104.58 214.227 104.507 214.494 104.68C214.64 104.773 214.687 104.92 214.634 105.12C214.594 105.307 214.487 105.413 214.314 105.44C214.234 105.453 213.507 105.593 212.134 105.86C212.054 105.873 211.947 105.893 211.814 105.92C210.574 106.16 209.847 106.28 209.634 106.28C209.42 106.28 209.28 106.173 209.214 105.96C209.2 105.933 209.194 105.913 209.194 105.9C209.087 105.633 209.02 105.053 208.994 104.16C208.98 103.32 208.92 102.747 208.814 102.44C208.72 102.2 208.674 101.793 208.674 101.22C208.674 100.847 208.694 100.593 208.734 100.46C208.787 100.327 208.92 100.187 209.134 100.04C209.44 99.8133 209.927 99.6333 210.594 99.5ZM216.854 99.56C217 99.48 217.147 99.4733 217.294 99.54C217.44 99.6067 217.554 99.7267 217.634 99.9C217.7 100.113 217.7 100.52 217.634 101.12C217.567 101.707 217.554 102.067 217.594 102.2C217.647 102.333 218.014 102.38 218.694 102.34C219.134 102.327 219.42 102.34 219.554 102.38C219.687 102.407 219.767 102.48 219.794 102.6C219.887 103.093 219.52 103.34 218.694 103.34C218.08 103.34 217.714 103.42 217.594 103.58C217.474 103.727 217.44 104.153 217.494 104.86C217.574 105.673 217.587 106.12 217.534 106.2C217.494 106.28 217.314 106.32 216.994 106.32C216.687 106.32 216.5 106.167 216.434 105.86C216.38 105.54 216.387 104.68 216.454 103.28C216.52 101.68 216.574 100.68 216.614 100.28C216.667 99.8667 216.747 99.6267 216.854 99.56ZM215.894 107.38C215.96 107.38 216.034 107.373 216.114 107.36C216.194 107.347 216.26 107.34 216.314 107.34C216.367 107.327 216.414 107.32 216.454 107.32C216.507 107.32 216.534 107.32 216.534 107.32C216.587 107.307 216.7 107.353 216.874 107.46C217.047 107.607 217.16 108.34 217.214 109.66L217.314 111.64L216.894 111.76C216.614 111.813 216.42 111.787 216.314 111.68C216.22 111.587 216.147 111.033 216.094 110.02L216.014 108.54H215.434C215.087 108.54 214.547 108.647 213.814 108.86C213.334 109.007 213.02 109.087 212.874 109.1C212.727 109.113 212.607 109.067 212.514 108.96C212.38 108.827 212.334 108.687 212.374 108.54C212.414 108.38 212.54 108.233 212.754 108.1C212.9 108.007 213.334 107.88 214.054 107.72C214.774 107.56 215.387 107.447 215.894 107.38ZM226.142 99.78C226.236 99.7 226.349 99.7267 226.482 99.86C226.629 99.9933 226.729 100.147 226.782 100.32C226.849 100.493 226.856 100.633 226.802 100.74C226.709 100.82 226.062 100.873 224.862 100.9C224.156 100.9 223.656 100.92 223.362 100.96C223.069 101 222.836 101.08 222.662 101.2C222.542 101.267 222.462 101.32 222.422 101.36C222.382 101.4 222.342 101.493 222.302 101.64C222.262 101.773 222.242 101.927 222.242 102.1C222.242 102.26 222.242 102.54 222.242 102.94C222.242 103.927 222.282 104.453 222.362 104.52C222.442 104.56 222.796 104.587 223.422 104.6C224.116 104.6 224.982 104.52 226.022 104.36C226.396 104.293 226.656 104.347 226.802 104.52C227.136 104.933 226.849 105.233 225.942 105.42C225.836 105.447 225.722 105.467 225.602 105.48C224.922 105.587 224.136 105.667 223.242 105.72C222.362 105.773 221.869 105.773 221.762 105.72C221.629 105.627 221.489 105.24 221.342 104.56C221.196 103.867 221.122 103.26 221.122 102.74C221.122 102.06 221.069 101.633 220.962 101.46C220.856 101.233 220.949 101.007 221.242 100.78C221.536 100.553 221.982 100.367 222.582 100.22C223.182 100.06 223.849 99.96 224.582 99.92C225.596 99.8667 226.116 99.82 226.142 99.78ZM226.602 108.46C226.669 108.38 226.816 108.353 227.042 108.38C227.282 108.407 227.442 108.46 227.522 108.54C227.656 108.673 227.682 108.84 227.602 109.04C227.536 109.227 227.402 109.353 227.202 109.42C227.002 109.487 226.416 109.513 225.442 109.5C224.576 109.487 223.649 109.52 222.662 109.6C222.276 109.627 221.922 109.64 221.602 109.64C221.296 109.64 221.109 109.62 221.042 109.58C220.909 109.5 220.836 109.367 220.822 109.18C220.809 108.98 220.876 108.827 221.022 108.72C221.129 108.627 222.076 108.567 223.862 108.54C225.662 108.527 226.576 108.5 226.602 108.46ZM231.774 100.38C232.548 100.313 233.041 100.3 233.254 100.34C233.468 100.367 233.601 100.493 233.654 100.72C233.721 100.987 233.754 101.627 233.754 102.64C233.768 103.64 233.741 104.193 233.674 104.3C233.621 104.393 233.461 104.5 233.194 104.62C232.928 104.727 232.434 104.907 231.714 105.16L230.694 105.5L230.634 106.16C230.594 106.747 230.621 107.133 230.714 107.32C230.808 107.507 231.028 107.6 231.374 107.6C231.828 107.6 232.308 107.533 232.814 107.4C233.188 107.32 233.428 107.287 233.534 107.3C233.654 107.313 233.761 107.387 233.854 107.52C234.001 107.72 234.061 107.893 234.034 108.04C233.981 108.32 233.014 108.56 231.134 108.76C230.681 108.813 230.394 108.833 230.274 108.82C230.168 108.793 230.074 108.693 229.994 108.52C229.861 108.293 229.768 107.707 229.714 106.76C229.674 106.08 229.668 105.66 229.694 105.5C229.734 105.327 229.861 105.133 230.074 104.92C230.354 104.613 230.801 104.373 231.414 104.2C232.068 104 232.461 103.8 232.594 103.6C232.741 103.387 232.788 102.967 232.734 102.34L232.614 101.28L231.954 101.4C231.581 101.44 231.161 101.54 230.694 101.7C229.601 102.06 228.954 102.12 228.754 101.88C228.488 101.573 228.721 101.26 229.454 100.94C230.068 100.66 230.841 100.473 231.774 100.38ZM238.394 101.18C238.461 100.953 238.614 100.84 238.854 100.84C239.134 100.84 239.314 100.92 239.394 101.08C239.488 101.24 239.494 101.493 239.414 101.84C239.308 102.347 239.228 103.393 239.174 104.98C239.134 106.553 239.154 107.567 239.234 108.02C239.314 108.487 239.308 108.82 239.214 109.02C239.121 109.22 238.921 109.32 238.614 109.32C238.414 109.32 238.288 109.247 238.234 109.1C238.194 108.94 238.141 108.467 238.074 107.68C238.021 106.733 237.968 106.233 237.914 106.18C237.861 106.14 237.448 106.187 236.674 106.32C235.981 106.44 235.534 106.48 235.334 106.44C235.148 106.387 235.074 106.22 235.114 105.94C235.168 105.713 235.281 105.56 235.454 105.48C235.628 105.4 236.041 105.313 236.694 105.22C237.268 105.153 237.654 105.06 237.854 104.94C238.054 104.807 238.154 104.607 238.154 104.34C238.154 104.087 238.054 103.94 237.854 103.9C237.668 103.86 237.301 103.913 236.754 104.06C236.208 104.207 235.828 104.26 235.614 104.22C235.414 104.18 235.314 104.02 235.314 103.74C235.314 103.487 235.434 103.3 235.674 103.18C235.914 103.06 236.314 102.973 236.874 102.92C237.474 102.853 237.861 102.767 238.034 102.66C238.221 102.553 238.314 102.347 238.314 102.04C238.314 101.733 238.341 101.447 238.394 101.18ZM242.411 98.9C242.891 98.7267 243.351 98.6733 243.791 98.74C244.244 98.7933 244.664 98.9733 245.051 99.28C245.451 99.5867 245.777 100 246.031 100.52C246.284 101.013 246.404 101.473 246.391 101.9C246.391 102.327 246.257 102.8 245.991 103.32C245.777 103.747 245.524 104.067 245.231 104.28C244.937 104.48 244.564 104.613 244.111 104.68C243.351 104.787 242.631 104.64 241.951 104.24C241.271 103.84 240.837 103.327 240.651 102.7C240.384 101.847 240.411 101.087 240.731 100.42C241.051 99.7533 241.611 99.2467 242.411 98.9ZM244.031 99.72C243.897 99.72 243.751 99.6933 243.591 99.64C243.351 99.56 242.971 99.7067 242.451 100.08C241.931 100.453 241.617 100.813 241.511 101.16C241.471 101.293 241.464 101.453 241.491 101.64C241.517 101.813 241.564 101.993 241.631 102.18C241.697 102.353 241.784 102.527 241.891 102.7C242.011 102.873 242.137 103.02 242.271 103.14C242.777 103.593 243.291 103.8 243.811 103.76C244.331 103.72 244.744 103.447 245.051 102.94C245.544 102.14 245.464 101.307 244.811 100.44C244.424 99.96 244.164 99.72 244.031 99.72ZM244.871 105.94C244.977 105.687 245.111 105.56 245.271 105.56C245.444 105.547 245.591 105.673 245.711 105.94C245.817 106.193 245.804 106.633 245.671 107.26C245.537 107.86 245.511 108.227 245.591 108.36C245.657 108.48 246.057 108.54 246.791 108.54C247.297 108.54 247.611 108.56 247.731 108.6C247.864 108.627 247.964 108.72 248.031 108.88C248.124 109.16 248.091 109.353 247.931 109.46C247.784 109.567 247.451 109.613 246.931 109.6C246.517 109.587 246.004 109.613 245.391 109.68C244.791 109.733 244.364 109.793 244.111 109.86C243.991 109.9 243.684 109.96 243.191 110.04C242.711 110.133 242.237 110.22 241.771 110.3C241.304 110.38 241.024 110.42 240.931 110.42C240.771 110.42 240.651 110.313 240.571 110.1C240.491 109.887 240.511 109.707 240.631 109.56C240.737 109.427 240.997 109.327 241.411 109.26L241.991 109.18V107.9C242.004 107.193 242.057 106.747 242.151 106.56C242.244 106.36 242.444 106.3 242.751 106.38C242.937 106.433 243.044 106.52 243.071 106.64C243.111 106.747 243.124 107.08 243.111 107.64L243.071 108.76L243.851 108.82C244.344 108.847 244.591 108.82 244.591 108.74C244.591 108.38 244.604 108 244.631 107.6C244.671 107.2 244.711 106.853 244.751 106.56C244.804 106.267 244.844 106.06 244.871 105.94ZM249.484 108.48C249.684 108.387 249.851 108.353 249.984 108.38C250.131 108.393 250.291 108.48 250.464 108.64C250.611 108.76 250.704 108.86 250.744 108.94C250.784 109.007 250.804 109.113 250.804 109.26C250.804 109.913 250.471 110.24 249.804 110.24C249.711 110.24 249.631 110.233 249.564 110.22C249.511 110.207 249.464 110.18 249.424 110.14C249.384 110.113 249.331 110.067 249.264 110C249.131 109.84 249.064 109.607 249.064 109.3C249.064 109.06 249.091 108.887 249.144 108.78C249.198 108.673 249.311 108.573 249.484 108.48Z" fill="#777777"/>
</svg>
