<svg width="287" height="230" viewBox="0 0 287 230" fill="none" xmlns="http://www.w3.org/2000/svg">
<path d="M215.822 161.157C215.667 160.337 215.503 159.525 215.348 158.705C215.244 158.164 215.727 157.745 216.245 157.876C219.505 158.731 231.406 159.839 234.717 159.194C234.898 159.159 235.088 159.124 235.269 159.08C235.519 159.028 235.502 159.045 235.563 158.827C235.683 158.4 235.623 157.815 235.649 157.362C235.701 156.454 235.761 155.547 235.813 154.648C235.925 152.764 236.037 150.888 236.149 149.004C236.261 147.189 236.485 145.348 236.468 143.534C236.468 142.661 236.209 141.963 235.675 141.283C235.209 140.689 234.674 140.122 234.329 139.442C233.605 138.002 233.976 136.441 234.019 134.914C234.071 133.405 233.027 131.852 233.76 130.395C234.519 128.903 236.339 129.077 237.451 130.028C238.443 130.875 238.659 132.087 238.805 133.309L239.797 131.564C240.323 130.63 240.797 129.479 241.668 128.807C243.117 127.708 245.075 128.51 245.584 130.054C245.972 129.976 246.386 130.028 246.757 130.22C247.231 130.465 247.524 130.866 247.705 131.328C248.524 130.927 249.602 131.058 250.31 131.686C251.586 132.811 251.508 134.678 250.982 136.161C250.111 138.604 248.3 140.864 246.282 142.443C245.782 142.836 245.221 143.202 244.618 143.481C243.566 149.126 242.6 154.797 241.453 160.415C240.987 162.692 240.116 165.85 237.356 165.999C235.994 166.068 234.562 165.815 233.2 165.693C231.777 165.571 221.885 164.481 220.462 164.358C219.712 164.297 218.97 164.228 218.22 164.167C217.538 164.105 216.745 164.114 216.348 163.442C215.977 162.806 215.952 161.881 215.814 161.165L215.822 161.157Z" fill="#EF6767"/>
<path d="M216.272 161.157C216.117 160.337 215.953 159.525 215.798 158.705C215.695 158.164 216.177 157.745 216.695 157.876C219.955 158.731 231.856 159.839 235.168 159.194C235.349 159.159 235.538 159.124 235.72 159.08C235.97 159.028 235.952 159.045 236.013 158.827C236.133 158.4 236.073 157.815 236.099 157.362C236.151 156.454 236.211 155.547 236.263 154.648C236.375 152.764 236.487 150.888 236.599 149.004C236.711 147.189 236.935 145.348 236.918 143.534C236.918 142.661 236.66 141.963 236.125 141.283C235.659 140.689 235.124 140.122 234.779 139.442C234.055 138.002 234.426 136.441 234.469 134.914C234.521 133.405 233.477 131.852 234.21 130.395C234.969 128.903 236.789 129.077 237.901 130.028C238.893 130.875 239.109 132.087 239.255 133.309L240.247 131.564C240.773 130.63 241.248 129.479 242.119 128.807C243.567 127.708 245.525 128.51 246.034 130.054C246.422 129.976 246.836 130.028 247.207 130.22C247.681 130.465 247.974 130.866 248.155 131.328C248.975 130.927 250.053 131.058 250.76 131.686C252.036 132.811 251.959 134.678 251.432 136.161C250.561 138.604 248.75 140.864 246.732 142.443C246.232 142.836 245.672 143.202 245.068 143.481C244.016 149.126 243.05 154.797 241.903 160.415C241.437 162.692 240.566 165.85 237.807 165.999C236.444 166.068 235.012 165.815 233.65 165.693C232.227 165.571 222.335 164.481 220.912 164.358C220.162 164.297 219.42 164.228 218.67 164.167C217.989 164.105 217.195 164.114 216.798 163.442C216.428 162.806 216.402 161.881 216.264 161.165L216.272 161.157Z" fill="url(#paint0_radial_0_1)"/>
<path fill-rule="evenodd" clip-rule="evenodd" d="M236.377 142.692C236.43 142.933 236.457 143.189 236.457 143.468C236.466 144.446 236.214 145.432 235.962 146.417C235.747 147.259 235.532 148.101 235.48 148.938C235.424 149.88 235.258 150.715 235.092 151.55C234.926 152.385 234.76 153.22 234.704 154.163C234.669 154.75 234.611 155.351 234.557 155.908C234.469 156.828 234.392 157.629 234.448 158.057C229.148 158.044 215.249 158.248 215.334 158.692C215.412 159.102 215.492 159.51 215.571 159.917C215.651 160.325 215.731 160.733 215.809 161.143L215.8 161.152C215.837 161.344 215.866 161.551 215.896 161.764C215.977 162.343 216.063 162.963 216.335 163.429C216.692 164.034 217.371 164.087 218 164.136C218.069 164.142 218.138 164.147 218.206 164.153C218.581 164.184 218.913 164.293 219.244 164.402C219.575 164.511 219.907 164.62 220.282 164.651C220.993 164.712 222.212 164.906 223.43 165.1C224.649 165.295 225.868 165.489 226.579 165.55L226.6 165.552C228.024 165.68 236.437 166.434 237.793 166.364C240.552 166.216 242.274 160.335 242.74 158.058C243.331 155.162 243.46 152.875 243.591 150.565C243.705 148.546 243.82 146.51 244.245 144.035L236.377 142.692Z" fill="white"/>
<path d="M99.1095 178.911C99.0146 178.082 98.9198 177.262 98.8335 176.434C98.7732 175.884 98.1867 175.64 97.7297 175.919C94.8751 177.725 83.8622 182.41 80.5075 182.811C80.3178 182.837 80.1367 182.855 79.9469 182.872C79.6968 182.898 79.7141 182.907 79.5934 182.715C79.3519 182.34 79.2398 181.764 79.0759 181.345C78.7568 180.499 78.4291 179.653 78.11 178.807C77.446 177.044 76.7733 175.291 76.1093 173.528C75.4625 171.836 74.6949 170.143 74.1688 168.407C73.9188 167.578 73.9532 166.828 74.2551 166.025C74.5224 165.31 74.8674 164.612 74.9881 163.853C75.2469 162.265 74.4362 160.887 73.9274 159.439C73.4358 158.017 73.9619 156.211 72.8235 155.059C71.6593 153.873 69.969 154.588 69.1928 155.835C68.4942 156.943 68.6495 158.165 68.8737 159.378C68.3821 158.924 67.8992 158.47 67.4076 158.008C66.6228 157.275 65.8294 156.324 64.8032 155.958C63.0956 155.347 61.4657 156.717 61.4484 158.339C61.0603 158.383 60.6723 158.566 60.379 158.854C59.9996 159.229 59.8444 159.7 59.8012 160.198C58.8957 160.067 57.9126 160.52 57.421 161.332C56.5414 162.797 57.1709 164.551 58.1109 165.799C59.6719 167.866 62.0694 169.463 64.4668 170.353C65.0619 170.571 65.7087 170.754 66.3641 170.841C69.0462 175.901 71.6593 181.014 74.4362 186.022C75.5573 188.054 77.3339 190.794 80.0073 190.096C81.3354 189.747 82.6204 189.066 83.8795 188.534C85.199 187.985 94.3059 183.928 95.6254 183.369C96.3153 183.081 97.0139 182.794 97.7038 182.497C98.342 182.235 99.1009 182 99.2734 181.232C99.4372 180.508 99.1871 179.618 99.1009 178.894L99.1095 178.911Z" fill="#EF6767"/>
<path d="M99.1095 178.847C99.0146 178.018 98.9198 177.198 98.8335 176.369C98.7732 175.819 98.1867 175.575 97.7297 175.854C94.8751 177.66 83.8622 182.345 80.5075 182.747C80.3178 182.773 80.1367 182.79 79.9469 182.808C79.6968 182.834 79.7141 182.843 79.5934 182.651C79.3519 182.275 79.2398 181.7 79.0759 181.281C78.7568 180.435 78.4291 179.588 78.11 178.742C77.446 176.98 76.7733 175.226 76.1093 173.464C75.4625 171.771 74.6949 170.079 74.1688 168.343C73.9188 167.514 73.9532 166.764 74.2551 165.961C74.5224 165.246 74.8674 164.548 74.9881 163.789C75.2469 162.201 74.4362 160.822 73.9274 159.374C73.4358 157.952 73.9619 156.146 72.8235 154.995C71.6593 153.808 69.969 154.523 69.1928 155.771C68.4942 156.879 68.6495 158.1 68.8737 159.313C68.3821 158.859 67.8992 158.406 67.4076 157.943C66.6228 157.211 65.8294 156.26 64.8032 155.893C63.0956 155.282 61.4657 156.652 61.4484 158.275C61.0603 158.319 60.6723 158.502 60.379 158.79C59.9996 159.165 59.8444 159.636 59.8012 160.133C58.8957 160.002 57.9126 160.456 57.421 161.267C56.5414 162.733 57.1709 164.487 58.1109 165.734C59.6719 167.802 62.0694 169.398 64.4668 170.288C65.0619 170.506 65.7087 170.69 66.3641 170.777C69.0462 175.837 71.6593 180.949 74.4362 185.957C75.5573 187.99 77.3339 190.729 80.0073 190.031C81.3354 189.682 82.6204 189.002 83.8795 188.47C85.199 187.92 94.3059 183.863 95.6254 183.305C96.3153 183.017 97.0139 182.729 97.7038 182.433C98.342 182.171 99.1009 181.935 99.2734 181.167C99.4372 180.443 99.1871 179.553 99.1009 178.829L99.1095 178.847Z" fill="url(#paint1_radial_0_1)"/>
<path d="M142.809 207.627L139.109 220.347C139.109 220.347 126.311 224.508 128.07 229.787L150.148 227.789L152.563 208.325L142.809 207.627Z" fill="#EF6767"/>
<path d="M142.809 207.627L139.109 220.347C139.109 220.347 126.311 224.508 128.07 229.787L150.148 227.789L152.563 208.325L142.809 207.627Z" fill="url(#paint2_radial_0_1)"/>
<path d="M185.749 201.169L194.131 211.359C194.131 211.359 190.414 224.428 195.735 225.885L206.394 206.22L191.759 193.352L185.757 201.16L185.749 201.169Z" fill="#EF6767"/>
<path d="M185.749 201.169L194.131 211.359C194.131 211.359 190.414 224.428 195.735 225.885L206.394 206.22L191.759 193.352L185.757 201.16L185.749 201.169Z" fill="url(#paint3_radial_0_1)"/>
<path fill-rule="evenodd" clip-rule="evenodd" d="M66.5045 171.14C67.6225 173.259 68.6985 175.43 69.7759 177.604C71.2335 180.544 72.6937 183.49 74.2642 186.322C75.3854 188.355 77.492 191.068 80.1655 190.371C80.6918 190.232 81.027 190.181 81.3184 190.137C81.7623 190.069 82.1042 190.017 82.8643 189.696C84.6636 189.696 94.3345 184.748 95.9089 183.848C96.2593 183.702 96.5979 183.491 96.9367 183.279C97.265 183.075 97.5935 182.87 97.933 182.724C98.5712 182.462 99.11 182.05 99.2825 181.282C99.4037 180.747 99.2985 180.121 99.2006 179.538C99.1661 179.333 99.1325 179.133 99.11 178.944L99.1187 178.961C99.1097 178.883 99.1008 178.806 99.0919 178.728C99.006 177.978 98.9208 177.235 98.8427 176.484C98.7823 175.934 98.1959 175.69 97.7388 175.969C95.3201 176.335 92.1221 177.774 89.2631 179.061C88.0982 179.585 86.9897 180.084 86.013 180.475C85.9009 180.49 85.3215 180.766 84.8494 180.992C84.5228 181.147 84.2476 181.279 84.2138 181.282C83.9637 181.308 82.4145 182.049 81.4775 182.499C81.7207 182.094 81.3473 181.567 80.8549 180.872C80.4681 180.326 80.0078 179.676 79.7156 178.9C79.6145 178.117 78.8772 176.963 77.9198 175.463C76.7478 173.628 75.246 171.276 74.178 168.457C74.1115 168.237 74.0651 168.022 74.0386 167.811L66.5045 171.14Z" fill="white"/>
<path d="M169.837 218.562C167.802 220.604 164.706 221.11 162.136 219.819L125.553 201.445C86.7535 182.269 80.1647 156.716 80.1647 156.716C72.4894 122.996 95.1188 115.127 95.1188 115.127C122.811 105.722 143.5 120.911 151.477 128.301C156.746 118.748 171.648 97.7394 200.866 97.8441C200.866 97.8441 224.798 98.0972 228.006 132.549C228.006 132.549 229.705 158.897 198.848 189.467L169.846 218.562H169.837Z" fill="#EF6767"/>
<path fill-rule="evenodd" clip-rule="evenodd" d="M174.176 156.634C184.237 156.634 192.394 148.478 192.394 138.417C192.394 128.355 184.237 120.199 174.176 120.199C164.115 120.199 155.959 128.355 155.959 138.417C155.959 148.478 164.115 156.634 174.176 156.634ZM174.176 154.206C182.896 154.206 189.964 147.138 189.964 138.418C189.964 129.698 182.896 122.63 174.176 122.63C165.456 122.63 158.388 129.698 158.388 138.418C158.388 147.138 165.456 154.206 174.176 154.206Z" fill="#4A0F02"/>
<path fill-rule="evenodd" clip-rule="evenodd" d="M132.344 162.932C142.405 162.932 150.561 154.776 150.561 144.714C150.561 134.653 142.405 126.497 132.344 126.497C122.283 126.497 114.126 134.653 114.126 144.714C114.126 154.776 122.283 162.932 132.344 162.932ZM132.343 160.504C141.063 160.504 148.132 153.436 148.132 144.716C148.132 135.996 141.063 128.927 132.343 128.927C123.624 128.927 116.555 135.996 116.555 144.716C116.555 153.436 123.624 160.504 132.343 160.504Z" fill="#4A0F02"/>
<rect x="148.761" y="143.747" width="8.57153" height="2.24906" transform="rotate(-7.07915 148.761 143.747)" fill="#4A0F02"/>
<path fill-rule="evenodd" clip-rule="evenodd" d="M125.578 201.592C111.768 194.767 102.039 187.134 95.2351 180.132L220.216 161.136C215.899 169.599 209.214 179.369 198.874 189.614L185.153 203.379L142.336 210.008L125.578 201.592Z" fill="#202F83"/>
<line x1="158.88" y1="182.242" x2="162.478" y2="205.182" stroke="#878787" stroke-width="0.449812"/>
<circle cx="157.69" cy="195.327" r="1.03125" transform="rotate(-9.11087 157.69 195.327)" fill="#98B5FF" stroke="white" stroke-width="0.0711208"/>
<circle cx="156.731" cy="189.346" r="1.03125" transform="rotate(-9.11087 156.731 189.346)" fill="#98B5FF" stroke="white" stroke-width="0.0711208"/>
<circle cx="158.649" cy="201.307" r="1.03125" transform="rotate(-9.11087 158.649 201.307)" fill="#98B5FF" stroke="white" stroke-width="0.0711208"/>
<path d="M158.156 182.634C158.56 182.896 159.094 182.82 159.409 182.458L167.123 173.593C167.71 172.919 167.145 171.879 166.26 172.003L148.682 174.482C147.797 174.606 147.542 175.762 148.292 176.248L158.156 182.634Z" fill="white"/>
<path d="M158.022 181.678C158.425 181.939 158.959 181.864 159.274 181.502L166.988 172.636C167.575 171.963 167.01 170.922 166.126 171.047L148.547 173.525C147.662 173.65 147.407 174.806 148.157 175.291L158.022 181.678Z" fill="#202F83"/>
<path d="M157.887 180.723C158.29 180.984 158.824 180.909 159.139 180.546L166.854 171.681C167.44 171.007 166.875 169.967 165.991 170.092L148.412 172.57C147.528 172.695 147.273 173.85 148.022 174.336L157.887 180.723Z" fill="white"/>
<path d="M157.752 179.767C158.155 180.028 158.689 179.953 159.005 179.59L166.719 170.725C167.305 170.051 166.74 169.011 165.856 169.136L148.277 171.614C147.393 171.739 147.138 172.894 147.888 173.38L157.752 179.767Z" fill="#202F83"/>
<path d="M157.617 178.803C158.02 179.064 158.554 178.989 158.869 178.626L166.584 169.761C167.17 169.087 166.605 168.047 165.721 168.172L148.142 170.65C147.258 170.775 147.003 171.93 147.752 172.416L157.617 178.803Z" fill="#EF6767"/>
<path d="M169.146 185.464L170.63 192.951L172.14 192.651L171.164 187.729L171.226 187.716L174.15 192.22L175.185 192.015L176.173 186.757L176.235 186.745L177.207 191.646L178.717 191.347L177.232 183.86L175.309 184.241L174.237 189.731L174.154 189.748L171.069 185.082L169.146 185.464Z" fill="white"/>
<path fill-rule="evenodd" clip-rule="evenodd" d="M138.87 208.289L142.452 210.093L185.163 203.463L187.893 200.718L138.87 208.289Z" fill="white"/>
<rect x="175.3" y="196.082" width="0.420877" height="5.46327" rx="0.210438" transform="rotate(-48 175.3 196.082)" fill="#878787"/>
<rect x="147.595" y="199.819" width="0.420877" height="5.46327" rx="0.210438" transform="rotate(26.4393 147.595 199.819)" fill="#878787"/>
<path d="M159.407 184.159C159.544 184.159 159.68 184.139 159.81 184.099L221.663 165.045C223.257 164.554 222.718 162.175 221.068 162.42L94.4939 181.205C92.8441 181.449 93.0185 183.882 94.6864 183.889L159.407 184.159Z" fill="white"/>
<path d="M159.21 182.823C159.346 182.823 159.482 182.803 159.613 182.763L221.466 163.709C223.06 163.218 222.52 160.84 220.87 161.084L94.2964 179.869C92.6466 180.114 92.821 182.546 94.4889 182.553L159.21 182.823Z" fill="#202F83"/>
<path d="M158.945 181.044C159.082 181.045 159.218 181.025 159.348 180.985L221.201 161.931C222.795 161.439 222.256 159.061 220.606 159.306L94.0321 178.09C92.3823 178.335 92.5567 180.768 94.2246 180.775L158.945 181.044Z" fill="white"/>
<path d="M158.747 179.709C158.884 179.71 159.02 179.69 159.15 179.65L221.003 160.596C222.597 160.105 222.058 157.726 220.408 157.971L93.8341 176.755C92.1843 177 92.3587 179.433 94.0266 179.44L158.747 179.709Z" fill="#202F83"/>
<path d="M158.483 177.931C158.62 177.932 158.755 177.912 158.886 177.871L220.739 158.817C222.333 158.326 221.794 155.948 220.144 156.193L93.5697 174.977C91.9199 175.222 92.0943 177.654 93.7622 177.661L158.483 177.931Z" fill="#EF6767"/>
<path d="M172.63 150.846C177.829 150.424 181.698 145.73 181.273 140.36C180.848 134.99 176.289 130.979 171.09 131.4C165.891 131.822 162.022 136.516 162.447 141.886C162.872 147.255 167.431 151.267 172.63 150.846Z" fill="white"/>
<path d="M162.062 141.623C162.579 146.674 166.96 150.347 171.85 149.832C176.74 149.318 180.285 144.798 179.767 139.756C179.25 134.704 174.869 131.031 169.979 131.546C165.089 132.061 161.545 136.58 162.062 141.623Z" fill="#403E3D"/>
<path d="M126.084 146.909C126.636 152.266 131.285 156.165 136.468 155.616C141.659 155.066 145.419 150.276 144.868 144.92C144.316 139.563 139.667 135.663 134.484 136.213C129.293 136.762 125.532 141.552 126.084 146.909Z" fill="white"/>
<path d="M125.842 146.218C126.359 151.27 130.74 154.943 135.63 154.428C140.52 153.913 144.064 149.394 143.547 144.351C143.03 139.3 138.649 135.627 133.759 136.142C128.869 136.657 125.324 141.176 125.842 146.218Z" fill="#403E3D"/>
<path d="M147.538 162.266C147.538 162.266 154.843 169.342 163.346 160.129" stroke="#403E3D" stroke-width="2.38974" stroke-linecap="round" stroke-linejoin="round"/>
<rect x="236.475" y="142.243" width="8.20777" height="2.58578" rx="0.449812" transform="rotate(7.92954 236.475 142.243)" fill="white"/>
<rect x="236.227" y="144.025" width="8.20777" height="2.58578" rx="0.449812" transform="rotate(7.92954 236.227 144.025)" fill="#202F83"/>
<rect x="235.978" y="145.808" width="8.20777" height="2.58578" rx="0.449812" transform="rotate(7.92954 235.978 145.808)" fill="white"/>
<rect x="235.731" y="147.588" width="8.20777" height="2.58578" rx="0.449812" transform="rotate(7.92954 235.731 147.588)" fill="#202F83"/>
<rect x="235.482" y="149.372" width="8.20777" height="2.58578" rx="0.449812" transform="rotate(7.92954 235.482 149.372)" fill="white"/>
<rect x="66.5934" y="171.16" width="8.20777" height="2.58578" rx="0.449812" transform="rotate(-26.4286 66.5934 171.16)" fill="white"/>
<rect x="67.3947" y="172.771" width="8.20777" height="2.58578" rx="0.449812" transform="rotate(-26.4286 67.3947 172.771)" fill="#202F83"/>
<rect x="68.1952" y="174.383" width="8.20777" height="2.58578" rx="0.449812" transform="rotate(-26.4286 68.1952 174.383)" fill="white"/>
<rect x="68.9962" y="175.994" width="8.20777" height="2.58578" rx="0.449812" transform="rotate(-26.4286 68.9962 175.994)" fill="#202F83"/>
<rect x="69.7975" y="177.605" width="8.20777" height="2.58578" rx="0.449812" transform="rotate(-26.4286 69.7975 177.605)" fill="white"/>
<path d="M171.89 46.2637L285.956 41.2172L286.684 57.6817L172.619 62.7281L171.89 46.2637Z" fill="#FFBFBF" fill-opacity="0.5"/>
<path d="M41.6083 17.627V15.7109H39.9559V17.5742C39.9472 19.9473 38.4882 22.1357 36.036 23.0059L36.9325 24.3242C38.787 23.6123 40.1317 22.1797 40.8085 20.3691C41.4852 21.9951 42.7772 23.2959 44.4911 23.9551L45.4052 22.6543C43.0321 21.8193 41.6171 19.7627 41.6083 17.627ZM38.9013 30.1602H49.536V28.8066H40.5888V25.1855H38.9013V30.1602ZM44.1923 19.7188H47.5145V26.5039H49.1845V14.7617H47.5145V18.3477H44.1923V19.7188ZM53.5396 16.2031H51.9576V26.6094H58.0923V16.2031H56.5455V19.9648H53.5396V16.2031ZM53.5396 25.2559V21.2832H56.5455V25.2559H53.5396ZM59.8502 29.7207H61.4322V22.2852H63.3834V30.4941H64.983V14.7441H63.3834V20.9141H61.4322V15.043H59.8502V29.7207ZM81.1858 21.1953H66.8069V22.5312H81.1858V21.1953ZM68.5295 25.0625H77.7053V26.3633H68.5471V30.3184H79.7971V29H70.1819V27.5938H79.3577V23.7793H68.5295V25.0625ZM68.6877 20.0527H79.4807V18.7168H70.3577V16.5547H79.3225V15.2012H68.6877V20.0527ZM95.7363 14.7441H94.1366V30.4941H95.7363V14.7441ZM82.3593 21.5469C82.3593 24.9658 83.6952 27.1104 85.7519 27.1016C87.703 27.1104 89.0126 25.2031 89.162 22.127H90.9374V29.7207H92.537V15.043H90.9374V20.7734H89.1532C88.9599 17.8203 87.6679 16.001 85.7519 16.0098C83.6952 16.001 82.3593 18.1367 82.3593 21.5469ZM83.9062 21.5469C83.9062 19.0332 84.6181 17.5654 85.7519 17.5742C86.912 17.5654 87.6327 19.0332 87.6327 21.5469C87.6327 24.0518 86.912 25.5283 85.7519 25.5195C84.6181 25.5283 83.9062 24.0518 83.9062 21.5469ZM111.095 14.7441H109.513V30.4941H111.095V14.7441ZM97.5074 25.9414L98.4566 27.1367C100.68 25.8359 102.183 24.2363 103.115 22.4082H106.191V29.7207H107.773V15.1484H106.191V21.0723H103.695C104.178 19.7012 104.389 18.2334 104.398 16.6953H98.2457V18.0664H102.737C102.447 21.3096 100.847 23.9551 97.5074 25.9414ZM125.413 16.2559H118.03V26.6094H125.413V16.2559ZM119.683 25.2559V17.5742H123.796V25.2559H119.683ZM128.524 30.5293H130.194V14.7441H128.524V30.5293ZM141.001 15.8867H133.424V23.4453H134.725C138.171 23.4541 140.131 23.3926 142.407 23.0234L142.231 21.6699C140.095 22.0391 138.258 22.0918 135.112 22.0742V20.2812H140.561V18.9629H135.112V17.2227H141.001V15.8867ZM134.954 27.5586C134.954 29.4131 136.966 30.4678 140.315 30.459C143.611 30.4678 145.668 29.4131 145.676 27.5586C145.668 25.7217 143.611 24.6582 140.315 24.6582C136.966 24.6582 134.954 25.7217 134.954 27.5586ZM136.624 27.5586C136.615 26.5566 137.968 25.9678 140.315 25.9766C142.618 25.9678 144.015 26.5566 144.006 27.5586C144.015 28.5869 142.618 29.167 140.315 29.1758C137.968 29.167 136.615 28.5869 136.624 27.5586ZM143.919 24.4473H145.589V14.7617H143.919V24.4473ZM166.516 24.0078H152.102V25.3262H158.447V30.4941H160.082V25.3262H166.516V24.0078ZM153.895 22.2148H164.705V15.377H163.035V17.4336H155.547V15.377H153.895V22.2148ZM155.547 20.8789V18.7695H163.035V20.8789H155.547ZM175.494 15.7988H168.181V23.498H169.412C172.646 23.5156 174.501 23.4365 176.654 23.0586L176.478 21.7227C174.466 22.0742 172.743 22.1621 169.851 22.1621V20.2637H175.195V18.9629H169.851V17.1523H175.494V15.7988ZM169.465 26.3633H178.201V30.4941H179.871V25.0098H169.465V26.3633ZM178.201 24.2891H179.871V20.2285H182.156V18.8223H179.871V14.7441H178.201V24.2891ZM197.234 22.9707H182.872V24.3066H197.234V22.9707ZM184.419 18.418C184.411 20.4043 186.617 21.6084 190.044 21.6172C193.454 21.6084 195.661 20.4043 195.669 18.418C195.661 16.4404 193.454 15.2627 190.044 15.2715C186.617 15.2627 184.411 16.4404 184.419 18.418ZM184.683 30.1602H195.617V28.8066H186.37V25.5898H184.683V30.1602ZM186.142 18.418C186.133 17.293 187.627 16.6074 190.044 16.6074C192.453 16.6074 193.955 17.293 193.947 18.418C193.955 19.5869 192.453 20.2461 190.044 20.2461C187.627 20.2461 186.133 19.5869 186.142 18.418ZM215.507 14.7441H213.837V30.5293H215.507V14.7441ZM203.009 21.4414C203.009 24.8428 204.705 26.9873 207.087 26.9785C209.425 26.9873 211.147 24.8428 211.147 21.4414C211.147 18.0752 209.425 15.9307 207.087 15.9219C204.705 15.9307 203.009 18.0752 203.009 21.4414ZM204.626 21.4414C204.617 18.9717 205.619 17.4248 207.087 17.416C208.528 17.4248 209.53 18.9717 209.53 21.4414C209.53 23.9463 208.528 25.4844 207.087 25.4844C205.619 25.4844 204.617 23.9463 204.626 21.4414ZM231.358 14.7441H229.758V30.4941H231.358V14.7441ZM217.612 26.1523L218.631 27.4004C220.169 26.4424 221.242 24.6846 221.804 22.6279C222.358 24.5264 223.386 26.1348 224.889 27.0312L225.891 25.8008C223.676 24.5264 222.586 21.8281 222.586 19.1387V17.873H225.293V16.5195H218.086V17.873H220.987V19.1387C220.978 21.9424 219.844 24.8076 217.612 26.1523ZM224.133 21.6875H226.577V29.7031H228.159V15.0781H226.577V20.3164H224.133V21.6875ZM249.912 16.3438H238.978V17.7148H248.26V18.0312C248.26 20.0176 248.26 22.3291 247.627 25.4844L249.332 25.6426C249.912 22.2764 249.912 20.0703 249.912 18.0312V16.3438ZM237.431 28.2617H251.793V26.873H237.431V28.2617ZM260.789 16.1328H253.423V23.4805H260.789V16.1328ZM255.058 22.1621V17.4863H259.154V22.1621H255.058ZM255.199 30.1602H265.851V28.8066H256.869V25.168H255.199V30.1602ZM263.513 26.2754H265.183V20.8438H267.468V19.4375H265.183V14.7266H263.513V26.2754ZM271.085 16.2734H269.028L269.187 25.3262H270.927L271.085 16.2734ZM268.818 27.875C268.809 28.5605 269.38 29.1143 270.066 29.123C270.742 29.1143 271.305 28.5605 271.314 27.875C271.305 27.1895 270.742 26.627 270.066 26.627C269.38 26.627 268.809 27.1895 268.818 27.875Z" fill="black"/>
<path d="M35.8511 40.5918H25.1871V55.5469H35.8511V40.5918ZM27.5738 53.5918V42.4961H33.5152V53.5918H27.5738ZM40.3453 61.209H42.7574V38.4082H40.3453V61.209ZM58.3665 40.0586H47.4232V50.9766H49.3021C54.2786 50.9893 57.1097 50.9004 60.3978 50.3672L60.1439 48.4121C57.0589 48.9453 54.4056 49.0215 49.8607 48.9961V46.4062H57.7318V44.502H49.8607V41.9883H58.3665V40.0586ZM49.6322 56.918C49.6322 59.5967 52.5394 61.1201 57.3763 61.1074C62.137 61.1201 65.1077 59.5967 65.1204 56.918C65.1077 54.2646 62.137 52.7285 57.3763 52.7285C52.5394 52.7285 49.6322 54.2646 49.6322 56.918ZM52.0443 56.918C52.0316 55.4707 53.9866 54.6201 57.3763 54.6328C60.7025 54.6201 62.721 55.4707 62.7083 56.918C62.721 58.4033 60.7025 59.2412 57.3763 59.2539C53.9866 59.2412 52.0316 58.4033 52.0443 56.918ZM62.5814 52.4238H64.9935V38.4336H62.5814V52.4238ZM78.6983 38.7891C73.5694 38.7764 70.5606 40.1602 70.5733 42.6992C70.5606 45.251 73.5694 46.6348 78.6983 46.6348C83.8272 46.6348 86.8106 45.251 86.8233 42.6992C86.8106 40.1602 83.8272 38.7764 78.6983 38.7891ZM68.3389 49.9609H89.0831V48.0312H68.3389V49.9609ZM70.8272 53.5156H84.0811V55.293H70.8526V60.9297H87.1026V59.0762H73.2139V57.0449H86.4679V51.7129H70.8272V53.5156ZM73.087 42.6992C73.0743 41.3535 75.0802 40.5664 78.6983 40.5664C82.3419 40.5664 84.3477 41.3535 84.335 42.6992C84.3477 44.1084 82.3419 44.832 78.6983 44.832C75.0802 44.832 73.0743 44.1084 73.087 42.6992ZM117.381 47.9551H96.6373V49.8848H117.381V47.9551ZM97.7037 45.1113L98.4654 46.9902C102.376 46.6348 105.626 45.2129 106.997 43.0674C108.368 45.2256 111.643 46.6348 115.553 46.9902L116.34 45.1113C112.151 44.8066 108.876 43.1689 108.444 41.1758H115.528V39.2461H98.5416V41.1758H105.549C105.118 43.1689 101.855 44.8066 97.7037 45.1113ZM99.1256 53.5156H112.379V55.3184H99.151V60.9297H115.401V59.0762H101.512V57.0703H114.766V51.7129H99.1256V53.5156ZM137.764 38.4082H135.327V61.1582H137.764V38.4082ZM119.077 55.0645L120.346 57.0195C128.154 53.2744 130.985 47.5107 130.985 40.8457H120.168V42.7754H128.547C128.077 48.082 125.119 52.1826 119.077 55.0645ZM159.467 45.0605H146.188V39.2207H143.801V46.9902H159.467V45.0605ZM141.033 51.7891H161.854V49.8594H141.033V51.7891ZM143.623 60.625H159.619V58.6445H146.035V53.9473H143.623V60.625ZM176.365 44.5781V40.4902H174.029V44.7305C174.029 48.6025 172.302 52.665 169.052 54.5566L170.576 56.3086C172.785 55.001 174.346 52.5889 175.184 49.7578C175.984 52.3477 177.444 54.5186 179.589 55.7246L181.011 53.8203C177.926 52.1572 176.365 48.3486 176.365 44.5781ZM181.57 60.041H183.881V49.4277H186.623V61.1582H188.933V38.4082H186.623V47.4727H183.881V38.8398H181.57V60.041ZM212.388 56.4102H203.121V52.4238H210.382V50.4434H196.494V47.1172H209.849V40.0078H194.056V41.9883H207.462V45.1875H194.107V52.4238H200.734V56.4102H191.568V58.4414H212.388V56.4102ZM234.573 49.8086H213.753V51.7637H223.122V56.1816H225.56V51.7637H234.573V49.8086ZM216.038 43.5625C216.026 46.3936 219.25 48.1582 224.138 48.1582C229.026 48.1582 232.225 46.3936 232.212 43.5625C232.225 40.7188 229.026 38.9541 224.138 38.9414C219.25 38.9541 216.026 40.7188 216.038 43.5625ZM216.368 60.6758H232.263V58.6953H218.78V53.998H216.368V60.6758ZM218.628 43.5625C218.603 41.874 220.812 40.8838 224.138 40.8711C227.477 40.8838 229.66 41.874 229.673 43.5625C229.66 45.2002 227.477 46.2031 224.138 46.2031C220.812 46.2031 218.603 45.2002 218.628 43.5625ZM252.614 52.5762C247.879 52.5762 244.971 54.1504 244.971 56.8418C244.971 59.5713 247.879 61.1455 252.614 61.1582C257.299 61.1455 260.155 59.5713 260.155 56.8418C260.155 54.1504 257.299 52.5762 252.614 52.5762ZM242.966 50.3926H253.68V39.8301H251.294V43.1055H245.327V39.8301H242.966V50.3926ZM245.327 48.4629V45.0098H251.294V48.4629H245.327ZM247.383 56.8418C247.371 55.3311 249.326 54.4805 252.614 54.4805C255.877 54.4805 257.806 55.3311 257.794 56.8418C257.806 58.3652 255.877 59.2285 252.614 59.2285C249.326 59.2285 247.371 58.3652 247.383 56.8418ZM257.54 51.9922H259.952V46.0254H263.253V43.9688H259.952V38.4082H257.54V51.9922ZM267.791 39.5762H265.379V50.0625H275.866V45.873H280.842V50.8242H283.254V38.4082H280.842V43.8672H275.866V39.5762H273.479V42.9023H267.791V39.5762ZM267.791 48.1074V44.7812H273.479V48.1074H267.791ZM268.426 60.8281H283.229V51.8906H280.842V54.4551H270.813V51.8906H268.426V60.8281ZM270.813 58.873V56.334H280.842V58.873H270.813Z" fill="black"/>
<g clip-path="url(#clip0_0_1)">
<path d="M17.1742 8.8774C20.8937 7.24069 25.1839 9.12743 26.7595 13.093C27.1777 14.1429 27.3609 15.2337 27.3376 16.3005C27.3376 16.3005 27.3364 16.3037 27.3352 16.3068C27.3254 16.8355 27.2625 17.3577 27.1519 17.8681C26.9207 19.9937 26.587 23.7236 26.8736 25.4822L22.1174 27.7837C22.1174 27.7837 18.6668 24.6177 16.1268 22.5956C15.8628 22.4148 15.6078 22.2195 15.3644 22.0033C14.4897 21.2252 13.7682 20.2216 13.2936 19.0297C11.718 15.0642 13.4565 10.5184 17.173 8.88054L17.1742 8.8774Z" fill="#EFC344"/>
<path d="M25.4334 26.426C25.1592 25.4984 24.9605 24.5464 24.7764 23.5929C24.5922 22.6395 24.434 21.6999 24.2993 20.7443C24.2293 20.26 24.1665 19.775 24.1098 19.2924C24.0548 18.8321 23.948 18.326 24.0524 17.8675C24.0933 17.6808 24.1779 17.4354 24.3623 17.3455C24.6005 17.2334 24.7508 17.4742 24.8173 17.6709C24.9474 18.045 24.9784 18.4594 24.9055 18.8544C24.867 19.0529 24.8091 19.2473 24.7181 19.4286C24.6349 19.5985 24.53 19.7707 24.3637 19.8677C24.1696 19.9827 23.9645 19.9195 23.8127 19.7723C23.6609 19.6251 23.5236 19.4584 23.3924 19.294C22.8706 18.6377 22.4522 17.8848 22.159 17.0873C22.0846 16.8839 22.0157 16.6754 21.9571 16.4674C21.9056 16.2767 21.8609 16.0597 21.9875 15.8853C22.1142 15.7109 22.3569 15.6949 22.4893 15.8742C22.6085 16.0338 22.6525 16.2795 22.6985 16.4753C22.8013 16.8929 22.8642 17.3417 22.8383 17.7771C22.8169 18.1382 22.7211 18.5386 22.4439 18.7873C21.8865 19.2835 21.0445 18.6995 20.6004 18.3277C20.131 17.9313 19.6469 17.4023 19.4631 16.7896C19.3996 16.576 19.3406 16.2519 19.4963 16.0564C19.6944 15.8053 19.963 16.064 20.087 16.2472C20.259 16.5039 20.3899 16.795 20.4719 17.0956C20.5945 17.5428 20.6803 18.0043 20.7153 18.4711C20.7458 18.86 20.6768 19.3978 20.2003 19.4334C20.013 19.4497 19.8321 19.3779 19.665 19.2972C19.4829 19.2104 19.308 19.1048 19.1435 18.9816C18.8036 18.7272 18.5079 18.4034 18.2776 18.0366C18.1772 17.8736 18.0671 17.6995 18 17.5135C17.9328 17.3274 17.9586 17.1529 18.1117 17.0361C18.3912 16.8172 18.6949 17.2819 18.817 17.4789C19.0402 17.8283 19.2246 18.2058 19.3733 18.5945C19.5221 18.9832 19.6556 19.4203 19.7095 19.8474C19.7361 20.0573 19.7078 20.2743 19.5812 20.4487C19.4691 20.6035 19.3004 20.7068 19.1197 20.7511C18.6853 20.8577 18.296 20.5511 18.0263 20.2412C17.9076 20.1072 17.7601 19.94 17.7854 19.7399C17.8107 19.5398 17.9842 19.442 18.1574 19.4708C18.3469 19.5025 18.4982 19.6422 18.6379 19.7665C18.7982 19.9098 18.9506 20.0644 19.092 20.2293C19.3876 20.5712 19.6427 20.9549 19.879 21.3422C20.8766 22.9806 21.7774 24.6894 22.6214 26.4191C22.8286 26.8455 23.0334 27.2782 23.2352 27.7097C23.3229 27.8967 23.0309 28.0308 22.9432 27.8439C22.2436 26.3345 21.495 24.8527 20.6932 23.4006C20.3001 22.6903 19.904 21.9789 19.4734 21.2936C19.2647 20.9608 19.0379 20.6389 18.7796 20.3444C18.6592 20.2061 18.5278 20.0779 18.3899 19.958C18.3302 19.9053 18.2688 19.8483 18.197 19.809C18.1741 19.7963 18.1096 19.7562 18.08 19.7698C18.0927 19.764 18.0764 19.7611 18.0824 19.7816C18.0877 19.8127 18.1015 19.8399 18.1166 19.864C18.1635 19.9406 18.2315 20.0075 18.2906 20.0707C18.4182 20.2083 18.5658 20.3393 18.7438 20.4099C18.9971 20.5104 19.3494 20.4002 19.4027 20.0917C19.4328 19.9152 19.3765 19.7189 19.3383 19.548C19.2977 19.3652 19.2499 19.1832 19.1936 19.0051C19.0827 18.6531 18.9393 18.3136 18.7662 17.9877C18.6911 17.8492 18.6148 17.7139 18.5257 17.5844C18.486 17.5251 18.4433 17.4647 18.3939 17.4125C18.3554 17.3682 18.3017 17.3361 18.262 17.295C18.2427 17.2728 18.2584 17.2863 18.2632 17.2918C18.2782 17.3159 18.302 17.2094 18.2601 17.3087C18.2431 17.3527 18.2774 17.417 18.2978 17.4541C18.3681 17.6052 18.451 17.7504 18.5406 17.8874C18.7397 18.191 18.9848 18.4657 19.268 18.6868C19.4066 18.7961 19.5574 18.8922 19.7141 18.9725C19.845 19.0389 19.9867 19.1132 20.1346 19.1175C20.5084 19.1317 20.4097 18.5238 20.3843 18.2927C20.3406 17.9022 20.2691 17.5115 20.1596 17.1384C20.0914 16.9011 19.9839 16.6665 19.8497 16.4647C19.8197 16.4166 19.7854 16.3703 19.7456 16.3292C19.7312 16.3126 19.736 16.3181 19.7185 16.3003C19.7125 16.298 19.6594 16.2552 19.689 16.2778C19.6751 16.2686 19.689 16.2778 19.7047 16.2731C19.7349 16.267 19.6987 16.2707 19.7313 16.2583C19.7313 16.2583 19.7337 16.252 19.7264 16.2709C19.7118 16.3086 19.7203 16.2866 19.7154 16.3172C19.6533 16.7564 19.9987 17.2303 20.269 17.5477C20.614 17.9599 21.0502 18.3431 21.5442 18.5499C21.7981 18.6579 22.1132 18.7249 22.3107 18.4663C22.4936 18.2273 22.5325 17.8841 22.5315 17.5902C22.53 17.2164 22.4694 16.8337 22.3755 16.474C22.3528 16.3889 22.327 16.3026 22.3001 16.2194C22.2851 16.1772 22.2731 16.1363 22.2539 16.096C22.2413 16.0657 22.2274 16.0746 22.2485 16.0649C22.1488 16.1159 22.2634 16.4041 22.2849 16.4743C22.4945 17.1733 22.7971 17.8477 23.1868 18.4588C23.3799 18.7601 23.5923 19.0472 23.8223 19.316C23.8994 19.4045 24.0509 19.6422 24.1857 19.6087C24.3059 19.5767 24.3939 19.3942 24.4413 19.2898C24.5845 18.9916 24.65 18.6516 24.6285 18.3206C24.6187 18.1573 24.5913 17.9943 24.5398 17.8398C24.5278 17.7988 24.5116 17.7598 24.4954 17.7207C24.4936 17.7164 24.4683 17.6738 24.469 17.6631L24.4623 17.6533C24.4479 17.6367 24.4551 17.6359 24.4853 17.6479C24.4847 17.6585 24.4508 17.6922 24.4471 17.7016C24.4198 17.7451 24.4016 17.7922 24.3864 17.8405C24.2592 18.214 24.3547 18.6504 24.3961 19.0291C24.4445 19.4433 24.4942 19.8543 24.5499 20.2677C24.7722 21.9138 25.0609 23.55 25.4027 25.1747C25.4851 25.5733 25.5674 25.9719 25.6424 26.3712C25.6651 26.4925 25.4729 26.5576 25.437 26.4347L25.4334 26.426Z" fill="#403E3D"/>
<path d="M27.983 30.3642C27.8764 29.3182 26.9707 28.5749 25.9566 28.7052C24.9424 28.8355 24.2058 29.786 24.3124 30.8319C24.4191 31.8778 25.3247 32.6211 26.3389 32.4908C27.353 32.3605 28.0897 31.4101 27.983 30.3642Z" fill="#858481"/>
<path d="M22.1358 27.3059L26.6563 25.2804C27.1072 25.0861 27.6211 25.3045 27.8005 25.767C27.9031 26.0323 27.8686 26.3193 27.7424 26.5555C27.5758 26.5184 27.3958 26.5339 27.2247 26.6074L22.7042 28.6328C22.512 28.716 22.3643 28.8639 22.2696 29.0365C21.9932 28.9775 21.7516 28.7839 21.643 28.498C21.4637 28.0356 21.6848 27.5001 22.1358 27.3059Z" fill="#ACABA8"/>
<path d="M22.7842 28.9829L27.3048 26.9575C27.497 26.8743 27.6447 26.7264 27.7393 26.5538C28.0157 26.6128 28.2574 26.8064 28.366 27.0923C28.4793 27.3836 28.4326 27.702 28.2708 27.9494C28.106 27.9167 27.9303 27.9303 27.7604 28.0006L23.2399 30.026C23.0731 30.0975 22.9363 30.2171 22.8423 30.361C22.5647 30.3052 22.3201 30.1104 22.2097 29.8202C22.1071 29.5549 22.1417 29.2679 22.2678 29.0317C22.4344 29.0688 22.6144 29.0532 22.7855 28.9798L22.7842 28.9829Z" fill="#ACABA8"/>
<path d="M22.7054 28.6301L27.2259 26.6046C27.397 26.5312 27.5758 26.5188 27.7435 26.5527C27.6477 26.7285 27.5 26.8764 27.309 26.9564L22.7884 28.9818C22.6174 29.0553 22.4386 29.0677 22.2708 29.0337C22.3667 28.858 22.5144 28.7101 22.7054 28.6301Z" fill="#858481"/>
<path d="M23.3528 30.3106L27.8733 28.2851C28.0401 28.2136 28.1769 28.094 28.2709 27.9501C28.5485 28.0059 28.7931 28.2008 28.9035 28.4909C29.0829 28.9534 28.8617 29.4888 28.4108 29.6831L23.8903 31.7085C23.4393 31.9028 22.9254 31.6845 22.746 31.222C22.6327 30.9307 22.6794 30.6122 22.8412 30.3649C23.006 30.3976 23.1847 30.3852 23.3516 30.3137L23.3528 30.3106Z" fill="#ACABA8"/>
<path d="M27.7634 28.0013C27.9303 27.9299 28.1103 27.9143 28.2738 27.9502C28.1798 28.0941 28.0431 28.2137 27.8762 28.2852L23.3557 30.3107C23.1889 30.3821 23.0089 30.3977 22.8453 30.3618C22.9393 30.2179 23.0761 30.0983 23.2429 30.0268L27.7634 28.0013Z" fill="#858481"/>
<path d="M12.2371 9.14669C11.5734 8.26381 10.9193 7.37391 10.2706 6.47892C10.1936 6.37228 10.1178 6.2625 10.0408 6.15586C9.91982 5.99194 9.79887 5.82801 9.68215 5.66215C9.58708 5.53023 9.79637 5.385 9.89144 5.51692C10.5576 6.42971 11.2321 7.33861 11.8983 8.2514C12.08 8.50102 12.2647 8.75184 12.4464 9.00146C12.5415 9.13338 12.3346 9.27232 12.2384 9.14355L12.2371 9.14669Z" fill="#EFC344" stroke="#EFC344" stroke-width="0.717238" stroke-miterlimit="10"/>
<path d="M15.4669 6.34806C15.3219 5.44634 15.1823 4.53953 15.0517 3.63631C15.0375 3.52922 15.0215 3.41779 15.0073 3.3107C14.9811 3.14454 14.9562 2.97523 14.9331 2.81026C14.9123 2.6752 15.1182 2.65546 15.1372 2.78618C15.2725 3.71303 15.4193 4.63719 15.5577 5.56524C15.5951 5.8192 15.6325 6.07316 15.6699 6.32712C15.6877 6.46098 15.4889 6.47998 15.4669 6.34806Z" fill="#EFC344" stroke="#EFC344" stroke-width="0.717238" stroke-miterlimit="10"/>
<path d="M10.3554 17.8751C9.29016 18.1373 8.22014 18.394 7.15196 18.6369C7.02267 18.6653 6.8964 18.6949 6.76833 18.7202C6.57318 18.7659 6.37379 18.8137 6.17864 18.8594C6.02216 18.8952 5.98476 18.6412 6.14246 18.6023C7.23603 18.3478 8.32901 18.0857 9.42379 17.828C9.72226 17.758 10.0237 17.6892 10.3222 17.6192C10.4787 17.5835 10.5113 17.8319 10.3566 17.872L10.3554 17.8751Z" fill="#EFC344" stroke="#EFC344" stroke-width="0.717238" stroke-miterlimit="10"/>
<path d="M10.4249 13.5699C9.37736 13.2739 6.37634 12.5689 5.33313 12.2529C5.20883 12.2144 5.08454 12.176 4.96025 12.1376C4.76718 12.0791 4.5759 12.0249 4.38283 11.9665C4.22716 11.9192 4.31775 11.6761 4.4704 11.7222C5.53715 12.0403 8.56352 12.7518 9.63451 13.068C9.92775 13.1553 10.221 13.2427 10.5112 13.3288C10.6639 13.3749 10.5757 13.6116 10.4249 13.5699Z" fill="#EFC344" stroke="#EFC344" stroke-width="0.717238" stroke-miterlimit="10"/>
</g>
<defs>
<radialGradient id="paint0_radial_0_1" cx="0" cy="0" r="1" gradientUnits="userSpaceOnUse" gradientTransform="translate(219.498 164.62) scale(17.2049 17.405)">
<stop stop-color="#C61C24" stop-opacity="0.9"/>
<stop offset="1" stop-color="#C61C24" stop-opacity="0"/>
</radialGradient>
<radialGradient id="paint1_radial_0_1" cx="0" cy="0" r="1" gradientUnits="userSpaceOnUse" gradientTransform="translate(101.774 181.22) scale(30.5118 30.8666)">
<stop stop-color="#C61C24" stop-opacity="0.9"/>
<stop offset="1" stop-color="#C61C24" stop-opacity="0"/>
</radialGradient>
<radialGradient id="paint2_radial_0_1" cx="0" cy="0" r="1" gradientUnits="userSpaceOnUse" gradientTransform="translate(144.62 209.878) scale(14.4194 14.587)">
<stop stop-color="#C61C24" stop-opacity="0.9"/>
<stop offset="1" stop-color="#C61C24" stop-opacity="0"/>
</radialGradient>
<radialGradient id="paint3_radial_0_1" cx="0" cy="0" r="1" gradientUnits="userSpaceOnUse" gradientTransform="translate(188.599 200.895) rotate(-56.4657) scale(14.5353 14.4707)">
<stop stop-color="#C61C24" stop-opacity="0.9"/>
<stop offset="1" stop-color="#C61C24" stop-opacity="0"/>
</radialGradient>
<clipPath id="clip0_0_1">
<rect width="29.3617" height="24.1243" fill="white" transform="matrix(-0.929529 -0.36875 -0.360941 0.932589 36 10.8271)"/>
</clipPath>
</defs>
</svg>
