<svg width="256" height="49" viewBox="0 0 256 49" fill="none" xmlns="http://www.w3.org/2000/svg">
<path d="M10.128 11.56C10.224 11.416 10.4 11.36 10.656 11.392C10.912 11.424 11.08 11.528 11.16 11.704C11.272 11.912 11.28 12.712 11.184 14.104C11.056 15.672 10.976 17.272 10.944 18.904C10.928 19.992 10.896 20.728 10.848 21.112C10.8 21.496 10.712 21.72 10.584 21.784C10.408 21.912 10.2 21.936 9.96 21.856C9.8 21.792 9.712 21.52 9.696 21.04C9.68 20.56 9.704 19.232 9.768 17.056C9.848 14.64 9.904 13.16 9.936 12.616C9.968 12.072 10.032 11.72 10.128 11.56ZM2.4 12.136C3.136 11.928 3.928 11.832 4.776 11.848C5.64 11.864 6.192 11.984 6.432 12.208C6.592 12.368 6.688 13.392 6.72 15.28C6.768 17.152 6.72 18.16 6.576 18.304C6.48 18.4 5.568 18.576 3.84 18.832C2.672 18.976 1.944 19.048 1.656 19.048C1.368 19.048 1.176 18.976 1.08 18.832C0.84 18.496 0.688 17.512 0.624 15.88C0.56 14.232 0.624 13.24 0.816 12.904C0.992 12.648 1.52 12.392 2.4 12.136ZM5.232 13.168C5.04 13.104 4.896 13.072 4.8 13.072C4.784 13.088 4.72 13.104 4.608 13.12C4.512 13.136 4.376 13.16 4.2 13.192C4.024 13.224 3.864 13.248 3.72 13.264C2.728 13.424 2.152 13.592 1.992 13.768C1.832 13.944 1.752 14.496 1.752 15.424C1.752 16.448 1.784 17.064 1.848 17.272C1.928 17.464 2.48 17.528 3.504 17.464C4.496 17.416 5.096 17.36 5.304 17.296C5.448 17.248 5.52 16.568 5.52 15.256C5.52 14.456 5.496 13.92 5.448 13.648C5.416 13.376 5.344 13.216 5.232 13.168ZM15.7479 8.944C16.2919 8.88 17.0359 8.816 17.9799 8.752C18.2359 8.736 18.4359 8.856 18.5799 9.112C18.7239 9.368 18.7319 9.616 18.6039 9.856C18.5399 9.968 18.3799 10.04 18.1239 10.072C17.8679 10.088 17.3799 10.088 16.6599 10.072C15.4919 10.024 14.7159 10.088 14.3319 10.264C13.9479 10.44 13.7159 10.856 13.6359 11.512C13.5719 12.072 13.5879 12.504 13.6839 12.808C13.7799 13.016 13.8759 13.128 13.9719 13.144C14.0679 13.144 14.3719 13.08 14.8839 12.952C15.6039 12.776 16.3799 12.688 17.2119 12.688C17.6119 12.688 17.9079 12.696 18.0999 12.712C18.3079 12.728 18.4599 12.76 18.5559 12.808C18.6519 12.856 18.7239 12.936 18.7719 13.048C18.9799 13.416 18.7639 13.672 18.1239 13.816C17.8039 13.896 17.3239 13.96 16.6839 14.008C15.4839 14.136 14.7079 14.256 14.3559 14.368C14.0999 14.48 13.9399 14.576 13.8759 14.656C13.8119 14.736 13.8039 14.872 13.8519 15.064C13.8839 15.288 13.9319 15.424 13.9959 15.472C14.0759 15.504 14.2599 15.496 14.5479 15.448C16.3399 15.144 17.5719 14.992 18.2439 14.992C18.9159 14.992 19.2759 15.144 19.3239 15.448C19.3239 15.464 19.3239 15.48 19.3239 15.496C19.3559 15.656 19.2839 15.776 19.1079 15.856C18.8519 15.952 17.6359 16.216 15.4599 16.648L15.4359 16.672H15.4119H15.3879H15.3639H15.3399L15.3159 16.696H15.2919H15.2679H15.2439H15.2199L15.1959 16.72H15.1719H15.1479H15.1239H15.0999L15.0759 16.744H15.0519C14.3639 16.888 13.9079 16.96 13.6839 16.96C13.4759 16.96 13.3159 16.904 13.2039 16.792C12.8839 16.488 12.6439 15.024 12.4839 12.4C12.4519 12.016 12.4359 11.696 12.4359 11.44C12.4359 11.184 12.4519 10.936 12.4839 10.696C12.5159 10.44 12.5559 10.24 12.6039 10.096C12.6519 9.952 12.7399 9.816 12.8679 9.688C12.9959 9.544 13.1319 9.44 13.2759 9.376C13.4199 9.312 13.6199 9.248 13.8759 9.184C14.1319 9.12 14.4039 9.072 14.6919 9.04C14.9799 9.008 15.3319 8.976 15.7479 8.944ZM20.9799 10.144C21.0439 9.968 21.1879 9.872 21.4119 9.856C21.6359 9.84 21.8119 9.912 21.9399 10.072C22.0199 10.2 22.0599 11.384 22.0599 13.624C22.0759 15.864 22.0439 17.032 21.9639 17.128C21.8999 17.176 21.6999 17.144 21.3639 17.032L20.8599 16.84V13.648C20.8599 11.536 20.8999 10.368 20.9799 10.144ZM19.0839 18.088C19.4199 18.056 19.6279 18.024 19.7079 17.992C19.7719 17.96 19.9079 18.008 20.1159 18.136C20.3399 18.248 20.5719 18.416 20.8119 18.64C21.0519 18.848 21.2359 19.048 21.3639 19.24C21.5879 19.544 21.7319 19.8 21.7959 20.008C21.8599 20.216 21.8839 20.56 21.8679 21.04C21.8519 21.504 21.8039 21.864 21.7239 22.12C21.6439 22.376 21.4919 22.656 21.2679 22.96C20.5159 24 19.6279 24.408 18.6039 24.184C18.0919 24.072 17.5639 23.8 17.0199 23.368C16.4759 22.952 16.0999 22.504 15.8919 22.024C15.6519 21.544 15.5719 21.104 15.6519 20.704C15.7319 20.288 15.9799 19.848 16.3959 19.384C16.5399 19.208 16.6759 19.064 16.8039 18.952C16.9319 18.84 17.0679 18.744 17.2119 18.664C17.3719 18.568 17.5399 18.488 17.7159 18.424C17.9079 18.344 18.1079 18.28 18.3159 18.232C18.5399 18.184 18.7959 18.136 19.0839 18.088ZM20.3079 19.816C20.0519 19.512 19.8039 19.336 19.5639 19.288C19.3239 19.224 18.9799 19.272 18.5319 19.432C18.2279 19.528 17.9479 19.664 17.6919 19.84C17.4519 20.016 17.2599 20.216 17.1159 20.44C16.9719 20.648 16.8999 20.848 16.8999 21.04C16.8999 21.344 17.1159 21.728 17.5479 22.192C17.9799 22.656 18.3799 22.928 18.7479 23.008C19.0039 23.056 19.2039 23.048 19.3479 22.984C19.5079 22.92 19.7319 22.736 20.0199 22.432C20.2759 22.16 20.4439 21.936 20.5239 21.76C20.6199 21.568 20.6679 21.32 20.6679 21.016C20.6679 20.536 20.5479 20.136 20.3079 19.816ZM39.1468 10C39.1468 9.44 39.1708 9.12 39.2188 9.04C39.2668 8.96 39.4188 8.928 39.6748 8.944L40.1788 9.016V12.952C40.1788 14.712 40.1628 15.824 40.1308 16.288C40.0988 16.736 40.0108 17.008 39.8668 17.104C39.5148 17.312 39.2828 17.176 39.1708 16.696C39.0908 16.312 39.0348 15.632 39.0028 14.656L38.9308 12.472L38.3548 12.568C38.1468 12.616 37.5868 12.696 36.6748 12.808C36.1308 12.856 35.8028 12.864 35.6908 12.832C35.5948 12.8 35.5148 12.656 35.4508 12.4C35.3868 12.064 35.4028 11.848 35.4988 11.752C35.5948 11.656 36.2348 11.528 37.4188 11.368L39.1468 11.128V10ZM33.4828 9.424C33.8188 9.008 34.1388 8.992 34.4428 9.376C34.5388 9.488 34.5628 9.632 34.5148 9.808C34.4668 9.968 34.3228 10.256 34.0828 10.672C33.6988 11.36 33.5068 11.792 33.5068 11.968C33.5068 12.128 33.9788 12.68 34.9228 13.624C35.4828 14.168 35.8508 14.576 36.0268 14.848C36.2188 15.104 36.3068 15.32 36.2908 15.496C36.2428 15.864 36.0988 16.04 35.8588 16.024C35.6188 16.008 35.3228 15.8 34.9708 15.4C34.7308 15.128 34.4908 14.856 34.2508 14.584C34.0108 14.312 33.7868 14.08 33.5788 13.888C33.3868 13.696 33.2188 13.544 33.0748 13.432C32.9308 13.304 32.8348 13.24 32.7868 13.24C32.6748 13.24 32.5068 13.488 32.2828 13.984C32.0748 14.464 31.9388 14.912 31.8748 15.328C31.7788 15.808 31.6428 16.096 31.4668 16.192C31.2108 16.272 30.9788 16.256 30.7708 16.144C30.5788 16.016 30.4828 15.832 30.4828 15.592C30.4828 15.32 30.8908 14.336 31.7068 12.64C32.5388 10.944 33.1308 9.872 33.4828 9.424ZM34.0348 18.328C34.1788 18.088 34.3948 18.024 34.6828 18.136C34.8748 18.2 34.9868 18.328 35.0188 18.52C35.0668 18.696 35.0908 19.12 35.0908 19.792C35.0908 19.856 35.0908 19.952 35.0908 20.08C35.0908 20.752 35.1948 21.136 35.4028 21.232C35.6108 21.312 36.3468 21.272 37.6108 21.112C37.8188 21.096 37.9868 21.08 38.1148 21.064C39.0588 20.952 39.7228 20.904 40.1068 20.92C40.4908 20.92 40.6828 21 40.6828 21.16C40.6828 21.32 40.5548 21.52 40.2988 21.76C40.0588 22 39.8428 22.12 39.6508 22.12C39.4588 22.12 38.6028 22.24 37.0828 22.48C35.8348 22.688 35.0188 22.776 34.6348 22.744C34.2668 22.712 34.0428 22.52 33.9628 22.168C33.8508 21.72 33.8028 21.016 33.8188 20.056C33.8348 19.096 33.9068 18.52 34.0348 18.328ZM45.1854 7.36C45.2494 7.264 45.4014 7.216 45.6414 7.216C46.0414 7.216 46.2254 7.672 46.1934 8.584C46.1614 9.08 46.1534 9.456 46.1694 9.712L46.1934 10.216L47.8254 10.168C48.5134 10.152 48.9614 10.168 49.1694 10.216C49.3934 10.248 49.5534 10.336 49.6494 10.48C49.9054 10.912 49.6494 11.184 48.8814 11.296C48.6094 11.328 48.2814 11.344 47.8974 11.344C47.0334 11.344 46.4894 11.408 46.2654 11.536C45.9934 11.664 45.5534 11.72 44.9454 11.704C44.2734 11.704 43.7694 11.776 43.4334 11.92C43.0014 12.096 42.6414 12.152 42.3534 12.088C42.0814 12.024 41.9214 11.864 41.8734 11.608C41.8574 11.432 41.8894 11.296 41.9694 11.2C42.0654 11.104 42.2494 11 42.5214 10.888C43.0814 10.648 43.8814 10.496 44.9214 10.432C45.0174 10.416 45.0654 9.92 45.0654 8.944C45.0654 7.952 45.1054 7.424 45.1854 7.36ZM44.7294 12.928C45.0974 12.8 45.4814 12.728 45.8814 12.712C46.2654 12.696 46.7454 12.84 47.3214 13.144C47.8974 13.432 48.3534 13.776 48.6894 14.176C48.9454 14.464 49.0974 14.696 49.1454 14.872C49.1934 15.048 49.2014 15.336 49.1694 15.736C49.1214 16.328 48.8734 16.904 48.4254 17.464C47.9934 18.024 47.5054 18.384 46.9614 18.544C46.3054 18.72 45.7294 18.776 45.2334 18.712C44.7374 18.648 44.2574 18.44 43.7934 18.088C43.2014 17.688 42.8334 17.28 42.6894 16.864C42.5614 16.432 42.6014 15.84 42.8094 15.088C42.9214 14.624 43.1694 14.184 43.5534 13.768C43.9374 13.336 44.3294 13.056 44.7294 12.928ZM47.5134 14.56C47.2414 14.32 46.9374 14.16 46.6014 14.08C46.2814 13.984 45.9694 13.976 45.6654 14.056C45.3614 14.136 45.0734 14.272 44.8014 14.464C44.5454 14.64 44.3374 14.88 44.1774 15.184C44.0174 15.488 43.9374 15.816 43.9374 16.168C43.9374 16.488 44.1374 16.808 44.5374 17.128C44.9374 17.432 45.3454 17.584 45.7614 17.584C46.0494 17.584 46.2894 17.536 46.4814 17.44C46.6734 17.328 46.9374 17.112 47.2734 16.792C47.7694 16.312 48.0334 15.92 48.0654 15.616C48.0974 15.296 47.9134 14.944 47.5134 14.56ZM46.4334 19.528C46.7534 19.128 46.9694 19.344 47.0814 20.176C47.0974 20.288 47.1134 20.408 47.1294 20.536L47.2494 21.64L48.1854 21.664C48.7294 21.664 49.1294 21.672 49.3854 21.688C49.6574 21.688 49.8894 21.704 50.0814 21.736C50.2734 21.768 50.3934 21.816 50.4414 21.88C50.5054 21.928 50.5534 22 50.5854 22.096C50.6334 22.368 50.6174 22.552 50.5374 22.648C50.4734 22.776 49.6654 22.872 48.1134 22.936C46.5294 23.016 45.4734 23.16 44.9454 23.368C44.0174 23.736 43.5534 23.648 43.5534 23.104C43.5534 22.56 44.0494 22.232 45.0414 22.12C45.4574 22.072 45.7054 22.016 45.7854 21.952C45.8654 21.872 45.9134 21.672 45.9294 21.352C45.9294 20.536 46.0974 19.928 46.4334 19.528ZM64.7183 11.656C65.3423 11.496 65.7263 11.448 65.8703 11.512C66.0943 11.64 66.0703 12.048 65.7983 12.736C65.5263 13.424 65.1103 14.144 64.5503 14.896L64.0703 15.52L64.7183 16.192C65.1823 16.624 65.5663 16.896 65.8703 17.008C65.9823 17.056 66.1183 17.168 66.2783 17.344C66.4383 17.504 66.5583 17.68 66.6383 17.872C66.8303 18.192 66.9263 18.4 66.9263 18.496C66.9263 18.592 66.8463 18.704 66.6863 18.832C66.4303 19.008 66.1743 19.032 65.9183 18.904C65.6623 18.776 65.1903 18.376 64.5023 17.704L63.3263 16.552L62.8463 17.128C62.5583 17.48 62.2863 17.928 62.0303 18.472C61.9663 18.632 61.8863 18.776 61.7903 18.904C61.6943 19.032 61.5983 19.144 61.5023 19.24C61.4223 19.32 61.3503 19.368 61.2863 19.384C61.0623 19.448 60.8463 19.424 60.6383 19.312C60.4303 19.184 60.3263 19.032 60.3263 18.856C60.3263 18.744 60.8223 18 61.8143 16.624C62.8223 15.232 63.3983 14.48 63.5423 14.368C63.6543 14.304 63.7983 14.088 63.9743 13.72C64.1503 13.352 64.2223 13.128 64.1903 13.048C64.1423 12.968 63.7023 13.008 62.8703 13.168C62.0543 13.312 61.4463 13.456 61.0463 13.6C60.6623 13.744 60.2223 13.816 59.7263 13.816C59.4383 13.816 59.2463 13.792 59.1503 13.744C59.0543 13.696 59.0063 13.592 59.0063 13.432C59.0063 13.192 59.1503 12.984 59.4383 12.808C59.6463 12.664 60.3823 12.448 61.6463 12.16C62.9103 11.856 63.5823 11.736 63.6623 11.8C63.7103 11.864 64.0623 11.816 64.7183 11.656ZM69.4703 11.608C69.5663 11.432 69.7743 11.368 70.0943 11.416C70.2383 11.432 70.3343 11.448 70.3823 11.464C70.4463 11.48 70.4943 11.528 70.5262 11.608C70.5743 11.672 70.5903 11.768 70.5743 11.896C70.5743 12.008 70.5743 12.176 70.5743 12.4C70.5583 12.72 70.5263 14.352 70.4783 17.296C70.4783 17.296 70.4783 17.304 70.4783 17.32C70.4463 19.256 70.4063 20.4 70.3583 20.752C70.3263 21.104 70.2063 21.32 69.9983 21.4C69.8063 21.464 69.6543 21.464 69.5423 21.4C69.4463 21.32 69.3663 21.112 69.3023 20.776C69.2383 20.424 69.2063 19.888 69.2063 19.168C69.2223 18.448 69.2303 17.488 69.2303 16.288C69.2783 13.312 69.3583 11.752 69.4703 11.608ZM82.5557 9.448C82.7637 9.384 82.9877 9.416 83.2277 9.544C83.3877 9.608 83.4757 9.728 83.4917 9.904C83.5237 10.064 83.5077 10.44 83.4437 11.032C83.3477 12.008 83.2997 13.328 83.2997 14.992C83.2837 16.56 83.2277 17.416 83.1317 17.56C83.0837 17.624 82.9877 17.672 82.8437 17.704C82.5237 17.784 82.3077 17.744 82.1957 17.584C82.0837 17.424 82.0277 17.048 82.0277 16.456V15.352L81.1397 15.664C79.8277 16.096 79.1317 16.072 79.0517 15.592C79.0197 15.32 79.1477 15.088 79.4357 14.896C79.7397 14.704 80.2277 14.536 80.8997 14.392C81.2997 14.312 81.5797 14.24 81.7397 14.176C81.8997 14.096 82.0117 13.984 82.0757 13.84C82.1557 13.68 82.1477 13.48 82.0517 13.24L81.9797 12.664L80.8517 12.736C80.3877 12.752 80.0677 12.744 79.8917 12.712C79.7317 12.68 79.6037 12.592 79.5077 12.448C79.3477 12.16 79.4357 11.912 79.7717 11.704C80.1077 11.48 80.5797 11.368 81.1877 11.368C81.7317 11.368 82.0517 11.32 82.1477 11.224C82.2437 11.128 82.2757 10.784 82.2437 10.192C82.2437 10.016 82.2517 9.88 82.2677 9.784C82.2837 9.672 82.3077 9.592 82.3397 9.544C82.3877 9.496 82.4597 9.464 82.5557 9.448ZM74.1317 10.096C74.6277 9.936 75.0517 9.872 75.4037 9.904C75.7557 9.92 76.1317 10.024 76.5317 10.216C77.0277 10.504 77.4037 10.808 77.6597 11.128C77.9157 11.432 78.1557 11.872 78.3797 12.448C78.5237 12.864 78.6037 13.192 78.6197 13.432C78.6357 13.656 78.5957 13.968 78.4997 14.368C78.3557 14.992 78.1637 15.48 77.9237 15.832C77.6837 16.168 77.3397 16.488 76.8917 16.792C75.9477 17.384 74.8917 17.408 73.7237 16.864C72.9877 16.512 72.4437 15.944 72.0917 15.16C71.7557 14.36 71.6917 13.552 71.8997 12.736C72.0117 12.24 72.3077 11.712 72.7877 11.152C73.2677 10.576 73.7157 10.224 74.1317 10.096ZM76.3397 11.44C75.9397 11.232 75.6357 11.136 75.4277 11.152C75.2197 11.152 74.8917 11.264 74.4437 11.488C73.3557 12.032 72.8997 12.824 73.0757 13.864C73.2357 14.872 73.6757 15.528 74.3957 15.832C74.8757 16.024 75.2357 16.096 75.4757 16.048C75.7317 16 76.0837 15.792 76.5317 15.424C76.8997 15.088 77.1237 14.84 77.2037 14.68C77.2837 14.504 77.3237 14.168 77.3237 13.672C77.3237 12.488 76.9957 11.744 76.3397 11.44ZM79.5557 18.736C80.4517 18.64 81.0037 18.592 81.2117 18.592C81.4357 18.576 81.6197 18.608 81.7637 18.688C81.8917 18.784 81.9477 19.584 81.9317 21.088C81.9317 22.592 81.8677 23.392 81.7397 23.488C81.6117 23.584 81.4117 23.632 81.1397 23.632C80.9317 23.632 80.8037 23.544 80.7557 23.368C80.7237 23.208 80.7077 22.664 80.7077 21.736V19.888L79.7477 19.984C79.1237 20.048 78.5717 20.168 78.0917 20.344C77.6917 20.52 77.3637 20.608 77.1077 20.608C76.8677 20.608 76.7157 20.48 76.6517 20.224C76.5877 19.952 76.6517 19.704 76.8437 19.48C77.0197 19.288 77.2837 19.144 77.6357 19.048C77.9877 18.952 78.6277 18.848 79.5557 18.736ZM87.0692 7.288C88.0452 6.824 89.0132 6.808 89.9732 7.24C90.9492 7.672 91.5972 8.408 91.9172 9.448C91.9972 9.752 92.0292 10.016 92.0132 10.24C91.9972 10.464 91.9332 10.768 91.8212 11.152C91.6452 11.68 91.3652 12.128 90.9812 12.496C90.6132 12.864 90.1172 13.192 89.4932 13.48C89.1412 13.624 88.8692 13.704 88.6772 13.72C88.4852 13.736 88.2212 13.696 87.8852 13.6C87.5972 13.536 87.3012 13.448 86.9972 13.336C86.7092 13.208 86.4532 13.08 86.2292 12.952C86.0052 12.824 85.8372 12.704 85.7252 12.592C85.5652 12.448 85.4052 12.248 85.2452 11.992C85.0852 11.736 84.9572 11.48 84.8612 11.224C84.7652 10.968 84.7172 10.76 84.7172 10.6C84.7172 9.96 84.9332 9.328 85.3652 8.704C85.8132 8.08 86.3812 7.608 87.0692 7.288ZM90.0452 8.608C89.7572 8.336 89.3812 8.2 88.9172 8.2C88.4532 8.184 88.0132 8.272 87.5972 8.464C87.1812 8.656 86.8132 8.936 86.4932 9.304C86.1892 9.656 86.0372 10.032 86.0372 10.432C86.0372 10.8 86.2052 11.176 86.5412 11.56C86.8932 11.944 87.2932 12.2 87.7412 12.328C88.2052 12.472 88.6212 12.48 88.9892 12.352C89.3572 12.208 89.7812 11.88 90.2612 11.368C90.6452 11.016 90.8532 10.768 90.8852 10.624C90.9332 10.48 90.9012 10.216 90.7892 9.832C90.6132 9.32 90.3652 8.912 90.0452 8.608ZM91.6052 14.584C92.1972 14.328 92.6292 14.4 92.9012 14.8C93.0292 14.992 93.0932 15.128 93.0932 15.208C93.0932 15.288 93.0212 15.408 92.8772 15.568C92.6852 15.792 92.1892 15.904 91.3892 15.904C90.5572 15.904 89.5092 16.04 88.2452 16.312C86.9492 16.584 86.0852 16.72 85.6532 16.72C85.3652 16.736 85.1812 16.72 85.1012 16.672C85.0372 16.608 85.0052 16.472 85.0052 16.264C85.0052 16.088 85.0692 15.928 85.1972 15.784C85.3252 15.64 85.5092 15.528 85.7492 15.448C86.0052 15.368 86.2852 15.328 86.5892 15.328C87.0212 15.328 87.5572 15.24 88.1972 15.064C88.7892 14.888 89.4452 14.784 90.1652 14.752C90.8852 14.752 91.3652 14.696 91.6052 14.584ZM89.3252 17.752C89.7732 17.576 90.3012 17.544 90.9092 17.656C91.5332 17.752 91.9332 17.944 92.1092 18.232C92.2052 18.376 92.2452 18.8 92.2292 19.504C92.2292 20.192 92.1812 20.664 92.0852 20.92C91.8772 21.432 90.9572 21.736 89.3252 21.832C88.3652 21.88 87.8532 21.904 87.7892 21.904C87.6292 21.92 87.5492 22.08 87.5492 22.384C87.5492 22.688 87.6772 22.864 87.9332 22.912C88.2052 22.976 88.6692 22.936 89.3252 22.792C91.1972 22.328 92.2612 22.312 92.5172 22.744C92.5652 22.904 92.5972 23.032 92.6132 23.128C92.6452 23.224 92.5332 23.32 92.2772 23.416C92.0212 23.512 91.6932 23.6 91.2932 23.68C90.8932 23.776 90.2932 23.896 89.4932 24.04C88.3252 24.232 87.4772 24.2 86.9492 23.944C86.4372 23.688 86.1812 23.168 86.1812 22.384C86.1812 21.84 86.3332 21.472 86.6372 21.28C86.9572 21.072 87.6292 20.92 88.6532 20.824C89.8372 20.68 90.5172 20.544 90.6932 20.416C90.8692 20.272 90.9572 19.984 90.9572 19.552C90.9572 19.248 90.9252 19.072 90.8612 19.024C90.7972 18.96 90.5892 18.928 90.2372 18.928C89.8052 18.928 89.0532 19.032 87.9812 19.24C86.8292 19.48 86.2052 19.48 86.1092 19.24C86.0772 19.128 86.1092 18.952 86.2052 18.712C86.2692 18.504 86.3892 18.36 86.5652 18.28C86.7412 18.184 87.0612 18.088 87.5252 17.992C88.3092 17.832 88.7412 17.776 88.8212 17.824C88.9172 17.888 89.0852 17.864 89.3252 17.752ZM182.42 10C182.42 9.44 182.444 9.12 182.492 9.04C182.54 8.96 182.692 8.928 182.948 8.944L183.452 9.016V12.952C183.452 14.712 183.436 15.824 183.404 16.288C183.372 16.736 183.284 17.008 183.14 17.104C182.788 17.312 182.556 17.176 182.444 16.696C182.364 16.312 182.308 15.632 182.276 14.656L182.204 12.472L181.628 12.568C181.42 12.616 180.86 12.696 179.948 12.808C179.404 12.856 179.076 12.864 178.964 12.832C178.868 12.8 178.788 12.656 178.724 12.4C178.66 12.064 178.676 11.848 178.772 11.752C178.868 11.656 179.508 11.528 180.692 11.368L182.42 11.128V10ZM176.756 9.424C177.092 9.008 177.412 8.992 177.716 9.376C177.812 9.488 177.836 9.632 177.788 9.808C177.74 9.968 177.596 10.256 177.356 10.672C176.972 11.36 176.78 11.792 176.78 11.968C176.78 12.128 177.252 12.68 178.196 13.624C178.756 14.168 179.124 14.576 179.3 14.848C179.492 15.104 179.58 15.32 179.564 15.496C179.516 15.864 179.372 16.04 179.132 16.024C178.892 16.008 178.596 15.8 178.244 15.4C178.004 15.128 177.764 14.856 177.524 14.584C177.284 14.312 177.06 14.08 176.852 13.888C176.66 13.696 176.492 13.544 176.348 13.432C176.204 13.304 176.108 13.24 176.06 13.24C175.948 13.24 175.78 13.488 175.556 13.984C175.348 14.464 175.212 14.912 175.148 15.328C175.052 15.808 174.916 16.096 174.74 16.192C174.484 16.272 174.252 16.256 174.044 16.144C173.852 16.016 173.756 15.832 173.756 15.592C173.756 15.32 174.164 14.336 174.98 12.64C175.812 10.944 176.404 9.872 176.756 9.424ZM177.308 18.328C177.452 18.088 177.668 18.024 177.956 18.136C178.148 18.2 178.26 18.328 178.292 18.52C178.34 18.696 178.364 19.12 178.364 19.792C178.364 19.856 178.364 19.952 178.364 20.08C178.364 20.752 178.468 21.136 178.676 21.232C178.884 21.312 179.62 21.272 180.884 21.112C181.092 21.096 181.26 21.08 181.388 21.064C182.332 20.952 182.996 20.904 183.38 20.92C183.764 20.92 183.956 21 183.956 21.16C183.956 21.32 183.828 21.52 183.572 21.76C183.332 22 183.116 22.12 182.924 22.12C182.732 22.12 181.876 22.24 180.356 22.48C179.108 22.688 178.292 22.776 177.908 22.744C177.54 22.712 177.316 22.52 177.236 22.168C177.124 21.72 177.076 21.016 177.092 20.056C177.108 19.096 177.18 18.52 177.308 18.328ZM188.075 9.304C189.915 9.112 190.979 9.096 191.267 9.256C191.395 9.352 191.483 9.584 191.531 9.952C191.563 10.192 191.555 10.344 191.507 10.408C191.459 10.472 191.331 10.488 191.123 10.456C190.547 10.376 189.843 10.36 189.011 10.408C188.195 10.44 187.611 10.528 187.259 10.672L186.491 10.912L186.419 12.088L186.371 13.264L187.667 13.12C188.595 13.024 189.395 12.976 190.067 12.976C190.611 12.976 190.939 13 191.051 13.048C191.179 13.096 191.251 13.24 191.267 13.48C191.315 13.784 191.219 13.976 190.979 14.056C190.755 14.12 190.075 14.192 188.939 14.272C188.443 14.32 188.067 14.36 187.811 14.392C187.571 14.408 187.347 14.44 187.139 14.488C186.931 14.52 186.795 14.584 186.731 14.68C186.683 14.76 186.643 14.848 186.611 14.944C186.595 15.024 186.587 15.152 186.587 15.328C186.587 15.808 186.651 16.072 186.779 16.12C186.939 16.168 187.483 16.112 188.411 15.952C189.371 15.792 190.163 15.696 190.787 15.664C191.235 15.648 191.515 15.664 191.627 15.712C191.739 15.744 191.811 15.848 191.843 16.024C191.875 16.296 191.747 16.496 191.459 16.624C191.171 16.736 190.555 16.872 189.611 17.032C188.715 17.16 187.915 17.296 187.211 17.44C186.411 17.6 185.923 17.504 185.747 17.152C185.587 16.8 185.419 15.52 185.243 13.312C185.115 11.664 185.115 10.712 185.243 10.456C185.387 10.184 185.707 9.944 186.203 9.736C186.715 9.528 187.339 9.384 188.075 9.304ZM193.355 10.144C193.499 9.968 193.603 9.88 193.667 9.88C193.747 9.864 193.915 9.92 194.171 10.048C194.331 10.144 194.419 10.272 194.435 10.432C194.467 10.576 194.459 10.904 194.411 11.416L194.267 12.568L194.963 12.448C195.443 12.368 195.771 12.248 195.947 12.088C196.139 11.912 196.203 11.672 196.139 11.368C196.075 11.048 196.139 10.752 196.331 10.48C196.523 10.192 196.771 10.048 197.075 10.048H197.531L197.411 11.512C197.347 12.44 197.267 13.272 197.171 14.008C197.091 14.792 197.091 15.424 197.171 15.904C197.315 16.96 197.099 17.448 196.523 17.368C196.299 17.336 196.131 17.12 196.019 16.72C195.923 16.304 195.867 15.64 195.851 14.728C195.851 14.104 195.787 13.728 195.659 13.6C195.531 13.472 195.235 13.464 194.771 13.576C194.643 13.624 194.555 13.664 194.507 13.696C194.459 13.728 194.403 13.768 194.339 13.816C194.291 13.848 194.259 13.936 194.243 14.08C194.227 14.224 194.211 14.368 194.195 14.512C194.195 14.656 194.187 14.904 194.171 15.256C194.155 16.328 194.147 16.928 194.147 17.056C194.131 17.28 193.939 17.392 193.571 17.392C193.411 17.392 193.291 17.384 193.211 17.368C193.131 17.336 193.059 17.288 192.995 17.224C192.947 17.16 192.915 17.072 192.899 16.96C192.803 16.56 192.819 15.368 192.947 13.384C193.091 11.4 193.227 10.32 193.355 10.144ZM194.771 18.832C194.915 18.784 195.115 18.768 195.371 18.784C195.547 18.816 195.651 18.96 195.683 19.216C195.731 19.472 195.763 20.232 195.779 21.496L195.827 24.16L195.347 24.28C195.027 24.36 194.811 24.36 194.699 24.28C194.571 24.2 194.507 23.504 194.507 22.192V20.248H194.003C193.667 20.248 193.067 20.384 192.203 20.656C191.627 20.832 191.251 20.928 191.075 20.944C190.899 20.96 190.747 20.896 190.619 20.752C190.427 20.56 190.395 20.344 190.523 20.104C190.651 19.864 190.907 19.672 191.291 19.528C191.675 19.384 192.307 19.248 193.187 19.12C194.035 18.976 194.563 18.88 194.771 18.832ZM201.597 9.616C201.565 9.088 201.565 8.776 201.597 8.68C201.645 8.584 201.789 8.536 202.029 8.536C202.701 8.536 202.949 9.248 202.773 10.672L202.653 11.752L203.469 11.728C204.093 11.712 204.565 11.664 204.885 11.584C205.077 11.536 205.269 11.52 205.461 11.536C205.653 11.536 205.821 11.568 205.965 11.632C206.109 11.68 206.229 11.76 206.325 11.872C206.437 11.984 206.509 12.104 206.541 12.232C206.589 12.552 206.509 12.76 206.301 12.856C206.109 12.952 205.805 12.944 205.389 12.832C204.957 12.72 204.493 12.728 203.997 12.856C203.501 13 202.877 13.104 202.125 13.168C201.325 13.264 200.749 13.392 200.397 13.552C200.061 13.728 199.693 13.816 199.293 13.816C199.069 13.816 198.917 13.792 198.837 13.744C198.773 13.68 198.741 13.552 198.741 13.36C198.741 13.056 198.845 12.84 199.053 12.712C199.261 12.568 199.709 12.432 200.397 12.304C200.989 12.176 201.333 12.072 201.429 11.992C201.541 11.912 201.605 11.704 201.621 11.368C201.621 10.6 201.613 10.016 201.597 9.616ZM211.293 11.968C211.341 11.808 211.541 11.752 211.893 11.8L212.397 11.848L212.349 13.24C212.301 14.12 212.221 15.224 212.109 16.552C211.965 17.816 211.941 18.856 212.037 19.672C212.085 20.264 212.093 20.632 212.061 20.776C212.045 20.904 211.925 21.016 211.701 21.112C211.397 21.256 211.173 21.28 211.029 21.184C210.901 21.088 210.821 20.4 210.789 19.12C210.757 18.032 210.677 17.392 210.549 17.2C210.437 16.992 210.125 17.008 209.613 17.248L209.037 17.56L209.133 19.12C209.197 19.776 209.213 20.216 209.181 20.44C209.165 20.664 209.093 20.824 208.965 20.92C208.581 21.224 208.253 21.224 207.981 20.92C207.837 20.712 207.797 19.392 207.861 16.96C207.909 15.136 207.981 13.936 208.077 13.36C208.173 12.784 208.357 12.496 208.629 12.496C208.901 12.496 209.085 12.648 209.181 12.952C209.277 13.24 209.317 13.728 209.301 14.416L209.229 15.808L209.781 15.856C210.133 15.888 210.389 15.856 210.549 15.76C210.725 15.664 210.853 15.472 210.933 15.184C211.013 14.896 211.077 14.44 211.125 13.816C211.189 12.712 211.245 12.096 211.293 11.968ZM202.053 14.536C202.437 14.312 202.789 14.208 203.109 14.224C203.445 14.224 203.861 14.36 204.357 14.632C205.541 15.224 206.165 16.104 206.229 17.272C206.261 17.704 206.245 18.032 206.181 18.256C206.133 18.464 205.965 18.776 205.677 19.192C205.245 19.848 204.845 20.296 204.477 20.536C204.109 20.76 203.653 20.864 203.109 20.848C201.845 20.8 200.925 20.352 200.349 19.504C199.789 18.64 199.757 17.648 200.253 16.528C200.461 16.016 200.701 15.616 200.973 15.328C201.245 15.024 201.605 14.76 202.053 14.536ZM204.117 15.712C203.749 15.568 203.437 15.512 203.181 15.544C202.941 15.576 202.653 15.712 202.317 15.952C201.949 16.192 201.661 16.544 201.453 17.008C201.245 17.472 201.189 17.88 201.285 18.232C201.349 18.536 201.469 18.8 201.645 19.024C201.821 19.232 202.029 19.392 202.269 19.504C202.509 19.616 202.773 19.672 203.061 19.672C203.365 19.672 203.597 19.632 203.757 19.552C203.917 19.472 204.117 19.288 204.357 19C204.757 18.536 204.989 18.112 205.053 17.728C205.133 17.36 205.069 16.96 204.861 16.528C204.653 16.096 204.405 15.824 204.117 15.712ZM224.155 9.424C225.707 9.248 226.691 9.16 227.107 9.16C227.523 9.144 227.787 9.208 227.899 9.352C228.011 9.496 228.011 9.68 227.899 9.904C227.803 10.112 227.515 10.544 227.035 11.2L226.411 12.016L226.843 12.352C227.131 12.576 227.323 12.688 227.419 12.688C227.499 12.688 227.795 12.848 228.307 13.168C228.803 13.52 229.051 13.832 229.051 14.104C229.051 14.744 228.435 14.688 227.203 13.936C226.931 13.76 226.739 13.64 226.627 13.576C226.515 13.512 226.371 13.44 226.195 13.36C226.019 13.28 225.899 13.232 225.835 13.216C225.787 13.184 225.691 13.176 225.547 13.192C225.403 13.208 225.307 13.232 225.259 13.264C225.227 13.296 225.139 13.368 224.995 13.48C224.867 13.576 224.763 13.672 224.683 13.768C224.603 13.848 224.475 13.992 224.299 14.2C223.883 14.648 223.571 14.952 223.363 15.112C223.155 15.272 222.971 15.336 222.811 15.304C222.299 15.224 222.195 14.936 222.499 14.44C222.739 14.072 223.259 13.488 224.059 12.688C225.499 11.248 226.075 10.496 225.787 10.432C225.755 10.416 225.723 10.408 225.691 10.408C225.579 10.408 224.811 10.544 223.387 10.816C222.475 10.976 221.867 11.064 221.563 11.08C221.275 11.096 221.075 11.048 220.963 10.936C220.787 10.76 220.739 10.568 220.819 10.36C220.915 10.136 221.099 9.976 221.371 9.88C221.595 9.784 222.523 9.632 224.155 9.424ZM228.139 16.912C228.491 16.72 228.811 16.656 229.099 16.72C229.403 16.784 229.611 16.968 229.723 17.272C229.819 17.512 229.835 17.704 229.771 17.848C229.707 17.976 229.563 18.072 229.339 18.136C229.131 18.184 228.827 18.192 228.427 18.16C227.739 18.144 227.347 18.216 227.251 18.376C227.139 18.552 227.083 19.36 227.083 20.8C227.083 21.872 227.059 22.504 227.011 22.696C226.979 22.888 226.851 23 226.627 23.032C226.323 23.08 226.123 23.016 226.027 22.84C225.899 22.632 225.859 21.88 225.907 20.584C225.923 19.24 225.907 18.528 225.859 18.448C225.811 18.4 225.275 18.44 224.251 18.568C222.955 18.728 222.155 18.8 221.851 18.784C221.547 18.768 221.379 18.64 221.347 18.4C221.331 18.304 221.363 18.184 221.443 18.04C221.523 17.896 221.611 17.776 221.707 17.68C221.915 17.504 222.283 17.384 222.811 17.32C223.355 17.256 224.475 17.216 226.171 17.2C227.195 17.168 227.851 17.072 228.139 16.912ZM234.279 11.704C234.455 11.48 234.631 11.368 234.807 11.368C235.335 11.368 235.335 11.88 234.807 12.904C234.775 12.968 234.743 13.024 234.711 13.072C234.311 13.792 234.111 14.28 234.111 14.536C234.111 14.728 234.519 15.336 235.335 16.36C236.711 17.992 236.967 18.776 236.103 18.712C236.087 18.712 236.071 18.704 236.055 18.688C235.719 18.656 235.215 18.192 234.543 17.296C233.855 16.416 233.455 15.96 233.343 15.928C233.247 15.896 233.087 16.112 232.863 16.576C232.655 17.04 232.511 17.504 232.431 17.968C232.367 18.256 232.295 18.44 232.215 18.52C232.151 18.6 232.007 18.64 231.783 18.64C231.271 18.64 231.007 18.488 230.991 18.184C230.975 17.864 231.199 17.248 231.663 16.336C232.943 13.792 233.815 12.248 234.279 11.704ZM239.967 11.656C240.111 11.48 240.239 11.392 240.351 11.392C240.463 11.392 240.623 11.488 240.831 11.68C241.023 11.872 241.079 12.08 240.999 12.304C240.887 12.528 240.799 13.872 240.735 16.336C240.703 18.096 240.663 19.168 240.615 19.552C240.583 19.92 240.479 20.152 240.303 20.248C239.951 20.44 239.719 20.36 239.607 20.008C239.527 19.688 239.479 18.928 239.463 17.728C239.431 16.192 239.343 15.408 239.199 15.376C239.055 15.328 238.679 15.4 238.071 15.592C236.775 16.024 236.063 15.992 235.935 15.496C235.871 15.24 235.871 15.032 235.935 14.872C235.983 14.728 236.303 14.584 236.895 14.44C237.487 14.28 238.103 14.176 238.743 14.128L239.487 14.104L239.607 13.024C239.703 12.272 239.823 11.816 239.967 11.656ZM243.159 11.704C243.159 11.624 243.239 11.576 243.399 11.56C243.559 11.544 243.727 11.568 243.903 11.632C244.079 11.68 244.207 11.752 244.287 11.848C244.447 12.04 244.487 12.336 244.407 12.736C244.343 13.12 244.303 14.488 244.287 16.84C244.271 17.784 244.247 18.512 244.215 19.024C244.199 19.52 244.159 19.928 244.095 20.248C244.031 20.568 243.951 20.776 243.855 20.872C243.759 20.952 243.615 20.992 243.423 20.992C243.215 20.992 243.087 20.688 243.039 20.08C242.991 19.472 242.999 18.104 243.063 15.976C243.063 15.672 243.063 15.36 243.063 15.04C243.079 14.72 243.087 14.424 243.087 14.152C243.103 13.88 243.111 13.616 243.111 13.36C243.127 13.104 243.135 12.88 243.135 12.688C243.151 12.496 243.159 12.328 243.159 12.184C243.159 12.04 243.159 11.928 243.159 11.848C243.159 11.752 243.159 11.704 243.159 11.704ZM247.991 8.68C248.567 8.472 249.119 8.408 249.647 8.488C250.191 8.552 250.695 8.768 251.159 9.136C251.639 9.504 252.031 10 252.335 10.624C252.639 11.216 252.783 11.768 252.767 12.28C252.767 12.792 252.607 13.36 252.287 13.984C252.031 14.496 251.727 14.88 251.375 15.136C251.023 15.376 250.575 15.536 250.031 15.616C249.119 15.744 248.255 15.568 247.439 15.088C246.623 14.608 246.103 13.992 245.879 13.24C245.559 12.216 245.591 11.304 245.975 10.504C246.359 9.704 247.031 9.096 247.991 8.68ZM249.935 9.664C249.775 9.664 249.599 9.632 249.407 9.568C249.119 9.472 248.663 9.648 248.039 10.096C247.415 10.544 247.039 10.976 246.911 11.392C246.863 11.552 246.855 11.744 246.887 11.968C246.919 12.176 246.975 12.392 247.055 12.616C247.135 12.824 247.239 13.032 247.367 13.24C247.511 13.448 247.663 13.624 247.823 13.768C248.431 14.312 249.047 14.56 249.671 14.512C250.295 14.464 250.791 14.136 251.159 13.528C251.751 12.568 251.655 11.568 250.871 10.528C250.407 9.952 250.095 9.664 249.935 9.664ZM250.943 17.128C251.071 16.824 251.231 16.672 251.423 16.672C251.631 16.656 251.807 16.808 251.951 17.128C252.079 17.432 252.063 17.96 251.903 18.712C251.743 19.432 251.711 19.872 251.807 20.032C251.887 20.176 252.367 20.248 253.247 20.248C253.855 20.248 254.231 20.272 254.375 20.32C254.535 20.352 254.655 20.464 254.735 20.656C254.847 20.992 254.807 21.224 254.615 21.352C254.439 21.48 254.039 21.536 253.415 21.52C252.919 21.504 252.303 21.536 251.567 21.616C250.847 21.68 250.335 21.752 250.031 21.832C249.887 21.88 249.519 21.952 248.927 22.048C248.351 22.16 247.783 22.264 247.223 22.36C246.663 22.456 246.327 22.504 246.215 22.504C246.023 22.504 245.879 22.376 245.783 22.12C245.687 21.864 245.711 21.648 245.854 21.472C245.983 21.312 246.295 21.192 246.791 21.112L247.487 21.016V19.48C247.503 18.632 247.567 18.096 247.679 17.872C247.791 17.632 248.031 17.56 248.399 17.656C248.623 17.72 248.751 17.824 248.783 17.968C248.831 18.096 248.847 18.496 248.831 19.168L248.783 20.512L249.719 20.584C250.311 20.616 250.607 20.584 250.607 20.488C250.607 20.056 250.623 19.6 250.655 19.12C250.703 18.64 250.751 18.224 250.799 17.872C250.863 17.52 250.911 17.272 250.943 17.128Z" fill="black"/>
<path d="M104.834 8.464C104.946 8.368 105.106 8.336 105.314 8.368C105.538 8.4 105.714 8.496 105.842 8.656C106.018 8.864 106.09 9.4 106.058 10.264L106.01 11.584L107.378 11.464C108.29 11.384 108.842 11.32 109.034 11.272C109.226 11.208 109.402 11.264 109.562 11.44C109.722 11.616 109.794 11.824 109.778 12.064C109.778 12.288 109.698 12.488 109.538 12.664C109.362 12.824 109.114 12.824 108.794 12.664C108.586 12.568 108.378 12.528 108.17 12.544C107.978 12.56 107.65 12.624 107.186 12.736C106.338 12.96 105.578 13.104 104.906 13.168C104.058 13.248 103.362 13.384 102.818 13.576C102.434 13.72 102.194 13.792 102.098 13.792C102.002 13.792 101.89 13.704 101.762 13.528C101.586 13.304 101.498 13.144 101.498 13.048C101.498 12.664 102.17 12.352 103.514 12.112L104.954 11.872L104.834 10.216C104.754 9.144 104.754 8.56 104.834 8.464ZM112.25 12.808C112.394 12.616 112.514 12.52 112.61 12.52C112.722 12.52 112.858 12.608 113.018 12.784C113.178 12.976 113.202 13.712 113.09 14.992L112.97 16.888L113.882 16.768C113.994 16.752 114.122 16.736 114.266 16.72C114.41 16.688 114.53 16.664 114.626 16.648C114.738 16.616 114.842 16.592 114.938 16.576C115.05 16.56 115.13 16.544 115.178 16.528C115.402 16.48 115.626 16.544 115.85 16.72C116.09 16.896 116.21 17.088 116.21 17.296C116.21 17.6 115.77 17.8 114.89 17.896C113.882 17.992 113.314 18.104 113.186 18.232C113.058 18.328 112.994 18.672 112.994 19.264C112.994 19.312 112.994 19.392 112.994 19.504C112.962 20.768 112.922 21.504 112.874 21.712C112.842 21.92 112.714 22.04 112.49 22.072C112.458 22.072 112.434 22.072 112.418 22.072C112.194 22.104 112.042 22.088 111.962 22.024C111.898 21.96 111.842 21.792 111.794 21.52C111.73 21.232 111.706 20.632 111.722 19.72C111.754 18.792 111.794 17.84 111.842 16.864C111.89 15.872 111.946 14.968 112.01 14.152C112.09 13.336 112.17 12.888 112.25 12.808ZM105.938 14.128C106.146 14.064 106.386 14.064 106.658 14.128C106.946 14.176 107.154 14.2 107.282 14.2C107.442 14.2 107.866 14.528 108.554 15.184C109.13 15.744 109.498 16.264 109.658 16.744C109.818 17.208 109.81 17.736 109.634 18.328C109.442 18.968 109.13 19.528 108.698 20.008C108.282 20.472 107.81 20.8 107.282 20.992C106.77 21.168 106.25 21.256 105.722 21.256C105.194 21.24 104.706 21.072 104.258 20.752C103.81 20.432 103.458 19.992 103.202 19.432C102.946 18.84 102.818 18.408 102.818 18.136C102.818 17.896 102.922 17.504 103.13 16.96C103.354 16.4 103.586 15.968 103.826 15.664C103.954 15.488 104.146 15.296 104.402 15.088C104.658 14.864 104.922 14.664 105.194 14.488C105.482 14.312 105.73 14.192 105.938 14.128ZM107.978 16.096C107.258 15.328 106.466 15.232 105.602 15.808C104.946 16.256 104.514 16.824 104.306 17.512C104.114 18.184 104.186 18.776 104.522 19.288C104.858 19.8 105.386 20.056 106.106 20.056C106.554 20.056 106.93 19.968 107.234 19.792C107.538 19.6 107.826 19.288 108.098 18.856C108.386 18.376 108.514 17.888 108.482 17.392C108.466 16.88 108.298 16.448 107.978 16.096ZM126.869 10.672C126.933 10.496 127.053 10.416 127.229 10.432C127.421 10.432 127.605 10.52 127.781 10.696C127.877 10.808 127.933 11.032 127.949 11.368C127.981 11.688 127.981 12.288 127.949 13.168L127.853 15.352L128.477 15.256C130.365 14.968 131.421 14.96 131.645 15.232C131.853 15.488 131.901 15.712 131.789 15.904C131.693 16.096 131.469 16.208 131.117 16.24C130.701 16.256 130.053 16.336 129.173 16.48L127.949 16.696L127.805 18.952C127.741 20.024 127.677 20.672 127.613 20.896C127.565 21.104 127.429 21.232 127.205 21.28C126.581 21.456 126.333 21.104 126.461 20.224C126.509 19.744 126.581 18.08 126.677 15.232C126.757 12.336 126.821 10.816 126.869 10.672ZM117.533 11.272C117.677 11.096 117.797 11.008 117.893 11.008C118.005 11.008 118.133 11.096 118.277 11.272C118.421 11.464 118.509 12.408 118.541 14.104C118.573 15.816 118.661 16.736 118.805 16.864C118.901 16.96 119.757 17.048 121.373 17.128C122.973 17.192 123.837 17.256 123.965 17.32C124.077 17.4 124.125 17.56 124.109 17.8C124.109 18.04 124.037 18.2 123.893 18.28C123.749 18.36 122.693 18.384 120.725 18.352C118.773 18.32 117.757 18.256 117.677 18.16C117.549 18.048 117.461 16.904 117.413 14.728C117.381 12.552 117.421 11.4 117.533 11.272ZM142.689 11.68C143.553 11.232 144.497 11.368 145.521 12.088C146.353 12.648 146.945 13.344 147.297 14.176C147.649 14.992 147.713 15.824 147.489 16.672C147.345 17.264 147.137 17.704 146.865 17.992C146.609 18.28 146.193 18.544 145.617 18.784C145.057 19.024 144.545 19.144 144.081 19.144C143.697 19.16 143.281 19.088 142.833 18.928C142.385 18.768 141.969 18.544 141.585 18.256C141.217 17.968 140.921 17.664 140.697 17.344C140.473 16.992 140.337 16.712 140.289 16.504C140.241 16.28 140.233 15.92 140.265 15.424C140.313 14.656 140.441 14.088 140.649 13.72C140.841 13.352 141.137 12.968 141.537 12.568C141.937 12.168 142.321 11.872 142.689 11.68ZM144.921 13.072C144.457 12.736 144.073 12.584 143.769 12.616C143.465 12.632 143.097 12.832 142.665 13.216C142.025 13.824 141.649 14.448 141.537 15.088C141.441 15.712 141.625 16.304 142.089 16.864C142.633 17.52 143.297 17.856 144.081 17.872C144.881 17.872 145.537 17.536 146.049 16.864C146.209 16.672 146.313 16.48 146.361 16.288C146.409 16.08 146.417 15.776 146.385 15.376C146.337 14.864 146.209 14.448 146.001 14.128C145.793 13.792 145.433 13.44 144.921 13.072ZM150.153 11.872C150.217 11.76 150.401 11.72 150.705 11.752C151.009 11.784 151.169 11.856 151.185 11.968C151.217 12.24 151.153 14.464 150.993 18.64L150.849 21.64H150.297C150.137 21.64 150.025 21.64 149.961 21.64C149.897 21.624 149.841 21.584 149.793 21.52C149.745 21.44 149.713 21.352 149.697 21.256C149.697 21.144 149.689 20.96 149.673 20.704C149.641 20.176 149.689 18.6 149.817 15.976C149.961 13.352 150.073 11.984 150.153 11.872ZM160.973 9.184C161.037 9.008 161.181 8.92 161.405 8.92C161.725 8.92 161.925 9.048 162.005 9.304C162.085 9.544 162.069 10.04 161.957 10.792C161.845 11.688 161.853 12.208 161.981 12.352C162.125 12.48 162.621 12.464 163.469 12.304C164.221 12.176 164.725 12.144 164.981 12.208C165.237 12.256 165.365 12.432 165.365 12.736C165.365 12.944 165.309 13.08 165.197 13.144C165.101 13.208 164.861 13.264 164.477 13.312C163.885 13.376 163.269 13.512 162.629 13.72L161.669 14.032L161.765 15.352L161.861 16.648H161.237C160.837 16.648 160.597 16.552 160.517 16.36C160.453 16.2 160.485 15.016 160.613 12.808C160.757 10.6 160.877 9.392 160.973 9.184ZM155.381 10.024C155.701 9.656 155.989 9.4 156.245 9.256C156.517 9.112 156.701 9.08 156.797 9.16C156.909 9.24 156.917 9.424 156.821 9.712C156.725 10 156.525 10.344 156.221 10.744C155.773 11.272 155.549 11.624 155.549 11.8C155.549 11.864 155.645 11.984 155.837 12.16C156.029 12.32 156.245 12.48 156.485 12.64C157.765 13.504 158.405 14.2 158.405 14.728C158.405 15.512 157.901 15.448 156.893 14.536C156.509 14.152 156.093 13.816 155.645 13.528C155.197 13.224 154.893 13.072 154.733 13.072C154.637 13.072 154.453 13.368 154.181 13.96C153.909 14.552 153.749 15.008 153.701 15.328C153.653 15.632 153.581 15.824 153.485 15.904C153.405 15.968 153.245 16 153.005 16C152.765 16 152.605 15.968 152.525 15.904C152.445 15.84 152.397 15.704 152.381 15.496C152.333 15.096 152.637 14.296 153.293 13.096C153.965 11.896 154.661 10.872 155.381 10.024ZM158.237 17.776C158.797 17.568 159.253 17.488 159.605 17.536C159.957 17.568 160.381 17.744 160.877 18.064C161.965 18.784 162.437 19.824 162.293 21.184C162.245 21.792 162.117 22.272 161.909 22.624C161.701 22.976 161.349 23.312 160.853 23.632C160.581 23.808 160.341 23.912 160.133 23.944C159.941 23.992 159.637 23.992 159.221 23.944C158.549 23.864 158.021 23.736 157.637 23.56C157.269 23.4 156.909 23.12 156.557 22.72C156.029 22.112 155.773 21.424 155.789 20.656C155.805 19.872 156.093 19.216 156.653 18.688C157.005 18.32 157.533 18.016 158.237 17.776ZM160.637 19.384C159.981 18.728 159.189 18.632 158.261 19.096C157.813 19.304 157.501 19.536 157.325 19.792C157.149 20.048 157.061 20.4 157.061 20.848C157.061 21.088 157.125 21.336 157.253 21.592C157.397 21.832 157.581 22.048 157.805 22.24C158.045 22.432 158.285 22.56 158.525 22.624C158.877 22.72 159.277 22.712 159.725 22.6C160.189 22.488 160.517 22.328 160.709 22.12C161.013 21.816 161.157 21.368 161.141 20.776C161.125 20.168 160.957 19.704 160.637 19.384Z" fill="#EB8888"/>
<path d="M43.7026 36.7422H42.7124V42.5312H43.7026V40.1318H45.4038V39.2939H43.7026V36.7422ZM35.3618 42.0869H40.5796V37.4912H35.3618V42.0869ZM36.0854 47.7236H36.6187C37.355 47.73 38.4277 47.6792 39.5259 47.3174L39.3735 46.5176C38.5737 46.7842 37.7041 46.8794 37.0503 46.9048V43.5469H36.0854V47.7236ZM36.3394 41.2871V38.3037H39.6147V41.2871H36.3394ZM39.1323 44.4229H44.8325V43.6611H42.4839V42.6582H41.5063V43.6611H39.1323V44.4229ZM39.8813 46.416C39.875 47.3936 40.7319 48.0029 41.9761 48.0029C43.2139 48.0029 44.0835 47.3936 44.0962 46.416C44.0835 45.4385 43.2139 44.8354 41.9761 44.8291C40.7319 44.8354 39.875 45.4385 39.8813 46.416ZM40.77 46.416C40.77 45.8892 41.2715 45.5464 41.9761 45.54C42.6807 45.5464 43.1821 45.8892 43.1821 46.416C43.1821 46.9556 42.6807 47.3047 41.9761 47.292C41.2715 47.3047 40.77 46.9556 40.77 46.416ZM55.4204 36.7422H54.4175V48.0537H55.4204V36.7422ZM46.5337 41.5537C46.54 43.9595 47.7334 45.4829 49.4155 45.4766C51.0913 45.4829 52.3037 43.9595 52.2974 41.5537C52.3037 39.1543 51.0913 37.6245 49.4155 37.6182C47.7334 37.6245 46.54 39.1543 46.5337 41.5537ZM47.4985 41.5537C47.4985 39.7192 48.2856 38.5132 49.4155 38.5068C50.5518 38.5132 51.3325 39.7192 51.3325 41.5537C51.3325 43.3882 50.5518 44.5942 49.4155 44.5879C48.2856 44.5942 47.4985 43.3882 47.4985 41.5537ZM64.4722 38.875V37.4404H63.4946V38.8369C63.4883 40.5698 62.3203 42.1504 60.6255 42.7725L61.1587 43.585C62.4917 43.0518 63.52 41.9727 63.9961 40.6079C64.4785 41.8394 65.4688 42.8169 66.7065 43.3057L67.2651 42.5312C65.6147 41.9346 64.4722 40.4492 64.4722 38.875ZM62.6694 47.7871H70.2231V46.9492H63.6724V44.2451H62.6694V47.7871ZM66.4526 40.2461H68.9663V45.21H69.9692V36.7549H68.9663V39.4082H66.4526V40.2461ZM76.7358 37.5674H72.356V43.001H73.0669C74.9014 42.9946 75.9678 42.9438 77.2944 42.6836L77.1929 41.8584C75.9805 42.0933 74.9521 42.1567 73.3081 42.1631V40.6016H76.6089V39.8145H73.3081V38.4053H76.7358V37.5674ZM73.8286 44.9941H80.4556V48.0283H81.4331V44.1816H73.8286V44.9941ZM77.9673 43.5215H78.894V40.5127H80.481V43.5977H81.4331V36.7549H80.481V39.7002H78.894V36.9707H77.9673V43.5215ZM91.9067 36.7041H90.9165V42.9502H91.9067V40.2715H93.6206V39.4463H91.9067V36.7041ZM83.1089 38.5703H89.8374V37.7705H86.9683V36.6279H85.978V37.7705H83.1089V38.5703ZM83.7563 40.9316C83.75 42.0806 84.8291 42.7788 86.4731 42.7852C88.1108 42.7788 89.1772 42.0806 89.1899 40.9316C89.1772 39.7891 88.1108 39.0845 86.4731 39.0781C84.8291 39.0845 83.75 39.7891 83.7563 40.9316ZM84.7085 44.2832H90.9165V45.2988H84.7339V47.9014H92.3257V47.1396H85.7114V46.0352H91.9067V43.5342H84.7085V44.2832ZM84.7085 40.9316C84.7021 40.2588 85.4004 39.8208 86.4731 39.8145C87.5396 39.8208 88.2378 40.2588 88.2505 40.9316C88.2378 41.6108 87.5396 42.0361 86.4731 42.0361C85.4004 42.0361 84.7021 41.6108 84.7085 40.9316ZM99.981 37.7959V37.1484H98.9526V37.7959C98.9526 39.4146 96.8896 40.7603 94.8521 41.0459L95.2583 41.8584C97.0166 41.5664 98.7495 40.6079 99.4731 39.2114C100.197 40.5952 101.936 41.5664 103.688 41.8584L104.094 41.0459C102.057 40.7603 99.9873 39.3892 99.981 37.7959ZM94.3188 43.9404H98.9526V48.0283H99.9302V43.9404H104.602V43.1025H94.3188V43.9404ZM115.875 42.9629H111.191V41.7695H114.784V40.9697H107.877V39.7637H114.542V37.0342H106.849V37.8467H113.54V39.0146H106.887V41.7695H110.213V42.9629H105.542V43.7881H115.875V42.9629ZM106.697 45.4639H113.603V47.9268H114.606V44.6514H106.697V45.4639ZM129.726 36.7422H128.761V41.2236H127.187V36.9834H126.235V47.457H127.187V42.0488H128.761V48.0283H129.726V36.7422ZM120.471 44.9941H124.788V38.0625H120.471V44.9941ZM121.411 44.1943V38.8623H123.848V44.1943H121.411ZM135.388 39.1035V38.9512H137.978V38.1514H135.401V36.7422H134.398V38.1514H131.795V38.9512H134.398V39.1035C134.398 40.6523 133.192 42.0361 131.516 42.5693L132.011 43.3564C133.37 42.9058 134.423 41.9346 134.918 40.6904C135.433 41.814 136.505 42.6772 137.838 43.0645L138.308 42.29C136.62 41.8013 135.382 40.5381 135.388 39.1035ZM133.027 45.9463C133.021 47.2603 134.455 48.0029 136.835 48.0029C139.197 48.0029 140.631 47.2603 140.644 45.9463C140.631 44.6577 139.197 43.9023 136.835 43.915C134.455 43.9023 133.021 44.6577 133.027 45.9463ZM134.03 45.9463C134.03 45.1782 135.077 44.7021 136.835 44.7021C138.587 44.7021 139.654 45.1782 139.654 45.9463C139.654 46.7461 138.587 47.2158 136.835 47.2158C135.077 47.2158 134.03 46.7461 134.03 45.9463ZM139.616 43.6738H140.606V36.7549H139.616V43.6738ZM154.596 36.7549H153.593V44.3213H154.596V41.0078H156.285V40.1699H154.596V36.7549ZM145.735 43.166L145.849 43.9785C147.836 43.9849 150.534 43.9658 152.984 43.5342L152.895 42.8105C151.905 42.9565 150.838 43.0454 149.785 43.0962V42.3027C151.092 42.1758 151.917 41.5728 151.93 40.6396C151.917 39.6113 150.876 38.9766 149.277 38.9766C147.69 38.9766 146.63 39.6113 146.636 40.6396C146.63 41.5791 147.48 42.1821 148.794 42.3027V43.1343C147.69 43.166 146.636 43.166 145.735 43.166ZM146.014 38.5449H152.552V37.7832H149.785V36.6533H148.794V37.7832H146.014V38.5449ZM147.119 45.6797H153.593V48.0283H154.596V44.8799H147.119V45.6797ZM147.588 40.6396C147.582 40.043 148.236 39.6748 149.277 39.6875C150.318 39.6748 150.978 40.043 150.978 40.6396C150.978 41.23 150.318 41.6299 149.277 41.6172C148.236 41.6299 147.582 41.23 147.588 40.6396ZM167.342 41.8965H157.008V42.6709H159.814V43.6992H158.252V44.4355H165.057V45.4004H158.265V47.9014H166.416V47.1777H159.268V46.0986H166.047V43.6992H164.549V42.6709H167.342V41.8965ZM158.316 37.7959H165.006V38.7354H158.354V41.0967H166.212V40.373H159.344V39.4082H166.009V37.085H158.316V37.7959ZM160.792 43.6992V42.6709H163.559V43.6992H160.792ZM177.562 36.7422H176.559V48.0537H177.562V36.7422ZM168.675 41.5537C168.682 43.9595 169.875 45.4829 171.557 45.4766C173.233 45.4829 174.445 43.9595 174.439 41.5537C174.445 39.1543 173.233 37.6245 171.557 37.6182C169.875 37.6245 168.682 39.1543 168.675 41.5537ZM169.64 41.5537C169.64 39.7192 170.427 38.5132 171.557 38.5068C172.693 38.5132 173.474 39.7192 173.474 41.5537C173.474 43.3882 172.693 44.5942 171.557 44.5879C170.427 44.5942 169.64 43.3882 169.64 41.5537ZM187.896 36.8818C185.376 36.8818 183.897 37.5801 183.897 38.8369C183.897 40.0176 185.179 40.6968 187.388 40.792V41.6553H182.754V42.4678H193.038V41.6553H188.366V40.792C190.587 40.7095 191.876 40.0239 191.882 38.8369C191.876 37.5801 190.403 36.8818 187.896 36.8818ZM183.999 44.1943H190.74V45.21H184.024V47.9014H192.06V47.1143H185.014V45.9463H191.717V43.4199H183.999V44.1943ZM184.938 38.8369C184.925 38.0942 186.023 37.6562 187.896 37.6436C189.769 37.6562 190.86 38.0942 190.867 38.8369C190.86 39.6113 189.769 40.0303 187.896 40.043C186.023 40.0303 184.925 39.6113 184.938 38.8369ZM202.724 36.7422H201.734V48.0537H202.724V42.0742H204.616V41.2363H202.724V36.7422ZM194.434 38.6211H198.573V41.0078H194.459V45.3242H195.361C197.538 45.3115 199.042 45.229 200.82 44.9053L200.718 44.0801C199.011 44.3975 197.544 44.48 195.45 44.4736V41.833H199.563V37.7959H194.434V38.6211ZM213.959 36.7422H212.969V48.0283H213.959V42.1758H215.788V41.3379H213.959V36.7422ZM205.301 45.0957L205.86 45.8828C209.535 44.0674 211.033 41.1538 211.04 37.9609H205.822V38.7988H210.03C209.802 41.4712 208.215 43.6484 205.301 45.0957ZM226.794 45.7432H224.23V42.6709C225.163 42.1694 225.728 41.3696 225.728 40.3604C225.728 38.6147 224.014 37.4658 221.602 37.4531C219.19 37.4658 217.476 38.6147 217.476 40.3604C217.476 41.3887 218.06 42.2012 219.025 42.7026V45.7432H216.46V46.5811H226.794V45.7432ZM218.441 40.3604C218.435 39.0972 219.749 38.2656 221.602 38.2783C223.437 38.2656 224.763 39.0972 224.763 40.3604C224.763 41.6235 223.437 42.4678 221.602 42.4678C219.749 42.4678 218.435 41.6235 218.441 40.3604ZM220.002 45.7432V43.0645C220.485 43.1914 221.024 43.2549 221.602 43.2549C222.192 43.2549 222.738 43.1851 223.227 43.0581V45.7432H220.002ZM229.524 37.8086H228.28L228.369 44.4102H229.435L229.524 37.8086ZM228.089 46.251C228.077 46.7017 228.458 47.0698 228.902 47.0762C229.353 47.0698 229.721 46.7017 229.714 46.251C229.721 45.8066 229.353 45.4385 228.902 45.4385C228.458 45.4385 228.077 45.8066 228.089 46.251Z" fill="#525252"/>
</svg>
