<svg width="283" height="49" viewBox="0 0 283 49" fill="none" xmlns="http://www.w3.org/2000/svg">
<path d="M10.5577 11.56C10.6537 11.416 10.8297 11.36 11.0857 11.392C11.3417 11.424 11.5097 11.528 11.5897 11.704C11.7017 11.912 11.7097 12.712 11.6137 14.104C11.4857 15.672 11.4057 17.272 11.3737 18.904C11.3577 19.992 11.3257 20.728 11.2777 21.112C11.2297 21.496 11.1417 21.72 11.0137 21.784C10.8377 21.912 10.6297 21.936 10.3897 21.856C10.2297 21.792 10.1417 21.52 10.1257 21.04C10.1097 20.56 10.1337 19.232 10.1977 17.056C10.2777 14.64 10.3337 13.16 10.3657 12.616C10.3977 12.072 10.4617 11.72 10.5577 11.56ZM2.82969 12.136C3.56569 11.928 4.35769 11.832 5.20569 11.848C6.06969 11.864 6.62169 11.984 6.86169 12.208C7.02169 12.368 7.11769 13.392 7.14969 15.28C7.19769 17.152 7.14969 18.16 7.00569 18.304C6.90969 18.4 5.99769 18.576 4.26969 18.832C3.10169 18.976 2.37369 19.048 2.08569 19.048C1.79769 19.048 1.60569 18.976 1.50969 18.832C1.26969 18.496 1.11769 17.512 1.05369 15.88C0.989688 14.232 1.05369 13.24 1.24569 12.904C1.42169 12.648 1.94969 12.392 2.82969 12.136ZM5.66169 13.168C5.46969 13.104 5.32569 13.072 5.22969 13.072C5.21369 13.088 5.14969 13.104 5.03769 13.12C4.94169 13.136 4.80569 13.16 4.62969 13.192C4.45369 13.224 4.29369 13.248 4.14969 13.264C3.15769 13.424 2.58169 13.592 2.42169 13.768C2.26169 13.944 2.18169 14.496 2.18169 15.424C2.18169 16.448 2.21369 17.064 2.27769 17.272C2.35769 17.464 2.90969 17.528 3.93369 17.464C4.92569 17.416 5.52569 17.36 5.73369 17.296C5.87769 17.248 5.94969 16.568 5.94969 15.256C5.94969 14.456 5.92569 13.92 5.87769 13.648C5.84569 13.376 5.77369 13.216 5.66169 13.168ZM16.1776 8.944C16.7216 8.88 17.4656 8.816 18.4096 8.752C18.6656 8.736 18.8656 8.856 19.0096 9.112C19.1536 9.368 19.1616 9.616 19.0336 9.856C18.9696 9.968 18.8096 10.04 18.5536 10.072C18.2976 10.088 17.8096 10.088 17.0896 10.072C15.9216 10.024 15.1456 10.088 14.7616 10.264C14.3776 10.44 14.1456 10.856 14.0656 11.512C14.0016 12.072 14.0176 12.504 14.1136 12.808C14.2096 13.016 14.3056 13.128 14.4016 13.144C14.4976 13.144 14.8016 13.08 15.3136 12.952C16.0336 12.776 16.8096 12.688 17.6416 12.688C18.0416 12.688 18.3376 12.696 18.5296 12.712C18.7376 12.728 18.8896 12.76 18.9856 12.808C19.0816 12.856 19.1536 12.936 19.2016 13.048C19.4096 13.416 19.1936 13.672 18.5536 13.816C18.2336 13.896 17.7536 13.96 17.1136 14.008C15.9136 14.136 15.1376 14.256 14.7856 14.368C14.5296 14.48 14.3696 14.576 14.3056 14.656C14.2416 14.736 14.2336 14.872 14.2816 15.064C14.3136 15.288 14.3616 15.424 14.4256 15.472C14.5056 15.504 14.6896 15.496 14.9776 15.448C16.7696 15.144 18.0016 14.992 18.6736 14.992C19.3456 14.992 19.7056 15.144 19.7536 15.448C19.7536 15.464 19.7536 15.48 19.7536 15.496C19.7856 15.656 19.7136 15.776 19.5376 15.856C19.2816 15.952 18.0656 16.216 15.8896 16.648L15.8656 16.672H15.8416H15.8176H15.7936H15.7696L15.7456 16.696H15.7216H15.6976H15.6736H15.6496L15.6256 16.72H15.6016H15.5776H15.5536H15.5296L15.5056 16.744H15.4816C14.7936 16.888 14.3376 16.96 14.1136 16.96C13.9056 16.96 13.7456 16.904 13.6336 16.792C13.3136 16.488 13.0736 15.024 12.9136 12.4C12.8816 12.016 12.8656 11.696 12.8656 11.44C12.8656 11.184 12.8816 10.936 12.9136 10.696C12.9456 10.44 12.9856 10.24 13.0336 10.096C13.0816 9.952 13.1696 9.816 13.2976 9.688C13.4256 9.544 13.5616 9.44 13.7056 9.376C13.8496 9.312 14.0496 9.248 14.3056 9.184C14.5616 9.12 14.8336 9.072 15.1216 9.04C15.4096 9.008 15.7616 8.976 16.1776 8.944ZM21.4096 10.144C21.4736 9.968 21.6176 9.872 21.8416 9.856C22.0656 9.84 22.2416 9.912 22.3696 10.072C22.4496 10.2 22.4896 11.384 22.4896 13.624C22.5056 15.864 22.4736 17.032 22.3936 17.128C22.3296 17.176 22.1296 17.144 21.7936 17.032L21.2896 16.84V13.648C21.2896 11.536 21.3296 10.368 21.4096 10.144ZM19.5136 18.088C19.8496 18.056 20.0576 18.024 20.1376 17.992C20.2016 17.96 20.3376 18.008 20.5456 18.136C20.7696 18.248 21.0016 18.416 21.2416 18.64C21.4816 18.848 21.6656 19.048 21.7936 19.24C22.0176 19.544 22.1616 19.8 22.2256 20.008C22.2896 20.216 22.3136 20.56 22.2976 21.04C22.2816 21.504 22.2336 21.864 22.1536 22.12C22.0736 22.376 21.9216 22.656 21.6976 22.96C20.9456 24 20.0576 24.408 19.0336 24.184C18.5216 24.072 17.9936 23.8 17.4496 23.368C16.9056 22.952 16.5296 22.504 16.3216 22.024C16.0816 21.544 16.0016 21.104 16.0816 20.704C16.1616 20.288 16.4096 19.848 16.8256 19.384C16.9696 19.208 17.1056 19.064 17.2336 18.952C17.3616 18.84 17.4976 18.744 17.6416 18.664C17.8016 18.568 17.9696 18.488 18.1456 18.424C18.3376 18.344 18.5376 18.28 18.7456 18.232C18.9696 18.184 19.2256 18.136 19.5136 18.088ZM20.7376 19.816C20.4816 19.512 20.2336 19.336 19.9936 19.288C19.7536 19.224 19.4096 19.272 18.9616 19.432C18.6576 19.528 18.3776 19.664 18.1216 19.84C17.8816 20.016 17.6896 20.216 17.5456 20.44C17.4016 20.648 17.3296 20.848 17.3296 21.04C17.3296 21.344 17.5456 21.728 17.9776 22.192C18.4096 22.656 18.8096 22.928 19.1776 23.008C19.4336 23.056 19.6336 23.048 19.7776 22.984C19.9376 22.92 20.1616 22.736 20.4496 22.432C20.7056 22.16 20.8736 21.936 20.9536 21.76C21.0496 21.568 21.0976 21.32 21.0976 21.016C21.0976 20.536 20.9776 20.136 20.7376 19.816ZM39.5765 10C39.5765 9.44 39.6005 9.12 39.6485 9.04C39.6965 8.96 39.8485 8.928 40.1045 8.944L40.6085 9.016V12.952C40.6085 14.712 40.5925 15.824 40.5605 16.288C40.5285 16.736 40.4405 17.008 40.2965 17.104C39.9445 17.312 39.7125 17.176 39.6005 16.696C39.5205 16.312 39.4645 15.632 39.4325 14.656L39.3605 12.472L38.7845 12.568C38.5765 12.616 38.0165 12.696 37.1045 12.808C36.5605 12.856 36.2325 12.864 36.1205 12.832C36.0245 12.8 35.9445 12.656 35.8805 12.4C35.8165 12.064 35.8325 11.848 35.9285 11.752C36.0245 11.656 36.6645 11.528 37.8485 11.368L39.5765 11.128V10ZM33.9125 9.424C34.2485 9.008 34.5685 8.992 34.8725 9.376C34.9685 9.488 34.9925 9.632 34.9445 9.808C34.8965 9.968 34.7525 10.256 34.5125 10.672C34.1285 11.36 33.9365 11.792 33.9365 11.968C33.9365 12.128 34.4085 12.68 35.3525 13.624C35.9125 14.168 36.2805 14.576 36.4565 14.848C36.6485 15.104 36.7365 15.32 36.7205 15.496C36.6725 15.864 36.5285 16.04 36.2885 16.024C36.0485 16.008 35.7525 15.8 35.4005 15.4C35.1605 15.128 34.9205 14.856 34.6805 14.584C34.4405 14.312 34.2165 14.08 34.0085 13.888C33.8165 13.696 33.6485 13.544 33.5045 13.432C33.3605 13.304 33.2645 13.24 33.2165 13.24C33.1045 13.24 32.9365 13.488 32.7125 13.984C32.5045 14.464 32.3685 14.912 32.3045 15.328C32.2085 15.808 32.0725 16.096 31.8965 16.192C31.6405 16.272 31.4085 16.256 31.2005 16.144C31.0085 16.016 30.9125 15.832 30.9125 15.592C30.9125 15.32 31.3205 14.336 32.1365 12.64C32.9685 10.944 33.5605 9.872 33.9125 9.424ZM34.4645 18.328C34.6085 18.088 34.8245 18.024 35.1125 18.136C35.3045 18.2 35.4165 18.328 35.4485 18.52C35.4965 18.696 35.5205 19.12 35.5205 19.792C35.5205 19.856 35.5205 19.952 35.5205 20.08C35.5205 20.752 35.6245 21.136 35.8325 21.232C36.0405 21.312 36.7765 21.272 38.0405 21.112C38.2485 21.096 38.4165 21.08 38.5445 21.064C39.4885 20.952 40.1525 20.904 40.5365 20.92C40.9205 20.92 41.1125 21 41.1125 21.16C41.1125 21.32 40.9845 21.52 40.7285 21.76C40.4885 22 40.2725 22.12 40.0805 22.12C39.8885 22.12 39.0325 22.24 37.5125 22.48C36.2645 22.688 35.4485 22.776 35.0645 22.744C34.6965 22.712 34.4725 22.52 34.3925 22.168C34.2805 21.72 34.2325 21.016 34.2485 20.056C34.2645 19.096 34.3365 18.52 34.4645 18.328ZM45.6151 7.36C45.6791 7.264 45.8311 7.216 46.0711 7.216C46.4711 7.216 46.6551 7.672 46.6231 8.584C46.5911 9.08 46.5831 9.456 46.5991 9.712L46.6231 10.216L48.2551 10.168C48.9431 10.152 49.3911 10.168 49.5991 10.216C49.8231 10.248 49.9831 10.336 50.0791 10.48C50.3351 10.912 50.0791 11.184 49.3111 11.296C49.0391 11.328 48.7111 11.344 48.3271 11.344C47.4631 11.344 46.9191 11.408 46.6951 11.536C46.4231 11.664 45.9831 11.72 45.3751 11.704C44.7031 11.704 44.1991 11.776 43.8631 11.92C43.4311 12.096 43.0711 12.152 42.7831 12.088C42.5111 12.024 42.3511 11.864 42.3031 11.608C42.2871 11.432 42.3191 11.296 42.3991 11.2C42.4951 11.104 42.6791 11 42.9511 10.888C43.5111 10.648 44.3111 10.496 45.3511 10.432C45.4471 10.416 45.4951 9.92 45.4951 8.944C45.4951 7.952 45.5351 7.424 45.6151 7.36ZM45.1591 12.928C45.5271 12.8 45.9111 12.728 46.3111 12.712C46.6951 12.696 47.1751 12.84 47.7511 13.144C48.3271 13.432 48.7831 13.776 49.1191 14.176C49.3751 14.464 49.5271 14.696 49.5751 14.872C49.6231 15.048 49.6311 15.336 49.5991 15.736C49.5511 16.328 49.3031 16.904 48.8551 17.464C48.4231 18.024 47.9351 18.384 47.3911 18.544C46.7351 18.72 46.1591 18.776 45.6631 18.712C45.1671 18.648 44.6871 18.44 44.2231 18.088C43.6311 17.688 43.2631 17.28 43.1191 16.864C42.9911 16.432 43.0311 15.84 43.2391 15.088C43.3511 14.624 43.5991 14.184 43.9831 13.768C44.3671 13.336 44.7591 13.056 45.1591 12.928ZM47.9431 14.56C47.6711 14.32 47.3671 14.16 47.0311 14.08C46.7111 13.984 46.3991 13.976 46.0951 14.056C45.7911 14.136 45.5031 14.272 45.2311 14.464C44.9751 14.64 44.7671 14.88 44.6071 15.184C44.4471 15.488 44.3671 15.816 44.3671 16.168C44.3671 16.488 44.5671 16.808 44.9671 17.128C45.3671 17.432 45.7751 17.584 46.1911 17.584C46.4791 17.584 46.7191 17.536 46.9111 17.44C47.1031 17.328 47.3671 17.112 47.7031 16.792C48.1991 16.312 48.4631 15.92 48.4951 15.616C48.5271 15.296 48.3431 14.944 47.9431 14.56ZM46.8631 19.528C47.1831 19.128 47.3991 19.344 47.5111 20.176C47.5271 20.288 47.5431 20.408 47.5591 20.536L47.6791 21.64L48.6151 21.664C49.1591 21.664 49.5591 21.672 49.8151 21.688C50.0871 21.688 50.3191 21.704 50.5111 21.736C50.7031 21.768 50.8231 21.816 50.8711 21.88C50.9351 21.928 50.9831 22 51.0151 22.096C51.0631 22.368 51.0471 22.552 50.9671 22.648C50.9031 22.776 50.0951 22.872 48.5431 22.936C46.9591 23.016 45.9031 23.16 45.3751 23.368C44.4471 23.736 43.9831 23.648 43.9831 23.104C43.9831 22.56 44.4791 22.232 45.4711 22.12C45.8871 22.072 46.1351 22.016 46.2151 21.952C46.2951 21.872 46.3431 21.672 46.3591 21.352C46.3591 20.536 46.5271 19.928 46.8631 19.528ZM68.0519 7.816C68.0999 7.656 68.2519 7.592 68.5079 7.624C68.7799 7.64 68.9719 7.744 69.0839 7.936C69.1959 8.16 69.2039 8.664 69.1079 9.448C69.0279 10.152 69.0519 10.568 69.1799 10.696C69.3239 10.808 69.8279 10.824 70.6919 10.744C71.2359 10.68 71.5879 10.664 71.7479 10.696C71.9079 10.728 72.0519 10.84 72.1799 11.032C72.4039 11.32 72.4279 11.544 72.2519 11.704C72.0759 11.864 71.7159 11.952 71.1719 11.968C70.6119 11.968 70.1079 12.048 69.6599 12.208L69.0119 12.448L68.9159 13.936L68.8199 15.424H68.2199H67.6679L67.6919 14.2C67.6919 13.384 67.7399 12.16 67.8359 10.528C67.9319 8.88 68.0039 7.976 68.0519 7.816ZM59.6519 13.504C59.5559 13.408 59.4839 12.504 59.4359 10.792C59.4039 9.08 59.4359 8.144 59.5319 7.984C59.6279 7.824 59.8119 7.768 60.0839 7.816C60.2759 7.848 60.3959 7.96 60.4439 8.152C60.5079 8.36 60.5479 8.984 60.5639 10.024L60.6359 12.16L61.5959 12.04C62.3639 11.96 63.0919 11.928 63.7799 11.944C64.4839 11.944 64.8919 12 65.0039 12.112C65.1319 12.24 65.1319 12.448 65.0039 12.736C64.9399 12.88 64.8599 12.984 64.7639 13.048C64.6839 13.112 64.5639 13.152 64.4039 13.168C64.2439 13.184 63.9719 13.2 63.5879 13.216C62.6759 13.248 61.8599 13.328 61.1399 13.456C60.2759 13.616 59.7799 13.632 59.6519 13.504ZM63.8999 16.96C64.4439 16.944 64.8439 16.928 65.0999 16.912C65.3719 16.896 65.6919 16.896 66.0599 16.912C66.4279 16.912 66.6839 16.912 66.8279 16.912C66.9719 16.912 67.1559 16.944 67.3799 17.008C67.6039 17.056 67.7479 17.096 67.8119 17.128C67.8759 17.16 67.9719 17.248 68.0999 17.392C68.2279 17.52 68.2999 17.632 68.3159 17.728C68.3319 17.808 68.3719 17.968 68.4359 18.208C68.5159 18.432 68.5559 18.624 68.5559 18.784C68.5719 18.944 68.5959 19.192 68.6279 19.528C68.6919 20.216 68.7079 20.64 68.6759 20.8C68.6439 20.96 68.5079 21.112 68.2679 21.256C68.0759 21.384 67.8199 21.464 67.4999 21.496C67.1959 21.528 66.6919 21.536 65.9879 21.52C64.9959 21.488 64.3799 21.528 64.1399 21.64C63.9159 21.736 63.8039 22.048 63.8039 22.576V23.104L66.3239 22.984C67.3959 22.92 68.0919 22.896 68.4119 22.912C68.7479 22.944 68.9719 23.024 69.0839 23.152C69.2439 23.36 69.2919 23.544 69.2279 23.704C69.1639 23.864 68.9479 23.976 68.5799 24.04C68.2119 24.104 67.2599 24.216 65.7239 24.376L63.5639 24.616L63.0839 24.136C62.7639 23.8 62.5719 23.304 62.5079 22.648C62.4439 22.008 62.5479 21.512 62.8199 21.16C63.0439 20.888 63.4759 20.664 64.1159 20.488C64.7719 20.296 65.2839 20.248 65.6519 20.344C65.9079 20.424 66.2759 20.416 66.7559 20.32L67.4279 20.224L67.3319 19.36C67.2839 18.816 67.1799 18.456 67.0199 18.28C66.8919 18.152 66.3799 18.096 65.4839 18.112C64.6039 18.128 63.8999 18.208 63.3719 18.352C62.9399 18.48 62.5879 18.512 62.3159 18.448C62.0599 18.368 61.9319 18.216 61.9319 17.992C61.9319 17.672 62.0839 17.432 62.3879 17.272C62.7079 17.112 63.2119 17.008 63.8999 16.96ZM86.9848 11.608C87.1128 11.448 87.2648 11.376 87.4408 11.392C87.6328 11.392 87.7688 11.48 87.8488 11.656C87.9608 11.816 87.9688 12.576 87.8728 13.936C87.7928 15.024 87.7928 15.696 87.8728 15.952C87.9528 16.208 88.1768 16.28 88.5448 16.168C89.3448 15.928 90.0728 15.84 90.7288 15.904C91.4008 15.968 91.7688 16.16 91.8328 16.48C91.8808 16.688 91.7528 16.84 91.4488 16.936C91.1608 17.016 90.4888 17.12 89.4328 17.248L87.6088 17.464L87.5848 19.384C87.5368 20.632 87.4408 21.336 87.2968 21.496C86.9768 21.88 86.7048 21.856 86.4808 21.424C86.2728 21.04 86.2088 20.496 86.2888 19.792C86.3688 19.056 86.4648 17.576 86.5768 15.352C86.7208 13 86.8568 11.752 86.9848 11.608ZM77.8648 12.04C77.9288 11.976 78.1368 11.944 78.4888 11.944C79.3528 11.944 79.4888 12.48 78.8968 13.552C78.5928 14.144 78.3208 14.584 78.0808 14.872C77.8728 15.08 77.7768 15.328 77.7928 15.616C77.8248 15.904 77.9528 16.16 78.1768 16.384C78.3688 16.56 78.4648 16.712 78.4648 16.84C78.4648 16.968 78.6328 17.224 78.9688 17.608C79.3208 17.976 79.5608 18.16 79.6888 18.16C79.7528 18.16 79.8408 18.088 79.9528 17.944C80.0648 17.8 80.1608 17.624 80.2408 17.416C80.4968 16.888 80.9128 16.232 81.4888 15.448C82.4008 14.216 82.7608 13.496 82.5688 13.288C82.5368 13.256 82.4968 13.24 82.4488 13.24C82.3208 13.24 82.0168 13.336 81.5368 13.528C80.9448 13.784 80.5208 13.864 80.2648 13.768C80.0248 13.672 79.9608 13.408 80.0728 12.976C80.1528 12.656 80.4248 12.44 80.8888 12.328C81.5448 12.168 82.1928 12.072 82.8328 12.04C83.4888 11.992 83.8888 12.024 84.0328 12.136C84.2248 12.28 84.2408 12.632 84.0808 13.192C83.9368 13.752 83.6648 14.32 83.2648 14.896L82.5688 15.88L83.0008 16.456C83.3048 16.84 83.7048 17.288 84.2008 17.8C84.5848 18.216 84.7928 18.496 84.8248 18.64C84.8728 18.784 84.8008 18.944 84.6088 19.12C84.1128 19.536 83.4488 19.184 82.6168 18.064C82.3928 17.76 82.1928 17.52 82.0168 17.344C81.8568 17.152 81.7528 17.072 81.7048 17.104C81.6408 17.152 81.4648 17.448 81.1768 17.992C80.9048 18.536 80.7368 18.936 80.6728 19.192C80.6248 19.336 80.5528 19.424 80.4568 19.456C80.3608 19.472 80.1688 19.448 79.8808 19.384C79.3048 19.288 78.8728 19.144 78.5848 18.952C78.2968 18.76 78.0008 18.416 77.6968 17.92C77.5368 17.68 77.3768 17.472 77.2168 17.296C77.0568 17.12 76.9448 17.032 76.8808 17.032C76.7528 17.032 76.5128 17.288 76.1608 17.8C75.8248 18.296 75.6568 18.632 75.6568 18.808C75.6568 19.096 75.4488 19.304 75.0328 19.432C74.6328 19.56 74.3608 19.512 74.2168 19.288C74.1208 19.128 74.1208 18.904 74.2168 18.616C74.3288 18.312 74.4968 18.032 74.7208 17.776C74.9288 17.552 75.2328 17.16 75.6328 16.6C76.0328 16.04 76.2888 15.648 76.4008 15.424C76.4488 15.36 76.6568 15.032 77.0248 14.44C77.5208 13.704 77.5848 13.344 77.2168 13.36C77.1368 13.36 77.0248 13.384 76.8808 13.432C76.2248 13.672 75.3928 13.84 74.3848 13.936C74.0008 13.984 73.7688 13.992 73.6888 13.96C73.6088 13.928 73.5688 13.792 73.5688 13.552C73.5688 13.216 73.7528 12.96 74.1208 12.784C74.5048 12.608 75.2008 12.456 76.2088 12.328C77.2808 12.184 77.8328 12.088 77.8648 12.04ZM94.0539 7.936C94.2139 7.728 94.4139 7.664 94.6539 7.744C94.8299 7.776 94.9419 7.912 94.9899 8.152C95.0379 8.376 95.0619 8.952 95.0619 9.88V11.968L95.8779 11.848C96.0219 11.816 96.2539 11.776 96.5739 11.728C96.9099 11.68 97.1259 11.648 97.2219 11.632C98.6299 11.424 99.5739 11.312 100.054 11.296C100.31 11.296 100.462 11.328 100.51 11.392C100.574 11.44 100.606 11.624 100.606 11.944V12.592L99.5259 12.64C98.7419 12.656 97.7659 12.8 96.5979 13.072C95.3659 13.312 94.6379 13.424 94.4139 13.408C94.2059 13.376 94.0299 13.152 93.8859 12.736C93.7579 12.256 93.7099 11.384 93.7419 10.12C93.7899 8.856 93.8939 8.128 94.0539 7.936ZM100.846 15.16C100.862 15.144 100.966 15.24 101.158 15.448C101.494 15.784 101.542 16.112 101.302 16.432C101.078 16.736 100.71 16.84 100.198 16.744C99.7659 16.68 99.0059 16.736 97.9179 16.912C96.0779 17.232 94.8619 17.424 94.2699 17.488C93.6939 17.536 93.3339 17.48 93.1899 17.32C93.0779 17.208 93.0219 17.112 93.0219 17.032C93.0219 16.936 93.0939 16.784 93.2379 16.576C93.3659 16.352 93.5099 16.216 93.6699 16.168C93.8299 16.12 94.1499 16.096 94.6299 16.096C95.3819 16.096 96.1499 16.008 96.9339 15.832C97.8299 15.656 98.5339 15.568 99.0459 15.568C99.5899 15.536 100.03 15.464 100.366 15.352L100.846 15.16ZM95.5419 19.12C95.7339 18.896 95.8539 18.776 95.9019 18.76C95.9499 18.744 96.0699 18.776 96.2619 18.856C96.3419 18.888 96.3979 18.952 96.4299 19.048C96.4779 19.144 96.5099 19.296 96.5259 19.504C96.5419 19.696 96.5499 19.976 96.5499 20.344C96.5499 21.272 96.6139 21.736 96.7419 21.736C96.8699 21.736 97.1659 21.64 97.6299 21.448C98.0459 21.304 98.7419 21.128 99.7179 20.92C100.71 20.712 101.374 20.608 101.71 20.608C101.998 20.608 102.182 20.736 102.262 20.992C102.294 21.136 102.294 21.264 102.262 21.376C102.23 21.488 102.15 21.584 102.022 21.664C101.91 21.744 101.75 21.808 101.542 21.856C101.35 21.904 101.102 21.944 100.798 21.976C100.062 22.04 99.3659 22.216 98.7099 22.504C98.4699 22.616 98.1579 22.72 97.7739 22.816C97.4059 22.928 97.0859 22.992 96.8139 23.008C96.3819 23.056 96.1019 23.064 95.9739 23.032C95.8459 23 95.7259 22.888 95.6139 22.696C95.4699 22.392 95.3659 21.784 95.3019 20.872C95.2539 20.28 95.2459 19.88 95.2779 19.672C95.3099 19.464 95.3979 19.28 95.5419 19.12ZM113.91 8.416C114.038 8.256 114.206 8.184 114.414 8.2C114.542 8.232 114.622 8.352 114.654 8.56C114.686 8.752 114.694 9.16 114.678 9.784C114.63 10.808 114.662 11.36 114.774 11.44C114.854 11.504 115.27 11.48 116.022 11.368C116.758 11.24 117.214 11.248 117.39 11.392C117.582 11.536 117.654 11.68 117.606 11.824C117.558 11.968 117.326 12.32 116.91 12.88C116.478 13.424 116.23 13.808 116.166 14.032C116.118 14.256 116.222 14.408 116.478 14.488C116.91 14.632 117.342 14.832 117.774 15.088C118.222 15.328 118.478 15.512 118.542 15.64C118.606 15.832 118.542 16.024 118.35 16.216C118.222 16.344 118.078 16.4 117.918 16.384C117.774 16.352 117.454 16.224 116.958 16C116.126 15.616 115.654 15.392 115.542 15.328C115.462 15.248 115.366 15.24 115.254 15.304C115.142 15.368 115.014 15.48 114.87 15.64C114.726 15.784 114.518 16.024 114.246 16.36C113.83 16.856 113.526 17.184 113.334 17.344C113.142 17.504 112.934 17.584 112.71 17.584C112.022 17.584 111.894 17.28 112.326 16.672L112.974 15.928C113.726 15.112 114.342 14.4 114.822 13.792C115.318 13.184 115.566 12.816 115.566 12.688C115.566 12.544 115.406 12.504 115.086 12.568C114.782 12.648 114.286 12.728 113.598 12.808C112.926 12.872 112.366 12.96 111.918 13.072C111.086 13.248 110.67 13.128 110.67 12.712C110.67 12.424 110.766 12.224 110.958 12.112C111.166 11.984 111.566 11.888 112.158 11.824C112.942 11.728 113.358 11.616 113.406 11.488C113.454 11.36 113.51 10.848 113.574 9.952C113.654 9.104 113.766 8.592 113.91 8.416ZM121.11 12.544C121.238 12.384 121.35 12.312 121.446 12.328C121.542 12.344 121.662 12.432 121.806 12.592C121.902 12.704 121.95 13.024 121.95 13.552C121.95 14.08 121.918 15.072 121.854 16.528C121.79 17.488 121.75 18.392 121.734 19.24C121.718 20.088 121.726 20.584 121.758 20.728C121.822 21.208 121.678 21.576 121.326 21.832C120.99 22.04 120.742 21.968 120.582 21.616L120.558 21.52C120.494 21.344 120.494 20.2 120.558 18.088C120.622 15.96 120.71 14.504 120.822 13.72C120.886 13.08 120.982 12.688 121.11 12.544ZM115.446 17.56C115.59 17.448 115.758 17.416 115.95 17.464C116.062 17.48 116.126 17.568 116.142 17.728C116.174 17.872 116.182 18.168 116.166 18.616L116.118 19.672L117.534 19.552C118.19 19.504 118.59 19.496 118.734 19.528C118.894 19.544 119.006 19.656 119.07 19.864C119.166 20.184 119.094 20.432 118.854 20.608C118.63 20.784 118.278 20.856 117.798 20.824C117.286 20.808 116.606 20.872 115.758 21.016C114.926 21.144 114.294 21.304 113.862 21.496C113.414 21.672 113.054 21.696 112.782 21.568C112.526 21.44 112.39 21.328 112.374 21.232C112.358 21.12 112.446 20.928 112.638 20.656C112.846 20.4 113.262 20.224 113.886 20.128C114.334 20.064 114.598 20 114.678 19.936C114.774 19.872 114.822 19.688 114.822 19.384C114.822 19.016 114.886 18.648 115.014 18.28C115.142 17.896 115.286 17.656 115.446 17.56ZM126.451 9.04C126.755 8.736 126.963 8.552 127.075 8.488C127.187 8.424 127.307 8.44 127.435 8.536C127.627 8.696 127.715 8.848 127.699 8.992C127.683 9.12 127.563 9.328 127.339 9.616C127.099 9.92 127.011 10.128 127.075 10.24C127.139 10.352 127.803 10.824 129.067 11.656C129.595 12.008 129.987 12.28 130.243 12.472C130.499 12.664 130.675 12.824 130.771 12.952C130.883 13.08 130.939 13.208 130.939 13.336C130.939 13.816 130.619 13.904 129.979 13.6C129.579 13.408 129.019 13.064 128.299 12.568C127.771 12.232 127.299 11.952 126.883 11.728C126.483 11.504 126.251 11.408 126.187 11.44C126.027 11.488 125.723 11.904 125.275 12.688C124.843 13.472 124.595 14.032 124.531 14.368C124.467 14.704 124.267 14.904 123.931 14.968C123.595 15.016 123.355 14.904 123.211 14.632C123.131 14.456 123.107 14.288 123.139 14.128C123.187 13.952 123.307 13.688 123.499 13.336C123.867 12.648 124.347 11.872 124.939 11.008C125.547 10.128 126.051 9.472 126.451 9.04ZM127.003 15.76C127.339 15.36 127.563 15.432 127.675 15.976C127.755 16.344 127.803 16.984 127.819 17.896L127.843 19.768L128.779 19.792C129.995 19.808 130.755 19.84 131.059 19.888C131.379 19.92 131.571 20.016 131.635 20.176C131.731 20.384 131.619 20.6 131.299 20.824C131.123 20.968 130.939 21.056 130.747 21.088C130.555 21.12 130.219 21.112 129.739 21.064C128.987 21 127.827 21.096 126.259 21.352C125.619 21.464 125.123 21.544 124.771 21.592C124.435 21.64 124.147 21.664 123.907 21.664C123.683 21.648 123.539 21.608 123.475 21.544C123.411 21.464 123.379 21.352 123.379 21.208C123.379 20.936 123.499 20.744 123.739 20.632C123.979 20.504 124.435 20.4 125.107 20.32L126.379 20.2L126.475 18.664C126.571 17.048 126.747 16.08 127.003 15.76ZM209.616 10C209.616 9.44 209.64 9.12 209.688 9.04C209.736 8.96 209.888 8.928 210.144 8.944L210.648 9.016V12.952C210.648 14.712 210.632 15.824 210.6 16.288C210.568 16.736 210.48 17.008 210.336 17.104C209.984 17.312 209.752 17.176 209.64 16.696C209.56 16.312 209.504 15.632 209.472 14.656L209.4 12.472L208.824 12.568C208.616 12.616 208.056 12.696 207.144 12.808C206.6 12.856 206.272 12.864 206.16 12.832C206.064 12.8 205.984 12.656 205.92 12.4C205.856 12.064 205.872 11.848 205.968 11.752C206.064 11.656 206.704 11.528 207.888 11.368L209.616 11.128V10ZM203.952 9.424C204.288 9.008 204.608 8.992 204.912 9.376C205.008 9.488 205.032 9.632 204.984 9.808C204.936 9.968 204.792 10.256 204.552 10.672C204.168 11.36 203.976 11.792 203.976 11.968C203.976 12.128 204.448 12.68 205.392 13.624C205.952 14.168 206.32 14.576 206.496 14.848C206.688 15.104 206.776 15.32 206.76 15.496C206.712 15.864 206.568 16.04 206.328 16.024C206.088 16.008 205.792 15.8 205.44 15.4C205.2 15.128 204.96 14.856 204.72 14.584C204.48 14.312 204.256 14.08 204.048 13.888C203.856 13.696 203.688 13.544 203.544 13.432C203.4 13.304 203.304 13.24 203.256 13.24C203.144 13.24 202.976 13.488 202.752 13.984C202.544 14.464 202.408 14.912 202.344 15.328C202.248 15.808 202.112 16.096 201.936 16.192C201.68 16.272 201.448 16.256 201.24 16.144C201.048 16.016 200.952 15.832 200.952 15.592C200.952 15.32 201.36 14.336 202.176 12.64C203.008 10.944 203.6 9.872 203.952 9.424ZM204.504 18.328C204.648 18.088 204.864 18.024 205.152 18.136C205.344 18.2 205.456 18.328 205.488 18.52C205.536 18.696 205.56 19.12 205.56 19.792C205.56 19.856 205.56 19.952 205.56 20.08C205.56 20.752 205.664 21.136 205.872 21.232C206.08 21.312 206.816 21.272 208.08 21.112C208.288 21.096 208.456 21.08 208.584 21.064C209.528 20.952 210.192 20.904 210.576 20.92C210.96 20.92 211.152 21 211.152 21.16C211.152 21.32 211.024 21.52 210.768 21.76C210.528 22 210.312 22.12 210.12 22.12C209.928 22.12 209.072 22.24 207.552 22.48C206.304 22.688 205.488 22.776 205.104 22.744C204.736 22.712 204.512 22.52 204.432 22.168C204.32 21.72 204.272 21.016 204.288 20.056C204.304 19.096 204.376 18.52 204.504 18.328ZM215.27 9.304C217.11 9.112 218.174 9.096 218.462 9.256C218.59 9.352 218.678 9.584 218.726 9.952C218.758 10.192 218.75 10.344 218.702 10.408C218.654 10.472 218.526 10.488 218.318 10.456C217.742 10.376 217.038 10.36 216.206 10.408C215.39 10.44 214.806 10.528 214.454 10.672L213.686 10.912L213.614 12.088L213.566 13.264L214.862 13.12C215.79 13.024 216.59 12.976 217.262 12.976C217.806 12.976 218.134 13 218.246 13.048C218.374 13.096 218.446 13.24 218.462 13.48C218.51 13.784 218.414 13.976 218.174 14.056C217.95 14.12 217.27 14.192 216.134 14.272C215.638 14.32 215.262 14.36 215.006 14.392C214.766 14.408 214.542 14.44 214.334 14.488C214.126 14.52 213.99 14.584 213.926 14.68C213.878 14.76 213.838 14.848 213.806 14.944C213.79 15.024 213.782 15.152 213.782 15.328C213.782 15.808 213.846 16.072 213.974 16.12C214.134 16.168 214.678 16.112 215.606 15.952C216.566 15.792 217.358 15.696 217.982 15.664C218.43 15.648 218.71 15.664 218.822 15.712C218.934 15.744 219.006 15.848 219.038 16.024C219.07 16.296 218.942 16.496 218.654 16.624C218.366 16.736 217.75 16.872 216.806 17.032C215.91 17.16 215.11 17.296 214.406 17.44C213.606 17.6 213.118 17.504 212.942 17.152C212.782 16.8 212.614 15.52 212.438 13.312C212.31 11.664 212.31 10.712 212.438 10.456C212.582 10.184 212.902 9.944 213.398 9.736C213.91 9.528 214.534 9.384 215.27 9.304ZM220.55 10.144C220.694 9.968 220.798 9.88 220.862 9.88C220.942 9.864 221.11 9.92 221.366 10.048C221.526 10.144 221.614 10.272 221.63 10.432C221.662 10.576 221.654 10.904 221.606 11.416L221.462 12.568L222.158 12.448C222.638 12.368 222.966 12.248 223.142 12.088C223.334 11.912 223.398 11.672 223.334 11.368C223.27 11.048 223.334 10.752 223.526 10.48C223.718 10.192 223.966 10.048 224.27 10.048H224.726L224.606 11.512C224.542 12.44 224.462 13.272 224.366 14.008C224.286 14.792 224.286 15.424 224.366 15.904C224.51 16.96 224.294 17.448 223.718 17.368C223.494 17.336 223.326 17.12 223.214 16.72C223.118 16.304 223.062 15.64 223.046 14.728C223.046 14.104 222.982 13.728 222.854 13.6C222.726 13.472 222.43 13.464 221.966 13.576C221.838 13.624 221.75 13.664 221.702 13.696C221.654 13.728 221.598 13.768 221.534 13.816C221.486 13.848 221.454 13.936 221.438 14.08C221.422 14.224 221.406 14.368 221.39 14.512C221.39 14.656 221.382 14.904 221.366 15.256C221.35 16.328 221.342 16.928 221.342 17.056C221.326 17.28 221.134 17.392 220.766 17.392C220.606 17.392 220.486 17.384 220.406 17.368C220.326 17.336 220.254 17.288 220.19 17.224C220.142 17.16 220.11 17.072 220.094 16.96C219.998 16.56 220.014 15.368 220.142 13.384C220.286 11.4 220.422 10.32 220.55 10.144ZM221.966 18.832C222.11 18.784 222.31 18.768 222.566 18.784C222.742 18.816 222.846 18.96 222.878 19.216C222.926 19.472 222.958 20.232 222.974 21.496L223.022 24.16L222.542 24.28C222.222 24.36 222.006 24.36 221.894 24.28C221.766 24.2 221.702 23.504 221.702 22.192V20.248H221.198C220.862 20.248 220.262 20.384 219.398 20.656C218.822 20.832 218.446 20.928 218.27 20.944C218.094 20.96 217.942 20.896 217.814 20.752C217.622 20.56 217.59 20.344 217.718 20.104C217.846 19.864 218.102 19.672 218.486 19.528C218.87 19.384 219.502 19.248 220.382 19.12C221.23 18.976 221.758 18.88 221.966 18.832ZM228.792 9.616C228.76 9.088 228.76 8.776 228.792 8.68C228.84 8.584 228.984 8.536 229.224 8.536C229.896 8.536 230.144 9.248 229.968 10.672L229.848 11.752L230.664 11.728C231.288 11.712 231.76 11.664 232.08 11.584C232.272 11.536 232.464 11.52 232.656 11.536C232.848 11.536 233.016 11.568 233.16 11.632C233.304 11.68 233.424 11.76 233.52 11.872C233.632 11.984 233.704 12.104 233.736 12.232C233.784 12.552 233.704 12.76 233.496 12.856C233.304 12.952 233 12.944 232.584 12.832C232.152 12.72 231.688 12.728 231.192 12.856C230.696 13 230.072 13.104 229.32 13.168C228.52 13.264 227.944 13.392 227.592 13.552C227.256 13.728 226.888 13.816 226.488 13.816C226.264 13.816 226.112 13.792 226.032 13.744C225.968 13.68 225.936 13.552 225.936 13.36C225.936 13.056 226.04 12.84 226.248 12.712C226.456 12.568 226.904 12.432 227.592 12.304C228.184 12.176 228.528 12.072 228.624 11.992C228.736 11.912 228.8 11.704 228.816 11.368C228.816 10.6 228.808 10.016 228.792 9.616ZM238.488 11.968C238.536 11.808 238.736 11.752 239.088 11.8L239.592 11.848L239.544 13.24C239.496 14.12 239.416 15.224 239.304 16.552C239.16 17.816 239.136 18.856 239.232 19.672C239.28 20.264 239.288 20.632 239.256 20.776C239.24 20.904 239.12 21.016 238.896 21.112C238.592 21.256 238.368 21.28 238.224 21.184C238.096 21.088 238.016 20.4 237.984 19.12C237.952 18.032 237.872 17.392 237.744 17.2C237.632 16.992 237.32 17.008 236.808 17.248L236.232 17.56L236.328 19.12C236.392 19.776 236.408 20.216 236.376 20.44C236.36 20.664 236.288 20.824 236.16 20.92C235.776 21.224 235.448 21.224 235.176 20.92C235.032 20.712 234.992 19.392 235.056 16.96C235.104 15.136 235.176 13.936 235.272 13.36C235.368 12.784 235.552 12.496 235.824 12.496C236.096 12.496 236.28 12.648 236.376 12.952C236.472 13.24 236.512 13.728 236.496 14.416L236.424 15.808L236.976 15.856C237.328 15.888 237.584 15.856 237.744 15.76C237.92 15.664 238.048 15.472 238.128 15.184C238.208 14.896 238.272 14.44 238.32 13.816C238.384 12.712 238.44 12.096 238.488 11.968ZM229.248 14.536C229.632 14.312 229.984 14.208 230.304 14.224C230.64 14.224 231.056 14.36 231.552 14.632C232.736 15.224 233.36 16.104 233.424 17.272C233.456 17.704 233.44 18.032 233.376 18.256C233.328 18.464 233.16 18.776 232.872 19.192C232.44 19.848 232.04 20.296 231.672 20.536C231.304 20.76 230.848 20.864 230.304 20.848C229.04 20.8 228.12 20.352 227.544 19.504C226.984 18.64 226.952 17.648 227.448 16.528C227.656 16.016 227.896 15.616 228.168 15.328C228.44 15.024 228.8 14.76 229.248 14.536ZM231.312 15.712C230.944 15.568 230.632 15.512 230.376 15.544C230.136 15.576 229.848 15.712 229.512 15.952C229.144 16.192 228.856 16.544 228.648 17.008C228.44 17.472 228.384 17.88 228.48 18.232C228.544 18.536 228.664 18.8 228.84 19.024C229.016 19.232 229.224 19.392 229.464 19.504C229.704 19.616 229.968 19.672 230.256 19.672C230.56 19.672 230.792 19.632 230.952 19.552C231.112 19.472 231.312 19.288 231.552 19C231.952 18.536 232.184 18.112 232.248 17.728C232.328 17.36 232.264 16.96 232.056 16.528C231.848 16.096 231.6 15.824 231.312 15.712ZM251.351 9.424C252.903 9.248 253.887 9.16 254.303 9.16C254.719 9.144 254.983 9.208 255.095 9.352C255.207 9.496 255.207 9.68 255.095 9.904C254.999 10.112 254.711 10.544 254.231 11.2L253.607 12.016L254.039 12.352C254.327 12.576 254.519 12.688 254.615 12.688C254.695 12.688 254.991 12.848 255.503 13.168C255.999 13.52 256.247 13.832 256.247 14.104C256.247 14.744 255.631 14.688 254.399 13.936C254.127 13.76 253.935 13.64 253.823 13.576C253.711 13.512 253.567 13.44 253.391 13.36C253.215 13.28 253.095 13.232 253.031 13.216C252.983 13.184 252.887 13.176 252.743 13.192C252.599 13.208 252.503 13.232 252.455 13.264C252.423 13.296 252.335 13.368 252.191 13.48C252.063 13.576 251.959 13.672 251.879 13.768C251.799 13.848 251.671 13.992 251.495 14.2C251.079 14.648 250.767 14.952 250.559 15.112C250.351 15.272 250.167 15.336 250.007 15.304C249.495 15.224 249.391 14.936 249.695 14.44C249.935 14.072 250.455 13.488 251.255 12.688C252.695 11.248 253.271 10.496 252.983 10.432C252.951 10.416 252.919 10.408 252.887 10.408C252.775 10.408 252.007 10.544 250.583 10.816C249.671 10.976 249.063 11.064 248.759 11.08C248.471 11.096 248.271 11.048 248.159 10.936C247.983 10.76 247.935 10.568 248.015 10.36C248.111 10.136 248.295 9.976 248.567 9.88C248.791 9.784 249.719 9.632 251.351 9.424ZM255.335 16.912C255.687 16.72 256.007 16.656 256.295 16.72C256.599 16.784 256.807 16.968 256.919 17.272C257.015 17.512 257.031 17.704 256.967 17.848C256.903 17.976 256.759 18.072 256.535 18.136C256.327 18.184 256.023 18.192 255.623 18.16C254.935 18.144 254.543 18.216 254.447 18.376C254.335 18.552 254.279 19.36 254.279 20.8C254.279 21.872 254.255 22.504 254.207 22.696C254.175 22.888 254.047 23 253.823 23.032C253.519 23.08 253.319 23.016 253.223 22.84C253.095 22.632 253.055 21.88 253.103 20.584C253.119 19.24 253.103 18.528 253.055 18.448C253.007 18.4 252.471 18.44 251.447 18.568C250.151 18.728 249.351 18.8 249.047 18.784C248.743 18.768 248.575 18.64 248.543 18.4C248.527 18.304 248.559 18.184 248.639 18.04C248.719 17.896 248.807 17.776 248.903 17.68C249.111 17.504 249.479 17.384 250.007 17.32C250.551 17.256 251.671 17.216 253.367 17.2C254.391 17.168 255.047 17.072 255.335 16.912ZM261.474 11.704C261.65 11.48 261.826 11.368 262.002 11.368C262.53 11.368 262.53 11.88 262.002 12.904C261.97 12.968 261.938 13.024 261.906 13.072C261.506 13.792 261.306 14.28 261.306 14.536C261.306 14.728 261.714 15.336 262.53 16.36C263.906 17.992 264.162 18.776 263.298 18.712C263.282 18.712 263.266 18.704 263.25 18.688C262.914 18.656 262.41 18.192 261.738 17.296C261.05 16.416 260.65 15.96 260.538 15.928C260.442 15.896 260.282 16.112 260.058 16.576C259.85 17.04 259.706 17.504 259.626 17.968C259.562 18.256 259.49 18.44 259.41 18.52C259.346 18.6 259.202 18.64 258.978 18.64C258.466 18.64 258.202 18.488 258.186 18.184C258.17 17.864 258.394 17.248 258.858 16.336C260.138 13.792 261.01 12.248 261.474 11.704ZM267.162 11.656C267.306 11.48 267.434 11.392 267.546 11.392C267.658 11.392 267.818 11.488 268.026 11.68C268.218 11.872 268.274 12.08 268.194 12.304C268.082 12.528 267.994 13.872 267.93 16.336C267.898 18.096 267.858 19.168 267.81 19.552C267.778 19.92 267.674 20.152 267.498 20.248C267.146 20.44 266.914 20.36 266.802 20.008C266.722 19.688 266.674 18.928 266.658 17.728C266.626 16.192 266.538 15.408 266.394 15.376C266.25 15.328 265.874 15.4 265.266 15.592C263.97 16.024 263.258 15.992 263.13 15.496C263.066 15.24 263.066 15.032 263.13 14.872C263.178 14.728 263.498 14.584 264.09 14.44C264.682 14.28 265.298 14.176 265.938 14.128L266.682 14.104L266.802 13.024C266.898 12.272 267.018 11.816 267.162 11.656ZM270.354 11.704C270.354 11.624 270.434 11.576 270.594 11.56C270.754 11.544 270.922 11.568 271.098 11.632C271.274 11.68 271.402 11.752 271.482 11.848C271.642 12.04 271.682 12.336 271.602 12.736C271.538 13.12 271.498 14.488 271.482 16.84C271.466 17.784 271.442 18.512 271.41 19.024C271.394 19.52 271.354 19.928 271.29 20.248C271.226 20.568 271.146 20.776 271.05 20.872C270.954 20.952 270.81 20.992 270.618 20.992C270.41 20.992 270.282 20.688 270.234 20.08C270.186 19.472 270.194 18.104 270.258 15.976C270.258 15.672 270.258 15.36 270.258 15.04C270.274 14.72 270.282 14.424 270.282 14.152C270.298 13.88 270.306 13.616 270.306 13.36C270.322 13.104 270.33 12.88 270.33 12.688C270.346 12.496 270.354 12.328 270.354 12.184C270.354 12.04 270.354 11.928 270.354 11.848C270.354 11.752 270.354 11.704 270.354 11.704ZM275.186 8.68C275.762 8.472 276.314 8.408 276.842 8.488C277.386 8.552 277.89 8.768 278.354 9.136C278.834 9.504 279.226 10 279.53 10.624C279.834 11.216 279.978 11.768 279.962 12.28C279.962 12.792 279.802 13.36 279.482 13.984C279.226 14.496 278.922 14.88 278.57 15.136C278.218 15.376 277.77 15.536 277.226 15.616C276.314 15.744 275.45 15.568 274.634 15.088C273.818 14.608 273.298 13.992 273.074 13.24C272.754 12.216 272.786 11.304 273.17 10.504C273.554 9.704 274.226 9.096 275.186 8.68ZM277.13 9.664C276.97 9.664 276.794 9.632 276.602 9.568C276.314 9.472 275.858 9.648 275.234 10.096C274.61 10.544 274.234 10.976 274.106 11.392C274.058 11.552 274.05 11.744 274.082 11.968C274.114 12.176 274.17 12.392 274.25 12.616C274.33 12.824 274.434 13.032 274.562 13.24C274.706 13.448 274.858 13.624 275.018 13.768C275.626 14.312 276.242 14.56 276.866 14.512C277.49 14.464 277.986 14.136 278.354 13.528C278.946 12.568 278.85 11.568 278.066 10.528C277.602 9.952 277.29 9.664 277.13 9.664ZM278.138 17.128C278.266 16.824 278.426 16.672 278.618 16.672C278.826 16.656 279.002 16.808 279.146 17.128C279.274 17.432 279.258 17.96 279.098 18.712C278.938 19.432 278.906 19.872 279.002 20.032C279.082 20.176 279.562 20.248 280.442 20.248C281.05 20.248 281.426 20.272 281.57 20.32C281.73 20.352 281.85 20.464 281.93 20.656C282.042 20.992 282.002 21.224 281.81 21.352C281.634 21.48 281.234 21.536 280.61 21.52C280.114 21.504 279.498 21.536 278.762 21.616C278.042 21.68 277.53 21.752 277.226 21.832C277.082 21.88 276.714 21.952 276.122 22.048C275.546 22.16 274.978 22.264 274.418 22.36C273.858 22.456 273.522 22.504 273.41 22.504C273.218 22.504 273.074 22.376 272.978 22.12C272.882 21.864 272.906 21.648 273.05 21.472C273.178 21.312 273.49 21.192 273.986 21.112L274.682 21.016V19.48C274.698 18.632 274.762 18.096 274.874 17.872C274.986 17.632 275.226 17.56 275.594 17.656C275.818 17.72 275.946 17.824 275.978 17.968C276.026 18.096 276.042 18.496 276.026 19.168L275.978 20.512L276.914 20.584C277.506 20.616 277.802 20.584 277.802 20.488C277.802 20.056 277.818 19.6 277.85 19.12C277.898 18.64 277.946 18.224 277.994 17.872C278.058 17.52 278.106 17.272 278.138 17.128Z" fill="black"/>
<path d="M145.028 10.624C145.124 10.624 145.204 10.656 145.268 10.72C145.332 10.768 145.38 10.856 145.412 10.984C145.444 11.096 145.476 11.256 145.508 11.464C145.54 11.656 145.564 11.904 145.58 12.208C145.612 12.496 145.636 12.832 145.652 13.216C145.668 13.6 145.684 14.032 145.7 14.512V14.704C145.7 15.104 145.7 15.448 145.7 15.736C145.716 16.008 145.732 16.232 145.748 16.408C145.78 16.584 145.812 16.704 145.844 16.768C145.924 16.96 146.196 17.056 146.66 17.056H146.732C146.86 17.056 146.964 17.064 147.044 17.08C147.124 17.08 147.188 17.088 147.236 17.104C147.268 17.104 147.292 17.112 147.308 17.128C147.34 17.144 147.364 17.168 147.38 17.2C147.412 17.216 147.436 17.24 147.452 17.272C147.564 17.4 147.62 17.568 147.62 17.776C147.62 17.872 147.604 17.968 147.572 18.064C147.54 18.144 147.5 18.224 147.452 18.304C147.436 18.336 147.412 18.36 147.38 18.376C147.364 18.392 147.34 18.408 147.308 18.424C147.292 18.44 147.276 18.448 147.26 18.448C147.228 18.464 147.172 18.472 147.092 18.472C147.028 18.472 146.948 18.464 146.852 18.448C146.58 18.4 146.332 18.376 146.108 18.376L145.772 18.352L145.796 18.808C145.86 20.04 145.948 20.808 146.06 21.112C146.108 21.24 146.044 21.44 145.868 21.712C145.772 21.84 145.676 21.944 145.58 22.024C145.5 22.12 145.404 22.184 145.292 22.216C145.196 22.248 145.092 22.264 144.98 22.264L144.716 22.24L144.668 20.344C144.636 19.064 144.58 18.368 144.5 18.256C144.436 18.192 144.3 18.152 144.092 18.136C143.884 18.12 143.372 18.12 142.556 18.136C141.948 18.136 141.476 18.144 141.14 18.16C140.82 18.176 140.628 18.2 140.564 18.232C140.452 18.296 140.308 18.232 140.132 18.04C140.068 17.976 140.012 17.912 139.964 17.848C139.932 17.784 139.9 17.728 139.868 17.68C139.852 17.616 139.844 17.552 139.844 17.488C139.844 17.376 139.884 17.216 139.964 17.008C140.06 16.8 140.172 16.592 140.3 16.384C140.364 16.288 140.42 16.208 140.468 16.144C140.532 16.064 140.588 16 140.636 15.952C140.812 15.792 140.9 15.68 140.9 15.616C140.9 15.488 141.116 15.192 141.548 14.728C141.58 14.696 141.612 14.656 141.644 14.608C141.692 14.56 141.732 14.504 141.764 14.44C141.812 14.376 141.852 14.312 141.884 14.248C141.98 14.024 142.108 13.832 142.268 13.672C142.588 13.288 142.884 12.848 143.156 12.352C143.252 12.16 143.492 11.864 143.876 11.464C144.276 11.064 144.556 10.816 144.716 10.72C144.844 10.656 144.948 10.624 145.028 10.624ZM144.668 14.944C144.668 13.792 144.636 13.176 144.572 13.096C144.54 13.08 144.508 13.064 144.476 13.048C144.46 13.016 144.436 13 144.404 13C144.388 12.984 144.372 12.976 144.356 12.976C144.164 12.976 143.684 13.56 142.916 14.728C142.42 15.512 142.068 16 141.86 16.192C141.604 16.464 141.508 16.656 141.572 16.768C141.652 16.864 141.924 16.92 142.388 16.936C142.708 16.952 143.132 16.976 143.66 17.008C143.932 17.04 144.116 17.048 144.212 17.032C144.308 17.016 144.396 16.968 144.476 16.888C144.572 16.792 144.628 16.648 144.644 16.456C144.66 16.376 144.668 16.208 144.668 15.952C144.668 15.696 144.668 15.36 144.668 14.944ZM150.897 8.464C151.409 8.272 151.841 8.176 152.193 8.176C152.545 8.176 153.001 8.312 153.561 8.584C154.137 8.856 154.537 9.136 154.761 9.424C154.985 9.712 155.169 10.2 155.313 10.888C155.457 11.576 155.497 12.136 155.433 12.568C155.337 13.048 155.057 13.536 154.593 14.032C154.145 14.528 153.665 14.864 153.153 15.04C152.321 15.312 151.545 15.32 150.825 15.064C150.105 14.792 149.513 14.272 149.049 13.504C148.473 12.528 148.425 11.488 148.905 10.384C149.129 9.888 149.393 9.488 149.697 9.184C150.017 8.88 150.417 8.64 150.897 8.464ZM153.945 10.504C153.769 10.088 153.497 9.792 153.129 9.616C152.777 9.44 152.401 9.4 152.001 9.496C151.617 9.576 151.249 9.728 150.897 9.952C150.545 10.176 150.273 10.504 150.081 10.936C149.905 11.352 149.857 11.784 149.937 12.232C150.001 12.488 150.089 12.728 150.201 12.952C150.329 13.16 150.481 13.344 150.657 13.504C150.849 13.664 151.057 13.792 151.281 13.888C151.521 13.968 151.777 14.008 152.049 14.008C152.401 14.008 152.665 13.968 152.841 13.888C153.017 13.792 153.249 13.592 153.537 13.288C154.257 12.52 154.393 11.592 153.945 10.504ZM157.857 8.752C157.985 8.368 158.289 8.264 158.769 8.44C158.945 8.52 159.025 9.744 159.009 12.112C159.009 14.464 158.921 15.752 158.745 15.976C158.553 16.216 158.377 16.312 158.217 16.264C158.057 16.2 157.945 16.016 157.881 15.712C157.801 15.328 157.753 14.144 157.737 12.16C157.737 10.16 157.777 9.024 157.857 8.752ZM154.257 17.032C155.217 16.936 155.857 16.888 156.177 16.888C156.497 16.872 156.753 16.896 156.945 16.96C157.233 17.072 157.457 17.408 157.617 17.968C157.793 18.528 157.857 19.112 157.809 19.72C157.777 20.328 157.633 20.752 157.377 20.992C157.169 21.2 156.945 21.328 156.705 21.376C156.465 21.408 155.961 21.4 155.193 21.352C154.473 21.336 154.001 21.384 153.777 21.496C153.569 21.592 153.465 21.832 153.465 22.216C153.465 22.568 153.545 22.8 153.705 22.912C153.881 23.04 154.121 23.032 154.425 22.888C154.681 22.744 155.353 22.664 156.441 22.648C157.257 22.632 157.729 22.64 157.857 22.672C158.001 22.704 158.073 22.84 158.073 23.08C158.073 23.336 157.937 23.512 157.665 23.608C157.409 23.704 156.521 23.872 155.001 24.112L153.057 24.448L152.673 24.04C152.401 23.784 152.241 23.264 152.193 22.48C152.129 21.584 152.217 21.016 152.457 20.776C152.713 20.536 153.361 20.376 154.401 20.296C155.489 20.232 156.105 20.128 156.249 19.984C156.425 19.856 156.505 19.552 156.489 19.072C156.473 18.576 156.369 18.288 156.177 18.208C156.017 18.144 155.537 18.168 154.737 18.28C153.953 18.392 153.265 18.528 152.673 18.688C152.177 18.816 151.865 18.8 151.737 18.64C151.433 18.256 151.641 17.888 152.361 17.536C152.857 17.28 153.489 17.112 154.257 17.032ZM169.884 11.68C170.748 11.232 171.692 11.368 172.716 12.088C173.548 12.648 174.14 13.344 174.492 14.176C174.844 14.992 174.908 15.824 174.684 16.672C174.54 17.264 174.332 17.704 174.06 17.992C173.804 18.28 173.388 18.544 172.812 18.784C172.252 19.024 171.74 19.144 171.276 19.144C170.892 19.16 170.476 19.088 170.028 18.928C169.58 18.768 169.164 18.544 168.78 18.256C168.412 17.968 168.116 17.664 167.892 17.344C167.668 16.992 167.532 16.712 167.484 16.504C167.436 16.28 167.428 15.92 167.46 15.424C167.508 14.656 167.636 14.088 167.844 13.72C168.036 13.352 168.332 12.968 168.732 12.568C169.132 12.168 169.516 11.872 169.884 11.68ZM172.116 13.072C171.652 12.736 171.268 12.584 170.964 12.616C170.66 12.632 170.292 12.832 169.86 13.216C169.22 13.824 168.844 14.448 168.732 15.088C168.636 15.712 168.82 16.304 169.284 16.864C169.828 17.52 170.492 17.856 171.276 17.872C172.076 17.872 172.732 17.536 173.244 16.864C173.404 16.672 173.508 16.48 173.556 16.288C173.604 16.08 173.612 15.776 173.58 15.376C173.532 14.864 173.404 14.448 173.196 14.128C172.988 13.792 172.628 13.44 172.116 13.072ZM177.348 11.872C177.412 11.76 177.596 11.72 177.9 11.752C178.204 11.784 178.364 11.856 178.38 11.968C178.412 12.24 178.348 14.464 178.188 18.64L178.044 21.64H177.492C177.332 21.64 177.22 21.64 177.156 21.64C177.092 21.624 177.036 21.584 176.988 21.52C176.94 21.44 176.908 21.352 176.892 21.256C176.892 21.144 176.884 20.96 176.868 20.704C176.836 20.176 176.884 18.6 177.012 15.976C177.156 13.352 177.268 11.984 177.348 11.872ZM188.169 9.184C188.233 9.008 188.377 8.92 188.601 8.92C188.921 8.92 189.121 9.048 189.201 9.304C189.281 9.544 189.265 10.04 189.153 10.792C189.041 11.688 189.049 12.208 189.177 12.352C189.321 12.48 189.817 12.464 190.665 12.304C191.417 12.176 191.921 12.144 192.177 12.208C192.433 12.256 192.561 12.432 192.561 12.736C192.561 12.944 192.505 13.08 192.393 13.144C192.297 13.208 192.057 13.264 191.673 13.312C191.081 13.376 190.465 13.512 189.825 13.72L188.865 14.032L188.961 15.352L189.057 16.648H188.433C188.033 16.648 187.793 16.552 187.713 16.36C187.649 16.2 187.681 15.016 187.809 12.808C187.953 10.6 188.073 9.392 188.169 9.184ZM182.577 10.024C182.897 9.656 183.185 9.4 183.441 9.256C183.713 9.112 183.897 9.08 183.993 9.16C184.105 9.24 184.113 9.424 184.017 9.712C183.921 10 183.721 10.344 183.417 10.744C182.969 11.272 182.745 11.624 182.745 11.8C182.745 11.864 182.841 11.984 183.033 12.16C183.225 12.32 183.441 12.48 183.681 12.64C184.961 13.504 185.601 14.2 185.601 14.728C185.601 15.512 185.097 15.448 184.089 14.536C183.705 14.152 183.289 13.816 182.841 13.528C182.393 13.224 182.089 13.072 181.929 13.072C181.833 13.072 181.649 13.368 181.377 13.96C181.105 14.552 180.945 15.008 180.897 15.328C180.849 15.632 180.777 15.824 180.681 15.904C180.601 15.968 180.441 16 180.201 16C179.961 16 179.801 15.968 179.721 15.904C179.641 15.84 179.593 15.704 179.577 15.496C179.529 15.096 179.833 14.296 180.489 13.096C181.161 11.896 181.857 10.872 182.577 10.024ZM185.433 17.776C185.993 17.568 186.449 17.488 186.801 17.536C187.153 17.568 187.577 17.744 188.073 18.064C189.161 18.784 189.633 19.824 189.489 21.184C189.441 21.792 189.313 22.272 189.105 22.624C188.897 22.976 188.545 23.312 188.049 23.632C187.777 23.808 187.537 23.912 187.329 23.944C187.137 23.992 186.833 23.992 186.417 23.944C185.745 23.864 185.217 23.736 184.833 23.56C184.465 23.4 184.105 23.12 183.753 22.72C183.225 22.112 182.969 21.424 182.985 20.656C183.001 19.872 183.289 19.216 183.849 18.688C184.201 18.32 184.729 18.016 185.433 17.776ZM187.833 19.384C187.177 18.728 186.385 18.632 185.457 19.096C185.009 19.304 184.697 19.536 184.521 19.792C184.345 20.048 184.257 20.4 184.257 20.848C184.257 21.088 184.321 21.336 184.449 21.592C184.593 21.832 184.777 22.048 185.001 22.24C185.241 22.432 185.481 22.56 185.721 22.624C186.073 22.72 186.473 22.712 186.921 22.6C187.385 22.488 187.713 22.328 187.905 22.12C188.209 21.816 188.353 21.368 188.337 20.776C188.321 20.168 188.153 19.704 187.833 19.384Z" fill="#EB8888"/>
<path d="M52.7026 36.7422H51.7124V42.5312H52.7026V40.1318H54.4038V39.2939H52.7026V36.7422ZM44.3618 42.0869H49.5796V37.4912H44.3618V42.0869ZM45.0854 47.7236H45.6187C46.355 47.73 47.4277 47.6792 48.5259 47.3174L48.3735 46.5176C47.5737 46.7842 46.7041 46.8794 46.0503 46.9048V43.5469H45.0854V47.7236ZM45.3394 41.2871V38.3037H48.6147V41.2871H45.3394ZM48.1323 44.4229H53.8325V43.6611H51.4839V42.6582H50.5063V43.6611H48.1323V44.4229ZM48.8813 46.416C48.875 47.3936 49.7319 48.0029 50.9761 48.0029C52.2139 48.0029 53.0835 47.3936 53.0962 46.416C53.0835 45.4385 52.2139 44.8354 50.9761 44.8291C49.7319 44.8354 48.875 45.4385 48.8813 46.416ZM49.77 46.416C49.77 45.8892 50.2715 45.5464 50.9761 45.54C51.6807 45.5464 52.1821 45.8892 52.1821 46.416C52.1821 46.9556 51.6807 47.3047 50.9761 47.292C50.2715 47.3047 49.77 46.9556 49.77 46.416ZM64.4204 36.7422H63.4175V48.0537H64.4204V36.7422ZM55.5337 41.5537C55.54 43.9595 56.7334 45.4829 58.4155 45.4766C60.0913 45.4829 61.3037 43.9595 61.2974 41.5537C61.3037 39.1543 60.0913 37.6245 58.4155 37.6182C56.7334 37.6245 55.54 39.1543 55.5337 41.5537ZM56.4985 41.5537C56.4985 39.7192 57.2856 38.5132 58.4155 38.5068C59.5518 38.5132 60.3325 39.7192 60.3325 41.5537C60.3325 43.3882 59.5518 44.5942 58.4155 44.5879C57.2856 44.5942 56.4985 43.3882 56.4985 41.5537ZM73.4722 38.875V37.4404H72.4946V38.8369C72.4883 40.5698 71.3203 42.1504 69.6255 42.7725L70.1587 43.585C71.4917 43.0518 72.52 41.9727 72.9961 40.6079C73.4785 41.8394 74.4688 42.8169 75.7065 43.3057L76.2651 42.5312C74.6147 41.9346 73.4722 40.4492 73.4722 38.875ZM71.6694 47.7871H79.2231V46.9492H72.6724V44.2451H71.6694V47.7871ZM75.4526 40.2461H77.9663V45.21H78.9692V36.7549H77.9663V39.4082H75.4526V40.2461ZM85.7358 37.5674H81.356V43.001H82.0669C83.9014 42.9946 84.9678 42.9438 86.2944 42.6836L86.1929 41.8584C84.9805 42.0933 83.9521 42.1567 82.3081 42.1631V40.6016H85.6089V39.8145H82.3081V38.4053H85.7358V37.5674ZM82.8286 44.9941H89.4556V48.0283H90.4331V44.1816H82.8286V44.9941ZM86.9673 43.5215H87.894V40.5127H89.481V43.5977H90.4331V36.7549H89.481V39.7002H87.894V36.9707H86.9673V43.5215ZM100.907 36.7041H99.9165V42.9502H100.907V40.2715H102.621V39.4463H100.907V36.7041ZM92.1089 38.5703H98.8374V37.7705H95.9683V36.6279H94.978V37.7705H92.1089V38.5703ZM92.7563 40.9316C92.75 42.0806 93.8291 42.7788 95.4731 42.7852C97.1108 42.7788 98.1772 42.0806 98.1899 40.9316C98.1772 39.7891 97.1108 39.0845 95.4731 39.0781C93.8291 39.0845 92.75 39.7891 92.7563 40.9316ZM93.7085 44.2832H99.9165V45.2988H93.7339V47.9014H101.326V47.1396H94.7114V46.0352H100.907V43.5342H93.7085V44.2832ZM93.7085 40.9316C93.7021 40.2588 94.4004 39.8208 95.4731 39.8145C96.5396 39.8208 97.2378 40.2588 97.2505 40.9316C97.2378 41.6108 96.5396 42.0361 95.4731 42.0361C94.4004 42.0361 93.7021 41.6108 93.7085 40.9316ZM108.981 37.7959V37.1484H107.953V37.7959C107.953 39.4146 105.89 40.7603 103.852 41.0459L104.258 41.8584C106.017 41.5664 107.75 40.6079 108.473 39.2114C109.197 40.5952 110.936 41.5664 112.688 41.8584L113.094 41.0459C111.057 40.7603 108.987 39.3892 108.981 37.7959ZM103.319 43.9404H107.953V48.0283H108.93V43.9404H113.602V43.1025H103.319V43.9404ZM124.875 42.9629H120.191V41.7695H123.784V40.9697H116.877V39.7637H123.542V37.0342H115.849V37.8467H122.54V39.0146H115.887V41.7695H119.213V42.9629H114.542V43.7881H124.875V42.9629ZM115.697 45.4639H122.603V47.9268H123.606V44.6514H115.697V45.4639ZM138.726 36.7422H137.761V41.2236H136.187V36.9834H135.235V47.457H136.187V42.0488H137.761V48.0283H138.726V36.7422ZM129.471 44.9941H133.788V38.0625H129.471V44.9941ZM130.411 44.1943V38.8623H132.848V44.1943H130.411ZM144.388 39.1035V38.9512H146.978V38.1514H144.401V36.7422H143.398V38.1514H140.795V38.9512H143.398V39.1035C143.398 40.6523 142.192 42.0361 140.516 42.5693L141.011 43.3564C142.37 42.9058 143.423 41.9346 143.918 40.6904C144.433 41.814 145.505 42.6772 146.838 43.0645L147.308 42.29C145.62 41.8013 144.382 40.5381 144.388 39.1035ZM142.027 45.9463C142.021 47.2603 143.455 48.0029 145.835 48.0029C148.197 48.0029 149.631 47.2603 149.644 45.9463C149.631 44.6577 148.197 43.9023 145.835 43.915C143.455 43.9023 142.021 44.6577 142.027 45.9463ZM143.03 45.9463C143.03 45.1782 144.077 44.7021 145.835 44.7021C147.587 44.7021 148.654 45.1782 148.654 45.9463C148.654 46.7461 147.587 47.2158 145.835 47.2158C144.077 47.2158 143.03 46.7461 143.03 45.9463ZM148.616 43.6738H149.606V36.7549H148.616V43.6738ZM163.596 36.7549H162.593V44.3213H163.596V41.0078H165.285V40.1699H163.596V36.7549ZM154.735 43.166L154.849 43.9785C156.836 43.9849 159.534 43.9658 161.984 43.5342L161.895 42.8105C160.905 42.9565 159.838 43.0454 158.785 43.0962V42.3027C160.092 42.1758 160.917 41.5728 160.93 40.6396C160.917 39.6113 159.876 38.9766 158.277 38.9766C156.69 38.9766 155.63 39.6113 155.636 40.6396C155.63 41.5791 156.48 42.1821 157.794 42.3027V43.1343C156.69 43.166 155.636 43.166 154.735 43.166ZM155.014 38.5449H161.552V37.7832H158.785V36.6533H157.794V37.7832H155.014V38.5449ZM156.119 45.6797H162.593V48.0283H163.596V44.8799H156.119V45.6797ZM156.588 40.6396C156.582 40.043 157.236 39.6748 158.277 39.6875C159.318 39.6748 159.978 40.043 159.978 40.6396C159.978 41.23 159.318 41.6299 158.277 41.6172C157.236 41.6299 156.582 41.23 156.588 40.6396ZM176.342 41.8965H166.008V42.6709H168.814V43.6992H167.252V44.4355H174.057V45.4004H167.265V47.9014H175.416V47.1777H168.268V46.0986H175.047V43.6992H173.549V42.6709H176.342V41.8965ZM167.316 37.7959H174.006V38.7354H167.354V41.0967H175.212V40.373H168.344V39.4082H175.009V37.085H167.316V37.7959ZM169.792 43.6992V42.6709H172.559V43.6992H169.792ZM186.562 36.7422H185.559V48.0537H186.562V36.7422ZM177.675 41.5537C177.682 43.9595 178.875 45.4829 180.557 45.4766C182.233 45.4829 183.445 43.9595 183.439 41.5537C183.445 39.1543 182.233 37.6245 180.557 37.6182C178.875 37.6245 177.682 39.1543 177.675 41.5537ZM178.64 41.5537C178.64 39.7192 179.427 38.5132 180.557 38.5068C181.693 38.5132 182.474 39.7192 182.474 41.5537C182.474 43.3882 181.693 44.5942 180.557 44.5879C179.427 44.5942 178.64 43.3882 178.64 41.5537ZM196.896 36.8818C194.376 36.8818 192.897 37.5801 192.897 38.8369C192.897 40.0176 194.179 40.6968 196.388 40.792V41.6553H191.754V42.4678H202.038V41.6553H197.366V40.792C199.587 40.7095 200.876 40.0239 200.882 38.8369C200.876 37.5801 199.403 36.8818 196.896 36.8818ZM192.999 44.1943H199.74V45.21H193.024V47.9014H201.06V47.1143H194.014V45.9463H200.717V43.4199H192.999V44.1943ZM193.938 38.8369C193.925 38.0942 195.023 37.6562 196.896 37.6436C198.769 37.6562 199.86 38.0942 199.867 38.8369C199.86 39.6113 198.769 40.0303 196.896 40.043C195.023 40.0303 193.925 39.6113 193.938 38.8369ZM211.724 36.7422H210.734V48.0537H211.724V42.0742H213.616V41.2363H211.724V36.7422ZM203.434 38.6211H207.573V41.0078H203.459V45.3242H204.361C206.538 45.3115 208.042 45.229 209.82 44.9053L209.718 44.0801C208.011 44.3975 206.544 44.48 204.45 44.4736V41.833H208.563V37.7959H203.434V38.6211ZM222.959 36.7422H221.969V48.0283H222.959V42.1758H224.788V41.3379H222.959V36.7422ZM214.301 45.0957L214.86 45.8828C218.535 44.0674 220.033 41.1538 220.04 37.9609H214.822V38.7988H219.03C218.802 41.4712 217.215 43.6484 214.301 45.0957ZM235.794 45.7432H233.23V42.6709C234.163 42.1694 234.728 41.3696 234.728 40.3604C234.728 38.6147 233.014 37.4658 230.602 37.4531C228.19 37.4658 226.476 38.6147 226.476 40.3604C226.476 41.3887 227.06 42.2012 228.025 42.7026V45.7432H225.46V46.5811H235.794V45.7432ZM227.441 40.3604C227.435 39.0972 228.749 38.2656 230.602 38.2783C232.437 38.2656 233.763 39.0972 233.763 40.3604C233.763 41.6235 232.437 42.4678 230.602 42.4678C228.749 42.4678 227.435 41.6235 227.441 40.3604ZM229.002 45.7432V43.0645C229.485 43.1914 230.024 43.2549 230.602 43.2549C231.192 43.2549 231.738 43.1851 232.227 43.0581V45.7432H229.002ZM238.524 37.8086H237.28L237.369 44.4102H238.435L238.524 37.8086ZM237.089 46.251C237.077 46.7017 237.458 47.0698 237.902 47.0762C238.353 47.0698 238.721 46.7017 238.714 46.251C238.721 45.8066 238.353 45.4385 237.902 45.4385C237.458 45.4385 237.077 45.8066 237.089 46.251Z" fill="#525252"/>
</svg>
