<svg width="241" height="47" viewBox="0 0 241 47" fill="none" xmlns="http://www.w3.org/2000/svg">
<path d="M8.84159 5.512C8.98559 5.144 9.32959 5.096 9.87359 5.368C10.0016 5.448 10.0736 5.544 10.0896 5.656C10.1216 5.768 10.1056 5.968 10.0416 6.256C9.94559 6.768 9.86559 7.328 9.80159 7.936L9.70559 8.944L10.5696 8.824C11.7376 8.68 12.3216 8.488 12.3216 8.248C12.3856 7 12.4736 6.184 12.5856 5.8C12.7136 5.4 12.9376 5.24 13.2576 5.32C13.5136 5.384 13.6656 5.544 13.7136 5.8C13.7776 6.04 13.7616 6.44 13.6656 7C13.5376 7.656 13.4256 9.112 13.3296 11.368C13.2816 12.92 13.2256 13.896 13.1616 14.296C13.1136 14.68 13.0096 14.92 12.8496 15.016C12.6096 15.144 12.3936 15.168 12.2016 15.088C12.0736 15.04 11.9936 14.864 11.9616 14.56C11.9456 14.24 11.9456 13.544 11.9616 12.472L12.0336 10L11.4336 10.024C11.0496 10.024 10.6416 10.112 10.2096 10.288L9.63359 10.528L9.70559 12.448C9.75359 13.104 9.76159 13.608 9.72959 13.96C9.69759 14.296 9.63359 14.52 9.53759 14.632C9.45759 14.744 9.31359 14.8 9.10559 14.8C8.73759 14.8 8.52159 14.56 8.45759 14.08C8.40959 13.6 8.42559 12.256 8.50559 10.048C8.64959 7.2 8.76159 5.688 8.84159 5.512ZM4.40159 5.68C5.23359 5.552 5.72159 5.656 5.86559 5.992C6.00959 6.312 6.04159 7.384 5.96159 9.208C5.89759 10.68 5.84159 11.552 5.79359 11.824C5.74559 12.096 5.60159 12.288 5.36159 12.4C5.04159 12.592 4.13759 12.696 2.64959 12.712L0.465594 12.76L0.273594 12.016C0.193594 11.712 0.129594 11.056 0.0815938 10.048C0.0335938 9.04 0.0255938 8.192 0.0575938 7.504C0.0895938 6.72 1.53759 6.112 4.40159 5.68ZM4.90559 7.072H4.23359C3.81759 7.072 3.20959 7.184 2.40959 7.408L1.28159 7.72L1.23359 9.16C1.18559 10.024 1.20159 10.632 1.28159 10.984C1.34559 11.208 1.44959 11.336 1.59359 11.368C1.73759 11.4 2.19359 11.392 2.96159 11.344L4.49759 11.272L4.61759 10.624C4.69759 10.192 4.76159 9.496 4.80959 8.536L4.90559 7.072ZM18.1073 1.744C18.1393 1.648 18.2833 1.6 18.5393 1.6C18.7473 1.6 18.8833 1.752 18.9473 2.056C19.0273 2.344 19.0113 2.752 18.8993 3.28C18.8353 3.616 18.7873 3.84 18.7553 3.952C18.7393 4.064 18.7313 4.208 18.7313 4.384C18.7313 4.544 18.7393 4.64 18.7553 4.672C18.7713 4.688 18.8433 4.712 18.9713 4.744C19.0993 4.776 19.2113 4.784 19.3073 4.768C19.4033 4.752 19.5793 4.728 19.8353 4.696C20.7793 4.584 21.3073 4.688 21.4193 5.008C21.5473 5.312 21.2673 5.896 20.5793 6.76C20.0833 7.368 19.8353 7.72 19.8353 7.816C19.8353 7.912 19.9953 8.096 20.3153 8.368C20.6353 8.64 21.0033 8.896 21.4193 9.136C21.9153 9.44 22.1633 9.768 22.1633 10.12C22.1473 10.344 21.9953 10.456 21.7073 10.456C21.4353 10.456 21.0753 10.336 20.6273 10.096C20.1953 9.84 19.7873 9.528 19.4033 9.16L18.8753 8.68L18.3953 9.232C17.7873 9.952 17.3473 10.432 17.0753 10.672C16.8193 10.912 16.6033 11.032 16.4273 11.032C16.1713 11.032 16.0113 10.936 15.9473 10.744C15.8833 10.536 15.9393 10.296 16.1153 10.024C16.3073 9.752 16.9473 9.048 18.0353 7.912C19.1233 6.76 19.6673 6.136 19.6673 6.04C19.6673 6.024 19.6433 6.008 19.5953 5.992C19.5633 5.976 19.5153 5.968 19.4513 5.968C19.3873 5.968 19.3153 5.984 19.2353 6.016C18.8673 6.096 18.1313 6.232 17.0273 6.424C15.7633 6.632 15.0833 6.632 14.9873 6.424C14.9393 6.312 14.9713 6.136 15.0833 5.896C15.1473 5.72 15.2673 5.592 15.4433 5.512C15.6353 5.432 15.9793 5.352 16.4753 5.272C17.2913 5.144 17.6753 5 17.6273 4.84C17.5953 4.712 17.6513 4.192 17.7953 3.28C17.9393 2.368 18.0433 1.856 18.1073 1.744ZM23.7953 4.984C23.9073 4.776 24.0033 4.664 24.0833 4.648C24.1633 4.632 24.3233 4.688 24.5633 4.816C24.7393 4.912 24.8433 5.12 24.8753 5.44C24.9073 5.744 24.9233 6.52 24.9233 7.768C24.8913 9.688 24.8513 10.72 24.8033 10.864C24.7393 11.088 24.5633 11.208 24.2753 11.224C23.9873 11.224 23.8033 11.12 23.7233 10.912C23.6273 10.656 23.5873 9.656 23.6033 7.912C23.6353 6.152 23.6993 5.176 23.7953 4.984ZM20.2673 12.664C20.6993 12.456 21.2833 12.352 22.0193 12.352C22.3553 12.352 22.6353 12.384 22.8593 12.448C23.0993 12.496 23.3153 12.576 23.5073 12.688C23.6993 12.8 23.8673 12.952 24.0113 13.144C24.1553 13.32 24.2993 13.544 24.4433 13.816C24.6193 14.152 24.6913 14.6 24.6593 15.16C24.6273 15.704 24.4913 16.264 24.2513 16.84C24.1233 17.176 23.8113 17.48 23.3153 17.752C22.8353 18.04 22.3633 18.192 21.8993 18.208C21.4993 18.208 21.0273 18.056 20.4833 17.752C19.9393 17.448 19.5233 17.112 19.2353 16.744C18.7393 16.072 18.5953 15.304 18.8033 14.44C19.0273 13.576 19.5153 12.984 20.2673 12.664ZM22.9313 13.768C22.5473 13.48 22.0433 13.416 21.4193 13.576C20.7953 13.72 20.3553 14.008 20.0993 14.44C19.9073 14.792 19.8353 15.08 19.8833 15.304C19.9313 15.528 20.1313 15.824 20.4833 16.192C21.3153 17.088 22.1393 17.152 22.9553 16.384C23.1953 16.16 23.3393 15.976 23.3873 15.832C23.4353 15.672 23.4353 15.384 23.3873 14.968C23.3073 14.328 23.1553 13.928 22.9313 13.768ZM44.9548 2.296C45.0028 1.8 45.2588 1.688 45.7228 1.96C45.8348 2.04 45.8908 2.256 45.8908 2.608C45.9068 2.96 45.8668 3.736 45.7708 4.936C45.6268 6.68 45.5548 8.008 45.5548 8.92C45.5548 9.464 45.5308 9.808 45.4828 9.952C45.4348 10.096 45.2908 10.216 45.0508 10.312C44.7148 10.472 44.4908 10.44 44.3788 10.216C44.2828 9.992 44.2508 9.48 44.2828 8.68C44.2828 8.392 44.2828 8.168 44.2828 8.008C44.2988 7.832 44.2908 7.704 44.2588 7.624C44.2428 7.528 44.2188 7.472 44.1868 7.456C44.1548 7.424 44.1068 7.408 44.0428 7.408C43.5468 7.536 43.0988 7.656 42.6988 7.768C42.0908 7.944 41.6588 8.008 41.4028 7.96C41.1468 7.896 41.0188 7.712 41.0188 7.408C41.0188 7.168 41.1308 6.96 41.3548 6.784C41.5788 6.608 41.8428 6.512 42.1468 6.496C42.3868 6.496 42.8108 6.392 43.4188 6.184C44.0428 5.976 44.4108 5.816 44.5228 5.704C44.6028 5.624 44.6028 5.392 44.5228 5.008L44.4028 4.432L43.2028 4.576C42.5148 4.64 41.9468 4.6 41.4988 4.456C41.0508 4.312 40.8268 4.112 40.8268 3.856C40.8268 3.504 41.5788 3.32 43.0828 3.304C44.2508 3.288 44.8748 2.952 44.9548 2.296ZM36.3628 2.176C36.6028 2.16 36.8668 2.136 37.1548 2.104C37.4428 2.072 37.6828 2.048 37.8748 2.032C38.0668 2.016 38.1788 2 38.2108 1.984C38.5788 1.968 38.7788 2.144 38.8108 2.512C38.8588 2.864 38.7868 3.672 38.5948 4.936C38.3548 6.328 38.2028 7.416 38.1388 8.2C38.1228 8.616 38.0828 8.864 38.0188 8.944C37.9548 9.024 37.7788 9.08 37.4908 9.112C37.0908 9.144 36.8588 9.016 36.7948 8.728C36.7308 8.424 36.7948 7.76 36.9868 6.736C37.2108 5.536 37.3468 4.688 37.3948 4.192L37.4668 3.28L36.5548 3.4C35.9948 3.464 35.3468 3.56 34.6108 3.688C34.0508 3.784 33.6748 3.792 33.4828 3.712C33.3068 3.632 33.2668 3.44 33.3628 3.136C33.4428 2.88 33.7068 2.68 34.1548 2.536C34.6188 2.392 35.3548 2.272 36.3628 2.176ZM41.6908 11.032C42.5548 10.936 43.0668 10.88 43.2268 10.864C43.4028 10.864 43.6108 10.968 43.8508 11.176C44.0268 11.304 44.1468 11.488 44.2108 11.728C44.2748 11.952 44.3308 12.392 44.3788 13.048C44.4268 13.784 44.4268 14.24 44.3788 14.416C44.3468 14.576 44.2028 14.752 43.9468 14.944C43.7228 15.12 43.4828 15.232 43.2268 15.28C42.9708 15.328 42.4988 15.352 41.8108 15.352C40.9308 15.336 40.3548 15.408 40.0828 15.568C39.8108 15.712 39.6988 16.024 39.7468 16.504L39.8188 16.984H42.4348C43.7468 16.984 44.5148 17 44.7388 17.032C44.9788 17.064 45.1148 17.184 45.1468 17.392C45.1948 17.696 45.0188 17.904 44.6188 18.016C44.2188 18.128 43.2828 18.216 41.8108 18.28C40.9628 18.36 40.3068 18.376 39.8428 18.328C39.3948 18.296 39.0988 18.224 38.9548 18.112C38.8108 18.016 38.6748 17.808 38.5468 17.488C38.4188 17.152 38.4108 16.664 38.5228 16.024C38.6348 15.384 38.8028 14.928 39.0268 14.656C39.2348 14.432 39.4348 14.296 39.6268 14.248C39.8348 14.2 40.2908 14.184 40.9948 14.2C42.0188 14.216 42.6268 14.128 42.8188 13.936C42.9948 13.76 43.0908 13.456 43.1068 13.024C43.1228 12.592 43.0428 12.344 42.8668 12.28C42.6588 12.2 42.0748 12.24 41.1148 12.4C40.1548 12.544 39.4908 12.696 39.1228 12.856C38.5308 13.112 38.0828 13.104 37.7788 12.832C37.5068 12.576 37.5708 12.272 37.9708 11.92C38.3708 11.536 39.6108 11.24 41.6908 11.032ZM51.1755 3.784C52.0235 3.656 52.6075 3.608 52.9275 3.64C53.2475 3.656 53.4795 3.752 53.6235 3.928C53.7515 4.072 53.7755 4.976 53.6955 6.64C53.6475 7.84 53.5915 8.568 53.5275 8.824C53.4795 9.064 53.3595 9.208 53.1675 9.256C52.7355 9.368 52.4795 9.304 52.3995 9.064C52.3355 8.824 52.3355 8.16 52.3995 7.072C52.4795 5.712 52.4555 5 52.3275 4.936C52.2155 4.856 51.3835 4.968 49.8315 5.272C48.8395 5.48 48.1915 5.6 47.8875 5.632C47.5835 5.648 47.3755 5.6 47.2635 5.488C47.1515 5.376 47.1035 5.288 47.1195 5.224C47.1355 5.144 47.2315 5.016 47.4075 4.84C47.8715 4.408 49.1275 4.056 51.1755 3.784ZM58.0395 5.608C58.1835 5.432 58.4075 5.368 58.7115 5.416C58.7275 5.416 58.7595 5.416 58.8075 5.416C59.0155 5.432 59.1275 5.536 59.1435 5.728C59.1595 5.904 59.1115 6.528 58.9995 7.6C58.9675 7.808 58.9515 7.976 58.9515 8.104C58.8555 9.128 58.8395 9.68 58.9035 9.76C58.9675 9.84 59.6155 9.784 60.8475 9.592C62.0315 9.384 62.7355 9.32 62.9595 9.4C63.1515 9.48 63.2475 9.672 63.2475 9.976C63.2475 10.04 63.2475 10.096 63.2475 10.144C63.2475 10.176 63.2395 10.216 63.2235 10.264C63.2075 10.312 63.1835 10.352 63.1515 10.384C63.1195 10.4 63.0875 10.424 63.0555 10.456C63.0235 10.472 62.9675 10.496 62.8875 10.528C62.8075 10.544 62.7195 10.56 62.6235 10.576C62.5435 10.592 62.4315 10.608 62.2875 10.624C62.1595 10.64 62.0235 10.664 61.8795 10.696C61.7355 10.712 61.5515 10.728 61.3275 10.744C60.5115 10.84 59.8795 10.96 59.4315 11.104L58.6635 11.32L58.6875 13.096C58.7195 13.8 58.7115 14.296 58.6635 14.584C58.6315 14.856 58.5515 15.064 58.4235 15.208C58.2315 15.432 58.0475 15.544 57.8715 15.544C57.6955 15.544 57.5595 15.432 57.4635 15.208C57.3515 14.984 57.3435 14.192 57.4395 12.832C57.4875 12.16 57.5755 10.64 57.7035 8.272C57.7995 6.64 57.9115 5.752 58.0395 5.608ZM49.7115 9.736C49.8075 9.592 49.9275 9.488 50.0715 9.424C50.2155 9.344 50.3435 9.32 50.4555 9.352C50.5675 9.368 50.6395 9.44 50.6715 9.568C50.6715 9.6 50.6715 9.696 50.6715 9.856C50.6715 10 50.6795 10.2 50.6955 10.456C50.7115 10.696 50.7195 10.92 50.7195 11.128C50.7355 11.976 50.7995 12.496 50.9115 12.688C51.0235 12.864 51.3275 12.912 51.8235 12.832C53.1515 12.576 53.9915 12.624 54.3435 12.976C54.5995 13.232 54.6395 13.464 54.4635 13.672C54.3035 13.864 53.9835 13.968 53.5035 13.984C52.4955 14 50.8955 14.224 48.7035 14.656C48.0955 14.768 47.6955 14.792 47.5035 14.728C47.3115 14.664 47.2155 14.472 47.2155 14.152C47.2155 13.656 47.7915 13.36 48.9435 13.264L49.5915 13.216L49.5195 11.656C49.4875 10.648 49.5515 10.008 49.7115 9.736ZM76.6798 4.48C76.8078 4.32 76.9038 4.24 76.9678 4.24C77.0318 4.24 77.1838 4.304 77.4238 4.432C77.5998 4.544 77.6958 4.696 77.7118 4.888C77.7438 5.064 77.7358 5.528 77.6878 6.28C77.6078 7.32 77.5358 8.136 77.4718 8.728L77.3998 9.568L78.2878 9.448C80.4478 9.224 81.6238 9.152 81.8158 9.232C81.9118 9.264 82.0078 9.36 82.1038 9.52C82.1678 9.632 82.1998 9.736 82.1998 9.832C82.2158 9.912 82.1998 9.992 82.1518 10.072C82.1038 10.136 82.0238 10.192 81.9118 10.24C81.7998 10.288 81.6398 10.336 81.4318 10.384C81.2398 10.432 81.0078 10.472 80.7358 10.504C80.4638 10.536 80.1198 10.576 79.7038 10.624C78.3278 10.736 77.5678 10.84 77.4238 10.936C77.2798 11.016 77.2078 11.768 77.2078 13.192C77.2078 14.584 77.1358 15.36 76.9918 15.52C76.8478 15.648 76.6638 15.72 76.4398 15.736C76.2318 15.752 76.0878 15.696 76.0078 15.568C75.9118 15.424 75.9758 13.576 76.1998 10.024C76.4238 6.456 76.5838 4.608 76.6798 4.48ZM69.4798 6.136C70.3118 5.944 70.8398 5.944 71.0638 6.136C71.2878 6.328 71.3598 6.872 71.2798 7.768C71.2318 8.392 71.1198 9.288 70.9438 10.456C70.7678 11.624 70.5998 12.568 70.4398 13.288C70.3918 13.56 70.3198 13.744 70.2238 13.84C70.1438 13.936 70.0078 13.992 69.8158 14.008C69.5278 14.04 69.3438 13.96 69.2638 13.768C69.1838 13.576 69.1998 13.232 69.3118 12.736C69.6478 11.296 69.8718 9.92 69.9838 8.608C70.0478 7.744 70.0318 7.304 69.9358 7.288C69.9038 7.272 69.8398 7.288 69.7438 7.336C69.4718 7.432 68.7918 7.568 67.7038 7.744C66.6158 7.92 65.8798 8.008 65.4958 8.008C64.9038 8.008 64.5598 7.856 64.4638 7.552C64.4158 7.408 64.4798 7.272 64.6558 7.144C65.0878 6.84 66.1598 6.592 67.8718 6.4C68.3518 6.352 68.8878 6.264 69.4798 6.136ZM93.7395 1.792C93.8195 1.632 93.9795 1.568 94.2195 1.6C94.4755 1.632 94.6355 1.736 94.6995 1.912C94.7795 2.152 94.7555 2.648 94.6275 3.4C94.5155 4.216 94.5075 4.696 94.6035 4.84C94.6675 4.952 95.0675 4.952 95.8035 4.84C96.2995 4.744 96.6195 4.704 96.7635 4.72C96.9235 4.72 97.0675 4.792 97.1955 4.936C97.3395 5.16 97.3955 5.328 97.3635 5.44C97.3475 5.552 97.1715 5.808 96.8355 6.208C96.4515 6.688 96.2755 7 96.3075 7.144C96.3555 7.288 96.5955 7.496 97.0275 7.768C97.5235 8.072 97.8675 8.344 98.0595 8.584C98.2515 8.808 98.3475 9.032 98.3475 9.256C98.3475 9.928 97.8435 9.896 96.8355 9.16C96.1315 8.616 95.6595 8.336 95.4195 8.32C95.1955 8.288 94.8915 8.48 94.5075 8.896C94.0755 9.376 93.7395 9.816 93.4995 10.216C93.1155 10.92 92.6915 11.024 92.2275 10.528C92.0355 10.336 92.0115 10.12 92.1555 9.88C92.2995 9.624 92.7715 9.064 93.5715 8.2C94.8195 6.856 95.3875 6.136 95.2755 6.04C95.2275 5.976 94.8595 6.032 94.1715 6.208C93.2595 6.416 92.4835 6.528 91.8435 6.544C91.2195 6.56 90.8435 6.472 90.7155 6.28C90.5715 6.04 90.5955 5.856 90.7875 5.728C90.9795 5.6 91.4195 5.464 92.1075 5.32L93.3555 5.08L93.4755 3.52C93.5715 2.464 93.6595 1.888 93.7395 1.792ZM98.6835 11.68C98.7315 11.632 98.8515 11.648 99.0435 11.728C99.2195 11.792 99.2915 12.016 99.2595 12.4C99.2275 12.72 99.1555 12.904 99.0435 12.952C98.9475 13 98.6115 13.04 98.0355 13.072L96.8355 13.12L96.7155 13.984C96.6355 14.512 96.6275 15.256 96.6915 16.216C96.7555 16.904 96.7475 17.376 96.6675 17.632C96.5875 17.888 96.4115 18.016 96.1395 18.016C95.8995 18.016 95.7315 17.8 95.6355 17.368C95.5395 16.952 95.4915 16.248 95.4915 15.256L95.4675 13.264L94.9875 13.384C94.8115 13.432 94.5795 13.488 94.2915 13.552C94.0035 13.6 93.7075 13.648 93.4035 13.696C93.1155 13.744 92.8435 13.784 92.5875 13.816C92.3475 13.848 92.1795 13.864 92.0835 13.864C91.8595 13.864 91.7475 13.72 91.7475 13.432C91.7475 13.064 91.8995 12.8 92.2035 12.64C92.5075 12.464 93.0755 12.344 93.9075 12.28C94.8035 12.216 95.8115 12.112 96.9315 11.968C98.0515 11.824 98.6355 11.728 98.6835 11.68ZM103.823 0.879999C104.127 0.319999 104.383 0.271999 104.591 0.735999C104.751 1.088 104.823 1.632 104.807 2.368V3.712L105.407 3.592C105.615 3.544 106.175 3.464 107.087 3.352C107.567 3.304 107.879 3.296 108.023 3.328C108.167 3.36 108.303 3.48 108.431 3.688C108.655 4.008 108.671 4.24 108.479 4.384C108.287 4.512 107.799 4.616 107.015 4.696C105.015 4.856 103.471 5.112 102.383 5.464C101.823 5.656 101.359 5.728 100.991 5.68C100.639 5.616 100.463 5.448 100.463 5.176C100.463 5.016 100.527 4.88 100.655 4.768C100.799 4.656 101.031 4.552 101.351 4.456C101.687 4.344 102.207 4.216 102.911 4.072L103.535 3.952L103.583 2.632C103.599 1.768 103.679 1.184 103.823 0.879999ZM103.895 6.184C104.391 6.024 104.807 5.96 105.143 5.992C105.495 6.024 105.935 6.16 106.463 6.4C107.407 6.88 107.919 7.624 107.999 8.632C108.095 9.624 107.727 10.512 106.895 11.296C106.655 11.536 106.423 11.696 106.199 11.776C105.975 11.84 105.607 11.888 105.095 11.92C103.831 12 102.871 11.728 102.215 11.104C101.927 10.816 101.735 10.368 101.639 9.76C101.559 9.152 101.607 8.6 101.783 8.104C101.847 7.944 101.959 7.76 102.119 7.552C102.279 7.344 102.455 7.152 102.647 6.976C102.855 6.784 103.071 6.616 103.295 6.472C103.519 6.328 103.719 6.232 103.895 6.184ZM106.631 7.936C106.151 7.248 105.439 7.064 104.495 7.384C103.679 7.656 103.151 8.112 102.911 8.752C102.687 9.392 102.847 9.944 103.391 10.408C103.615 10.6 103.815 10.72 103.991 10.768C104.167 10.816 104.455 10.824 104.855 10.792C105.463 10.728 105.919 10.544 106.223 10.24C106.543 9.952 106.743 9.568 106.823 9.088C106.903 8.608 106.839 8.224 106.631 7.936ZM107.159 13.408C107.431 13.36 107.743 13.352 108.095 13.384C108.335 13.384 108.495 13.424 108.575 13.504C108.655 13.568 108.703 13.696 108.719 13.888C108.767 14.176 108.695 14.368 108.503 14.464C108.327 14.544 107.879 14.608 107.159 14.656L106.391 14.704V15.64C106.391 16.216 106.447 16.832 106.559 17.488C106.639 17.92 106.663 18.184 106.631 18.28C106.599 18.376 106.455 18.448 106.199 18.496C105.879 18.576 105.647 18.552 105.503 18.424C105.375 18.296 105.279 17.656 105.215 16.504L105.119 14.776L104.351 14.896C103.967 14.944 103.407 15.048 102.671 15.208C101.903 15.384 101.431 15.304 101.255 14.968C101.127 14.728 101.239 14.456 101.591 14.152C101.831 13.928 102.759 13.76 104.375 13.648C105.959 13.536 106.887 13.456 107.159 13.408ZM112.74 5.8C113.108 5.688 113.42 5.656 113.676 5.704C113.948 5.736 114.412 5.896 115.068 6.184C116.14 6.632 116.684 7.592 116.7 9.064C116.7 9.816 116.628 10.392 116.484 10.792C116.356 11.176 116.108 11.584 115.74 12.016C115.404 12.4 115.148 12.632 114.972 12.712C114.812 12.792 114.5 12.832 114.036 12.832C113.124 12.832 112.252 12.56 111.42 12.016C110.604 11.472 110.132 10.864 110.004 10.192C109.892 9.536 109.916 8.968 110.076 8.488C110.236 8.008 110.58 7.504 111.108 6.976C111.364 6.704 111.652 6.456 111.972 6.232C112.308 6.008 112.564 5.864 112.74 5.8ZM114.396 7.072C113.996 6.944 113.708 6.896 113.532 6.928C113.356 6.944 113.036 7.08 112.572 7.336C112.028 7.656 111.668 7.936 111.492 8.176C111.316 8.416 111.22 8.752 111.204 9.184C111.204 9.728 111.404 10.2 111.804 10.6C112.22 11 112.764 11.272 113.436 11.416C113.948 11.544 114.268 11.6 114.396 11.584C114.524 11.552 114.7 11.4 114.924 11.128C115.052 10.984 115.14 10.848 115.188 10.72C115.252 10.576 115.292 10.4 115.308 10.192C115.34 9.984 115.356 9.696 115.356 9.328C115.356 8.528 115.292 7.992 115.164 7.72C115.052 7.432 114.796 7.216 114.396 7.072ZM123.708 5.8C123.82 5.64 123.964 5.568 124.14 5.584C124.316 5.584 124.476 5.672 124.62 5.848C124.78 6.04 124.812 7.288 124.716 9.592C124.604 11.848 124.548 13.24 124.548 13.768C124.532 14.232 124.468 14.544 124.356 14.704C124.26 14.864 124.052 14.976 123.732 15.04L123.228 15.136L123.396 12.352C123.508 10.112 123.564 8.6 123.564 7.816C123.564 6.632 123.612 5.96 123.708 5.8ZM120.876 6.16C121.196 5.856 121.492 5.872 121.764 6.208C121.908 6.384 121.908 7.28 121.764 8.896C121.668 10.128 121.556 11.504 121.428 13.024L121.308 14.704H120.756H120.18L120.204 12.472C120.204 12.44 120.204 12.4 120.204 12.352C120.236 11.216 120.204 10.576 120.108 10.432C120.012 10.272 119.66 10.28 119.052 10.456C119.004 10.472 118.972 10.48 118.956 10.48C118.556 10.608 118.172 10.64 117.804 10.576C117.436 10.512 117.252 10.392 117.252 10.216C117.252 9.912 117.388 9.672 117.66 9.496C117.948 9.32 118.412 9.2 119.052 9.136C119.916 9.024 120.404 8.888 120.516 8.728C120.612 8.536 120.66 8.096 120.66 7.408C120.66 6.72 120.732 6.304 120.876 6.16ZM162.935 3.28C165.079 2.896 166.263 2.848 166.487 3.136C166.599 3.328 166.711 4.024 166.823 5.224C166.951 6.424 166.975 7.104 166.895 7.264C166.815 7.424 166.431 7.608 165.743 7.816C165.071 8.008 164.311 8.16 163.463 8.272C162.999 8.352 162.695 8.504 162.551 8.728C162.423 8.952 162.439 9.272 162.599 9.688C162.679 9.88 162.775 9.992 162.887 10.024C162.999 10.056 163.287 10.048 163.751 10C164.407 9.904 165.135 9.768 165.935 9.592C166.607 9.448 167.055 9.392 167.279 9.424C167.503 9.456 167.687 9.592 167.831 9.832C167.975 10.12 167.951 10.344 167.759 10.504C167.583 10.664 167.223 10.784 166.679 10.864C164.359 11.168 162.943 11.328 162.431 11.344C161.935 11.344 161.639 11.2 161.543 10.912C161.479 10.768 161.399 10.28 161.303 9.448C161.239 8.648 161.319 8.128 161.543 7.888C161.783 7.632 162.415 7.392 163.439 7.168C163.823 7.088 164.111 7.032 164.303 7C164.495 6.952 164.695 6.904 164.903 6.856C165.111 6.792 165.247 6.736 165.311 6.688C165.391 6.64 165.471 6.592 165.551 6.544C165.631 6.496 165.671 6.424 165.671 6.328C165.671 6.232 165.671 6.144 165.671 6.064C165.671 5.984 165.663 5.864 165.647 5.704C165.519 4.904 165.391 4.44 165.263 4.312C165.135 4.184 164.767 4.168 164.159 4.264C163.727 4.328 163.007 4.472 161.999 4.696C161.439 4.824 161.047 4.864 160.823 4.816C160.599 4.768 160.487 4.6 160.487 4.312C160.487 4.072 160.671 3.88 161.039 3.736C161.407 3.576 162.039 3.424 162.935 3.28ZM164.279 13.096C164.407 12.84 164.639 12.736 164.975 12.784C165.231 12.8 165.375 12.872 165.407 13C165.439 13.112 165.447 13.488 165.431 14.128L165.359 15.424L166.655 15.28C167.263 15.216 167.823 15.144 168.335 15.064C168.591 15 168.823 15.072 169.031 15.28C169.255 15.488 169.351 15.728 169.319 16C169.287 16.176 169.199 16.288 169.055 16.336C168.927 16.384 168.615 16.432 168.119 16.48C167.751 16.48 167.215 16.52 166.511 16.6C165.807 16.696 165.087 16.8 164.351 16.912C163.631 17.04 163.023 17.16 162.527 17.272C161.983 17.4 161.615 17.416 161.423 17.32C161.247 17.24 161.207 17.048 161.303 16.744C161.431 16.344 162.127 16.04 163.391 15.832L164.063 15.712V14.584C164.063 13.848 164.135 13.352 164.279 13.096ZM182.273 3.952C183.745 3.6 184.521 3.648 184.601 4.096C184.633 4.256 184.593 4.48 184.481 4.768C184.401 5.008 184.153 5.4 183.737 5.944C183.337 6.488 183.073 6.784 182.945 6.832C182.657 6.96 182.921 7.48 183.737 8.392L183.977 8.68C184.921 9.752 185.193 10.376 184.793 10.552C184.729 10.584 184.649 10.608 184.553 10.624C184.377 10.64 184.177 10.576 183.953 10.432C183.729 10.272 183.417 9.968 183.017 9.52L181.937 8.344L181.169 9.208C180.641 9.784 180.345 10.184 180.281 10.408C180.217 10.6 180.049 10.76 179.777 10.888C179.521 11 179.321 11.008 179.177 10.912C178.905 10.752 178.977 10.328 179.393 9.64C179.825 8.936 180.697 7.8 182.009 6.232H182.033C182.497 5.672 182.705 5.36 182.657 5.296L182.369 5.224C182.113 5.192 181.497 5.28 180.521 5.488C179.881 5.632 179.393 5.736 179.057 5.8C178.721 5.864 178.441 5.904 178.217 5.92C178.009 5.92 177.873 5.896 177.809 5.848C177.745 5.8 177.713 5.72 177.713 5.608C177.713 5.272 177.905 4.992 178.289 4.768C178.689 4.544 179.257 4.392 179.993 4.312C180.857 4.232 181.617 4.112 182.273 3.952ZM188.129 4.072C188.385 3.816 188.657 3.792 188.945 4C189.073 4.08 189.137 5.368 189.137 7.864C189.137 9.624 189.113 10.696 189.065 11.08C189.033 11.448 188.937 11.656 188.777 11.704C188.457 11.8 188.217 11.688 188.057 11.368C187.913 11.048 187.817 10.432 187.769 9.52L187.673 7.768L186.977 7.936C185.681 8.208 184.993 8.152 184.913 7.768C184.865 7.496 184.993 7.248 185.297 7.024C185.617 6.8 186.009 6.688 186.473 6.688C186.825 6.688 187.081 6.68 187.241 6.664C187.417 6.648 187.561 6.592 187.673 6.496C187.801 6.384 187.873 6.256 187.889 6.112C187.905 5.968 187.913 5.728 187.913 5.392C187.913 4.672 187.985 4.232 188.129 4.072ZM182.465 12.784C182.753 12.48 183.033 12.472 183.305 12.76C183.449 12.904 183.489 13.384 183.425 14.2L183.305 15.4L184.433 15.28C185.281 15.2 186.121 15.152 186.953 15.136C187.609 15.104 188.009 15.112 188.153 15.16C188.313 15.192 188.409 15.296 188.441 15.472C188.473 15.76 188.369 15.976 188.129 16.12C187.889 16.28 187.473 16.384 186.881 16.432C186.289 16.496 185.465 16.584 184.409 16.696C183.993 16.744 183.689 16.776 183.497 16.792C183.305 16.808 183.105 16.792 182.897 16.744C182.689 16.712 182.553 16.672 182.489 16.624C182.441 16.576 182.385 16.448 182.321 16.24C182.273 16.032 182.241 15.84 182.225 15.664C182.225 15.472 182.225 15.168 182.225 14.752C182.225 13.584 182.305 12.928 182.465 12.784ZM194.018 1.168C194.466 0.735999 194.826 0.575999 195.098 0.688C195.194 0.735999 195.242 0.823999 195.242 0.951999C195.242 1.144 195.082 1.488 194.762 1.984C194.458 2.464 194.306 2.776 194.306 2.92C194.306 3.064 194.73 3.328 195.578 3.712C196.298 4.032 196.898 4.352 197.378 4.672C197.698 4.88 197.866 5.112 197.882 5.368C197.914 5.624 197.818 5.784 197.594 5.848C197.386 5.912 197.114 5.864 196.778 5.704C196.394 5.48 195.754 5.144 194.858 4.696C193.962 4.248 193.498 4.04 193.466 4.072C193.386 4.184 193.21 4.48 192.938 4.96C192.682 5.424 192.426 5.888 192.17 6.352C191.914 6.816 191.778 7.096 191.762 7.192C191.682 7.48 191.586 7.624 191.474 7.624C191.266 7.624 191.026 7.552 190.754 7.408C190.482 7.248 190.346 7.112 190.346 7C190.346 6.84 190.706 6.208 191.426 5.104C192.05 4.144 192.586 3.288 193.034 2.536C193.354 1.976 193.682 1.52 194.018 1.168ZM193.826 7.216C194.402 6.832 194.698 7.12 194.714 8.08C194.714 8.24 194.706 8.424 194.69 8.632C194.69 8.664 194.69 8.712 194.69 8.776C194.674 9.304 194.738 9.6 194.882 9.664C195.026 9.728 195.546 9.68 196.442 9.52C196.554 9.488 196.642 9.472 196.706 9.472C197.458 9.344 197.938 9.296 198.146 9.328C198.354 9.344 198.53 9.488 198.674 9.76C198.818 10.032 198.794 10.248 198.602 10.408C198.41 10.568 198.09 10.648 197.642 10.648C197.21 10.648 196.37 10.736 195.122 10.912C193.89 11.088 192.954 11.248 192.314 11.392C191.706 11.552 191.29 11.616 191.066 11.584C190.842 11.552 190.73 11.424 190.73 11.2C190.73 10.608 191.242 10.296 192.266 10.264C192.858 10.264 193.186 10.216 193.25 10.12C193.314 10.024 193.394 9.536 193.49 8.656C193.57 7.776 193.682 7.296 193.826 7.216ZM193.994 12.76C195.018 12.232 196.018 12.352 196.994 13.12C197.554 13.568 197.898 13.904 198.026 14.128C198.17 14.336 198.242 14.656 198.242 15.088C198.242 16.288 197.81 17.192 196.946 17.8C196.082 18.408 195.05 18.544 193.85 18.208C193.114 18 192.61 17.656 192.338 17.176C192.066 16.712 191.962 15.968 192.026 14.944C192.026 14.72 192.122 14.472 192.314 14.2C192.506 13.912 192.746 13.64 193.034 13.384C193.338 13.128 193.658 12.92 193.994 12.76ZM196.634 14.392C196.202 14.008 195.858 13.776 195.602 13.696C195.362 13.616 195.058 13.632 194.69 13.744C194.402 13.856 194.138 14.008 193.898 14.2C193.674 14.376 193.506 14.576 193.394 14.8C193.298 15.024 193.234 15.256 193.202 15.496C193.17 15.736 193.186 15.96 193.25 16.168C193.33 16.392 193.442 16.584 193.586 16.744C193.73 16.92 193.922 17.048 194.162 17.128C194.418 17.208 194.706 17.232 195.026 17.2C195.57 17.136 196.066 16.896 196.514 16.48C197.266 15.728 197.306 15.032 196.634 14.392ZM202.547 1.24C203.219 1.048 203.939 0.927999 204.707 0.879999C205.475 0.831999 205.963 0.872 206.171 1C206.411 1.144 206.499 1.448 206.435 1.912C206.419 2.04 205.867 2.104 204.779 2.104C203.675 2.104 202.835 2.24 202.259 2.512L201.371 2.872L201.251 4.048C201.171 4.8 201.171 5.256 201.251 5.416C201.299 5.512 201.675 5.536 202.379 5.488C203.083 5.44 203.883 5.336 204.779 5.176C205.259 5.096 205.587 5.064 205.763 5.08C205.939 5.08 206.083 5.136 206.195 5.248C206.371 5.408 206.419 5.632 206.339 5.92C206.259 6.192 206.115 6.328 205.907 6.328C204.675 6.376 203.467 6.56 202.283 6.88C201.723 7.024 201.259 7.08 200.891 7.048C200.539 7.016 200.315 6.904 200.219 6.712C200.091 6.504 200.011 5.696 199.979 4.288C199.963 3.136 200.011 2.368 200.123 1.984C200.235 1.584 200.467 1.424 200.819 1.504C201.075 1.584 201.651 1.496 202.547 1.24ZM208.187 3.136C208.267 2.992 208.395 2.92 208.571 2.92C208.747 2.92 208.891 2.992 209.003 3.136C209.131 3.328 209.219 4.728 209.267 7.336C209.299 9.064 209.299 10.16 209.267 10.624C209.251 11.088 209.179 11.336 209.051 11.368C208.843 11.384 208.635 11.32 208.427 11.176C208.283 11.064 208.195 10.792 208.163 10.36C208.131 9.912 208.099 8.848 208.067 7.168C208.051 4.656 208.091 3.312 208.187 3.136ZM202.379 7.84C202.427 7.696 202.603 7.624 202.907 7.624C203.355 7.624 203.579 8.096 203.579 9.04C203.579 9.28 203.603 9.424 203.651 9.472C203.715 9.504 203.867 9.496 204.107 9.448C204.571 9.352 205.163 9.28 205.883 9.232C206.395 9.168 206.731 9.152 206.891 9.184C207.067 9.2 207.179 9.28 207.227 9.424C207.387 9.808 207.283 10.088 206.915 10.264C206.563 10.424 205.675 10.608 204.251 10.816C203.227 10.976 202.395 11.16 201.755 11.368C201.275 11.512 200.971 11.584 200.843 11.584C200.715 11.568 200.571 11.488 200.411 11.344C200.187 11.104 200.155 10.88 200.315 10.672C200.491 10.448 200.827 10.28 201.323 10.168L202.187 9.952L202.235 9.04C202.251 8.48 202.299 8.08 202.379 7.84ZM207.395 13.144C207.363 12.68 207.363 12.4 207.395 12.304C207.427 12.208 207.531 12.16 207.707 12.16C208.011 12.16 208.251 12.28 208.427 12.52C208.603 12.76 208.659 13.04 208.595 13.36C208.531 13.76 208.499 14.544 208.499 15.712C208.499 16.816 208.427 17.52 208.283 17.824C208.139 18.128 207.819 18.264 207.323 18.232C206.811 18.2 206.099 18.28 205.187 18.472C204.355 18.632 203.819 18.664 203.579 18.568C203.355 18.488 203.171 18.184 203.027 17.656C202.899 17.176 202.835 16.376 202.835 15.256C202.851 14.12 202.931 13.48 203.075 13.336C203.283 13.16 203.475 13.096 203.651 13.144C203.843 13.176 203.987 13.32 204.083 13.576C204.179 13.832 204.187 14.112 204.107 14.416C204.059 14.576 204.067 14.68 204.131 14.728C204.211 14.776 204.395 14.792 204.683 14.776C205.147 14.776 205.731 14.664 206.435 14.44L207.467 14.128L207.395 13.144ZM207.371 16.312C207.371 16.024 207.275 15.832 207.083 15.736C206.891 15.624 206.635 15.624 206.315 15.736C206.219 15.784 206.027 15.84 205.739 15.904C205.467 15.952 205.195 15.992 204.923 16.024C204.651 16.072 204.435 16.104 204.275 16.12C204.179 16.12 204.147 16.296 204.179 16.648C204.211 16.888 204.267 17.032 204.347 17.08C204.427 17.128 204.643 17.144 204.995 17.128C205.523 17.08 206.051 17.024 206.579 16.96C206.931 16.912 207.147 16.856 207.227 16.792C207.323 16.728 207.371 16.568 207.371 16.312ZM219.814 4.768C219.926 4.672 220.11 4.64 220.366 4.672C220.478 4.688 220.55 4.712 220.582 4.744C220.63 4.776 220.67 4.872 220.702 5.032C220.75 5.192 220.774 5.4 220.774 5.656C220.79 5.896 220.806 6.272 220.822 6.784C220.854 8.272 220.822 10.088 220.726 12.232L220.582 15.64H220.006H219.43L219.454 14.152C219.454 11.608 219.486 9.424 219.55 7.6C219.63 5.776 219.718 4.832 219.814 4.768ZM210.79 5.344C210.966 5.152 211.094 5.048 211.174 5.032C211.254 5 211.382 5.04 211.558 5.152C211.702 5.248 211.79 6.264 211.822 8.2L211.894 11.128H213.886C215.214 11.128 216.11 11.088 216.574 11.008C216.974 10.928 217.254 10.96 217.414 11.104C217.59 11.232 217.654 11.488 217.606 11.872L217.558 12.376L214.318 12.424C212.158 12.488 211.006 12.44 210.862 12.28C210.734 12.088 210.638 10.952 210.574 8.872C210.526 7.464 210.51 6.568 210.526 6.184C210.558 5.784 210.646 5.504 210.79 5.344ZM232.138 4.984C232.186 4.888 232.29 4.832 232.45 4.816C232.626 4.8 232.818 4.84 233.026 4.936C233.154 4.984 233.234 5.152 233.266 5.44C233.314 5.728 233.338 6.328 233.338 7.24C233.338 8.728 233.37 9.496 233.434 9.544C233.466 9.592 234.042 9.576 235.162 9.496C236.186 9.384 236.858 9.36 237.178 9.424C237.514 9.488 237.682 9.672 237.682 9.976C237.682 10.04 237.674 10.096 237.658 10.144C237.658 10.192 237.634 10.24 237.586 10.288C237.554 10.336 237.514 10.376 237.466 10.408C237.434 10.44 237.37 10.472 237.274 10.504C237.178 10.536 237.074 10.56 236.962 10.576C236.85 10.592 236.698 10.616 236.506 10.648C236.33 10.664 236.138 10.68 235.93 10.696C235.738 10.712 235.482 10.736 235.162 10.768C234.058 10.848 233.458 10.96 233.362 11.104C233.298 11.216 233.25 11.904 233.218 13.168C233.202 14.4 233.17 15.032 233.122 15.064C233.106 15.096 232.954 15.16 232.666 15.256C232.33 15.352 232.122 15.256 232.042 14.968C231.946 14.616 231.946 13.456 232.042 11.488C232.17 9.264 232.202 7.648 232.138 6.64C232.042 5.648 232.042 5.096 232.138 4.984ZM225.322 5.656C226.394 5.48 227.154 5.4 227.602 5.416C228.05 5.416 228.306 5.504 228.37 5.68C228.482 5.968 228.434 6.192 228.226 6.352C228.034 6.512 227.682 6.6 227.17 6.616C225.714 6.632 224.594 6.816 223.81 7.168L223.21 7.384L223.282 9.16C223.314 9.64 223.33 9.992 223.33 10.216C223.346 10.44 223.378 10.672 223.426 10.912C223.474 11.152 223.522 11.312 223.57 11.392C223.618 11.456 223.706 11.536 223.834 11.632C223.978 11.712 224.106 11.76 224.218 11.776C224.346 11.792 224.538 11.808 224.794 11.824C225.514 11.888 226.25 11.88 227.002 11.8C228.202 11.624 228.802 11.792 228.802 12.304C228.802 12.496 228.77 12.64 228.706 12.736C228.658 12.832 228.506 12.912 228.25 12.976C228.01 13.04 227.69 13.08 227.29 13.096C226.906 13.112 226.33 13.12 225.562 13.12C225.418 13.12 225.218 13.12 224.962 13.12C224.578 13.12 224.306 13.12 224.146 13.12C223.986 13.12 223.778 13.104 223.522 13.072C223.282 13.04 223.13 13.024 223.066 13.024C223.002 13.008 222.906 12.952 222.778 12.856C222.65 12.744 222.57 12.656 222.538 12.592C222.522 12.512 222.482 12.368 222.418 12.16C222.37 11.952 222.338 11.776 222.322 11.632C222.322 11.472 222.298 11.224 222.25 10.888C222.234 10.648 222.218 10.456 222.202 10.312C222.058 8.856 221.994 7.864 222.01 7.336C222.026 6.808 222.13 6.496 222.322 6.4C223.01 6.128 224.01 5.88 225.322 5.656ZM239.389 14.176C239.629 14.064 239.829 14.024 239.989 14.056C240.165 14.072 240.357 14.176 240.565 14.368C240.741 14.512 240.853 14.632 240.901 14.728C240.949 14.808 240.973 14.936 240.973 15.112C240.973 15.896 240.573 16.288 239.773 16.288C239.661 16.288 239.565 16.28 239.485 16.264C239.421 16.248 239.365 16.216 239.317 16.168C239.269 16.136 239.205 16.08 239.125 16C238.965 15.808 238.885 15.528 238.885 15.16C238.885 14.872 238.917 14.664 238.981 14.536C239.045 14.408 239.181 14.288 239.389 14.176ZM74.8363 29.432C75.5243 29.336 76.0363 29.32 76.3723 29.384C76.7243 29.432 76.9723 29.528 77.1163 29.672C77.2603 29.816 77.3643 30.064 77.4283 30.416C77.4923 30.752 77.5403 31.352 77.5723 32.216L77.6203 34.448L77.0683 34.856C76.7163 35.112 76.5003 35.152 76.4203 34.976C76.3243 34.768 76.2763 33.976 76.2763 32.6V30.512L75.3883 30.656C74.8443 30.736 74.3963 30.832 74.0443 30.944C73.5003 31.136 73.1003 31.168 72.8443 31.04C72.6043 30.896 72.5563 30.624 72.7003 30.224C72.7963 30 72.9723 29.84 73.2283 29.744C73.4843 29.632 74.0203 29.528 74.8363 29.432ZM70.0123 30.248C70.1083 30.152 70.3883 30.128 70.8523 30.176C71.3323 30.224 71.6283 30.304 71.7403 30.416C71.8843 30.592 71.9403 31.584 71.9083 33.392L71.8363 36.104L71.2363 36.152L70.5643 36.2L70.6363 33.848L70.6843 31.448L70.1323 31.568C69.5563 31.696 68.9963 31.776 68.4523 31.808C67.9083 31.824 67.5643 31.784 67.4203 31.688C67.1323 31.496 67.2363 31.248 67.7323 30.944C68.0363 30.768 68.4203 30.632 68.8843 30.536C69.6043 30.392 69.9803 30.296 70.0123 30.248ZM73.6603 35.312C73.7883 35.152 73.9323 35.08 74.0923 35.096C74.2683 35.096 74.4283 35.176 74.5723 35.336C74.6683 35.48 74.7083 35.648 74.6923 35.84C74.6923 36.032 74.6363 36.408 74.5243 36.968C74.3163 37.832 74.2443 38.288 74.3083 38.336C74.3723 38.4 74.7403 38.4 75.4123 38.336C76.1003 38.272 76.6363 38.192 77.0203 38.096C78.0443 37.792 78.6763 37.848 78.9163 38.264C79.0923 38.616 79.0763 38.896 78.8683 39.104C78.6763 39.296 78.3243 39.392 77.8123 39.392C77.3003 39.392 76.6283 39.456 75.7963 39.584C74.9803 39.728 74.2843 39.824 73.7083 39.872C72.8923 39.968 72.1643 40.072 71.5243 40.184C70.7883 40.312 70.2923 40.344 70.0363 40.28C69.7803 40.216 69.6523 40.032 69.6523 39.728C69.6523 39.488 69.7003 39.312 69.7963 39.2C69.9083 39.072 70.0923 38.984 70.3483 38.936C70.6043 38.872 70.9963 38.832 71.5243 38.816C71.9723 38.8 72.3323 38.768 72.6043 38.72C72.8763 38.656 73.0603 38.568 73.1563 38.456C73.2523 38.344 73.2603 38.208 73.1803 38.048C73.1163 37.872 73.1483 37.408 73.2763 36.656C73.4203 35.904 73.5483 35.456 73.6603 35.312ZM74.4043 41.48C75.9883 41.384 76.8363 41.336 76.9483 41.336C77.3003 41.304 77.5243 41.44 77.6203 41.744C77.7163 42.048 77.7643 42.752 77.7643 43.856C77.7643 45.136 77.7163 45.84 77.6203 45.968C77.5723 46.032 77.4763 46.08 77.3323 46.112C76.9483 46.208 76.7083 46.152 76.6123 45.944C76.5163 45.752 76.4683 45.2 76.4683 44.288V42.584L74.7163 42.728C73.4363 42.84 72.6363 42.888 72.3163 42.872C71.9963 42.856 71.8203 42.768 71.7883 42.608C71.7723 42.416 71.8443 42.208 72.0043 41.984C72.0683 41.872 72.1723 41.792 72.3163 41.744C72.4763 41.68 72.7083 41.632 73.0123 41.6C73.3163 41.568 73.7803 41.528 74.4043 41.48ZM90.624 28.112C90.768 27.84 90.928 27.704 91.104 27.704C91.52 27.704 91.72 28.32 91.704 29.552C91.704 30.32 91.736 30.752 91.8 30.848C91.896 30.912 92.392 30.864 93.288 30.704C93.928 30.592 94.328 30.544 94.488 30.56C94.648 30.576 94.792 30.664 94.92 30.824C95.128 31.112 95.184 31.344 95.088 31.52C95.008 31.68 94.784 31.776 94.416 31.808C93.968 31.856 93.08 32.008 91.752 32.264C90.424 32.52 89.536 32.712 89.088 32.84C88.656 32.968 88.272 33 87.936 32.936C87.6 32.856 87.432 32.696 87.432 32.456C87.432 32.216 87.632 31.992 88.032 31.784C88.448 31.56 88.904 31.424 89.4 31.376C89.976 31.328 90.32 31.272 90.432 31.208C90.544 31.128 90.568 30.664 90.504 29.816C90.44 28.952 90.48 28.384 90.624 28.112ZM90.168 33.536C90.808 33.2 91.192 33.024 91.32 33.008C91.944 32.992 92.616 33.256 93.336 33.8C94.056 34.328 94.416 34.84 94.416 35.336C94.416 35.72 94.264 36.152 93.96 36.632C93.272 37.608 92.16 38.112 90.624 38.144C90.048 38.16 89.656 38.144 89.448 38.096C89.256 38.048 89.024 37.896 88.752 37.64C88.16 37.08 88 36.4 88.272 35.6C88.544 34.784 89.176 34.096 90.168 33.536ZM92.712 34.496C92.472 34.384 92.168 34.336 91.8 34.352C91.448 34.352 91.16 34.424 90.936 34.568C90.488 34.824 90.168 35.024 89.976 35.168C89.8 35.312 89.68 35.448 89.616 35.576C89.552 35.704 89.52 35.88 89.52 36.104C89.52 36.232 89.528 36.352 89.544 36.464C89.576 36.56 89.616 36.64 89.664 36.704C89.712 36.768 89.784 36.824 89.88 36.872C89.976 36.904 90.088 36.928 90.216 36.944C90.36 36.96 90.536 36.968 90.744 36.968C91.432 36.968 92.032 36.776 92.544 36.392C93.072 36.008 93.272 35.6 93.144 35.168C93.08 34.832 92.936 34.608 92.712 34.496ZM97.584 33.248C98.096 32.832 98.352 33.088 98.352 34.016C98.352 34.4 98.304 34.896 98.208 35.504L98.064 36.416L99.384 36.344L100.728 36.272V36.872C100.728 37.144 100.68 37.312 100.584 37.376C100.488 37.424 100.192 37.48 99.696 37.544C98.832 37.64 98.312 37.776 98.136 37.952C97.96 38.128 97.896 38.568 97.944 39.272C97.992 39.864 98 40.224 97.968 40.352C97.936 40.464 97.8 40.544 97.56 40.592C97.208 40.656 97 40.632 96.936 40.52C96.84 40.376 96.808 39.536 96.84 38C96.872 36.448 96.944 35.36 97.056 34.736C97.2 33.904 97.376 33.408 97.584 33.248ZM90.96 38.576C91.056 38.48 91.232 38.456 91.488 38.504C91.744 38.536 91.888 38.768 91.92 39.2C91.952 39.488 92 39.656 92.064 39.704C92.128 39.752 92.296 39.752 92.568 39.704C92.824 39.64 93.424 39.56 94.368 39.464C94.96 39.416 95.304 39.408 95.4 39.44C95.496 39.472 95.544 39.6 95.544 39.824C95.544 40.08 95.432 40.304 95.208 40.496C95 40.672 94.784 40.736 94.56 40.688C94.416 40.672 94.088 40.712 93.576 40.808C93.064 40.888 92.648 40.984 92.328 41.096C91.064 41.512 90.296 41.744 90.024 41.792C89.752 41.84 89.528 41.784 89.352 41.624C89.224 41.48 89.16 41.376 89.16 41.312C89.16 41.232 89.232 41.112 89.376 40.952C89.6 40.728 89.904 40.56 90.288 40.448C90.544 40.4 90.696 40.328 90.744 40.232C90.808 40.136 90.84 39.904 90.84 39.536C90.84 38.976 90.88 38.656 90.96 38.576ZM94.896 42.344C96.112 42.184 96.864 42.104 97.152 42.104C97.456 42.088 97.664 42.152 97.776 42.296C97.904 42.456 97.96 43.224 97.944 44.6L97.92 46.64L97.392 46.784C97.072 46.864 96.872 46.8 96.792 46.592C96.712 46.384 96.656 45.784 96.624 44.792L96.576 43.448L95.664 43.496C95.024 43.512 94.424 43.632 93.864 43.856C92.984 44.16 92.48 44.144 92.352 43.808C92.272 43.616 92.376 43.352 92.664 43.016C92.76 42.888 92.88 42.792 93.024 42.728C93.184 42.664 93.4 42.608 93.672 42.56C93.96 42.496 94.368 42.424 94.896 42.344ZM104.196 31.76C104.644 31.552 105.188 31.48 105.828 31.544C106.484 31.592 107.02 31.76 107.436 32.048C107.932 32.368 108.332 32.872 108.636 33.56C108.94 34.248 109.092 34.952 109.092 35.672C109.092 36.184 109.06 36.552 108.996 36.776C108.932 37 108.772 37.264 108.516 37.568C108.132 38.032 107.612 38.368 106.956 38.576C106.3 38.784 105.588 38.84 104.82 38.744C104.372 38.68 104.036 38.6 103.812 38.504C103.588 38.408 103.356 38.232 103.116 37.976C102.316 37.144 101.916 36.224 101.916 35.216C101.916 34.464 102.116 33.784 102.516 33.176C102.916 32.552 103.476 32.08 104.196 31.76ZM106.524 32.84C106.156 32.68 105.836 32.624 105.564 32.672C105.308 32.72 104.94 32.904 104.46 33.224C103.836 33.656 103.428 34.104 103.236 34.568C103.124 34.888 103.068 35.128 103.068 35.288C103.084 35.448 103.188 35.72 103.38 36.104C103.668 36.696 103.98 37.088 104.316 37.28C104.652 37.472 105.132 37.544 105.756 37.496C106.156 37.448 106.46 37.384 106.668 37.304C106.892 37.208 107.132 37.048 107.388 36.824C107.644 36.568 107.812 36.36 107.892 36.2C107.972 36.024 108.012 35.784 108.012 35.48C107.98 35.016 107.804 34.496 107.484 33.92C107.164 33.344 106.844 32.984 106.524 32.84ZM111.396 32.528C111.46 32.368 111.644 32.272 111.948 32.24C112.268 32.208 112.476 32.256 112.572 32.384C112.636 32.528 112.604 33.424 112.476 35.072C112.348 36.72 112.34 37.96 112.452 38.792C112.532 39.368 112.556 39.728 112.524 39.872C112.508 40 112.388 40.136 112.164 40.28C111.78 40.536 111.54 40.528 111.444 40.256C111.316 39.936 111.252 38.68 111.252 36.488C111.284 34.056 111.332 32.736 111.396 32.528ZM105.924 41.144C106.068 40.984 106.3 40.92 106.62 40.952C106.86 40.984 106.996 41.064 107.028 41.192C107.06 41.304 107.068 41.696 107.052 42.368C107.004 43.28 107.044 43.736 107.172 43.736C107.348 43.736 108.212 43.64 109.764 43.448C110.74 43.304 111.396 43.232 111.732 43.232C112.068 43.232 112.26 43.28 112.308 43.376C112.516 43.712 112.484 43.96 112.212 44.12C111.956 44.296 111.38 44.472 110.484 44.648C107.652 45.096 106.156 45.184 105.996 44.912C105.868 44.72 105.796 44.08 105.78 42.992C105.764 41.904 105.812 41.288 105.924 41.144ZM116.655 31.616C116.623 31.088 116.623 30.776 116.655 30.68C116.703 30.584 116.847 30.536 117.087 30.536C117.759 30.536 118.007 31.248 117.831 32.672L117.711 33.752L118.527 33.728C119.151 33.712 119.623 33.664 119.943 33.584C120.135 33.536 120.327 33.52 120.519 33.536C120.711 33.536 120.879 33.568 121.023 33.632C121.167 33.68 121.287 33.76 121.383 33.872C121.495 33.984 121.567 34.104 121.599 34.232C121.647 34.552 121.567 34.76 121.359 34.856C121.167 34.952 120.863 34.944 120.447 34.832C120.015 34.72 119.551 34.728 119.055 34.856C118.559 35 117.935 35.104 117.183 35.168C116.383 35.264 115.807 35.392 115.455 35.552C115.119 35.728 114.751 35.816 114.351 35.816C114.127 35.816 113.975 35.792 113.895 35.744C113.831 35.68 113.799 35.552 113.799 35.36C113.799 35.056 113.903 34.84 114.111 34.712C114.319 34.568 114.767 34.432 115.455 34.304C116.047 34.176 116.391 34.072 116.487 33.992C116.599 33.912 116.663 33.704 116.679 33.368C116.679 32.6 116.671 32.016 116.655 31.616ZM126.351 33.968C126.399 33.808 126.599 33.752 126.951 33.8L127.455 33.848L127.407 35.24C127.359 36.12 127.279 37.224 127.167 38.552C127.023 39.816 126.999 40.856 127.095 41.672C127.143 42.264 127.151 42.632 127.119 42.776C127.103 42.904 126.983 43.016 126.759 43.112C126.455 43.256 126.231 43.28 126.087 43.184C125.959 43.088 125.879 42.4 125.847 41.12C125.815 40.032 125.735 39.392 125.607 39.2C125.495 38.992 125.183 39.008 124.671 39.248L124.095 39.56L124.191 41.12C124.255 41.776 124.271 42.216 124.239 42.44C124.223 42.664 124.151 42.824 124.023 42.92C123.639 43.224 123.311 43.224 123.039 42.92C122.895 42.712 122.855 41.392 122.919 38.96C122.967 37.136 123.039 35.936 123.135 35.36C123.231 34.784 123.415 34.496 123.687 34.496C123.959 34.496 124.143 34.648 124.239 34.952C124.335 35.24 124.375 35.728 124.359 36.416L124.287 37.808L124.839 37.856C125.191 37.888 125.447 37.856 125.607 37.76C125.783 37.664 125.911 37.472 125.991 37.184C126.071 36.896 126.135 36.44 126.183 35.816C126.247 34.712 126.303 34.096 126.351 33.968ZM117.111 36.536C117.495 36.312 117.847 36.208 118.167 36.224C118.503 36.224 118.919 36.36 119.415 36.632C120.599 37.224 121.223 38.104 121.287 39.272C121.319 39.704 121.303 40.032 121.239 40.256C121.191 40.464 121.023 40.776 120.735 41.192C120.303 41.848 119.903 42.296 119.535 42.536C119.167 42.76 118.711 42.864 118.167 42.848C116.903 42.8 115.983 42.352 115.407 41.504C114.847 40.64 114.815 39.648 115.311 38.528C115.519 38.016 115.759 37.616 116.031 37.328C116.303 37.024 116.663 36.76 117.111 36.536ZM119.175 37.712C118.807 37.568 118.495 37.512 118.239 37.544C117.999 37.576 117.711 37.712 117.375 37.952C117.007 38.192 116.719 38.544 116.511 39.008C116.303 39.472 116.247 39.88 116.343 40.232C116.407 40.536 116.527 40.8 116.703 41.024C116.879 41.232 117.087 41.392 117.327 41.504C117.567 41.616 117.831 41.672 118.119 41.672C118.423 41.672 118.655 41.632 118.815 41.552C118.975 41.472 119.175 41.288 119.415 41C119.815 40.536 120.047 40.112 120.111 39.728C120.191 39.36 120.127 38.96 119.919 38.528C119.711 38.096 119.463 37.824 119.175 37.712ZM139.214 31.424C140.766 31.248 141.75 31.16 142.166 31.16C142.582 31.144 142.846 31.208 142.958 31.352C143.07 31.496 143.07 31.68 142.958 31.904C142.862 32.112 142.574 32.544 142.094 33.2L141.47 34.016L141.902 34.352C142.19 34.576 142.382 34.688 142.478 34.688C142.558 34.688 142.854 34.848 143.366 35.168C143.862 35.52 144.11 35.832 144.11 36.104C144.11 36.744 143.494 36.688 142.262 35.936C141.99 35.76 141.798 35.64 141.686 35.576C141.574 35.512 141.43 35.44 141.254 35.36C141.078 35.28 140.958 35.232 140.894 35.216C140.846 35.184 140.75 35.176 140.606 35.192C140.462 35.208 140.366 35.232 140.318 35.264C140.286 35.296 140.198 35.368 140.054 35.48C139.926 35.576 139.822 35.672 139.742 35.768C139.662 35.848 139.534 35.992 139.358 36.2C138.942 36.648 138.63 36.952 138.422 37.112C138.214 37.272 138.03 37.336 137.87 37.304C137.358 37.224 137.254 36.936 137.558 36.44C137.798 36.072 138.318 35.488 139.118 34.688C140.558 33.248 141.134 32.496 140.846 32.432C140.814 32.416 140.782 32.408 140.75 32.408C140.638 32.408 139.87 32.544 138.446 32.816C137.534 32.976 136.926 33.064 136.622 33.08C136.334 33.096 136.134 33.048 136.022 32.936C135.846 32.76 135.798 32.568 135.878 32.36C135.974 32.136 136.158 31.976 136.43 31.88C136.654 31.784 137.582 31.632 139.214 31.424ZM143.198 38.912C143.55 38.72 143.87 38.656 144.158 38.72C144.462 38.784 144.67 38.968 144.782 39.272C144.878 39.512 144.894 39.704 144.83 39.848C144.766 39.976 144.622 40.072 144.398 40.136C144.19 40.184 143.886 40.192 143.486 40.16C142.798 40.144 142.406 40.216 142.31 40.376C142.198 40.552 142.142 41.36 142.142 42.8C142.142 43.872 142.118 44.504 142.07 44.696C142.038 44.888 141.91 45 141.686 45.032C141.382 45.08 141.182 45.016 141.086 44.84C140.958 44.632 140.918 43.88 140.966 42.584C140.982 41.24 140.966 40.528 140.918 40.448C140.87 40.4 140.334 40.44 139.31 40.568C138.014 40.728 137.214 40.8 136.91 40.784C136.606 40.768 136.438 40.64 136.406 40.4C136.39 40.304 136.422 40.184 136.502 40.04C136.582 39.896 136.67 39.776 136.766 39.68C136.974 39.504 137.342 39.384 137.87 39.32C138.414 39.256 139.534 39.216 141.23 39.2C142.254 39.168 142.91 39.072 143.198 38.912ZM149.337 33.704C149.513 33.48 149.689 33.368 149.865 33.368C150.393 33.368 150.393 33.88 149.865 34.904C149.833 34.968 149.801 35.024 149.769 35.072C149.369 35.792 149.169 36.28 149.169 36.536C149.169 36.728 149.577 37.336 150.393 38.36C151.769 39.992 152.025 40.776 151.161 40.712C151.145 40.712 151.129 40.704 151.113 40.688C150.777 40.656 150.273 40.192 149.601 39.296C148.913 38.416 148.513 37.96 148.401 37.928C148.305 37.896 148.145 38.112 147.921 38.576C147.713 39.04 147.569 39.504 147.489 39.968C147.425 40.256 147.353 40.44 147.273 40.52C147.209 40.6 147.065 40.64 146.841 40.64C146.329 40.64 146.065 40.488 146.049 40.184C146.033 39.864 146.257 39.248 146.721 38.336C148.001 35.792 148.873 34.248 149.337 33.704ZM155.025 33.656C155.169 33.48 155.297 33.392 155.409 33.392C155.521 33.392 155.681 33.488 155.889 33.68C156.081 33.872 156.137 34.08 156.057 34.304C155.945 34.528 155.857 35.872 155.793 38.336C155.761 40.096 155.721 41.168 155.673 41.552C155.641 41.92 155.537 42.152 155.361 42.248C155.009 42.44 154.777 42.36 154.665 42.008C154.585 41.688 154.537 40.928 154.521 39.728C154.489 38.192 154.401 37.408 154.257 37.376C154.113 37.328 153.737 37.4 153.129 37.592C151.833 38.024 151.121 37.992 150.993 37.496C150.929 37.24 150.929 37.032 150.993 36.872C151.041 36.728 151.361 36.584 151.953 36.44C152.545 36.28 153.161 36.176 153.801 36.128L154.545 36.104L154.665 35.024C154.761 34.272 154.881 33.816 155.025 33.656ZM158.217 33.704C158.217 33.624 158.297 33.576 158.457 33.56C158.617 33.544 158.785 33.568 158.961 33.632C159.137 33.68 159.265 33.752 159.345 33.848C159.505 34.04 159.545 34.336 159.465 34.736C159.401 35.12 159.361 36.488 159.345 38.84C159.329 39.784 159.305 40.512 159.273 41.024C159.257 41.52 159.217 41.928 159.153 42.248C159.089 42.568 159.009 42.776 158.913 42.872C158.817 42.952 158.673 42.992 158.481 42.992C158.273 42.992 158.145 42.688 158.097 42.08C158.049 41.472 158.057 40.104 158.121 37.976C158.121 37.672 158.121 37.36 158.121 37.04C158.137 36.72 158.145 36.424 158.145 36.152C158.161 35.88 158.169 35.616 158.169 35.36C158.185 35.104 158.193 34.88 158.193 34.688C158.209 34.496 158.217 34.328 158.217 34.184C158.217 34.04 158.217 33.928 158.217 33.848C158.217 33.752 158.217 33.704 158.217 33.704ZM163.049 30.68C163.625 30.472 164.177 30.408 164.705 30.488C165.249 30.552 165.753 30.768 166.217 31.136C166.697 31.504 167.089 32 167.393 32.624C167.697 33.216 167.841 33.768 167.825 34.28C167.825 34.792 167.665 35.36 167.345 35.984C167.089 36.496 166.785 36.88 166.433 37.136C166.081 37.376 165.633 37.536 165.089 37.616C164.177 37.744 163.313 37.568 162.497 37.088C161.681 36.608 161.161 35.992 160.937 35.24C160.617 34.216 160.649 33.304 161.033 32.504C161.417 31.704 162.089 31.096 163.049 30.68ZM164.993 31.664C164.833 31.664 164.657 31.632 164.465 31.568C164.177 31.472 163.721 31.648 163.097 32.096C162.473 32.544 162.097 32.976 161.969 33.392C161.921 33.552 161.913 33.744 161.945 33.968C161.977 34.176 162.033 34.392 162.113 34.616C162.193 34.824 162.297 35.032 162.425 35.24C162.569 35.448 162.721 35.624 162.881 35.768C163.489 36.312 164.105 36.56 164.729 36.512C165.353 36.464 165.849 36.136 166.217 35.528C166.809 34.568 166.713 33.568 165.929 32.528C165.465 31.952 165.153 31.664 164.993 31.664ZM166.001 39.128C166.129 38.824 166.289 38.672 166.481 38.672C166.689 38.656 166.865 38.808 167.009 39.128C167.137 39.432 167.121 39.96 166.961 40.712C166.801 41.432 166.769 41.872 166.865 42.032C166.945 42.176 167.425 42.248 168.305 42.248C168.913 42.248 169.289 42.272 169.433 42.32C169.593 42.352 169.713 42.464 169.793 42.656C169.905 42.992 169.865 43.224 169.673 43.352C169.497 43.48 169.097 43.536 168.473 43.52C167.977 43.504 167.361 43.536 166.625 43.616C165.905 43.68 165.393 43.752 165.089 43.832C164.945 43.88 164.577 43.952 163.985 44.048C163.409 44.16 162.841 44.264 162.281 44.36C161.721 44.456 161.385 44.504 161.273 44.504C161.081 44.504 160.937 44.376 160.841 44.12C160.745 43.864 160.769 43.648 160.913 43.472C161.041 43.312 161.353 43.192 161.849 43.112L162.545 43.016V41.48C162.561 40.632 162.625 40.096 162.737 39.872C162.849 39.632 163.089 39.56 163.457 39.656C163.681 39.72 163.809 39.824 163.841 39.968C163.889 40.096 163.905 40.496 163.889 41.168L163.841 42.512L164.777 42.584C165.369 42.616 165.665 42.584 165.665 42.488C165.665 42.056 165.681 41.6 165.713 41.12C165.761 40.64 165.809 40.224 165.857 39.872C165.921 39.52 165.969 39.272 166.001 39.128ZM172.834 31.952C172.914 31.872 173.034 31.84 173.194 31.856C173.354 31.872 173.49 31.936 173.602 32.048C173.682 32.128 173.73 32.232 173.746 32.36C173.762 32.472 173.762 32.744 173.746 33.176C173.714 33.784 173.642 34.456 173.53 35.192C173.418 35.928 173.314 36.384 173.218 36.56C173.138 36.72 173.106 36.976 173.122 37.328C173.154 37.664 173.226 37.992 173.338 38.312C173.45 38.648 173.49 38.912 173.458 39.104C173.426 39.296 173.314 39.488 173.122 39.68C172.946 39.856 172.77 39.952 172.594 39.968C172.434 39.968 172.306 39.896 172.21 39.752C172.114 39.608 172.058 39 172.042 37.928C172.026 36.84 172.066 36.184 172.162 35.96C172.226 35.8 172.29 35.504 172.354 35.072C172.45 34.464 172.514 34.056 172.546 33.848C172.61 33.368 172.658 32.976 172.69 32.672C172.722 32.288 172.77 32.048 172.834 31.952ZM171.562 43.184C171.754 43.072 171.986 43.088 172.258 43.232C172.562 43.392 172.714 43.672 172.714 44.072C172.714 44.456 172.562 44.72 172.258 44.864C171.97 45.024 171.666 45 171.346 44.792C171.138 44.68 171.034 44.512 171.034 44.288C171.034 44.128 171.09 43.92 171.202 43.664C171.33 43.408 171.45 43.248 171.562 43.184Z" fill="black"/>
<path d="M136.903 2.176C137.687 2.064 138.191 2.016 138.415 2.032C138.639 2.032 138.919 2.104 139.255 2.248C139.559 2.376 139.743 2.512 139.807 2.656C139.887 2.8 139.959 3.208 140.023 3.88C140.103 4.92 140.119 5.816 140.071 6.568C140.071 6.648 140.071 6.76 140.071 6.904C140.055 7.432 139.951 7.76 139.759 7.888C139.583 8 138.927 8.176 137.791 8.416C137.503 8.496 137.271 8.552 137.095 8.584C136.615 8.68 136.247 8.76 135.991 8.824C135.735 8.872 135.479 8.912 135.223 8.944C134.983 8.96 134.807 8.968 134.695 8.968C134.599 8.952 134.503 8.912 134.407 8.848C134.311 8.784 134.239 8.712 134.191 8.632C134.159 8.536 134.127 8.408 134.095 8.248C133.967 7.768 133.855 6.888 133.759 5.608C133.679 4.328 133.679 3.528 133.759 3.208C133.855 2.888 134.055 2.728 134.359 2.728C134.647 2.728 134.975 2.656 135.343 2.512C135.727 2.368 136.247 2.256 136.903 2.176ZM138.703 3.376L137.839 3.352C136.911 3.304 136.111 3.464 135.439 3.832C135.231 3.944 135.111 4.088 135.079 4.264C135.047 4.44 135.047 4.92 135.079 5.704L135.127 7.336L136.159 7.312C136.911 7.264 137.519 7.168 137.983 7.024L138.823 6.784L138.775 5.104L138.703 3.376ZM140.119 10.264C140.439 10.152 140.663 10.096 140.791 10.096C140.983 10.08 141.135 10.184 141.247 10.408C141.375 10.632 141.415 10.864 141.367 11.104C141.335 11.248 141.287 11.352 141.223 11.416C141.159 11.48 141.055 11.528 140.911 11.56C140.783 11.576 140.559 11.6 140.239 11.632L139.279 11.68V13.288V14.896H138.703H138.127L138.079 13.336C138.031 12.296 137.967 11.776 137.887 11.776C137.823 11.776 137.183 11.872 135.967 12.064C134.351 12.304 133.455 12.368 133.279 12.256C133.183 12.192 133.143 12.048 133.159 11.824C133.207 11.44 133.455 11.184 133.903 11.056C134.367 10.912 135.367 10.776 136.903 10.648C138.727 10.52 139.799 10.392 140.119 10.264ZM135.007 14.248C135.279 13.768 135.551 13.68 135.823 13.984C136.047 14.256 136.159 14.704 136.159 15.328V16.336L136.783 16.216C137.295 16.12 138.215 16.016 139.543 15.904C140.887 15.792 141.623 15.76 141.751 15.808C141.911 15.872 141.991 16.032 141.991 16.288C141.991 16.544 141.919 16.728 141.775 16.84C141.583 16.936 141.063 17.016 140.215 17.08C138.935 17.224 137.951 17.352 137.263 17.464C136.175 17.624 135.543 17.664 135.367 17.584C135.175 17.504 135.023 17 134.911 16.072C134.815 15.16 134.847 14.552 135.007 14.248ZM154.614 5.248C154.758 5.088 154.902 5.008 155.046 5.008C155.318 5.008 155.486 5.168 155.55 5.488C155.614 5.792 155.622 6.464 155.574 7.504L155.478 9.592L157.062 9.472C157.91 9.408 158.494 9.424 158.814 9.52C159.134 9.6 159.294 9.792 159.294 10.096C159.294 10.304 159.166 10.44 158.91 10.504C158.67 10.568 158.022 10.64 156.966 10.72C155.958 10.784 155.438 10.84 155.406 10.888C155.358 10.936 155.326 11.616 155.31 12.928C155.278 13.872 155.238 14.448 155.19 14.656C155.142 14.848 155.006 15 154.782 15.112C154.574 15.224 154.422 15.272 154.326 15.256C154.246 15.24 154.158 15.16 154.062 15.016C153.886 14.808 153.846 14.488 153.942 14.056C154.102 12.952 154.238 10.808 154.35 7.624C154.398 6.2 154.486 5.408 154.614 5.248ZM146.766 6.04C148.254 5.848 149.206 5.76 149.622 5.776C150.038 5.776 150.246 5.896 150.246 6.136C150.246 6.44 150.126 6.832 149.886 7.312C149.662 7.792 149.366 8.264 148.998 8.728C148.646 9.128 148.446 9.392 148.398 9.52C148.366 9.648 148.422 9.824 148.566 10.048C148.726 10.336 149.102 10.712 149.694 11.176C150.558 11.832 150.91 12.376 150.75 12.808C150.638 13.096 150.406 13.192 150.054 13.096C149.718 12.984 149.342 12.696 148.926 12.232C148.382 11.704 148.046 11.336 147.918 11.128C147.822 10.936 147.694 10.84 147.534 10.84C147.374 10.84 147.07 11.104 146.622 11.632C146.19 12.16 145.95 12.552 145.902 12.808C145.838 13.064 145.694 13.248 145.47 13.36C145.262 13.472 145.014 13.488 144.726 13.408C144.022 13.248 144.094 12.688 144.942 11.728C145.182 11.456 145.662 10.88 146.382 10C146.878 9.36 147.262 8.92 147.534 8.68C147.838 8.36 148.07 8.056 148.23 7.768C148.39 7.528 148.47 7.376 148.47 7.312C148.486 7.248 148.422 7.192 148.278 7.144C148.07 7.048 147.31 7.136 145.998 7.408C145.39 7.536 144.87 7.64 144.438 7.72C144.022 7.784 143.766 7.816 143.67 7.816C143.43 7.816 143.278 7.728 143.214 7.552C143.15 7.36 143.198 7.144 143.358 6.904C143.502 6.696 143.782 6.544 144.198 6.448C144.614 6.336 145.47 6.2 146.766 6.04Z" fill="#EB8888"/>
</svg>
