<svg width="100" height="101" viewBox="0 0 100 101" fill="none" xmlns="http://www.w3.org/2000/svg">
<path d="M0.5 50C0.5 22.5678 22.5678 0.5 50 0.5C77.4322 0.5 99.5 22.5678 99.5 50C99.5 77.4322 77.4322 99.5 50 99.5C22.5678 99.5 0.5 77.4322 0.5 50Z" fill="#ECECEC" stroke="#F1ECEC"/>
<path d="M66.1666 38.5417C66.1666 47.4703 58.9286 54.7083 50 54.7083C41.0714 54.7083 33.8333 47.4703 33.8333 38.5417C33.8333 29.6131 41.0714 22.375 50 22.375C58.9286 22.375 66.1666 29.6131 66.1666 38.5417Z" fill="white" fill-opacity="0.75" stroke="#F1ECEC"/>
<path d="M18.3277 76.9526L18.3281 76.9521C24.2271 68.4086 36.3025 64.668 50 64.668C63.8985 64.668 75.7624 68.4048 81.6644 76.9413C83.2471 79.5165 84.2512 82.2813 84.6787 85.2396C75.8227 94.0063 63.5218 99.5013 50 99.5013C36.4709 99.5013 24.1641 94.0005 15.3071 85.2256C15.5432 82.2805 16.5468 79.525 18.3277 76.9526Z" fill="#C8C8C8" fill-opacity="0.75" stroke="#F1ECEC"/>
<circle cx="81" cy="80" r="14.5" fill="#EB8888" stroke="#F1ECEC"/>
<rect x="79.3333" y="73" width="3.33333" height="14" rx="1.66667" fill="white"/>
<rect x="74" y="81.666" width="3.33333" height="14" rx="1.66667" transform="rotate(-90 74 81.666)" fill="white"/>
</svg>
