<svg width="334" height="85" viewBox="0 0 334 85" fill="none" xmlns="http://www.w3.org/2000/svg">
<rect x="0.5" y="0.5" width="333" height="84" rx="9.5" fill="white" stroke="#F1ECEC"/>
<rect x="50.1377" y="26" width="228.367" height="6" fill="#D9D9D9"/>
<ellipse cx="48.6295" cy="29.5" rx="9.55723" ry="9.5" fill="#FFA8A8"/>
<ellipse cx="48.7636" cy="29.3658" rx="5.11514" ry="5.08451" fill="white"/>
<ellipse cx="166.334" cy="29.5" rx="9.55723" ry="9.5" fill="#FFA8A8"/>
<ellipse cx="166.468" cy="29.3658" rx="5.11514" ry="5.08451" fill="white"/>
<ellipse cx="284.039" cy="29.5" rx="9.55723" ry="9.5" fill="#FFA8A8"/>
<ellipse cx="284.173" cy="29.3658" rx="5.11514" ry="5.08451" fill="white"/>
<path d="M270.755 53.5312H269.864V57.668H268.411V53.7539H267.532V63.4219H268.411V58.4297H269.864V63.9492H270.755V53.5312ZM262.212 61.1484H266.196V54.75H262.212V61.1484ZM263.079 60.4102V55.4883H265.329V60.4102H263.079ZM275.981 55.7109V55.5703H278.372V54.832H275.993V53.5312H275.067V54.832H272.665V55.5703H275.067V55.7109C275.067 57.1406 273.954 58.418 272.407 58.9102L272.864 59.6367C274.118 59.2207 275.091 58.3242 275.548 57.1758C276.022 58.2129 277.013 59.0098 278.243 59.3672L278.677 58.6523C277.118 58.2012 275.976 57.0352 275.981 55.7109ZM273.802 62.0273C273.796 63.2402 275.12 63.9258 277.317 63.9258C279.497 63.9258 280.821 63.2402 280.833 62.0273C280.821 60.8379 279.497 60.1406 277.317 60.1523C275.12 60.1406 273.796 60.8379 273.802 62.0273ZM274.728 62.0273C274.728 61.3184 275.694 60.8789 277.317 60.8789C278.935 60.8789 279.919 61.3184 279.919 62.0273C279.919 62.7656 278.935 63.1992 277.317 63.1992C275.694 63.1992 274.728 62.7656 274.728 62.0273ZM279.884 59.9297H280.798V53.543H279.884V59.9297ZM288.755 54.0234C287.231 54.0234 286.171 54.8438 286.177 56.0859C286.171 57.1816 287.032 57.9609 288.321 58.1016V59.1562C287.325 59.1914 286.376 59.1973 285.567 59.1914L285.685 59.9531C287.483 59.959 289.979 59.9238 292.188 59.5312L292.118 58.8398C291.21 58.9746 290.22 59.0625 289.247 59.1152V58.0957C290.501 57.9375 291.339 57.1641 291.345 56.0859C291.339 54.8438 290.278 54.0234 288.755 54.0234ZM287.044 56.0859C287.032 55.2773 287.741 54.7383 288.755 54.7383C289.774 54.7383 290.472 55.2773 290.478 56.0859C290.472 56.877 289.774 57.416 288.755 57.4219C287.741 57.416 287.032 56.877 287.044 56.0859ZM287.091 63.7148H294.087V62.9414H288.017V60.8203H287.091V63.7148ZM292.786 61.5117H293.712V57.8555H295.271V57.0703H293.712V53.543H292.786V61.5117ZM305.489 61.8867H302.899V59.9062H304.528V59.1445H298.06V57.457H304.282V54.3047H297.122V55.0664H303.38V56.6953H297.146V59.9062H298.634V61.8867H295.95V62.6602H305.489V61.8867ZM299.536 61.8867V59.9062H301.997V61.8867H299.536Z" fill="#777777"/>
<path d="M141.902 55.2188V54.0703H141V55.1484C140.994 56.7598 139.945 58.1543 138.387 58.7344L138.879 59.4727C140.098 58.998 141.029 58.043 141.475 56.8066C141.932 57.8965 142.84 58.7578 143.988 59.1797L144.492 58.4531C142.98 57.9375 141.902 56.6367 141.902 55.2188ZM139.77 62.0273C139.775 63.2402 141.082 63.9258 143.227 63.9258C145.365 63.9258 146.66 63.2402 146.66 62.0273C146.66 60.8379 145.365 60.1406 143.227 60.1406C141.082 60.1406 139.775 60.8379 139.77 62.0273ZM140.695 62.0273C140.684 61.3184 141.656 60.8789 143.227 60.8789C144.803 60.8789 145.764 61.3184 145.77 62.0273C145.764 62.7656 144.803 63.1934 143.227 63.1992C141.656 63.1934 140.684 62.7656 140.695 62.0273ZM145.652 59.8711H146.566V57.0234H148.137V56.25H146.566V53.5312H145.652V59.8711ZM157.699 53.5312H156.82V57.7266H155.285V53.7656H154.441V63.4102H155.285V58.4883H156.82V63.9492H157.699V53.5312ZM149.18 61.3711H149.848C151.447 61.3652 152.508 61.3242 153.762 61.0664L153.68 60.293C152.52 60.5273 151.529 60.5801 150.094 60.5859V55.5703H153.082V54.8086H149.18V61.3711ZM164.766 54.1758H159.773V59.1094H160.617C162.92 59.1152 164.197 59.0801 165.715 58.8164L165.621 58.0664C164.156 58.3184 162.914 58.3652 160.699 58.3594V56.9766H164.473V56.2383H160.699V54.9375H164.766V54.1758ZM160.992 63.8086H167.766V60.2695H160.992V63.8086ZM161.895 63.0586V61.0078H166.863V63.0586H161.895ZM166.852 59.7539H167.766V53.543H166.852V59.7539ZM180.68 53.543H179.754V60.5273H180.68V57.4688H182.238V56.6953H180.68V53.543ZM172.5 59.4609L172.605 60.2109C174.439 60.2168 176.93 60.1992 179.191 59.8008L179.109 59.1328C178.195 59.2676 177.211 59.3496 176.238 59.3965V58.6641C177.445 58.5469 178.207 57.9902 178.219 57.1289C178.207 56.1797 177.246 55.5938 175.77 55.5938C174.305 55.5938 173.326 56.1797 173.332 57.1289C173.326 57.9961 174.111 58.5527 175.324 58.6641V59.4316C174.305 59.4609 173.332 59.4609 172.5 59.4609ZM172.758 55.1953H178.793V54.4922H176.238V53.4492H175.324V54.4922H172.758V55.1953ZM173.777 61.7812H179.754V63.9492H180.68V61.043H173.777V61.7812ZM174.211 57.1289C174.205 56.5781 174.809 56.2383 175.77 56.25C176.73 56.2383 177.34 56.5781 177.34 57.1289C177.34 57.6738 176.73 58.043 175.77 58.0312C174.809 58.043 174.205 57.6738 174.211 57.1289ZM191.52 53.543H190.605V61.1602H191.52V53.543ZM183.164 56.8242C183.158 58.3418 184.336 59.3965 185.895 59.3906C187.453 59.3965 188.619 58.3418 188.625 56.8242C188.619 55.3242 187.453 54.2754 185.895 54.2695C184.336 54.2754 183.158 55.3242 183.164 56.8242ZM184.066 56.8242C184.055 55.8047 184.84 55.0781 185.895 55.0781C186.932 55.0781 187.723 55.8047 187.723 56.8242C187.723 57.8613 186.932 58.582 185.895 58.582C184.84 58.582 184.055 57.8613 184.066 56.8242ZM184.793 63.7266H191.848V62.9531H185.707V60.3867H184.793V63.7266Z" fill="#FFA8A8"/>
<path d="M36.0234 53.543H35.1094V61.1836H36.0234V53.543ZM27.5273 58.957L28.0312 59.6719C29.25 59.1855 30.1992 58.1602 30.6504 56.8828C31.1133 58.084 32.0508 59.0215 33.2578 59.4844L33.7383 58.7461C32.1855 58.1836 31.1016 56.7598 31.1133 55.1719V54.1289H30.1758V55.1719C30.1758 56.8184 29.1035 58.3418 27.5273 58.957ZM29.2969 63.7266H36.3516V62.9531H30.2109V60.4805H29.2969V63.7266ZM41.3438 55.7695V55.5469H43.6992V54.8086H41.3672V53.4844H40.4414V54.8086H38.0859V55.5469H40.4414V55.7695C40.4355 57.1816 39.3574 58.4531 37.8281 58.9688L38.2734 59.6719C39.5156 59.2617 40.4707 58.3652 40.916 57.2285C41.3906 58.2539 42.3516 59.0391 43.5586 59.4023L44.0039 58.6875C42.4688 58.2363 41.3496 57.0645 41.3438 55.7695ZM39.4805 62.0273C39.4746 63.2344 40.8047 63.9258 42.9727 63.9258C45.1348 63.9258 46.4648 63.2344 46.4648 62.0273C46.4648 60.8145 45.1348 60.123 42.9727 60.1289C40.8047 60.123 39.4746 60.8145 39.4805 62.0273ZM40.3945 62.0273C40.3887 61.2832 41.373 60.8555 42.9727 60.8438C44.5723 60.8555 45.5508 61.2832 45.5508 62.0273C45.5508 62.7539 44.5723 63.1992 42.9727 63.1992C41.373 63.1992 40.3887 62.7539 40.3945 62.0273ZM43.3711 57.2812H45.5039V59.8477H46.4297V53.5312H45.5039V56.5195H43.3711V57.2812ZM54.3516 54.0234C52.8281 54.0234 51.7676 54.8438 51.7734 56.0859C51.7676 57.1816 52.6289 57.9609 53.918 58.1016V59.1562C52.9219 59.1914 51.9727 59.1973 51.1641 59.1914L51.2812 59.9531C53.0801 59.959 55.5762 59.9238 57.7852 59.5312L57.7148 58.8398C56.8066 58.9746 55.8164 59.0625 54.8438 59.1152V58.0957C56.0977 57.9375 56.9355 57.1641 56.9414 56.0859C56.9355 54.8438 55.875 54.0234 54.3516 54.0234ZM52.6406 56.0859C52.6289 55.2773 53.3379 54.7383 54.3516 54.7383C55.3711 54.7383 56.0684 55.2773 56.0742 56.0859C56.0684 56.877 55.3711 57.416 54.3516 57.4219C53.3379 57.416 52.6289 56.877 52.6406 56.0859ZM52.6875 63.7148H59.6836V62.9414H53.6133V60.8203H52.6875V63.7148ZM58.3828 61.5117H59.3086V57.8555H60.8672V57.0703H59.3086V53.543H58.3828V61.5117ZM71.0859 61.8867H68.4961V59.9062H70.125V59.1445H63.6562V57.457H69.8789V54.3047H62.7188V55.0664H68.9766V56.6953H62.7422V59.9062H64.2305V61.8867H61.5469V62.6602H71.0859V61.8867ZM65.1328 61.8867V59.9062H67.5938V61.8867H65.1328Z" fill="#FFA8A8"/>
<rect x="57" y="26" width="102" height="6" fill="#FFA8A8"/>
<rect x="173" y="26" width="102" height="6" fill="#FFA8A8"/>
<path d="M256 59.4545C256 53.1284 261.128 48 267.455 48H300.545C306.872 48 312 53.1284 312 59.4545C312 65.7807 306.872 70.9091 300.545 70.9091H267.455C261.128 70.9091 256 65.7807 256 59.4545Z" fill="#FFA8A8"/>
<path d="M271.352 53.5312H270.461V57.668H269.008V53.7539H268.129V63.4219H269.008V58.4297H270.461V63.9492H271.352V53.5312ZM262.809 61.1484H266.793V54.75H262.809V61.1484ZM263.676 60.4102V55.4883H265.926V60.4102H263.676ZM276.578 55.7109V55.5703H278.969V54.832H276.59V53.5312H275.664V54.832H273.262V55.5703H275.664V55.7109C275.664 57.1406 274.551 58.418 273.004 58.9102L273.461 59.6367C274.715 59.2207 275.688 58.3242 276.145 57.1758C276.619 58.2129 277.609 59.0098 278.84 59.3672L279.273 58.6523C277.715 58.2012 276.572 57.0352 276.578 55.7109ZM274.398 62.0273C274.393 63.2402 275.717 63.9258 277.914 63.9258C280.094 63.9258 281.418 63.2402 281.43 62.0273C281.418 60.8379 280.094 60.1406 277.914 60.1523C275.717 60.1406 274.393 60.8379 274.398 62.0273ZM275.324 62.0273C275.324 61.3184 276.291 60.8789 277.914 60.8789C279.531 60.8789 280.516 61.3184 280.516 62.0273C280.516 62.7656 279.531 63.1992 277.914 63.1992C276.291 63.1992 275.324 62.7656 275.324 62.0273ZM280.48 59.9297H281.395V53.543H280.48V59.9297ZM289.352 54.0234C287.828 54.0234 286.768 54.8438 286.773 56.0859C286.768 57.1816 287.629 57.9609 288.918 58.1016V59.1562C287.922 59.1914 286.973 59.1973 286.164 59.1914L286.281 59.9531C288.08 59.959 290.576 59.9238 292.785 59.5312L292.715 58.8398C291.807 58.9746 290.816 59.0625 289.844 59.1152V58.0957C291.098 57.9375 291.936 57.1641 291.941 56.0859C291.936 54.8438 290.875 54.0234 289.352 54.0234ZM287.641 56.0859C287.629 55.2773 288.338 54.7383 289.352 54.7383C290.371 54.7383 291.068 55.2773 291.074 56.0859C291.068 56.877 290.371 57.416 289.352 57.4219C288.338 57.416 287.629 56.877 287.641 56.0859ZM287.688 63.7148H294.684V62.9414H288.613V60.8203H287.688V63.7148ZM293.383 61.5117H294.309V57.8555H295.867V57.0703H294.309V53.543H293.383V61.5117ZM306.086 61.8867H303.496V59.9062H305.125V59.1445H298.656V57.457H304.879V54.3047H297.719V55.0664H303.977V56.6953H297.742V59.9062H299.23V61.8867H296.547V62.6602H306.086V61.8867ZM300.133 61.8867V59.9062H302.594V61.8867H300.133Z" fill="white"/>
</svg>
