<svg width="334" height="85" viewBox="0 0 334 85" fill="none" xmlns="http://www.w3.org/2000/svg">
<rect x="0.5" y="0.5" width="333" height="84" rx="9.5" fill="white" stroke="#F1ECEC"/>
<rect x="50.1377" y="26" width="228.367" height="6" fill="#D9D9D9"/>
<ellipse cx="48.6295" cy="29.5" rx="9.55723" ry="9.5" fill="#D9D9D9"/>
<ellipse cx="48.7636" cy="29.3658" rx="5.11514" ry="5.08451" fill="white"/>
<ellipse cx="166.334" cy="29.5" rx="9.55723" ry="9.5" fill="#D9D9D9"/>
<ellipse cx="166.468" cy="29.3658" rx="5.11514" ry="5.08451" fill="white"/>
<ellipse cx="284.039" cy="29.5" rx="9.55723" ry="9.5" fill="#D9D9D9"/>
<ellipse cx="284.173" cy="29.3658" rx="5.11514" ry="5.08451" fill="white"/>
<path d="M270.755 53.5312H269.864V57.668H268.411V53.7539H267.532V63.4219H268.411V58.4297H269.864V63.9492H270.755V53.5312ZM262.212 61.1484H266.196V54.75H262.212V61.1484ZM263.079 60.4102V55.4883H265.329V60.4102H263.079ZM275.981 55.7109V55.5703H278.372V54.832H275.993V53.5312H275.067V54.832H272.665V55.5703H275.067V55.7109C275.067 57.1406 273.954 58.418 272.407 58.9102L272.864 59.6367C274.118 59.2207 275.091 58.3242 275.548 57.1758C276.022 58.2129 277.013 59.0098 278.243 59.3672L278.677 58.6523C277.118 58.2012 275.976 57.0352 275.981 55.7109ZM273.802 62.0273C273.796 63.2402 275.12 63.9258 277.317 63.9258C279.497 63.9258 280.821 63.2402 280.833 62.0273C280.821 60.8379 279.497 60.1406 277.317 60.1523C275.12 60.1406 273.796 60.8379 273.802 62.0273ZM274.728 62.0273C274.728 61.3184 275.694 60.8789 277.317 60.8789C278.935 60.8789 279.919 61.3184 279.919 62.0273C279.919 62.7656 278.935 63.1992 277.317 63.1992C275.694 63.1992 274.728 62.7656 274.728 62.0273ZM279.884 59.9297H280.798V53.543H279.884V59.9297ZM288.755 54.0234C287.231 54.0234 286.171 54.8438 286.177 56.0859C286.171 57.1816 287.032 57.9609 288.321 58.1016V59.1562C287.325 59.1914 286.376 59.1973 285.567 59.1914L285.685 59.9531C287.483 59.959 289.979 59.9238 292.188 59.5312L292.118 58.8398C291.21 58.9746 290.22 59.0625 289.247 59.1152V58.0957C290.501 57.9375 291.339 57.1641 291.345 56.0859C291.339 54.8438 290.278 54.0234 288.755 54.0234ZM287.044 56.0859C287.032 55.2773 287.741 54.7383 288.755 54.7383C289.774 54.7383 290.472 55.2773 290.478 56.0859C290.472 56.877 289.774 57.416 288.755 57.4219C287.741 57.416 287.032 56.877 287.044 56.0859ZM287.091 63.7148H294.087V62.9414H288.017V60.8203H287.091V63.7148ZM292.786 61.5117H293.712V57.8555H295.271V57.0703H293.712V53.543H292.786V61.5117ZM305.489 61.8867H302.899V59.9062H304.528V59.1445H298.06V57.457H304.282V54.3047H297.122V55.0664H303.38V56.6953H297.146V59.9062H298.634V61.8867H295.95V62.6602H305.489V61.8867ZM299.536 61.8867V59.9062H301.997V61.8867H299.536Z" fill="#777777"/>
<path d="M142.57 55.2188V54.0703H141.668V55.1484C141.662 56.7598 140.613 58.1543 139.055 58.7344L139.547 59.4727C140.766 58.998 141.697 58.043 142.143 56.8066C142.6 57.8965 143.508 58.7578 144.656 59.1797L145.16 58.4531C143.648 57.9375 142.57 56.6367 142.57 55.2188ZM140.438 62.0273C140.443 63.2402 141.75 63.9258 143.895 63.9258C146.033 63.9258 147.328 63.2402 147.328 62.0273C147.328 60.8379 146.033 60.1406 143.895 60.1406C141.75 60.1406 140.443 60.8379 140.438 62.0273ZM141.363 62.0273C141.352 61.3184 142.324 60.8789 143.895 60.8789C145.471 60.8789 146.432 61.3184 146.438 62.0273C146.432 62.7656 145.471 63.1934 143.895 63.1992C142.324 63.1934 141.352 62.7656 141.363 62.0273ZM146.32 59.8711H147.234V57.0234H148.805V56.25H147.234V53.5312H146.32V59.8711ZM158.367 53.5312H157.488V57.7266H155.953V53.7656H155.109V63.4102H155.953V58.4883H157.488V63.9492H158.367V53.5312ZM149.848 61.3711H150.516C152.115 61.3652 153.176 61.3242 154.43 61.0664L154.348 60.293C153.188 60.5273 152.197 60.5801 150.762 60.5859V55.5703H153.75V54.8086H149.848V61.3711ZM165.434 54.1758H160.441V59.1094H161.285C163.588 59.1152 164.865 59.0801 166.383 58.8164L166.289 58.0664C164.824 58.3184 163.582 58.3652 161.367 58.3594V56.9766H165.141V56.2383H161.367V54.9375H165.434V54.1758ZM161.66 63.8086H168.434V60.2695H161.66V63.8086ZM162.562 63.0586V61.0078H167.531V63.0586H162.562ZM167.52 59.7539H168.434V53.543H167.52V59.7539ZM181.348 53.543H180.422V60.5273H181.348V57.4688H182.906V56.6953H181.348V53.543ZM173.168 59.4609L173.273 60.2109C175.107 60.2168 177.598 60.1992 179.859 59.8008L179.777 59.1328C178.863 59.2676 177.879 59.3496 176.906 59.3965V58.6641C178.113 58.5469 178.875 57.9902 178.887 57.1289C178.875 56.1797 177.914 55.5938 176.438 55.5938C174.973 55.5938 173.994 56.1797 174 57.1289C173.994 57.9961 174.779 58.5527 175.992 58.6641V59.4316C174.973 59.4609 174 59.4609 173.168 59.4609ZM173.426 55.1953H179.461V54.4922H176.906V53.4492H175.992V54.4922H173.426V55.1953ZM174.445 61.7812H180.422V63.9492H181.348V61.043H174.445V61.7812ZM174.879 57.1289C174.873 56.5781 175.477 56.2383 176.438 56.25C177.398 56.2383 178.008 56.5781 178.008 57.1289C178.008 57.6738 177.398 58.043 176.438 58.0312C175.477 58.043 174.873 57.6738 174.879 57.1289ZM192.188 53.543H191.273V61.1602H192.188V53.543ZM183.832 56.8242C183.826 58.3418 185.004 59.3965 186.562 59.3906C188.121 59.3965 189.287 58.3418 189.293 56.8242C189.287 55.3242 188.121 54.2754 186.562 54.2695C185.004 54.2754 183.826 55.3242 183.832 56.8242ZM184.734 56.8242C184.723 55.8047 185.508 55.0781 186.562 55.0781C187.6 55.0781 188.391 55.8047 188.391 56.8242C188.391 57.8613 187.6 58.582 186.562 58.582C185.508 58.582 184.723 57.8613 184.734 56.8242ZM185.461 63.7266H192.516V62.9531H186.375V60.3867H185.461V63.7266Z" fill="#777777"/>
<path d="M36.0234 53.543H35.1094V61.1836H36.0234V53.543ZM27.5273 58.957L28.0312 59.6719C29.25 59.1855 30.1992 58.1602 30.6504 56.8828C31.1133 58.084 32.0508 59.0215 33.2578 59.4844L33.7383 58.7461C32.1855 58.1836 31.1016 56.7598 31.1133 55.1719V54.1289H30.1758V55.1719C30.1758 56.8184 29.1035 58.3418 27.5273 58.957ZM29.2969 63.7266H36.3516V62.9531H30.2109V60.4805H29.2969V63.7266ZM41.3438 55.7695V55.5469H43.6992V54.8086H41.3672V53.4844H40.4414V54.8086H38.0859V55.5469H40.4414V55.7695C40.4355 57.1816 39.3574 58.4531 37.8281 58.9688L38.2734 59.6719C39.5156 59.2617 40.4707 58.3652 40.916 57.2285C41.3906 58.2539 42.3516 59.0391 43.5586 59.4023L44.0039 58.6875C42.4688 58.2363 41.3496 57.0645 41.3438 55.7695ZM39.4805 62.0273C39.4746 63.2344 40.8047 63.9258 42.9727 63.9258C45.1348 63.9258 46.4648 63.2344 46.4648 62.0273C46.4648 60.8145 45.1348 60.123 42.9727 60.1289C40.8047 60.123 39.4746 60.8145 39.4805 62.0273ZM40.3945 62.0273C40.3887 61.2832 41.373 60.8555 42.9727 60.8438C44.5723 60.8555 45.5508 61.2832 45.5508 62.0273C45.5508 62.7539 44.5723 63.1992 42.9727 63.1992C41.373 63.1992 40.3887 62.7539 40.3945 62.0273ZM43.3711 57.2812H45.5039V59.8477H46.4297V53.5312H45.5039V56.5195H43.3711V57.2812ZM54.3516 54.0234C52.8281 54.0234 51.7676 54.8438 51.7734 56.0859C51.7676 57.1816 52.6289 57.9609 53.918 58.1016V59.1562C52.9219 59.1914 51.9727 59.1973 51.1641 59.1914L51.2812 59.9531C53.0801 59.959 55.5762 59.9238 57.7852 59.5312L57.7148 58.8398C56.8066 58.9746 55.8164 59.0625 54.8438 59.1152V58.0957C56.0977 57.9375 56.9355 57.1641 56.9414 56.0859C56.9355 54.8438 55.875 54.0234 54.3516 54.0234ZM52.6406 56.0859C52.6289 55.2773 53.3379 54.7383 54.3516 54.7383C55.3711 54.7383 56.0684 55.2773 56.0742 56.0859C56.0684 56.877 55.3711 57.416 54.3516 57.4219C53.3379 57.416 52.6289 56.877 52.6406 56.0859ZM52.6875 63.7148H59.6836V62.9414H53.6133V60.8203H52.6875V63.7148ZM58.3828 61.5117H59.3086V57.8555H60.8672V57.0703H59.3086V53.543H58.3828V61.5117ZM71.0859 61.8867H68.4961V59.9062H70.125V59.1445H63.6562V57.457H69.8789V54.3047H62.7188V55.0664H68.9766V56.6953H62.7422V59.9062H64.2305V61.8867H61.5469V62.6602H71.0859V61.8867ZM65.1328 61.8867V59.9062H67.5938V61.8867H65.1328Z" fill="#777777"/>
</svg>
