<svg width="60" height="63" viewBox="0 0 60 63" fill="none" xmlns="http://www.w3.org/2000/svg">
<path d="M19.523 48.78C19.6696 48.62 19.7896 48.54 19.883 48.54C19.9763 48.5267 20.083 48.5933 20.203 48.74C20.323 48.8733 20.3296 49.5067 20.223 50.64C20.143 51.7867 20.143 52.4133 20.223 52.52C20.3296 52.6133 20.823 52.5933 21.703 52.46C22.4363 52.3533 22.903 52.3333 23.103 52.4C23.303 52.4533 23.3763 52.6333 23.323 52.94C23.2963 53.1267 23.163 53.26 22.923 53.34C22.683 53.4067 22.0296 53.5 20.963 53.62L20.063 53.72V55.44C20.063 56.2267 20.043 56.72 20.003 56.92C19.963 57.1067 19.863 57.24 19.703 57.32C19.4096 57.48 19.223 57.4267 19.143 57.16C19.063 56.88 19.0296 56.18 19.043 55.06C19.0963 51.1933 19.2563 49.1 19.523 48.78ZM15.103 48.98C15.183 48.98 15.263 49.0067 15.343 49.06C15.423 49.1 15.4896 49.1533 15.543 49.22C15.6096 49.2733 15.643 49.32 15.643 49.36C15.643 49.4933 15.4363 49.8533 15.023 50.44C14.5963 51.0133 14.383 51.3667 14.383 51.5C14.383 51.62 14.783 52.06 15.583 52.82C16.5296 53.74 16.883 54.2933 16.643 54.48C16.563 54.5467 16.443 54.5867 16.283 54.6C16.123 54.6267 15.9496 54.5733 15.763 54.44C15.5763 54.3067 15.2896 54.0267 14.903 53.6C14.4896 53.16 14.203 52.8933 14.043 52.8C13.8963 52.6933 13.783 52.6867 13.703 52.78C13.583 52.9133 13.403 53.2533 13.163 53.8C12.923 54.3467 12.803 54.7067 12.803 54.88C12.803 55.0533 12.723 55.1667 12.563 55.22C12.4163 55.26 12.243 55.2267 12.043 55.12C11.7896 54.9867 11.6963 54.7733 11.763 54.48C11.8296 54.1867 12.103 53.6 12.583 52.72C13.1563 51.6667 13.443 51.1133 13.443 51.06C13.443 51.02 13.5096 50.9067 13.643 50.72C13.7763 50.5333 13.9296 50.3267 14.103 50.1C14.2896 49.86 14.4563 49.66 14.603 49.5L15.103 48.98ZM26.8811 45.96C26.9344 45.7733 27.0278 45.68 27.1611 45.68C27.2944 45.68 27.4011 45.7333 27.4811 45.84C27.5611 45.9333 27.6211 46.0867 27.6611 46.3C27.7011 46.5133 27.7211 46.7933 27.7211 47.14C27.7211 47.66 27.7344 47.9667 27.7611 48.06C27.8011 48.1533 27.9078 48.1733 28.0811 48.12C28.2811 48.0533 28.6878 47.9867 29.3011 47.92C29.6611 47.8933 29.9144 47.8933 30.0611 47.92C30.2211 47.9333 30.3544 48 30.4611 48.12C30.8344 48.5067 30.7811 48.7667 30.3011 48.9C30.1011 48.94 29.8144 48.9733 29.4411 49C28.6544 49.0667 28.1078 49.1533 27.8011 49.26C27.4944 49.3667 26.8478 49.54 25.8611 49.78C25.0878 49.9667 24.5944 50.04 24.3811 50C24.1678 49.96 24.0878 49.78 24.1411 49.46C24.1678 49.26 24.3678 49.08 24.7411 48.92C25.1144 48.76 25.5078 48.68 25.9211 48.68C26.2544 48.68 26.4744 48.5933 26.5811 48.42C26.6878 48.2333 26.7478 47.8467 26.7611 47.26C26.7878 46.5667 26.8278 46.1333 26.8811 45.96ZM26.5011 50.32C26.9278 50.08 27.3544 49.9533 27.7811 49.94C28.2211 49.9267 28.5878 50.0333 28.8811 50.26C29.1344 50.4467 29.3678 50.7467 29.5811 51.16C29.8078 51.5733 29.9344 51.9333 29.9611 52.24C30.0011 52.9867 29.7144 53.6533 29.1011 54.24C28.5011 54.8267 27.7878 55.12 26.9611 55.12C26.5078 55.12 26.0478 54.96 25.5811 54.64C25.1278 54.32 24.8478 53.9667 24.7411 53.58C24.6211 53.14 24.5744 52.8133 24.6011 52.6C24.6278 52.3733 24.7611 52.08 25.0011 51.72C25.2811 51.3067 25.4944 51.0267 25.6411 50.88C25.8011 50.7333 26.0878 50.5467 26.5011 50.32ZM28.1411 50.86C28.0744 50.8467 27.9944 50.8267 27.9011 50.8C27.8211 50.76 27.7544 50.7333 27.7011 50.72C27.6611 50.7067 27.6411 50.7 27.6411 50.7C27.5744 50.7 27.3211 50.8867 26.8811 51.26C26.4411 51.62 26.1544 51.8867 26.0211 52.06C25.8478 52.2733 25.7344 52.5267 25.6811 52.82C25.6411 53.1 25.6811 53.32 25.8011 53.48C25.8678 53.5867 25.9744 53.6933 26.1211 53.8C26.2811 53.9067 26.4478 53.9933 26.6211 54.06C26.8078 54.1267 26.9678 54.16 27.1011 54.16C27.3544 54.16 27.6744 54.0267 28.0611 53.76C28.4611 53.4933 28.7344 53.22 28.8811 52.94C29.0678 52.5667 29.0811 52.16 28.9211 51.72C28.7744 51.28 28.5144 50.9933 28.1411 50.86ZM32.1211 51.7C32.3344 51.46 32.5878 51.44 32.8811 51.64C32.9744 51.6933 33.0211 51.8 33.0211 51.96C33.0344 52.12 32.9944 52.4467 32.9011 52.94C32.7678 53.7133 32.7011 54.7933 32.7011 56.18C32.7011 57.0867 32.6811 57.6733 32.6411 57.94C32.6144 58.1933 32.5478 58.3533 32.4411 58.42C32.0544 58.62 31.8211 58.3867 31.7411 57.72C31.6611 57.12 31.6744 56 31.7811 54.36C31.9011 52.7467 32.0144 51.86 32.1211 51.7ZM26.9611 55.88C27.0811 55.64 27.2211 55.56 27.3811 55.64C27.5544 55.7067 27.6678 55.9 27.7211 56.22L27.8011 56.76L28.9211 56.72C29.6011 56.6933 30.0678 56.7133 30.3211 56.78C30.5744 56.8333 30.7011 56.96 30.7011 57.16C30.7011 57.36 30.5878 57.5067 30.3611 57.6C30.1478 57.6933 29.7344 57.7733 29.1211 57.84C28.1878 57.9467 27.5544 58.0267 27.2211 58.08C26.9011 58.1467 26.5344 58.2533 26.1211 58.4C25.7878 58.5333 25.5611 58.6 25.4411 58.6C25.3211 58.6133 25.2144 58.5733 25.1211 58.48C24.9611 58.3067 24.9344 58.12 25.0411 57.92C25.1611 57.72 25.3611 57.5933 25.6411 57.54C26.1611 57.4333 26.4211 57.38 26.4211 57.38C26.5678 57.34 26.6611 57.28 26.7011 57.2C26.7544 57.12 26.7811 56.9667 26.7811 56.74C26.7811 56.38 26.8411 56.0933 26.9611 55.88ZM43.363 49.04C43.483 48.9067 43.603 48.84 43.723 48.84C43.9496 48.84 44.0896 48.9733 44.143 49.24C44.1963 49.4933 44.203 50.0533 44.163 50.92L44.083 52.66L45.403 52.56C46.1096 52.5067 46.5963 52.52 46.863 52.6C47.1296 52.6667 47.263 52.8267 47.263 53.08C47.263 53.2533 47.1563 53.3667 46.943 53.42C46.743 53.4733 46.203 53.5333 45.323 53.6C44.483 53.6533 44.0496 53.7 44.023 53.74C43.983 53.78 43.9563 54.3467 43.943 55.44C43.9163 56.2267 43.883 56.7067 43.843 56.88C43.803 57.04 43.6896 57.1667 43.503 57.26C43.3296 57.3533 43.203 57.3933 43.123 57.38C43.0563 57.3667 42.983 57.3 42.903 57.18C42.7563 57.0067 42.723 56.74 42.803 56.38C42.9363 55.46 43.0496 53.6733 43.143 51.02C43.183 49.8333 43.2563 49.1733 43.363 49.04ZM36.823 49.7C38.063 49.54 38.8563 49.4667 39.203 49.48C39.5496 49.48 39.723 49.58 39.723 49.78C39.723 50.0333 39.623 50.36 39.423 50.76C39.2363 51.16 38.9896 51.5533 38.683 51.94C38.3896 52.2733 38.223 52.4933 38.183 52.6C38.1563 52.7067 38.203 52.8533 38.323 53.04C38.4563 53.28 38.7696 53.5933 39.263 53.98C39.983 54.5267 40.2763 54.98 40.143 55.34C40.0496 55.58 39.8563 55.66 39.563 55.58C39.283 55.4867 38.9696 55.2467 38.623 54.86C38.1696 54.42 37.8896 54.1133 37.783 53.94C37.703 53.78 37.5963 53.7 37.463 53.7C37.3296 53.7 37.0763 53.92 36.703 54.36C36.343 54.8 36.143 55.1267 36.103 55.34C36.0496 55.5533 35.9296 55.7067 35.743 55.8C35.5696 55.8933 35.363 55.9067 35.123 55.84C34.5363 55.7067 34.5963 55.24 35.303 54.44C35.503 54.2133 35.903 53.7333 36.503 53C36.9163 52.4667 37.2363 52.1 37.463 51.9C37.7163 51.6333 37.9096 51.38 38.043 51.14C38.1763 50.94 38.243 50.8133 38.243 50.76C38.2563 50.7067 38.203 50.66 38.083 50.62C37.9096 50.54 37.2763 50.6133 36.183 50.84C35.6763 50.9467 35.243 51.0333 34.883 51.1C34.5363 51.1533 34.323 51.18 34.243 51.18C34.043 51.18 33.9163 51.1067 33.863 50.96C33.8096 50.8 33.8496 50.62 33.983 50.42C34.103 50.2467 34.3363 50.12 34.683 50.04C35.0296 49.9467 35.743 49.8333 36.823 49.7Z" fill="#1A1A1A"/>
<path d="M16.5952 27.121C16.4552 26.9992 15.9642 26.4412 15.7111 26.1958C15.2239 25.7268 13.8986 24.5526 12.2626 23.1967C11.904 22.8986 11.7352 22.7604 11.8215 22.6259C11.9155 22.4841 16.1503 19.0052 17.3969 18.0018C17.5868 17.8491 17.4295 17.591 17.2358 17.5947L17.1457 15.6843C17.1648 15.6698 17.184 15.6534 17.2032 15.6389C17.3049 15.5589 17.184 15.4171 17.0766 15.488C14.9727 16.8803 10.3581 21.0973 9.92853 21.539C9.53536 21.9443 9.0156 22.3987 9.00026 22.9894C8.98875 23.4021 9.36658 23.8837 9.81537 24.2164C10.8127 24.9507 13.4978 26.9119 14.1901 27.4827C14.0118 27.5881 13.3578 28.2116 13.1871 28.4824C12.8514 29.0204 13.4633 29.742 13.9753 29.9529C14.2649 30.0728 14.5852 30.0474 14.8461 29.882C14.9976 29.7856 15.1223 29.6548 15.2527 29.5348C15.3965 29.4021 15.5404 29.2694 15.6842 29.1386C15.9719 28.8732 16.2596 28.6096 16.5473 28.3442C16.7985 28.1134 17.09 27.8298 16.9174 27.4736C16.8484 27.3318 16.7122 27.2282 16.5933 27.1246L16.5952 27.121Z" fill="#3D61D3"/>
<path d="M50.8799 10.7636C50.5769 10.0675 49.8232 9.91843 49.1116 9.89662C49.1078 9.50037 49.2516 9.10594 49.1442 8.71151C49.0407 8.33525 48.6897 7.99717 48.2486 8.04807C47.8094 8.10078 47.6521 8.50611 47.5888 8.86601C47.5063 9.32769 47.374 9.74575 47.1208 10.1511C46.8964 10.511 46.6183 10.8981 46.6183 11.3326C46.6183 11.5434 46.6893 11.7288 46.8082 11.9051C46.9003 12.0433 47.0499 12.1832 46.9923 12.3577C46.9156 12.5886 46.7679 12.8121 46.6586 13.0302C46.5378 13.2702 46.415 13.5101 46.2942 13.7518C46.0602 14.2154 45.8243 14.6789 45.5903 15.1424C45.0917 16.1293 44.5911 17.1145 44.0924 18.1015C42.5236 17.1981 41.2271 15.9458 39.8577 14.8025C39.4491 14.4607 39.0349 14.1263 38.6014 13.8155C38.4557 13.7119 38.3022 13.9154 38.4346 14.0281C38.4653 14.0536 38.494 14.0808 38.5247 14.1063L38.6302 17.1272C38.4288 17.1436 38.283 17.3999 38.494 17.5253C39.919 18.3814 43.2255 20.9352 43.9908 21.1224C44.3283 21.2042 44.7426 21.2733 45.0629 21.1042C45.3755 20.9388 45.504 20.6044 45.6402 20.3117C46.3019 18.8976 49.2996 12.9921 49.4147 12.9194C49.5374 12.8412 49.7292 12.8358 49.8673 12.7867C50.0246 12.7321 50.1742 12.6522 50.3103 12.5595C50.9049 12.1541 51.1696 11.4162 50.8857 10.7655L50.8799 10.7636Z" fill="#3D61D3"/>
<path d="M16.5952 27.121C16.4552 26.9992 15.9642 26.4412 15.7111 26.1958C15.2239 25.7268 13.8986 24.5526 12.2626 23.1967C11.904 22.8986 11.7352 22.7604 11.8215 22.6259C11.9155 22.4841 16.1503 19.0052 17.3969 18.0018C17.5868 17.8491 17.4295 17.591 17.2358 17.5947L17.1457 15.6843C17.1648 15.6698 17.184 15.6534 17.2032 15.6389C17.3049 15.5589 17.184 15.4171 17.0766 15.488C14.9727 16.8803 10.3581 21.0973 9.92853 21.539C9.53536 21.9443 9.0156 22.3987 9.00026 22.9894C8.98875 23.4021 9.36658 23.8837 9.81537 24.2164C10.8127 24.9507 13.4978 26.9119 14.1901 27.4827C14.0118 27.5881 13.3578 28.2116 13.1871 28.4824C12.8514 29.0204 13.4633 29.742 13.9753 29.9529C14.2649 30.0728 14.5852 30.0474 14.8461 29.882C14.9976 29.7856 15.1223 29.6548 15.2527 29.5348C15.3965 29.4021 15.5404 29.2694 15.6842 29.1386C15.9719 28.8732 16.2596 28.6096 16.5473 28.3442C16.7985 28.1134 17.09 27.8298 16.9174 27.4736C16.8484 27.3318 16.7122 27.2282 16.5933 27.1246L16.5952 27.121Z" fill="url(#paint0_radial_460_6800)"/>
<path d="M50.8799 10.7636C50.5769 10.0675 49.8232 9.91843 49.1116 9.89662C49.1078 9.50037 49.2516 9.10594 49.1442 8.71151C49.0407 8.33525 48.6897 7.99717 48.2486 8.04807C47.8094 8.10078 47.6521 8.50611 47.5888 8.86601C47.5063 9.32769 47.374 9.74575 47.1208 10.1511C46.8964 10.511 46.6183 10.8981 46.6183 11.3326C46.6183 11.5434 46.6893 11.7288 46.8082 11.9051C46.9003 12.0433 47.0499 12.1832 46.9923 12.3577C46.9156 12.5886 46.7679 12.8121 46.6586 13.0302C46.5378 13.2702 46.415 13.5101 46.2942 13.7518C46.0602 14.2154 45.8243 14.6789 45.5903 15.1424C45.0917 16.1293 44.5911 17.1145 44.0924 18.1015C42.5236 17.1981 41.2271 15.9458 39.8577 14.8025C39.4491 14.4607 39.0349 14.1263 38.6014 13.8155C38.4557 13.7119 38.3022 13.9154 38.4346 14.0281C38.4653 14.0536 38.494 14.0808 38.5247 14.1063L38.6302 17.1272C38.4288 17.1436 38.283 17.3999 38.494 17.5253C39.919 18.3814 43.2255 20.9352 43.9908 21.1224C44.3283 21.2042 44.7426 21.2733 45.0629 21.1042C45.3755 20.9388 45.504 20.6044 45.6402 20.3117C46.3019 18.8976 49.2996 12.9921 49.4147 12.9194C49.5374 12.8412 49.7292 12.8358 49.8673 12.7867C50.0246 12.7321 50.1742 12.6522 50.3103 12.5595C50.9049 12.1541 51.1696 11.4162 50.8857 10.7655L50.8799 10.7636Z" fill="url(#paint1_radial_460_6800)"/>
<path d="M17.2512 2.80704L14.0003 42.5263L25.8607 41.7811L25.8857 31.4223L30.7783 31.1424L32.4066 41.3012L43.0606 40.7614L36.9847 2L17.2512 2.80704V2.80704ZM25.9144 18.3152L26.229 11.3972L28.0893 11.3391L28.7012 18.1971L25.9144 18.3152V18.3152Z" fill="#3D61D3"/>
<path d="M47.7556 10.3252C48.0126 10.3052 48.2639 10.2961 48.5209 10.3252C48.7779 10.3543 49.0215 10.407 49.2612 10.4906C49.3015 10.5051 49.3686 10.5179 49.3878 10.5597C49.4089 10.6033 49.3897 10.6742 49.384 10.7196C49.3705 10.8269 49.3475 10.9377 49.29 11.0323C49.1845 11.2049 48.9774 11.2813 48.7817 11.3176C48.6513 11.3413 48.519 11.3522 48.3866 11.3522C48.3118 11.3522 48.2351 11.3504 48.1603 11.3449C48.0855 11.3394 48.0107 11.3249 47.9359 11.3285C47.8765 11.3322 47.8324 11.4231 47.9014 11.4503C48.0357 11.5049 48.1987 11.5049 48.3425 11.5067C48.4864 11.5085 48.6321 11.4976 48.7741 11.4758C49.0061 11.4394 49.242 11.3504 49.3859 11.1668C49.4664 11.065 49.5029 10.9414 49.5201 10.816C49.5355 10.7087 49.5681 10.556 49.4914 10.4652C49.4568 10.4252 49.4089 10.4034 49.359 10.3852C49.2881 10.3597 49.2152 10.3379 49.1423 10.3179C49.0023 10.2798 48.8584 10.2507 48.7146 10.2307C48.3981 10.1889 48.0625 10.1834 47.7461 10.247C47.7 10.2561 47.7096 10.3307 47.7576 10.327L47.7556 10.3252Z" fill="#403E3D"/>
<path d="M48.8028 11.4556C48.7932 11.6265 48.7261 11.79 48.6225 11.93C48.5727 11.9973 48.5094 12.0572 48.4423 12.11C48.4097 12.1354 48.3732 12.1572 48.3368 12.1772C48.2965 12.199 48.2351 12.2172 48.2159 12.259C48.1987 12.2972 48.2121 12.3353 48.2543 12.3499C48.308 12.3681 48.3694 12.3299 48.4135 12.3044C48.4576 12.279 48.4998 12.2499 48.5401 12.2208C48.6187 12.159 48.6878 12.0845 48.7434 12.0027C48.8546 11.8409 48.9102 11.6465 48.8987 11.4538C48.8949 11.3956 48.8067 11.3956 48.8028 11.4538V11.4556Z" fill="#403E3D"/>
<path d="M49.7523 10.6243C49.7216 10.7734 49.6909 10.9243 49.6564 11.0715C49.6257 11.1987 49.5989 11.335 49.5336 11.4514C49.4684 11.5677 49.3572 11.6295 49.2325 11.6786C49.1232 11.7204 48.9736 11.7858 48.8605 11.7258C48.7703 11.6786 48.6898 11.8095 48.7799 11.8567C48.9237 11.9312 49.0848 11.8912 49.2287 11.8385C49.3725 11.7858 49.5221 11.7186 49.618 11.5932C49.7139 11.4677 49.7408 11.3169 49.7676 11.1696C49.8002 10.9933 49.8213 10.8152 49.8424 10.6371C49.8482 10.5898 49.7638 10.5789 49.7542 10.6262L49.7523 10.6243Z" fill="#403E3D"/>
<path d="M49.3513 11.7827C49.3724 11.9226 49.4318 12.0771 49.6064 12.0826C49.7656 12.088 49.9267 12.0008 50.0379 11.9008C50.3141 11.6573 50.3697 11.2901 50.4176 10.9538C50.4234 10.9175 50.3812 10.8866 50.3448 10.8848C50.3026 10.8848 50.2776 10.9157 50.2719 10.9538C50.2354 11.2301 50.1952 11.5337 49.9957 11.7518C49.9152 11.8408 49.8135 11.9154 49.6908 11.9481C49.6255 11.9644 49.5565 11.9754 49.5105 11.9208C49.4721 11.8754 49.4568 11.8154 49.4414 11.7591C49.4261 11.7009 49.3417 11.7282 49.3494 11.7827H49.3513Z" fill="#403E3D"/>
<path d="M50.0343 11.8063C50.017 11.919 50.0688 12.0408 50.1762 12.0953C50.2836 12.1499 50.4332 12.1371 50.5291 12.0572C50.5559 12.0354 50.554 11.999 50.5406 11.9717C50.5348 11.9608 50.5253 11.9517 50.5137 11.9463C50.4831 11.9299 50.4505 11.9372 50.4236 11.9572C50.437 11.9463 50.4236 11.9572 50.4198 11.959C50.4159 11.9608 50.4121 11.9645 50.4083 11.9663C50.3987 11.9717 50.3891 11.9754 50.3795 11.9808C50.391 11.9754 50.3814 11.9808 50.3757 11.9808C50.3718 11.9808 50.3661 11.9845 50.3622 11.9845C50.3526 11.9881 50.3411 11.9899 50.3315 11.9917C50.3411 11.9917 50.3373 11.9917 50.3315 11.9917C50.3258 11.9917 50.322 11.9917 50.3162 11.9917C50.3104 11.9917 50.3047 11.9917 50.2989 11.9917C50.297 11.9917 50.2798 11.9899 50.2913 11.9917C50.3028 11.9935 50.2855 11.9917 50.2836 11.9917C50.2778 11.9917 50.2721 11.9899 50.2663 11.9881C50.2625 11.9881 50.2568 11.9845 50.2529 11.9845C50.2491 11.9845 50.2491 11.9845 50.2548 11.9845C50.2529 11.9845 50.2491 11.9826 50.2472 11.9808C50.2376 11.9772 50.228 11.9717 50.2184 11.9663C50.2146 11.9645 50.2107 11.9608 50.2069 11.959C50.2011 11.9554 50.2126 11.9645 50.205 11.9572C50.1973 11.9499 50.1896 11.9427 50.1819 11.9354C50.1781 11.9317 50.1762 11.9281 50.1724 11.9245C50.18 11.9336 50.1685 11.919 50.1685 11.919C50.1551 11.9008 50.1493 11.8881 50.1436 11.8718C50.1359 11.8518 50.134 11.839 50.134 11.8191C50.134 11.7972 50.1167 11.7772 50.0918 11.7736C50.0707 11.7718 50.0419 11.7845 50.0381 11.8063H50.0343Z" fill="#403E3D"/>
<path d="M25.8857 6.07774C25.901 7.09563 25.0437 7.93175 23.9697 7.94629C22.8957 7.96083 22.0134 7.14834 21.9981 6.13046C21.9827 5.11257 22.84 4.27645 23.9141 4.26191C24.9881 4.24737 25.8703 5.05986 25.8857 6.07774Z" fill="white"/>
<path d="M26.2692 6.13444C26.2846 7.09234 25.4752 7.8812 24.4645 7.89574C23.4537 7.91028 22.6213 7.14324 22.606 6.18533C22.5926 5.22743 23.4 4.43857 24.4108 4.42403C25.4215 4.40949 26.2539 5.17654 26.2692 6.13444V6.13444Z" fill="#403E3D"/>
<path d="M31.7391 5.99962C31.7544 7.0175 30.8971 7.85362 29.8231 7.86816C28.749 7.8827 27.8668 7.07021 27.8515 6.05233C27.8361 5.03445 28.6934 4.19833 29.7675 4.18379C30.8415 4.16924 31.7237 4.98173 31.7391 5.99962Z" fill="white"/>
<path d="M32.2417 6.06603C32.2551 7.02393 31.4477 7.8128 30.4369 7.82734C29.4262 7.84188 28.5938 7.07483 28.5785 6.11693C28.5631 5.15903 29.3725 4.37017 30.3832 4.35563C31.394 4.3429 32.2263 5.10813 32.2417 6.06603Z" fill="#403E3D"/>
<path d="M25.036 8.86914C25.036 8.86914 26.718 10.3033 28.7913 8.86914" stroke="#403E3D" stroke-linecap="round" stroke-linejoin="round"/>
<defs>
<radialGradient id="paint0_radial_460_6800" cx="0" cy="0" r="1" gradientUnits="userSpaceOnUse" gradientTransform="translate(17.9378 17.3911) scale(6.42312 6.08731)">
<stop stop-color="#1E2B78" stop-opacity="0.9"/>
<stop offset="1" stop-color="#1E2B78" stop-opacity="0"/>
</radialGradient>
<radialGradient id="paint1_radial_460_6800" cx="0" cy="0" r="1" gradientUnits="userSpaceOnUse" gradientTransform="translate(36.0659 15.3532) scale(7.77333 7.36693)">
<stop stop-color="#1E2B78" stop-opacity="0.9"/>
<stop offset="1" stop-color="#1E2B78" stop-opacity="0"/>
</radialGradient>
</defs>
</svg>
