<svg width="42" height="78" viewBox="0 0 42 78" fill="none" xmlns="http://www.w3.org/2000/svg">
<path d="M30.2579 4.8134C30.1445 4.613 30.0252 4.42045 29.9 4.23184C29.8883 4.21416 29.8785 4.19844 29.8688 4.18076C27.8156 1.13541 24.1884 -0.414767 20.6491 0.0960646H20.653C20.653 0.0960646 20.6413 0.0960646 20.6335 0.0960646C20.2033 0.158936 19.7751 0.253244 19.3508 0.378987C9.67357 2.6738 3.78396 8.01789 2.97052 8.79003C2.95878 8.80182 2.9451 8.81361 2.93336 8.8254C2.89426 8.86469 2.87275 8.88434 2.87275 8.88434H2.87666C0.313152 11.3894 -0.674317 15.2206 0.475448 18.712C0.475448 18.712 2.8004 25.9304 8.93443 32.9917C8.96572 33.029 8.99896 33.0663 9.0322 33.1037C10.2543 34.4888 12.1334 35.3887 14.2179 35.8484C15.7372 32.7186 21.6307 22.9813 35.2578 25.3764C36.0126 23.7142 36.3978 21.9833 36.2022 20.3859C36.2022 20.3859 35.8268 13.9337 30.2559 4.80751L30.2579 4.8134Z" fill="#F36D88"/>
<path d="M35.2596 25.379C21.6326 22.984 15.7371 32.7212 14.2197 35.851C16.6933 36.3953 19.4562 36.3186 21.7616 35.6801C21.7616 35.6801 21.7675 35.6801 21.7695 35.6801C25.3752 34.959 26.2962 37.3285 26.3548 37.4896C26.3548 37.4916 26.3548 37.4936 26.3568 37.4975C26.9043 39.03 28.0306 42.093 29.5753 45.8162C29.5753 45.8162 30.3067 47.7161 32.0235 47.7259C32.7118 47.7298 33.3727 47.4017 33.7892 46.8536C34.8295 45.4802 33.7775 43.7395 33.7775 43.7395C31.783 40.2383 30.0544 37.4719 29.1804 36.1025C27.9602 33.5032 30.4279 31.395 30.4279 31.395H30.424C32.3989 29.9136 34.1979 27.717 35.2616 25.379H35.2596Z" fill="#D1B88B"/>
<path d="M19.5202 13.6026C20.5783 13.0674 20.9953 11.7535 20.4515 10.668C19.9076 9.58243 18.6089 9.13631 17.5508 9.67153C16.4926 10.2067 16.0756 11.5206 16.6195 12.6061C17.1633 13.6917 18.462 14.1378 19.5202 13.6026Z" fill="white"/>
<path d="M16.2947 12.4219C16.8304 13.4318 18.0643 13.8228 19.0478 13.2943C20.0314 12.7657 20.3951 11.5181 19.8593 10.5083C19.3236 9.49839 18.0897 9.1074 17.1062 9.63592C16.1226 10.1644 15.7589 11.412 16.2947 12.4219Z" fill="#403E3D"/>
<path d="M11.5198 15.4094C12.0888 16.4822 13.3969 16.8968 14.4411 16.3368C15.4853 15.7769 15.8725 14.4526 15.3034 13.3799C14.7344 12.3071 13.4263 11.8926 12.3821 12.4525C11.3379 13.0125 10.9508 14.3367 11.5198 15.4094Z" fill="white"/>
<path d="M11.2107 15.4004C11.7465 16.4103 12.9803 16.8013 13.9639 16.2728C14.9474 15.7443 15.3111 14.4967 14.7753 13.4868C14.2396 12.4769 13.0057 12.0859 12.0222 12.6144C11.0386 13.1429 10.6749 14.3906 11.2107 15.4004Z" fill="#403E3D"/>
<path d="M13.4087 18.1244L18.0449 17.8985L21.635 13.5918" stroke="#403E3D" stroke-linecap="round" stroke-linejoin="round"/>
<path d="M21.2065 13.1875L22.063 13.9911" stroke="#403E3D" stroke-linecap="round" stroke-linejoin="round"/>
<path d="M17.3228 59.94C17.4828 59.8733 17.6495 59.8467 17.8228 59.86C17.9962 59.86 18.1095 59.9 18.1628 59.98C18.2162 60.06 18.1828 60.8533 18.0628 62.36C17.9562 63.72 17.8628 65.0467 17.7828 66.34C17.7295 67.2333 17.6428 67.8067 17.5228 68.06C17.4162 68.3 17.2095 68.3667 16.9028 68.26C16.7695 68.2067 16.6895 67.9467 16.6628 67.48C16.6495 67 16.6962 66.2067 16.8028 65.1L16.9028 63.88L16.1828 63.96C15.6895 64.0267 15.2162 64.16 14.7628 64.36L14.0028 64.66V66.32C13.9895 66.9733 13.9628 67.42 13.9228 67.66C13.8828 67.8867 13.8095 68.04 13.7028 68.12C13.2095 68.4933 12.9695 68.3 12.9828 67.54C13.0095 66.1267 13.0628 64.5933 13.1428 62.94C13.2362 61.2733 13.3162 60.38 13.3828 60.26C13.4495 60.1133 13.5695 60.0267 13.7428 60C13.9295 59.9733 14.1095 60.02 14.2828 60.14C14.3628 60.1933 14.4028 60.3133 14.4028 60.5C14.4162 60.6867 14.3828 61.0667 14.3028 61.64C14.1695 62.5467 14.1362 63.0267 14.2028 63.08C14.2295 63.12 14.3762 63.1267 14.6428 63.1C14.9228 63.0733 15.2162 63.0333 15.5228 62.98C15.8428 62.9267 16.1428 62.8667 16.4228 62.8C16.7162 62.72 16.8895 62.66 16.9428 62.62C17.0628 62.5133 17.1228 62.0533 17.1228 61.24C17.1228 60.4267 17.1895 59.9933 17.3228 59.94ZM8.64284 60.84C9.32284 60.7067 9.74951 60.64 9.92284 60.64C10.0962 60.64 10.2428 60.7067 10.3628 60.84C10.4695 60.9733 10.5095 61.22 10.4828 61.58C10.4695 61.9267 10.3895 62.5733 10.2428 63.52C10.2295 63.6267 10.1762 63.9667 10.0828 64.54C9.98951 65.1133 9.92284 65.54 9.88284 65.82C9.77617 66.6333 9.66951 67.08 9.56284 67.16C9.50951 67.2 9.40951 67.22 9.26284 67.22C8.96951 67.22 8.79617 67.1067 8.74284 66.88C8.70284 66.6533 8.74951 66.1667 8.88284 65.42C9.24284 63.4467 9.42284 62.32 9.42284 62.04C9.42284 61.9467 9.40951 61.88 9.38284 61.84C9.35617 61.7867 9.31617 61.7667 9.26284 61.78C9.15617 61.86 8.62951 61.9733 7.68284 62.12C6.74951 62.2667 6.12284 62.34 5.80284 62.34C5.42951 62.34 5.17617 62.26 5.04284 62.1C4.80284 61.82 5.02951 61.5867 5.72284 61.4C5.93617 61.3467 6.20284 61.2933 6.52284 61.24C7.28284 61.12 7.98951 60.9867 8.64284 60.84ZM23.3611 58.78C23.4145 58.7267 23.7278 58.72 24.3011 58.76L25.1611 58.8L25.2011 61.52L25.2211 64.24L24.8211 64.4C24.5411 64.4933 24.3611 64.48 24.2811 64.36C24.2011 64.2133 24.1611 63.4 24.1611 61.92V59.68L23.6611 59.78C21.7811 60.0733 20.7078 60.2867 20.4411 60.42C20.3078 60.46 20.1811 60.3667 20.0611 60.14C19.9145 59.8733 19.9611 59.6667 20.2011 59.52C20.4411 59.3733 20.9745 59.2333 21.8011 59.1C22.8011 58.94 23.3211 58.8333 23.3611 58.78ZM25.5611 67.54C26.1478 67.46 26.4678 67.4067 26.5211 67.38C26.6011 67.3667 26.6945 67.4133 26.8011 67.52C26.9078 67.6267 26.9811 67.7467 27.0211 67.88C27.0878 68.0667 27.0145 68.26 26.8011 68.46C26.6145 68.6333 26.4411 68.7333 26.2811 68.76C26.1211 68.7867 25.9345 68.7467 25.7211 68.64C25.5745 68.5467 24.5678 68.6267 22.7011 68.88C21.8745 69 21.2345 69.08 20.7811 69.12C20.3411 69.1733 19.9745 69.2 19.6811 69.2C19.4011 69.2 19.2211 69.1667 19.1411 69.1C19.0611 69.0467 19.0078 68.9533 18.9811 68.82C18.9411 68.58 19.1211 68.3933 19.5211 68.26C19.9211 68.1133 20.5745 68.0067 21.4811 67.94C23.1211 67.8333 24.4811 67.7 25.5611 67.54ZM35.1436 58.4C35.2503 58.2933 35.3436 58.2333 35.4236 58.22C35.5036 58.1933 35.6036 58.2067 35.7236 58.26C35.857 58.34 35.937 58.4333 35.9636 58.54C35.9903 58.6333 35.9836 58.8 35.9436 59.04C35.9303 59.1333 35.897 59.34 35.8436 59.66C35.8036 59.9667 35.777 60.18 35.7636 60.3L35.6436 60.92H36.2636C36.7036 60.92 37.0236 60.8333 37.2236 60.66C37.437 60.4867 37.5436 60.2133 37.5436 59.84C37.5303 59.3333 37.6103 58.9733 37.7836 58.76C37.9703 58.5467 38.2103 58.5267 38.5036 58.7C38.597 58.7533 38.6436 58.92 38.6436 59.2C38.6436 59.48 38.5836 60.0533 38.4636 60.92C38.2903 62.2133 38.2103 63.1933 38.2236 63.86C38.2503 64.26 38.2436 64.52 38.2036 64.64C38.1636 64.7467 38.0636 64.8267 37.9036 64.88C37.557 65.0133 37.3303 64.9733 37.2236 64.76C37.117 64.5333 37.0836 64.0533 37.1236 63.32C37.1636 62.5733 37.137 62.1333 37.0436 62C36.9636 61.8667 36.7036 61.8733 36.2636 62.02C35.917 62.1267 35.7036 62.3 35.6236 62.54C35.5436 62.7667 35.5236 63.24 35.5636 63.96C35.5903 64.52 35.5836 64.8533 35.5436 64.96C35.517 65.0533 35.4036 65.1133 35.2036 65.14C34.897 65.1667 34.6836 65.0667 34.5636 64.84C34.4436 64.6 34.417 64.2467 34.4836 63.78C34.5636 63.26 34.6436 62.2933 34.7236 60.88C34.8303 59.44 34.9703 58.6133 35.1436 58.4ZM30.6636 58.52C31.1036 58.4667 31.577 58.4533 32.0836 58.48H32.9436L32.8836 60.92C32.8836 61 32.877 61.1067 32.8636 61.24C32.8636 61.6667 32.8636 61.9733 32.8636 62.16C32.8636 62.3333 32.8436 62.5533 32.8036 62.82C32.7636 63.0867 32.737 63.26 32.7236 63.34C32.7103 63.4067 32.6503 63.5067 32.5436 63.64C32.437 63.7733 32.3503 63.8467 32.2836 63.86C32.217 63.8733 32.077 63.9067 31.8636 63.96C31.6636 64 31.4836 64.02 31.3236 64.02C31.177 64.02 30.9303 64.0267 30.5836 64.04C30.4503 64.04 30.357 64.04 30.3036 64.04L28.3436 64.1L28.1636 63.58C28.057 63.2467 27.9636 62.5467 27.8836 61.48C27.817 60.4133 27.817 59.7733 27.8836 59.56C27.9503 59.3067 28.3436 59.0867 29.0636 58.9C29.7836 58.6867 30.317 58.56 30.6636 58.52ZM31.8436 60.56C31.857 60.4533 31.8636 60.36 31.8636 60.28C31.877 60.2 31.8836 60.1267 31.8836 60.06C31.897 59.98 31.9036 59.9133 31.9036 59.86C31.9036 59.8067 31.897 59.76 31.8836 59.72C31.8836 59.68 31.877 59.6533 31.8636 59.64C31.8636 59.6133 31.857 59.5933 31.8436 59.58C31.8303 59.5533 31.817 59.54 31.8036 59.54C31.7903 59.54 31.7703 59.54 31.7436 59.54C30.917 59.62 30.1503 59.7667 29.4436 59.98C29.1236 60.06 28.9303 60.14 28.8636 60.22C28.8103 60.2867 28.7836 60.4733 28.7836 60.78C28.7836 61.18 28.837 61.6467 28.9436 62.18L29.1236 62.98H30.0836C30.817 62.98 31.277 62.9333 31.4636 62.84C31.6636 62.7467 31.757 62.5333 31.7436 62.2C31.7436 61.8 31.777 61.2533 31.8436 60.56ZM31.8436 69.18C31.7636 68.5533 31.757 67.9533 31.8236 67.38C31.8903 66.8067 32.0036 66.46 32.1636 66.34C32.337 66.2067 32.5303 66.1933 32.7436 66.3C32.8636 66.3667 32.9303 66.4533 32.9436 66.56C32.9703 66.6667 32.957 66.8733 32.9036 67.18C32.8503 67.5667 32.8103 67.9667 32.7836 68.38C32.7836 68.5933 32.8036 68.7267 32.8436 68.78C32.897 68.8333 33.0103 68.8533 33.1836 68.84C33.2103 68.84 33.4703 68.8267 33.9636 68.8C34.457 68.7733 34.8903 68.7467 35.2636 68.72C36.0503 68.6667 36.5303 68.6533 36.7036 68.68C36.877 68.6933 37.0103 68.78 37.1036 68.94C37.2503 69.22 37.217 69.4133 37.0036 69.52C36.7903 69.64 36.2836 69.7333 35.4836 69.8C35.0303 69.8267 34.197 69.8867 32.9836 69.98L31.9636 70.1L31.8436 69.18Z" fill="#1A1A1A"/>
</svg>
