<svg width="60" height="73" viewBox="0 0 60 73" fill="none" xmlns="http://www.w3.org/2000/svg">
<path d="M50.2383 21.9452C48.9956 20.0249 46.7287 19.1022 44.5016 19.0713C43.345 19.0559 42.1862 19.2634 41.0914 19.6342C40.2636 19.9145 39.4425 20.2853 38.7186 20.7886C38.7296 20.7224 38.7428 20.6584 38.7539 20.5921C38.9393 19.4951 39.0519 18.3694 38.9327 17.2592C38.8179 16.1886 38.4669 15.1866 37.9085 14.2705C37.6392 13.8291 37.3346 13.4141 37.0101 13.0124C36.6923 12.6195 36.3612 12.2332 35.9793 11.8999C35.5931 11.5622 35.1582 11.3018 34.6704 11.1384C34.1804 10.9729 33.6639 10.9067 33.1496 10.8603C32.0725 10.7654 30.9733 10.7499 29.9314 11.0744C28.2164 11.6108 26.8081 12.9153 25.9252 14.4559C25.0423 15.9966 24.6671 17.7823 24.6119 19.5525C24.5501 19.4775 24.4905 19.4024 24.4287 19.3274C23.7202 18.4864 22.9234 17.7205 22.0382 17.0649C20.2371 15.7295 18.021 14.8334 15.7453 15.1247C14.6593 15.2638 13.6153 15.6744 12.7567 16.3608C11.9577 17.0009 11.3198 17.8419 10.9489 18.7998C10.5406 19.8593 10.4457 21.0204 10.6774 22.1328C10.9136 23.274 11.5162 24.3114 12.1894 25.2517C12.792 26.0927 13.4807 26.8806 14.2576 27.5649C14.6593 27.9203 15.092 28.2514 15.5489 28.5449C15.5312 28.5493 15.5114 28.5516 15.4937 28.556C14.9882 28.6663 14.4938 28.8253 14.017 29.0217C13.0591 29.4168 12.1695 29.9797 11.4014 30.6772C9.88944 32.0501 8.88293 34.0145 9.01095 36.0916C9.07055 37.065 9.3906 38.0119 9.95345 38.8109C10.4744 39.5504 11.1652 40.1574 11.9444 40.6121C13.7676 41.6738 15.966 41.7665 17.9835 41.2919C19.2041 41.005 20.3563 40.5105 21.4533 39.9079C21.0472 40.9498 20.7845 42.0424 20.7757 43.1659C20.7624 44.8434 21.3805 46.6291 22.7181 47.7018C23.4663 48.3044 24.389 48.6421 25.3204 48.8363C26.3137 49.0416 27.3445 49.0946 28.351 48.9776C29.3575 48.8606 30.3596 48.5825 31.2536 48.1013C31.6752 47.8762 32.0659 47.587 32.3815 47.2272C32.6927 46.8763 32.9377 46.4701 33.1364 46.0463C33.5624 45.1414 33.8405 44.1547 34.0281 43.1747C34.176 42.4022 34.2577 41.6164 34.2731 40.8306C34.4806 41.1749 34.7057 41.5104 34.9375 41.8349C35.2951 42.3359 35.6747 42.8193 36.0787 43.2829C36.4451 43.7044 36.838 44.1106 37.286 44.4461C37.7584 44.7992 38.2815 45.0575 38.851 45.212C39.4359 45.3731 40.0518 45.4394 40.6565 45.4636C41.8463 45.51 43.0713 45.3312 44.1573 44.8279C45.1086 44.3865 45.9452 43.7155 46.5301 42.8392C47.1547 41.9033 47.4174 40.7511 47.4218 39.6342C47.4262 38.5924 47.1878 37.5484 46.7442 36.6059C46.2718 35.606 45.5787 34.7518 44.7113 34.0653C44.1352 33.6084 43.5172 33.1956 42.8771 32.8226C43.1176 32.7277 43.3538 32.6284 43.5878 32.5246C44.687 32.0346 45.7377 31.4342 46.7199 30.739C47.7021 30.0437 48.6535 29.2623 49.4282 28.3397C50.203 27.417 50.8011 26.3134 50.9601 25.106C51.1079 23.9891 50.8409 22.8811 50.2295 21.9364L50.2383 21.9452Z" fill="#FFBD29"/>
<path d="M37.7923 30.2625C38.1607 26.3055 34.7233 22.7499 30.1145 22.3207C25.5058 21.8916 21.4709 24.7514 21.1025 28.7084C20.734 32.6653 24.1714 36.221 28.7802 36.6501C33.389 37.0793 37.4238 34.2194 37.7923 30.2625Z" fill="#FFD78F"/>
<path d="M28.415 28.5387C28.3444 29.7042 27.3622 30.5937 26.221 30.5253C25.0799 30.4569 24.2102 29.4548 24.2786 28.2871C24.3493 27.1217 25.3315 26.2321 26.4726 26.3006C27.6138 26.369 28.4835 27.3711 28.415 28.5387Z" fill="white"/>
<path d="M28.0375 28.4788C27.9713 29.578 27.0465 30.4168 25.9693 30.3506C24.8922 30.2843 24.0733 29.3418 24.1395 28.2426C24.2057 27.1434 25.1306 26.3046 26.2077 26.3709C27.2848 26.4371 28.1037 27.3796 28.0375 28.4788Z" fill="#403E3D"/>
<path d="M34.5959 28.8361C34.6383 27.669 33.7453 26.6893 32.6014 26.6477C31.4575 26.6062 30.4958 27.5186 30.4534 28.6857C30.411 29.8527 31.304 30.8325 32.4479 30.8741C33.5918 30.9156 34.5535 30.0032 34.5959 28.8361Z" fill="white"/>
<path d="M34.1296 28.8772C34.0633 29.9765 33.1385 30.8152 32.0614 30.749C30.9842 30.6828 30.1653 29.7403 30.2315 28.6411C30.2978 27.5418 31.2226 26.7031 32.2997 26.7693C33.3769 26.8355 34.1958 27.778 34.1296 28.8772Z" fill="#403E3D"/>
<path d="M29.1501 30.8574C29.1501 30.8574 28.2363 31.1642 28.9073 31.8176C28.9073 31.8176 28.2363 32.259 29.0154 32.9124" stroke="#403E3D" stroke-linecap="round" stroke-linejoin="round"/>
<path d="M18.231 58.82C18.3643 58.7267 18.471 58.6867 18.551 58.7C18.631 58.7 18.7443 58.7533 18.891 58.86C18.9843 58.9533 19.0377 59.1933 19.051 59.58C19.0777 59.9667 19.071 60.8267 19.031 62.16C18.9643 64.2267 18.871 65.32 18.751 65.44C18.6043 65.5733 17.9377 65.7067 16.751 65.84C15.5643 65.96 14.911 65.9733 14.791 65.88C14.631 65.7467 14.4977 65.42 14.391 64.9C14.2977 64.3667 14.2043 63.4667 14.111 62.2C14.0043 60.9867 13.9643 60.2 13.991 59.84C14.031 59.48 14.1643 59.2667 14.391 59.2C14.591 59.12 14.751 59.22 14.871 59.5C14.991 59.78 15.051 60.1933 15.051 60.74C15.051 61.2733 15.071 61.5867 15.111 61.68C15.151 61.7733 15.2843 61.8133 15.511 61.8C15.7243 61.8 16.2243 61.7333 17.011 61.6L18.091 61.42L18.071 60.18C18.031 59.3533 18.0843 58.9 18.231 58.82ZM18.111 62.68L17.571 62.66C17.211 62.6333 16.8777 62.6667 16.571 62.76C16.0243 62.8933 15.7243 62.9667 15.671 62.98C15.471 63.02 15.3443 63.0867 15.291 63.18C15.2377 63.26 15.211 63.4533 15.211 63.76C15.211 64.24 15.3043 64.5333 15.491 64.64C15.6777 64.7467 16.091 64.7533 16.731 64.66C17.4243 64.5667 17.8177 64.4667 17.911 64.36C17.991 64.28 18.0443 63.98 18.071 63.46L18.111 62.68ZM21.731 59.28C21.9977 59.0933 22.2443 59.12 22.471 59.36C22.591 59.52 22.6043 60.9533 22.511 63.66L22.391 67.7L22.011 67.74C21.731 67.78 21.5577 67.7333 21.491 67.6C21.3843 67.44 21.371 66.0333 21.451 63.38C21.531 60.7133 21.6243 59.3467 21.731 59.28ZM26.1613 57.52C27.4547 57.3733 28.2747 57.3 28.6213 57.3C28.968 57.2867 29.188 57.34 29.2813 57.46C29.3747 57.58 29.3747 57.7333 29.2813 57.92C29.2013 58.0933 28.9613 58.4533 28.5613 59L28.0413 59.68L28.4013 59.96C28.6413 60.1467 28.8013 60.24 28.8813 60.24C28.948 60.24 29.1947 60.3733 29.6213 60.64C30.0347 60.9333 30.2413 61.1933 30.2413 61.42C30.2413 61.9533 29.728 61.9067 28.7013 61.28C28.4747 61.1333 28.3147 61.0333 28.2213 60.98C28.128 60.9267 28.008 60.8667 27.8613 60.8C27.7147 60.7333 27.6147 60.6933 27.5613 60.68C27.5213 60.6533 27.4413 60.6467 27.3213 60.66C27.2013 60.6733 27.1213 60.6933 27.0813 60.72C27.0547 60.7467 26.9813 60.8067 26.8613 60.9C26.7547 60.98 26.668 61.06 26.6013 61.14C26.5347 61.2067 26.428 61.3267 26.2813 61.5C25.9347 61.8733 25.6747 62.1267 25.5013 62.26C25.328 62.3933 25.1747 62.4467 25.0413 62.42C24.6147 62.3533 24.528 62.1133 24.7813 61.7C24.9813 61.3933 25.4147 60.9067 26.0813 60.24C27.2813 59.04 27.7613 58.4133 27.5213 58.36C27.4947 58.3467 27.468 58.34 27.4413 58.34C27.348 58.34 26.708 58.4533 25.5213 58.68C24.7613 58.8133 24.2547 58.8867 24.0013 58.9C23.7613 58.9133 23.5947 58.8733 23.5013 58.78C23.3547 58.6333 23.3147 58.4733 23.3813 58.3C23.4613 58.1133 23.6147 57.98 23.8413 57.9C24.028 57.82 24.8013 57.6933 26.1613 57.52ZM29.4813 63.76C29.7747 63.6 30.0413 63.5467 30.2813 63.6C30.5347 63.6533 30.708 63.8067 30.8013 64.06C30.8813 64.26 30.8947 64.42 30.8413 64.54C30.788 64.6467 30.668 64.7267 30.4813 64.78C30.308 64.82 30.0547 64.8267 29.7213 64.8C29.148 64.7867 28.8213 64.8467 28.7413 64.98C28.648 65.1267 28.6013 65.8 28.6013 67C28.6013 67.8933 28.5813 68.42 28.5413 68.58C28.5147 68.74 28.408 68.8333 28.2213 68.86C27.968 68.9 27.8013 68.8467 27.7213 68.7C27.6147 68.5267 27.5813 67.9 27.6213 66.82C27.6347 65.7 27.6213 65.1067 27.5813 65.04C27.5413 65 27.0947 65.0333 26.2413 65.14C25.1613 65.2733 24.4947 65.3333 24.2413 65.32C23.988 65.3067 23.848 65.2 23.8213 65C23.808 64.92 23.8347 64.82 23.9013 64.7C23.968 64.58 24.0413 64.48 24.1213 64.4C24.2947 64.2533 24.6013 64.1533 25.0413 64.1C25.4947 64.0467 26.428 64.0133 27.8413 64C28.6947 63.9733 29.2413 63.8933 29.4813 63.76ZM33.6574 57.04C33.7641 57.0133 33.8841 56.98 34.0174 56.94C34.1508 56.9 34.2574 56.8667 34.3374 56.84C34.4308 56.8133 34.4841 56.8 34.4974 56.8C34.6574 56.7733 35.1841 56.9333 36.0774 57.28C36.3441 57.3867 36.5841 57.62 36.7974 57.98C37.0241 58.3267 37.1374 58.66 37.1374 58.98C37.1374 59.2067 37.1574 59.34 37.1974 59.38C37.2374 59.42 37.3374 59.4133 37.4974 59.36C37.7241 59.2933 38.1574 59.2 38.7974 59.08L39.7374 58.92L39.7574 58.04C39.7974 57.4533 39.8508 57.0933 39.9174 56.96C39.9841 56.8267 40.1441 56.78 40.3974 56.82L40.8374 56.86L40.7574 58.7C40.7308 59.9133 40.7774 60.8933 40.8974 61.64C41.0308 62.2667 41.0508 62.6867 40.9574 62.9C40.8774 63.1133 40.6708 63.22 40.3374 63.22C40.0974 63.22 39.9508 63.14 39.8974 62.98C39.8441 62.8067 39.7974 62.2933 39.7574 61.44C39.7308 60.5333 39.6841 60.0467 39.6174 59.98C39.5641 59.94 39.3108 59.9667 38.8574 60.06C38.4041 60.18 38.0108 60.24 37.6774 60.24C37.4641 60.24 37.3174 60.2667 37.2374 60.32C37.1708 60.3733 37.1108 60.4867 37.0574 60.66C36.9241 61.2467 36.5641 61.7533 35.9774 62.18C35.3908 62.6067 34.8108 62.7867 34.2374 62.72C33.7041 62.64 33.3041 62.5133 33.0374 62.34C32.7708 62.1667 32.4841 61.84 32.1774 61.36C31.9241 60.9733 31.7708 60.6933 31.7174 60.52C31.6641 60.3333 31.6508 60.0333 31.6774 59.62C31.7308 59.0067 31.9308 58.4667 32.2774 58C32.6374 57.5333 33.0974 57.2133 33.6574 57.04ZM35.7174 58.18C35.4774 57.9933 35.1908 57.9 34.8574 57.9C34.5241 57.8867 34.2108 57.9467 33.9174 58.08C33.6241 58.2133 33.3574 58.4133 33.1174 58.68C32.8908 58.9467 32.7441 59.2333 32.6774 59.54C32.6241 59.82 32.6841 60.14 32.8574 60.5C33.0308 60.86 33.2641 61.1533 33.5574 61.38C34.2241 61.8733 34.9041 61.7667 35.5974 61.06C35.9041 60.7667 36.0841 60.5533 36.1374 60.42C36.1908 60.2867 36.2041 59.98 36.1774 59.5C36.1508 59.0867 36.1041 58.7933 36.0374 58.62C35.9841 58.4467 35.8774 58.3 35.7174 58.18ZM37.0374 63.92C37.8641 63.8 38.4441 63.7333 38.7774 63.72C39.1241 63.7067 39.3574 63.7467 39.4774 63.84C39.6374 63.9333 39.7574 64.34 39.8374 65.06C39.9174 65.78 39.9041 66.3067 39.7974 66.64C39.7041 66.9467 39.4974 67.16 39.1774 67.28C38.8708 67.4 38.3708 67.46 37.6774 67.46C37.0508 67.46 36.6174 67.56 36.3774 67.76C36.1374 67.9467 36.1241 68.2133 36.3374 68.56C36.4041 68.6533 36.5108 68.6933 36.6574 68.68C36.8041 68.68 37.1174 68.6267 37.5974 68.52C39.1308 68.1733 39.9574 68.1733 40.0774 68.52C40.1574 68.7467 40.1108 68.9333 39.9374 69.08C39.7774 69.24 39.4974 69.3467 39.0974 69.4C38.6841 69.44 38.0708 69.5467 37.2574 69.72C36.6174 69.8667 36.1708 69.8867 35.9174 69.78C35.6641 69.6867 35.4641 69.42 35.3174 68.98C35.1708 68.5533 35.1308 68.14 35.1974 67.74C35.2641 67.34 35.4174 67.06 35.6574 66.9C35.8841 66.7533 36.3574 66.6533 37.0774 66.6C37.8108 66.5333 38.2974 66.4267 38.5374 66.28C38.7774 66.12 38.8774 65.8467 38.8374 65.46C38.8241 65.3133 38.8108 65.2067 38.7974 65.14C38.7974 65.06 38.7708 65 38.7174 64.96C38.6641 64.9067 38.6041 64.8733 38.5374 64.86C38.4708 64.8467 38.3574 64.8333 38.1974 64.82C37.7974 64.78 37.2374 64.8733 36.5174 65.1C35.8241 65.3133 35.3908 65.42 35.2174 65.42C35.0441 65.4067 34.9574 65.2733 34.9574 65.02C34.9574 64.74 35.1174 64.5133 35.4374 64.34C35.7708 64.1667 36.3041 64.0267 37.0374 63.92Z" fill="#1A1A1A"/>
</svg>
