<svg width="60" height="74" viewBox="0 0 60 74" fill="none" xmlns="http://www.w3.org/2000/svg">
<path d="M18.9005 58.26C19.3272 58.1533 19.7205 58.1067 20.0805 58.12C20.4405 58.1333 20.6672 58.2 20.7605 58.32C20.8405 58.4 20.8539 58.8333 20.8005 59.62C20.7472 60.3933 20.6339 61.22 20.4605 62.1C20.3672 62.62 20.3205 63.1133 20.3205 63.58C20.3072 63.7667 20.2872 63.9067 20.2605 64C20.2472 64.0933 20.2139 64.1733 20.1605 64.24C20.1205 64.2933 20.0539 64.3333 19.9605 64.36C19.5472 64.52 19.3072 64.4133 19.2405 64.04C19.2005 63.7067 19.2605 63.0333 19.4205 62.02C19.5405 61.3267 19.6405 60.66 19.7205 60.02L19.8005 59.34L19.0205 59.38C18.4872 59.4067 18.1672 59.3333 18.0605 59.16C17.9539 58.9733 17.9739 58.8 18.1205 58.64C18.2805 58.4667 18.5405 58.34 18.9005 58.26ZM23.9405 58.28C24.1272 58.0667 24.3805 58.0533 24.7005 58.24C24.7939 58.2933 24.8405 58.4 24.8405 58.56C24.8539 58.72 24.8205 59.0333 24.7405 59.5C24.7405 59.5533 24.7272 59.6333 24.7005 59.74C24.5672 60.54 24.5405 61 24.6205 61.12C24.7005 61.2267 25.0005 61.2533 25.5205 61.2H25.6805C26.2805 61.1467 26.7139 61.16 26.9805 61.24C27.2472 61.32 27.3805 61.4733 27.3805 61.7C27.3805 61.8867 27.2872 62.0133 27.1005 62.08C26.9139 62.1467 26.5739 62.18 26.0805 62.18C25.5339 62.1933 25.1072 62.2667 24.8005 62.4C24.5739 62.4933 24.4339 62.6067 24.3805 62.74C24.3405 62.8733 24.3139 63.2733 24.3005 63.94V65.24L23.8605 65.3C23.5539 65.3267 23.3539 65.2933 23.2605 65.2C23.1805 65.12 23.1872 64.6067 23.2805 63.66C23.3739 62.9933 23.4872 61.9 23.6205 60.38C23.7272 59.1267 23.8339 58.4267 23.9405 58.28ZM14.7405 59.18C15.4205 59.1 15.8539 59.0533 16.0405 59.04H16.5805L16.4805 60.1C16.4005 61.0467 16.3005 61.9133 16.1805 62.7C16.0605 63.4867 15.9605 63.9267 15.8805 64.02C15.7605 64.1533 15.6005 64.22 15.4005 64.22C15.2139 64.22 15.0939 64.1467 15.0405 64C14.9739 63.8533 15.0272 63.1933 15.2005 62.02C15.3872 60.8733 15.4472 60.2733 15.3805 60.22C15.3272 60.1533 15.0205 60.2 14.4605 60.36C13.3272 60.68 12.7605 60.6933 12.7605 60.4C12.7605 60.1333 12.9472 59.88 13.3205 59.64C13.7072 59.4 14.1805 59.2467 14.7405 59.18ZM22.2205 66.28C22.5005 66.1733 22.7005 66.1333 22.8205 66.16C22.9405 66.1867 23.1205 66.3067 23.3605 66.52C23.5472 66.6933 23.6605 66.8733 23.7005 67.06C23.7405 67.2333 23.7605 67.6867 23.7605 68.42C23.7605 69.4333 23.7939 70.0667 23.8605 70.32C23.9005 70.4533 23.8939 70.5533 23.8405 70.62C23.8005 70.7 23.6939 70.7733 23.5205 70.84C23.1605 70.9733 22.9272 70.9333 22.8205 70.72C22.7139 70.52 22.6605 69.9733 22.6605 69.08C22.6605 68.0667 22.6139 67.5267 22.5205 67.46C22.4405 67.42 22.0405 67.4733 21.3205 67.62C20.6139 67.7533 20.0405 67.8933 19.6005 68.04C18.8139 68.2933 18.4205 68.2 18.4205 67.76C18.4205 67.5067 18.5739 67.3067 18.8805 67.16C19.1872 67.0133 19.7472 66.8533 20.5605 66.68C21.4139 66.52 21.9672 66.3867 22.2205 66.28ZM32.2655 58.1C33.1855 58.0067 33.7189 57.96 33.8655 57.96C34.0255 57.9467 34.1522 58.0067 34.2455 58.14C34.3389 58.26 34.3855 58.4267 34.3855 58.64C34.3855 58.72 34.3055 58.8067 34.1455 58.9C33.9855 58.9933 33.8189 59.06 33.6455 59.1C33.4722 59.1267 33.3322 59.12 33.2255 59.08C32.9855 58.92 32.3655 58.9533 31.3655 59.18C30.3655 59.3933 29.7855 59.62 29.6255 59.86C29.5589 59.98 29.5189 60.3 29.5055 60.82C29.5055 61.34 29.5389 61.7267 29.6055 61.98C29.6455 62.1533 29.7189 62.26 29.8255 62.3C29.9455 62.3267 30.2389 62.32 30.7055 62.28C31.3722 62.2267 31.7989 62.1533 31.9855 62.06C32.1722 61.9533 32.6055 61.88 33.2855 61.84L34.3055 61.78V62.34C34.3055 62.6067 34.2789 62.7667 34.2255 62.82C34.1722 62.8733 33.9589 62.9 33.5855 62.9C33.1322 62.9 32.6122 62.9867 32.0255 63.16C31.5055 63.32 30.8922 63.4333 30.1855 63.5C29.4789 63.5667 29.0589 63.56 28.9255 63.48C28.8055 63.4 28.6922 62.7067 28.5855 61.4L28.4255 59.42L28.8255 59.1C29.1055 58.86 29.5655 58.6467 30.2055 58.46C30.8589 58.2733 31.5455 58.1533 32.2655 58.1ZM34.1255 64.8C34.4855 64.64 34.7255 64.5667 34.8455 64.58C34.9789 64.5933 35.1255 64.7133 35.2855 64.94C35.4055 65.1533 35.4589 65.2933 35.4455 65.36C35.4455 65.4133 35.3589 65.5133 35.1855 65.66C34.9455 65.8467 34.5189 65.94 33.9055 65.94H32.9655L32.9455 66.78C32.9322 67.3267 32.9322 68.0067 32.9455 68.82C32.9589 69.3533 32.9522 69.6933 32.9255 69.84C32.8989 70 32.8189 70.12 32.6855 70.2C32.4589 70.3067 32.2722 70.3267 32.1255 70.26C32.0189 70.22 31.9455 70.0667 31.9055 69.8C31.8789 69.5333 31.8655 68.9733 31.8655 68.12C31.8655 66.8933 31.8322 66.2467 31.7655 66.18C31.7255 66.1533 31.6455 66.1533 31.5255 66.18C31.2189 66.26 30.6455 66.3267 29.8055 66.38C29.1655 66.42 28.7722 66.4333 28.6255 66.42C28.4789 66.3933 28.3589 66.3067 28.2655 66.16C28.1989 66 28.1722 65.88 28.1855 65.8C28.2122 65.72 28.2855 65.6133 28.4055 65.48C28.5389 65.36 28.6989 65.28 28.8855 65.24C29.0722 65.1867 29.3989 65.16 29.8655 65.16C32.2122 65.12 33.6322 65 34.1255 64.8ZM46.3268 59.86C46.4201 59.7133 46.5668 59.66 46.7668 59.7C46.9801 59.7267 47.1201 59.8333 47.1868 60.02C47.2668 60.26 47.2668 61.06 47.1868 62.42C47.1068 63.9133 47.0668 65.26 47.0668 66.46C47.0535 67.7667 46.9868 68.48 46.8668 68.6C46.7335 68.72 46.5801 68.78 46.4068 68.78C46.2335 68.7667 46.1268 68.7 46.0868 68.58C46.0335 68.42 46.0468 66.9533 46.1268 64.18C46.2068 61.4067 46.2735 59.9667 46.3268 59.86ZM39.9068 60.7C40.2668 60.6333 40.5401 60.5867 40.7268 60.56C40.9268 60.5333 41.1201 60.5133 41.3068 60.5C41.4935 60.4867 41.6268 60.4867 41.7068 60.5C41.8001 60.5 41.8801 60.52 41.9468 60.56C42.0268 60.5867 42.0801 60.6267 42.1068 60.68C42.1335 60.72 42.1668 60.7867 42.2068 60.88C42.4068 61.4 42.2001 62.92 41.5868 65.44C41.4135 66.1733 41.2801 66.66 41.1868 66.9C41.0935 67.1267 40.9801 67.2533 40.8468 67.28C40.5401 67.36 40.3535 67.3 40.2868 67.1C40.2201 66.9 40.2668 66.5333 40.4268 66C40.5868 65.4933 40.7668 64.6533 40.9668 63.48C41.1801 62.3067 41.2601 61.6933 41.2068 61.64C41.1535 61.5867 40.8668 61.6067 40.3468 61.7C38.8401 62.02 37.8868 62.2067 37.4868 62.26C37.1001 62.3 36.8001 62.28 36.5868 62.2C36.0001 61.9333 36.2268 61.6267 37.2668 61.28C37.9068 61.0667 38.7868 60.8733 39.9068 60.7Z" fill="black"/>
<path d="M20.1248 9L20.7813 13.3891L21.0747 15.3536L23.8748 34.0415C21.8481 33.4521 19.0779 34.034 16.6384 35.7623C13.1147 38.2565 11.6127 42.1905 13.2813 44.548C14.9499 46.9054 19.1599 46.7985 22.6837 44.3043C25.5534 42.2726 27.0827 39.286 26.6475 36.9733L24.1732 20.4688L42.0653 25.8178L44.0099 38.7936C41.9832 38.2018 39.2105 38.7837 36.7686 40.5145C33.2448 43.0087 31.7429 46.9427 33.4115 49.3001C35.0801 51.6575 39.2901 51.5506 42.8138 49.0564C45.5393 47.1292 47.0537 44.3391 46.8274 42.0836H46.8349L43.8483 22.1648L43.4256 19.3399L42.7342 14.722L20.1248 9ZM41.6003 22.6746L23.7505 17.6166L23.5217 16.0822L41.4138 21.4312L41.6003 22.6746Z" fill="#FFF3C0"/>
<path d="M20.125 9L20.7815 13.3891L21.075 15.3536L23.8751 34.0415C21.8484 33.4521 19.0781 34.034 16.6386 35.7623C13.1149 38.2565 11.6129 42.1905 13.2815 44.548C14.9501 46.9054 19.1602 46.7985 22.6839 44.3043C25.5536 42.2726 27.0829 39.286 26.6478 36.9733L24.1735 20.4688L42.0656 25.8178L44.0102 38.7936C41.9835 38.2018 39.2108 38.7837 36.7688 40.5145C33.2451 43.0087 31.7431 46.9427 33.4117 49.3001C35.0803 51.6575 39.2904 51.5506 42.8141 49.0564C45.5395 47.1292 47.054 44.3391 46.8277 42.0836H46.8351L43.8485 22.1648L43.4258 19.3399L42.7345 14.722L20.125 9ZM41.6005 22.6746L23.7507 17.6166L23.5219 16.0822L41.414 21.4312L41.6005 22.6746Z" fill="#C6E4D0"/>
<path d="M20.4329 39.5041C20.4304 40.2675 21.0322 40.8867 21.7782 40.8892C22.5242 40.8917 23.1335 40.275 23.1384 39.514C23.1434 38.7531 22.5391 38.1314 21.7931 38.1289C21.0471 38.1264 20.4378 38.7431 20.4329 39.5041Z" fill="white"/>
<path d="M20.7687 39.5026C20.7662 40.2213 21.3332 40.8057 22.0369 40.8082C22.7407 40.8107 23.3151 40.2312 23.3176 39.5126C23.3201 38.7939 22.7531 38.2095 22.0494 38.207C21.3456 38.2046 20.7712 38.784 20.7687 39.5026Z" fill="#403E3D"/>
<path d="M16.7671 39.4904C16.7646 40.2538 17.3664 40.873 18.1124 40.8755C18.8584 40.878 19.4677 40.2613 19.4727 39.5004C19.4752 38.7369 18.8734 38.1177 18.1273 38.1152C17.3813 38.1128 16.7721 38.7295 16.7671 39.4904Z" fill="white"/>
<path d="M17.1379 39.5026C17.1355 40.2213 17.7024 40.8057 18.4062 40.8082C19.1099 40.8107 19.6844 40.2312 19.6869 39.5126C19.6893 38.7939 19.1224 38.2095 18.4186 38.207C17.7149 38.2046 17.1404 38.784 17.1379 39.5026Z" fill="#403E3D"/>
<path d="M18.7716 41.6043C18.7716 41.6043 19.9255 42.6238 20.8878 41.5098" stroke="#403E3D" stroke-linecap="round" stroke-linejoin="round"/>
<path d="M39.6135 44.2697C39.611 45.0331 40.2128 45.6523 40.9589 45.6548C41.7049 45.6573 42.3141 45.0406 42.3191 44.2797C42.3216 43.5162 41.7198 42.897 40.9738 42.8945C40.2278 42.8921 39.6185 43.5088 39.6135 44.2697Z" fill="white"/>
<path d="M39.447 44.1042C39.4445 44.8229 40.0115 45.4072 40.7153 45.4097C41.419 45.4122 41.9935 44.8328 41.9959 44.1141C41.9984 43.3955 41.4314 42.8111 40.7277 42.8086C40.024 42.8061 39.4495 43.3855 39.447 44.1042Z" fill="#403E3D"/>
<path d="M38.659 44.3063C38.6806 43.5443 38.0926 42.9096 37.3458 42.8884C36.599 42.8673 35.9761 43.4679 35.9545 44.2298C35.933 44.9917 36.5209 45.6265 37.2678 45.6476C38.0146 45.6687 38.6375 45.0682 38.659 44.3063Z" fill="white"/>
<path d="M35.8215 44.0925C35.8191 44.8111 36.386 45.3955 37.0898 45.398C37.7935 45.4005 38.368 44.8211 38.3704 44.1024C38.3729 43.3838 37.806 42.7994 37.1022 42.7969C36.3985 42.7944 35.824 43.3738 35.8215 44.0925Z" fill="#403E3D"/>
<path d="M37.4352 46.6885C37.4352 46.6885 38.1389 47.3699 38.8601 46.4199C38.8601 46.4199 39.5489 47.3922 40.479 46.6064" stroke="#403E3D" stroke-linecap="round" stroke-linejoin="round"/>
</svg>
