<svg width="186" height="200" viewBox="0 0 186 200" fill="none" xmlns="http://www.w3.org/2000/svg">
<g clip-path="url(#clip0_156_478)">
<path d="M5.63679 96.6761C5.66566 51.3278 38.2167 12.1961 82.9293 6.51314C127.642 0.830172 168.955 30.5792 180.344 74.4779L185.981 73.764C174.152 26.6704 130.002 -5.33599 82.1931 0.736418C34.3914 6.80883 -0.339324 48.8397 -0.000100055 97.3973L5.63679 96.6833V96.6761Z" fill="#DD4B4B"/>
<path d="M11.4903 95.9341C11.9017 53.9105 42.1865 17.7861 83.6945 12.5143C125.203 7.24238 163.571 34.6475 174.491 75.2288L180.344 74.486C168.962 30.5872 127.649 0.838222 82.9294 6.52119C38.2168 12.1969 5.66577 51.3286 5.6369 96.677L11.4903 95.9341Z" fill="#F2D766"/>
<path d="M17.3942 95.1836C18.1809 56.5207 46.185 23.4181 84.4595 18.5573C122.734 13.6965 158.136 38.7362 168.58 75.9783L174.484 75.2283C163.571 34.647 125.202 7.24187 83.6945 12.5138C42.1865 17.7856 11.9017 53.91 11.4903 95.9336L17.3942 95.1836Z" fill="#7EC182"/>
<path d="M23.2188 94.4481C24.3736 59.0883 50.1258 28.9642 85.2174 24.5001C120.309 20.0431 152.788 42.7678 162.763 76.7213L168.587 75.9785C158.143 38.7435 122.741 13.6966 84.4668 18.5575C46.1922 23.4183 18.1882 56.5208 17.4015 95.1837L23.226 94.4409L23.2188 94.4481Z" fill="#5B89B2"/>
<path d="M28.5165 93.77C29.9888 61.4103 53.7056 33.9835 85.9103 29.8943C118.108 25.8052 147.938 46.424 157.472 77.3846L162.77 76.7139C152.802 42.7675 120.316 20.0357 85.2246 24.4926C50.133 28.9496 24.3808 59.0736 23.226 94.4407L28.5237 93.77H28.5165Z" fill="#9C7DB5"/>
<path d="M36.8239 109.195C36.7445 108.51 36.6651 107.832 36.5929 107.147C36.5424 106.692 36.0516 106.49 35.6691 106.721C33.28 108.214 24.0633 112.087 21.2556 112.418C21.0969 112.44 20.9453 112.454 20.7865 112.469C20.5772 112.491 20.5916 112.498 20.4906 112.339C20.2885 112.029 20.1947 111.553 20.0575 111.207C19.7905 110.507 19.5162 109.808 19.2492 109.108C18.6934 107.651 18.1305 106.202 17.5747 104.745C17.0334 103.346 16.391 101.947 15.9508 100.512C15.7415 99.8265 15.7703 99.2062 16.0229 98.5428C16.2467 97.9514 16.5354 97.3744 16.6364 96.747C16.853 95.4344 16.1745 94.295 15.7487 93.0978C15.3373 91.9222 15.7775 90.4294 14.8248 89.4774C13.8505 88.4966 12.4358 89.088 11.7862 90.1193C11.2016 91.0352 11.3315 92.0449 11.5192 93.0473C11.1078 92.6723 10.7036 92.2973 10.2922 91.915C9.63542 91.3092 8.97141 90.5231 8.11252 90.2202C6.68345 89.7154 5.31934 90.8477 5.3049 92.1891C4.98012 92.2251 4.65533 92.3766 4.40993 92.6146C4.09236 92.9247 3.96244 93.3141 3.92636 93.7252C3.16852 93.617 2.34572 93.9921 1.93432 94.6628C1.19813 95.8744 1.72501 97.324 2.51172 98.3553C3.81809 100.064 5.82457 101.384 7.83104 102.12C8.32905 102.3 8.87036 102.452 9.4189 102.524C11.6635 106.707 13.8505 110.933 16.1745 115.072C17.1128 116.753 18.5996 119.017 20.837 118.44C21.9485 118.152 23.0239 117.589 24.0777 117.149C25.182 116.695 32.8037 113.342 33.908 112.88C34.4854 112.642 35.07 112.404 35.6474 112.159C36.1815 111.942 36.8166 111.748 36.961 111.113C37.0981 110.514 36.8888 109.779 36.8166 109.18L36.8239 109.195Z" fill="#EF6767"/>
<path d="M36.8239 109.195C36.7445 108.51 36.6651 107.832 36.5929 107.147C36.5424 106.692 36.0516 106.49 35.6691 106.721C33.28 108.214 24.0633 112.087 21.2556 112.418C21.0969 112.44 20.9453 112.454 20.7865 112.469C20.5772 112.491 20.5916 112.498 20.4906 112.339C20.2885 112.029 20.1947 111.553 20.0575 111.207C19.7905 110.507 19.5162 109.808 19.2492 109.108C18.6934 107.651 18.1305 106.202 17.5747 104.745C17.0334 103.346 16.391 101.947 15.9508 100.512C15.7415 99.8265 15.7703 99.2062 16.0229 98.5428C16.2467 97.9514 16.5354 97.3744 16.6364 96.747C16.853 95.4344 16.1745 94.295 15.7487 93.0978C15.3373 91.9222 15.7775 90.4294 14.8248 89.4774C13.8505 88.4966 12.4358 89.088 11.7862 90.1193C11.2016 91.0352 11.3315 92.0449 11.5192 93.0473C11.1078 92.6723 10.7036 92.2973 10.2922 91.915C9.63542 91.3092 8.97141 90.5231 8.11252 90.2202C6.68345 89.7154 5.31934 90.8477 5.3049 92.1891C4.98012 92.2251 4.65533 92.3766 4.40993 92.6146C4.09236 92.9247 3.96244 93.3141 3.92636 93.7252C3.16852 93.617 2.34572 93.9921 1.93432 94.6628C1.19813 95.8744 1.72501 97.324 2.51172 98.3553C3.81809 100.064 5.82457 101.384 7.83104 102.12C8.32905 102.3 8.87036 102.452 9.4189 102.524C11.6635 106.707 13.8505 110.933 16.1745 115.072C17.1128 116.753 18.5996 119.017 20.837 118.44C21.9485 118.152 23.0239 117.589 24.0777 117.149C25.182 116.695 32.8037 113.342 33.908 112.88C34.4854 112.642 35.07 112.404 35.6474 112.159C36.1815 111.942 36.8166 111.748 36.961 111.113C37.0981 110.514 36.8888 109.779 36.8166 109.18L36.8239 109.195Z" fill="url(#paint0_radial_156_478)"/>
<path d="M155.971 93.2133C155.841 92.5353 155.704 91.8646 155.574 91.1867C155.487 90.7396 155.891 90.3934 156.324 90.5016C159.053 91.2084 169.013 92.1243 171.784 91.5906C171.936 91.5617 172.095 91.5329 172.246 91.4968C172.456 91.4536 172.441 91.468 172.492 91.2877C172.593 90.9343 172.542 90.4511 172.564 90.0761C172.607 89.3261 172.658 88.576 172.701 87.8332C172.795 86.2754 172.889 84.7249 172.982 83.1671C173.076 81.667 173.264 80.1453 173.25 78.6453C173.25 77.9241 173.033 77.3471 172.586 76.7846C172.196 76.2942 171.748 75.8254 171.46 75.2629C170.853 74.0729 171.164 72.782 171.2 71.5199C171.243 70.2722 170.37 68.9885 170.983 67.7841C171.618 66.5509 173.141 66.6952 174.072 67.4812C174.902 68.1808 175.083 69.1833 175.205 70.1929L176.036 68.7505C176.476 67.9789 176.873 67.0269 177.602 66.4716C178.814 65.5629 180.453 66.2264 180.878 67.5029C181.203 67.438 181.55 67.4813 181.86 67.6399C182.257 67.8418 182.502 68.1736 182.654 68.5558C183.34 68.2241 184.242 68.3323 184.834 68.8515C185.902 69.7818 185.837 71.3252 185.397 72.5512C184.668 74.5705 183.152 76.4384 181.463 77.7438C181.044 78.0683 180.575 78.3712 180.07 78.602C179.19 83.2681 178.381 87.9558 177.421 92.6002C177.032 94.4825 176.303 97.0933 173.993 97.2159C172.853 97.2736 171.654 97.0644 170.514 96.9634C169.323 96.8625 161.045 95.961 159.854 95.86C159.226 95.8095 158.605 95.7518 157.977 95.7014C157.407 95.6509 156.743 95.6581 156.411 95.1028C156.101 94.5763 156.079 93.8118 155.964 93.2205L155.971 93.2133Z" fill="#EF6767"/>
<path d="M155.971 93.2133C155.841 92.5353 155.704 91.8646 155.574 91.1867C155.487 90.7396 155.891 90.3934 156.324 90.5016C159.053 91.2084 169.013 92.1243 171.784 91.5906C171.936 91.5617 172.095 91.5329 172.246 91.4968C172.456 91.4536 172.441 91.468 172.492 91.2877C172.593 90.9343 172.542 90.4511 172.564 90.0761C172.607 89.3261 172.658 88.576 172.701 87.8332C172.795 86.2754 172.889 84.7249 172.982 83.1671C173.076 81.667 173.264 80.1453 173.25 78.6453C173.25 77.9241 173.033 77.3471 172.586 76.7846C172.196 76.2942 171.748 75.8254 171.46 75.2629C170.853 74.0729 171.164 72.782 171.2 71.5199C171.243 70.2722 170.37 68.9885 170.983 67.7841C171.618 66.5509 173.141 66.6952 174.072 67.4812C174.902 68.1808 175.083 69.1833 175.205 70.1929L176.036 68.7505C176.476 67.9789 176.873 67.0269 177.602 66.4716C178.814 65.5629 180.453 66.2264 180.878 67.5029C181.203 67.438 181.55 67.4813 181.86 67.6399C182.257 67.8418 182.502 68.1736 182.654 68.5558C183.34 68.2241 184.242 68.3323 184.834 68.8515C185.902 69.7818 185.837 71.3252 185.397 72.5512C184.668 74.5705 183.152 76.4384 181.463 77.7438C181.044 78.0683 180.575 78.3712 180.07 78.602C179.19 83.2681 178.381 87.9558 177.421 92.6002C177.032 94.4825 176.303 97.0933 173.993 97.2159C172.853 97.2736 171.654 97.0644 170.514 96.9634C169.323 96.8625 161.045 95.961 159.854 95.86C159.226 95.8095 158.605 95.7518 157.977 95.7014C157.407 95.6509 156.743 95.6581 156.411 95.1028C156.101 94.5763 156.079 93.8118 155.964 93.2205L155.971 93.2133Z" fill="url(#paint1_radial_156_478)"/>
<path d="M86.1196 154.443L83.0232 164.958C83.0232 164.958 72.3124 168.398 73.7848 172.762L92.2617 171.11L94.2826 155.02L86.1196 154.443Z" fill="#EF6767"/>
<path d="M86.1196 154.443L83.0232 164.958C83.0232 164.958 72.3124 168.398 73.7848 172.762L92.2617 171.11L94.2826 155.02L86.1196 154.443Z" fill="url(#paint2_radial_156_478)"/>
<path d="M122.056 149.106L129.071 157.53C129.071 157.53 125.96 168.333 130.414 169.538L139.334 153.282L127.086 142.645L122.063 149.099L122.056 149.106Z" fill="#EF6767"/>
<path d="M122.056 149.106L129.071 157.53C129.071 157.53 125.96 168.333 130.414 169.538L139.334 153.282L127.086 142.645L122.063 149.099L122.056 149.106Z" fill="url(#paint3_radial_156_478)"/>
<path d="M108.739 163.486C107.036 165.174 104.445 165.592 102.294 164.525L71.6773 149.337C39.2056 133.485 33.6914 112.361 33.6914 112.361C27.2678 84.4875 46.2066 77.9824 46.2066 77.9824C69.3821 70.208 86.6969 82.7639 93.3732 88.8723C97.7831 80.9753 110.255 63.6091 134.708 63.6956C134.708 63.6956 154.737 63.9048 157.422 92.3845C157.422 92.3845 158.843 114.164 133.019 139.435L108.746 163.486H108.739Z" fill="#EF6767"/>
<path d="M107.689 108.25C112.04 107.902 115.279 104.021 114.923 99.5826C114.567 95.1438 110.752 91.8278 106.401 92.1761C102.05 92.5243 98.8112 96.405 99.167 100.844C99.5229 105.283 103.338 108.599 107.689 108.25Z" fill="white"/>
<path d="M98.8441 100.629C99.2772 104.805 102.944 107.841 107.036 107.416C111.128 106.99 114.095 103.254 113.662 99.0859C113.229 94.9102 109.562 91.874 105.47 92.2995C101.377 92.725 98.4111 96.4608 98.8441 100.629Z" fill="#403E3D"/>
<path d="M75.5098 103.506C75.9718 107.934 79.862 111.157 84.1997 110.703C88.5447 110.249 91.6915 106.289 91.2296 101.861C90.7677 97.4332 86.8774 94.2094 82.5397 94.6638C78.1948 95.1181 75.0479 99.0775 75.5098 103.506Z" fill="white"/>
<path d="M75.3077 102.936C75.7408 107.112 79.4073 110.148 83.4996 109.722C87.592 109.297 90.5584 105.561 90.1253 101.393C89.6923 97.2169 86.0258 94.1807 81.9334 94.6062C77.8411 95.0317 74.8747 98.7674 75.3077 102.936Z" fill="#403E3D"/>
<path d="M89.3242 111.742C89.3242 111.742 95.4375 117.59 102.554 109.975" stroke="#403E3D" stroke-width="2" stroke-linecap="round" stroke-linejoin="round"/>
</g>
<defs>
<radialGradient id="paint0_radial_156_478" cx="0" cy="0" r="1" gradientUnits="userSpaceOnUse" gradientTransform="translate(39.0541 111.156) scale(25.5356 25.5156)">
<stop stop-color="#C61C24" stop-opacity="0.9"/>
<stop offset="1" stop-color="#C61C24" stop-opacity="0"/>
</radialGradient>
<radialGradient id="paint1_radial_156_478" cx="0" cy="0" r="1" gradientUnits="userSpaceOnUse" gradientTransform="translate(158.67 96.0764) scale(14.399 14.3877)">
<stop stop-color="#C61C24" stop-opacity="0.9"/>
<stop offset="1" stop-color="#C61C24" stop-opacity="0"/>
</radialGradient>
<radialGradient id="paint2_radial_156_478" cx="0" cy="0" r="1" gradientUnits="userSpaceOnUse" gradientTransform="translate(87.6352 156.304) scale(12.0677 12.0583)">
<stop stop-color="#C61C24" stop-opacity="0.9"/>
<stop offset="1" stop-color="#C61C24" stop-opacity="0"/>
</radialGradient>
<radialGradient id="paint3_radial_156_478" cx="0" cy="0" r="1" gradientUnits="userSpaceOnUse" gradientTransform="translate(124.441 148.88) rotate(-56.1393) scale(12.0612 12.0648)">
<stop stop-color="#C61C24" stop-opacity="0.9"/>
<stop offset="1" stop-color="#C61C24" stop-opacity="0"/>
</radialGradient>
<clipPath id="clip0_156_478">
<rect width="185.981" height="200" fill="white"/>
</clipPath>
</defs>
</svg>
