<svg width="25" height="25" viewBox="0 0 25 25" fill="none" xmlns="http://www.w3.org/2000/svg">
<g opacity="0.5">
<path d="M15.1125 15.1125L18.9 18.9L15.1125 15.1125Z" fill="#EB8888"/>
<path d="M15.1125 15.1125L18.9 18.9" stroke="#EB8888" stroke-width="2" stroke-linecap="round"/>
<path d="M11.4437 16.6375C12.471 16.6375 13.4751 16.3329 14.3292 15.7622C15.1833 15.1915 15.849 14.3804 16.2421 13.4313C16.6352 12.4823 16.7381 11.438 16.5377 10.4305C16.3373 9.423 15.8426 8.49759 15.1163 7.77123C14.3899 7.04487 13.4645 6.5502 12.457 6.3498C11.4495 6.14939 10.4052 6.25226 9.45618 6.64536C8.50714 7.03846 7.69598 7.70415 7.12528 8.55826C6.55459 9.41237 6.25 10.4165 6.25 11.4438C6.25 12.8212 6.79717 14.1423 7.77119 15.1163C8.7452 16.0903 10.0663 16.6375 11.4437 16.6375Z" stroke="#EB8888" stroke-width="2"/>
</g>
</svg>
