<svg width="20" height="20" viewBox="0 0 81 81" fill="none" xmlns="http://www.w3.org/2000/svg">
<path d="M53.9203 48.4254C53.4816 48.4279 53.0467 48.3438 52.6406 48.178C52.2345 48.0121 51.8651 47.7677 51.5536 47.4587L40.5869 36.4254L29.5869 47.0254C28.9624 47.6462 28.1176 47.9947 27.2369 47.9947C26.3563 47.9947 25.5115 47.6462 24.8869 47.0254C24.5745 46.7155 24.3265 46.3468 24.1573 45.9406C23.9881 45.5344 23.901 45.0988 23.901 44.6587C23.901 44.2187 23.9881 43.783 24.1573 43.3768C24.3265 42.9706 24.5745 42.6019 24.8869 42.2921L38.2203 29.4254C38.8434 28.8146 39.6811 28.4725 40.5536 28.4725C41.4261 28.4725 42.2639 28.8146 42.8869 29.4254L56.2203 42.7587C56.5327 43.0686 56.7807 43.4373 56.9499 43.8435C57.1192 44.2497 57.2063 44.6854 57.2063 45.1254C57.2063 45.5654 57.1192 46.0011 56.9499 46.4073C56.7807 46.8135 56.5327 47.1822 56.2203 47.4921C55.6024 48.0877 54.7785 48.422 53.9203 48.4254V48.4254Z" fill="#231F20"/>
</svg>